<?xml version="1.0" encoding="utf-8" standalone="no"?>
<!DOCTYPE svg PUBLIC "-//W3C//DTD SVG 1.1//EN"
  "http://www.w3.org/Graphics/SVG/1.1/DTD/svg11.dtd">
<svg xmlns:xlink="http://www.w3.org/1999/xlink" width="523.332188pt" height="464.368375pt" viewBox="0 0 523.332188 464.368375" xmlns="http://www.w3.org/2000/svg" version="1.1">
 <metadata>
  <rdf:RDF xmlns:dc="http://purl.org/dc/elements/1.1/" xmlns:cc="http://creativecommons.org/ns#" xmlns:rdf="http://www.w3.org/1999/02/22-rdf-syntax-ns#">
   <cc:Work>
    <dc:type rdf:resource="http://purl.org/dc/dcmitype/StillImage"/>
    <dc:date>2026-06-12T09:57:33.616852</dc:date>
    <dc:format>image/svg+xml</dc:format>
    <dc:creator>
     <cc:Agent>
      <dc:title>Matplotlib v3.10.8, https://matplotlib.org/</dc:title>
     </cc:Agent>
    </dc:creator>
   </cc:Work>
  </rdf:RDF>
 </metadata>
 <defs>
  <style type="text/css">*{stroke-linejoin: round; stroke-linecap: butt}</style>
 </defs>
 <g id="figure_1">
  <g id="patch_1">
   <path d="M 0 464.368375 
L 523.332188 464.368375 
L 523.332188 0 
L 0 0 
z
" style="fill: #f6f1e7"/>
  </g>
  <g id="axes_1">
   <g id="patch_2">
    <path d="M 48.962188 116.7355 
L 516.132188 116.7355 
L 516.132188 7.2 
L 48.962188 7.2 
z
" style="fill: #f6f1e7"/>
   </g>
   <g id="matplotlib.axis_1">
    <g id="xtick_1">
     <g id="line2d_1">
      <defs>
       <path id="m53d16b89c7" d="M 0 0 
L 0 3.5 
" style="stroke: #5c554a; stroke-width: 0.8"/>
      </defs>
      <g>
       <use xlink:href="#m53d16b89c7" x="70.197188" y="116.7355" style="fill: #5c554a; stroke: #5c554a; stroke-width: 0.8"/>
      </g>
     </g>
     <g id="text_1">
      <text style="font-size: 11px; font-family: 'Georgia', 'Times New Roman', 'DejaVu Serif', serif; text-anchor: middle; fill: #5c554a" x="70.197188" y="132.050812" transform="rotate(-0 70.197188 132.050812)">0</text>
     </g>
    </g>
    <g id="xtick_2">
     <g id="line2d_2">
      <g>
       <use xlink:href="#m53d16b89c7" x="123.417739" y="116.7355" style="fill: #5c554a; stroke: #5c554a; stroke-width: 0.8"/>
      </g>
     </g>
     <g id="text_2">
      <text style="font-size: 11px; font-family: 'Georgia', 'Times New Roman', 'DejaVu Serif', serif; text-anchor: middle; fill: #5c554a" x="123.417739" y="132.050812" transform="rotate(-0 123.417739 132.050812)">50</text>
     </g>
    </g>
    <g id="xtick_3">
     <g id="line2d_3">
      <g>
       <use xlink:href="#m53d16b89c7" x="176.63829" y="116.7355" style="fill: #5c554a; stroke: #5c554a; stroke-width: 0.8"/>
      </g>
     </g>
     <g id="text_3">
      <text style="font-size: 11px; font-family: 'Georgia', 'Times New Roman', 'DejaVu Serif', serif; text-anchor: middle; fill: #5c554a" x="176.63829" y="132.050812" transform="rotate(-0 176.63829 132.050812)">100</text>
     </g>
    </g>
    <g id="xtick_4">
     <g id="line2d_4">
      <g>
       <use xlink:href="#m53d16b89c7" x="229.858842" y="116.7355" style="fill: #5c554a; stroke: #5c554a; stroke-width: 0.8"/>
      </g>
     </g>
     <g id="text_4">
      <text style="font-size: 11px; font-family: 'Georgia', 'Times New Roman', 'DejaVu Serif', serif; text-anchor: middle; fill: #5c554a" x="229.858842" y="132.050812" transform="rotate(-0 229.858842 132.050812)">150</text>
     </g>
    </g>
    <g id="xtick_5">
     <g id="line2d_5">
      <g>
       <use xlink:href="#m53d16b89c7" x="283.079393" y="116.7355" style="fill: #5c554a; stroke: #5c554a; stroke-width: 0.8"/>
      </g>
     </g>
     <g id="text_5">
      <text style="font-size: 11px; font-family: 'Georgia', 'Times New Roman', 'DejaVu Serif', serif; text-anchor: middle; fill: #5c554a" x="283.079393" y="132.050812" transform="rotate(-0 283.079393 132.050812)">200</text>
     </g>
    </g>
    <g id="xtick_6">
     <g id="line2d_6">
      <g>
       <use xlink:href="#m53d16b89c7" x="336.299944" y="116.7355" style="fill: #5c554a; stroke: #5c554a; stroke-width: 0.8"/>
      </g>
     </g>
     <g id="text_6">
      <text style="font-size: 11px; font-family: 'Georgia', 'Times New Roman', 'DejaVu Serif', serif; text-anchor: middle; fill: #5c554a" x="336.299944" y="132.050812" transform="rotate(-0 336.299944 132.050812)">250</text>
     </g>
    </g>
    <g id="xtick_7">
     <g id="line2d_7">
      <g>
       <use xlink:href="#m53d16b89c7" x="389.520496" y="116.7355" style="fill: #5c554a; stroke: #5c554a; stroke-width: 0.8"/>
      </g>
     </g>
     <g id="text_7">
      <text style="font-size: 11px; font-family: 'Georgia', 'Times New Roman', 'DejaVu Serif', serif; text-anchor: middle; fill: #5c554a" x="389.520496" y="132.050812" transform="rotate(-0 389.520496 132.050812)">300</text>
     </g>
    </g>
    <g id="xtick_8">
     <g id="line2d_8">
      <g>
       <use xlink:href="#m53d16b89c7" x="442.741047" y="116.7355" style="fill: #5c554a; stroke: #5c554a; stroke-width: 0.8"/>
      </g>
     </g>
     <g id="text_8">
      <text style="font-size: 11px; font-family: 'Georgia', 'Times New Roman', 'DejaVu Serif', serif; text-anchor: middle; fill: #5c554a" x="442.741047" y="132.050812" transform="rotate(-0 442.741047 132.050812)">350</text>
     </g>
    </g>
    <g id="xtick_9">
     <g id="line2d_9">
      <g>
       <use xlink:href="#m53d16b89c7" x="495.961599" y="116.7355" style="fill: #5c554a; stroke: #5c554a; stroke-width: 0.8"/>
      </g>
     </g>
     <g id="text_9">
      <text style="font-size: 11px; font-family: 'Georgia', 'Times New Roman', 'DejaVu Serif', serif; text-anchor: middle; fill: #5c554a" x="495.961599" y="132.050812" transform="rotate(-0 495.961599 132.050812)">400</text>
     </g>
    </g>
   </g>
   <g id="matplotlib.axis_2">
    <g id="ytick_1">
     <g id="line2d_10">
      <defs>
       <path id="m1e0f1b6a92" d="M 0 0 
L -3.5 0 
" style="stroke: #5c554a; stroke-width: 0.8"/>
      </defs>
      <g>
       <use xlink:href="#m1e0f1b6a92" x="48.962188" y="111.897342" style="fill: #5c554a; stroke: #5c554a; stroke-width: 0.8"/>
      </g>
     </g>
     <g id="text_10">
      <text style="font-size: 11px; font-family: 'Georgia', 'Times New Roman', 'DejaVu Serif', serif; text-anchor: end; fill: #5c554a" x="41.962188" y="116.054998" transform="rotate(-0 41.962188 116.054998)">700</text>
     </g>
    </g>
    <g id="ytick_2">
     <g id="line2d_11">
      <g>
       <use xlink:href="#m1e0f1b6a92" x="48.962188" y="73.742258" style="fill: #5c554a; stroke: #5c554a; stroke-width: 0.8"/>
      </g>
     </g>
     <g id="text_11">
      <text style="font-size: 11px; font-family: 'Georgia', 'Times New Roman', 'DejaVu Serif', serif; text-anchor: end; fill: #5c554a" x="41.962188" y="77.899914" transform="rotate(-0 41.962188 77.899914)">800</text>
     </g>
    </g>
    <g id="ytick_3">
     <g id="line2d_12">
      <g>
       <use xlink:href="#m1e0f1b6a92" x="48.962188" y="35.587174" style="fill: #5c554a; stroke: #5c554a; stroke-width: 0.8"/>
      </g>
     </g>
     <g id="text_12">
      <text style="font-size: 11px; font-family: 'Georgia', 'Times New Roman', 'DejaVu Serif', serif; text-anchor: end; fill: #5c554a" x="41.962188" y="39.74483" transform="rotate(-0 41.962188 39.74483)">900</text>
     </g>
    </g>
    <g id="text_13">
     <text style="font-size: 11px; font-family: 'Georgia', 'Times New Roman', 'DejaVu Serif', serif; text-anchor: middle; fill: #5c554a" x="15.515313" y="61.96775" transform="rotate(-90 15.515313 61.96775)">RR (ms)</text>
    </g>
   </g>
   <g id="line2d_13">
    <path d="M 70.197188 54.935564 
L 71.261599 53.598532 
L 72.32601 51.897978 
L 73.390421 51.642266 
L 74.454832 45.723107 
L 75.519243 61.136018 
L 76.583654 61.965582 
L 77.648065 65.297176 
L 78.712476 79.266952 
L 79.776887 73.009596 
L 80.841298 85.703893 
L 81.905709 72.101391 
L 82.97012 73.763137 
L 84.034531 77.188597 
L 85.098942 75.163463 
L 86.163353 70.279099 
L 87.227764 48.441313 
L 89.356586 70.851561 
L 90.420997 75.745776 
L 91.485408 71.973873 
L 92.549819 63.885242 
L 93.61423 63.721825 
L 94.678641 65.738694 
L 96.807463 43.497544 
L 97.871874 45.540151 
L 98.936285 58.245382 
L 100.000696 57.739446 
L 101.065107 45.215024 
L 102.129518 58.464635 
L 103.193929 46.011972 
L 104.25834 17.253057 
L 105.322751 52.184993 
L 106.387162 44.73944 
L 107.451573 41.21653 
L 108.515984 35.174509 
L 109.580396 62.357568 
L 110.644807 65.702304 
L 111.709218 55.745797 
L 112.773629 51.649151 
L 113.83804 51.832025 
L 114.902451 36.251641 
L 115.966862 41.043989 
L 117.031273 45.013276 
L 118.095684 39.372288 
L 119.160095 31.29238 
L 120.224506 27.963483 
L 121.288917 40.191969 
L 122.353328 47.178654 
L 123.417739 55.67286 
L 124.48215 70.743737 
L 125.546561 63.735107 
L 126.610972 44.943361 
L 127.675383 57.819903 
L 128.739794 46.438504 
L 129.804205 48.268167 
L 130.868616 40.204725 
L 131.933027 39.290794 
L 132.997438 53.657382 
L 134.061849 58.685919 
L 135.12626 53.570861 
L 136.190671 52.137743 
L 137.255082 48.515584 
L 138.319493 64.445267 
L 139.383904 53.798919 
L 140.448315 71.51364 
L 141.512726 64.768918 
L 142.577137 55.435173 
L 143.641548 52.755997 
L 144.705959 63.114676 
L 146.834781 49.557976 
L 147.899193 51.301119 
L 148.963604 71.345028 
L 150.028015 66.880336 
L 151.092426 68.217472 
L 152.156837 63.861808 
L 154.285659 96.101697 
L 155.35007 82.440303 
L 156.414481 78.607032 
L 157.478892 62.73052 
L 158.543303 62.311588 
L 159.607714 77.642172 
L 160.672125 80.313634 
L 161.736536 45.672873 
L 162.800947 71.463612 
L 163.865358 73.052874 
L 164.929769 66.243928 
L 165.99418 37.865376 
L 167.058591 42.920504 
L 168.123002 61.512694 
L 169.187413 58.844795 
L 170.251824 67.13781 
L 171.316235 66.823531 
L 172.380646 88.595081 
L 173.445057 84.19779 
L 174.509468 70.505467 
L 175.573879 78.240492 
L 176.63829 73.132116 
L 177.702701 84.851838 
L 178.767112 72.962524 
L 179.831523 71.477525 
L 180.895934 61.110239 
L 181.960345 69.759069 
L 183.024756 76.868418 
L 184.089167 60.571702 
L 185.153578 71.018362 
L 186.21799 73.088219 
L 187.282401 74.02713 
L 188.346812 64.824906 
L 189.411223 81.503656 
L 190.475634 71.126572 
L 191.540045 71.851619 
L 192.604456 65.204107 
L 193.668867 60.660325 
L 194.733278 67.527273 
L 195.797689 60.574648 
L 196.8621 59.054188 
L 197.926511 63.292815 
L 198.990922 63.87197 
L 200.055333 61.81852 
L 201.119744 63.619899 
L 202.184155 74.966257 
L 203.248566 78.184095 
L 204.312977 66.685431 
L 205.377388 61.684176 
L 206.441799 64.92 
L 207.50621 69.868724 
L 208.570621 59.605162 
L 209.635032 56.846877 
L 210.699443 53.527439 
L 211.763854 82.344797 
L 212.828265 85.658174 
L 213.892676 69.267929 
L 214.957087 63.319316 
L 216.021498 59.961791 
L 217.085909 65.182021 
L 218.15032 56.92002 
L 219.214731 57.627374 
L 220.279142 71.867048 
L 221.343553 71.758786 
L 222.407964 75.668344 
L 223.472375 81.497488 
L 224.536786 83.454629 
L 225.601198 71.573372 
L 226.665609 85.652019 
L 227.73002 83.363558 
L 228.794431 67.066056 
L 229.858842 77.989966 
L 230.923253 63.514548 
L 231.987664 59.518176 
L 233.052075 58.062488 
L 234.116486 75.268581 
L 235.180897 81.150778 
L 236.245308 84.437898 
L 237.309719 65.644876 
L 238.37413 75.646652 
L 239.438541 74.878915 
L 240.502952 87.295954 
L 241.567363 77.692349 
L 242.631774 70.249031 
L 243.696185 65.297185 
L 244.760596 64.030889 
L 245.825007 67.704063 
L 246.889418 77.254229 
L 247.953829 58.016465 
L 249.01824 73.078281 
L 250.082651 92.644081 
L 251.147062 80.85081 
L 252.211473 92.171783 
L 253.275884 92.122424 
L 254.340295 86.494292 
L 255.404706 75.544008 
L 256.469117 72.594343 
L 257.533528 90.098452 
L 258.597939 93.355572 
L 259.66235 82.421454 
L 260.726761 82.508009 
L 261.791172 85.286371 
L 262.855583 91.809224 
L 263.919995 99.858158 
L 264.984406 81.5212 
L 266.048817 88.622183 
L 267.113228 72.074207 
L 268.177639 78.037027 
L 269.24205 96.04841 
L 271.370872 102.735234 
L 272.435283 111.756614 
L 273.499694 91.363445 
L 274.564105 77.692063 
L 275.628516 90.820767 
L 276.692927 75.94028 
L 277.757338 75.852199 
L 278.821749 63.481397 
L 279.88616 57.456934 
L 280.950571 54.808192 
L 282.014982 53.471541 
L 283.079393 73.485615 
L 284.143804 63.689034 
L 285.208215 71.44323 
L 286.272626 89.192921 
L 287.337037 93.367298 
L 288.401448 69.820803 
L 289.465859 87.082986 
L 290.53027 86.097325 
L 291.594681 83.380138 
L 292.659092 90.036254 
L 293.723503 90.731198 
L 294.787914 79.080643 
L 295.852325 82.993668 
L 296.916736 78.432806 
L 297.981147 85.273593 
L 299.045558 82.422574 
L 300.109969 85.838133 
L 301.17438 73.729988 
L 302.238792 64.326418 
L 303.303203 76.978155 
L 304.367614 77.421011 
L 305.432025 67.260825 
L 306.496436 80.171936 
L 307.560847 81.647451 
L 308.625258 78.565767 
L 310.75408 66.368815 
L 311.818491 63.453407 
L 312.882902 74.75064 
L 313.947313 71.734399 
L 315.011724 59.16204 
L 316.076135 79.363226 
L 317.140546 59.992706 
L 318.204957 66.081359 
L 319.269368 55.93791 
L 320.333779 59.068958 
L 321.39819 64.333628 
L 322.462601 62.167159 
L 323.527012 54.624612 
L 324.591423 40.007425 
L 325.655834 58.723002 
L 326.720245 53.237751 
L 327.784656 50.783168 
L 328.849067 63.056122 
L 329.913478 73.981908 
L 330.977889 55.913338 
L 332.0423 57.322814 
L 333.106711 55.173259 
L 334.171122 66.476066 
L 335.235533 54.353022 
L 336.299944 47.387515 
L 337.364355 35.259233 
L 338.428766 50.317924 
L 339.493177 67.898439 
L 340.557589 61.957062 
L 341.622 81.976629 
L 342.686411 78.743092 
L 343.750822 63.380357 
L 344.815233 70.702729 
L 345.879644 65.135137 
L 346.944055 74.117179 
L 348.008466 64.910474 
L 349.072877 62.046654 
L 350.137288 44.730313 
L 351.201699 42.778668 
L 352.26611 38.30229 
L 353.330521 39.646138 
L 354.394932 49.780732 
L 355.459343 62.528253 
L 356.523754 53.610011 
L 357.588165 33.07177 
L 358.652576 33.684138 
L 359.716987 39.180741 
L 360.781398 23.897899 
L 361.845809 45.202022 
L 362.91022 56.172791 
L 363.974631 58.080646 
L 365.039042 59.10947 
L 366.103453 39.023275 
L 367.167864 52.477508 
L 368.232275 27.316035 
L 369.296686 45.463447 
L 370.361097 40.577473 
L 371.425508 60.390653 
L 372.489919 76.314768 
L 373.55433 52.899995 
L 374.618741 43.630764 
L 375.683152 43.531578 
L 376.747563 67.162881 
L 377.811974 65.622093 
L 378.876385 49.268445 
L 379.940797 34.859607 
L 381.005208 28.849271 
L 382.069619 40.253533 
L 383.13403 36.613735 
L 384.198441 19.659035 
L 385.262852 40.219454 
L 386.327263 26.968829 
L 387.391674 36.21718 
L 388.456085 30.714974 
L 389.520496 15.333593 
L 390.584907 20.375898 
L 391.649318 31.887736 
L 392.713729 26.579512 
L 393.77814 29.408269 
L 394.842551 39.951621 
L 395.906962 44.753069 
L 396.971373 38.114418 
L 398.035784 50.87812 
L 399.100195 41.133039 
L 400.164606 35.384737 
L 401.229017 45.726811 
L 402.293428 45.725454 
L 403.357839 49.931722 
L 405.486661 65.650325 
L 406.551072 57.295878 
L 407.615483 55.065908 
L 408.679894 64.97579 
L 409.744305 71.226775 
L 410.808716 70.337396 
L 411.873127 62.22143 
L 412.937538 45.585302 
L 414.001949 61.158188 
L 415.06636 51.327981 
L 416.130771 61.236043 
L 417.195182 48.906154 
L 418.259594 68.321522 
L 419.324005 76.915759 
L 420.388416 62.719538 
L 421.452827 76.494401 
L 422.517238 58.856666 
L 423.581649 38.267595 
L 424.64606 57.774442 
L 425.710471 65.644656 
L 426.774882 50.951196 
L 427.839293 62.378035 
L 428.903704 67.145459 
L 429.968115 72.935151 
L 431.032526 73.141365 
L 432.096937 62.452399 
L 433.161348 59.928965 
L 434.225759 77.121548 
L 435.29017 82.337256 
L 436.354581 88.89167 
L 437.418992 82.04151 
L 438.483403 66.775584 
L 439.547814 61.830544 
L 440.612225 63.39103 
L 441.676636 44.800323 
L 443.805458 73.73877 
L 444.869869 73.260833 
L 445.93428 83.597932 
L 446.998691 78.838313 
L 448.063102 64.194908 
L 449.127513 76.966132 
L 450.191924 72.484157 
L 451.256335 79.799055 
L 452.320746 68.327615 
L 453.385157 71.305437 
L 454.449568 68.677711 
L 455.513979 66.579606 
L 456.578391 57.550415 
L 457.642802 78.087291 
L 458.707213 71.235736 
L 459.771624 48.591408 
L 460.836035 42.889746 
L 461.900446 26.617767 
L 462.964857 45.515688 
L 464.029268 40.446062 
L 465.093679 40.665302 
L 466.15809 37.53498 
L 467.222501 30.289814 
L 468.286912 12.178886 
L 469.351323 37.809802 
L 470.415734 40.284549 
L 471.480145 27.110333 
L 472.544556 46.256492 
L 473.608967 44.531377 
L 474.673378 50.69155 
L 475.737789 44.954354 
L 476.8022 48.239004 
L 477.866611 48.355761 
L 478.931022 59.143171 
L 479.995433 63.021164 
L 481.059844 69.223377 
L 482.124255 66.278244 
L 483.188666 54.363361 
L 484.253077 74.962434 
L 485.317488 63.296388 
L 486.381899 55.51836 
L 487.44631 44.338592 
L 488.510721 41.610691 
L 489.575132 50.783153 
L 490.639543 65.020982 
L 491.703954 48.600728 
L 492.768365 52.749671 
L 493.832776 70.254528 
L 494.897188 75.174619 
L 494.897188 75.174619 
" clip-path="url(#pd51417cce8)" style="fill: none; stroke: #1e3d52; stroke-width: 0.9; stroke-linecap: square"/>
   </g>
   <g id="patch_3">
    <path d="M 48.962188 116.7355 
L 48.962188 7.2 
" style="fill: none; stroke: #d8cfbc; stroke-width: 0.8; stroke-linejoin: miter; stroke-linecap: square"/>
   </g>
   <g id="patch_4">
    <path d="M 48.962188 116.7355 
L 516.132188 116.7355 
" style="fill: none; stroke: #d8cfbc; stroke-width: 0.8; stroke-linejoin: miter; stroke-linecap: square"/>
   </g>
  </g>
  <g id="axes_2">
   <g id="patch_5">
    <path d="M 48.962188 270.751 
L 516.132188 270.751 
L 516.132188 161.2155 
L 48.962188 161.2155 
z
" style="fill: #f6f1e7"/>
   </g>
   <g id="matplotlib.axis_3">
    <g id="xtick_10">
     <g id="line2d_14">
      <g>
       <use xlink:href="#m53d16b89c7" x="70.197188" y="270.751" style="fill: #5c554a; stroke: #5c554a; stroke-width: 0.8"/>
      </g>
     </g>
     <g id="text_14">
      <text style="font-size: 11px; font-family: 'Georgia', 'Times New Roman', 'DejaVu Serif', serif; text-anchor: middle; fill: #5c554a" x="70.197188" y="286.066312" transform="rotate(-0 70.197188 286.066312)">0</text>
     </g>
    </g>
    <g id="xtick_11">
     <g id="line2d_15">
      <g>
       <use xlink:href="#m53d16b89c7" x="123.417739" y="270.751" style="fill: #5c554a; stroke: #5c554a; stroke-width: 0.8"/>
      </g>
     </g>
     <g id="text_15">
      <text style="font-size: 11px; font-family: 'Georgia', 'Times New Roman', 'DejaVu Serif', serif; text-anchor: middle; fill: #5c554a" x="123.417739" y="286.066312" transform="rotate(-0 123.417739 286.066312)">50</text>
     </g>
    </g>
    <g id="xtick_12">
     <g id="line2d_16">
      <g>
       <use xlink:href="#m53d16b89c7" x="176.63829" y="270.751" style="fill: #5c554a; stroke: #5c554a; stroke-width: 0.8"/>
      </g>
     </g>
     <g id="text_16">
      <text style="font-size: 11px; font-family: 'Georgia', 'Times New Roman', 'DejaVu Serif', serif; text-anchor: middle; fill: #5c554a" x="176.63829" y="286.066312" transform="rotate(-0 176.63829 286.066312)">100</text>
     </g>
    </g>
    <g id="xtick_13">
     <g id="line2d_17">
      <g>
       <use xlink:href="#m53d16b89c7" x="229.858842" y="270.751" style="fill: #5c554a; stroke: #5c554a; stroke-width: 0.8"/>
      </g>
     </g>
     <g id="text_17">
      <text style="font-size: 11px; font-family: 'Georgia', 'Times New Roman', 'DejaVu Serif', serif; text-anchor: middle; fill: #5c554a" x="229.858842" y="286.066312" transform="rotate(-0 229.858842 286.066312)">150</text>
     </g>
    </g>
    <g id="xtick_14">
     <g id="line2d_18">
      <g>
       <use xlink:href="#m53d16b89c7" x="283.079393" y="270.751" style="fill: #5c554a; stroke: #5c554a; stroke-width: 0.8"/>
      </g>
     </g>
     <g id="text_18">
      <text style="font-size: 11px; font-family: 'Georgia', 'Times New Roman', 'DejaVu Serif', serif; text-anchor: middle; fill: #5c554a" x="283.079393" y="286.066312" transform="rotate(-0 283.079393 286.066312)">200</text>
     </g>
    </g>
    <g id="xtick_15">
     <g id="line2d_19">
      <g>
       <use xlink:href="#m53d16b89c7" x="336.299944" y="270.751" style="fill: #5c554a; stroke: #5c554a; stroke-width: 0.8"/>
      </g>
     </g>
     <g id="text_19">
      <text style="font-size: 11px; font-family: 'Georgia', 'Times New Roman', 'DejaVu Serif', serif; text-anchor: middle; fill: #5c554a" x="336.299944" y="286.066312" transform="rotate(-0 336.299944 286.066312)">250</text>
     </g>
    </g>
    <g id="xtick_16">
     <g id="line2d_20">
      <g>
       <use xlink:href="#m53d16b89c7" x="389.520496" y="270.751" style="fill: #5c554a; stroke: #5c554a; stroke-width: 0.8"/>
      </g>
     </g>
     <g id="text_20">
      <text style="font-size: 11px; font-family: 'Georgia', 'Times New Roman', 'DejaVu Serif', serif; text-anchor: middle; fill: #5c554a" x="389.520496" y="286.066312" transform="rotate(-0 389.520496 286.066312)">300</text>
     </g>
    </g>
    <g id="xtick_17">
     <g id="line2d_21">
      <g>
       <use xlink:href="#m53d16b89c7" x="442.741047" y="270.751" style="fill: #5c554a; stroke: #5c554a; stroke-width: 0.8"/>
      </g>
     </g>
     <g id="text_21">
      <text style="font-size: 11px; font-family: 'Georgia', 'Times New Roman', 'DejaVu Serif', serif; text-anchor: middle; fill: #5c554a" x="442.741047" y="286.066312" transform="rotate(-0 442.741047 286.066312)">350</text>
     </g>
    </g>
    <g id="xtick_18">
     <g id="line2d_22">
      <g>
       <use xlink:href="#m53d16b89c7" x="495.961599" y="270.751" style="fill: #5c554a; stroke: #5c554a; stroke-width: 0.8"/>
      </g>
     </g>
     <g id="text_22">
      <text style="font-size: 11px; font-family: 'Georgia', 'Times New Roman', 'DejaVu Serif', serif; text-anchor: middle; fill: #5c554a" x="495.961599" y="286.066312" transform="rotate(-0 495.961599 286.066312)">400</text>
     </g>
    </g>
    <g id="text_23">
     <text style="font-size: 11px; font-family: 'Georgia', 'Times New Roman', 'DejaVu Serif', serif; text-anchor: middle; fill: #5c554a" x="282.547188" y="300.76725" transform="rotate(-0 282.547188 300.76725)">beat #</text>
    </g>
   </g>
   <g id="matplotlib.axis_4">
    <g id="ytick_4">
     <g id="line2d_23">
      <g>
       <use xlink:href="#m1e0f1b6a92" x="48.962188" y="237.675942" style="fill: #5c554a; stroke: #5c554a; stroke-width: 0.8"/>
      </g>
     </g>
     <g id="text_24">
      <text style="font-size: 11px; font-family: 'Georgia', 'Times New Roman', 'DejaVu Serif', serif; text-anchor: end; fill: #5c554a" x="41.962188" y="241.833599" transform="rotate(-0 41.962188 241.833599)">800</text>
     </g>
    </g>
    <g id="ytick_5">
     <g id="line2d_24">
      <g>
       <use xlink:href="#m1e0f1b6a92" x="48.962188" y="198.406408" style="fill: #5c554a; stroke: #5c554a; stroke-width: 0.8"/>
      </g>
     </g>
     <g id="text_25">
      <text style="font-size: 11px; font-family: 'Georgia', 'Times New Roman', 'DejaVu Serif', serif; text-anchor: end; fill: #5c554a" x="41.962188" y="202.564064" transform="rotate(-0 41.962188 202.564064)">900</text>
     </g>
    </g>
    <g id="text_26">
     <text style="font-size: 11px; font-family: 'Georgia', 'Times New Roman', 'DejaVu Serif', serif; text-anchor: middle; fill: #5c554a" x="15.515313" y="215.98325" transform="rotate(-90 15.515313 215.98325)">RR (ms)</text>
    </g>
   </g>
   <g id="line2d_25">
    <path d="M 70.197188 214.930443 
L 71.261599 216.292959 
L 72.32601 207.653932 
L 74.454832 233.62295 
L 75.519243 232.463467 
L 76.583654 201.709174 
L 77.648065 209.89042 
L 78.712476 214.802009 
L 79.776887 220.779034 
L 80.841298 189.175018 
L 81.905709 225.082742 
L 82.97012 236.545989 
L 85.098942 195.302659 
L 86.163353 211.140625 
L 87.227764 246.217603 
L 88.292175 197.387642 
L 89.356586 211.908327 
L 90.420997 214.091339 
L 91.485408 206.595342 
L 92.549819 205.503297 
L 93.61423 196.970587 
L 94.678641 231.339607 
L 95.743052 206.639579 
L 96.807463 226.321988 
L 97.871874 219.064606 
L 98.936285 193.780397 
L 100.000696 203.407216 
L 101.065107 235.164276 
L 102.129518 219.450335 
L 103.193929 200.510001 
L 104.25834 240.994922 
L 105.322751 237.891729 
L 106.387162 220.167483 
L 107.451573 213.139552 
L 108.515984 243.083526 
L 109.580396 202.074715 
L 110.644807 232.609718 
L 111.709218 216.213801 
L 112.773629 204.77564 
L 113.83804 181.876136 
L 114.902451 212.599245 
L 115.966862 204.930538 
L 117.031273 221.360768 
L 118.095684 221.476181 
L 119.160095 220.158186 
L 120.224506 222.014404 
L 121.288917 215.265115 
L 122.353328 183.862726 
L 123.417739 212.245692 
L 124.48215 194.620763 
L 125.546561 222.328001 
L 126.610972 211.547945 
L 127.675383 214.143978 
L 128.739794 220.287074 
L 129.804205 230.013781 
L 130.868616 203.15883 
L 131.933027 202.10414 
L 132.997438 211.712436 
L 134.061849 238.713778 
L 135.12626 249.54409 
L 136.190671 220.914949 
L 137.255082 203.101396 
L 138.319493 224.567435 
L 139.383904 213.858337 
L 140.448315 230.55513 
L 141.512726 213.918526 
L 142.577137 238.824849 
L 143.641548 223.417136 
L 144.705959 242.801688 
L 145.77037 236.845261 
L 146.834781 199.919931 
L 147.899193 212.402534 
L 148.963604 214.10137 
L 150.028015 183.908504 
L 151.092426 232.108856 
L 152.156837 223.242997 
L 153.221248 231.366014 
L 154.285659 173.641851 
L 155.35007 198.068888 
L 156.414481 205.957442 
L 157.478892 225.026487 
L 158.543303 217.731018 
L 159.607714 227.985081 
L 160.672125 208.217806 
L 161.736536 210.040784 
L 162.800947 218.011879 
L 163.865358 198.198058 
L 164.929769 191.231048 
L 165.99418 200.092607 
L 167.058591 253.267846 
L 168.123002 202.268368 
L 169.187413 242.503494 
L 171.316235 226.502652 
L 172.380646 229.344678 
L 173.445057 236.381094 
L 174.509468 249.385223 
L 175.573879 227.557578 
L 176.63829 197.493619 
L 177.702701 212.7878 
L 178.767112 200.156319 
L 179.831523 237.191712 
L 180.895934 230.412996 
L 181.960345 220.687125 
L 183.024756 219.18637 
L 184.089167 196.911132 
L 185.153578 217.354175 
L 186.21799 182.626185 
L 187.282401 221.806312 
L 188.346812 213.56742 
L 189.411223 207.826259 
L 190.475634 247.072362 
L 191.540045 204.200189 
L 192.604456 214.93753 
L 193.668867 200.745576 
L 194.733278 225.272796 
L 195.797689 223.278907 
L 196.8621 220.337526 
L 197.926511 193.937238 
L 198.990922 227.662718 
L 200.055333 213.528647 
L 201.119744 238.940153 
L 202.184155 206.756015 
L 203.248566 240.888371 
L 204.312977 187.324521 
L 205.377388 212.139044 
L 206.441799 216.066764 
L 207.50621 213.009343 
L 208.570621 252.917969 
L 209.635032 240.99398 
L 210.699443 232.110095 
L 211.763854 226.134394 
L 212.828265 218.14753 
L 213.892676 208.833433 
L 214.957087 207.341308 
L 216.021498 224.120695 
L 217.085909 216.114795 
L 218.15032 218.14335 
L 219.214731 218.893226 
L 220.279142 221.556879 
L 221.343553 224.968387 
L 222.407964 214.883908 
L 223.472375 240.958112 
L 224.536786 235.604474 
L 225.601198 212.756368 
L 226.665609 243.297429 
L 227.73002 206.051865 
L 228.794431 221.693708 
L 229.858842 247.319328 
L 230.923253 243.909649 
L 231.987664 247.197572 
L 233.052075 216.224909 
L 234.116486 228.699931 
L 235.180897 249.110016 
L 236.245308 212.279522 
L 237.309719 191.739309 
L 238.37413 221.564174 
L 239.438541 213.012312 
L 240.502952 208.605359 
L 241.567363 208.547073 
L 242.631774 247.671997 
L 243.696185 214.386195 
L 244.760596 221.952084 
L 245.825007 255.019856 
L 246.889418 192.277226 
L 247.953829 228.817421 
L 249.01824 193.598187 
L 250.082651 231.606524 
L 251.147062 196.749765 
L 252.211473 213.555939 
L 253.275884 244.992124 
L 254.340295 208.191364 
L 255.404706 236.209648 
L 256.469117 258.253799 
L 257.533528 233.639948 
L 258.597939 183.855412 
L 259.66235 211.272253 
L 260.726761 229.018974 
L 261.791172 237.030313 
L 262.855583 226.44021 
L 263.919995 238.858147 
L 264.984406 206.382007 
L 266.048817 239.955964 
L 267.113228 245.800604 
L 268.177639 214.046253 
L 269.24205 246.3549 
L 270.306461 195.14394 
L 271.370872 235.309763 
L 272.435283 215.076219 
L 273.499694 209.233095 
L 274.564105 227.164189 
L 275.628516 218.033518 
L 276.692927 193.559822 
L 277.757338 228.175856 
L 278.821749 229.487609 
L 279.88616 197.39842 
L 280.950571 191.66243 
L 282.014982 214.774702 
L 283.079393 204.328905 
L 284.143804 197.275151 
L 285.208215 221.110137 
L 286.272626 231.887783 
L 287.337037 227.407614 
L 288.401448 191.936072 
L 289.465859 235.218967 
L 290.53027 231.879557 
L 291.594681 223.672092 
L 292.659092 223.851823 
L 293.723503 197.228032 
L 294.787914 247.819485 
L 295.852325 212.38228 
L 296.916736 223.058884 
L 297.981147 176.301238 
L 299.045558 211.427777 
L 300.109969 265.772114 
L 301.17438 222.450954 
L 302.238792 233.378528 
L 303.303203 242.822843 
L 304.367614 201.878585 
L 305.432025 198.490711 
L 306.496436 227.115378 
L 307.560847 235.730081 
L 308.625258 252.358421 
L 309.689669 224.776656 
L 310.75408 219.940259 
L 311.818491 230.14307 
L 312.882902 231.507671 
L 313.947313 191.471701 
L 315.011724 234.086341 
L 316.076135 223.075449 
L 317.140546 226.331266 
L 318.204957 221.282035 
L 319.269368 230.846629 
L 320.333779 210.776131 
L 321.39819 228.934215 
L 322.462601 215.1609 
L 323.527012 198.678182 
L 324.591423 221.763886 
L 325.655834 208.634796 
L 326.720245 213.229765 
L 327.784656 244.147617 
L 328.849067 224.362539 
L 329.913478 247.187621 
L 330.977889 209.398652 
L 332.0423 216.66566 
L 333.106711 218.895054 
L 334.171122 239.730373 
L 335.235533 196.103236 
L 336.299944 192.047026 
L 337.364355 214.23481 
L 338.428766 212.254502 
L 339.493177 239.01194 
L 340.557589 229.883684 
L 341.622 212.81386 
L 342.686411 239.530319 
L 343.750822 237.979309 
L 344.815233 221.487345 
L 345.879644 207.825997 
L 346.944055 201.095698 
L 348.008466 229.428307 
L 349.072877 219.779968 
L 350.137288 234.983857 
L 351.201699 200.901502 
L 352.26611 264.554647 
L 353.330521 214.218037 
L 354.394932 203.029636 
L 355.459343 241.741115 
L 356.523754 174.457661 
L 357.588165 207.040609 
L 358.652576 222.070679 
L 359.716987 255.161103 
L 360.781398 217.082522 
L 361.845809 240.675878 
L 362.91022 213.136502 
L 363.974631 235.609437 
L 365.039042 243.930741 
L 366.103453 219.64127 
L 367.167864 205.989021 
L 368.232275 210.578545 
L 369.296686 219.528009 
L 370.361097 175.461247 
L 371.425508 212.235444 
L 372.489919 211.691654 
L 373.55433 198.763811 
L 374.618741 202.296404 
L 375.683152 212.464964 
L 376.747563 207.469791 
L 377.811974 236.605473 
L 378.876385 228.264095 
L 379.940797 249.462158 
L 381.005208 216.109256 
L 382.069619 212.172064 
L 383.13403 224.145203 
L 384.198441 206.185581 
L 385.262852 252.458688 
L 386.327263 208.047189 
L 387.391674 231.251427 
L 388.456085 213.450406 
L 389.520496 240.323592 
L 390.584907 225.416305 
L 391.649318 246.609797 
L 392.713729 261.673777 
L 393.77814 213.926349 
L 394.842551 240.624594 
L 395.906962 212.80749 
L 396.971373 217.41767 
L 398.035784 202.480404 
L 399.100195 235.743012 
L 400.164606 240.98104 
L 401.229017 260.688466 
L 402.293428 200.594349 
L 403.357839 223.876621 
L 404.42225 204.797243 
L 405.486661 209.825934 
L 406.551072 227.362828 
L 407.615483 218.010944 
L 408.679894 244.293422 
L 409.744305 189.994148 
L 410.808716 223.403095 
L 411.873127 217.999899 
L 412.937538 214.46432 
L 414.001949 199.054815 
L 415.06636 252.972853 
L 416.130771 206.748688 
L 417.195182 232.764742 
L 418.259594 220.477615 
L 419.324005 219.239517 
L 420.388416 257.129859 
L 421.452827 201.243829 
L 422.517238 232.234896 
L 423.581649 228.309002 
L 424.64606 200.16832 
L 425.710471 210.34154 
L 426.774882 222.424373 
L 427.839293 222.847237 
L 428.903704 208.545116 
L 429.968115 232.941166 
L 431.032526 242.861573 
L 432.096937 219.142072 
L 433.161348 204.135817 
L 434.225759 208.142223 
L 435.29017 194.425456 
L 436.354581 199.997756 
L 437.418992 206.261153 
L 438.483403 224.639937 
L 439.547814 217.409298 
L 440.612225 230.700169 
L 442.741047 196.612543 
L 443.805458 242.047719 
L 444.869869 166.194386 
L 445.93428 253.729812 
L 446.998691 220.284584 
L 448.063102 209.518429 
L 449.127513 213.169937 
L 450.191924 202.821591 
L 452.320746 227.933196 
L 453.385157 210.633049 
L 454.449568 229.060597 
L 455.513979 217.720377 
L 456.578391 220.696141 
L 457.642802 243.088559 
L 458.707213 231.661435 
L 459.771624 216.070194 
L 460.836035 205.536361 
L 461.900446 197.249706 
L 464.029268 211.327426 
L 465.093679 223.742342 
L 466.15809 241.56292 
L 467.222501 189.94174 
L 468.286912 189.949916 
L 469.351323 199.320377 
L 470.415734 226.505583 
L 471.480145 257.435387 
L 472.544556 179.816399 
L 473.608967 219.018977 
L 474.673378 214.777121 
L 475.737789 206.958363 
L 476.8022 235.851439 
L 477.866611 222.010174 
L 478.931022 193.0945 
L 479.995433 235.865082 
L 481.059844 197.755504 
L 482.124255 207.570428 
L 483.188666 194.268852 
L 484.253077 259.297788 
L 486.381899 198.258392 
L 487.44631 250.566999 
L 488.510721 221.665277 
L 489.575132 219.6737 
L 490.639543 213.967033 
L 491.703954 239.306045 
L 492.768365 218.862264 
L 493.832776 225.958723 
L 494.897188 217.694705 
L 494.897188 217.694705 
" clip-path="url(#pc454ddb8ba)" style="fill: none; stroke: #c34a22; stroke-width: 0.9; stroke-linecap: square"/>
   </g>
   <g id="patch_6">
    <path d="M 48.962188 270.751 
L 48.962188 161.2155 
" style="fill: none; stroke: #d8cfbc; stroke-width: 0.8; stroke-linejoin: miter; stroke-linecap: square"/>
   </g>
   <g id="patch_7">
    <path d="M 48.962188 270.751 
L 516.132188 270.751 
" style="fill: none; stroke: #d8cfbc; stroke-width: 0.8; stroke-linejoin: miter; stroke-linecap: square"/>
   </g>
  </g>
  <g id="axes_3">
   <g id="patch_8">
    <path d="M 48.962188 424.7665 
L 516.132188 424.7665 
L 516.132188 315.231 
L 48.962188 315.231 
z
" style="fill: #f6f1e7"/>
   </g>
   <g id="matplotlib.axis_5">
    <g id="xtick_19">
     <g id="line2d_26">
      <g>
       <use xlink:href="#m53d16b89c7" x="150.827842" y="424.7665" style="fill: #5c554a; stroke: #5c554a; stroke-width: 0.8"/>
      </g>
     </g>
     <g id="text_27">
      <!-- $\mathdefault{10^{1}}$ -->
      <g style="fill: #5c554a" transform="translate(143.237842 440.081813)">
       <text>
        <tspan x="0" y="-0.135938" style="font-size: 11px; font-family: 'Georgia'; fill: #5c554a">1</tspan>
        <tspan x="4.726562" y="-0.135938" style="font-size: 11px; font-family: 'Georgia'; fill: #5c554a">0</tspan>
        <tspan x="11.570723" y="-3.84375" style="font-size: 7.7px; font-family: 'Georgia'; fill: #5c554a">1</tspan>
       </text>
      </g>
     </g>
    </g>
    <g id="xtick_20">
     <g id="line2d_27">
      <g>
       <use xlink:href="#m53d16b89c7" x="353.447967" y="424.7665" style="fill: #5c554a; stroke: #5c554a; stroke-width: 0.8"/>
      </g>
     </g>
     <g id="text_28">
      <!-- $\mathdefault{10^{2}}$ -->
      <g style="fill: #5c554a" transform="translate(345.362967 440.081813)">
       <text>
        <tspan x="0" y="-0.135938" style="font-size: 11px; font-family: 'Georgia'; fill: #5c554a">1</tspan>
        <tspan x="4.726562" y="-0.135938" style="font-size: 11px; font-family: 'Georgia'; fill: #5c554a">0</tspan>
        <tspan x="11.570723" y="-3.84375" style="font-size: 7.7px; font-family: 'Georgia'; fill: #5c554a">2</tspan>
       </text>
      </g>
     </g>
    </g>
    <g id="xtick_21">
     <g id="line2d_28">
      <defs>
       <path id="m59be437384" d="M 0 0 
L 0 2 
" style="stroke: #5c554a; stroke-width: 0.6"/>
      </defs>
      <g>
       <use xlink:href="#m59be437384" x="70.197188" y="424.7665" style="fill: #5c554a; stroke: #5c554a; stroke-width: 0.6"/>
      </g>
     </g>
    </g>
    <g id="xtick_22">
     <g id="line2d_29">
      <g>
       <use xlink:href="#m59be437384" x="89.833106" y="424.7665" style="fill: #5c554a; stroke: #5c554a; stroke-width: 0.6"/>
      </g>
     </g>
    </g>
    <g id="xtick_23">
     <g id="line2d_30">
      <g>
       <use xlink:href="#m59be437384" x="105.87682" y="424.7665" style="fill: #5c554a; stroke: #5c554a; stroke-width: 0.6"/>
      </g>
     </g>
    </g>
    <g id="xtick_24">
     <g id="line2d_31">
      <g>
       <use xlink:href="#m59be437384" x="119.441587" y="424.7665" style="fill: #5c554a; stroke: #5c554a; stroke-width: 0.6"/>
      </g>
     </g>
    </g>
    <g id="xtick_25">
     <g id="line2d_32">
      <g>
       <use xlink:href="#m59be437384" x="131.191923" y="424.7665" style="fill: #5c554a; stroke: #5c554a; stroke-width: 0.6"/>
      </g>
     </g>
    </g>
    <g id="xtick_26">
     <g id="line2d_33">
      <g>
       <use xlink:href="#m59be437384" x="141.556453" y="424.7665" style="fill: #5c554a; stroke: #5c554a; stroke-width: 0.6"/>
      </g>
     </g>
    </g>
    <g id="xtick_27">
     <g id="line2d_34">
      <g>
       <use xlink:href="#m59be437384" x="211.822577" y="424.7665" style="fill: #5c554a; stroke: #5c554a; stroke-width: 0.6"/>
      </g>
     </g>
    </g>
    <g id="xtick_28">
     <g id="line2d_35">
      <g>
       <use xlink:href="#m59be437384" x="247.50221" y="424.7665" style="fill: #5c554a; stroke: #5c554a; stroke-width: 0.6"/>
      </g>
     </g>
    </g>
    <g id="xtick_29">
     <g id="line2d_36">
      <g>
       <use xlink:href="#m59be437384" x="272.817313" y="424.7665" style="fill: #5c554a; stroke: #5c554a; stroke-width: 0.6"/>
      </g>
     </g>
    </g>
    <g id="xtick_30">
     <g id="line2d_37">
      <g>
       <use xlink:href="#m59be437384" x="292.453232" y="424.7665" style="fill: #5c554a; stroke: #5c554a; stroke-width: 0.6"/>
      </g>
     </g>
    </g>
    <g id="xtick_31">
     <g id="line2d_38">
      <g>
       <use xlink:href="#m59be437384" x="308.496946" y="424.7665" style="fill: #5c554a; stroke: #5c554a; stroke-width: 0.6"/>
      </g>
     </g>
    </g>
    <g id="xtick_32">
     <g id="line2d_39">
      <g>
       <use xlink:href="#m59be437384" x="322.061713" y="424.7665" style="fill: #5c554a; stroke: #5c554a; stroke-width: 0.6"/>
      </g>
     </g>
    </g>
    <g id="xtick_33">
     <g id="line2d_40">
      <g>
       <use xlink:href="#m59be437384" x="333.812048" y="424.7665" style="fill: #5c554a; stroke: #5c554a; stroke-width: 0.6"/>
      </g>
     </g>
    </g>
    <g id="xtick_34">
     <g id="line2d_41">
      <g>
       <use xlink:href="#m59be437384" x="344.176579" y="424.7665" style="fill: #5c554a; stroke: #5c554a; stroke-width: 0.6"/>
      </g>
     </g>
    </g>
    <g id="xtick_35">
     <g id="line2d_42">
      <g>
       <use xlink:href="#m59be437384" x="414.442703" y="424.7665" style="fill: #5c554a; stroke: #5c554a; stroke-width: 0.6"/>
      </g>
     </g>
    </g>
    <g id="xtick_36">
     <g id="line2d_43">
      <g>
       <use xlink:href="#m59be437384" x="450.122336" y="424.7665" style="fill: #5c554a; stroke: #5c554a; stroke-width: 0.6"/>
      </g>
     </g>
    </g>
    <g id="xtick_37">
     <g id="line2d_44">
      <g>
       <use xlink:href="#m59be437384" x="475.437438" y="424.7665" style="fill: #5c554a; stroke: #5c554a; stroke-width: 0.6"/>
      </g>
     </g>
    </g>
    <g id="xtick_38">
     <g id="line2d_45">
      <g>
       <use xlink:href="#m59be437384" x="495.073357" y="424.7665" style="fill: #5c554a; stroke: #5c554a; stroke-width: 0.6"/>
      </g>
     </g>
    </g>
    <g id="xtick_39">
     <g id="line2d_46">
      <g>
       <use xlink:href="#m59be437384" x="511.117071" y="424.7665" style="fill: #5c554a; stroke: #5c554a; stroke-width: 0.6"/>
      </g>
     </g>
    </g>
    <g id="text_29">
     <text style="font-size: 11px; font-family: 'Georgia', 'Times New Roman', 'DejaVu Serif', serif; text-anchor: middle; fill: #5c554a" x="282.547188" y="454.78275" transform="rotate(-0 282.547188 454.78275)">scale n (beats)</text>
    </g>
   </g>
   <g id="matplotlib.axis_6">
    <g id="ytick_6">
     <g id="line2d_47">
      <g>
       <use xlink:href="#m1e0f1b6a92" x="48.962188" y="420.208381" style="fill: #5c554a; stroke: #5c554a; stroke-width: 0.8"/>
      </g>
     </g>
     <g id="text_30">
      <!-- $\mathdefault{10^{1}}$ -->
      <g style="fill: #5c554a" transform="translate(26.782188 424.366038)">
       <text>
        <tspan x="0" y="-0.135938" style="font-size: 11px; font-family: 'Georgia'; fill: #5c554a">1</tspan>
        <tspan x="4.726562" y="-0.135938" style="font-size: 11px; font-family: 'Georgia'; fill: #5c554a">0</tspan>
        <tspan x="11.570723" y="-3.84375" style="font-size: 7.7px; font-family: 'Georgia'; fill: #5c554a">1</tspan>
       </text>
      </g>
     </g>
    </g>
    <g id="ytick_7">
     <g id="line2d_48">
      <g>
       <use xlink:href="#m1e0f1b6a92" x="48.962188" y="373.094468" style="fill: #5c554a; stroke: #5c554a; stroke-width: 0.8"/>
      </g>
     </g>
     <g id="text_31">
      <!-- $\mathdefault{10^{2}}$ -->
      <g style="fill: #5c554a" transform="translate(25.792188 377.252124)">
       <text>
        <tspan x="0" y="-0.135938" style="font-size: 11px; font-family: 'Georgia'; fill: #5c554a">1</tspan>
        <tspan x="4.726562" y="-0.135938" style="font-size: 11px; font-family: 'Georgia'; fill: #5c554a">0</tspan>
        <tspan x="11.570723" y="-3.84375" style="font-size: 7.7px; font-family: 'Georgia'; fill: #5c554a">2</tspan>
       </text>
      </g>
     </g>
    </g>
    <g id="ytick_8">
     <g id="line2d_49">
      <g>
       <use xlink:href="#m1e0f1b6a92" x="48.962188" y="325.980554" style="fill: #5c554a; stroke: #5c554a; stroke-width: 0.8"/>
      </g>
     </g>
     <g id="text_32">
      <!-- $\mathdefault{10^{3}}$ -->
      <g style="fill: #5c554a" transform="translate(25.792188 330.13821)">
       <text>
        <tspan x="0" y="-0.135938" style="font-size: 11px; font-family: 'Georgia'; fill: #5c554a">1</tspan>
        <tspan x="4.726562" y="-0.135938" style="font-size: 11px; font-family: 'Georgia'; fill: #5c554a">0</tspan>
        <tspan x="11.570723" y="-3.84375" style="font-size: 7.7px; font-family: 'Georgia'; fill: #5c554a">3</tspan>
       </text>
      </g>
     </g>
    </g>
    <g id="ytick_9">
     <g id="line2d_50">
      <defs>
       <path id="m99c562a8ae" d="M 0 0 
L -2 0 
" style="stroke: #5c554a; stroke-width: 0.6"/>
      </defs>
      <g>
       <use xlink:href="#m99c562a8ae" x="48.962188" y="422.364196" style="fill: #5c554a; stroke: #5c554a; stroke-width: 0.6"/>
      </g>
     </g>
    </g>
    <g id="ytick_10">
     <g id="line2d_51">
      <g>
       <use xlink:href="#m99c562a8ae" x="48.962188" y="406.02568" style="fill: #5c554a; stroke: #5c554a; stroke-width: 0.6"/>
      </g>
     </g>
    </g>
    <g id="ytick_11">
     <g id="line2d_52">
      <g>
       <use xlink:href="#m99c562a8ae" x="48.962188" y="397.729332" style="fill: #5c554a; stroke: #5c554a; stroke-width: 0.6"/>
      </g>
     </g>
    </g>
    <g id="ytick_12">
     <g id="line2d_53">
      <g>
       <use xlink:href="#m99c562a8ae" x="48.962188" y="391.842979" style="fill: #5c554a; stroke: #5c554a; stroke-width: 0.6"/>
      </g>
     </g>
    </g>
    <g id="ytick_13">
     <g id="line2d_54">
      <g>
       <use xlink:href="#m99c562a8ae" x="48.962188" y="387.277169" style="fill: #5c554a; stroke: #5c554a; stroke-width: 0.6"/>
      </g>
     </g>
    </g>
    <g id="ytick_14">
     <g id="line2d_55">
      <g>
       <use xlink:href="#m99c562a8ae" x="48.962188" y="383.546631" style="fill: #5c554a; stroke: #5c554a; stroke-width: 0.6"/>
      </g>
     </g>
    </g>
    <g id="ytick_15">
     <g id="line2d_56">
      <g>
       <use xlink:href="#m99c562a8ae" x="48.962188" y="380.392505" style="fill: #5c554a; stroke: #5c554a; stroke-width: 0.6"/>
      </g>
     </g>
    </g>
    <g id="ytick_16">
     <g id="line2d_57">
      <g>
       <use xlink:href="#m99c562a8ae" x="48.962188" y="377.660278" style="fill: #5c554a; stroke: #5c554a; stroke-width: 0.6"/>
      </g>
     </g>
    </g>
    <g id="ytick_17">
     <g id="line2d_58">
      <g>
       <use xlink:href="#m99c562a8ae" x="48.962188" y="375.250282" style="fill: #5c554a; stroke: #5c554a; stroke-width: 0.6"/>
      </g>
     </g>
    </g>
    <g id="ytick_18">
     <g id="line2d_59">
      <g>
       <use xlink:href="#m99c562a8ae" x="48.962188" y="358.911766" style="fill: #5c554a; stroke: #5c554a; stroke-width: 0.6"/>
      </g>
     </g>
    </g>
    <g id="ytick_19">
     <g id="line2d_60">
      <g>
       <use xlink:href="#m99c562a8ae" x="48.962188" y="350.615418" style="fill: #5c554a; stroke: #5c554a; stroke-width: 0.6"/>
      </g>
     </g>
    </g>
    <g id="ytick_20">
     <g id="line2d_61">
      <g>
       <use xlink:href="#m99c562a8ae" x="48.962188" y="344.729065" style="fill: #5c554a; stroke: #5c554a; stroke-width: 0.6"/>
      </g>
     </g>
    </g>
    <g id="ytick_21">
     <g id="line2d_62">
      <g>
       <use xlink:href="#m99c562a8ae" x="48.962188" y="340.163255" style="fill: #5c554a; stroke: #5c554a; stroke-width: 0.6"/>
      </g>
     </g>
    </g>
    <g id="ytick_22">
     <g id="line2d_63">
      <g>
       <use xlink:href="#m99c562a8ae" x="48.962188" y="336.432717" style="fill: #5c554a; stroke: #5c554a; stroke-width: 0.6"/>
      </g>
     </g>
    </g>
    <g id="ytick_23">
     <g id="line2d_64">
      <g>
       <use xlink:href="#m99c562a8ae" x="48.962188" y="333.278592" style="fill: #5c554a; stroke: #5c554a; stroke-width: 0.6"/>
      </g>
     </g>
    </g>
    <g id="ytick_24">
     <g id="line2d_65">
      <g>
       <use xlink:href="#m99c562a8ae" x="48.962188" y="330.546364" style="fill: #5c554a; stroke: #5c554a; stroke-width: 0.6"/>
      </g>
     </g>
    </g>
    <g id="ytick_25">
     <g id="line2d_66">
      <g>
       <use xlink:href="#m99c562a8ae" x="48.962188" y="328.136368" style="fill: #5c554a; stroke: #5c554a; stroke-width: 0.6"/>
      </g>
     </g>
    </g>
    <g id="text_33">
     <text style="font-size: 11px; font-family: 'Georgia', 'Times New Roman', 'DejaVu Serif', serif; text-anchor: middle; fill: #5c554a" x="19.406563" y="369.99875" transform="rotate(-90 19.406563 369.99875)">F(n)</text>
    </g>
   </g>
   <g id="line2d_67">
    <path d="M 70.197188 419.787614 
L 89.833106 413.639706 
L 105.87682 409.627854 
L 119.441587 406.628567 
L 150.827842 399.860768 
L 166.871556 395.747639 
L 186.507475 391.102345 
L 211.822577 385.966105 
L 231.458496 381.310031 
L 250.38761 376.788155 
L 270.589427 371.411169 
L 292.453232 366.352648 
L 312.790324 361.417157 
L 332.705156 357.43749 
L 353.447967 353.263324 
L 373.083886 348.772197 
L 393.699891 343.452228 
L 414.001615 338.491342 
L 434.078622 332.046396 
L 454.415714 327.67394 
L 474.774975 325.912458 
L 494.897188 320.209886 
" clip-path="url(#pf5ec1727bc)" style="fill: none; stroke: #1e3d52; stroke-width: 1.5; stroke-linecap: square"/>
    <defs>
     <path id="mf49ab85f6c" d="M 0 2 
C 0.530406 2 1.03916 1.789267 1.414214 1.414214 
C 1.789267 1.03916 2 0.530406 2 0 
C 2 -0.530406 1.789267 -1.03916 1.414214 -1.414214 
C 1.03916 -1.789267 0.530406 -2 0 -2 
C -0.530406 -2 -1.03916 -1.789267 -1.414214 -1.414214 
C -1.789267 -1.03916 -2 -0.530406 -2 0 
C -2 0.530406 -1.789267 1.03916 -1.414214 1.414214 
C -1.03916 1.789267 -0.530406 2 0 2 
z
" style="stroke: #1e3d52"/>
    </defs>
    <g clip-path="url(#pf5ec1727bc)">
     <use xlink:href="#mf49ab85f6c" x="70.197188" y="419.787614" style="fill: #1e3d52; stroke: #1e3d52"/>
     <use xlink:href="#mf49ab85f6c" x="89.833106" y="413.639706" style="fill: #1e3d52; stroke: #1e3d52"/>
     <use xlink:href="#mf49ab85f6c" x="105.87682" y="409.627854" style="fill: #1e3d52; stroke: #1e3d52"/>
     <use xlink:href="#mf49ab85f6c" x="119.441587" y="406.628567" style="fill: #1e3d52; stroke: #1e3d52"/>
     <use xlink:href="#mf49ab85f6c" x="150.827842" y="399.860768" style="fill: #1e3d52; stroke: #1e3d52"/>
     <use xlink:href="#mf49ab85f6c" x="166.871556" y="395.747639" style="fill: #1e3d52; stroke: #1e3d52"/>
     <use xlink:href="#mf49ab85f6c" x="186.507475" y="391.102345" style="fill: #1e3d52; stroke: #1e3d52"/>
     <use xlink:href="#mf49ab85f6c" x="211.822577" y="385.966105" style="fill: #1e3d52; stroke: #1e3d52"/>
     <use xlink:href="#mf49ab85f6c" x="231.458496" y="381.310031" style="fill: #1e3d52; stroke: #1e3d52"/>
     <use xlink:href="#mf49ab85f6c" x="250.38761" y="376.788155" style="fill: #1e3d52; stroke: #1e3d52"/>
     <use xlink:href="#mf49ab85f6c" x="270.589427" y="371.411169" style="fill: #1e3d52; stroke: #1e3d52"/>
     <use xlink:href="#mf49ab85f6c" x="292.453232" y="366.352648" style="fill: #1e3d52; stroke: #1e3d52"/>
     <use xlink:href="#mf49ab85f6c" x="312.790324" y="361.417157" style="fill: #1e3d52; stroke: #1e3d52"/>
     <use xlink:href="#mf49ab85f6c" x="332.705156" y="357.43749" style="fill: #1e3d52; stroke: #1e3d52"/>
     <use xlink:href="#mf49ab85f6c" x="353.447967" y="353.263324" style="fill: #1e3d52; stroke: #1e3d52"/>
     <use xlink:href="#mf49ab85f6c" x="373.083886" y="348.772197" style="fill: #1e3d52; stroke: #1e3d52"/>
     <use xlink:href="#mf49ab85f6c" x="393.699891" y="343.452228" style="fill: #1e3d52; stroke: #1e3d52"/>
     <use xlink:href="#mf49ab85f6c" x="414.001615" y="338.491342" style="fill: #1e3d52; stroke: #1e3d52"/>
     <use xlink:href="#mf49ab85f6c" x="434.078622" y="332.046396" style="fill: #1e3d52; stroke: #1e3d52"/>
     <use xlink:href="#mf49ab85f6c" x="454.415714" y="327.67394" style="fill: #1e3d52; stroke: #1e3d52"/>
     <use xlink:href="#mf49ab85f6c" x="474.774975" y="325.912458" style="fill: #1e3d52; stroke: #1e3d52"/>
     <use xlink:href="#mf49ab85f6c" x="494.897188" y="320.209886" style="fill: #1e3d52; stroke: #1e3d52"/>
    </g>
   </g>
   <g id="line2d_68">
    <path d="M 70.197188 405.667906 
L 89.833106 402.045815 
L 105.87682 400.114685 
L 119.441587 398.163461 
L 150.827842 394.914972 
L 166.871556 392.616502 
L 186.507475 390.621452 
L 211.822577 387.299652 
L 231.458496 385.201485 
L 250.38761 382.400249 
L 270.589427 379.316049 
L 292.453232 378.262194 
L 312.790324 375.262124 
L 332.705156 373.022521 
L 353.447967 369.109412 
L 373.083886 367.599132 
L 393.699891 364.01583 
L 414.001615 360.16946 
L 434.078622 356.325234 
L 454.415714 355.611741 
L 474.774975 352.668917 
L 494.897188 352.647278 
" clip-path="url(#pf5ec1727bc)" style="fill: none; stroke: #c34a22; stroke-width: 1.5; stroke-linecap: square"/>
    <defs>
     <path id="m6e885746bb" d="M -2 2 
L 2 2 
L 2 -2 
L -2 -2 
z
" style="stroke: #c34a22; stroke-linejoin: miter"/>
    </defs>
    <g clip-path="url(#pf5ec1727bc)">
     <use xlink:href="#m6e885746bb" x="70.197188" y="405.667906" style="fill: #c34a22; stroke: #c34a22; stroke-linejoin: miter"/>
     <use xlink:href="#m6e885746bb" x="89.833106" y="402.045815" style="fill: #c34a22; stroke: #c34a22; stroke-linejoin: miter"/>
     <use xlink:href="#m6e885746bb" x="105.87682" y="400.114685" style="fill: #c34a22; stroke: #c34a22; stroke-linejoin: miter"/>
     <use xlink:href="#m6e885746bb" x="119.441587" y="398.163461" style="fill: #c34a22; stroke: #c34a22; stroke-linejoin: miter"/>
     <use xlink:href="#m6e885746bb" x="150.827842" y="394.914972" style="fill: #c34a22; stroke: #c34a22; stroke-linejoin: miter"/>
     <use xlink:href="#m6e885746bb" x="166.871556" y="392.616502" style="fill: #c34a22; stroke: #c34a22; stroke-linejoin: miter"/>
     <use xlink:href="#m6e885746bb" x="186.507475" y="390.621452" style="fill: #c34a22; stroke: #c34a22; stroke-linejoin: miter"/>
     <use xlink:href="#m6e885746bb" x="211.822577" y="387.299652" style="fill: #c34a22; stroke: #c34a22; stroke-linejoin: miter"/>
     <use xlink:href="#m6e885746bb" x="231.458496" y="385.201485" style="fill: #c34a22; stroke: #c34a22; stroke-linejoin: miter"/>
     <use xlink:href="#m6e885746bb" x="250.38761" y="382.400249" style="fill: #c34a22; stroke: #c34a22; stroke-linejoin: miter"/>
     <use xlink:href="#m6e885746bb" x="270.589427" y="379.316049" style="fill: #c34a22; stroke: #c34a22; stroke-linejoin: miter"/>
     <use xlink:href="#m6e885746bb" x="292.453232" y="378.262194" style="fill: #c34a22; stroke: #c34a22; stroke-linejoin: miter"/>
     <use xlink:href="#m6e885746bb" x="312.790324" y="375.262124" style="fill: #c34a22; stroke: #c34a22; stroke-linejoin: miter"/>
     <use xlink:href="#m6e885746bb" x="332.705156" y="373.022521" style="fill: #c34a22; stroke: #c34a22; stroke-linejoin: miter"/>
     <use xlink:href="#m6e885746bb" x="353.447967" y="369.109412" style="fill: #c34a22; stroke: #c34a22; stroke-linejoin: miter"/>
     <use xlink:href="#m6e885746bb" x="373.083886" y="367.599132" style="fill: #c34a22; stroke: #c34a22; stroke-linejoin: miter"/>
     <use xlink:href="#m6e885746bb" x="393.699891" y="364.01583" style="fill: #c34a22; stroke: #c34a22; stroke-linejoin: miter"/>
     <use xlink:href="#m6e885746bb" x="414.001615" y="360.16946" style="fill: #c34a22; stroke: #c34a22; stroke-linejoin: miter"/>
     <use xlink:href="#m6e885746bb" x="434.078622" y="356.325234" style="fill: #c34a22; stroke: #c34a22; stroke-linejoin: miter"/>
     <use xlink:href="#m6e885746bb" x="454.415714" y="355.611741" style="fill: #c34a22; stroke: #c34a22; stroke-linejoin: miter"/>
     <use xlink:href="#m6e885746bb" x="474.774975" y="352.668917" style="fill: #c34a22; stroke: #c34a22; stroke-linejoin: miter"/>
     <use xlink:href="#m6e885746bb" x="494.897188" y="352.647278" style="fill: #c34a22; stroke: #c34a22; stroke-linejoin: miter"/>
    </g>
   </g>
   <g id="patch_9">
    <path d="M 48.962188 424.7665 
L 48.962188 315.231 
" style="fill: none; stroke: #d8cfbc; stroke-width: 0.8; stroke-linejoin: miter; stroke-linecap: square"/>
   </g>
   <g id="patch_10">
    <path d="M 48.962188 424.7665 
L 516.132188 424.7665 
" style="fill: none; stroke: #d8cfbc; stroke-width: 0.8; stroke-linejoin: miter; stroke-linecap: square"/>
   </g>
   <g id="legend_1">
    <g id="line2d_69">
     <path d="M 58.862188 329.596312 
L 69.862188 329.596312 
L 80.862188 329.596312 
" style="fill: none; stroke: #1e3d52; stroke-width: 1.5; stroke-linecap: square"/>
     <g>
      <use xlink:href="#mf49ab85f6c" x="69.862188" y="329.596312" style="fill: #1e3d52; stroke: #1e3d52"/>
     </g>
    </g>
    <g id="text_34">
     <text style="font-size: 11px; font-family: 'Georgia', 'Times New Roman', 'DejaVu Serif', serif; text-anchor: start; fill: #221e17" x="89.662188" y="333.446312" transform="rotate(-0 89.662188 333.446312)">healthy  α₁=1.03</text>
    </g>
    <g id="line2d_70">
     <path d="M 58.862188 345.79725 
L 69.862188 345.79725 
L 80.862188 345.79725 
" style="fill: none; stroke: #c34a22; stroke-width: 1.5; stroke-linecap: square"/>
     <g>
      <use xlink:href="#m6e885746bb" x="69.862188" y="345.79725" style="fill: #c34a22; stroke: #c34a22; stroke-linejoin: miter"/>
     </g>
    </g>
    <g id="text_35">
     <text style="font-size: 11px; font-family: 'Georgia', 'Times New Roman', 'DejaVu Serif', serif; text-anchor: start; fill: #221e17" x="89.662188" y="349.64725" transform="rotate(-0 89.662188 349.64725)">shuffled α₁=0.55</text>
    </g>
   </g>
  </g>
 </g>
 <defs>
  <clipPath id="pd51417cce8">
   <rect x="48.962188" y="7.2" width="467.17" height="109.5355"/>
  </clipPath>
  <clipPath id="pc454ddb8ba">
   <rect x="48.962188" y="161.2155" width="467.17" height="109.5355"/>
  </clipPath>
  <clipPath id="pf5ec1727bc">
   <rect x="48.962188" y="315.231" width="467.17" height="109.5355"/>
  </clipPath>
 </defs>
</svg>
