<?xml version="1.0" encoding="utf-8" standalone="no"?>
<!DOCTYPE svg PUBLIC "-//W3C//DTD SVG 1.1//EN"
  "http://www.w3.org/Graphics/SVG/1.1/DTD/svg11.dtd">
<svg xmlns:xlink="http://www.w3.org/1999/xlink" width="523.332188pt" height="463.36525pt" viewBox="0 0 523.332188 463.36525" xmlns="http://www.w3.org/2000/svg" version="1.1">
 <metadata>
  <rdf:RDF xmlns:dc="http://purl.org/dc/elements/1.1/" xmlns:cc="http://creativecommons.org/ns#" xmlns:rdf="http://www.w3.org/1999/02/22-rdf-syntax-ns#">
   <cc:Work>
    <dc:type rdf:resource="http://purl.org/dc/dcmitype/StillImage"/>
    <dc:date>2026-06-12T01:33:35.721169</dc:date>
    <dc:format>image/svg+xml</dc:format>
    <dc:creator>
     <cc:Agent>
      <dc:title>Matplotlib v3.10.8, https://matplotlib.org/</dc:title>
     </cc:Agent>
    </dc:creator>
   </cc:Work>
  </rdf:RDF>
 </metadata>
 <defs>
  <style type="text/css">*{stroke-linejoin: round; stroke-linecap: butt}</style>
 </defs>
 <g id="figure_1">
  <g id="patch_1">
   <path d="M 0 463.36525 
L 523.332188 463.36525 
L 523.332188 0 
L 0 0 
z
" style="fill: #f6f1e7"/>
  </g>
  <g id="axes_1">
   <g id="patch_2">
    <path d="M 48.962188 115.732375 
L 516.132188 115.732375 
L 516.132188 22.276875 
L 48.962188 22.276875 
z
" style="fill: #f6f1e7"/>
   </g>
   <g id="matplotlib.axis_1">
    <g id="xtick_1">
     <g id="line2d_1">
      <defs>
       <path id="m38d74b556c" d="M 0 0 
L 0 3.5 
" style="stroke: #5c554a; stroke-width: 0.8"/>
      </defs>
      <g>
       <use xlink:href="#m38d74b556c" x="70.197188" y="115.732375" style="fill: #5c554a; stroke: #5c554a; stroke-width: 0.8"/>
      </g>
     </g>
     <g id="text_1">
      <text style="font-size: 11px; font-family: 'Georgia', 'Times New Roman', 'DejaVu Serif', serif; text-anchor: middle; fill: #5c554a" x="70.197188" y="131.047687" transform="rotate(-0 70.197188 131.047687)">0</text>
     </g>
    </g>
    <g id="xtick_2">
     <g id="line2d_2">
      <g>
       <use xlink:href="#m38d74b556c" x="123.417739" y="115.732375" style="fill: #5c554a; stroke: #5c554a; stroke-width: 0.8"/>
      </g>
     </g>
     <g id="text_2">
      <text style="font-size: 11px; font-family: 'Georgia', 'Times New Roman', 'DejaVu Serif', serif; text-anchor: middle; fill: #5c554a" x="123.417739" y="131.047687" transform="rotate(-0 123.417739 131.047687)">50</text>
     </g>
    </g>
    <g id="xtick_3">
     <g id="line2d_3">
      <g>
       <use xlink:href="#m38d74b556c" x="176.63829" y="115.732375" style="fill: #5c554a; stroke: #5c554a; stroke-width: 0.8"/>
      </g>
     </g>
     <g id="text_3">
      <text style="font-size: 11px; font-family: 'Georgia', 'Times New Roman', 'DejaVu Serif', serif; text-anchor: middle; fill: #5c554a" x="176.63829" y="131.047687" transform="rotate(-0 176.63829 131.047687)">100</text>
     </g>
    </g>
    <g id="xtick_4">
     <g id="line2d_4">
      <g>
       <use xlink:href="#m38d74b556c" x="229.858842" y="115.732375" style="fill: #5c554a; stroke: #5c554a; stroke-width: 0.8"/>
      </g>
     </g>
     <g id="text_4">
      <text style="font-size: 11px; font-family: 'Georgia', 'Times New Roman', 'DejaVu Serif', serif; text-anchor: middle; fill: #5c554a" x="229.858842" y="131.047687" transform="rotate(-0 229.858842 131.047687)">150</text>
     </g>
    </g>
    <g id="xtick_5">
     <g id="line2d_5">
      <g>
       <use xlink:href="#m38d74b556c" x="283.079393" y="115.732375" style="fill: #5c554a; stroke: #5c554a; stroke-width: 0.8"/>
      </g>
     </g>
     <g id="text_5">
      <text style="font-size: 11px; font-family: 'Georgia', 'Times New Roman', 'DejaVu Serif', serif; text-anchor: middle; fill: #5c554a" x="283.079393" y="131.047687" transform="rotate(-0 283.079393 131.047687)">200</text>
     </g>
    </g>
    <g id="xtick_6">
     <g id="line2d_6">
      <g>
       <use xlink:href="#m38d74b556c" x="336.299944" y="115.732375" style="fill: #5c554a; stroke: #5c554a; stroke-width: 0.8"/>
      </g>
     </g>
     <g id="text_6">
      <text style="font-size: 11px; font-family: 'Georgia', 'Times New Roman', 'DejaVu Serif', serif; text-anchor: middle; fill: #5c554a" x="336.299944" y="131.047687" transform="rotate(-0 336.299944 131.047687)">250</text>
     </g>
    </g>
    <g id="xtick_7">
     <g id="line2d_7">
      <g>
       <use xlink:href="#m38d74b556c" x="389.520496" y="115.732375" style="fill: #5c554a; stroke: #5c554a; stroke-width: 0.8"/>
      </g>
     </g>
     <g id="text_7">
      <text style="font-size: 11px; font-family: 'Georgia', 'Times New Roman', 'DejaVu Serif', serif; text-anchor: middle; fill: #5c554a" x="389.520496" y="131.047687" transform="rotate(-0 389.520496 131.047687)">300</text>
     </g>
    </g>
    <g id="xtick_8">
     <g id="line2d_8">
      <g>
       <use xlink:href="#m38d74b556c" x="442.741047" y="115.732375" style="fill: #5c554a; stroke: #5c554a; stroke-width: 0.8"/>
      </g>
     </g>
     <g id="text_8">
      <text style="font-size: 11px; font-family: 'Georgia', 'Times New Roman', 'DejaVu Serif', serif; text-anchor: middle; fill: #5c554a" x="442.741047" y="131.047687" transform="rotate(-0 442.741047 131.047687)">350</text>
     </g>
    </g>
    <g id="xtick_9">
     <g id="line2d_9">
      <g>
       <use xlink:href="#m38d74b556c" x="495.961599" y="115.732375" style="fill: #5c554a; stroke: #5c554a; stroke-width: 0.8"/>
      </g>
     </g>
     <g id="text_9">
      <text style="font-size: 11px; font-family: 'Georgia', 'Times New Roman', 'DejaVu Serif', serif; text-anchor: middle; fill: #5c554a" x="495.961599" y="131.047687" transform="rotate(-0 495.961599 131.047687)">400</text>
     </g>
    </g>
   </g>
   <g id="matplotlib.axis_2">
    <g id="ytick_1">
     <g id="line2d_10">
      <defs>
       <path id="m2597cc13f3" d="M 0 0 
L -3.5 0 
" style="stroke: #5c554a; stroke-width: 0.8"/>
      </defs>
      <g>
       <use xlink:href="#m2597cc13f3" x="48.962188" y="111.604467" style="fill: #5c554a; stroke: #5c554a; stroke-width: 0.8"/>
      </g>
     </g>
     <g id="text_10">
      <text style="font-size: 11px; font-family: 'Georgia', 'Times New Roman', 'DejaVu Serif', serif; text-anchor: end; fill: #5c554a" x="41.962188" y="115.762123" transform="rotate(-0 41.962188 115.762123)">700</text>
     </g>
    </g>
    <g id="ytick_2">
     <g id="line2d_11">
      <g>
       <use xlink:href="#m2597cc13f3" x="48.962188" y="79.050615" style="fill: #5c554a; stroke: #5c554a; stroke-width: 0.8"/>
      </g>
     </g>
     <g id="text_11">
      <text style="font-size: 11px; font-family: 'Georgia', 'Times New Roman', 'DejaVu Serif', serif; text-anchor: end; fill: #5c554a" x="41.962188" y="83.208271" transform="rotate(-0 41.962188 83.208271)">800</text>
     </g>
    </g>
    <g id="ytick_3">
     <g id="line2d_12">
      <g>
       <use xlink:href="#m2597cc13f3" x="48.962188" y="46.496763" style="fill: #5c554a; stroke: #5c554a; stroke-width: 0.8"/>
      </g>
     </g>
     <g id="text_12">
      <text style="font-size: 11px; font-family: 'Georgia', 'Times New Roman', 'DejaVu Serif', serif; text-anchor: end; fill: #5c554a" x="41.962188" y="50.654419" transform="rotate(-0 41.962188 50.654419)">900</text>
     </g>
    </g>
    <g id="text_13">
     <text style="font-size: 11px; font-family: 'Georgia', 'Times New Roman', 'DejaVu Serif', serif; text-anchor: middle; fill: #5c554a" x="15.515313" y="69.004625" transform="rotate(-90 15.515313 69.004625)">RR (ms)</text>
    </g>
   </g>
   <g id="line2d_13">
    <path d="M 70.197188 63.004776 
L 71.261599 61.864022 
L 72.32601 60.413113 
L 73.390421 60.194939 
L 74.454832 55.144723 
L 75.519243 68.294992 
L 76.583654 69.002776 
L 77.648065 71.845285 
L 78.712476 83.764275 
L 79.776887 78.425509 
L 80.841298 89.256261 
L 81.905709 77.65063 
L 82.97012 79.068429 
L 84.034531 81.991025 
L 85.098942 80.263185 
L 86.163353 76.095854 
L 87.227764 57.463892 
L 89.356586 76.584277 
L 90.420997 80.760013 
L 91.485408 77.541832 
L 92.549819 70.640626 
L 93.61423 70.501198 
L 94.678641 72.221988 
L 96.807463 53.245877 
L 97.871874 54.988625 
L 98.936285 65.828707 
L 100.000696 65.397043 
L 101.065107 54.711228 
L 102.129518 66.015774 
L 103.193929 55.391182 
L 104.25834 30.854126 
L 105.322751 60.657993 
L 106.387162 54.305461 
L 107.451573 51.29972 
L 108.515984 46.144678 
L 109.580396 69.337217 
L 110.644807 72.19094 
L 111.709218 63.696066 
L 112.773629 60.200814 
L 113.83804 60.356842 
L 114.902451 47.063685 
L 115.966862 51.152508 
L 117.031273 54.539097 
L 118.095684 49.726216 
L 119.160095 42.832453 
L 120.224506 39.992243 
L 121.288917 50.425566 
L 122.353328 56.386594 
L 123.417739 63.633835 
L 124.48215 76.492282 
L 125.546561 70.512531 
L 126.610972 54.479445 
L 127.675383 65.465689 
L 128.739794 55.755099 
L 129.804205 57.316164 
L 130.868616 50.436449 
L 131.933027 49.656686 
L 132.997438 61.914233 
L 134.061849 66.204573 
L 135.12626 61.840414 
L 136.190671 60.61768 
L 137.255082 57.52726 
L 138.319493 71.118438 
L 139.383904 62.034993 
L 140.448315 77.149162 
L 141.512726 71.394577 
L 142.577137 63.431041 
L 143.641548 61.145173 
L 144.705959 69.98318 
L 146.834781 58.416627 
L 147.899193 59.903874 
L 148.963604 77.005302 
L 150.028015 73.196035 
L 151.092426 74.336877 
L 152.156837 70.620632 
L 154.285659 98.12765 
L 155.35007 86.471772 
L 156.414481 83.201231 
L 157.478892 69.655419 
L 158.543303 69.297987 
L 159.607714 82.378015 
L 160.672125 84.657301 
L 161.736536 55.101864 
L 162.800947 77.106478 
L 163.865358 78.462434 
L 164.929769 72.653053 
L 165.99418 48.440521 
L 167.058591 52.753548 
L 168.123002 68.616372 
L 169.187413 66.340125 
L 170.251824 73.415712 
L 171.316235 73.147569 
L 172.380646 91.723018 
L 173.445057 87.971257 
L 174.509468 76.28899 
L 175.573879 82.8885 
L 176.63829 78.530043 
L 177.702701 88.529289 
L 178.767112 78.385347 
L 179.831523 77.118348 
L 180.895934 68.272998 
L 181.960345 75.652165 
L 183.024756 81.717849 
L 184.089167 67.81352 
L 185.153578 76.726592 
L 186.21799 78.49259 
L 187.282401 79.293667 
L 188.346812 71.442346 
L 189.411223 85.672626 
L 190.475634 76.818917 
L 191.540045 77.437525 
L 192.604456 71.765879 
L 193.668867 67.889133 
L 194.733278 73.748 
L 195.797689 67.816033 
L 196.8621 66.518779 
L 197.926511 70.135168 
L 198.990922 70.629302 
L 200.055333 68.877303 
L 201.119744 70.414236 
L 202.184155 80.094928 
L 203.248566 82.840383 
L 204.312977 73.029742 
L 205.377388 68.76268 
L 206.441799 71.52348 
L 207.50621 75.745723 
L 208.570621 66.988869 
L 209.635032 64.635505 
L 210.699443 61.803366 
L 211.763854 86.390286 
L 212.828265 89.217254 
L 213.892676 75.233125 
L 214.957087 70.157779 
L 216.021498 67.293144 
L 217.085909 71.747036 
L 218.15032 64.69791 
L 219.214731 65.301424 
L 220.279142 77.450689 
L 221.343553 77.35832 
L 222.407964 80.693948 
L 223.472375 85.667364 
L 224.536786 87.337193 
L 225.601198 77.200125 
L 226.665609 89.212003 
L 227.73002 87.259492 
L 228.794431 73.354491 
L 229.858842 82.674752 
L 230.923253 70.32435 
L 231.987664 66.914653 
L 233.052075 65.672663 
L 234.116486 80.352871 
L 235.180897 85.371552 
L 236.245308 88.176117 
L 237.309719 72.141942 
L 238.37413 80.675441 
L 239.438541 80.020409 
L 240.502952 90.614605 
L 241.567363 82.420826 
L 242.631774 76.0702 
L 243.696185 71.845294 
L 244.760596 70.764892 
L 245.825007 73.898837 
L 246.889418 82.047023 
L 247.953829 65.633396 
L 249.01824 78.484111 
L 250.082651 95.177618 
L 251.147062 85.115619 
L 252.211473 94.774654 
L 253.275884 94.732541 
L 254.340295 89.930629 
L 255.404706 80.587865 
L 256.469117 78.071216 
L 257.533528 93.005692 
L 258.597939 95.784661 
L 259.66235 86.45569 
L 260.726761 86.529538 
L 261.791172 88.900032 
L 262.855583 94.465319 
L 263.919995 101.332656 
L 264.984406 85.687595 
L 266.048817 91.746142 
L 267.113228 77.627437 
L 268.177639 82.714904 
L 269.24205 98.082185 
L 271.370872 103.787372 
L 272.435283 111.484398 
L 273.499694 94.084982 
L 274.564105 82.420581 
L 275.628516 93.62197 
L 276.692927 80.925964 
L 277.757338 80.850813 
L 278.821749 70.296066 
L 279.88616 65.156004 
L 280.950571 62.896103 
L 282.014982 61.755674 
L 283.079393 78.831647 
L 284.143804 70.473221 
L 285.208215 77.089088 
L 286.272626 92.233094 
L 287.337037 95.794665 
L 288.401448 75.704836 
L 289.465859 90.432901 
L 290.53027 89.591937 
L 291.594681 87.273637 
L 292.659092 92.952624 
L 293.723503 93.545549 
L 294.787914 83.605316 
L 295.852325 86.943902 
L 296.916736 83.052583 
L 297.981147 88.88913 
L 299.045558 86.456645 
L 300.109969 89.370794 
L 301.17438 79.040146 
L 302.238792 71.017037 
L 303.303203 81.811477 
L 304.367614 82.189321 
L 305.432025 73.520667 
L 306.496436 84.536405 
L 307.560847 85.795312 
L 308.625258 83.166025 
L 310.75408 72.759606 
L 311.818491 70.272185 
L 312.882902 79.910965 
L 313.947313 77.337513 
L 315.011724 66.610798 
L 316.076135 83.846415 
L 317.140546 67.319521 
L 318.204957 72.514349 
L 319.269368 63.859976 
L 320.333779 66.53138 
L 321.39819 71.023188 
L 322.462601 69.174761 
L 323.527012 62.739472 
L 324.591423 50.268113 
L 325.655834 66.236212 
L 326.720245 61.556205 
L 327.784656 59.461959 
L 328.849067 69.933222 
L 329.913478 79.255084 
L 330.977889 63.839011 
L 332.0423 65.041574 
L 333.106711 63.207577 
L 334.171122 72.851112 
L 335.235533 62.507752 
L 336.299944 56.564794 
L 337.364355 46.216964 
L 338.428766 59.065014 
L 339.493177 74.064679 
L 340.557589 68.995506 
L 341.622 86.076167 
L 342.686411 83.317318 
L 343.750822 70.209859 
L 344.815233 76.457294 
L 345.879644 71.707034 
L 346.944055 79.370497 
L 348.008466 71.515352 
L 349.072877 69.071946 
L 350.137288 54.297673 
L 351.201699 52.632533 
L 352.26611 48.813296 
L 353.330521 49.959864 
L 354.394932 58.606682 
L 355.459343 69.482846 
L 356.523754 61.873816 
L 357.588165 44.350625 
L 358.652576 44.873096 
L 359.716987 49.562788 
L 360.781398 36.523493 
L 361.845809 54.700135 
L 362.91022 64.060376 
L 363.974631 65.688155 
L 365.039042 66.565945 
L 366.103453 49.428438 
L 367.167864 60.907566 
L 368.232275 39.439841 
L 369.296686 54.923183 
L 370.361097 50.754477 
L 371.425508 67.659049 
L 372.489919 81.245476 
L 373.55433 61.268032 
L 374.618741 53.35954 
L 375.683152 53.274915 
L 376.747563 73.437101 
L 377.811974 72.122504 
L 378.876385 58.1696 
L 379.940797 45.876004 
L 381.005208 40.747996 
L 382.069619 50.478093 
L 383.13403 47.372623 
L 384.198441 32.906902 
L 385.262852 50.449016 
L 386.327263 39.143606 
L 387.391674 47.034283 
L 388.456085 42.33981 
L 389.520496 29.216443 
L 390.584907 33.518529 
L 391.649318 43.340409 
L 392.713729 38.811441 
L 393.77814 41.224932 
L 394.842551 50.220502 
L 395.906962 54.317089 
L 396.971373 48.653003 
L 398.035784 59.542972 
L 399.100195 51.228485 
L 400.164606 46.324044 
L 401.229017 55.147884 
L 402.293428 55.146726 
L 403.357839 58.735506 
L 405.486661 72.146592 
L 406.551072 65.018592 
L 407.615483 63.115986 
L 408.679894 71.571079 
L 409.744305 76.904409 
L 410.808716 76.145593 
L 411.873127 69.221064 
L 412.937538 55.027148 
L 414.001949 68.313908 
L 415.06636 59.926793 
L 416.130771 68.380334 
L 417.195182 57.860494 
L 418.259594 74.425653 
L 419.324005 81.758241 
L 420.388416 69.64605 
L 421.452827 81.398739 
L 422.517238 66.350254 
L 423.581649 48.783694 
L 424.64606 65.426902 
L 425.710471 72.141755 
L 426.774882 59.60532 
L 427.839293 69.354679 
L 428.903704 73.422238 
L 429.968115 78.361993 
L 431.032526 78.537934 
L 432.096937 69.418126 
L 433.161348 67.265137 
L 434.225759 81.933819 
L 435.29017 86.383852 
L 436.354581 91.976068 
L 437.418992 86.131523 
L 438.483403 73.106661 
L 439.547814 68.887561 
L 440.612225 70.218965 
L 441.676636 54.357406 
L 443.805458 79.047639 
L 444.869869 78.639864 
L 445.93428 87.459459 
L 446.998691 83.39856 
L 448.063102 70.904832 
L 449.127513 81.801218 
L 450.191924 77.977205 
L 451.256335 84.218264 
L 452.320746 74.430851 
L 453.385157 76.971523 
L 454.449568 74.729552 
L 455.513979 72.939452 
L 456.578391 65.235763 
L 457.642802 82.75779 
L 458.707213 76.912055 
L 459.771624 57.591953 
L 460.836035 52.727305 
L 461.900446 38.84408 
L 462.964857 54.967754 
L 464.029268 50.642358 
L 465.093679 50.829413 
L 466.15809 48.158628 
L 467.222501 41.977065 
L 468.286912 26.524852 
L 469.351323 48.393105 
L 470.415734 50.504555 
L 471.480145 39.264337 
L 472.544556 55.599806 
L 473.608967 54.127942 
L 474.673378 59.38379 
L 475.737789 54.488825 
L 476.8022 57.291282 
L 477.866611 57.390899 
L 478.931022 66.594699 
L 479.995433 69.903396 
L 481.059844 75.195113 
L 482.124255 72.682331 
L 483.188666 62.516573 
L 484.253077 80.091667 
L 485.317488 70.138217 
L 486.381899 63.502017 
L 487.44631 53.963457 
L 488.510721 51.636017 
L 489.575132 59.461946 
L 490.639543 71.609637 
L 491.703954 57.599904 
L 492.768365 61.139776 
L 493.832776 76.074889 
L 494.897188 80.272703 
L 494.897188 80.272703 
" clip-path="url(#p0a6ff6f139)" style="fill: none; stroke: #1e3d52; stroke-width: 0.9; stroke-linecap: square"/>
   </g>
   <g id="patch_3">
    <path d="M 48.962188 115.732375 
L 48.962188 22.276875 
" style="fill: none; stroke: #d8cfbc; stroke-width: 0.8; stroke-linejoin: miter; stroke-linecap: square"/>
   </g>
   <g id="patch_4">
    <path d="M 48.962188 115.732375 
L 516.132188 115.732375 
" style="fill: none; stroke: #d8cfbc; stroke-width: 0.8; stroke-linejoin: miter; stroke-linecap: square"/>
   </g>
   <g id="text_14">
    <text style="font-style: italic; font-size: 12px; font-family: 'Georgia', 'Times New Roman', 'DejaVu Serif', serif; text-anchor: start; fill: #221e17" x="48.962188" y="16.276875" transform="rotate(-0 48.962188 16.276875)">healthy 1/f rhythm</text>
   </g>
  </g>
  <g id="axes_2">
   <g id="patch_5">
    <path d="M 48.962188 269.747875 
L 516.132188 269.747875 
L 516.132188 176.292375 
L 48.962188 176.292375 
z
" style="fill: #f6f1e7"/>
   </g>
   <g id="matplotlib.axis_3">
    <g id="xtick_10">
     <g id="line2d_14">
      <g>
       <use xlink:href="#m38d74b556c" x="70.197188" y="269.747875" style="fill: #5c554a; stroke: #5c554a; stroke-width: 0.8"/>
      </g>
     </g>
     <g id="text_15">
      <text style="font-size: 11px; font-family: 'Georgia', 'Times New Roman', 'DejaVu Serif', serif; text-anchor: middle; fill: #5c554a" x="70.197188" y="285.063187" transform="rotate(-0 70.197188 285.063187)">0</text>
     </g>
    </g>
    <g id="xtick_11">
     <g id="line2d_15">
      <g>
       <use xlink:href="#m38d74b556c" x="123.417739" y="269.747875" style="fill: #5c554a; stroke: #5c554a; stroke-width: 0.8"/>
      </g>
     </g>
     <g id="text_16">
      <text style="font-size: 11px; font-family: 'Georgia', 'Times New Roman', 'DejaVu Serif', serif; text-anchor: middle; fill: #5c554a" x="123.417739" y="285.063187" transform="rotate(-0 123.417739 285.063187)">50</text>
     </g>
    </g>
    <g id="xtick_12">
     <g id="line2d_16">
      <g>
       <use xlink:href="#m38d74b556c" x="176.63829" y="269.747875" style="fill: #5c554a; stroke: #5c554a; stroke-width: 0.8"/>
      </g>
     </g>
     <g id="text_17">
      <text style="font-size: 11px; font-family: 'Georgia', 'Times New Roman', 'DejaVu Serif', serif; text-anchor: middle; fill: #5c554a" x="176.63829" y="285.063187" transform="rotate(-0 176.63829 285.063187)">100</text>
     </g>
    </g>
    <g id="xtick_13">
     <g id="line2d_17">
      <g>
       <use xlink:href="#m38d74b556c" x="229.858842" y="269.747875" style="fill: #5c554a; stroke: #5c554a; stroke-width: 0.8"/>
      </g>
     </g>
     <g id="text_18">
      <text style="font-size: 11px; font-family: 'Georgia', 'Times New Roman', 'DejaVu Serif', serif; text-anchor: middle; fill: #5c554a" x="229.858842" y="285.063187" transform="rotate(-0 229.858842 285.063187)">150</text>
     </g>
    </g>
    <g id="xtick_14">
     <g id="line2d_18">
      <g>
       <use xlink:href="#m38d74b556c" x="283.079393" y="269.747875" style="fill: #5c554a; stroke: #5c554a; stroke-width: 0.8"/>
      </g>
     </g>
     <g id="text_19">
      <text style="font-size: 11px; font-family: 'Georgia', 'Times New Roman', 'DejaVu Serif', serif; text-anchor: middle; fill: #5c554a" x="283.079393" y="285.063187" transform="rotate(-0 283.079393 285.063187)">200</text>
     </g>
    </g>
    <g id="xtick_15">
     <g id="line2d_19">
      <g>
       <use xlink:href="#m38d74b556c" x="336.299944" y="269.747875" style="fill: #5c554a; stroke: #5c554a; stroke-width: 0.8"/>
      </g>
     </g>
     <g id="text_20">
      <text style="font-size: 11px; font-family: 'Georgia', 'Times New Roman', 'DejaVu Serif', serif; text-anchor: middle; fill: #5c554a" x="336.299944" y="285.063187" transform="rotate(-0 336.299944 285.063187)">250</text>
     </g>
    </g>
    <g id="xtick_16">
     <g id="line2d_20">
      <g>
       <use xlink:href="#m38d74b556c" x="389.520496" y="269.747875" style="fill: #5c554a; stroke: #5c554a; stroke-width: 0.8"/>
      </g>
     </g>
     <g id="text_21">
      <text style="font-size: 11px; font-family: 'Georgia', 'Times New Roman', 'DejaVu Serif', serif; text-anchor: middle; fill: #5c554a" x="389.520496" y="285.063187" transform="rotate(-0 389.520496 285.063187)">300</text>
     </g>
    </g>
    <g id="xtick_17">
     <g id="line2d_21">
      <g>
       <use xlink:href="#m38d74b556c" x="442.741047" y="269.747875" style="fill: #5c554a; stroke: #5c554a; stroke-width: 0.8"/>
      </g>
     </g>
     <g id="text_22">
      <text style="font-size: 11px; font-family: 'Georgia', 'Times New Roman', 'DejaVu Serif', serif; text-anchor: middle; fill: #5c554a" x="442.741047" y="285.063187" transform="rotate(-0 442.741047 285.063187)">350</text>
     </g>
    </g>
    <g id="xtick_18">
     <g id="line2d_22">
      <g>
       <use xlink:href="#m38d74b556c" x="495.961599" y="269.747875" style="fill: #5c554a; stroke: #5c554a; stroke-width: 0.8"/>
      </g>
     </g>
     <g id="text_23">
      <text style="font-size: 11px; font-family: 'Georgia', 'Times New Roman', 'DejaVu Serif', serif; text-anchor: middle; fill: #5c554a" x="495.961599" y="285.063187" transform="rotate(-0 495.961599 285.063187)">400</text>
     </g>
    </g>
    <g id="text_24">
     <text style="font-size: 11px; font-family: 'Georgia', 'Times New Roman', 'DejaVu Serif', serif; text-anchor: middle; fill: #5c554a" x="282.547188" y="299.764125" transform="rotate(-0 282.547188 299.764125)">beat #</text>
    </g>
   </g>
   <g id="matplotlib.axis_4">
    <g id="ytick_4">
     <g id="line2d_23">
      <g>
       <use xlink:href="#m2597cc13f3" x="48.962188" y="241.528293" style="fill: #5c554a; stroke: #5c554a; stroke-width: 0.8"/>
      </g>
     </g>
     <g id="text_25">
      <text style="font-size: 11px; font-family: 'Georgia', 'Times New Roman', 'DejaVu Serif', serif; text-anchor: end; fill: #5c554a" x="41.962188" y="245.685949" transform="rotate(-0 41.962188 245.685949)">800</text>
     </g>
    </g>
    <g id="ytick_5">
     <g id="line2d_24">
      <g>
       <use xlink:href="#m2597cc13f3" x="48.962188" y="208.023593" style="fill: #5c554a; stroke: #5c554a; stroke-width: 0.8"/>
      </g>
     </g>
     <g id="text_26">
      <text style="font-size: 11px; font-family: 'Georgia', 'Times New Roman', 'DejaVu Serif', serif; text-anchor: end; fill: #5c554a" x="41.962188" y="212.18125" transform="rotate(-0 41.962188 212.18125)">900</text>
     </g>
    </g>
    <g id="text_27">
     <text style="font-size: 11px; font-family: 'Georgia', 'Times New Roman', 'DejaVu Serif', serif; text-anchor: middle; fill: #5c554a" x="15.515313" y="223.020125" transform="rotate(-90 15.515313 223.020125)">RR (ms)</text>
    </g>
   </g>
   <g id="line2d_25">
    <path d="M 70.197188 222.121872 
L 71.261599 223.284368 
L 72.32601 215.913565 
L 74.454832 238.070287 
L 75.519243 237.081018 
L 76.583654 210.841508 
L 77.648065 217.821733 
L 78.712476 222.012293 
L 79.776887 227.11188 
L 80.841298 200.147388 
L 81.905709 230.783796 
L 82.97012 240.564218 
L 85.098942 205.37548 
L 86.163353 218.888406 
L 87.227764 248.816023 
L 88.292175 207.154384 
L 89.356586 219.543408 
L 90.420997 221.40595 
L 91.485408 215.010378 
L 92.549819 214.078648 
L 93.61423 206.798553 
L 94.678641 236.122142 
L 95.743052 215.048121 
L 96.807463 231.841119 
L 97.871874 225.649132 
L 98.936285 204.076689 
L 100.000696 212.290275 
L 101.065107 239.385344 
L 102.129518 225.978236 
L 103.193929 209.818376 
L 104.25834 244.360041 
L 105.322751 241.712401 
L 106.387162 226.590105 
L 107.451573 220.593887 
L 108.515984 246.142033 
L 109.580396 211.153387 
L 110.644807 237.205799 
L 111.709218 223.216831 
L 112.773629 213.457811 
L 113.83804 193.919994 
L 114.902451 220.132898 
L 115.966862 213.58997 
L 117.031273 227.608214 
L 118.095684 227.706684 
L 119.160095 226.582173 
L 120.224506 228.165895 
L 121.288917 222.407414 
L 122.353328 195.614949 
L 123.417739 219.831247 
L 124.48215 204.793688 
L 125.546561 228.433455 
L 126.610972 219.23593 
L 127.675383 221.450861 
L 128.739794 226.69214 
L 129.804205 234.99095 
L 130.868616 212.078352 
L 131.933027 211.178492 
L 132.997438 219.376274 
L 134.061849 242.413772 
L 135.12626 251.654176 
L 136.190671 227.227842 
L 137.255082 212.02935 
L 138.319493 230.344137 
L 139.383904 221.207153 
L 140.448315 235.452828 
L 141.512726 221.258506 
L 142.577137 242.508538 
L 143.641548 229.362704 
L 144.705959 245.90157 
L 145.77037 240.819557 
L 146.834781 209.314929 
L 147.899193 219.965064 
L 148.963604 221.414508 
L 150.028015 195.654007 
L 151.092426 236.778464 
L 152.156837 229.214128 
L 153.221248 236.144672 
L 154.285659 186.894516 
L 155.35007 207.735622 
L 156.414481 214.466123 
L 157.478892 230.7358 
L 158.543303 224.511317 
L 159.607714 233.260066 
L 160.672125 216.394662 
L 161.736536 217.950023 
L 162.800947 224.750948 
L 163.865358 207.84583 
L 164.929769 201.901589 
L 165.99418 209.462256 
L 167.058591 254.831278 
L 168.123002 211.318611 
L 169.187413 245.647152 
L 171.316235 231.995261 
L 172.380646 234.420072 
L 173.445057 240.42353 
L 174.509468 251.518631 
L 175.573879 232.895321 
L 176.63829 207.244804 
L 177.702701 220.293773 
L 178.767112 209.516615 
L 179.831523 241.115148 
L 180.895934 235.33156 
L 181.960345 227.033463 
L 183.024756 225.753022 
L 184.089167 206.747827 
L 185.153578 224.189796 
L 186.21799 194.559935 
L 187.282401 227.988351 
L 188.346812 220.958943 
L 189.411223 216.060594 
L 190.475634 249.545302 
L 191.540045 212.966837 
L 192.604456 222.127918 
L 193.668867 210.019368 
L 194.733278 230.94595 
L 195.797689 229.244767 
L 196.8621 226.735186 
L 197.926511 204.210506 
L 198.990922 232.985027 
L 200.055333 220.925862 
L 201.119744 242.606915 
L 202.184155 215.147464 
L 203.248566 244.269131 
L 204.312977 198.568547 
L 205.377388 219.740255 
L 206.441799 223.091379 
L 207.50621 220.482793 
L 208.570621 254.532764 
L 209.635032 244.359237 
L 210.699443 236.779521 
L 211.763854 231.681064 
L 212.828265 224.866685 
L 213.892676 216.919913 
L 214.957087 215.646835 
L 216.021498 229.962979 
L 217.085909 223.132359 
L 218.15032 224.863119 
L 219.214731 225.502912 
L 220.279142 227.775536 
L 221.343553 230.686228 
L 222.407964 222.082168 
L 223.472375 244.328635 
L 224.536786 239.760919 
L 225.601198 220.266955 
L 226.665609 246.324535 
L 227.73002 214.546685 
L 228.794431 227.892278 
L 229.858842 249.756012 
L 230.923253 246.846881 
L 231.987664 249.652131 
L 233.052075 223.226308 
L 234.116486 233.869975 
L 235.180897 251.283825 
L 236.245308 219.86011 
L 237.309719 202.335237 
L 238.37413 227.78176 
L 239.438541 220.485326 
L 240.502952 216.725321 
L 241.567363 216.675591 
L 242.631774 250.056909 
L 243.696185 221.657521 
L 244.760596 228.112724 
L 245.825007 256.32609 
L 246.889418 202.794186 
L 247.953829 233.970218 
L 249.01824 203.921227 
L 250.082651 236.349875 
L 251.147062 206.610149 
L 252.211473 220.949147 
L 253.275884 247.770446 
L 254.340295 216.372101 
L 255.404706 240.277253 
L 256.469117 259.085285 
L 257.533528 238.084789 
L 258.597939 195.608709 
L 259.66235 219.000711 
L 260.726761 234.142183 
L 261.791172 240.977443 
L 262.855583 231.941986 
L 263.919995 242.536948 
L 264.984406 214.828361 
L 266.048817 243.473604 
L 267.113228 248.46024 
L 268.177639 221.367482 
L 269.24205 248.933164 
L 270.306461 205.240062 
L 271.370872 239.509473 
L 272.435283 222.246248 
L 273.499694 217.260904 
L 274.564105 232.559683 
L 275.628516 224.76941 
L 276.692927 203.888495 
L 277.757338 233.422836 
L 278.821749 234.542021 
L 279.88616 207.16358 
L 280.950571 202.269643 
L 282.014982 221.988994 
L 283.079393 213.076658 
L 284.143804 207.058407 
L 285.208215 227.394376 
L 286.272626 236.589845 
L 287.337037 232.767373 
L 288.401448 202.503114 
L 289.465859 239.432006 
L 290.53027 236.582827 
L 291.594681 229.580231 
L 292.659092 229.733578 
L 293.723503 207.018205 
L 294.787914 250.182746 
L 295.852325 219.947784 
L 296.916736 229.057044 
L 297.981147 189.163501 
L 299.045558 219.133404 
L 300.109969 265.499898 
L 301.17438 228.538359 
L 302.238792 237.861746 
L 303.303203 245.91962 
L 304.367614 210.986049 
L 305.432025 208.095521 
L 306.496436 232.518037 
L 307.560847 239.868087 
L 308.625258 254.055358 
L 309.689669 230.522644 
L 310.75408 226.396238 
L 311.818491 235.101259 
L 312.882902 236.265534 
L 313.947313 202.106913 
L 315.011724 238.465651 
L 316.076135 229.071177 
L 317.140546 231.849035 
L 318.204957 227.54104 
L 319.269368 235.701535 
L 320.333779 218.57742 
L 321.39819 234.069866 
L 322.462601 222.318497 
L 323.527012 208.255471 
L 324.591423 227.952153 
L 325.655834 216.750437 
L 326.720245 220.670856 
L 327.784656 247.049914 
L 328.849067 230.16932 
L 329.913478 249.64364 
L 330.977889 217.402157 
L 332.0423 223.602356 
L 333.106711 225.504471 
L 334.171122 243.281129 
L 335.235533 206.058532 
L 336.299944 202.59778 
L 337.364355 221.528359 
L 338.428766 219.838763 
L 339.493177 242.668164 
L 340.557589 234.879952 
L 341.622 220.316007 
L 342.686411 243.110444 
L 343.750822 241.787125 
L 344.815233 227.716209 
L 345.879644 216.060371 
L 346.944055 210.318091 
L 348.008466 234.491424 
L 349.072877 226.259478 
L 350.137288 239.23141 
L 351.201699 210.152404 
L 352.26611 264.461158 
L 353.330521 221.514048 
L 354.394932 211.968124 
L 355.459343 244.996691 
L 356.523754 187.590564 
L 357.588165 215.390279 
L 358.652576 228.213909 
L 359.716987 256.446602 
L 360.781398 223.958022 
L 361.845809 244.087833 
L 362.91022 220.591285 
L 363.974631 239.765154 
L 365.039042 246.864876 
L 366.103453 226.141142 
L 367.167864 214.493066 
L 368.232275 218.40884 
L 369.296686 226.044507 
L 370.361097 188.446821 
L 371.425508 219.822504 
L 372.489919 219.358542 
L 373.55433 208.328529 
L 374.618741 211.342532 
L 375.683152 220.018329 
L 376.747563 215.756456 
L 377.811974 240.61497 
L 378.876385 233.498121 
L 379.940797 251.584271 
L 381.005208 223.127633 
L 382.069619 219.768428 
L 383.13403 229.983889 
L 384.198441 214.660771 
L 385.262852 254.140906 
L 386.327263 216.249091 
L 387.391674 236.046907 
L 388.456085 220.859107 
L 389.520496 243.787263 
L 390.584907 231.068392 
L 391.649318 249.150642 
L 392.713729 262.003204 
L 393.77814 221.265181 
L 394.842551 244.044077 
L 395.906962 220.310572 
L 396.971373 224.24397 
L 398.035784 211.49952 
L 399.100195 239.87912 
L 400.164606 244.348197 
L 401.229017 261.162539 
L 402.293428 209.890341 
L 403.357839 229.754736 
L 404.42225 213.476243 
L 405.486661 217.766713 
L 406.551072 232.729161 
L 407.615483 224.75015 
L 408.679894 247.174315 
L 409.744305 200.846268 
L 410.808716 229.350724 
L 411.873127 224.740727 
L 412.937538 221.724177 
L 414.001949 208.576813 
L 415.06636 254.579591 
L 416.130771 215.141212 
L 417.195182 237.338065 
L 418.259594 226.854709 
L 419.324005 225.798367 
L 420.388416 258.126341 
L 421.452827 210.444476 
L 422.517238 236.886002 
L 423.581649 233.536436 
L 424.64606 209.526854 
L 425.710471 218.206628 
L 426.774882 228.51568 
L 427.839293 228.876467 
L 428.903704 216.673922 
L 429.968115 237.48859 
L 431.032526 245.952664 
L 432.096937 225.715227 
L 433.161348 212.911916 
L 434.225759 216.330175 
L 435.29017 204.627052 
L 436.354581 209.381329 
L 437.418992 214.725249 
L 438.483403 230.405995 
L 439.547814 224.236827 
L 440.612225 235.576575 
L 442.741047 206.493071 
L 443.805458 245.258285 
L 444.869869 180.540352 
L 445.93428 255.225427 
L 446.998691 226.690015 
L 448.063102 217.504351 
L 449.127513 220.619811 
L 450.191924 211.790621 
L 452.320746 233.215799 
L 453.385157 218.455343 
L 454.449568 234.177695 
L 455.513979 224.502239 
L 456.578391 227.041156 
L 457.642802 246.146328 
L 458.707213 236.396725 
L 459.771624 223.094306 
L 460.836035 214.106857 
L 461.900446 207.036697 
L 464.029268 219.047784 
L 465.093679 229.640169 
L 466.15809 244.844655 
L 467.222501 200.801554 
L 468.286912 200.808529 
L 469.351323 208.803391 
L 470.415734 231.997761 
L 471.480145 258.387017 
L 472.544556 192.16263 
L 473.608967 225.610202 
L 474.673378 221.991058 
L 475.737789 215.320107 
L 476.8022 239.97163 
L 477.866611 228.162286 
L 478.931022 203.491483 
L 479.995433 239.98327 
L 481.059844 207.468243 
L 482.124255 215.84232 
L 483.188666 204.493438 
L 484.253077 259.976014 
L 486.381899 207.897307 
L 487.44631 252.52692 
L 488.510721 227.868021 
L 489.575132 226.168811 
L 490.639543 221.299892 
L 491.703954 242.919094 
L 492.768365 225.476494 
L 493.832776 231.531182 
L 494.897188 224.480335 
L 494.897188 224.480335 
" clip-path="url(#pca80bb0244)" style="fill: none; stroke: #c34a22; stroke-width: 0.9; stroke-linecap: square"/>
   </g>
   <g id="patch_6">
    <path d="M 48.962188 269.747875 
L 48.962188 176.292375 
" style="fill: none; stroke: #d8cfbc; stroke-width: 0.8; stroke-linejoin: miter; stroke-linecap: square"/>
   </g>
   <g id="patch_7">
    <path d="M 48.962188 269.747875 
L 516.132188 269.747875 
" style="fill: none; stroke: #d8cfbc; stroke-width: 0.8; stroke-linejoin: miter; stroke-linecap: square"/>
   </g>
   <g id="text_28">
    <text style="font-style: italic; font-size: 12px; font-family: 'Georgia', 'Times New Roman', 'DejaVu Serif', serif; text-anchor: start; fill: #221e17" x="48.962188" y="170.292375" transform="rotate(-0 48.962188 170.292375)">same values, shuffled</text>
   </g>
  </g>
  <g id="axes_3">
   <g id="patch_8">
    <path d="M 48.962188 423.763375 
L 516.132188 423.763375 
L 516.132188 330.307875 
L 48.962188 330.307875 
z
" style="fill: #f6f1e7"/>
   </g>
   <g id="matplotlib.axis_5">
    <g id="xtick_19">
     <g id="line2d_26">
      <g>
       <use xlink:href="#m38d74b556c" x="150.827842" y="423.763375" style="fill: #5c554a; stroke: #5c554a; stroke-width: 0.8"/>
      </g>
     </g>
     <g id="text_29">
      <!-- $\mathdefault{10^{1}}$ -->
      <g style="fill: #5c554a" transform="translate(143.237842 439.078688)">
       <text>
        <tspan x="0" y="-0.135938" style="font-size: 11px; font-family: 'Georgia'; fill: #5c554a">1</tspan>
        <tspan x="4.726562" y="-0.135938" style="font-size: 11px; font-family: 'Georgia'; fill: #5c554a">0</tspan>
        <tspan x="11.570723" y="-3.84375" style="font-size: 7.7px; font-family: 'Georgia'; fill: #5c554a">1</tspan>
       </text>
      </g>
     </g>
    </g>
    <g id="xtick_20">
     <g id="line2d_27">
      <g>
       <use xlink:href="#m38d74b556c" x="353.447967" y="423.763375" style="fill: #5c554a; stroke: #5c554a; stroke-width: 0.8"/>
      </g>
     </g>
     <g id="text_30">
      <!-- $\mathdefault{10^{2}}$ -->
      <g style="fill: #5c554a" transform="translate(345.362967 439.078688)">
       <text>
        <tspan x="0" y="-0.135938" style="font-size: 11px; font-family: 'Georgia'; fill: #5c554a">1</tspan>
        <tspan x="4.726562" y="-0.135938" style="font-size: 11px; font-family: 'Georgia'; fill: #5c554a">0</tspan>
        <tspan x="11.570723" y="-3.84375" style="font-size: 7.7px; font-family: 'Georgia'; fill: #5c554a">2</tspan>
       </text>
      </g>
     </g>
    </g>
    <g id="xtick_21">
     <g id="line2d_28">
      <defs>
       <path id="m945e869cd4" d="M 0 0 
L 0 2 
" style="stroke: #5c554a; stroke-width: 0.6"/>
      </defs>
      <g>
       <use xlink:href="#m945e869cd4" x="70.197188" y="423.763375" style="fill: #5c554a; stroke: #5c554a; stroke-width: 0.6"/>
      </g>
     </g>
    </g>
    <g id="xtick_22">
     <g id="line2d_29">
      <g>
       <use xlink:href="#m945e869cd4" x="89.833106" y="423.763375" style="fill: #5c554a; stroke: #5c554a; stroke-width: 0.6"/>
      </g>
     </g>
    </g>
    <g id="xtick_23">
     <g id="line2d_30">
      <g>
       <use xlink:href="#m945e869cd4" x="105.87682" y="423.763375" style="fill: #5c554a; stroke: #5c554a; stroke-width: 0.6"/>
      </g>
     </g>
    </g>
    <g id="xtick_24">
     <g id="line2d_31">
      <g>
       <use xlink:href="#m945e869cd4" x="119.441587" y="423.763375" style="fill: #5c554a; stroke: #5c554a; stroke-width: 0.6"/>
      </g>
     </g>
    </g>
    <g id="xtick_25">
     <g id="line2d_32">
      <g>
       <use xlink:href="#m945e869cd4" x="131.191923" y="423.763375" style="fill: #5c554a; stroke: #5c554a; stroke-width: 0.6"/>
      </g>
     </g>
    </g>
    <g id="xtick_26">
     <g id="line2d_33">
      <g>
       <use xlink:href="#m945e869cd4" x="141.556453" y="423.763375" style="fill: #5c554a; stroke: #5c554a; stroke-width: 0.6"/>
      </g>
     </g>
    </g>
    <g id="xtick_27">
     <g id="line2d_34">
      <g>
       <use xlink:href="#m945e869cd4" x="211.822577" y="423.763375" style="fill: #5c554a; stroke: #5c554a; stroke-width: 0.6"/>
      </g>
     </g>
    </g>
    <g id="xtick_28">
     <g id="line2d_35">
      <g>
       <use xlink:href="#m945e869cd4" x="247.50221" y="423.763375" style="fill: #5c554a; stroke: #5c554a; stroke-width: 0.6"/>
      </g>
     </g>
    </g>
    <g id="xtick_29">
     <g id="line2d_36">
      <g>
       <use xlink:href="#m945e869cd4" x="272.817313" y="423.763375" style="fill: #5c554a; stroke: #5c554a; stroke-width: 0.6"/>
      </g>
     </g>
    </g>
    <g id="xtick_30">
     <g id="line2d_37">
      <g>
       <use xlink:href="#m945e869cd4" x="292.453232" y="423.763375" style="fill: #5c554a; stroke: #5c554a; stroke-width: 0.6"/>
      </g>
     </g>
    </g>
    <g id="xtick_31">
     <g id="line2d_38">
      <g>
       <use xlink:href="#m945e869cd4" x="308.496946" y="423.763375" style="fill: #5c554a; stroke: #5c554a; stroke-width: 0.6"/>
      </g>
     </g>
    </g>
    <g id="xtick_32">
     <g id="line2d_39">
      <g>
       <use xlink:href="#m945e869cd4" x="322.061713" y="423.763375" style="fill: #5c554a; stroke: #5c554a; stroke-width: 0.6"/>
      </g>
     </g>
    </g>
    <g id="xtick_33">
     <g id="line2d_40">
      <g>
       <use xlink:href="#m945e869cd4" x="333.812048" y="423.763375" style="fill: #5c554a; stroke: #5c554a; stroke-width: 0.6"/>
      </g>
     </g>
    </g>
    <g id="xtick_34">
     <g id="line2d_41">
      <g>
       <use xlink:href="#m945e869cd4" x="344.176579" y="423.763375" style="fill: #5c554a; stroke: #5c554a; stroke-width: 0.6"/>
      </g>
     </g>
    </g>
    <g id="xtick_35">
     <g id="line2d_42">
      <g>
       <use xlink:href="#m945e869cd4" x="414.442703" y="423.763375" style="fill: #5c554a; stroke: #5c554a; stroke-width: 0.6"/>
      </g>
     </g>
    </g>
    <g id="xtick_36">
     <g id="line2d_43">
      <g>
       <use xlink:href="#m945e869cd4" x="450.122336" y="423.763375" style="fill: #5c554a; stroke: #5c554a; stroke-width: 0.6"/>
      </g>
     </g>
    </g>
    <g id="xtick_37">
     <g id="line2d_44">
      <g>
       <use xlink:href="#m945e869cd4" x="475.437438" y="423.763375" style="fill: #5c554a; stroke: #5c554a; stroke-width: 0.6"/>
      </g>
     </g>
    </g>
    <g id="xtick_38">
     <g id="line2d_45">
      <g>
       <use xlink:href="#m945e869cd4" x="495.073357" y="423.763375" style="fill: #5c554a; stroke: #5c554a; stroke-width: 0.6"/>
      </g>
     </g>
    </g>
    <g id="xtick_39">
     <g id="line2d_46">
      <g>
       <use xlink:href="#m945e869cd4" x="511.117071" y="423.763375" style="fill: #5c554a; stroke: #5c554a; stroke-width: 0.6"/>
      </g>
     </g>
    </g>
    <g id="text_31">
     <text style="font-size: 11px; font-family: 'Georgia', 'Times New Roman', 'DejaVu Serif', serif; text-anchor: middle; fill: #5c554a" x="282.547188" y="453.779625" transform="rotate(-0 282.547188 453.779625)">scale n (beats)</text>
    </g>
   </g>
   <g id="matplotlib.axis_6">
    <g id="ytick_6">
     <g id="line2d_47">
      <g>
       <use xlink:href="#m2597cc13f3" x="48.962188" y="419.874396" style="fill: #5c554a; stroke: #5c554a; stroke-width: 0.8"/>
      </g>
     </g>
     <g id="text_32">
      <!-- $\mathdefault{10^{1}}$ -->
      <g style="fill: #5c554a" transform="translate(26.782188 424.032052)">
       <text>
        <tspan x="0" y="-0.135938" style="font-size: 11px; font-family: 'Georgia'; fill: #5c554a">1</tspan>
        <tspan x="4.726562" y="-0.135938" style="font-size: 11px; font-family: 'Georgia'; fill: #5c554a">0</tspan>
        <tspan x="11.570723" y="-3.84375" style="font-size: 7.7px; font-family: 'Georgia'; fill: #5c554a">1</tspan>
       </text>
      </g>
     </g>
    </g>
    <g id="ytick_7">
     <g id="line2d_48">
      <g>
       <use xlink:href="#m2597cc13f3" x="48.962188" y="379.676886" style="fill: #5c554a; stroke: #5c554a; stroke-width: 0.8"/>
      </g>
     </g>
     <g id="text_33">
      <!-- $\mathdefault{10^{2}}$ -->
      <g style="fill: #5c554a" transform="translate(25.792188 383.834542)">
       <text>
        <tspan x="0" y="-0.135938" style="font-size: 11px; font-family: 'Georgia'; fill: #5c554a">1</tspan>
        <tspan x="4.726562" y="-0.135938" style="font-size: 11px; font-family: 'Georgia'; fill: #5c554a">0</tspan>
        <tspan x="11.570723" y="-3.84375" style="font-size: 7.7px; font-family: 'Georgia'; fill: #5c554a">2</tspan>
       </text>
      </g>
     </g>
    </g>
    <g id="ytick_8">
     <g id="line2d_49">
      <g>
       <use xlink:href="#m2597cc13f3" x="48.962188" y="339.479376" style="fill: #5c554a; stroke: #5c554a; stroke-width: 0.8"/>
      </g>
     </g>
     <g id="text_34">
      <!-- $\mathdefault{10^{3}}$ -->
      <g style="fill: #5c554a" transform="translate(25.792188 343.637032)">
       <text>
        <tspan x="0" y="-0.135938" style="font-size: 11px; font-family: 'Georgia'; fill: #5c554a">1</tspan>
        <tspan x="4.726562" y="-0.135938" style="font-size: 11px; font-family: 'Georgia'; fill: #5c554a">0</tspan>
        <tspan x="11.570723" y="-3.84375" style="font-size: 7.7px; font-family: 'Georgia'; fill: #5c554a">3</tspan>
       </text>
      </g>
     </g>
    </g>
    <g id="ytick_9">
     <g id="line2d_50">
      <defs>
       <path id="ma743ca793f" d="M 0 0 
L -2 0 
" style="stroke: #5c554a; stroke-width: 0.6"/>
      </defs>
      <g>
       <use xlink:href="#ma743ca793f" x="48.962188" y="421.713733" style="fill: #5c554a; stroke: #5c554a; stroke-width: 0.6"/>
      </g>
     </g>
    </g>
    <g id="ytick_10">
     <g id="line2d_51">
      <g>
       <use xlink:href="#ma743ca793f" x="48.962188" y="407.77374" style="fill: #5c554a; stroke: #5c554a; stroke-width: 0.6"/>
      </g>
     </g>
    </g>
    <g id="ytick_11">
     <g id="line2d_52">
      <g>
       <use xlink:href="#ma743ca793f" x="48.962188" y="400.69531" style="fill: #5c554a; stroke: #5c554a; stroke-width: 0.6"/>
      </g>
     </g>
    </g>
    <g id="ytick_12">
     <g id="line2d_53">
      <g>
       <use xlink:href="#ma743ca793f" x="48.962188" y="395.673083" style="fill: #5c554a; stroke: #5c554a; stroke-width: 0.6"/>
      </g>
     </g>
    </g>
    <g id="ytick_13">
     <g id="line2d_54">
      <g>
       <use xlink:href="#ma743ca793f" x="48.962188" y="391.777542" style="fill: #5c554a; stroke: #5c554a; stroke-width: 0.6"/>
      </g>
     </g>
    </g>
    <g id="ytick_14">
     <g id="line2d_55">
      <g>
       <use xlink:href="#ma743ca793f" x="48.962188" y="388.594653" style="fill: #5c554a; stroke: #5c554a; stroke-width: 0.6"/>
      </g>
     </g>
    </g>
    <g id="ytick_15">
     <g id="line2d_56">
      <g>
       <use xlink:href="#ma743ca793f" x="48.962188" y="385.903559" style="fill: #5c554a; stroke: #5c554a; stroke-width: 0.6"/>
      </g>
     </g>
    </g>
    <g id="ytick_16">
     <g id="line2d_57">
      <g>
       <use xlink:href="#ma743ca793f" x="48.962188" y="383.572427" style="fill: #5c554a; stroke: #5c554a; stroke-width: 0.6"/>
      </g>
     </g>
    </g>
    <g id="ytick_17">
     <g id="line2d_58">
      <g>
       <use xlink:href="#ma743ca793f" x="48.962188" y="381.516223" style="fill: #5c554a; stroke: #5c554a; stroke-width: 0.6"/>
      </g>
     </g>
    </g>
    <g id="ytick_18">
     <g id="line2d_59">
      <g>
       <use xlink:href="#ma743ca793f" x="48.962188" y="367.57623" style="fill: #5c554a; stroke: #5c554a; stroke-width: 0.6"/>
      </g>
     </g>
    </g>
    <g id="ytick_19">
     <g id="line2d_60">
      <g>
       <use xlink:href="#ma743ca793f" x="48.962188" y="360.4978" style="fill: #5c554a; stroke: #5c554a; stroke-width: 0.6"/>
      </g>
     </g>
    </g>
    <g id="ytick_20">
     <g id="line2d_61">
      <g>
       <use xlink:href="#ma743ca793f" x="48.962188" y="355.475573" style="fill: #5c554a; stroke: #5c554a; stroke-width: 0.6"/>
      </g>
     </g>
    </g>
    <g id="ytick_21">
     <g id="line2d_62">
      <g>
       <use xlink:href="#ma743ca793f" x="48.962188" y="351.580032" style="fill: #5c554a; stroke: #5c554a; stroke-width: 0.6"/>
      </g>
     </g>
    </g>
    <g id="ytick_22">
     <g id="line2d_63">
      <g>
       <use xlink:href="#ma743ca793f" x="48.962188" y="348.397143" style="fill: #5c554a; stroke: #5c554a; stroke-width: 0.6"/>
      </g>
     </g>
    </g>
    <g id="ytick_23">
     <g id="line2d_64">
      <g>
       <use xlink:href="#ma743ca793f" x="48.962188" y="345.706049" style="fill: #5c554a; stroke: #5c554a; stroke-width: 0.6"/>
      </g>
     </g>
    </g>
    <g id="ytick_24">
     <g id="line2d_65">
      <g>
       <use xlink:href="#ma743ca793f" x="48.962188" y="343.374917" style="fill: #5c554a; stroke: #5c554a; stroke-width: 0.6"/>
      </g>
     </g>
    </g>
    <g id="ytick_25">
     <g id="line2d_66">
      <g>
       <use xlink:href="#ma743ca793f" x="48.962188" y="341.318713" style="fill: #5c554a; stroke: #5c554a; stroke-width: 0.6"/>
      </g>
     </g>
    </g>
    <g id="text_35">
     <text style="font-size: 11px; font-family: 'Georgia', 'Times New Roman', 'DejaVu Serif', serif; text-anchor: middle; fill: #5c554a" x="19.406563" y="377.035625" transform="rotate(-90 19.406563 377.035625)">F(n)</text>
    </g>
   </g>
   <g id="line2d_67">
    <path d="M 70.197188 419.515398 
L 89.833106 414.270013 
L 105.87682 410.847108 
L 119.441587 408.288122 
L 150.827842 402.513847 
L 166.871556 399.004533 
L 186.507475 395.041176 
L 211.822577 390.658945 
L 231.458496 386.68639 
L 250.38761 382.828334 
L 270.589427 378.240699 
L 292.453232 373.924777 
L 312.790324 369.713825 
L 332.705156 366.318379 
L 353.447967 362.756988 
L 373.083886 358.925166 
L 393.699891 354.386178 
L 414.001615 350.153559 
L 434.078622 344.654742 
L 454.415714 340.92417 
L 474.774975 339.421276 
L 494.897188 334.555852 
" clip-path="url(#p096d002764)" style="fill: none; stroke: #1e3d52; stroke-width: 1.5; stroke-linecap: square"/>
    <defs>
     <path id="m7dc3a3543d" d="M 0 2 
C 0.530406 2 1.03916 1.789267 1.414214 1.414214 
C 1.789267 1.03916 2 0.530406 2 0 
C 2 -0.530406 1.789267 -1.03916 1.414214 -1.414214 
C 1.03916 -1.789267 0.530406 -2 0 -2 
C -0.530406 -2 -1.03916 -1.789267 -1.414214 -1.414214 
C -1.789267 -1.03916 -2 -0.530406 -2 0 
C -2 0.530406 -1.789267 1.03916 -1.414214 1.414214 
C -1.03916 1.789267 -0.530406 2 0 2 
z
" style="stroke: #1e3d52"/>
    </defs>
    <g clip-path="url(#p096d002764)">
     <use xlink:href="#m7dc3a3543d" x="70.197188" y="419.515398" style="fill: #1e3d52; stroke: #1e3d52"/>
     <use xlink:href="#m7dc3a3543d" x="89.833106" y="414.270013" style="fill: #1e3d52; stroke: #1e3d52"/>
     <use xlink:href="#m7dc3a3543d" x="105.87682" y="410.847108" style="fill: #1e3d52; stroke: #1e3d52"/>
     <use xlink:href="#m7dc3a3543d" x="119.441587" y="408.288122" style="fill: #1e3d52; stroke: #1e3d52"/>
     <use xlink:href="#m7dc3a3543d" x="150.827842" y="402.513847" style="fill: #1e3d52; stroke: #1e3d52"/>
     <use xlink:href="#m7dc3a3543d" x="166.871556" y="399.004533" style="fill: #1e3d52; stroke: #1e3d52"/>
     <use xlink:href="#m7dc3a3543d" x="186.507475" y="395.041176" style="fill: #1e3d52; stroke: #1e3d52"/>
     <use xlink:href="#m7dc3a3543d" x="211.822577" y="390.658945" style="fill: #1e3d52; stroke: #1e3d52"/>
     <use xlink:href="#m7dc3a3543d" x="231.458496" y="386.68639" style="fill: #1e3d52; stroke: #1e3d52"/>
     <use xlink:href="#m7dc3a3543d" x="250.38761" y="382.828334" style="fill: #1e3d52; stroke: #1e3d52"/>
     <use xlink:href="#m7dc3a3543d" x="270.589427" y="378.240699" style="fill: #1e3d52; stroke: #1e3d52"/>
     <use xlink:href="#m7dc3a3543d" x="292.453232" y="373.924777" style="fill: #1e3d52; stroke: #1e3d52"/>
     <use xlink:href="#m7dc3a3543d" x="312.790324" y="369.713825" style="fill: #1e3d52; stroke: #1e3d52"/>
     <use xlink:href="#m7dc3a3543d" x="332.705156" y="366.318379" style="fill: #1e3d52; stroke: #1e3d52"/>
     <use xlink:href="#m7dc3a3543d" x="353.447967" y="362.756988" style="fill: #1e3d52; stroke: #1e3d52"/>
     <use xlink:href="#m7dc3a3543d" x="373.083886" y="358.925166" style="fill: #1e3d52; stroke: #1e3d52"/>
     <use xlink:href="#m7dc3a3543d" x="393.699891" y="354.386178" style="fill: #1e3d52; stroke: #1e3d52"/>
     <use xlink:href="#m7dc3a3543d" x="414.001615" y="350.153559" style="fill: #1e3d52; stroke: #1e3d52"/>
     <use xlink:href="#m7dc3a3543d" x="434.078622" y="344.654742" style="fill: #1e3d52; stroke: #1e3d52"/>
     <use xlink:href="#m7dc3a3543d" x="454.415714" y="340.92417" style="fill: #1e3d52; stroke: #1e3d52"/>
     <use xlink:href="#m7dc3a3543d" x="474.774975" y="339.421276" style="fill: #1e3d52; stroke: #1e3d52"/>
     <use xlink:href="#m7dc3a3543d" x="494.897188" y="334.555852" style="fill: #1e3d52; stroke: #1e3d52"/>
    </g>
   </g>
   <g id="line2d_68">
    <path d="M 70.197188 407.468488 
L 89.833106 404.378126 
L 105.87682 402.730489 
L 119.441587 401.065708 
L 150.827842 398.294103 
L 166.871556 396.333052 
L 186.507475 394.630879 
L 211.822577 391.796725 
L 231.458496 390.006572 
L 250.38761 387.616562 
L 270.589427 384.985128 
L 292.453232 384.085981 
L 312.790324 381.526327 
L 332.705156 379.615501 
L 353.447967 376.276843 
L 373.083886 374.988275 
L 393.699891 371.931008 
L 414.001615 368.649291 
L 434.078622 365.369405 
L 454.415714 364.760654 
L 474.774975 362.249842 
L 494.897188 362.231379 
" clip-path="url(#p096d002764)" style="fill: none; stroke: #c34a22; stroke-width: 1.5; stroke-linecap: square"/>
    <defs>
     <path id="m548dbfcd94" d="M -2 2 
L 2 2 
L 2 -2 
L -2 -2 
z
" style="stroke: #c34a22; stroke-linejoin: miter"/>
    </defs>
    <g clip-path="url(#p096d002764)">
     <use xlink:href="#m548dbfcd94" x="70.197188" y="407.468488" style="fill: #c34a22; stroke: #c34a22; stroke-linejoin: miter"/>
     <use xlink:href="#m548dbfcd94" x="89.833106" y="404.378126" style="fill: #c34a22; stroke: #c34a22; stroke-linejoin: miter"/>
     <use xlink:href="#m548dbfcd94" x="105.87682" y="402.730489" style="fill: #c34a22; stroke: #c34a22; stroke-linejoin: miter"/>
     <use xlink:href="#m548dbfcd94" x="119.441587" y="401.065708" style="fill: #c34a22; stroke: #c34a22; stroke-linejoin: miter"/>
     <use xlink:href="#m548dbfcd94" x="150.827842" y="398.294103" style="fill: #c34a22; stroke: #c34a22; stroke-linejoin: miter"/>
     <use xlink:href="#m548dbfcd94" x="166.871556" y="396.333052" style="fill: #c34a22; stroke: #c34a22; stroke-linejoin: miter"/>
     <use xlink:href="#m548dbfcd94" x="186.507475" y="394.630879" style="fill: #c34a22; stroke: #c34a22; stroke-linejoin: miter"/>
     <use xlink:href="#m548dbfcd94" x="211.822577" y="391.796725" style="fill: #c34a22; stroke: #c34a22; stroke-linejoin: miter"/>
     <use xlink:href="#m548dbfcd94" x="231.458496" y="390.006572" style="fill: #c34a22; stroke: #c34a22; stroke-linejoin: miter"/>
     <use xlink:href="#m548dbfcd94" x="250.38761" y="387.616562" style="fill: #c34a22; stroke: #c34a22; stroke-linejoin: miter"/>
     <use xlink:href="#m548dbfcd94" x="270.589427" y="384.985128" style="fill: #c34a22; stroke: #c34a22; stroke-linejoin: miter"/>
     <use xlink:href="#m548dbfcd94" x="292.453232" y="384.085981" style="fill: #c34a22; stroke: #c34a22; stroke-linejoin: miter"/>
     <use xlink:href="#m548dbfcd94" x="312.790324" y="381.526327" style="fill: #c34a22; stroke: #c34a22; stroke-linejoin: miter"/>
     <use xlink:href="#m548dbfcd94" x="332.705156" y="379.615501" style="fill: #c34a22; stroke: #c34a22; stroke-linejoin: miter"/>
     <use xlink:href="#m548dbfcd94" x="353.447967" y="376.276843" style="fill: #c34a22; stroke: #c34a22; stroke-linejoin: miter"/>
     <use xlink:href="#m548dbfcd94" x="373.083886" y="374.988275" style="fill: #c34a22; stroke: #c34a22; stroke-linejoin: miter"/>
     <use xlink:href="#m548dbfcd94" x="393.699891" y="371.931008" style="fill: #c34a22; stroke: #c34a22; stroke-linejoin: miter"/>
     <use xlink:href="#m548dbfcd94" x="414.001615" y="368.649291" style="fill: #c34a22; stroke: #c34a22; stroke-linejoin: miter"/>
     <use xlink:href="#m548dbfcd94" x="434.078622" y="365.369405" style="fill: #c34a22; stroke: #c34a22; stroke-linejoin: miter"/>
     <use xlink:href="#m548dbfcd94" x="454.415714" y="364.760654" style="fill: #c34a22; stroke: #c34a22; stroke-linejoin: miter"/>
     <use xlink:href="#m548dbfcd94" x="474.774975" y="362.249842" style="fill: #c34a22; stroke: #c34a22; stroke-linejoin: miter"/>
     <use xlink:href="#m548dbfcd94" x="494.897188" y="362.231379" style="fill: #c34a22; stroke: #c34a22; stroke-linejoin: miter"/>
    </g>
   </g>
   <g id="patch_9">
    <path d="M 48.962188 423.763375 
L 48.962188 330.307875 
" style="fill: none; stroke: #d8cfbc; stroke-width: 0.8; stroke-linejoin: miter; stroke-linecap: square"/>
   </g>
   <g id="patch_10">
    <path d="M 48.962188 423.763375 
L 516.132188 423.763375 
" style="fill: none; stroke: #d8cfbc; stroke-width: 0.8; stroke-linejoin: miter; stroke-linecap: square"/>
   </g>
   <g id="text_36">
    <text style="font-style: italic; font-size: 12px; font-family: 'Georgia', 'Times New Roman', 'DejaVu Serif', serif; text-anchor: start; fill: #221e17" x="48.962188" y="324.307875" transform="rotate(-0 48.962188 324.307875)">DFA fluctuation curves</text>
   </g>
   <g id="legend_1">
    <g id="line2d_69">
     <path d="M 58.862188 344.673187 
L 69.862188 344.673187 
L 80.862188 344.673187 
" style="fill: none; stroke: #1e3d52; stroke-width: 1.5; stroke-linecap: square"/>
     <g>
      <use xlink:href="#m7dc3a3543d" x="69.862188" y="344.673187" style="fill: #1e3d52; stroke: #1e3d52"/>
     </g>
    </g>
    <g id="text_37">
     <text style="font-size: 11px; font-family: 'Georgia', 'Times New Roman', 'DejaVu Serif', serif; text-anchor: start; fill: #221e17" x="89.662188" y="348.523188" transform="rotate(-0 89.662188 348.523188)">healthy  α₁=1.03</text>
    </g>
    <g id="line2d_70">
     <path d="M 58.862188 360.874125 
L 69.862188 360.874125 
L 80.862188 360.874125 
" style="fill: none; stroke: #c34a22; stroke-width: 1.5; stroke-linecap: square"/>
     <g>
      <use xlink:href="#m548dbfcd94" x="69.862188" y="360.874125" style="fill: #c34a22; stroke: #c34a22; stroke-linejoin: miter"/>
     </g>
    </g>
    <g id="text_38">
     <text style="font-size: 11px; font-family: 'Georgia', 'Times New Roman', 'DejaVu Serif', serif; text-anchor: start; fill: #221e17" x="89.662188" y="364.724125" transform="rotate(-0 89.662188 364.724125)">shuffled α₁=0.55</text>
    </g>
   </g>
  </g>
 </g>
 <defs>
  <clipPath id="p0a6ff6f139">
   <rect x="48.962188" y="22.276875" width="467.17" height="93.4555"/>
  </clipPath>
  <clipPath id="pca80bb0244">
   <rect x="48.962188" y="176.292375" width="467.17" height="93.4555"/>
  </clipPath>
  <clipPath id="p096d002764">
   <rect x="48.962188" y="330.307875" width="467.17" height="93.4555"/>
  </clipPath>
 </defs>
</svg>
