<?xml version="1.0" encoding="utf-8" standalone="no"?>
<!DOCTYPE svg PUBLIC "-//W3C//DTD SVG 1.1//EN"
  "http://www.w3.org/Graphics/SVG/1.1/DTD/svg11.dtd">
<svg xmlns:xlink="http://www.w3.org/1999/xlink" width="681.754375pt" height="276.159625pt" viewBox="0 0 681.754375 276.159625" xmlns="http://www.w3.org/2000/svg" version="1.1">
 <metadata>
  <rdf:RDF xmlns:dc="http://purl.org/dc/elements/1.1/" xmlns:cc="http://creativecommons.org/ns#" xmlns:rdf="http://www.w3.org/1999/02/22-rdf-syntax-ns#">
   <cc:Work>
    <dc:type rdf:resource="http://purl.org/dc/dcmitype/StillImage"/>
    <dc:date>2026-06-12T01:33:38.762705</dc:date>
    <dc:format>image/svg+xml</dc:format>
    <dc:creator>
     <cc:Agent>
      <dc:title>Matplotlib v3.10.8, https://matplotlib.org/</dc:title>
     </cc:Agent>
    </dc:creator>
   </cc:Work>
  </rdf:RDF>
 </metadata>
 <defs>
  <style type="text/css">*{stroke-linejoin: round; stroke-linecap: butt}</style>
 </defs>
 <g id="figure_1">
  <g id="patch_1">
   <path d="M 0 276.159625 
L 681.754375 276.159625 
L 681.754375 0 
L 0 0 
z
" style="fill: #f6f1e7"/>
  </g>
  <g id="axes_1">
   <g id="patch_2">
    <path d="M 54.204375 236.55775 
L 338.880396 236.55775 
L 338.880396 22.27125 
L 54.204375 22.27125 
z
" style="fill: #f6f1e7"/>
   </g>
   <g id="matplotlib.axis_1">
    <g id="xtick_1">
     <g id="line2d_1">
      <defs>
       <path id="m815c4795bb" d="M 0 0 
L 0 3.5 
" style="stroke: #5c554a; stroke-width: 0.8"/>
      </defs>
      <g>
       <use xlink:href="#m815c4795bb" x="67.144194" y="236.55775" style="fill: #5c554a; stroke: #5c554a; stroke-width: 0.8"/>
      </g>
     </g>
     <g id="text_1">
      <text style="font-size: 11px; font-family: 'Georgia', 'Times New Roman', 'DejaVu Serif', serif; text-anchor: middle; fill: #5c554a" x="67.144194" y="251.873063" transform="rotate(-0 67.144194 251.873063)">0</text>
     </g>
    </g>
    <g id="xtick_2">
     <g id="line2d_2">
      <g>
       <use xlink:href="#m815c4795bb" x="110.421181" y="236.55775" style="fill: #5c554a; stroke: #5c554a; stroke-width: 0.8"/>
      </g>
     </g>
     <g id="text_2">
      <text style="font-size: 11px; font-family: 'Georgia', 'Times New Roman', 'DejaVu Serif', serif; text-anchor: middle; fill: #5c554a" x="110.421181" y="251.873063" transform="rotate(-0 110.421181 251.873063)">50</text>
     </g>
    </g>
    <g id="xtick_3">
     <g id="line2d_3">
      <g>
       <use xlink:href="#m815c4795bb" x="153.698168" y="236.55775" style="fill: #5c554a; stroke: #5c554a; stroke-width: 0.8"/>
      </g>
     </g>
     <g id="text_3">
      <text style="font-size: 11px; font-family: 'Georgia', 'Times New Roman', 'DejaVu Serif', serif; text-anchor: middle; fill: #5c554a" x="153.698168" y="251.873063" transform="rotate(-0 153.698168 251.873063)">100</text>
     </g>
    </g>
    <g id="xtick_4">
     <g id="line2d_4">
      <g>
       <use xlink:href="#m815c4795bb" x="196.975155" y="236.55775" style="fill: #5c554a; stroke: #5c554a; stroke-width: 0.8"/>
      </g>
     </g>
     <g id="text_4">
      <text style="font-size: 11px; font-family: 'Georgia', 'Times New Roman', 'DejaVu Serif', serif; text-anchor: middle; fill: #5c554a" x="196.975155" y="251.873063" transform="rotate(-0 196.975155 251.873063)">150</text>
     </g>
    </g>
    <g id="xtick_5">
     <g id="line2d_5">
      <g>
       <use xlink:href="#m815c4795bb" x="240.252142" y="236.55775" style="fill: #5c554a; stroke: #5c554a; stroke-width: 0.8"/>
      </g>
     </g>
     <g id="text_5">
      <text style="font-size: 11px; font-family: 'Georgia', 'Times New Roman', 'DejaVu Serif', serif; text-anchor: middle; fill: #5c554a" x="240.252142" y="251.873063" transform="rotate(-0 240.252142 251.873063)">200</text>
     </g>
    </g>
    <g id="xtick_6">
     <g id="line2d_6">
      <g>
       <use xlink:href="#m815c4795bb" x="283.529129" y="236.55775" style="fill: #5c554a; stroke: #5c554a; stroke-width: 0.8"/>
      </g>
     </g>
     <g id="text_6">
      <text style="font-size: 11px; font-family: 'Georgia', 'Times New Roman', 'DejaVu Serif', serif; text-anchor: middle; fill: #5c554a" x="283.529129" y="251.873063" transform="rotate(-0 283.529129 251.873063)">250</text>
     </g>
    </g>
    <g id="xtick_7">
     <g id="line2d_7">
      <g>
       <use xlink:href="#m815c4795bb" x="326.806117" y="236.55775" style="fill: #5c554a; stroke: #5c554a; stroke-width: 0.8"/>
      </g>
     </g>
     <g id="text_7">
      <text style="font-size: 11px; font-family: 'Georgia', 'Times New Roman', 'DejaVu Serif', serif; text-anchor: middle; fill: #5c554a" x="326.806117" y="251.873063" transform="rotate(-0 326.806117 251.873063)">300</text>
     </g>
    </g>
    <g id="text_8">
     <text style="font-size: 11px; font-family: 'Georgia', 'Times New Roman', 'DejaVu Serif', serif; text-anchor: middle; fill: #5c554a" x="196.542385" y="266.574" transform="rotate(-0 196.542385 266.574)">beat #</text>
    </g>
   </g>
   <g id="matplotlib.axis_2">
    <g id="ytick_1">
     <g id="line2d_8">
      <defs>
       <path id="m339a8c60a4" d="M 0 0 
L -3.5 0 
" style="stroke: #5c554a; stroke-width: 0.8"/>
      </defs>
      <g>
       <use xlink:href="#m339a8c60a4" x="54.204375" y="202.662553" style="fill: #5c554a; stroke: #5c554a; stroke-width: 0.8"/>
      </g>
     </g>
     <g id="text_9">
      <text style="font-size: 11px; font-family: 'Georgia', 'Times New Roman', 'DejaVu Serif', serif; text-anchor: end; fill: #5c554a" x="47.204375" y="206.820209" transform="rotate(-0 47.204375 206.820209)">−100</text>
     </g>
    </g>
    <g id="ytick_2">
     <g id="line2d_9">
      <g>
       <use xlink:href="#m339a8c60a4" x="54.204375" y="164.451425" style="fill: #5c554a; stroke: #5c554a; stroke-width: 0.8"/>
      </g>
     </g>
     <g id="text_10">
      <text style="font-size: 11px; font-family: 'Georgia', 'Times New Roman', 'DejaVu Serif', serif; text-anchor: end; fill: #5c554a" x="47.204375" y="168.609081" transform="rotate(-0 47.204375 168.609081)">−50</text>
     </g>
    </g>
    <g id="ytick_3">
     <g id="line2d_10">
      <g>
       <use xlink:href="#m339a8c60a4" x="54.204375" y="126.240297" style="fill: #5c554a; stroke: #5c554a; stroke-width: 0.8"/>
      </g>
     </g>
     <g id="text_11">
      <text style="font-size: 11px; font-family: 'Georgia', 'Times New Roman', 'DejaVu Serif', serif; text-anchor: end; fill: #5c554a" x="47.204375" y="130.397953" transform="rotate(-0 47.204375 130.397953)">0</text>
     </g>
    </g>
    <g id="ytick_4">
     <g id="line2d_11">
      <g>
       <use xlink:href="#m339a8c60a4" x="54.204375" y="88.029169" style="fill: #5c554a; stroke: #5c554a; stroke-width: 0.8"/>
      </g>
     </g>
     <g id="text_12">
      <text style="font-size: 11px; font-family: 'Georgia', 'Times New Roman', 'DejaVu Serif', serif; text-anchor: end; fill: #5c554a" x="47.204375" y="92.186826" transform="rotate(-0 47.204375 92.186826)">50</text>
     </g>
    </g>
    <g id="ytick_5">
     <g id="line2d_12">
      <g>
       <use xlink:href="#m339a8c60a4" x="54.204375" y="49.818041" style="fill: #5c554a; stroke: #5c554a; stroke-width: 0.8"/>
      </g>
     </g>
     <g id="text_13">
      <text style="font-size: 11px; font-family: 'Georgia', 'Times New Roman', 'DejaVu Serif', serif; text-anchor: end; fill: #5c554a" x="47.204375" y="53.975698" transform="rotate(-0 47.204375 53.975698)">100</text>
     </g>
    </g>
    <g id="text_14">
     <text style="font-size: 11px; font-family: 'Georgia', 'Times New Roman', 'DejaVu Serif', serif; text-anchor: middle; fill: #5c554a" x="15.515313" y="129.4145" transform="rotate(-90 15.515313 129.4145)">RR − mean (ms)</text>
    </g>
   </g>
   <g id="line2d_13">
    <path d="M 67.144194 182.799039 
L 68.009734 125.046091 
L 68.875274 161.693659 
L 69.740813 151.164352 
L 70.606353 85.636438 
L 71.471893 84.053619 
L 72.337433 108.264081 
L 73.202972 118.664766 
L 74.068512 73.953219 
L 74.934052 187.134054 
L 75.799592 71.36111 
L 76.665131 66.513487 
L 77.530671 96.483325 
L 78.396211 138.156855 
L 79.261751 44.836226 
L 80.12729 81.499966 
L 80.99283 141.219609 
L 81.85837 148.386778 
L 82.723909 170.7253 
L 83.589449 126.325988 
L 84.454989 95.197195 
L 85.320529 185.497398 
L 86.186068 131.848714 
L 87.051608 97.55666 
L 87.917148 95.233628 
L 88.782688 56.462395 
L 89.648227 97.365431 
L 90.513767 125.121502 
L 91.379307 93.206895 
L 92.244847 120.767748 
L 93.110386 75.813909 
L 93.975926 150.206278 
L 94.841466 103.843464 
L 95.707006 148.719637 
L 96.572545 142.62794 
L 97.438085 140.927653 
L 98.303625 160.255788 
L 99.169165 116.033701 
L 100.034704 157.877729 
L 100.900244 163.643348 
L 101.765784 105.703017 
L 102.631324 88.84803 
L 103.496863 142.197116 
L 104.362403 84.009289 
L 105.227943 138.924711 
L 106.093482 137.684704 
L 106.959022 175.237957 
L 109.555641 101.819469 
L 110.421181 101.71458 
L 111.286721 65.952945 
L 112.152261 141.30286 
L 113.0178 135.025397 
L 113.88334 64.047499 
L 114.74888 87.000245 
L 115.61442 183.756968 
L 116.479959 124.482534 
L 117.345499 95.733161 
L 118.211039 153.046338 
L 119.076579 146.719473 
L 119.942118 116.664797 
L 120.807658 112.688594 
L 121.673198 101.082788 
L 122.538738 133.708743 
L 123.404277 141.750823 
L 124.269817 128.365696 
L 125.135357 84.638885 
L 126.000897 107.139545 
L 126.866436 140.207919 
L 127.731976 116.422073 
L 128.597516 137.160311 
L 129.463056 141.442803 
L 130.328595 155.811476 
L 131.194135 141.915267 
L 132.059675 70.628554 
L 132.925214 84.829476 
L 133.790754 104.316637 
L 134.656294 117.85727 
L 135.521834 161.501916 
L 136.387373 89.105465 
L 137.252913 176.730764 
L 138.118453 160.96913 
L 138.983993 125.636661 
L 139.849532 161.876807 
L 140.715072 162.418371 
L 141.580612 100.177966 
L 142.446152 110.713309 
L 143.311691 138.514228 
L 144.177231 143.543721 
L 145.042771 71.062843 
L 145.908311 142.175025 
L 146.77385 54.969417 
L 147.63939 134.472513 
L 148.50493 90.384782 
L 149.37047 107.487133 
L 150.236009 118.261441 
L 151.101549 85.207498 
L 151.967089 135.996888 
L 152.832629 112.416214 
L 153.698168 188.556371 
L 154.563708 60.838043 
L 155.429248 195.575412 
L 156.294787 115.675083 
L 157.160327 115.957491 
L 158.025867 158.329987 
L 158.891407 116.668569 
L 159.756946 85.840574 
L 160.622486 168.617967 
L 161.488026 135.773314 
L 162.353566 90.903692 
L 163.219105 171.343854 
L 164.084645 172.975031 
L 164.950185 179.94544 
L 165.815725 139.25194 
L 166.681264 119.233388 
L 167.546804 107.665496 
L 168.412344 169.014884 
L 169.277884 71.507403 
L 170.143423 86.343792 
L 171.874503 171.40856 
L 172.740043 142.337416 
L 173.605582 162.83367 
L 174.471122 107.904642 
L 175.336662 160.673633 
L 176.202202 153.028418 
L 177.067741 137.462525 
L 177.933281 103.481828 
L 178.798821 78.790515 
L 179.66436 109.468837 
L 180.5299 168.274215 
L 181.39544 74.678165 
L 182.26098 138.801195 
L 183.126519 97.519663 
L 183.992059 105.441468 
L 184.857599 179.922287 
L 185.723139 121.679052 
L 187.454218 176.79153 
L 188.319758 124.057107 
L 189.185298 124.154783 
L 190.050837 170.508286 
L 190.916377 181.859437 
L 191.781917 135.486261 
L 192.647457 130.2966 
L 193.512996 123.158279 
L 194.378536 123.718335 
L 195.244076 143.714896 
L 196.109616 113.473106 
L 196.975155 131.076318 
L 197.840695 140.624395 
L 198.706235 106.234743 
L 199.571775 91.754601 
L 200.437314 144.003883 
L 201.302854 166.652123 
L 202.168394 73.743133 
L 203.033934 134.028357 
L 203.899473 84.755911 
L 204.765013 121.740977 
L 205.630553 73.9689 
L 206.496092 143.791894 
L 207.361632 127.581119 
L 208.227172 155.913142 
L 209.092712 132.989617 
L 209.958251 92.547062 
L 210.823791 89.27069 
L 211.689331 135.093942 
L 212.554871 137.843257 
L 213.42041 165.486651 
L 214.28595 155.70083 
L 215.15149 142.115663 
L 216.01703 138.960742 
L 216.882569 149.388174 
L 217.748109 137.121589 
L 218.613649 108.050388 
L 219.479189 143.569803 
L 220.344728 124.492718 
L 221.210268 163.261537 
L 222.075808 130.84246 
L 222.941348 106.294443 
L 223.806887 92.301284 
L 224.672427 145.516018 
L 225.537967 135.087585 
L 226.403507 108.382442 
L 227.269046 117.490884 
L 228.134586 153.560036 
L 229.000126 126.547493 
L 229.865665 128.892511 
L 230.731205 174.444382 
L 231.596745 132.16735 
L 232.462285 133.936159 
L 233.327824 65.169842 
L 234.193364 70.787556 
L 235.058904 121.868468 
L 235.924444 129.416705 
L 236.789983 152.684684 
L 237.655523 111.481464 
L 238.521063 155.74233 
L 239.386603 127.186344 
L 240.252142 136.674766 
L 241.117682 152.74306 
L 241.983222 135.620636 
L 242.848762 98.550542 
L 243.714301 101.027394 
L 244.579841 159.18257 
L 245.445381 73.996389 
L 246.310921 182.913799 
L 247.17646 121.365426 
L 248.042 104.836464 
L 248.90754 54.388058 
L 249.77308 96.785168 
L 250.638619 108.438317 
L 251.504159 113.021116 
L 252.369699 157.281159 
L 253.235239 162.800887 
L 254.100778 133.190109 
L 254.966318 93.781989 
L 255.831858 133.399441 
L 256.697397 64.120534 
L 257.562937 139.960715 
L 258.428477 58.483989 
L 259.294017 146.303599 
L 260.159556 107.780011 
L 261.025096 215.789345 
L 261.890636 127.555091 
L 263.621715 149.544659 
L 264.487255 146.562444 
L 265.352795 100.37993 
L 266.218335 97.920126 
L 267.083874 163.08373 
L 267.949414 148.639756 
L 268.814954 87.997222 
L 269.680494 126.22217 
L 270.546033 144.068687 
L 271.411573 117.586062 
L 272.277113 104.722459 
L 273.142653 146.593079 
L 274.008192 99.715799 
L 274.873732 172.792581 
L 275.739272 187.835727 
L 277.470351 144.587715 
L 278.335891 131.804535 
L 279.201431 114.254891 
L 280.06697 122.488457 
L 280.93251 128.703834 
L 281.79805 152.563837 
L 282.66359 131.356069 
L 283.529129 188.671811 
L 284.394669 108.716986 
L 285.260209 62.467847 
L 286.125749 87.407126 
L 286.991288 143.69107 
L 287.856828 143.288276 
L 288.722368 160.225782 
L 289.587908 49.41465 
L 290.453447 147.836333 
L 291.318987 174.088913 
L 292.184527 88.808853 
L 293.050067 127.626725 
L 293.915606 89.448567 
L 294.781146 103.406172 
L 295.646686 184.063317 
L 296.512226 104.497982 
L 297.377765 75.221186 
L 298.243305 109.2192 
L 299.108845 155.794299 
L 299.974385 112.728656 
L 300.839924 86.414742 
L 301.705464 137.058045 
L 302.571004 142.799577 
L 303.436543 173.017939 
L 304.302083 104.13538 
L 305.167623 124.719012 
L 306.033163 130.186259 
L 306.898702 129.701045 
L 307.764242 97.366083 
L 308.629782 154.378344 
L 309.495322 149.611817 
L 310.360861 162.424861 
L 311.226401 158.262602 
L 312.091941 136.362361 
L 312.957481 167.547311 
L 313.82302 80.292104 
L 314.68856 138.858517 
L 315.5541 92.373069 
L 316.41964 73.280003 
L 317.285179 88.759682 
L 318.150719 100.941767 
L 319.016259 122.628378 
L 319.881799 162.542775 
L 320.747338 156.367658 
L 321.612878 96.843965 
L 322.478418 159.305963 
L 323.343958 152.392502 
L 324.209497 83.005955 
L 325.075037 145.972523 
L 325.940577 226.817455 
L 325.940577 226.817455 
" clip-path="url(#p467aa905a4)" style="fill: none; stroke: #6f8b6a; stroke-opacity: 0.85; stroke-width: 0.8; stroke-linecap: square"/>
   </g>
   <g id="line2d_14">
    <path d="M 67.144194 107.48726 
L 68.009734 104.809268 
L 68.875274 101.403164 
L 69.740813 100.890988 
L 70.606353 89.035281 
L 71.471893 119.906382 
L 72.337433 121.567949 
L 73.202972 128.240922 
L 74.068512 156.221515 
L 74.934052 143.68842 
L 75.799592 169.114306 
L 76.665131 141.869343 
L 77.530671 145.197715 
L 78.396211 152.058698 
L 79.261751 148.002482 
L 80.12729 138.219405 
L 80.99283 94.47968 
L 82.723909 139.36601 
L 83.589449 149.168818 
L 84.454989 141.613931 
L 85.320529 125.412907 
L 86.186068 125.085592 
L 87.051608 129.125257 
L 88.782688 84.577618 
L 89.648227 88.668832 
L 90.513767 114.116619 
L 91.379307 113.103261 
L 92.244847 88.017624 
L 93.110386 114.55577 
L 93.975926 89.61386 
L 94.841466 32.011545 
L 95.707006 101.978036 
L 96.572545 87.065059 
L 97.438085 80.00889 
L 98.303625 67.907097 
L 99.169165 122.353072 
L 100.034704 129.05237 
L 100.900244 109.110106 
L 101.765784 100.904779 
L 102.631324 101.271064 
L 103.496863 70.064526 
L 104.362403 79.663299 
L 105.227943 87.613535 
L 106.093482 76.314987 
L 106.959022 60.131436 
L 107.824562 53.463861 
L 108.690102 77.956757 
L 109.555641 91.950652 
L 110.421181 108.964017 
L 111.286721 139.150046 
L 112.152261 125.112197 
L 113.0178 87.473499 
L 113.88334 113.264411 
L 114.74888 90.468178 
L 115.61442 94.132878 
L 116.479959 77.982307 
L 117.345499 76.151761 
L 118.211039 104.92714 
L 119.076579 114.998987 
L 119.942118 104.753844 
L 120.807658 101.883399 
L 121.673198 94.628439 
L 122.538738 126.534602 
L 123.404277 105.210631 
L 124.269817 140.692114 
L 125.135357 127.182855 
L 126.000897 108.487945 
L 126.866436 103.121723 
L 127.731976 123.869512 
L 129.463056 96.716285 
L 130.328595 100.207693 
L 131.194135 140.354394 
L 132.059675 131.411894 
L 132.925214 134.090094 
L 133.790754 125.36597 
L 135.521834 189.94046 
L 136.387373 162.577539 
L 137.252913 154.899735 
L 138.118453 123.100071 
L 138.983993 122.260977 
L 139.849532 152.96718 
L 140.715072 158.317952 
L 141.580612 88.934666 
L 142.446152 140.591911 
L 143.311691 143.775103 
L 144.177231 130.137209 
L 145.042771 73.296736 
L 145.908311 83.421843 
L 146.77385 120.660841 
L 147.63939 115.317206 
L 148.50493 131.927599 
L 149.37047 131.298118 
L 150.236009 174.905176 
L 151.101549 166.097676 
L 151.967089 138.672805 
L 152.832629 154.165579 
L 153.698168 143.93382 
L 154.563708 167.407693 
L 155.429248 143.594137 
L 156.294787 140.619777 
L 157.160327 119.854749 
L 158.025867 137.177818 
L 158.891407 151.417401 
L 159.756946 118.776094 
L 160.622486 139.700103 
L 161.488026 143.845897 
L 162.353566 145.726477 
L 163.219105 127.294996 
L 164.084645 160.701493 
L 164.950185 139.916841 
L 165.815725 141.369064 
L 166.681264 128.054511 
L 167.546804 118.9536 
L 168.412344 132.707668 
L 169.277884 118.781994 
L 170.143423 115.736608 
L 171.008963 124.226312 
L 171.874503 125.386324 
L 172.740043 121.273393 
L 173.605582 124.881442 
L 174.471122 147.607489 
L 175.336662 154.05262 
L 176.202202 131.021511 
L 177.067741 121.004309 
L 177.933281 127.485464 
L 178.798821 137.397449 
L 179.66436 116.840174 
L 180.5299 111.315501 
L 181.39544 104.666872 
L 182.26098 162.386246 
L 183.126519 169.022734 
L 183.992059 136.194095 
L 184.857599 124.279394 
L 185.723139 117.554478 
L 186.588678 128.010276 
L 187.454218 111.462001 
L 188.319758 112.878788 
L 189.185298 141.399967 
L 190.050837 141.183126 
L 190.916377 149.013727 
L 191.781917 160.689139 
L 192.647457 164.609171 
L 193.512996 140.811752 
L 194.378536 169.010406 
L 195.244076 164.426762 
L 196.109616 131.78388 
L 196.975155 153.66379 
L 197.840695 124.67043 
L 198.706235 116.665946 
L 199.571775 113.750294 
L 200.437314 148.213027 
L 201.302854 159.994701 
L 202.168394 166.578598 
L 203.033934 128.937344 
L 203.899473 148.970279 
L 204.765013 147.43255 
L 205.630553 172.303104 
L 206.496092 153.067682 
L 207.361632 138.15918 
L 208.227172 128.240942 
L 209.092712 125.70463 
L 209.958251 133.061767 
L 210.823791 152.190156 
L 211.689331 113.658113 
L 212.554871 143.825992 
L 213.42041 183.015071 
L 214.28595 159.393882 
L 215.15149 182.069087 
L 216.01703 181.970223 
L 216.882569 170.697426 
L 217.748109 148.76469 
L 218.613649 142.856695 
L 219.479189 177.916335 
L 220.344728 184.440143 
L 221.210268 162.539786 
L 222.075808 162.713149 
L 222.941348 168.278035 
L 223.806887 181.342904 
L 224.672427 197.464417 
L 225.537967 160.736633 
L 226.403507 174.95946 
L 227.269046 141.814894 
L 228.134586 153.758051 
L 229.000126 189.833729 
L 230.731205 203.227021 
L 231.596745 221.296283 
L 232.462285 180.450037 
L 233.327824 153.067109 
L 234.193364 179.363086 
L 235.058904 149.558397 
L 235.924444 149.381977 
L 236.789983 124.604032 
L 237.655523 112.537407 
L 238.521063 107.232142 
L 239.386603 104.554914 
L 240.252142 144.641856 
L 241.117682 125.019914 
L 241.983222 140.551086 
L 242.848762 176.102612 
L 243.714301 184.463629 
L 244.579841 137.301466 
L 245.445381 171.876544 
L 246.310921 169.902326 
L 247.17646 164.459969 
L 248.042 177.791756 
L 248.90754 179.183685 
L 249.77308 155.84835 
L 250.638619 163.685895 
L 251.504159 154.550772 
L 252.369699 168.252443 
L 253.235239 162.542028 
L 254.100778 169.38318 
L 254.966318 145.131319 
L 255.831858 126.296556 
L 256.697397 151.637197 
L 257.562937 152.524209 
L 258.428477 132.173989 
L 259.294017 158.034141 
L 260.159556 160.989506 
L 261.025096 154.817085 
L 262.756176 130.387348 
L 263.621715 124.547969 
L 264.487255 147.175624 
L 265.352795 141.134279 
L 266.218335 115.952628 
L 267.083874 156.414345 
L 267.949414 117.6164 
L 268.814954 129.811594 
L 269.680494 109.494897 
L 270.546033 115.766189 
L 271.411573 126.310996 
L 272.277113 121.971695 
L 273.142653 106.864442 
L 274.008192 77.587126 
L 274.873732 115.073262 
L 275.739272 104.086646 
L 276.604812 99.170269 
L 278.335891 145.635901 
L 279.201431 109.445679 
L 280.06697 112.268773 
L 280.93251 107.963348 
L 281.79805 130.602165 
L 282.66359 106.320465 
L 283.529129 92.368988 
L 284.394669 68.076794 
L 285.260209 98.238415 
L 286.125749 133.451091 
L 286.991288 121.550882 
L 287.856828 161.648829 
L 288.722368 155.172256 
L 289.587908 124.401654 
L 290.453447 139.06791 
L 291.318987 127.91637 
L 292.184527 145.90684 
L 293.050067 127.466384 
L 293.915606 121.730331 
L 294.781146 87.046778 
L 295.646686 83.137754 
L 296.512226 74.171849 
L 297.377765 76.863491 
L 298.243305 97.162452 
L 299.108845 122.694944 
L 299.974385 104.832259 
L 300.839924 63.695442 
L 301.705464 64.921977 
L 302.571004 75.931331 
L 303.436543 45.320749 
L 304.302083 87.991581 
L 305.167623 109.965349 
L 306.033163 113.786664 
L 306.898702 115.847333 
L 307.764242 75.615936 
L 308.629782 102.563926 
L 309.495322 52.167063 
L 310.360861 88.5152 
L 311.226401 78.728897 
L 312.091941 118.413463 
L 312.957481 150.308474 
L 313.82302 103.410142 
L 314.68856 84.844449 
L 315.5541 84.645786 
L 316.41964 131.977813 
L 317.285179 128.891712 
L 319.016259 67.276369 
L 319.881799 55.23804 
L 320.747338 78.080067 
L 321.612878 70.789777 
L 322.478418 36.83057 
L 323.343958 78.011808 
L 324.209497 51.471632 
L 325.075037 69.995502 
L 325.940577 58.974926 
L 325.940577 58.974926 
" clip-path="url(#p467aa905a4)" style="fill: none; stroke: #1e3d52; stroke-opacity: 0.85; stroke-width: 0.8; stroke-linecap: square"/>
   </g>
   <g id="line2d_15">
    <path d="M 67.144194 77.47316 
L 68.009734 80.766663 
L 68.875274 81.736253 
L 70.606353 84.430663 
L 71.471893 90.719831 
L 72.337433 90.415954 
L 73.202972 85.267296 
L 74.068512 85.101348 
L 74.934052 85.711328 
L 75.799592 85.99081 
L 76.665131 91.033085 
L 77.530671 94.725825 
L 79.261751 99.261998 
L 80.12729 97.168274 
L 80.99283 95.913923 
L 81.85837 95.90354 
L 82.723909 95.211723 
L 83.589449 97.488225 
L 84.454989 100.200936 
L 85.320529 101.90694 
L 86.186068 100.332463 
L 87.917148 107.768731 
L 88.782688 109.83107 
L 89.648227 109.870892 
L 90.513767 112.51406 
L 91.379307 112.2784 
L 92.244847 111.293789 
L 93.110386 108.943292 
L 93.975926 110.140678 
L 94.841466 113.266935 
L 95.707006 115.848287 
L 97.438085 121.889272 
L 98.303625 120.725849 
L 99.169165 118.498938 
L 100.034704 119.170713 
L 100.900244 116.207359 
L 101.765784 115.467147 
L 102.631324 118.477652 
L 103.496863 120.21534 
L 104.362403 119.680356 
L 105.227943 119.62246 
L 106.093482 118.948149 
L 106.959022 120.129673 
L 107.824562 117.935462 
L 108.690102 117.6749 
L 109.555641 116.488003 
L 110.421181 117.301263 
L 111.286721 118.641572 
L 112.152261 118.590104 
L 113.0178 119.688052 
L 113.88334 121.090308 
L 114.74888 119.471152 
L 115.61442 116.251661 
L 116.479959 120.195066 
L 117.345499 122.79324 
L 118.211039 118.751639 
L 119.076579 118.63483 
L 119.942118 118.827065 
L 120.807658 121.356389 
L 121.673198 122.002899 
L 122.538738 119.846836 
L 123.404277 118.680064 
L 124.269817 116.824313 
L 125.135357 121.590686 
L 126.000897 122.168988 
L 126.866436 120.608708 
L 127.731976 122.049033 
L 128.597516 120.752764 
L 129.463056 118.87504 
L 130.328595 115.64711 
L 131.194135 114.39967 
L 132.059675 114.462737 
L 132.925214 112.051301 
L 133.790754 114.482247 
L 134.656294 114.768463 
L 135.521834 115.975254 
L 136.387373 112.975805 
L 137.252913 113.844472 
L 138.118453 114.886706 
L 138.983993 117.394021 
L 139.849532 118.977844 
L 140.715072 121.418025 
L 141.580612 124.861676 
L 142.446152 122.992786 
L 143.311691 124.291133 
L 144.177231 121.655179 
L 145.042771 120.755046 
L 145.908311 124.716114 
L 146.77385 125.660662 
L 148.50493 119.142729 
L 149.37047 115.273069 
L 150.236009 115.559156 
L 151.101549 115.034372 
L 151.967089 117.314089 
L 152.832629 120.686401 
L 153.698168 124.537159 
L 155.429248 125.250481 
L 156.294787 125.203675 
L 157.160327 126.51151 
L 158.025867 125.421719 
L 158.891407 121.836396 
L 159.756946 124.089558 
L 160.622486 125.680009 
L 162.353566 126.829149 
L 163.219105 128.329191 
L 164.084645 127.531857 
L 164.950185 128.256487 
L 165.815725 129.958528 
L 166.681264 136.176838 
L 167.546804 140.46669 
L 168.412344 146.161616 
L 169.277884 151.027851 
L 170.143423 152.167183 
L 171.874503 156.384482 
L 172.740043 155.681586 
L 173.605582 152.091154 
L 174.471122 152.213556 
L 175.336662 151.938438 
L 176.202202 148.714927 
L 177.933281 155.700176 
L 178.798821 154.31613 
L 179.66436 156.618601 
L 180.5299 159.556201 
L 181.39544 158.13512 
L 182.26098 158.764146 
L 183.126519 158.116682 
L 184.857599 159.534361 
L 185.723139 161.223123 
L 186.588678 160.024852 
L 187.454218 156.941433 
L 188.319758 160.626734 
L 189.185298 158.5541 
L 190.050837 154.918532 
L 190.916377 146.893271 
L 191.781917 145.146354 
L 192.647457 144.944096 
L 193.512996 144.910984 
L 194.378536 144.032349 
L 196.109616 148.669973 
L 196.975155 150.460488 
L 197.840695 151.642612 
L 198.706235 153.206331 
L 199.571775 158.144038 
L 200.437314 161.120377 
L 201.302854 161.598797 
L 202.168394 164.142843 
L 203.033934 165.553814 
L 203.899473 167.348007 
L 204.765013 166.021873 
L 205.630553 159.968988 
L 206.496092 156.620773 
L 207.361632 155.307148 
L 208.227172 153.784966 
L 209.092712 153.738367 
L 209.958251 149.874637 
L 210.823791 143.959948 
L 211.689331 139.87223 
L 212.554871 140.135826 
L 213.42041 138.656169 
L 214.28595 138.154474 
L 215.15149 140.871992 
L 216.01703 142.090645 
L 216.882569 141.230776 
L 217.748109 140.092518 
L 218.613649 137.6839 
L 219.479189 137.312089 
L 220.344728 136.033114 
L 221.210268 135.483288 
L 222.075808 133.744709 
L 222.941348 131.702743 
L 223.806887 130.634493 
L 224.672427 128.596165 
L 226.403507 134.139711 
L 227.269046 133.739082 
L 228.134586 130.986448 
L 229.000126 127.231863 
L 229.865665 124.233146 
L 230.731205 123.348813 
L 231.596745 125.117915 
L 233.327824 131.408675 
L 234.193364 133.661024 
L 235.058904 131.979835 
L 235.924444 134.087405 
L 236.789983 134.772855 
L 237.655523 139.325952 
L 238.521063 135.820338 
L 239.386603 140.09398 
L 240.252142 138.089109 
L 241.117682 134.948632 
L 241.983222 133.774014 
L 242.848762 132.906864 
L 243.714301 133.084778 
L 244.579841 135.438599 
L 245.445381 133.374072 
L 246.310921 134.063977 
L 247.17646 136.862672 
L 248.042 138.465576 
L 248.90754 139.516454 
L 249.77308 136.305129 
L 250.638619 134.594735 
L 251.504159 130.866845 
L 252.369699 127.994893 
L 253.235239 128.565996 
L 254.100778 129.666667 
L 254.966318 128.058496 
L 255.831858 126.925493 
L 256.697397 125.238391 
L 257.562937 127.877894 
L 258.428477 126.256099 
L 259.294017 123.75438 
L 260.159556 120.361388 
L 261.025096 118.16678 
L 261.890636 120.048179 
L 262.756176 116.972399 
L 263.621715 116.166109 
L 264.487255 116.174 
L 265.352795 117.746045 
L 266.218335 118.776956 
L 267.083874 120.056596 
L 267.949414 117.538339 
L 268.814954 116.6422 
L 269.680494 117.240302 
L 270.546033 116.768123 
L 271.411573 117.283167 
L 272.277113 116.535708 
L 273.142653 116.051733 
L 274.008192 119.525752 
L 274.873732 120.861925 
L 275.739272 123.722383 
L 276.604812 125.739349 
L 277.470351 128.577016 
L 278.335891 128.085661 
L 279.201431 131.398192 
L 280.06697 130.96746 
L 280.93251 128.993911 
L 281.79805 134.611792 
L 282.66359 133.941481 
L 283.529129 130.541383 
L 284.394669 129.445422 
L 285.260209 133.223365 
L 286.125749 131.496451 
L 286.991288 129.49923 
L 287.856828 128.238938 
L 288.722368 129.055887 
L 289.587908 127.093625 
L 290.453447 124.352843 
L 291.318987 123.087145 
L 292.184527 119.529594 
L 293.050067 118.891327 
L 293.915606 119.153168 
L 294.781146 115.417308 
L 295.646686 113.700619 
L 296.512226 114.908733 
L 297.377765 112.083558 
L 298.243305 112.364394 
L 299.108845 109.376422 
L 299.974385 107.99094 
L 300.839924 110.159867 
L 301.705464 114.137748 
L 302.571004 115.314785 
L 303.436543 114.566994 
L 304.302083 114.669647 
L 305.167623 109.648231 
L 306.033163 110.314069 
L 306.898702 111.696793 
L 307.764242 114.304052 
L 308.629782 114.882504 
L 310.360861 118.260531 
L 311.226401 117.0101 
L 312.091941 119.736728 
L 312.957481 123.171198 
L 313.82302 122.070689 
L 314.68856 120.010138 
L 315.5541 121.605579 
L 316.41964 119.450433 
L 317.285179 122.478035 
L 318.150719 124.228851 
L 319.016259 127.420926 
L 319.881799 128.859228 
L 320.747338 132.377945 
L 321.612878 132.193515 
L 322.478418 131.74103 
L 323.343958 131.117546 
L 324.209497 130.907861 
L 325.075037 126.304168 
L 325.940577 125.433472 
L 325.940577 125.433472 
" clip-path="url(#p467aa905a4)" style="fill: none; stroke: #c34a22; stroke-opacity: 0.85; stroke-width: 0.8; stroke-linecap: square"/>
   </g>
   <g id="patch_3">
    <path d="M 54.204375 236.55775 
L 54.204375 22.27125 
" style="fill: none; stroke: #d8cfbc; stroke-width: 0.8; stroke-linejoin: miter; stroke-linecap: square"/>
   </g>
   <g id="patch_4">
    <path d="M 54.204375 236.55775 
L 338.880396 236.55775 
" style="fill: none; stroke: #d8cfbc; stroke-width: 0.8; stroke-linejoin: miter; stroke-linecap: square"/>
   </g>
   <g id="text_15">
    <text style="font-style: italic; font-size: 12px; font-family: 'Georgia', 'Times New Roman', 'DejaVu Serif', serif; text-anchor: start; fill: #221e17" x="54.204375" y="16.27125" transform="rotate(-0 54.204375 16.27125)">three rhythms</text>
   </g>
   <g id="legend_1">
    <g id="line2d_16">
     <path d="M 64.104375 188.02025 
L 75.104375 188.02025 
L 86.104375 188.02025 
" style="fill: none; stroke: #6f8b6a; stroke-opacity: 0.85; stroke-width: 0.8; stroke-linecap: square"/>
    </g>
    <g id="text_16">
     <text style="font-size: 11px; font-family: 'Georgia', 'Times New Roman', 'DejaVu Serif', serif; text-anchor: start; fill: #221e17" x="94.904375" y="191.87025" transform="rotate(-0 94.904375 191.87025)">white</text>
    </g>
    <g id="line2d_17">
     <path d="M 64.104375 204.221188 
L 75.104375 204.221188 
L 86.104375 204.221188 
" style="fill: none; stroke: #1e3d52; stroke-opacity: 0.85; stroke-width: 0.8; stroke-linecap: square"/>
    </g>
    <g id="text_17">
     <text style="font-size: 11px; font-family: 'Georgia', 'Times New Roman', 'DejaVu Serif', serif; text-anchor: start; fill: #221e17" x="94.904375" y="208.071188" transform="rotate(-0 94.904375 208.071188)">1/f</text>
    </g>
    <g id="line2d_18">
     <path d="M 64.104375 220.422125 
L 75.104375 220.422125 
L 86.104375 220.422125 
" style="fill: none; stroke: #c34a22; stroke-opacity: 0.85; stroke-width: 0.8; stroke-linecap: square"/>
    </g>
    <g id="text_18">
     <text style="font-size: 11px; font-family: 'Georgia', 'Times New Roman', 'DejaVu Serif', serif; text-anchor: start; fill: #221e17" x="94.904375" y="224.272125" transform="rotate(-0 94.904375 224.272125)">Brownian</text>
    </g>
   </g>
  </g>
  <g id="axes_2">
   <g id="patch_5">
    <path d="M 389.878354 236.55775 
L 674.554375 236.55775 
L 674.554375 22.27125 
L 389.878354 22.27125 
z
" style="fill: #f6f1e7"/>
   </g>
   <g id="matplotlib.axis_3">
    <g id="xtick_8">
     <g id="line2d_19">
      <g>
       <use xlink:href="#m815c4795bb" x="451.951495" y="236.55775" style="fill: #5c554a; stroke: #5c554a; stroke-width: 0.8"/>
      </g>
     </g>
     <g id="text_19">
      <!-- $\mathdefault{10^{1}}$ -->
      <g style="fill: #5c554a" transform="translate(444.361495 251.873063)">
       <text>
        <tspan x="0" y="-0.135938" style="font-size: 11px; font-family: 'Georgia'; fill: #5c554a">1</tspan>
        <tspan x="4.726562" y="-0.135938" style="font-size: 11px; font-family: 'Georgia'; fill: #5c554a">0</tspan>
        <tspan x="11.570723" y="-3.84375" style="font-size: 7.7px; font-family: 'Georgia'; fill: #5c554a">1</tspan>
       </text>
      </g>
     </g>
    </g>
    <g id="xtick_9">
     <g id="line2d_20">
      <g>
       <use xlink:href="#m815c4795bb" x="575.420663" y="236.55775" style="fill: #5c554a; stroke: #5c554a; stroke-width: 0.8"/>
      </g>
     </g>
     <g id="text_20">
      <!-- $\mathdefault{10^{2}}$ -->
      <g style="fill: #5c554a" transform="translate(567.335663 251.873063)">
       <text>
        <tspan x="0" y="-0.135938" style="font-size: 11px; font-family: 'Georgia'; fill: #5c554a">1</tspan>
        <tspan x="4.726562" y="-0.135938" style="font-size: 11px; font-family: 'Georgia'; fill: #5c554a">0</tspan>
        <tspan x="11.570723" y="-3.84375" style="font-size: 7.7px; font-family: 'Georgia'; fill: #5c554a">2</tspan>
       </text>
      </g>
     </g>
    </g>
    <g id="xtick_10">
     <g id="line2d_21">
      <defs>
       <path id="mf3c8549043" d="M 0 0 
L 0 2 
" style="stroke: #5c554a; stroke-width: 0.6"/>
      </defs>
      <g>
       <use xlink:href="#mf3c8549043" x="402.818173" y="236.55775" style="fill: #5c554a; stroke: #5c554a; stroke-width: 0.6"/>
      </g>
     </g>
    </g>
    <g id="xtick_11">
     <g id="line2d_22">
      <g>
       <use xlink:href="#mf3c8549043" x="414.783572" y="236.55775" style="fill: #5c554a; stroke: #5c554a; stroke-width: 0.6"/>
      </g>
     </g>
    </g>
    <g id="xtick_12">
     <g id="line2d_23">
      <g>
       <use xlink:href="#mf3c8549043" x="424.560014" y="236.55775" style="fill: #5c554a; stroke: #5c554a; stroke-width: 0.6"/>
      </g>
     </g>
    </g>
    <g id="xtick_13">
     <g id="line2d_24">
      <g>
       <use xlink:href="#mf3c8549043" x="432.825879" y="236.55775" style="fill: #5c554a; stroke: #5c554a; stroke-width: 0.6"/>
      </g>
     </g>
    </g>
    <g id="xtick_14">
     <g id="line2d_25">
      <g>
       <use xlink:href="#mf3c8549043" x="439.986096" y="236.55775" style="fill: #5c554a; stroke: #5c554a; stroke-width: 0.6"/>
      </g>
     </g>
    </g>
    <g id="xtick_15">
     <g id="line2d_26">
      <g>
       <use xlink:href="#mf3c8549043" x="446.301856" y="236.55775" style="fill: #5c554a; stroke: #5c554a; stroke-width: 0.6"/>
      </g>
     </g>
    </g>
    <g id="xtick_16">
     <g id="line2d_27">
      <g>
       <use xlink:href="#mf3c8549043" x="489.119418" y="236.55775" style="fill: #5c554a; stroke: #5c554a; stroke-width: 0.6"/>
      </g>
     </g>
    </g>
    <g id="xtick_17">
     <g id="line2d_28">
      <g>
       <use xlink:href="#mf3c8549043" x="510.861259" y="236.55775" style="fill: #5c554a; stroke: #5c554a; stroke-width: 0.6"/>
      </g>
     </g>
    </g>
    <g id="xtick_18">
     <g id="line2d_29">
      <g>
       <use xlink:href="#mf3c8549043" x="526.287341" y="236.55775" style="fill: #5c554a; stroke: #5c554a; stroke-width: 0.6"/>
      </g>
     </g>
    </g>
    <g id="xtick_19">
     <g id="line2d_30">
      <g>
       <use xlink:href="#mf3c8549043" x="538.25274" y="236.55775" style="fill: #5c554a; stroke: #5c554a; stroke-width: 0.6"/>
      </g>
     </g>
    </g>
    <g id="xtick_20">
     <g id="line2d_31">
      <g>
       <use xlink:href="#mf3c8549043" x="548.029182" y="236.55775" style="fill: #5c554a; stroke: #5c554a; stroke-width: 0.6"/>
      </g>
     </g>
    </g>
    <g id="xtick_21">
     <g id="line2d_32">
      <g>
       <use xlink:href="#mf3c8549043" x="556.295046" y="236.55775" style="fill: #5c554a; stroke: #5c554a; stroke-width: 0.6"/>
      </g>
     </g>
    </g>
    <g id="xtick_22">
     <g id="line2d_33">
      <g>
       <use xlink:href="#mf3c8549043" x="563.455264" y="236.55775" style="fill: #5c554a; stroke: #5c554a; stroke-width: 0.6"/>
      </g>
     </g>
    </g>
    <g id="xtick_23">
     <g id="line2d_34">
      <g>
       <use xlink:href="#mf3c8549043" x="569.771023" y="236.55775" style="fill: #5c554a; stroke: #5c554a; stroke-width: 0.6"/>
      </g>
     </g>
    </g>
    <g id="xtick_24">
     <g id="line2d_35">
      <g>
       <use xlink:href="#mf3c8549043" x="612.588586" y="236.55775" style="fill: #5c554a; stroke: #5c554a; stroke-width: 0.6"/>
      </g>
     </g>
    </g>
    <g id="xtick_25">
     <g id="line2d_36">
      <g>
       <use xlink:href="#mf3c8549043" x="634.330427" y="236.55775" style="fill: #5c554a; stroke: #5c554a; stroke-width: 0.6"/>
      </g>
     </g>
    </g>
    <g id="xtick_26">
     <g id="line2d_37">
      <g>
       <use xlink:href="#mf3c8549043" x="649.756509" y="236.55775" style="fill: #5c554a; stroke: #5c554a; stroke-width: 0.6"/>
      </g>
     </g>
    </g>
    <g id="xtick_27">
     <g id="line2d_38">
      <g>
       <use xlink:href="#mf3c8549043" x="661.721907" y="236.55775" style="fill: #5c554a; stroke: #5c554a; stroke-width: 0.6"/>
      </g>
     </g>
    </g>
    <g id="xtick_28">
     <g id="line2d_39">
      <g>
       <use xlink:href="#mf3c8549043" x="671.49835" y="236.55775" style="fill: #5c554a; stroke: #5c554a; stroke-width: 0.6"/>
      </g>
     </g>
    </g>
    <g id="text_21">
     <text style="font-size: 11px; font-family: 'Georgia', 'Times New Roman', 'DejaVu Serif', serif; text-anchor: middle; fill: #5c554a" x="532.216365" y="266.574" transform="rotate(-0 532.216365 266.574)">scale n (beats)</text>
    </g>
   </g>
   <g id="matplotlib.axis_4">
    <g id="ytick_6">
     <g id="line2d_40">
      <g>
       <use xlink:href="#m339a8c60a4" x="389.878354" y="232.309364" style="fill: #5c554a; stroke: #5c554a; stroke-width: 0.8"/>
      </g>
     </g>
     <g id="text_22">
      <!-- $\mathdefault{10^{0}}$ -->
      <g style="fill: #5c554a" transform="translate(366.268354 236.46702)">
       <text>
        <tspan x="0" y="-0.135938" style="font-size: 11px; font-family: 'Georgia'; fill: #5c554a">1</tspan>
        <tspan x="4.726562" y="-0.135938" style="font-size: 11px; font-family: 'Georgia'; fill: #5c554a">0</tspan>
        <tspan x="11.570723" y="-3.84375" style="font-size: 7.7px; font-family: 'Georgia'; fill: #5c554a">0</tspan>
       </text>
      </g>
     </g>
    </g>
    <g id="ytick_7">
     <g id="line2d_41">
      <g>
       <use xlink:href="#m339a8c60a4" x="389.878354" y="171.548791" style="fill: #5c554a; stroke: #5c554a; stroke-width: 0.8"/>
      </g>
     </g>
     <g id="text_23">
      <!-- $\mathdefault{10^{1}}$ -->
      <g style="fill: #5c554a" transform="translate(367.698354 175.706447)">
       <text>
        <tspan x="0" y="-0.135938" style="font-size: 11px; font-family: 'Georgia'; fill: #5c554a">1</tspan>
        <tspan x="4.726562" y="-0.135938" style="font-size: 11px; font-family: 'Georgia'; fill: #5c554a">0</tspan>
        <tspan x="11.570723" y="-3.84375" style="font-size: 7.7px; font-family: 'Georgia'; fill: #5c554a">1</tspan>
       </text>
      </g>
     </g>
    </g>
    <g id="ytick_8">
     <g id="line2d_42">
      <g>
       <use xlink:href="#m339a8c60a4" x="389.878354" y="110.788218" style="fill: #5c554a; stroke: #5c554a; stroke-width: 0.8"/>
      </g>
     </g>
     <g id="text_24">
      <!-- $\mathdefault{10^{2}}$ -->
      <g style="fill: #5c554a" transform="translate(366.708354 114.945874)">
       <text>
        <tspan x="0" y="-0.135938" style="font-size: 11px; font-family: 'Georgia'; fill: #5c554a">1</tspan>
        <tspan x="4.726562" y="-0.135938" style="font-size: 11px; font-family: 'Georgia'; fill: #5c554a">0</tspan>
        <tspan x="11.570723" y="-3.84375" style="font-size: 7.7px; font-family: 'Georgia'; fill: #5c554a">2</tspan>
       </text>
      </g>
     </g>
    </g>
    <g id="ytick_9">
     <g id="line2d_43">
      <g>
       <use xlink:href="#m339a8c60a4" x="389.878354" y="50.027645" style="fill: #5c554a; stroke: #5c554a; stroke-width: 0.8"/>
      </g>
     </g>
     <g id="text_25">
      <!-- $\mathdefault{10^{3}}$ -->
      <g style="fill: #5c554a" transform="translate(366.708354 54.185302)">
       <text>
        <tspan x="0" y="-0.135938" style="font-size: 11px; font-family: 'Georgia'; fill: #5c554a">1</tspan>
        <tspan x="4.726562" y="-0.135938" style="font-size: 11px; font-family: 'Georgia'; fill: #5c554a">0</tspan>
        <tspan x="11.570723" y="-3.84375" style="font-size: 7.7px; font-family: 'Georgia'; fill: #5c554a">3</tspan>
       </text>
      </g>
     </g>
    </g>
    <g id="ytick_10">
     <g id="line2d_44">
      <defs>
       <path id="m1f4c5c8cc2" d="M 0 0 
L -2 0 
" style="stroke: #5c554a; stroke-width: 0.6"/>
      </defs>
      <g>
       <use xlink:href="#m1f4c5c8cc2" x="389.878354" y="235.089615" style="fill: #5c554a; stroke: #5c554a; stroke-width: 0.6"/>
      </g>
     </g>
    </g>
    <g id="ytick_11">
     <g id="line2d_45">
      <g>
       <use xlink:href="#m1f4c5c8cc2" x="389.878354" y="214.018609" style="fill: #5c554a; stroke: #5c554a; stroke-width: 0.6"/>
      </g>
     </g>
    </g>
    <g id="ytick_12">
     <g id="line2d_46">
      <g>
       <use xlink:href="#m1f4c5c8cc2" x="389.878354" y="203.319203" style="fill: #5c554a; stroke: #5c554a; stroke-width: 0.6"/>
      </g>
     </g>
    </g>
    <g id="ytick_13">
     <g id="line2d_47">
      <g>
       <use xlink:href="#m1f4c5c8cc2" x="389.878354" y="195.727854" style="fill: #5c554a; stroke: #5c554a; stroke-width: 0.6"/>
      </g>
     </g>
    </g>
    <g id="ytick_14">
     <g id="line2d_48">
      <g>
       <use xlink:href="#m1f4c5c8cc2" x="389.878354" y="189.839546" style="fill: #5c554a; stroke: #5c554a; stroke-width: 0.6"/>
      </g>
     </g>
    </g>
    <g id="ytick_15">
     <g id="line2d_49">
      <g>
       <use xlink:href="#m1f4c5c8cc2" x="389.878354" y="185.028448" style="fill: #5c554a; stroke: #5c554a; stroke-width: 0.6"/>
      </g>
     </g>
    </g>
    <g id="ytick_16">
     <g id="line2d_50">
      <g>
       <use xlink:href="#m1f4c5c8cc2" x="389.878354" y="180.960723" style="fill: #5c554a; stroke: #5c554a; stroke-width: 0.6"/>
      </g>
     </g>
    </g>
    <g id="ytick_17">
     <g id="line2d_51">
      <g>
       <use xlink:href="#m1f4c5c8cc2" x="389.878354" y="177.437099" style="fill: #5c554a; stroke: #5c554a; stroke-width: 0.6"/>
      </g>
     </g>
    </g>
    <g id="ytick_18">
     <g id="line2d_52">
      <g>
       <use xlink:href="#m1f4c5c8cc2" x="389.878354" y="174.329042" style="fill: #5c554a; stroke: #5c554a; stroke-width: 0.6"/>
      </g>
     </g>
    </g>
    <g id="ytick_19">
     <g id="line2d_53">
      <g>
       <use xlink:href="#m1f4c5c8cc2" x="389.878354" y="153.258036" style="fill: #5c554a; stroke: #5c554a; stroke-width: 0.6"/>
      </g>
     </g>
    </g>
    <g id="ytick_20">
     <g id="line2d_54">
      <g>
       <use xlink:href="#m1f4c5c8cc2" x="389.878354" y="142.55863" style="fill: #5c554a; stroke: #5c554a; stroke-width: 0.6"/>
      </g>
     </g>
    </g>
    <g id="ytick_21">
     <g id="line2d_55">
      <g>
       <use xlink:href="#m1f4c5c8cc2" x="389.878354" y="134.967281" style="fill: #5c554a; stroke: #5c554a; stroke-width: 0.6"/>
      </g>
     </g>
    </g>
    <g id="ytick_22">
     <g id="line2d_56">
      <g>
       <use xlink:href="#m1f4c5c8cc2" x="389.878354" y="129.078973" style="fill: #5c554a; stroke: #5c554a; stroke-width: 0.6"/>
      </g>
     </g>
    </g>
    <g id="ytick_23">
     <g id="line2d_57">
      <g>
       <use xlink:href="#m1f4c5c8cc2" x="389.878354" y="124.267875" style="fill: #5c554a; stroke: #5c554a; stroke-width: 0.6"/>
      </g>
     </g>
    </g>
    <g id="ytick_24">
     <g id="line2d_58">
      <g>
       <use xlink:href="#m1f4c5c8cc2" x="389.878354" y="120.20015" style="fill: #5c554a; stroke: #5c554a; stroke-width: 0.6"/>
      </g>
     </g>
    </g>
    <g id="ytick_25">
     <g id="line2d_59">
      <g>
       <use xlink:href="#m1f4c5c8cc2" x="389.878354" y="116.676526" style="fill: #5c554a; stroke: #5c554a; stroke-width: 0.6"/>
      </g>
     </g>
    </g>
    <g id="ytick_26">
     <g id="line2d_60">
      <g>
       <use xlink:href="#m1f4c5c8cc2" x="389.878354" y="113.568469" style="fill: #5c554a; stroke: #5c554a; stroke-width: 0.6"/>
      </g>
     </g>
    </g>
    <g id="ytick_27">
     <g id="line2d_61">
      <g>
       <use xlink:href="#m1f4c5c8cc2" x="389.878354" y="92.497463" style="fill: #5c554a; stroke: #5c554a; stroke-width: 0.6"/>
      </g>
     </g>
    </g>
    <g id="ytick_28">
     <g id="line2d_62">
      <g>
       <use xlink:href="#m1f4c5c8cc2" x="389.878354" y="81.798057" style="fill: #5c554a; stroke: #5c554a; stroke-width: 0.6"/>
      </g>
     </g>
    </g>
    <g id="ytick_29">
     <g id="line2d_63">
      <g>
       <use xlink:href="#m1f4c5c8cc2" x="389.878354" y="74.206708" style="fill: #5c554a; stroke: #5c554a; stroke-width: 0.6"/>
      </g>
     </g>
    </g>
    <g id="ytick_30">
     <g id="line2d_64">
      <g>
       <use xlink:href="#m1f4c5c8cc2" x="389.878354" y="68.3184" style="fill: #5c554a; stroke: #5c554a; stroke-width: 0.6"/>
      </g>
     </g>
    </g>
    <g id="ytick_31">
     <g id="line2d_65">
      <g>
       <use xlink:href="#m1f4c5c8cc2" x="389.878354" y="63.507302" style="fill: #5c554a; stroke: #5c554a; stroke-width: 0.6"/>
      </g>
     </g>
    </g>
    <g id="ytick_32">
     <g id="line2d_66">
      <g>
       <use xlink:href="#m1f4c5c8cc2" x="389.878354" y="59.439577" style="fill: #5c554a; stroke: #5c554a; stroke-width: 0.6"/>
      </g>
     </g>
    </g>
    <g id="ytick_33">
     <g id="line2d_67">
      <g>
       <use xlink:href="#m1f4c5c8cc2" x="389.878354" y="55.915953" style="fill: #5c554a; stroke: #5c554a; stroke-width: 0.6"/>
      </g>
     </g>
    </g>
    <g id="ytick_34">
     <g id="line2d_68">
      <g>
       <use xlink:href="#m1f4c5c8cc2" x="389.878354" y="52.807897" style="fill: #5c554a; stroke: #5c554a; stroke-width: 0.6"/>
      </g>
     </g>
    </g>
    <g id="ytick_35">
     <g id="line2d_69">
      <g>
       <use xlink:href="#m1f4c5c8cc2" x="389.878354" y="31.73689" style="fill: #5c554a; stroke: #5c554a; stroke-width: 0.6"/>
      </g>
     </g>
    </g>
    <g id="text_26">
     <text style="font-size: 11px; font-family: 'Georgia', 'Times New Roman', 'DejaVu Serif', serif; text-anchor: middle; fill: #5c554a" x="359.882729" y="129.4145" transform="rotate(-90 359.882729 129.4145)">F(n)</text>
    </g>
   </g>
   <g id="line2d_70">
    <path d="M 402.818173 153.219153 
L 414.783572 148.894716 
L 424.560014 145.670694 
L 432.825879 143.038873 
L 451.951495 137.094757 
L 461.727937 135.377798 
L 473.693336 131.904039 
L 489.119418 128.121788 
L 501.084817 125.363343 
L 512.619514 122.489703 
L 524.92975 119.383216 
L 538.25274 115.600719 
L 550.645407 113.093229 
L 562.780765 110.565884 
L 575.420663 107.530376 
L 587.386061 102.36394 
L 599.948688 100.60159 
L 612.319803 98.133812 
L 624.553984 94.385355 
L 636.946652 91.410977 
L 649.352828 86.942497 
L 661.614556 87.455597 
" clip-path="url(#pb89a529fea)" style="fill: none; stroke: #6f8b6a; stroke-width: 1.5; stroke-linecap: square"/>
    <defs>
     <path id="m0f514ef94b" d="M 0 1.75 
C 0.464105 1.75 0.909265 1.565609 1.237437 1.237437 
C 1.565609 0.909265 1.75 0.464105 1.75 0 
C 1.75 -0.464105 1.565609 -0.909265 1.237437 -1.237437 
C 0.909265 -1.565609 0.464105 -1.75 0 -1.75 
C -0.464105 -1.75 -0.909265 -1.565609 -1.237437 -1.237437 
C -1.565609 -0.909265 -1.75 -0.464105 -1.75 0 
C -1.75 0.464105 -1.565609 0.909265 -1.237437 1.237437 
C -0.909265 1.565609 -0.464105 1.75 0 1.75 
z
" style="stroke: #6f8b6a"/>
    </defs>
    <g clip-path="url(#pb89a529fea)">
     <use xlink:href="#m0f514ef94b" x="402.818173" y="153.219153" style="fill: #6f8b6a; stroke: #6f8b6a"/>
     <use xlink:href="#m0f514ef94b" x="414.783572" y="148.894716" style="fill: #6f8b6a; stroke: #6f8b6a"/>
     <use xlink:href="#m0f514ef94b" x="424.560014" y="145.670694" style="fill: #6f8b6a; stroke: #6f8b6a"/>
     <use xlink:href="#m0f514ef94b" x="432.825879" y="143.038873" style="fill: #6f8b6a; stroke: #6f8b6a"/>
     <use xlink:href="#m0f514ef94b" x="451.951495" y="137.094757" style="fill: #6f8b6a; stroke: #6f8b6a"/>
     <use xlink:href="#m0f514ef94b" x="461.727937" y="135.377798" style="fill: #6f8b6a; stroke: #6f8b6a"/>
     <use xlink:href="#m0f514ef94b" x="473.693336" y="131.904039" style="fill: #6f8b6a; stroke: #6f8b6a"/>
     <use xlink:href="#m0f514ef94b" x="489.119418" y="128.121788" style="fill: #6f8b6a; stroke: #6f8b6a"/>
     <use xlink:href="#m0f514ef94b" x="501.084817" y="125.363343" style="fill: #6f8b6a; stroke: #6f8b6a"/>
     <use xlink:href="#m0f514ef94b" x="512.619514" y="122.489703" style="fill: #6f8b6a; stroke: #6f8b6a"/>
     <use xlink:href="#m0f514ef94b" x="524.92975" y="119.383216" style="fill: #6f8b6a; stroke: #6f8b6a"/>
     <use xlink:href="#m0f514ef94b" x="538.25274" y="115.600719" style="fill: #6f8b6a; stroke: #6f8b6a"/>
     <use xlink:href="#m0f514ef94b" x="550.645407" y="113.093229" style="fill: #6f8b6a; stroke: #6f8b6a"/>
     <use xlink:href="#m0f514ef94b" x="562.780765" y="110.565884" style="fill: #6f8b6a; stroke: #6f8b6a"/>
     <use xlink:href="#m0f514ef94b" x="575.420663" y="107.530376" style="fill: #6f8b6a; stroke: #6f8b6a"/>
     <use xlink:href="#m0f514ef94b" x="587.386061" y="102.36394" style="fill: #6f8b6a; stroke: #6f8b6a"/>
     <use xlink:href="#m0f514ef94b" x="599.948688" y="100.60159" style="fill: #6f8b6a; stroke: #6f8b6a"/>
     <use xlink:href="#m0f514ef94b" x="612.319803" y="98.133812" style="fill: #6f8b6a; stroke: #6f8b6a"/>
     <use xlink:href="#m0f514ef94b" x="624.553984" y="94.385355" style="fill: #6f8b6a; stroke: #6f8b6a"/>
     <use xlink:href="#m0f514ef94b" x="636.946652" y="91.410977" style="fill: #6f8b6a; stroke: #6f8b6a"/>
     <use xlink:href="#m0f514ef94b" x="649.352828" y="86.942497" style="fill: #6f8b6a; stroke: #6f8b6a"/>
     <use xlink:href="#m0f514ef94b" x="661.614556" y="87.455597" style="fill: #6f8b6a; stroke: #6f8b6a"/>
    </g>
   </g>
   <g id="line2d_71">
    <path d="M 402.818173 171.006147 
L 414.783572 163.077483 
L 424.560014 157.903588 
L 432.825879 154.03555 
L 451.951495 145.307442 
L 461.727937 140.002936 
L 473.693336 134.012121 
L 489.119418 127.388156 
L 501.084817 121.383439 
L 512.619514 115.551791 
L 524.92975 108.617348 
L 538.25274 102.093614 
L 550.645407 95.728546 
L 562.780765 90.596159 
L 575.420663 85.212935 
L 587.386061 79.420943 
L 599.948688 72.560032 
L 612.319803 66.162213 
L 624.553984 57.850473 
L 636.946652 52.211525 
L 649.352828 49.939825 
L 661.614556 42.58549 
" clip-path="url(#pb89a529fea)" style="fill: none; stroke: #1e3d52; stroke-width: 1.5; stroke-linecap: square"/>
    <defs>
     <path id="m66dcfd3917" d="M 0 1.75 
C 0.464105 1.75 0.909265 1.565609 1.237437 1.237437 
C 1.565609 0.909265 1.75 0.464105 1.75 0 
C 1.75 -0.464105 1.565609 -0.909265 1.237437 -1.237437 
C 0.909265 -1.565609 0.464105 -1.75 0 -1.75 
C -0.464105 -1.75 -0.909265 -1.565609 -1.237437 -1.237437 
C -1.565609 -0.909265 -1.75 -0.464105 -1.75 0 
C -1.75 0.464105 -1.565609 0.909265 -1.237437 1.237437 
C -0.909265 1.565609 -0.464105 1.75 0 1.75 
z
" style="stroke: #1e3d52"/>
    </defs>
    <g clip-path="url(#pb89a529fea)">
     <use xlink:href="#m66dcfd3917" x="402.818173" y="171.006147" style="fill: #1e3d52; stroke: #1e3d52"/>
     <use xlink:href="#m66dcfd3917" x="414.783572" y="163.077483" style="fill: #1e3d52; stroke: #1e3d52"/>
     <use xlink:href="#m66dcfd3917" x="424.560014" y="157.903588" style="fill: #1e3d52; stroke: #1e3d52"/>
     <use xlink:href="#m66dcfd3917" x="432.825879" y="154.03555" style="fill: #1e3d52; stroke: #1e3d52"/>
     <use xlink:href="#m66dcfd3917" x="451.951495" y="145.307442" style="fill: #1e3d52; stroke: #1e3d52"/>
     <use xlink:href="#m66dcfd3917" x="461.727937" y="140.002936" style="fill: #1e3d52; stroke: #1e3d52"/>
     <use xlink:href="#m66dcfd3917" x="473.693336" y="134.012121" style="fill: #1e3d52; stroke: #1e3d52"/>
     <use xlink:href="#m66dcfd3917" x="489.119418" y="127.388156" style="fill: #1e3d52; stroke: #1e3d52"/>
     <use xlink:href="#m66dcfd3917" x="501.084817" y="121.383439" style="fill: #1e3d52; stroke: #1e3d52"/>
     <use xlink:href="#m66dcfd3917" x="512.619514" y="115.551791" style="fill: #1e3d52; stroke: #1e3d52"/>
     <use xlink:href="#m66dcfd3917" x="524.92975" y="108.617348" style="fill: #1e3d52; stroke: #1e3d52"/>
     <use xlink:href="#m66dcfd3917" x="538.25274" y="102.093614" style="fill: #1e3d52; stroke: #1e3d52"/>
     <use xlink:href="#m66dcfd3917" x="550.645407" y="95.728546" style="fill: #1e3d52; stroke: #1e3d52"/>
     <use xlink:href="#m66dcfd3917" x="562.780765" y="90.596159" style="fill: #1e3d52; stroke: #1e3d52"/>
     <use xlink:href="#m66dcfd3917" x="575.420663" y="85.212935" style="fill: #1e3d52; stroke: #1e3d52"/>
     <use xlink:href="#m66dcfd3917" x="587.386061" y="79.420943" style="fill: #1e3d52; stroke: #1e3d52"/>
     <use xlink:href="#m66dcfd3917" x="599.948688" y="72.560032" style="fill: #1e3d52; stroke: #1e3d52"/>
     <use xlink:href="#m66dcfd3917" x="612.319803" y="66.162213" style="fill: #1e3d52; stroke: #1e3d52"/>
     <use xlink:href="#m66dcfd3917" x="624.553984" y="57.850473" style="fill: #1e3d52; stroke: #1e3d52"/>
     <use xlink:href="#m66dcfd3917" x="636.946652" y="52.211525" style="fill: #1e3d52; stroke: #1e3d52"/>
     <use xlink:href="#m66dcfd3917" x="649.352828" y="49.939825" style="fill: #1e3d52; stroke: #1e3d52"/>
     <use xlink:href="#m66dcfd3917" x="661.614556" y="42.58549" style="fill: #1e3d52; stroke: #1e3d52"/>
    </g>
   </g>
   <g id="line2d_72">
    <path d="M 402.818173 226.817455 
L 414.783572 216.466972 
L 424.560014 208.475402 
L 432.825879 202.873273 
L 451.951495 188.825783 
L 461.727937 181.416202 
L 473.693336 171.510656 
L 489.119418 161.131415 
L 501.084817 151.381459 
L 512.619514 143.519736 
L 524.92975 134.318435 
L 538.25274 123.882209 
L 550.645407 114.85799 
L 562.780765 105.82286 
L 575.420663 96.235743 
L 587.386061 93.719571 
L 599.948688 77.391938 
L 612.319803 69.849927 
L 624.553984 62.733957 
L 636.946652 52.521151 
L 649.352828 49.687021 
L 661.614556 32.011545 
" clip-path="url(#pb89a529fea)" style="fill: none; stroke: #c34a22; stroke-width: 1.5; stroke-linecap: square"/>
    <defs>
     <path id="md24d47a310" d="M 0 1.75 
C 0.464105 1.75 0.909265 1.565609 1.237437 1.237437 
C 1.565609 0.909265 1.75 0.464105 1.75 0 
C 1.75 -0.464105 1.565609 -0.909265 1.237437 -1.237437 
C 0.909265 -1.565609 0.464105 -1.75 0 -1.75 
C -0.464105 -1.75 -0.909265 -1.565609 -1.237437 -1.237437 
C -1.565609 -0.909265 -1.75 -0.464105 -1.75 0 
C -1.75 0.464105 -1.565609 0.909265 -1.237437 1.237437 
C -0.909265 1.565609 -0.464105 1.75 0 1.75 
z
" style="stroke: #c34a22"/>
    </defs>
    <g clip-path="url(#pb89a529fea)">
     <use xlink:href="#md24d47a310" x="402.818173" y="226.817455" style="fill: #c34a22; stroke: #c34a22"/>
     <use xlink:href="#md24d47a310" x="414.783572" y="216.466972" style="fill: #c34a22; stroke: #c34a22"/>
     <use xlink:href="#md24d47a310" x="424.560014" y="208.475402" style="fill: #c34a22; stroke: #c34a22"/>
     <use xlink:href="#md24d47a310" x="432.825879" y="202.873273" style="fill: #c34a22; stroke: #c34a22"/>
     <use xlink:href="#md24d47a310" x="451.951495" y="188.825783" style="fill: #c34a22; stroke: #c34a22"/>
     <use xlink:href="#md24d47a310" x="461.727937" y="181.416202" style="fill: #c34a22; stroke: #c34a22"/>
     <use xlink:href="#md24d47a310" x="473.693336" y="171.510656" style="fill: #c34a22; stroke: #c34a22"/>
     <use xlink:href="#md24d47a310" x="489.119418" y="161.131415" style="fill: #c34a22; stroke: #c34a22"/>
     <use xlink:href="#md24d47a310" x="501.084817" y="151.381459" style="fill: #c34a22; stroke: #c34a22"/>
     <use xlink:href="#md24d47a310" x="512.619514" y="143.519736" style="fill: #c34a22; stroke: #c34a22"/>
     <use xlink:href="#md24d47a310" x="524.92975" y="134.318435" style="fill: #c34a22; stroke: #c34a22"/>
     <use xlink:href="#md24d47a310" x="538.25274" y="123.882209" style="fill: #c34a22; stroke: #c34a22"/>
     <use xlink:href="#md24d47a310" x="550.645407" y="114.85799" style="fill: #c34a22; stroke: #c34a22"/>
     <use xlink:href="#md24d47a310" x="562.780765" y="105.82286" style="fill: #c34a22; stroke: #c34a22"/>
     <use xlink:href="#md24d47a310" x="575.420663" y="96.235743" style="fill: #c34a22; stroke: #c34a22"/>
     <use xlink:href="#md24d47a310" x="587.386061" y="93.719571" style="fill: #c34a22; stroke: #c34a22"/>
     <use xlink:href="#md24d47a310" x="599.948688" y="77.391938" style="fill: #c34a22; stroke: #c34a22"/>
     <use xlink:href="#md24d47a310" x="612.319803" y="69.849927" style="fill: #c34a22; stroke: #c34a22"/>
     <use xlink:href="#md24d47a310" x="624.553984" y="62.733957" style="fill: #c34a22; stroke: #c34a22"/>
     <use xlink:href="#md24d47a310" x="636.946652" y="52.521151" style="fill: #c34a22; stroke: #c34a22"/>
     <use xlink:href="#md24d47a310" x="649.352828" y="49.687021" style="fill: #c34a22; stroke: #c34a22"/>
     <use xlink:href="#md24d47a310" x="661.614556" y="32.011545" style="fill: #c34a22; stroke: #c34a22"/>
    </g>
   </g>
   <g id="patch_6">
    <path d="M 389.878354 236.55775 
L 389.878354 22.27125 
" style="fill: none; stroke: #d8cfbc; stroke-width: 0.8; stroke-linejoin: miter; stroke-linecap: square"/>
   </g>
   <g id="patch_7">
    <path d="M 389.878354 236.55775 
L 674.554375 236.55775 
" style="fill: none; stroke: #d8cfbc; stroke-width: 0.8; stroke-linejoin: miter; stroke-linecap: square"/>
   </g>
   <g id="text_27">
    <text style="font-style: italic; font-size: 12px; font-family: 'Georgia', 'Times New Roman', 'DejaVu Serif', serif; text-anchor: start; fill: #221e17" x="389.878354" y="16.27125" transform="rotate(-0 389.878354 16.27125)">DFA: slope = scaling exponent α</text>
   </g>
   <g id="legend_2">
    <g id="line2d_73">
     <path d="M 399.778354 36.636563 
L 410.778354 36.636563 
L 421.778354 36.636563 
" style="fill: none; stroke: #6f8b6a; stroke-width: 1.5; stroke-linecap: square"/>
     <g>
      <use xlink:href="#m0f514ef94b" x="410.778354" y="36.636563" style="fill: #6f8b6a; stroke: #6f8b6a"/>
     </g>
    </g>
    <g id="text_28">
     <text style="font-size: 11px; font-family: 'Georgia', 'Times New Roman', 'DejaVu Serif', serif; text-anchor: start; fill: #221e17" x="430.578354" y="40.486563" transform="rotate(-0 430.578354 40.486563)">white: α₁=0.59</text>
    </g>
    <g id="line2d_74">
     <path d="M 399.778354 52.8375 
L 410.778354 52.8375 
L 421.778354 52.8375 
" style="fill: none; stroke: #1e3d52; stroke-width: 1.5; stroke-linecap: square"/>
     <g>
      <use xlink:href="#m66dcfd3917" x="410.778354" y="52.8375" style="fill: #1e3d52; stroke: #1e3d52"/>
     </g>
    </g>
    <g id="text_29">
     <text style="font-size: 11px; font-family: 'Georgia', 'Times New Roman', 'DejaVu Serif', serif; text-anchor: start; fill: #221e17" x="430.578354" y="56.6875" transform="rotate(-0 430.578354 56.6875)">1/f: α₁=1.03</text>
    </g>
    <g id="line2d_75">
     <path d="M 399.778354 69.038438 
L 410.778354 69.038438 
L 421.778354 69.038438 
" style="fill: none; stroke: #c34a22; stroke-width: 1.5; stroke-linecap: square"/>
     <g>
      <use xlink:href="#md24d47a310" x="410.778354" y="69.038438" style="fill: #c34a22; stroke: #c34a22"/>
     </g>
    </g>
    <g id="text_30">
     <text style="font-size: 11px; font-family: 'Georgia', 'Times New Roman', 'DejaVu Serif', serif; text-anchor: start; fill: #221e17" x="430.578354" y="72.888438" transform="rotate(-0 430.578354 72.888438)">Brownian: α₁=1.54</text>
    </g>
   </g>
  </g>
 </g>
 <defs>
  <clipPath id="p467aa905a4">
   <rect x="54.204375" y="22.27125" width="284.676021" height="214.2865"/>
  </clipPath>
  <clipPath id="pb89a529fea">
   <rect x="389.878354" y="22.27125" width="284.676021" height="214.2865"/>
  </clipPath>
 </defs>
</svg>
