<?xml version="1.0" encoding="utf-8" standalone="no"?>
<!DOCTYPE svg PUBLIC "-//W3C//DTD SVG 1.1//EN"
  "http://www.w3.org/Graphics/SVG/1.1/DTD/svg11.dtd">
<svg xmlns:xlink="http://www.w3.org/1999/xlink" width="681.754375pt" height="277.168375pt" viewBox="0 0 681.754375 277.168375" xmlns="http://www.w3.org/2000/svg" version="1.1">
 <metadata>
  <rdf:RDF xmlns:dc="http://purl.org/dc/elements/1.1/" xmlns:cc="http://creativecommons.org/ns#" xmlns:rdf="http://www.w3.org/1999/02/22-rdf-syntax-ns#">
   <cc:Work>
    <dc:type rdf:resource="http://purl.org/dc/dcmitype/StillImage"/>
    <dc:date>2026-06-12T09:57:36.901839</dc:date>
    <dc:format>image/svg+xml</dc:format>
    <dc:creator>
     <cc:Agent>
      <dc:title>Matplotlib v3.10.8, https://matplotlib.org/</dc:title>
     </cc:Agent>
    </dc:creator>
   </cc:Work>
  </rdf:RDF>
 </metadata>
 <defs>
  <style type="text/css">*{stroke-linejoin: round; stroke-linecap: butt}</style>
 </defs>
 <g id="figure_1">
  <g id="patch_1">
   <path d="M 0 277.168375 
L 681.754375 277.168375 
L 681.754375 0 
L 0 0 
z
" style="fill: #f6f1e7"/>
  </g>
  <g id="axes_1">
   <g id="patch_2">
    <path d="M 54.204375 237.5665 
L 338.880396 237.5665 
L 338.880396 7.2 
L 54.204375 7.2 
z
" style="fill: #f6f1e7"/>
   </g>
   <g id="matplotlib.axis_1">
    <g id="xtick_1">
     <g id="line2d_1">
      <defs>
       <path id="mfbec14799e" d="M 0 0 
L 0 3.5 
" style="stroke: #5c554a; stroke-width: 0.8"/>
      </defs>
      <g>
       <use xlink:href="#mfbec14799e" x="67.144194" y="237.5665" style="fill: #5c554a; stroke: #5c554a; stroke-width: 0.8"/>
      </g>
     </g>
     <g id="text_1">
      <text style="font-size: 11px; font-family: 'Georgia', 'Times New Roman', 'DejaVu Serif', serif; text-anchor: middle; fill: #5c554a" x="67.144194" y="252.881813" transform="rotate(-0 67.144194 252.881813)">0</text>
     </g>
    </g>
    <g id="xtick_2">
     <g id="line2d_2">
      <g>
       <use xlink:href="#mfbec14799e" x="110.421181" y="237.5665" style="fill: #5c554a; stroke: #5c554a; stroke-width: 0.8"/>
      </g>
     </g>
     <g id="text_2">
      <text style="font-size: 11px; font-family: 'Georgia', 'Times New Roman', 'DejaVu Serif', serif; text-anchor: middle; fill: #5c554a" x="110.421181" y="252.881813" transform="rotate(-0 110.421181 252.881813)">50</text>
     </g>
    </g>
    <g id="xtick_3">
     <g id="line2d_3">
      <g>
       <use xlink:href="#mfbec14799e" x="153.698168" y="237.5665" style="fill: #5c554a; stroke: #5c554a; stroke-width: 0.8"/>
      </g>
     </g>
     <g id="text_3">
      <text style="font-size: 11px; font-family: 'Georgia', 'Times New Roman', 'DejaVu Serif', serif; text-anchor: middle; fill: #5c554a" x="153.698168" y="252.881813" transform="rotate(-0 153.698168 252.881813)">100</text>
     </g>
    </g>
    <g id="xtick_4">
     <g id="line2d_4">
      <g>
       <use xlink:href="#mfbec14799e" x="196.975155" y="237.5665" style="fill: #5c554a; stroke: #5c554a; stroke-width: 0.8"/>
      </g>
     </g>
     <g id="text_4">
      <text style="font-size: 11px; font-family: 'Georgia', 'Times New Roman', 'DejaVu Serif', serif; text-anchor: middle; fill: #5c554a" x="196.975155" y="252.881813" transform="rotate(-0 196.975155 252.881813)">150</text>
     </g>
    </g>
    <g id="xtick_5">
     <g id="line2d_5">
      <g>
       <use xlink:href="#mfbec14799e" x="240.252142" y="237.5665" style="fill: #5c554a; stroke: #5c554a; stroke-width: 0.8"/>
      </g>
     </g>
     <g id="text_5">
      <text style="font-size: 11px; font-family: 'Georgia', 'Times New Roman', 'DejaVu Serif', serif; text-anchor: middle; fill: #5c554a" x="240.252142" y="252.881813" transform="rotate(-0 240.252142 252.881813)">200</text>
     </g>
    </g>
    <g id="xtick_6">
     <g id="line2d_6">
      <g>
       <use xlink:href="#mfbec14799e" x="283.529129" y="237.5665" style="fill: #5c554a; stroke: #5c554a; stroke-width: 0.8"/>
      </g>
     </g>
     <g id="text_6">
      <text style="font-size: 11px; font-family: 'Georgia', 'Times New Roman', 'DejaVu Serif', serif; text-anchor: middle; fill: #5c554a" x="283.529129" y="252.881813" transform="rotate(-0 283.529129 252.881813)">250</text>
     </g>
    </g>
    <g id="xtick_7">
     <g id="line2d_7">
      <g>
       <use xlink:href="#mfbec14799e" x="326.806117" y="237.5665" style="fill: #5c554a; stroke: #5c554a; stroke-width: 0.8"/>
      </g>
     </g>
     <g id="text_7">
      <text style="font-size: 11px; font-family: 'Georgia', 'Times New Roman', 'DejaVu Serif', serif; text-anchor: middle; fill: #5c554a" x="326.806117" y="252.881813" transform="rotate(-0 326.806117 252.881813)">300</text>
     </g>
    </g>
    <g id="text_8">
     <text style="font-size: 11px; font-family: 'Georgia', 'Times New Roman', 'DejaVu Serif', serif; text-anchor: middle; fill: #5c554a" x="196.542385" y="267.58275" transform="rotate(-0 196.542385 267.58275)">beat #</text>
    </g>
   </g>
   <g id="matplotlib.axis_2">
    <g id="ytick_1">
     <g id="line2d_8">
      <defs>
       <path id="m8d291d980e" d="M 0 0 
L -3.5 0 
" style="stroke: #5c554a; stroke-width: 0.8"/>
      </defs>
      <g>
       <use xlink:href="#m8d291d980e" x="54.204375" y="201.127817" style="fill: #5c554a; stroke: #5c554a; stroke-width: 0.8"/>
      </g>
     </g>
     <g id="text_9">
      <text style="font-size: 11px; font-family: 'Georgia', 'Times New Roman', 'DejaVu Serif', serif; text-anchor: end; fill: #5c554a" x="47.204375" y="205.285473" transform="rotate(-0 47.204375 205.285473)">−100</text>
     </g>
    </g>
    <g id="ytick_2">
     <g id="line2d_9">
      <g>
       <use xlink:href="#m8d291d980e" x="54.204375" y="160.049336" style="fill: #5c554a; stroke: #5c554a; stroke-width: 0.8"/>
      </g>
     </g>
     <g id="text_10">
      <text style="font-size: 11px; font-family: 'Georgia', 'Times New Roman', 'DejaVu Serif', serif; text-anchor: end; fill: #5c554a" x="47.204375" y="164.206993" transform="rotate(-0 47.204375 164.206993)">−50</text>
     </g>
    </g>
    <g id="ytick_3">
     <g id="line2d_10">
      <g>
       <use xlink:href="#m8d291d980e" x="54.204375" y="118.970856" style="fill: #5c554a; stroke: #5c554a; stroke-width: 0.8"/>
      </g>
     </g>
     <g id="text_11">
      <text style="font-size: 11px; font-family: 'Georgia', 'Times New Roman', 'DejaVu Serif', serif; text-anchor: end; fill: #5c554a" x="47.204375" y="123.128512" transform="rotate(-0 47.204375 123.128512)">0</text>
     </g>
    </g>
    <g id="ytick_4">
     <g id="line2d_11">
      <g>
       <use xlink:href="#m8d291d980e" x="54.204375" y="77.892376" style="fill: #5c554a; stroke: #5c554a; stroke-width: 0.8"/>
      </g>
     </g>
     <g id="text_12">
      <text style="font-size: 11px; font-family: 'Georgia', 'Times New Roman', 'DejaVu Serif', serif; text-anchor: end; fill: #5c554a" x="47.204375" y="82.050032" transform="rotate(-0 47.204375 82.050032)">50</text>
     </g>
    </g>
    <g id="ytick_5">
     <g id="line2d_12">
      <g>
       <use xlink:href="#m8d291d980e" x="54.204375" y="36.813895" style="fill: #5c554a; stroke: #5c554a; stroke-width: 0.8"/>
      </g>
     </g>
     <g id="text_13">
      <text style="font-size: 11px; font-family: 'Georgia', 'Times New Roman', 'DejaVu Serif', serif; text-anchor: end; fill: #5c554a" x="47.204375" y="40.971551" transform="rotate(-0 47.204375 40.971551)">100</text>
     </g>
    </g>
    <g id="text_14">
     <text style="font-size: 11px; font-family: 'Georgia', 'Times New Roman', 'DejaVu Serif', serif; text-anchor: middle; fill: #5c554a" x="15.515313" y="122.38325" transform="rotate(-90 15.515313 122.38325)">RR − mean (ms)</text>
    </g>
   </g>
   <g id="line2d_13">
    <path d="M 67.144194 179.773751 
L 68.009734 117.687036 
L 68.875274 157.084628 
L 69.740813 145.765205 
L 70.606353 75.320095 
L 71.471893 73.618501 
L 72.337433 99.645709 
L 73.202972 110.826859 
L 74.068512 62.76017 
L 74.934052 184.434064 
L 75.799592 59.97355 
L 76.665131 54.762162 
L 77.530671 86.980928 
L 78.396211 131.781629 
L 79.261751 31.458246 
L 80.12729 70.873223 
L 80.99283 135.074212 
L 81.85837 142.779202 
L 82.723909 166.794001 
L 83.589449 119.062977 
L 84.454989 85.598288 
L 85.320529 182.674593 
L 86.186068 125.000127 
L 87.051608 88.134807 
L 87.917148 85.637455 
L 88.782688 43.956839 
L 89.648227 87.929227 
L 90.513767 117.768106 
L 91.379307 83.458636 
L 92.244847 113.087648 
L 93.110386 64.760485 
L 93.975926 144.735237 
L 94.841466 94.89337 
L 95.707006 143.137039 
L 96.572545 136.588223 
L 97.438085 134.760347 
L 98.303625 155.53886 
L 99.169165 107.998359 
L 100.034704 152.982352 
L 100.900244 159.180621 
L 101.765784 96.892464 
L 102.631324 78.772684 
L 103.496863 136.12507 
L 104.362403 73.570845 
L 105.227943 132.607105 
L 106.093482 131.274048 
L 106.959022 171.645287 
L 109.555641 92.717496 
L 110.421181 92.604736 
L 111.286721 54.159557 
L 112.152261 135.163709 
L 113.0178 128.415188 
L 113.88334 52.111128 
L 114.74888 76.786241 
L 115.61442 180.803561 
L 116.479959 117.081191 
L 117.345499 86.174472 
L 118.211039 147.788415 
L 119.076579 140.986784 
L 119.942118 108.676813 
L 120.807658 104.402236 
L 121.673198 91.925534 
L 122.538738 126.999732 
L 123.404277 135.645287 
L 124.269817 121.255745 
L 125.135357 74.247685 
L 126.000897 98.436788 
L 126.866436 133.986604 
L 127.731976 108.415875 
L 128.597516 130.710305 
L 129.463056 135.314153 
L 130.328595 150.761048 
L 131.194135 135.822071 
L 132.059675 59.186023 
L 132.925214 74.452579 
L 133.790754 95.40205 
L 134.656294 109.958769 
L 135.521834 156.878497 
L 136.387373 79.049437 
L 137.252913 173.250113 
L 138.118453 156.305731 
L 138.983993 118.321923 
L 139.849532 157.28152 
L 140.715072 157.863722 
L 141.580612 90.952814 
L 142.446152 102.278727 
L 143.311691 132.165819 
L 144.177231 137.572724 
L 145.042771 59.6529 
L 145.908311 136.101321 
L 146.77385 42.351829 
L 147.63939 127.820815 
L 148.50493 80.424753 
L 149.37047 98.810459 
L 150.236009 110.393268 
L 151.101549 74.858967 
L 151.967089 129.459578 
L 152.832629 104.109417 
L 153.698168 185.96311 
L 154.563708 48.660835 
L 155.429248 193.508859 
L 156.294787 107.612831 
L 157.160327 107.916431 
L 158.025867 153.468548 
L 158.891407 108.680868 
L 159.756946 75.539549 
L 160.622486 164.528534 
L 161.488026 129.219228 
L 162.353566 80.982601 
L 163.219105 167.458971 
L 164.084645 169.212551 
L 164.950185 176.706017 
L 165.815725 132.958889 
L 166.681264 111.438151 
L 167.546804 99.002207 
L 168.412344 164.955236 
L 169.277884 60.130821 
L 170.143423 76.080528 
L 171.874503 167.528532 
L 172.740043 136.275898 
L 173.605582 158.310185 
L 174.471122 99.259299 
L 175.336662 155.98806 
L 176.202202 147.76915 
L 177.067741 131.035197 
L 177.933281 94.504598 
L 178.798821 67.960455 
L 179.66436 100.94087 
L 180.5299 164.158987 
L 181.39544 63.539516 
L 182.26098 132.474321 
L 183.126519 88.095033 
L 183.992059 96.611289 
L 184.857599 176.681128 
L 185.723139 114.067337 
L 187.454218 173.315439 
L 188.319758 116.62384 
L 189.185298 116.728845 
L 190.050837 166.560702 
L 190.916377 178.76364 
L 191.781917 128.910635 
L 192.647457 123.331542 
L 193.512996 115.657563 
L 194.378536 116.259647 
L 195.244076 137.756744 
L 196.109616 105.245618 
L 196.975155 124.16977 
L 197.840695 134.434332 
L 198.706235 97.464091 
L 199.571775 81.897362 
L 200.437314 138.067417 
L 201.302854 162.415174 
L 202.168394 62.534319 
L 203.033934 127.34333 
L 203.899473 74.373492 
L 204.765013 114.133907 
L 205.630553 62.777027 
L 206.496092 137.83952 
L 207.361632 120.412293 
L 208.227172 150.870343 
L 209.092712 126.226642 
L 209.958251 82.74929 
L 210.823791 79.22706 
L 211.689331 128.488876 
L 212.554871 131.444498 
L 213.42041 161.162246 
L 214.28595 150.642099 
L 215.15149 136.037505 
L 216.01703 132.64584 
L 216.882569 143.855743 
L 217.748109 130.668677 
L 218.613649 99.415981 
L 219.479189 137.600763 
L 220.344728 117.092139 
L 221.210268 158.77016 
L 222.075808 123.918364 
L 222.941348 97.52827 
L 223.806887 82.485069 
L 224.672427 139.693021 
L 225.537967 128.482041 
L 226.403507 99.772952 
L 227.269046 109.564889 
L 228.134586 148.34066 
L 229.000126 119.301104 
L 229.865665 121.822091 
L 230.731205 170.792162 
L 231.596745 125.342673 
L 232.462285 127.244213 
L 233.327824 53.317691 
L 234.193364 59.356956 
L 235.058904 114.270966 
L 235.924444 122.38562 
L 236.789983 147.399622 
L 237.655523 103.104524 
L 238.521063 150.686713 
L 239.386603 119.987894 
L 240.252142 130.188325 
L 241.117682 147.462378 
L 241.983222 129.055092 
L 242.848762 89.203269 
L 243.714301 91.865983 
L 244.579841 154.385108 
L 245.445381 62.806579 
L 246.310921 179.897121 
L 247.17646 113.730176 
L 248.042 95.960885 
L 248.90754 41.726844 
L 249.77308 87.305422 
L 250.638619 99.83302 
L 251.504159 104.759711 
L 252.369699 152.341015 
L 253.235239 158.274943 
L 254.100778 126.44218 
L 254.966318 84.076886 
L 255.831858 126.66722 
L 256.697397 52.189643 
L 257.562937 133.72085 
L 258.428477 46.130133 
L 259.294017 140.539702 
L 260.159556 99.125314 
L 261.025096 215.239639 
L 261.890636 120.384311 
L 263.621715 144.023971 
L 264.487255 140.817971 
L 265.352795 91.169933 
L 266.218335 88.525547 
L 267.083874 158.579009 
L 267.949414 143.051164 
L 268.814954 77.858031 
L 269.680494 118.951368 
L 270.546033 138.137083 
L 271.411573 109.66721 
L 272.277113 95.838325 
L 273.142653 140.850904 
L 274.008192 90.455966 
L 274.873732 169.01641 
L 275.739272 185.18839 
L 277.470351 138.695059 
L 278.335891 124.952632 
L 279.201431 106.086068 
L 280.06697 114.937478 
L 280.93251 121.619256 
L 281.79805 147.269707 
L 282.66359 124.470514 
L 283.529129 186.087213 
L 284.394669 100.132601 
L 285.260209 50.412938 
L 286.125749 77.223655 
L 286.991288 137.731129 
L 287.856828 137.298111 
L 288.722368 155.506602 
L 289.587908 36.380233 
L 290.453447 142.187452 
L 291.318987 170.410019 
L 292.184527 78.730566 
L 293.050067 120.461321 
L 293.915606 79.418284 
L 294.781146 94.423265 
L 295.646686 181.132899 
L 296.512226 95.597003 
L 297.377765 64.123284 
L 298.243305 100.6725 
L 299.108845 150.742582 
L 299.974385 104.445304 
L 300.839924 76.156802 
L 301.705464 130.600365 
L 302.571004 136.77274 
L 303.436543 169.258679 
L 304.302083 95.207192 
L 305.167623 117.335414 
L 306.033163 123.212922 
L 306.898702 122.691297 
L 307.764242 87.929929 
L 308.629782 149.220374 
L 309.495322 144.096169 
L 310.360861 157.8707 
L 311.226401 153.396106 
L 312.091941 129.852476 
L 312.957481 163.377536 
L 313.82302 69.574723 
L 314.68856 132.535943 
L 315.5541 82.562241 
L 316.41964 62.036435 
L 317.285179 78.677706 
L 318.150719 91.773931 
L 319.016259 115.087899 
L 319.881799 157.997462 
L 320.747338 151.358965 
L 321.612878 87.368631 
L 322.478418 154.51776 
L 323.343958 147.085515 
L 324.209497 72.492221 
L 325.075037 140.183783 
L 325.940577 227.095295 
L 325.940577 227.095295 
" clip-path="url(#p6903f8ef6d)" style="fill: none; stroke: #6f8b6a; stroke-opacity: 0.85; stroke-width: 0.8; stroke-linecap: square"/>
   </g>
   <g id="line2d_14">
    <path d="M 67.144194 98.810596 
L 68.009734 95.931648 
L 68.875274 92.269952 
L 69.740813 91.719342 
L 70.606353 78.973986 
L 71.471893 112.161645 
L 72.337433 113.947896 
L 73.202972 121.121607 
L 74.068512 151.201856 
L 74.934052 137.728281 
L 75.799592 165.062118 
L 76.665131 135.772701 
L 77.530671 139.350833 
L 78.396211 146.726662 
L 79.261751 142.366069 
L 80.12729 131.848873 
L 80.99283 84.826931 
L 82.723909 133.081518 
L 83.589449 143.619927 
L 84.454989 135.498123 
L 85.320529 118.081379 
L 86.186068 117.729502 
L 87.051608 122.072302 
L 88.782688 74.181821 
L 89.648227 78.580038 
L 90.513767 105.937421 
L 91.379307 104.84802 
L 92.244847 77.879964 
L 93.110386 106.409525 
L 93.975926 79.595981 
L 94.841466 17.671205 
L 95.707006 92.887962 
L 96.572545 76.855919 
L 97.438085 69.270257 
L 98.303625 56.260348 
L 99.169165 114.791934 
L 100.034704 121.993946 
L 100.900244 100.55522 
L 101.765784 91.734167 
L 102.631324 92.127939 
L 103.496863 58.579671 
L 104.362403 68.898733 
L 105.227943 77.445553 
L 106.093482 65.299164 
L 106.959022 47.901204 
L 107.824562 40.733296 
L 108.690102 67.064132 
L 109.555641 82.108125 
L 110.421181 100.398169 
L 111.286721 132.849348 
L 112.152261 117.758104 
L 113.0178 77.295008 
L 113.88334 105.021262 
L 114.74888 80.514407 
L 115.61442 84.454105 
L 116.479959 67.091599 
L 117.345499 65.123689 
L 118.211039 96.058366 
L 119.076579 106.886001 
L 119.942118 95.872065 
L 120.807658 92.786222 
L 121.673198 84.986852 
L 122.538738 119.287246 
L 123.404277 96.363129 
L 124.269817 134.507133 
L 125.135357 119.984143 
L 126.000897 99.886372 
L 126.866436 94.11747 
L 127.731976 116.422167 
L 129.463056 87.23137 
L 130.328595 90.984772 
L 131.194135 134.14407 
L 132.059675 124.530528 
L 132.925214 127.409699 
L 133.790754 118.03092 
L 135.521834 187.451062 
L 136.387373 158.034834 
L 137.252913 149.78089 
L 138.118453 115.594988 
L 138.983993 114.692928 
L 139.849532 147.703317 
L 140.715072 153.455609 
L 141.580612 78.86582 
L 142.446152 134.399411 
L 143.311691 137.821469 
L 144.177231 123.160191 
L 145.042771 62.054424 
L 145.908311 72.939317 
L 146.77385 112.972719 
L 147.63939 107.228099 
L 148.50493 125.084932 
L 149.37047 124.408214 
L 150.236009 171.287534 
L 151.101549 161.819121 
L 151.967089 132.336295 
L 152.832629 148.991643 
L 153.698168 137.992096 
L 154.563708 163.227442 
L 155.429248 137.626923 
L 156.294787 134.429367 
L 157.160327 112.106138 
L 158.025867 130.729125 
L 158.891407 146.037242 
L 159.756946 110.946541 
L 160.622486 133.440682 
L 161.488026 137.897575 
L 162.353566 139.919274 
L 163.219105 120.104699 
L 164.084645 156.01801 
L 164.950185 133.673684 
L 165.815725 135.234882 
L 166.681264 120.921208 
L 167.546804 111.137367 
L 168.412344 125.923537 
L 169.277884 110.952883 
L 170.143423 107.678973 
L 171.008963 116.805742 
L 171.874503 118.0528 
L 172.740043 113.631236 
L 173.605582 117.510033 
L 174.471122 141.941436 
L 175.336662 148.870207 
L 176.202202 124.110851 
L 177.067741 113.341961 
L 177.933281 120.309459 
L 178.798821 130.965238 
L 179.66436 108.86535 
L 180.5299 102.926107 
L 181.39544 95.778567 
L 182.26098 157.829186 
L 183.126519 164.963675 
L 183.992059 129.671583 
L 184.857599 116.862807 
L 185.723139 109.633256 
L 186.588678 120.873653 
L 187.454218 103.0836 
L 188.319758 104.606703 
L 189.185298 135.268103 
L 190.050837 135.03499 
L 190.916377 143.453197 
L 191.781917 156.00473 
L 192.647457 160.218919 
L 193.512996 134.635748 
L 194.378536 164.950422 
L 195.244076 160.022822 
L 196.109616 124.930428 
L 196.975155 148.4522 
L 197.840695 117.283186 
L 198.706235 108.678049 
L 199.571775 105.543607 
L 200.437314 142.592413 
L 201.302854 155.25818 
L 202.168394 162.336131 
L 203.033934 121.870288 
L 203.899473 143.406489 
L 204.765013 141.753369 
L 205.630553 168.490203 
L 206.496092 147.811361 
L 207.361632 131.784128 
L 208.227172 121.121628 
L 209.092712 118.394992 
L 209.958251 126.304207 
L 210.823791 146.867985 
L 211.689331 105.444508 
L 212.554871 137.876176 
L 213.42041 180.005993 
L 214.28595 154.612277 
L 215.15149 178.989023 
L 216.01703 178.88274 
L 216.882569 166.764036 
L 217.748109 143.185473 
L 218.613649 136.834144 
L 219.479189 174.524649 
L 220.344728 181.538002 
L 221.210268 157.994248 
L 222.075808 158.180621 
L 222.941348 164.163094 
L 223.806887 178.208347 
L 224.672427 195.539614 
L 225.537967 156.055788 
L 226.403507 171.345891 
L 227.269046 135.714166 
L 228.134586 148.553534 
L 229.000126 187.336321 
L 230.731205 201.734642 
L 231.596745 221.159816 
L 232.462285 177.248479 
L 233.327824 147.810744 
L 234.193364 176.079964 
L 235.058904 144.03874 
L 235.924444 143.84908 
L 236.789983 117.211806 
L 237.655523 104.239704 
L 238.521063 98.536334 
L 239.386603 95.658207 
L 240.252142 138.753262 
L 241.117682 117.658895 
L 241.983222 134.355522 
L 242.848762 172.574825 
L 243.714301 181.56325 
L 244.579841 130.862051 
L 245.445381 168.031634 
L 246.310921 165.909271 
L 247.17646 160.058522 
L 248.042 174.390722 
L 248.90754 175.887101 
L 249.77308 150.800689 
L 250.638619 159.226361 
L 251.504159 149.405741 
L 252.369699 164.135581 
L 253.235239 157.996658 
L 254.100778 165.351168 
L 254.966318 139.279455 
L 255.831858 119.031336 
L 256.697397 146.273532 
L 257.562937 147.227106 
L 258.428477 125.34981 
L 259.294017 153.150501 
L 260.159556 156.327636 
L 261.025096 149.692038 
L 262.756176 123.429101 
L 263.621715 117.151536 
L 264.487255 141.477163 
L 265.352795 134.982478 
L 266.218335 107.911202 
L 267.083874 151.409156 
L 267.949414 109.699823 
L 268.814954 122.810141 
L 269.680494 100.968885 
L 270.546033 107.710774 
L 271.411573 119.04686 
L 272.277113 114.381939 
L 273.142653 98.141042 
L 274.008192 66.666765 
L 274.873732 106.965849 
L 275.739272 95.154801 
L 276.604812 89.8695 
L 278.335891 139.8219 
L 279.201431 100.915974 
L 280.06697 103.950913 
L 280.93251 99.322409 
L 281.79805 123.660037 
L 282.66359 97.556245 
L 283.529129 82.557853 
L 284.394669 56.442779 
L 285.260209 88.86772 
L 286.125749 126.722746 
L 286.991288 113.929548 
L 287.856828 157.036435 
L 288.722368 150.073861 
L 289.587908 116.994241 
L 290.453447 132.761049 
L 291.318987 120.772701 
L 292.184527 140.113171 
L 293.050067 120.288948 
L 293.915606 114.122463 
L 294.781146 76.836266 
L 295.646686 72.63391 
L 296.512226 62.995206 
L 297.377765 65.888828 
L 298.243305 87.711017 
L 299.108845 115.15946 
L 299.974385 95.956365 
L 300.839924 51.732652 
L 301.705464 53.051226 
L 302.571004 64.886719 
L 303.436543 31.979127 
L 304.302083 77.851967 
L 305.167623 101.47464 
L 306.033163 105.582705 
L 306.898702 107.798006 
L 307.764242 64.547657 
L 308.629782 93.517816 
L 309.495322 39.339186 
L 310.360861 78.414878 
L 311.226401 67.894213 
L 312.091941 110.556699 
L 312.957481 144.845102 
L 313.82302 94.427532 
L 314.68856 74.468675 
L 315.5541 74.255104 
L 316.41964 125.138913 
L 317.285179 121.821232 
L 319.016259 55.582291 
L 319.881799 42.640609 
L 320.747338 67.196695 
L 321.612878 59.359344 
L 322.478418 22.851847 
L 323.343958 67.123314 
L 324.209497 38.59157 
L 325.075037 58.505467 
L 325.940577 46.657909 
L 325.940577 46.657909 
" clip-path="url(#p6903f8ef6d)" style="fill: none; stroke: #1e3d52; stroke-opacity: 0.85; stroke-width: 0.8; stroke-linecap: square"/>
   </g>
   <g id="line2d_15">
    <path d="M 67.144194 66.544246 
L 68.009734 70.084893 
L 68.875274 71.12724 
L 70.606353 74.023839 
L 71.471893 80.784943 
L 72.337433 80.458264 
L 73.202972 74.923252 
L 74.068512 74.744851 
L 74.934052 75.400604 
L 75.799592 75.701059 
L 76.665131 81.121704 
L 77.530671 85.091546 
L 79.261751 89.968112 
L 80.12729 87.717276 
L 80.99283 86.368799 
L 81.85837 86.357637 
L 82.723909 85.613906 
L 83.589449 88.061236 
L 84.454989 90.977508 
L 85.320529 92.81153 
L 86.186068 91.118905 
L 87.917148 99.113188 
L 88.782688 101.330284 
L 89.648227 101.373095 
L 90.513767 104.214606 
L 91.379307 103.961262 
L 92.244847 102.902766 
L 93.110386 100.375888 
L 93.975926 101.663126 
L 94.841466 105.023976 
L 95.707006 107.799032 
L 97.438085 114.293331 
L 98.303625 113.042605 
L 99.169165 110.648587 
L 100.034704 111.370772 
L 100.900244 108.185049 
L 101.765784 107.389291 
L 102.631324 110.625704 
L 103.496863 112.493787 
L 104.362403 111.918658 
L 105.227943 111.856418 
L 106.093482 111.131507 
L 106.959022 112.401692 
L 107.824562 110.042828 
L 108.690102 109.762714 
L 109.555641 108.486752 
L 110.421181 109.361039 
L 111.286721 110.801925 
L 112.152261 110.746594 
L 113.0178 111.926933 
L 113.88334 113.434413 
L 114.74888 111.693756 
L 115.61442 108.232675 
L 116.479959 112.471992 
L 117.345499 115.265132 
L 118.211039 110.920251 
L 119.076579 110.794677 
L 119.942118 111.001337 
L 120.807658 113.720461 
L 121.673198 114.415485 
L 122.538738 112.097631 
L 123.404277 110.843305 
L 124.269817 108.848299 
L 125.135357 113.972339 
L 126.000897 114.594037 
L 126.866436 112.916674 
L 127.731976 114.465081 
L 128.597516 113.071539 
L 129.463056 111.052911 
L 130.328595 107.582759 
L 131.194135 106.241712 
L 132.059675 106.309511 
L 132.925214 103.717121 
L 133.790754 106.330485 
L 134.656294 106.638179 
L 135.521834 107.935527 
L 136.387373 104.711 
L 137.252913 105.644851 
L 138.118453 106.765294 
L 138.983993 109.460758 
L 139.849532 111.16343 
L 140.715072 113.786721 
L 141.580612 117.488784 
L 142.446152 115.479653 
L 143.311691 116.875427 
L 144.177231 114.041672 
L 145.042771 113.073993 
L 145.908311 117.332299 
L 146.77385 118.347725 
L 148.50493 111.340688 
L 149.37047 107.18065 
L 150.236009 107.488205 
L 151.101549 106.924041 
L 151.967089 109.374828 
L 152.832629 113.000197 
L 153.698168 117.139915 
L 155.429248 117.906764 
L 156.294787 117.856446 
L 157.160327 119.262421 
L 158.025867 118.090851 
L 158.891407 114.236487 
L 159.756946 116.658726 
L 160.622486 118.368523 
L 162.353566 119.603895 
L 163.219105 121.2165 
L 164.084645 120.359334 
L 164.950185 121.13834 
L 165.815725 122.968102 
L 166.681264 129.653032 
L 167.546804 134.264794 
L 168.412344 140.387065 
L 169.277884 145.618461 
L 170.143423 146.843288 
L 171.874503 151.377053 
L 172.740043 150.621411 
L 173.605582 146.761554 
L 174.471122 146.893141 
L 175.336662 146.597379 
L 176.202202 143.131976 
L 177.933281 150.641396 
L 178.798821 149.153492 
L 179.66436 151.628739 
L 180.5299 154.786776 
L 181.39544 153.259058 
L 182.26098 153.935285 
L 183.126519 153.239236 
L 184.857599 154.763298 
L 185.723139 156.578783 
L 186.588678 155.290594 
L 187.454218 151.975796 
L 188.319758 155.937642 
L 189.185298 153.709478 
L 190.050837 149.801098 
L 190.916377 141.173623 
L 191.781917 139.295618 
L 192.647457 139.078182 
L 193.512996 139.042586 
L 194.378536 138.098019 
L 196.109616 143.083648 
L 196.975155 145.008523 
L 197.840695 146.279353 
L 198.706235 147.960414 
L 199.571775 153.268644 
L 200.437314 156.468328 
L 201.302854 156.982647 
L 202.168394 159.717598 
L 203.033934 161.234448 
L 203.899473 163.163277 
L 204.765013 161.73763 
L 205.630553 155.230539 
L 206.496092 151.631074 
L 207.361632 150.218875 
L 208.227172 148.58247 
L 209.092712 148.532373 
L 209.958251 144.37871 
L 210.823791 138.020185 
L 211.689331 133.625725 
L 212.554871 133.909101 
L 213.42041 132.318412 
L 214.28595 131.779069 
L 215.15149 134.700509 
L 216.01703 136.01061 
L 216.882569 135.086216 
L 217.748109 133.862543 
L 218.613649 131.273184 
L 219.479189 130.873472 
L 220.344728 129.498523 
L 221.210268 128.907438 
L 222.075808 127.038397 
L 222.941348 124.843202 
L 223.806887 123.694791 
L 224.672427 121.503507 
L 226.403507 127.463039 
L 227.269046 127.032348 
L 228.134586 124.073157 
L 229.000126 120.036828 
L 229.865665 116.813089 
L 230.731205 115.862395 
L 231.596745 117.764251 
L 233.327824 124.527068 
L 234.193364 126.948432 
L 235.058904 125.141087 
L 235.924444 127.406808 
L 236.789983 128.143694 
L 237.655523 133.038454 
L 238.521063 129.26978 
L 239.386603 133.864115 
L 240.252142 131.7088 
L 241.117682 128.332661 
L 241.983222 127.0699 
L 242.848762 126.13768 
L 243.714301 126.328945 
L 244.579841 128.859395 
L 245.445381 126.639948 
L 246.310921 127.381623 
L 247.17646 130.390331 
L 248.042 132.113517 
L 248.90754 133.243252 
L 249.77308 129.79095 
L 250.638619 127.952208 
L 251.504159 123.944579 
L 252.369699 120.857116 
L 253.235239 121.471075 
L 254.100778 122.654339 
L 254.966318 120.925492 
L 255.831858 119.707468 
L 256.697397 117.893767 
L 257.562937 120.731338 
L 258.428477 118.987844 
L 259.294017 116.298397 
L 260.159556 112.650795 
L 261.025096 110.291504 
L 261.890636 112.314083 
L 262.756176 109.007497 
L 263.621715 108.140704 
L 264.487255 108.149187 
L 265.352795 109.839197 
L 266.218335 110.947467 
L 267.083874 112.323131 
L 267.949414 109.615905 
L 268.814954 108.652521 
L 269.680494 109.295504 
L 270.546033 108.787893 
L 271.411573 109.341586 
L 272.277113 108.538037 
L 273.142653 108.017744 
L 274.008192 111.752453 
L 274.873732 113.188893 
L 275.739272 116.263998 
L 276.604812 118.432317 
L 277.470351 121.482921 
L 278.335891 120.954695 
L 279.201431 124.515798 
L 280.06697 124.052743 
L 280.93251 121.931101 
L 281.79805 127.970546 
L 282.66359 127.249934 
L 283.529129 123.594694 
L 284.394669 122.416492 
L 285.260209 126.477931 
L 286.125749 124.62143 
L 286.991288 122.474338 
L 287.856828 121.119475 
L 288.722368 121.997727 
L 289.587908 119.888218 
L 290.453447 116.941767 
L 291.318987 115.581092 
L 292.184527 111.756584 
L 293.050067 111.070421 
L 293.915606 111.35191 
L 294.781146 107.335713 
L 295.646686 105.490204 
L 296.512226 106.788975 
L 297.377765 103.751799 
L 298.243305 104.053709 
L 299.108845 100.84152 
L 299.974385 99.352072 
L 300.839924 101.683755 
L 301.705464 105.960135 
L 302.571004 107.225496 
L 303.436543 106.421591 
L 304.302083 106.531947 
L 305.167623 101.133725 
L 306.033163 101.849528 
L 306.898702 103.336011 
L 307.764242 106.138918 
L 308.629782 106.760777 
L 310.360861 110.39229 
L 311.226401 109.048027 
L 312.091941 111.979261 
L 312.957481 115.671452 
L 313.82302 114.488362 
L 314.68856 112.273188 
L 315.5541 113.98835 
L 316.41964 111.671482 
L 317.285179 114.926274 
L 318.150719 116.808472 
L 319.016259 120.240079 
L 319.881799 121.786311 
L 320.747338 125.569072 
L 321.612878 125.370802 
L 322.478418 124.884362 
L 323.343958 124.214093 
L 324.209497 123.988672 
L 325.075037 119.03952 
L 325.940577 118.103487 
L 325.940577 118.103487 
" clip-path="url(#p6903f8ef6d)" style="fill: none; stroke: #c34a22; stroke-opacity: 0.85; stroke-width: 0.8; stroke-linecap: square"/>
   </g>
   <g id="patch_3">
    <path d="M 54.204375 237.5665 
L 54.204375 7.2 
" style="fill: none; stroke: #d8cfbc; stroke-width: 0.8; stroke-linejoin: miter; stroke-linecap: square"/>
   </g>
   <g id="patch_4">
    <path d="M 54.204375 237.5665 
L 338.880396 237.5665 
" style="fill: none; stroke: #d8cfbc; stroke-width: 0.8; stroke-linejoin: miter; stroke-linecap: square"/>
   </g>
   <g id="legend_1">
    <g id="line2d_16">
     <path d="M 64.104375 189.029 
L 75.104375 189.029 
L 86.104375 189.029 
" style="fill: none; stroke: #6f8b6a; stroke-opacity: 0.85; stroke-width: 0.8; stroke-linecap: square"/>
    </g>
    <g id="text_15">
     <text style="font-size: 11px; font-family: 'Georgia', 'Times New Roman', 'DejaVu Serif', serif; text-anchor: start; fill: #221e17" x="94.904375" y="192.879" transform="rotate(-0 94.904375 192.879)">white</text>
    </g>
    <g id="line2d_17">
     <path d="M 64.104375 205.229938 
L 75.104375 205.229938 
L 86.104375 205.229938 
" style="fill: none; stroke: #1e3d52; stroke-opacity: 0.85; stroke-width: 0.8; stroke-linecap: square"/>
    </g>
    <g id="text_16">
     <text style="font-size: 11px; font-family: 'Georgia', 'Times New Roman', 'DejaVu Serif', serif; text-anchor: start; fill: #221e17" x="94.904375" y="209.079938" transform="rotate(-0 94.904375 209.079938)">1/f</text>
    </g>
    <g id="line2d_18">
     <path d="M 64.104375 221.430875 
L 75.104375 221.430875 
L 86.104375 221.430875 
" style="fill: none; stroke: #c34a22; stroke-opacity: 0.85; stroke-width: 0.8; stroke-linecap: square"/>
    </g>
    <g id="text_17">
     <text style="font-size: 11px; font-family: 'Georgia', 'Times New Roman', 'DejaVu Serif', serif; text-anchor: start; fill: #221e17" x="94.904375" y="225.280875" transform="rotate(-0 94.904375 225.280875)">Brownian</text>
    </g>
   </g>
  </g>
  <g id="axes_2">
   <g id="patch_5">
    <path d="M 389.878354 237.5665 
L 674.554375 237.5665 
L 674.554375 7.2 
L 389.878354 7.2 
z
" style="fill: #f6f1e7"/>
   </g>
   <g id="matplotlib.axis_3">
    <g id="xtick_8">
     <g id="line2d_19">
      <g>
       <use xlink:href="#mfbec14799e" x="451.951495" y="237.5665" style="fill: #5c554a; stroke: #5c554a; stroke-width: 0.8"/>
      </g>
     </g>
     <g id="text_18">
      <!-- $\mathdefault{10^{1}}$ -->
      <g style="fill: #5c554a" transform="translate(444.361495 252.881813)">
       <text>
        <tspan x="0" y="-0.135938" style="font-size: 11px; font-family: 'Georgia'; fill: #5c554a">1</tspan>
        <tspan x="4.726562" y="-0.135938" style="font-size: 11px; font-family: 'Georgia'; fill: #5c554a">0</tspan>
        <tspan x="11.570723" y="-3.84375" style="font-size: 7.7px; font-family: 'Georgia'; fill: #5c554a">1</tspan>
       </text>
      </g>
     </g>
    </g>
    <g id="xtick_9">
     <g id="line2d_20">
      <g>
       <use xlink:href="#mfbec14799e" x="575.420663" y="237.5665" style="fill: #5c554a; stroke: #5c554a; stroke-width: 0.8"/>
      </g>
     </g>
     <g id="text_19">
      <!-- $\mathdefault{10^{2}}$ -->
      <g style="fill: #5c554a" transform="translate(567.335663 252.881813)">
       <text>
        <tspan x="0" y="-0.135938" style="font-size: 11px; font-family: 'Georgia'; fill: #5c554a">1</tspan>
        <tspan x="4.726562" y="-0.135938" style="font-size: 11px; font-family: 'Georgia'; fill: #5c554a">0</tspan>
        <tspan x="11.570723" y="-3.84375" style="font-size: 7.7px; font-family: 'Georgia'; fill: #5c554a">2</tspan>
       </text>
      </g>
     </g>
    </g>
    <g id="xtick_10">
     <g id="line2d_21">
      <defs>
       <path id="m812d7e0457" d="M 0 0 
L 0 2 
" style="stroke: #5c554a; stroke-width: 0.6"/>
      </defs>
      <g>
       <use xlink:href="#m812d7e0457" x="402.818173" y="237.5665" style="fill: #5c554a; stroke: #5c554a; stroke-width: 0.6"/>
      </g>
     </g>
    </g>
    <g id="xtick_11">
     <g id="line2d_22">
      <g>
       <use xlink:href="#m812d7e0457" x="414.783572" y="237.5665" style="fill: #5c554a; stroke: #5c554a; stroke-width: 0.6"/>
      </g>
     </g>
    </g>
    <g id="xtick_12">
     <g id="line2d_23">
      <g>
       <use xlink:href="#m812d7e0457" x="424.560014" y="237.5665" style="fill: #5c554a; stroke: #5c554a; stroke-width: 0.6"/>
      </g>
     </g>
    </g>
    <g id="xtick_13">
     <g id="line2d_24">
      <g>
       <use xlink:href="#m812d7e0457" x="432.825879" y="237.5665" style="fill: #5c554a; stroke: #5c554a; stroke-width: 0.6"/>
      </g>
     </g>
    </g>
    <g id="xtick_14">
     <g id="line2d_25">
      <g>
       <use xlink:href="#m812d7e0457" x="439.986096" y="237.5665" style="fill: #5c554a; stroke: #5c554a; stroke-width: 0.6"/>
      </g>
     </g>
    </g>
    <g id="xtick_15">
     <g id="line2d_26">
      <g>
       <use xlink:href="#m812d7e0457" x="446.301856" y="237.5665" style="fill: #5c554a; stroke: #5c554a; stroke-width: 0.6"/>
      </g>
     </g>
    </g>
    <g id="xtick_16">
     <g id="line2d_27">
      <g>
       <use xlink:href="#m812d7e0457" x="489.119418" y="237.5665" style="fill: #5c554a; stroke: #5c554a; stroke-width: 0.6"/>
      </g>
     </g>
    </g>
    <g id="xtick_17">
     <g id="line2d_28">
      <g>
       <use xlink:href="#m812d7e0457" x="510.861259" y="237.5665" style="fill: #5c554a; stroke: #5c554a; stroke-width: 0.6"/>
      </g>
     </g>
    </g>
    <g id="xtick_18">
     <g id="line2d_29">
      <g>
       <use xlink:href="#m812d7e0457" x="526.287341" y="237.5665" style="fill: #5c554a; stroke: #5c554a; stroke-width: 0.6"/>
      </g>
     </g>
    </g>
    <g id="xtick_19">
     <g id="line2d_30">
      <g>
       <use xlink:href="#m812d7e0457" x="538.25274" y="237.5665" style="fill: #5c554a; stroke: #5c554a; stroke-width: 0.6"/>
      </g>
     </g>
    </g>
    <g id="xtick_20">
     <g id="line2d_31">
      <g>
       <use xlink:href="#m812d7e0457" x="548.029182" y="237.5665" style="fill: #5c554a; stroke: #5c554a; stroke-width: 0.6"/>
      </g>
     </g>
    </g>
    <g id="xtick_21">
     <g id="line2d_32">
      <g>
       <use xlink:href="#m812d7e0457" x="556.295046" y="237.5665" style="fill: #5c554a; stroke: #5c554a; stroke-width: 0.6"/>
      </g>
     </g>
    </g>
    <g id="xtick_22">
     <g id="line2d_33">
      <g>
       <use xlink:href="#m812d7e0457" x="563.455264" y="237.5665" style="fill: #5c554a; stroke: #5c554a; stroke-width: 0.6"/>
      </g>
     </g>
    </g>
    <g id="xtick_23">
     <g id="line2d_34">
      <g>
       <use xlink:href="#m812d7e0457" x="569.771023" y="237.5665" style="fill: #5c554a; stroke: #5c554a; stroke-width: 0.6"/>
      </g>
     </g>
    </g>
    <g id="xtick_24">
     <g id="line2d_35">
      <g>
       <use xlink:href="#m812d7e0457" x="612.588586" y="237.5665" style="fill: #5c554a; stroke: #5c554a; stroke-width: 0.6"/>
      </g>
     </g>
    </g>
    <g id="xtick_25">
     <g id="line2d_36">
      <g>
       <use xlink:href="#m812d7e0457" x="634.330427" y="237.5665" style="fill: #5c554a; stroke: #5c554a; stroke-width: 0.6"/>
      </g>
     </g>
    </g>
    <g id="xtick_26">
     <g id="line2d_37">
      <g>
       <use xlink:href="#m812d7e0457" x="649.756509" y="237.5665" style="fill: #5c554a; stroke: #5c554a; stroke-width: 0.6"/>
      </g>
     </g>
    </g>
    <g id="xtick_27">
     <g id="line2d_38">
      <g>
       <use xlink:href="#m812d7e0457" x="661.721907" y="237.5665" style="fill: #5c554a; stroke: #5c554a; stroke-width: 0.6"/>
      </g>
     </g>
    </g>
    <g id="xtick_28">
     <g id="line2d_39">
      <g>
       <use xlink:href="#m812d7e0457" x="671.49835" y="237.5665" style="fill: #5c554a; stroke: #5c554a; stroke-width: 0.6"/>
      </g>
     </g>
    </g>
    <g id="text_20">
     <text style="font-size: 11px; font-family: 'Georgia', 'Times New Roman', 'DejaVu Serif', serif; text-anchor: middle; fill: #5c554a" x="532.216365" y="267.58275" transform="rotate(-0 532.216365 267.58275)">scale n (beats)</text>
    </g>
   </g>
   <g id="matplotlib.axis_4">
    <g id="ytick_6">
     <g id="line2d_40">
      <g>
       <use xlink:href="#m8d291d980e" x="389.878354" y="232.999316" style="fill: #5c554a; stroke: #5c554a; stroke-width: 0.8"/>
      </g>
     </g>
     <g id="text_21">
      <!-- $\mathdefault{10^{0}}$ -->
      <g style="fill: #5c554a" transform="translate(366.268354 237.156972)">
       <text>
        <tspan x="0" y="-0.135938" style="font-size: 11px; font-family: 'Georgia'; fill: #5c554a">1</tspan>
        <tspan x="4.726562" y="-0.135938" style="font-size: 11px; font-family: 'Georgia'; fill: #5c554a">0</tspan>
        <tspan x="11.570723" y="-3.84375" style="font-size: 7.7px; font-family: 'Georgia'; fill: #5c554a">0</tspan>
       </text>
      </g>
     </g>
    </g>
    <g id="ytick_7">
     <g id="line2d_41">
      <g>
       <use xlink:href="#m8d291d980e" x="389.878354" y="167.679286" style="fill: #5c554a; stroke: #5c554a; stroke-width: 0.8"/>
      </g>
     </g>
     <g id="text_22">
      <!-- $\mathdefault{10^{1}}$ -->
      <g style="fill: #5c554a" transform="translate(367.698354 171.836943)">
       <text>
        <tspan x="0" y="-0.135938" style="font-size: 11px; font-family: 'Georgia'; fill: #5c554a">1</tspan>
        <tspan x="4.726562" y="-0.135938" style="font-size: 11px; font-family: 'Georgia'; fill: #5c554a">0</tspan>
        <tspan x="11.570723" y="-3.84375" style="font-size: 7.7px; font-family: 'Georgia'; fill: #5c554a">1</tspan>
       </text>
      </g>
     </g>
    </g>
    <g id="ytick_8">
     <g id="line2d_42">
      <g>
       <use xlink:href="#m8d291d980e" x="389.878354" y="102.359257" style="fill: #5c554a; stroke: #5c554a; stroke-width: 0.8"/>
      </g>
     </g>
     <g id="text_23">
      <!-- $\mathdefault{10^{2}}$ -->
      <g style="fill: #5c554a" transform="translate(366.708354 106.516913)">
       <text>
        <tspan x="0" y="-0.135938" style="font-size: 11px; font-family: 'Georgia'; fill: #5c554a">1</tspan>
        <tspan x="4.726562" y="-0.135938" style="font-size: 11px; font-family: 'Georgia'; fill: #5c554a">0</tspan>
        <tspan x="11.570723" y="-3.84375" style="font-size: 7.7px; font-family: 'Georgia'; fill: #5c554a">2</tspan>
       </text>
      </g>
     </g>
    </g>
    <g id="ytick_9">
     <g id="line2d_43">
      <g>
       <use xlink:href="#m8d291d980e" x="389.878354" y="37.039228" style="fill: #5c554a; stroke: #5c554a; stroke-width: 0.8"/>
      </g>
     </g>
     <g id="text_24">
      <!-- $\mathdefault{10^{3}}$ -->
      <g style="fill: #5c554a" transform="translate(366.708354 41.196884)">
       <text>
        <tspan x="0" y="-0.135938" style="font-size: 11px; font-family: 'Georgia'; fill: #5c554a">1</tspan>
        <tspan x="4.726562" y="-0.135938" style="font-size: 11px; font-family: 'Georgia'; fill: #5c554a">0</tspan>
        <tspan x="11.570723" y="-3.84375" style="font-size: 7.7px; font-family: 'Georgia'; fill: #5c554a">3</tspan>
       </text>
      </g>
     </g>
    </g>
    <g id="ytick_10">
     <g id="line2d_44">
      <defs>
       <path id="m4dcbc374f3" d="M 0 0 
L -2 0 
" style="stroke: #5c554a; stroke-width: 0.6"/>
      </defs>
      <g>
       <use xlink:href="#m4dcbc374f3" x="389.878354" y="235.988197" style="fill: #5c554a; stroke: #5c554a; stroke-width: 0.6"/>
      </g>
     </g>
    </g>
    <g id="ytick_11">
     <g id="line2d_45">
      <g>
       <use xlink:href="#m4dcbc374f3" x="389.878354" y="213.336028" style="fill: #5c554a; stroke: #5c554a; stroke-width: 0.6"/>
      </g>
     </g>
    </g>
    <g id="ytick_12">
     <g id="line2d_46">
      <g>
       <use xlink:href="#m4dcbc374f3" x="389.878354" y="201.833742" style="fill: #5c554a; stroke: #5c554a; stroke-width: 0.6"/>
      </g>
     </g>
    </g>
    <g id="ytick_13">
     <g id="line2d_47">
      <g>
       <use xlink:href="#m4dcbc374f3" x="389.878354" y="193.67274" style="fill: #5c554a; stroke: #5c554a; stroke-width: 0.6"/>
      </g>
     </g>
    </g>
    <g id="ytick_14">
     <g id="line2d_48">
      <g>
       <use xlink:href="#m4dcbc374f3" x="389.878354" y="187.342575" style="fill: #5c554a; stroke: #5c554a; stroke-width: 0.6"/>
      </g>
     </g>
    </g>
    <g id="ytick_15">
     <g id="line2d_49">
      <g>
       <use xlink:href="#m4dcbc374f3" x="389.878354" y="182.170453" style="fill: #5c554a; stroke: #5c554a; stroke-width: 0.6"/>
      </g>
     </g>
    </g>
    <g id="ytick_16">
     <g id="line2d_50">
      <g>
       <use xlink:href="#m4dcbc374f3" x="389.878354" y="177.797487" style="fill: #5c554a; stroke: #5c554a; stroke-width: 0.6"/>
      </g>
     </g>
    </g>
    <g id="ytick_17">
     <g id="line2d_51">
      <g>
       <use xlink:href="#m4dcbc374f3" x="389.878354" y="174.009451" style="fill: #5c554a; stroke: #5c554a; stroke-width: 0.6"/>
      </g>
     </g>
    </g>
    <g id="ytick_18">
     <g id="line2d_52">
      <g>
       <use xlink:href="#m4dcbc374f3" x="389.878354" y="170.668167" style="fill: #5c554a; stroke: #5c554a; stroke-width: 0.6"/>
      </g>
     </g>
    </g>
    <g id="ytick_19">
     <g id="line2d_53">
      <g>
       <use xlink:href="#m4dcbc374f3" x="389.878354" y="148.015998" style="fill: #5c554a; stroke: #5c554a; stroke-width: 0.6"/>
      </g>
     </g>
    </g>
    <g id="ytick_20">
     <g id="line2d_54">
      <g>
       <use xlink:href="#m4dcbc374f3" x="389.878354" y="136.513712" style="fill: #5c554a; stroke: #5c554a; stroke-width: 0.6"/>
      </g>
     </g>
    </g>
    <g id="ytick_21">
     <g id="line2d_55">
      <g>
       <use xlink:href="#m4dcbc374f3" x="389.878354" y="128.35271" style="fill: #5c554a; stroke: #5c554a; stroke-width: 0.6"/>
      </g>
     </g>
    </g>
    <g id="ytick_22">
     <g id="line2d_56">
      <g>
       <use xlink:href="#m4dcbc374f3" x="389.878354" y="122.022545" style="fill: #5c554a; stroke: #5c554a; stroke-width: 0.6"/>
      </g>
     </g>
    </g>
    <g id="ytick_23">
     <g id="line2d_57">
      <g>
       <use xlink:href="#m4dcbc374f3" x="389.878354" y="116.850424" style="fill: #5c554a; stroke: #5c554a; stroke-width: 0.6"/>
      </g>
     </g>
    </g>
    <g id="ytick_24">
     <g id="line2d_58">
      <g>
       <use xlink:href="#m4dcbc374f3" x="389.878354" y="112.477458" style="fill: #5c554a; stroke: #5c554a; stroke-width: 0.6"/>
      </g>
     </g>
    </g>
    <g id="ytick_25">
     <g id="line2d_59">
      <g>
       <use xlink:href="#m4dcbc374f3" x="389.878354" y="108.689422" style="fill: #5c554a; stroke: #5c554a; stroke-width: 0.6"/>
      </g>
     </g>
    </g>
    <g id="ytick_26">
     <g id="line2d_60">
      <g>
       <use xlink:href="#m4dcbc374f3" x="389.878354" y="105.348138" style="fill: #5c554a; stroke: #5c554a; stroke-width: 0.6"/>
      </g>
     </g>
    </g>
    <g id="ytick_27">
     <g id="line2d_61">
      <g>
       <use xlink:href="#m4dcbc374f3" x="389.878354" y="82.695969" style="fill: #5c554a; stroke: #5c554a; stroke-width: 0.6"/>
      </g>
     </g>
    </g>
    <g id="ytick_28">
     <g id="line2d_62">
      <g>
       <use xlink:href="#m4dcbc374f3" x="389.878354" y="71.193683" style="fill: #5c554a; stroke: #5c554a; stroke-width: 0.6"/>
      </g>
     </g>
    </g>
    <g id="ytick_29">
     <g id="line2d_63">
      <g>
       <use xlink:href="#m4dcbc374f3" x="389.878354" y="63.032681" style="fill: #5c554a; stroke: #5c554a; stroke-width: 0.6"/>
      </g>
     </g>
    </g>
    <g id="ytick_30">
     <g id="line2d_64">
      <g>
       <use xlink:href="#m4dcbc374f3" x="389.878354" y="56.702516" style="fill: #5c554a; stroke: #5c554a; stroke-width: 0.6"/>
      </g>
     </g>
    </g>
    <g id="ytick_31">
     <g id="line2d_65">
      <g>
       <use xlink:href="#m4dcbc374f3" x="389.878354" y="51.530394" style="fill: #5c554a; stroke: #5c554a; stroke-width: 0.6"/>
      </g>
     </g>
    </g>
    <g id="ytick_32">
     <g id="line2d_66">
      <g>
       <use xlink:href="#m4dcbc374f3" x="389.878354" y="47.157428" style="fill: #5c554a; stroke: #5c554a; stroke-width: 0.6"/>
      </g>
     </g>
    </g>
    <g id="ytick_33">
     <g id="line2d_67">
      <g>
       <use xlink:href="#m4dcbc374f3" x="389.878354" y="43.369392" style="fill: #5c554a; stroke: #5c554a; stroke-width: 0.6"/>
      </g>
     </g>
    </g>
    <g id="ytick_34">
     <g id="line2d_68">
      <g>
       <use xlink:href="#m4dcbc374f3" x="389.878354" y="40.028108" style="fill: #5c554a; stroke: #5c554a; stroke-width: 0.6"/>
      </g>
     </g>
    </g>
    <g id="ytick_35">
     <g id="line2d_69">
      <g>
       <use xlink:href="#m4dcbc374f3" x="389.878354" y="17.375939" style="fill: #5c554a; stroke: #5c554a; stroke-width: 0.6"/>
      </g>
     </g>
    </g>
    <g id="text_25">
     <text style="font-size: 11px; font-family: 'Georgia', 'Times New Roman', 'DejaVu Serif', serif; text-anchor: middle; fill: #5c554a" x="359.882729" y="122.38325" transform="rotate(-90 359.882729 122.38325)">F(n)</text>
    </g>
   </g>
   <g id="line2d_70">
    <path d="M 402.818173 147.974198 
L 414.783572 143.325256 
L 424.560014 139.859305 
L 432.825879 137.029992 
L 451.951495 130.639831 
L 461.727937 128.794032 
L 473.693336 125.059603 
L 489.119418 120.993533 
L 501.084817 118.028096 
L 512.619514 114.938819 
L 524.92975 111.599221 
L 538.25274 107.532886 
L 550.645407 104.837235 
L 562.780765 102.120239 
L 575.420663 98.856948 
L 587.386061 93.302823 
L 599.948688 91.408228 
L 612.319803 88.755268 
L 624.553984 84.725528 
L 636.946652 81.527953 
L 649.352828 76.724159 
L 661.614556 77.275762 
" clip-path="url(#p0eef3291b0)" style="fill: none; stroke: #6f8b6a; stroke-width: 1.5; stroke-linecap: square"/>
    <defs>
     <path id="me55b419751" d="M 0 1.75 
C 0.464105 1.75 0.909265 1.565609 1.237437 1.237437 
C 1.565609 0.909265 1.75 0.464105 1.75 0 
C 1.75 -0.464105 1.565609 -0.909265 1.237437 -1.237437 
C 0.909265 -1.565609 0.464105 -1.75 0 -1.75 
C -0.464105 -1.75 -0.909265 -1.565609 -1.237437 -1.237437 
C -1.565609 -0.909265 -1.75 -0.464105 -1.75 0 
C -1.75 0.464105 -1.565609 0.909265 -1.237437 1.237437 
C -0.909265 1.565609 -0.464105 1.75 0 1.75 
z
" style="stroke: #6f8b6a"/>
    </defs>
    <g clip-path="url(#p0eef3291b0)">
     <use xlink:href="#me55b419751" x="402.818173" y="147.974198" style="fill: #6f8b6a; stroke: #6f8b6a"/>
     <use xlink:href="#me55b419751" x="414.783572" y="143.325256" style="fill: #6f8b6a; stroke: #6f8b6a"/>
     <use xlink:href="#me55b419751" x="424.560014" y="139.859305" style="fill: #6f8b6a; stroke: #6f8b6a"/>
     <use xlink:href="#me55b419751" x="432.825879" y="137.029992" style="fill: #6f8b6a; stroke: #6f8b6a"/>
     <use xlink:href="#me55b419751" x="451.951495" y="130.639831" style="fill: #6f8b6a; stroke: #6f8b6a"/>
     <use xlink:href="#me55b419751" x="461.727937" y="128.794032" style="fill: #6f8b6a; stroke: #6f8b6a"/>
     <use xlink:href="#me55b419751" x="473.693336" y="125.059603" style="fill: #6f8b6a; stroke: #6f8b6a"/>
     <use xlink:href="#me55b419751" x="489.119418" y="120.993533" style="fill: #6f8b6a; stroke: #6f8b6a"/>
     <use xlink:href="#me55b419751" x="501.084817" y="118.028096" style="fill: #6f8b6a; stroke: #6f8b6a"/>
     <use xlink:href="#me55b419751" x="512.619514" y="114.938819" style="fill: #6f8b6a; stroke: #6f8b6a"/>
     <use xlink:href="#me55b419751" x="524.92975" y="111.599221" style="fill: #6f8b6a; stroke: #6f8b6a"/>
     <use xlink:href="#me55b419751" x="538.25274" y="107.532886" style="fill: #6f8b6a; stroke: #6f8b6a"/>
     <use xlink:href="#me55b419751" x="550.645407" y="104.837235" style="fill: #6f8b6a; stroke: #6f8b6a"/>
     <use xlink:href="#me55b419751" x="562.780765" y="102.120239" style="fill: #6f8b6a; stroke: #6f8b6a"/>
     <use xlink:href="#me55b419751" x="575.420663" y="98.856948" style="fill: #6f8b6a; stroke: #6f8b6a"/>
     <use xlink:href="#me55b419751" x="587.386061" y="93.302823" style="fill: #6f8b6a; stroke: #6f8b6a"/>
     <use xlink:href="#me55b419751" x="599.948688" y="91.408228" style="fill: #6f8b6a; stroke: #6f8b6a"/>
     <use xlink:href="#me55b419751" x="612.319803" y="88.755268" style="fill: #6f8b6a; stroke: #6f8b6a"/>
     <use xlink:href="#me55b419751" x="624.553984" y="84.725528" style="fill: #6f8b6a; stroke: #6f8b6a"/>
     <use xlink:href="#me55b419751" x="636.946652" y="81.527953" style="fill: #6f8b6a; stroke: #6f8b6a"/>
     <use xlink:href="#me55b419751" x="649.352828" y="76.724159" style="fill: #6f8b6a; stroke: #6f8b6a"/>
     <use xlink:href="#me55b419751" x="661.614556" y="77.275762" style="fill: #6f8b6a; stroke: #6f8b6a"/>
    </g>
   </g>
   <g id="line2d_71">
    <path d="M 402.818173 167.095922 
L 414.783572 158.572293 
L 424.560014 153.010151 
L 432.825879 148.851857 
L 451.951495 139.468794 
L 461.727937 133.766239 
L 473.693336 127.325875 
L 489.119418 120.20485 
L 501.084817 113.74954 
L 512.619514 107.480287 
L 524.92975 100.025486 
L 538.25274 93.012212 
L 550.645407 86.169511 
L 562.780765 80.651991 
L 575.420663 74.864812 
L 587.386061 68.63819 
L 599.948688 61.262438 
L 612.319803 54.384529 
L 624.553984 45.449078 
L 636.946652 39.386985 
L 649.352828 36.944817 
L 661.614556 29.038615 
" clip-path="url(#p0eef3291b0)" style="fill: none; stroke: #1e3d52; stroke-width: 1.5; stroke-linecap: square"/>
    <defs>
     <path id="mb9082e2147" d="M 0 1.75 
C 0.464105 1.75 0.909265 1.565609 1.237437 1.237437 
C 1.565609 0.909265 1.75 0.464105 1.75 0 
C 1.75 -0.464105 1.565609 -0.909265 1.237437 -1.237437 
C 0.909265 -1.565609 0.464105 -1.75 0 -1.75 
C -0.464105 -1.75 -0.909265 -1.565609 -1.237437 -1.237437 
C -1.565609 -0.909265 -1.75 -0.464105 -1.75 0 
C -1.75 0.464105 -1.565609 0.909265 -1.237437 1.237437 
C -0.909265 1.565609 -0.464105 1.75 0 1.75 
z
" style="stroke: #1e3d52"/>
    </defs>
    <g clip-path="url(#p0eef3291b0)">
     <use xlink:href="#mb9082e2147" x="402.818173" y="167.095922" style="fill: #1e3d52; stroke: #1e3d52"/>
     <use xlink:href="#mb9082e2147" x="414.783572" y="158.572293" style="fill: #1e3d52; stroke: #1e3d52"/>
     <use xlink:href="#mb9082e2147" x="424.560014" y="153.010151" style="fill: #1e3d52; stroke: #1e3d52"/>
     <use xlink:href="#mb9082e2147" x="432.825879" y="148.851857" style="fill: #1e3d52; stroke: #1e3d52"/>
     <use xlink:href="#mb9082e2147" x="451.951495" y="139.468794" style="fill: #1e3d52; stroke: #1e3d52"/>
     <use xlink:href="#mb9082e2147" x="461.727937" y="133.766239" style="fill: #1e3d52; stroke: #1e3d52"/>
     <use xlink:href="#mb9082e2147" x="473.693336" y="127.325875" style="fill: #1e3d52; stroke: #1e3d52"/>
     <use xlink:href="#mb9082e2147" x="489.119418" y="120.20485" style="fill: #1e3d52; stroke: #1e3d52"/>
     <use xlink:href="#mb9082e2147" x="501.084817" y="113.74954" style="fill: #1e3d52; stroke: #1e3d52"/>
     <use xlink:href="#mb9082e2147" x="512.619514" y="107.480287" style="fill: #1e3d52; stroke: #1e3d52"/>
     <use xlink:href="#mb9082e2147" x="524.92975" y="100.025486" style="fill: #1e3d52; stroke: #1e3d52"/>
     <use xlink:href="#mb9082e2147" x="538.25274" y="93.012212" style="fill: #1e3d52; stroke: #1e3d52"/>
     <use xlink:href="#mb9082e2147" x="550.645407" y="86.169511" style="fill: #1e3d52; stroke: #1e3d52"/>
     <use xlink:href="#mb9082e2147" x="562.780765" y="80.651991" style="fill: #1e3d52; stroke: #1e3d52"/>
     <use xlink:href="#mb9082e2147" x="575.420663" y="74.864812" style="fill: #1e3d52; stroke: #1e3d52"/>
     <use xlink:href="#mb9082e2147" x="587.386061" y="68.63819" style="fill: #1e3d52; stroke: #1e3d52"/>
     <use xlink:href="#mb9082e2147" x="599.948688" y="61.262438" style="fill: #1e3d52; stroke: #1e3d52"/>
     <use xlink:href="#mb9082e2147" x="612.319803" y="54.384529" style="fill: #1e3d52; stroke: #1e3d52"/>
     <use xlink:href="#mb9082e2147" x="624.553984" y="45.449078" style="fill: #1e3d52; stroke: #1e3d52"/>
     <use xlink:href="#mb9082e2147" x="636.946652" y="39.386985" style="fill: #1e3d52; stroke: #1e3d52"/>
     <use xlink:href="#mb9082e2147" x="649.352828" y="36.944817" style="fill: #1e3d52; stroke: #1e3d52"/>
     <use xlink:href="#mb9082e2147" x="661.614556" y="29.038615" style="fill: #1e3d52; stroke: #1e3d52"/>
    </g>
   </g>
   <g id="line2d_72">
    <path d="M 402.818173 227.095295 
L 414.783572 215.968116 
L 424.560014 207.37686 
L 432.825879 201.354349 
L 451.951495 186.252739 
L 461.727937 178.287145 
L 473.693336 167.63829 
L 489.119418 156.480193 
L 501.084817 145.998604 
L 512.619514 137.546939 
L 524.92975 127.655175 
L 538.25274 116.435818 
L 550.645407 106.734423 
L 562.780765 97.021299 
L 575.420663 86.714768 
L 587.386061 84.009783 
L 599.948688 66.456929 
L 612.319803 58.348968 
L 624.553984 50.699017 
L 636.946652 39.719846 
L 649.352828 36.673043 
L 661.614556 17.671205 
" clip-path="url(#p0eef3291b0)" style="fill: none; stroke: #c34a22; stroke-width: 1.5; stroke-linecap: square"/>
    <defs>
     <path id="m1750e94c1b" d="M 0 1.75 
C 0.464105 1.75 0.909265 1.565609 1.237437 1.237437 
C 1.565609 0.909265 1.75 0.464105 1.75 0 
C 1.75 -0.464105 1.565609 -0.909265 1.237437 -1.237437 
C 0.909265 -1.565609 0.464105 -1.75 0 -1.75 
C -0.464105 -1.75 -0.909265 -1.565609 -1.237437 -1.237437 
C -1.565609 -0.909265 -1.75 -0.464105 -1.75 0 
C -1.75 0.464105 -1.565609 0.909265 -1.237437 1.237437 
C -0.909265 1.565609 -0.464105 1.75 0 1.75 
z
" style="stroke: #c34a22"/>
    </defs>
    <g clip-path="url(#p0eef3291b0)">
     <use xlink:href="#m1750e94c1b" x="402.818173" y="227.095295" style="fill: #c34a22; stroke: #c34a22"/>
     <use xlink:href="#m1750e94c1b" x="414.783572" y="215.968116" style="fill: #c34a22; stroke: #c34a22"/>
     <use xlink:href="#m1750e94c1b" x="424.560014" y="207.37686" style="fill: #c34a22; stroke: #c34a22"/>
     <use xlink:href="#m1750e94c1b" x="432.825879" y="201.354349" style="fill: #c34a22; stroke: #c34a22"/>
     <use xlink:href="#m1750e94c1b" x="451.951495" y="186.252739" style="fill: #c34a22; stroke: #c34a22"/>
     <use xlink:href="#m1750e94c1b" x="461.727937" y="178.287145" style="fill: #c34a22; stroke: #c34a22"/>
     <use xlink:href="#m1750e94c1b" x="473.693336" y="167.63829" style="fill: #c34a22; stroke: #c34a22"/>
     <use xlink:href="#m1750e94c1b" x="489.119418" y="156.480193" style="fill: #c34a22; stroke: #c34a22"/>
     <use xlink:href="#m1750e94c1b" x="501.084817" y="145.998604" style="fill: #c34a22; stroke: #c34a22"/>
     <use xlink:href="#m1750e94c1b" x="512.619514" y="137.546939" style="fill: #c34a22; stroke: #c34a22"/>
     <use xlink:href="#m1750e94c1b" x="524.92975" y="127.655175" style="fill: #c34a22; stroke: #c34a22"/>
     <use xlink:href="#m1750e94c1b" x="538.25274" y="116.435818" style="fill: #c34a22; stroke: #c34a22"/>
     <use xlink:href="#m1750e94c1b" x="550.645407" y="106.734423" style="fill: #c34a22; stroke: #c34a22"/>
     <use xlink:href="#m1750e94c1b" x="562.780765" y="97.021299" style="fill: #c34a22; stroke: #c34a22"/>
     <use xlink:href="#m1750e94c1b" x="575.420663" y="86.714768" style="fill: #c34a22; stroke: #c34a22"/>
     <use xlink:href="#m1750e94c1b" x="587.386061" y="84.009783" style="fill: #c34a22; stroke: #c34a22"/>
     <use xlink:href="#m1750e94c1b" x="599.948688" y="66.456929" style="fill: #c34a22; stroke: #c34a22"/>
     <use xlink:href="#m1750e94c1b" x="612.319803" y="58.348968" style="fill: #c34a22; stroke: #c34a22"/>
     <use xlink:href="#m1750e94c1b" x="624.553984" y="50.699017" style="fill: #c34a22; stroke: #c34a22"/>
     <use xlink:href="#m1750e94c1b" x="636.946652" y="39.719846" style="fill: #c34a22; stroke: #c34a22"/>
     <use xlink:href="#m1750e94c1b" x="649.352828" y="36.673043" style="fill: #c34a22; stroke: #c34a22"/>
     <use xlink:href="#m1750e94c1b" x="661.614556" y="17.671205" style="fill: #c34a22; stroke: #c34a22"/>
    </g>
   </g>
   <g id="patch_6">
    <path d="M 389.878354 237.5665 
L 389.878354 7.2 
" style="fill: none; stroke: #d8cfbc; stroke-width: 0.8; stroke-linejoin: miter; stroke-linecap: square"/>
   </g>
   <g id="patch_7">
    <path d="M 389.878354 237.5665 
L 674.554375 237.5665 
" style="fill: none; stroke: #d8cfbc; stroke-width: 0.8; stroke-linejoin: miter; stroke-linecap: square"/>
   </g>
   <g id="legend_2">
    <g id="line2d_73">
     <path d="M 399.778354 21.565312 
L 410.778354 21.565312 
L 421.778354 21.565312 
" style="fill: none; stroke: #6f8b6a; stroke-width: 1.5; stroke-linecap: square"/>
     <g>
      <use xlink:href="#me55b419751" x="410.778354" y="21.565312" style="fill: #6f8b6a; stroke: #6f8b6a"/>
     </g>
    </g>
    <g id="text_26">
     <text style="font-size: 11px; font-family: 'Georgia', 'Times New Roman', 'DejaVu Serif', serif; text-anchor: start; fill: #221e17" x="430.578354" y="25.415312" transform="rotate(-0 430.578354 25.415312)">white: α₁=0.59</text>
    </g>
    <g id="line2d_74">
     <path d="M 399.778354 37.76625 
L 410.778354 37.76625 
L 421.778354 37.76625 
" style="fill: none; stroke: #1e3d52; stroke-width: 1.5; stroke-linecap: square"/>
     <g>
      <use xlink:href="#mb9082e2147" x="410.778354" y="37.76625" style="fill: #1e3d52; stroke: #1e3d52"/>
     </g>
    </g>
    <g id="text_27">
     <text style="font-size: 11px; font-family: 'Georgia', 'Times New Roman', 'DejaVu Serif', serif; text-anchor: start; fill: #221e17" x="430.578354" y="41.61625" transform="rotate(-0 430.578354 41.61625)">1/f: α₁=1.03</text>
    </g>
    <g id="line2d_75">
     <path d="M 399.778354 53.967188 
L 410.778354 53.967188 
L 421.778354 53.967188 
" style="fill: none; stroke: #c34a22; stroke-width: 1.5; stroke-linecap: square"/>
     <g>
      <use xlink:href="#m1750e94c1b" x="410.778354" y="53.967188" style="fill: #c34a22; stroke: #c34a22"/>
     </g>
    </g>
    <g id="text_28">
     <text style="font-size: 11px; font-family: 'Georgia', 'Times New Roman', 'DejaVu Serif', serif; text-anchor: start; fill: #221e17" x="430.578354" y="57.817188" transform="rotate(-0 430.578354 57.817188)">Brownian: α₁=1.54</text>
    </g>
   </g>
  </g>
 </g>
 <defs>
  <clipPath id="p6903f8ef6d">
   <rect x="54.204375" y="7.2" width="284.676021" height="230.3665"/>
  </clipPath>
  <clipPath id="p0eef3291b0">
   <rect x="389.878354" y="7.2" width="284.676021" height="230.3665"/>
  </clipPath>
 </defs>
</svg>
