<?xml version="1.0" encoding="utf-8" standalone="no"?>
<!DOCTYPE svg PUBLIC "-//W3C//DTD SVG 1.1//EN"
  "http://www.w3.org/Graphics/SVG/1.1/DTD/svg11.dtd">
<svg xmlns:xlink="http://www.w3.org/1999/xlink" width="681.70125pt" height="277.168375pt" viewBox="0 0 681.70125 277.168375" xmlns="http://www.w3.org/2000/svg" version="1.1">
 <metadata>
  <rdf:RDF xmlns:dc="http://purl.org/dc/elements/1.1/" xmlns:cc="http://creativecommons.org/ns#" xmlns:rdf="http://www.w3.org/1999/02/22-rdf-syntax-ns#">
   <cc:Work>
    <dc:type rdf:resource="http://purl.org/dc/dcmitype/StillImage"/>
    <dc:date>2026-06-12T09:57:39.844196</dc:date>
    <dc:format>image/svg+xml</dc:format>
    <dc:creator>
     <cc:Agent>
      <dc:title>Matplotlib v3.10.8, https://matplotlib.org/</dc:title>
     </cc:Agent>
    </dc:creator>
   </cc:Work>
  </rdf:RDF>
 </metadata>
 <defs>
  <style type="text/css">*{stroke-linejoin: round; stroke-linecap: butt}</style>
 </defs>
 <g id="figure_1">
  <g id="patch_1">
   <path d="M 0 277.168375 
L 681.70125 277.168375 
L 681.70125 0 
L 0 0 
z
" style="fill: #f6f1e7"/>
  </g>
  <g id="axes_1">
   <g id="patch_2">
    <path d="M 53.88125 237.5665 
L 338.894771 237.5665 
L 338.894771 7.2 
L 53.88125 7.2 
z
" style="fill: #f6f1e7"/>
   </g>
   <g id="matplotlib.axis_1">
    <g id="xtick_1">
     <g id="line2d_1">
      <defs>
       <path id="mb3bc850142" d="M 0 0 
L 0 3.5 
" style="stroke: #5c554a; stroke-width: 0.8"/>
      </defs>
      <g>
       <use xlink:href="#mb3bc850142" x="66.83641" y="237.5665" style="fill: #5c554a; stroke: #5c554a; stroke-width: 0.8"/>
      </g>
     </g>
     <g id="text_1">
      <text style="font-size: 11px; font-family: 'Georgia', 'Times New Roman', 'DejaVu Serif', serif; text-anchor: middle; fill: #5c554a" x="66.83641" y="252.881813" transform="rotate(-0 66.83641 252.881813)">0</text>
     </g>
    </g>
    <g id="xtick_2">
     <g id="line2d_2">
      <g>
       <use xlink:href="#mb3bc850142" x="118.865165" y="237.5665" style="fill: #5c554a; stroke: #5c554a; stroke-width: 0.8"/>
      </g>
     </g>
     <g id="text_2">
      <text style="font-size: 11px; font-family: 'Georgia', 'Times New Roman', 'DejaVu Serif', serif; text-anchor: middle; fill: #5c554a" x="118.865165" y="252.881813" transform="rotate(-0 118.865165 252.881813)">50</text>
     </g>
    </g>
    <g id="xtick_3">
     <g id="line2d_3">
      <g>
       <use xlink:href="#mb3bc850142" x="170.89392" y="237.5665" style="fill: #5c554a; stroke: #5c554a; stroke-width: 0.8"/>
      </g>
     </g>
     <g id="text_3">
      <text style="font-size: 11px; font-family: 'Georgia', 'Times New Roman', 'DejaVu Serif', serif; text-anchor: middle; fill: #5c554a" x="170.89392" y="252.881813" transform="rotate(-0 170.89392 252.881813)">100</text>
     </g>
    </g>
    <g id="xtick_4">
     <g id="line2d_4">
      <g>
       <use xlink:href="#mb3bc850142" x="222.922676" y="237.5665" style="fill: #5c554a; stroke: #5c554a; stroke-width: 0.8"/>
      </g>
     </g>
     <g id="text_4">
      <text style="font-size: 11px; font-family: 'Georgia', 'Times New Roman', 'DejaVu Serif', serif; text-anchor: middle; fill: #5c554a" x="222.922676" y="252.881813" transform="rotate(-0 222.922676 252.881813)">150</text>
     </g>
    </g>
    <g id="xtick_5">
     <g id="line2d_5">
      <g>
       <use xlink:href="#mb3bc850142" x="274.951431" y="237.5665" style="fill: #5c554a; stroke: #5c554a; stroke-width: 0.8"/>
      </g>
     </g>
     <g id="text_5">
      <text style="font-size: 11px; font-family: 'Georgia', 'Times New Roman', 'DejaVu Serif', serif; text-anchor: middle; fill: #5c554a" x="274.951431" y="252.881813" transform="rotate(-0 274.951431 252.881813)">200</text>
     </g>
    </g>
    <g id="xtick_6">
     <g id="line2d_6">
      <g>
       <use xlink:href="#mb3bc850142" x="326.980186" y="237.5665" style="fill: #5c554a; stroke: #5c554a; stroke-width: 0.8"/>
      </g>
     </g>
     <g id="text_6">
      <text style="font-size: 11px; font-family: 'Georgia', 'Times New Roman', 'DejaVu Serif', serif; text-anchor: middle; fill: #5c554a" x="326.980186" y="252.881813" transform="rotate(-0 326.980186 252.881813)">250</text>
     </g>
    </g>
    <g id="text_7">
     <text style="font-size: 11px; font-family: 'Georgia', 'Times New Roman', 'DejaVu Serif', serif; text-anchor: middle; fill: #5c554a" x="196.38801" y="267.58275" transform="rotate(-0 196.38801 267.58275)">beat #</text>
    </g>
   </g>
   <g id="matplotlib.axis_2">
    <g id="ytick_1">
     <g id="line2d_7">
      <defs>
       <path id="m51395b12ff" d="M 0 0 
L -3.5 0 
" style="stroke: #5c554a; stroke-width: 0.8"/>
      </defs>
      <g>
       <use xlink:href="#m51395b12ff" x="53.88125" y="217.828025" style="fill: #5c554a; stroke: #5c554a; stroke-width: 0.8"/>
      </g>
     </g>
     <g id="text_8">
      <text style="font-size: 11px; font-family: 'Georgia', 'Times New Roman', 'DejaVu Serif', serif; text-anchor: end; fill: #5c554a" x="46.88125" y="221.985681" transform="rotate(-0 46.88125 221.985681)">400</text>
     </g>
    </g>
    <g id="ytick_2">
     <g id="line2d_8">
      <g>
       <use xlink:href="#m51395b12ff" x="53.88125" y="176.649064" style="fill: #5c554a; stroke: #5c554a; stroke-width: 0.8"/>
      </g>
     </g>
     <g id="text_9">
      <text style="font-size: 11px; font-family: 'Georgia', 'Times New Roman', 'DejaVu Serif', serif; text-anchor: end; fill: #5c554a" x="46.88125" y="180.806721" transform="rotate(-0 46.88125 180.806721)">600</text>
     </g>
    </g>
    <g id="ytick_3">
     <g id="line2d_9">
      <g>
       <use xlink:href="#m51395b12ff" x="53.88125" y="135.470104" style="fill: #5c554a; stroke: #5c554a; stroke-width: 0.8"/>
      </g>
     </g>
     <g id="text_10">
      <text style="font-size: 11px; font-family: 'Georgia', 'Times New Roman', 'DejaVu Serif', serif; text-anchor: end; fill: #5c554a" x="46.88125" y="139.62776" transform="rotate(-0 46.88125 139.62776)">800</text>
     </g>
    </g>
    <g id="ytick_4">
     <g id="line2d_10">
      <g>
       <use xlink:href="#m51395b12ff" x="53.88125" y="94.291143" style="fill: #5c554a; stroke: #5c554a; stroke-width: 0.8"/>
      </g>
     </g>
     <g id="text_11">
      <text style="font-size: 11px; font-family: 'Georgia', 'Times New Roman', 'DejaVu Serif', serif; text-anchor: end; fill: #5c554a" x="46.88125" y="98.448799" transform="rotate(-0 46.88125 98.448799)">1000</text>
     </g>
    </g>
    <g id="ytick_5">
     <g id="line2d_11">
      <g>
       <use xlink:href="#m51395b12ff" x="53.88125" y="53.112182" style="fill: #5c554a; stroke: #5c554a; stroke-width: 0.8"/>
      </g>
     </g>
     <g id="text_12">
      <text style="font-size: 11px; font-family: 'Georgia', 'Times New Roman', 'DejaVu Serif', serif; text-anchor: end; fill: #5c554a" x="46.88125" y="57.269839" transform="rotate(-0 46.88125 57.269839)">1200</text>
     </g>
    </g>
    <g id="ytick_6">
     <g id="line2d_12">
      <g>
       <use xlink:href="#m51395b12ff" x="53.88125" y="11.933222" style="fill: #5c554a; stroke: #5c554a; stroke-width: 0.8"/>
      </g>
     </g>
     <g id="text_13">
      <text style="font-size: 11px; font-family: 'Georgia', 'Times New Roman', 'DejaVu Serif', serif; text-anchor: end; fill: #5c554a" x="46.88125" y="16.090878" transform="rotate(-0 46.88125 16.090878)">1400</text>
     </g>
    </g>
    <g id="text_14">
     <text style="font-size: 11px; font-family: 'Georgia', 'Times New Roman', 'DejaVu Serif', serif; text-anchor: middle; fill: #5c554a" x="15.515313" y="122.38325" transform="rotate(-90 15.515313 122.38325)">RR (ms)</text>
    </g>
   </g>
   <g id="line2d_13">
    <path d="M 66.83641 125.32152 
L 67.876985 124.600023 
L 68.91756 123.682359 
L 69.958135 123.54437 
L 70.99871 120.350237 
L 72.039286 128.667447 
L 73.079861 129.115102 
L 74.120436 130.912917 
L 75.161011 138.451373 
L 76.201586 135.07474 
L 77.242161 141.924914 
L 78.282736 134.584649 
L 79.323311 135.48137 
L 80.363886 137.329838 
L 81.404461 136.237023 
L 82.445037 133.601293 
L 83.485612 121.817053 
L 85.566762 133.910208 
L 86.607337 136.551254 
L 87.647912 134.515837 
L 88.688487 130.151 
L 89.729062 130.062816 
L 90.769637 131.151172 
L 92.850788 119.149266 
L 93.891363 120.251509 
L 94.931938 127.107584 
L 95.972513 126.834568 
L 97.013088 120.076063 
L 98.053663 127.225899 
L 99.094238 120.506116 
L 100.134813 104.987054 
L 101.175388 123.83724 
L 102.215964 119.819425 
L 103.256539 117.918371 
L 104.297114 114.657938 
L 105.337689 129.326627 
L 106.378264 131.131535 
L 107.418839 125.758743 
L 108.459414 123.548086 
L 109.499989 123.646769 
L 110.540564 115.239187 
L 111.581139 117.825263 
L 112.621715 119.967194 
L 113.66229 116.92317 
L 114.702865 112.56304 
L 115.74344 110.76668 
L 116.784015 117.365491 
L 117.82459 121.135689 
L 118.865165 125.719384 
L 119.90574 133.852023 
L 120.946315 130.069984 
L 121.986891 119.929466 
L 123.027466 126.877985 
L 124.068041 120.736285 
L 125.108616 121.723618 
L 126.149191 117.372374 
L 127.189766 116.879194 
L 128.230341 124.63178 
L 129.270916 127.34531 
L 130.311491 124.585091 
L 131.352066 123.811743 
L 132.392642 121.857131 
L 133.433217 130.453204 
L 134.473792 124.708157 
L 135.514367 134.267483 
L 136.554942 130.627855 
L 137.595517 125.591122 
L 138.636092 124.145369 
L 139.676667 129.735183 
L 141.757818 122.419633 
L 142.798393 123.360278 
L 143.838968 134.176496 
L 144.879543 131.767231 
L 145.920118 132.488785 
L 146.960693 130.138355 
L 149.041843 147.535841 
L 150.082418 140.163796 
L 151.122993 138.095263 
L 152.163569 129.527882 
L 153.204144 129.301815 
L 154.244719 137.574599 
L 155.285294 139.01619 
L 156.325869 120.32313 
L 157.366444 134.240487 
L 158.407019 135.098094 
L 159.447594 131.423809 
L 160.488169 116.11 
L 161.528744 118.83788 
L 162.56932 128.870711 
L 163.609895 127.431043 
L 164.65047 131.906171 
L 165.691045 131.736578 
L 166.73162 143.485075 
L 167.772195 141.112182 
L 168.81277 133.723446 
L 169.853345 137.897468 
L 170.89392 135.140855 
L 171.934496 141.465123 
L 172.975071 135.049339 
L 174.015646 134.247994 
L 175.056221 128.653536 
L 176.096796 133.320671 
L 177.137371 137.157061 
L 178.177946 128.362928 
L 179.218521 134.000218 
L 180.259096 135.117167 
L 181.299671 135.623828 
L 182.340247 130.658068 
L 183.380822 139.658357 
L 184.421397 134.058611 
L 185.461972 134.449866 
L 186.502547 130.862694 
L 187.543122 128.410751 
L 188.583697 132.116335 
L 189.624272 128.364517 
L 190.664847 127.544037 
L 191.705422 129.831311 
L 192.745998 130.143838 
L 193.786573 129.035743 
L 194.827148 130.007814 
L 195.867723 136.130605 
L 196.908298 137.867035 
L 197.948873 131.662055 
L 198.989448 128.963248 
L 200.030023 130.709383 
L 201.070598 133.379844 
L 202.111174 127.841357 
L 203.151749 126.352915 
L 204.192324 124.561659 
L 205.232899 140.112258 
L 206.273474 141.900243 
L 207.314049 133.055639 
L 208.354624 129.845612 
L 209.395199 128.033803 
L 210.435774 130.850776 
L 211.476349 126.392384 
L 212.516925 126.774091 
L 213.5575 134.458191 
L 214.598075 134.39977 
L 215.63865 136.50947 
L 216.679225 139.655029 
L 217.7198 140.711153 
L 218.760375 134.299716 
L 219.80095 141.896922 
L 220.841525 140.662009 
L 221.8821 131.867451 
L 222.922676 137.762278 
L 223.963251 129.950964 
L 225.003826 127.794417 
L 226.044401 127.00889 
L 227.084976 136.293748 
L 228.125551 139.467935 
L 229.166126 141.241751 
L 230.206701 131.100544 
L 231.247276 136.497764 
L 232.287852 136.083474 
L 233.328427 142.784032 
L 234.369002 137.601676 
L 235.409577 133.585067 
L 236.450152 130.912922 
L 237.490727 130.229595 
L 238.531302 132.211736 
L 239.571877 137.365255 
L 240.612452 126.984055 
L 241.653027 135.111804 
L 242.693603 145.670022 
L 243.734178 139.306064 
L 244.774753 145.415157 
L 245.815328 145.388521 
L 246.855903 142.351435 
L 247.896478 136.442375 
L 248.937053 134.850659 
L 249.977628 144.296334 
L 251.018203 146.053961 
L 252.058778 140.153625 
L 253.099354 140.200332 
L 254.139929 141.699609 
L 255.180504 145.219511 
L 256.221079 149.562926 
L 257.261654 139.667824 
L 258.302229 143.4997 
L 259.342804 134.56998 
L 260.383379 137.787673 
L 261.423954 147.507086 
L 263.505105 151.115471 
L 264.54568 155.983643 
L 265.586255 144.978957 
L 266.62683 137.601521 
L 267.667405 144.686114 
L 268.70798 136.656214 
L 269.748555 136.608683 
L 270.78913 129.933075 
L 271.829705 126.682117 
L 272.870281 125.252787 
L 273.910856 124.531495 
L 274.951431 135.331612 
L 275.992006 130.045121 
L 277.032581 134.229488 
L 278.073156 143.807685 
L 279.113731 146.060288 
L 280.154306 133.353984 
L 281.194881 142.669109 
L 282.235457 142.137221 
L 283.276032 140.670956 
L 284.316607 144.26277 
L 285.357182 144.63778 
L 286.397757 138.350836 
L 287.438332 140.462406 
L 288.478907 138.001246 
L 289.519482 141.692714 
L 290.560057 140.154229 
L 291.600632 141.997354 
L 292.641208 135.463482 
L 293.681783 130.389071 
L 294.722358 137.216278 
L 295.762933 137.455255 
L 296.803508 131.972553 
L 297.844083 138.939726 
L 298.884658 139.735953 
L 299.925233 138.072995 
L 302.006383 131.491201 
L 303.046959 129.917971 
L 304.087534 136.014253 
L 305.128109 134.38661 
L 306.168684 127.602237 
L 307.209259 138.503325 
L 308.249834 128.050486 
L 309.290409 131.336083 
L 310.330984 125.862412 
L 311.371559 127.552007 
L 312.412135 130.392961 
L 313.45271 129.223878 
L 314.493285 125.153722 
L 315.53386 117.265906 
L 316.574435 127.365321 
L 317.61501 124.405336 
L 318.655585 123.080779 
L 319.69616 129.703585 
L 320.736735 135.599425 
L 321.77731 125.849152 
L 322.817886 126.609743 
L 323.858461 125.449786 
L 324.899036 131.549076 
L 325.939611 125.007165 
L 325.939611 125.007165 
" clip-path="url(#p185b6345ad)" style="fill: none; stroke: #1e3d52; stroke-width: 0.9; stroke-linecap: square"/>
   </g>
   <g id="line2d_14">
    <path d="M 66.83641 125.32152 
L 67.876985 124.600023 
L 68.91756 123.682359 
L 69.958135 123.54437 
L 70.99871 120.350237 
L 72.039286 128.667447 
L 73.079861 129.115102 
L 74.120436 224.013083 
L 75.161011 49.497358 
L 76.201586 135.07474 
L 77.242161 141.924914 
L 78.282736 134.584649 
L 79.323311 135.48137 
L 80.363886 137.329838 
L 81.404461 136.237023 
L 82.445037 133.601293 
L 83.485612 121.817053 
L 85.566762 133.910208 
L 86.607337 136.551254 
L 87.647912 134.515837 
L 88.688487 130.151 
L 89.729062 130.062816 
L 90.769637 131.151172 
L 92.850788 119.149266 
L 93.891363 120.251509 
L 94.931938 127.107584 
L 95.972513 126.834568 
L 97.013088 120.076063 
L 98.053663 127.225899 
L 99.094238 120.506116 
L 100.134813 104.987054 
L 101.175388 123.83724 
L 102.215964 219.021012 
L 103.256539 17.671205 
L 104.297114 114.657938 
L 105.337689 129.326627 
L 106.378264 131.131535 
L 107.418839 125.758743 
L 108.459414 123.548086 
L 109.499989 123.646769 
L 110.540564 115.239187 
L 111.581139 117.825263 
L 112.621715 119.967194 
L 113.66229 116.92317 
L 114.702865 112.56304 
L 115.74344 110.76668 
L 116.784015 117.365491 
L 117.82459 121.135689 
L 118.865165 125.719384 
L 119.90574 133.852023 
L 120.946315 130.069984 
L 121.986891 119.929466 
L 123.027466 126.877985 
L 124.068041 120.736285 
L 125.108616 121.723618 
L 126.149191 117.372374 
L 127.189766 116.879194 
L 128.230341 124.63178 
L 129.270916 127.34531 
L 130.311491 124.585091 
L 131.352066 123.811743 
L 132.392642 121.857131 
L 133.433217 130.453204 
L 134.473792 124.708157 
L 135.514367 134.267483 
L 136.554942 130.627855 
L 137.595517 221.618275 
L 138.636092 27.323051 
L 139.676667 129.735183 
L 141.757818 122.419633 
L 142.798393 123.360278 
L 143.838968 134.176496 
L 144.879543 131.767231 
L 145.920118 132.488785 
L 146.960693 130.138355 
L 149.041843 147.535841 
L 150.082418 140.163796 
L 151.122993 138.095263 
L 152.163569 223.389817 
L 153.204144 35.315543 
L 154.244719 137.574599 
L 155.285294 139.01619 
L 156.325869 120.32313 
L 157.366444 134.240487 
L 158.407019 135.098094 
L 159.447594 131.423809 
L 160.488169 116.11 
L 161.528744 118.83788 
L 162.56932 128.870711 
L 163.609895 127.431043 
L 164.65047 131.906171 
L 165.691045 131.736578 
L 166.73162 143.485075 
L 167.772195 141.112182 
L 168.81277 133.723446 
L 169.853345 137.897468 
L 170.89392 135.140855 
L 171.934496 141.465123 
L 172.975071 135.049339 
L 174.015646 134.247994 
L 175.056221 128.653536 
L 176.096796 133.320671 
L 177.137371 137.157061 
L 178.177946 128.362928 
L 179.218521 134.000218 
L 180.259096 135.117167 
L 181.299671 135.623828 
L 182.340247 130.658068 
L 183.380822 139.658357 
L 184.421397 134.058611 
L 185.461972 134.449866 
L 186.502547 130.862694 
L 187.543122 128.410751 
L 188.583697 132.116335 
L 189.624272 128.364517 
L 190.664847 127.544037 
L 191.705422 129.831311 
L 192.745998 130.143838 
L 193.786573 129.035743 
L 194.827148 130.007814 
L 195.867723 136.130605 
L 196.908298 137.867035 
L 197.948873 131.662055 
L 198.989448 128.963248 
L 200.030023 130.709383 
L 201.070598 133.379844 
L 202.111174 127.841357 
L 203.151749 126.352915 
L 204.192324 124.561659 
L 205.232899 140.112258 
L 206.273474 141.900243 
L 207.314049 133.055639 
L 208.354624 129.845612 
L 209.395199 128.033803 
L 210.435774 130.850776 
L 211.476349 126.392384 
L 212.516925 126.774091 
L 213.5575 134.458191 
L 214.598075 134.39977 
L 215.63865 136.50947 
L 216.679225 139.655029 
L 217.7198 140.711153 
L 218.760375 134.299716 
L 219.80095 141.896922 
L 220.841525 140.662009 
L 221.8821 131.867451 
L 222.922676 227.095295 
L 223.963251 36.321724 
L 225.003826 127.794417 
L 226.044401 127.00889 
L 227.084976 136.293748 
L 228.125551 139.467935 
L 229.166126 141.241751 
L 230.206701 131.100544 
L 231.247276 136.497764 
L 232.287852 136.083474 
L 233.328427 142.784032 
L 234.369002 137.601676 
L 235.409577 133.585067 
L 236.450152 130.912922 
L 237.490727 130.229595 
L 238.531302 132.211736 
L 239.571877 137.365255 
L 240.612452 126.984055 
L 241.653027 135.111804 
L 242.693603 145.670022 
L 243.734178 139.306064 
L 244.774753 145.415157 
L 245.815328 145.388521 
L 246.855903 142.351435 
L 247.896478 136.442375 
L 248.937053 134.850659 
L 249.977628 144.296334 
L 251.018203 146.053961 
L 252.058778 140.153625 
L 253.099354 140.200332 
L 254.139929 141.699609 
L 255.180504 145.219511 
L 256.221079 149.562926 
L 257.261654 139.667824 
L 258.302229 143.4997 
L 259.342804 134.56998 
L 260.383379 137.787673 
L 261.423954 147.507086 
L 263.505105 151.115471 
L 264.54568 155.983643 
L 265.586255 144.978957 
L 266.62683 137.601521 
L 267.667405 144.686114 
L 268.70798 136.656214 
L 269.748555 136.608683 
L 270.78913 129.933075 
L 271.829705 126.682117 
L 272.870281 125.252787 
L 273.910856 124.531495 
L 274.951431 135.331612 
L 275.992006 130.045121 
L 277.032581 134.229488 
L 278.073156 143.807685 
L 279.113731 146.060288 
L 280.154306 133.353984 
L 281.194881 142.669109 
L 282.235457 142.137221 
L 283.276032 140.670956 
L 284.316607 144.26277 
L 285.357182 144.63778 
L 286.397757 138.350836 
L 287.438332 140.462406 
L 288.478907 138.001246 
L 289.519482 141.692714 
L 290.560057 140.154229 
L 291.600632 141.997354 
L 292.641208 135.463482 
L 293.681783 130.389071 
L 294.722358 137.216278 
L 295.762933 137.455255 
L 296.803508 131.972553 
L 297.844083 138.939726 
L 298.884658 139.735953 
L 299.925233 138.072995 
L 302.006383 131.491201 
L 303.046959 129.917971 
L 304.087534 136.014253 
L 305.128109 134.38661 
L 306.168684 127.602237 
L 307.209259 138.503325 
L 308.249834 128.050486 
L 309.290409 131.336083 
L 310.330984 125.862412 
L 311.371559 127.552007 
L 312.412135 130.392961 
L 313.45271 129.223878 
L 314.493285 125.153722 
L 315.53386 117.265906 
L 316.574435 127.365321 
L 317.61501 124.405336 
L 318.655585 123.080779 
L 319.69616 129.703585 
L 320.736735 135.599425 
L 321.77731 125.849152 
L 322.817886 126.609743 
L 323.858461 125.449786 
L 324.899036 131.549076 
L 325.939611 125.007165 
L 325.939611 125.007165 
" clip-path="url(#p185b6345ad)" style="fill: none; stroke: #c34a22; stroke-opacity: 0.85; stroke-width: 0.8; stroke-linecap: square"/>
   </g>
   <g id="patch_3">
    <path d="M 53.88125 237.5665 
L 53.88125 7.2 
" style="fill: none; stroke: #d8cfbc; stroke-width: 0.8; stroke-linejoin: miter; stroke-linecap: square"/>
   </g>
   <g id="patch_4">
    <path d="M 53.88125 237.5665 
L 338.894771 237.5665 
" style="fill: none; stroke: #d8cfbc; stroke-width: 0.8; stroke-linejoin: miter; stroke-linecap: square"/>
   </g>
   <g id="legend_1">
    <g id="line2d_15">
     <path d="M 233.753677 21.565312 
L 244.753677 21.565312 
L 255.753677 21.565312 
" style="fill: none; stroke: #1e3d52; stroke-width: 0.9; stroke-linecap: square"/>
    </g>
    <g id="text_15">
     <text style="font-size: 11px; font-family: 'Georgia', 'Times New Roman', 'DejaVu Serif', serif; text-anchor: start; fill: #221e17" x="264.553677" y="25.415312" transform="rotate(-0 264.553677 25.415312)">clean</text>
    </g>
    <g id="line2d_16">
     <path d="M 233.753677 37.76625 
L 244.753677 37.76625 
L 255.753677 37.76625 
" style="fill: none; stroke: #c34a22; stroke-opacity: 0.85; stroke-width: 0.8; stroke-linecap: square"/>
    </g>
    <g id="text_16">
     <text style="font-size: 11px; font-family: 'Georgia', 'Times New Roman', 'DejaVu Serif', serif; text-anchor: start; fill: #221e17" x="264.553677" y="41.61625" transform="rotate(-0 264.553677 41.61625)">1.5% ectopics</text>
    </g>
   </g>
  </g>
  <g id="axes_2">
   <g id="patch_5">
    <path d="M 389.487729 237.5665 
L 674.50125 237.5665 
L 674.50125 7.2 
L 389.487729 7.2 
z
" style="fill: #f6f1e7"/>
   </g>
   <g id="matplotlib.axis_3">
    <g id="xtick_7">
     <g id="line2d_17">
      <g>
       <use xlink:href="#mb3bc850142" x="451.634461" y="237.5665" style="fill: #5c554a; stroke: #5c554a; stroke-width: 0.8"/>
      </g>
     </g>
     <g id="text_17">
      <!-- $\mathdefault{10^{1}}$ -->
      <g style="fill: #5c554a" transform="translate(444.044461 252.881813)">
       <text>
        <tspan x="0" y="-0.135938" style="font-size: 11px; font-family: 'Georgia'; fill: #5c554a">1</tspan>
        <tspan x="4.726562" y="-0.135938" style="font-size: 11px; font-family: 'Georgia'; fill: #5c554a">0</tspan>
        <tspan x="11.570723" y="-3.84375" style="font-size: 7.7px; font-family: 'Georgia'; fill: #5c554a">1</tspan>
       </text>
      </g>
     </g>
    </g>
    <g id="xtick_8">
     <g id="line2d_18">
      <g>
       <use xlink:href="#mb3bc850142" x="575.250009" y="237.5665" style="fill: #5c554a; stroke: #5c554a; stroke-width: 0.8"/>
      </g>
     </g>
     <g id="text_18">
      <!-- $\mathdefault{10^{2}}$ -->
      <g style="fill: #5c554a" transform="translate(567.165009 252.881813)">
       <text>
        <tspan x="0" y="-0.135938" style="font-size: 11px; font-family: 'Georgia'; fill: #5c554a">1</tspan>
        <tspan x="4.726562" y="-0.135938" style="font-size: 11px; font-family: 'Georgia'; fill: #5c554a">0</tspan>
        <tspan x="11.570723" y="-3.84375" style="font-size: 7.7px; font-family: 'Georgia'; fill: #5c554a">2</tspan>
       </text>
      </g>
     </g>
    </g>
    <g id="xtick_9">
     <g id="line2d_19">
      <defs>
       <path id="mbc2da7bdf6" d="M 0 0 
L 0 2 
" style="stroke: #5c554a; stroke-width: 0.6"/>
      </defs>
      <g>
       <use xlink:href="#mbc2da7bdf6" x="402.442889" y="237.5665" style="fill: #5c554a; stroke: #5c554a; stroke-width: 0.6"/>
      </g>
     </g>
    </g>
    <g id="xtick_10">
     <g id="line2d_20">
      <g>
       <use xlink:href="#mbc2da7bdf6" x="414.422473" y="237.5665" style="fill: #5c554a; stroke: #5c554a; stroke-width: 0.6"/>
      </g>
     </g>
    </g>
    <g id="xtick_11">
     <g id="line2d_21">
      <g>
       <use xlink:href="#mbc2da7bdf6" x="424.210507" y="237.5665" style="fill: #5c554a; stroke: #5c554a; stroke-width: 0.6"/>
      </g>
     </g>
    </g>
    <g id="xtick_12">
     <g id="line2d_22">
      <g>
       <use xlink:href="#mbc2da7bdf6" x="432.486171" y="237.5665" style="fill: #5c554a; stroke: #5c554a; stroke-width: 0.6"/>
      </g>
     </g>
    </g>
    <g id="xtick_13">
     <g id="line2d_23">
      <g>
       <use xlink:href="#mbc2da7bdf6" x="439.654877" y="237.5665" style="fill: #5c554a; stroke: #5c554a; stroke-width: 0.6"/>
      </g>
     </g>
    </g>
    <g id="xtick_14">
     <g id="line2d_24">
      <g>
       <use xlink:href="#mbc2da7bdf6" x="445.978124" y="237.5665" style="fill: #5c554a; stroke: #5c554a; stroke-width: 0.6"/>
      </g>
     </g>
    </g>
    <g id="xtick_15">
     <g id="line2d_25">
      <g>
       <use xlink:href="#mbc2da7bdf6" x="488.846449" y="237.5665" style="fill: #5c554a; stroke: #5c554a; stroke-width: 0.6"/>
      </g>
     </g>
    </g>
    <g id="xtick_16">
     <g id="line2d_26">
      <g>
       <use xlink:href="#mbc2da7bdf6" x="510.614066" y="237.5665" style="fill: #5c554a; stroke: #5c554a; stroke-width: 0.6"/>
      </g>
     </g>
    </g>
    <g id="xtick_17">
     <g id="line2d_27">
      <g>
       <use xlink:href="#mbc2da7bdf6" x="526.058437" y="237.5665" style="fill: #5c554a; stroke: #5c554a; stroke-width: 0.6"/>
      </g>
     </g>
    </g>
    <g id="xtick_18">
     <g id="line2d_28">
      <g>
       <use xlink:href="#mbc2da7bdf6" x="538.038021" y="237.5665" style="fill: #5c554a; stroke: #5c554a; stroke-width: 0.6"/>
      </g>
     </g>
    </g>
    <g id="xtick_19">
     <g id="line2d_29">
      <g>
       <use xlink:href="#mbc2da7bdf6" x="547.826054" y="237.5665" style="fill: #5c554a; stroke: #5c554a; stroke-width: 0.6"/>
      </g>
     </g>
    </g>
    <g id="xtick_20">
     <g id="line2d_30">
      <g>
       <use xlink:href="#mbc2da7bdf6" x="556.101718" y="237.5665" style="fill: #5c554a; stroke: #5c554a; stroke-width: 0.6"/>
      </g>
     </g>
    </g>
    <g id="xtick_21">
     <g id="line2d_31">
      <g>
       <use xlink:href="#mbc2da7bdf6" x="563.270424" y="237.5665" style="fill: #5c554a; stroke: #5c554a; stroke-width: 0.6"/>
      </g>
     </g>
    </g>
    <g id="xtick_22">
     <g id="line2d_32">
      <g>
       <use xlink:href="#mbc2da7bdf6" x="569.593672" y="237.5665" style="fill: #5c554a; stroke: #5c554a; stroke-width: 0.6"/>
      </g>
     </g>
    </g>
    <g id="xtick_23">
     <g id="line2d_33">
      <g>
       <use xlink:href="#mbc2da7bdf6" x="612.461997" y="237.5665" style="fill: #5c554a; stroke: #5c554a; stroke-width: 0.6"/>
      </g>
     </g>
    </g>
    <g id="xtick_24">
     <g id="line2d_34">
      <g>
       <use xlink:href="#mbc2da7bdf6" x="634.229614" y="237.5665" style="fill: #5c554a; stroke: #5c554a; stroke-width: 0.6"/>
      </g>
     </g>
    </g>
    <g id="xtick_25">
     <g id="line2d_35">
      <g>
       <use xlink:href="#mbc2da7bdf6" x="649.673984" y="237.5665" style="fill: #5c554a; stroke: #5c554a; stroke-width: 0.6"/>
      </g>
     </g>
    </g>
    <g id="xtick_26">
     <g id="line2d_36">
      <g>
       <use xlink:href="#mbc2da7bdf6" x="661.653569" y="237.5665" style="fill: #5c554a; stroke: #5c554a; stroke-width: 0.6"/>
      </g>
     </g>
    </g>
    <g id="xtick_27">
     <g id="line2d_37">
      <g>
       <use xlink:href="#mbc2da7bdf6" x="671.441602" y="237.5665" style="fill: #5c554a; stroke: #5c554a; stroke-width: 0.6"/>
      </g>
     </g>
    </g>
    <g id="text_19">
     <text style="font-size: 11px; font-family: 'Georgia', 'Times New Roman', 'DejaVu Serif', serif; text-anchor: middle; fill: #5c554a" x="531.99449" y="267.58275" transform="rotate(-0 531.99449 267.58275)">scale n (beats)</text>
    </g>
   </g>
   <g id="matplotlib.axis_4">
    <g id="ytick_7">
     <g id="line2d_38">
      <g>
       <use xlink:href="#m51395b12ff" x="389.487729" y="227.944007" style="fill: #5c554a; stroke: #5c554a; stroke-width: 0.8"/>
      </g>
     </g>
     <g id="text_20">
      <!-- $\mathdefault{10^{1}}$ -->
      <g style="fill: #5c554a" transform="translate(367.307729 232.101664)">
       <text>
        <tspan x="0" y="-0.135938" style="font-size: 11px; font-family: 'Georgia'; fill: #5c554a">1</tspan>
        <tspan x="4.726562" y="-0.135938" style="font-size: 11px; font-family: 'Georgia'; fill: #5c554a">0</tspan>
        <tspan x="11.570723" y="-3.84375" style="font-size: 7.7px; font-family: 'Georgia'; fill: #5c554a">1</tspan>
       </text>
      </g>
     </g>
    </g>
    <g id="ytick_8">
     <g id="line2d_39">
      <g>
       <use xlink:href="#m51395b12ff" x="389.487729" y="132.912633" style="fill: #5c554a; stroke: #5c554a; stroke-width: 0.8"/>
      </g>
     </g>
     <g id="text_21">
      <!-- $\mathdefault{10^{2}}$ -->
      <g style="fill: #5c554a" transform="translate(366.317729 137.070289)">
       <text>
        <tspan x="0" y="-0.135938" style="font-size: 11px; font-family: 'Georgia'; fill: #5c554a">1</tspan>
        <tspan x="4.726562" y="-0.135938" style="font-size: 11px; font-family: 'Georgia'; fill: #5c554a">0</tspan>
        <tspan x="11.570723" y="-3.84375" style="font-size: 7.7px; font-family: 'Georgia'; fill: #5c554a">2</tspan>
       </text>
      </g>
     </g>
    </g>
    <g id="ytick_9">
     <g id="line2d_40">
      <g>
       <use xlink:href="#m51395b12ff" x="389.487729" y="37.881259" style="fill: #5c554a; stroke: #5c554a; stroke-width: 0.8"/>
      </g>
     </g>
     <g id="text_22">
      <!-- $\mathdefault{10^{3}}$ -->
      <g style="fill: #5c554a" transform="translate(366.317729 42.038915)">
       <text>
        <tspan x="0" y="-0.135938" style="font-size: 11px; font-family: 'Georgia'; fill: #5c554a">1</tspan>
        <tspan x="4.726562" y="-0.135938" style="font-size: 11px; font-family: 'Georgia'; fill: #5c554a">0</tspan>
        <tspan x="11.570723" y="-3.84375" style="font-size: 7.7px; font-family: 'Georgia'; fill: #5c554a">3</tspan>
       </text>
      </g>
     </g>
    </g>
    <g id="ytick_10">
     <g id="line2d_41">
      <defs>
       <path id="m83da500d20" d="M 0 0 
L -2 0 
" style="stroke: #5c554a; stroke-width: 0.6"/>
      </defs>
      <g>
       <use xlink:href="#m83da500d20" x="389.487729" y="237.153499" style="fill: #5c554a; stroke: #5c554a; stroke-width: 0.6"/>
      </g>
     </g>
    </g>
    <g id="ytick_11">
     <g id="line2d_42">
      <g>
       <use xlink:href="#m83da500d20" x="389.487729" y="232.292405" style="fill: #5c554a; stroke: #5c554a; stroke-width: 0.6"/>
      </g>
     </g>
    </g>
    <g id="ytick_12">
     <g id="line2d_43">
      <g>
       <use xlink:href="#m83da500d20" x="389.487729" y="199.336713" style="fill: #5c554a; stroke: #5c554a; stroke-width: 0.6"/>
      </g>
     </g>
    </g>
    <g id="ytick_13">
     <g id="line2d_44">
      <g>
       <use xlink:href="#m83da500d20" x="389.487729" y="182.602519" style="fill: #5c554a; stroke: #5c554a; stroke-width: 0.6"/>
      </g>
     </g>
    </g>
    <g id="ytick_14">
     <g id="line2d_45">
      <g>
       <use xlink:href="#m83da500d20" x="389.487729" y="170.729419" style="fill: #5c554a; stroke: #5c554a; stroke-width: 0.6"/>
      </g>
     </g>
    </g>
    <g id="ytick_15">
     <g id="line2d_46">
      <g>
       <use xlink:href="#m83da500d20" x="389.487729" y="161.519927" style="fill: #5c554a; stroke: #5c554a; stroke-width: 0.6"/>
      </g>
     </g>
    </g>
    <g id="ytick_16">
     <g id="line2d_47">
      <g>
       <use xlink:href="#m83da500d20" x="389.487729" y="153.995225" style="fill: #5c554a; stroke: #5c554a; stroke-width: 0.6"/>
      </g>
     </g>
    </g>
    <g id="ytick_17">
     <g id="line2d_48">
      <g>
       <use xlink:href="#m83da500d20" x="389.487729" y="147.633179" style="fill: #5c554a; stroke: #5c554a; stroke-width: 0.6"/>
      </g>
     </g>
    </g>
    <g id="ytick_18">
     <g id="line2d_49">
      <g>
       <use xlink:href="#m83da500d20" x="389.487729" y="142.122125" style="fill: #5c554a; stroke: #5c554a; stroke-width: 0.6"/>
      </g>
     </g>
    </g>
    <g id="ytick_19">
     <g id="line2d_50">
      <g>
       <use xlink:href="#m83da500d20" x="389.487729" y="137.26103" style="fill: #5c554a; stroke: #5c554a; stroke-width: 0.6"/>
      </g>
     </g>
    </g>
    <g id="ytick_20">
     <g id="line2d_51">
      <g>
       <use xlink:href="#m83da500d20" x="389.487729" y="104.305339" style="fill: #5c554a; stroke: #5c554a; stroke-width: 0.6"/>
      </g>
     </g>
    </g>
    <g id="ytick_21">
     <g id="line2d_52">
      <g>
       <use xlink:href="#m83da500d20" x="389.487729" y="87.571144" style="fill: #5c554a; stroke: #5c554a; stroke-width: 0.6"/>
      </g>
     </g>
    </g>
    <g id="ytick_22">
     <g id="line2d_53">
      <g>
       <use xlink:href="#m83da500d20" x="389.487729" y="75.698045" style="fill: #5c554a; stroke: #5c554a; stroke-width: 0.6"/>
      </g>
     </g>
    </g>
    <g id="ytick_23">
     <g id="line2d_54">
      <g>
       <use xlink:href="#m83da500d20" x="389.487729" y="66.488553" style="fill: #5c554a; stroke: #5c554a; stroke-width: 0.6"/>
      </g>
     </g>
    </g>
    <g id="ytick_24">
     <g id="line2d_55">
      <g>
       <use xlink:href="#m83da500d20" x="389.487729" y="58.96385" style="fill: #5c554a; stroke: #5c554a; stroke-width: 0.6"/>
      </g>
     </g>
    </g>
    <g id="ytick_25">
     <g id="line2d_56">
      <g>
       <use xlink:href="#m83da500d20" x="389.487729" y="52.601805" style="fill: #5c554a; stroke: #5c554a; stroke-width: 0.6"/>
      </g>
     </g>
    </g>
    <g id="ytick_26">
     <g id="line2d_57">
      <g>
       <use xlink:href="#m83da500d20" x="389.487729" y="47.09075" style="fill: #5c554a; stroke: #5c554a; stroke-width: 0.6"/>
      </g>
     </g>
    </g>
    <g id="ytick_27">
     <g id="line2d_58">
      <g>
       <use xlink:href="#m83da500d20" x="389.487729" y="42.229656" style="fill: #5c554a; stroke: #5c554a; stroke-width: 0.6"/>
      </g>
     </g>
    </g>
    <g id="ytick_28">
     <g id="line2d_59">
      <g>
       <use xlink:href="#m83da500d20" x="389.487729" y="9.273964" style="fill: #5c554a; stroke: #5c554a; stroke-width: 0.6"/>
      </g>
     </g>
    </g>
    <g id="text_23">
     <text style="font-size: 11px; font-family: 'Georgia', 'Times New Roman', 'DejaVu Serif', serif; text-anchor: middle; fill: #5c554a" x="359.932104" y="122.38325" transform="rotate(-90 359.932104 122.38325)">F(n)</text>
    </g>
   </g>
   <g id="line2d_60">
    <path d="M 402.442889 227.095295 
L 414.422473 214.694625 
L 424.210507 206.602497 
L 432.486171 200.552769 
L 451.634461 186.901744 
L 461.422494 178.605335 
L 473.402079 169.235519 
L 488.846449 158.875439 
L 500.826033 149.483879 
L 512.374406 140.363005 
L 524.699236 129.517327 
L 538.038021 119.314009 
L 550.445381 109.35885 
L 562.595126 101.331641 
L 575.250009 92.912117 
L 587.229593 83.853265 
L 599.807113 73.122593 
L 612.192895 63.116211 
L 624.441581 50.116398 
L 636.848941 41.296913 
L 649.269825 37.743905 
L 661.54609 26.241502 
" clip-path="url(#p004a6166ef)" style="fill: none; stroke: #1e3d52; stroke-width: 1.5; stroke-linecap: square"/>
    <defs>
     <path id="ma3452e7fd4" d="M 0 1.75 
C 0.464105 1.75 0.909265 1.565609 1.237437 1.237437 
C 1.565609 0.909265 1.75 0.464105 1.75 0 
C 1.75 -0.464105 1.565609 -0.909265 1.237437 -1.237437 
C 0.909265 -1.565609 0.464105 -1.75 0 -1.75 
C -0.464105 -1.75 -0.909265 -1.565609 -1.237437 -1.237437 
C -1.565609 -0.909265 -1.75 -0.464105 -1.75 0 
C -1.75 0.464105 -1.565609 0.909265 -1.237437 1.237437 
C -0.909265 1.565609 -0.464105 1.75 0 1.75 
z
" style="stroke: #1e3d52"/>
    </defs>
    <g clip-path="url(#p004a6166ef)">
     <use xlink:href="#ma3452e7fd4" x="402.442889" y="227.095295" style="fill: #1e3d52; stroke: #1e3d52"/>
     <use xlink:href="#ma3452e7fd4" x="414.422473" y="214.694625" style="fill: #1e3d52; stroke: #1e3d52"/>
     <use xlink:href="#ma3452e7fd4" x="424.210507" y="206.602497" style="fill: #1e3d52; stroke: #1e3d52"/>
     <use xlink:href="#ma3452e7fd4" x="432.486171" y="200.552769" style="fill: #1e3d52; stroke: #1e3d52"/>
     <use xlink:href="#ma3452e7fd4" x="451.634461" y="186.901744" style="fill: #1e3d52; stroke: #1e3d52"/>
     <use xlink:href="#ma3452e7fd4" x="461.422494" y="178.605335" style="fill: #1e3d52; stroke: #1e3d52"/>
     <use xlink:href="#ma3452e7fd4" x="473.402079" y="169.235519" style="fill: #1e3d52; stroke: #1e3d52"/>
     <use xlink:href="#ma3452e7fd4" x="488.846449" y="158.875439" style="fill: #1e3d52; stroke: #1e3d52"/>
     <use xlink:href="#ma3452e7fd4" x="500.826033" y="149.483879" style="fill: #1e3d52; stroke: #1e3d52"/>
     <use xlink:href="#ma3452e7fd4" x="512.374406" y="140.363005" style="fill: #1e3d52; stroke: #1e3d52"/>
     <use xlink:href="#ma3452e7fd4" x="524.699236" y="129.517327" style="fill: #1e3d52; stroke: #1e3d52"/>
     <use xlink:href="#ma3452e7fd4" x="538.038021" y="119.314009" style="fill: #1e3d52; stroke: #1e3d52"/>
     <use xlink:href="#ma3452e7fd4" x="550.445381" y="109.35885" style="fill: #1e3d52; stroke: #1e3d52"/>
     <use xlink:href="#ma3452e7fd4" x="562.595126" y="101.331641" style="fill: #1e3d52; stroke: #1e3d52"/>
     <use xlink:href="#ma3452e7fd4" x="575.250009" y="92.912117" style="fill: #1e3d52; stroke: #1e3d52"/>
     <use xlink:href="#ma3452e7fd4" x="587.229593" y="83.853265" style="fill: #1e3d52; stroke: #1e3d52"/>
     <use xlink:href="#ma3452e7fd4" x="599.807113" y="73.122593" style="fill: #1e3d52; stroke: #1e3d52"/>
     <use xlink:href="#ma3452e7fd4" x="612.192895" y="63.116211" style="fill: #1e3d52; stroke: #1e3d52"/>
     <use xlink:href="#ma3452e7fd4" x="624.441581" y="50.116398" style="fill: #1e3d52; stroke: #1e3d52"/>
     <use xlink:href="#ma3452e7fd4" x="636.848941" y="41.296913" style="fill: #1e3d52; stroke: #1e3d52"/>
     <use xlink:href="#ma3452e7fd4" x="649.269825" y="37.743905" style="fill: #1e3d52; stroke: #1e3d52"/>
     <use xlink:href="#ma3452e7fd4" x="661.54609" y="26.241502" style="fill: #1e3d52; stroke: #1e3d52"/>
    </g>
   </g>
   <g id="line2d_61">
    <path d="M 402.442889 169.14729 
L 414.422473 164.124631 
L 424.210507 162.397746 
L 432.486171 160.214592 
L 451.634461 155.549392 
L 461.422494 152.82759 
L 473.402079 149.160926 
L 488.846449 144.466293 
L 500.826033 139.169882 
L 512.374406 132.93446 
L 524.699236 124.541648 
L 538.038021 115.844696 
L 550.445381 107.074696 
L 562.595126 99.930236 
L 575.250009 91.897838 
L 587.229593 83.179153 
L 599.807113 72.836381 
L 612.192895 62.946717 
L 624.441581 49.990274 
L 636.848941 41.241961 
L 649.269825 37.72406 
L 661.54609 26.21834 
" clip-path="url(#p004a6166ef)" style="fill: none; stroke: #c34a22; stroke-width: 1.5; stroke-linecap: square"/>
    <defs>
     <path id="m0e1b65b429" d="M 0 1.75 
C 0.464105 1.75 0.909265 1.565609 1.237437 1.237437 
C 1.565609 0.909265 1.75 0.464105 1.75 0 
C 1.75 -0.464105 1.565609 -0.909265 1.237437 -1.237437 
C 0.909265 -1.565609 0.464105 -1.75 0 -1.75 
C -0.464105 -1.75 -0.909265 -1.565609 -1.237437 -1.237437 
C -1.565609 -0.909265 -1.75 -0.464105 -1.75 0 
C -1.75 0.464105 -1.565609 0.909265 -1.237437 1.237437 
C -0.909265 1.565609 -0.464105 1.75 0 1.75 
z
" style="stroke: #c34a22"/>
    </defs>
    <g clip-path="url(#p004a6166ef)">
     <use xlink:href="#m0e1b65b429" x="402.442889" y="169.14729" style="fill: #c34a22; stroke: #c34a22"/>
     <use xlink:href="#m0e1b65b429" x="414.422473" y="164.124631" style="fill: #c34a22; stroke: #c34a22"/>
     <use xlink:href="#m0e1b65b429" x="424.210507" y="162.397746" style="fill: #c34a22; stroke: #c34a22"/>
     <use xlink:href="#m0e1b65b429" x="432.486171" y="160.214592" style="fill: #c34a22; stroke: #c34a22"/>
     <use xlink:href="#m0e1b65b429" x="451.634461" y="155.549392" style="fill: #c34a22; stroke: #c34a22"/>
     <use xlink:href="#m0e1b65b429" x="461.422494" y="152.82759" style="fill: #c34a22; stroke: #c34a22"/>
     <use xlink:href="#m0e1b65b429" x="473.402079" y="149.160926" style="fill: #c34a22; stroke: #c34a22"/>
     <use xlink:href="#m0e1b65b429" x="488.846449" y="144.466293" style="fill: #c34a22; stroke: #c34a22"/>
     <use xlink:href="#m0e1b65b429" x="500.826033" y="139.169882" style="fill: #c34a22; stroke: #c34a22"/>
     <use xlink:href="#m0e1b65b429" x="512.374406" y="132.93446" style="fill: #c34a22; stroke: #c34a22"/>
     <use xlink:href="#m0e1b65b429" x="524.699236" y="124.541648" style="fill: #c34a22; stroke: #c34a22"/>
     <use xlink:href="#m0e1b65b429" x="538.038021" y="115.844696" style="fill: #c34a22; stroke: #c34a22"/>
     <use xlink:href="#m0e1b65b429" x="550.445381" y="107.074696" style="fill: #c34a22; stroke: #c34a22"/>
     <use xlink:href="#m0e1b65b429" x="562.595126" y="99.930236" style="fill: #c34a22; stroke: #c34a22"/>
     <use xlink:href="#m0e1b65b429" x="575.250009" y="91.897838" style="fill: #c34a22; stroke: #c34a22"/>
     <use xlink:href="#m0e1b65b429" x="587.229593" y="83.179153" style="fill: #c34a22; stroke: #c34a22"/>
     <use xlink:href="#m0e1b65b429" x="599.807113" y="72.836381" style="fill: #c34a22; stroke: #c34a22"/>
     <use xlink:href="#m0e1b65b429" x="612.192895" y="62.946717" style="fill: #c34a22; stroke: #c34a22"/>
     <use xlink:href="#m0e1b65b429" x="624.441581" y="49.990274" style="fill: #c34a22; stroke: #c34a22"/>
     <use xlink:href="#m0e1b65b429" x="636.848941" y="41.241961" style="fill: #c34a22; stroke: #c34a22"/>
     <use xlink:href="#m0e1b65b429" x="649.269825" y="37.72406" style="fill: #c34a22; stroke: #c34a22"/>
     <use xlink:href="#m0e1b65b429" x="661.54609" y="26.21834" style="fill: #c34a22; stroke: #c34a22"/>
    </g>
   </g>
   <g id="line2d_62">
    <path d="M 402.442889 137.584922 
L 414.422473 132.039723 
L 424.210507 125.265868 
L 432.486171 121.361466 
L 445.978124 115.056818 
L 461.422494 108.519071 
L 473.402079 103.833097 
L 486.09274 97.494223 
L 498.634482 91.301426 
L 510.614066 86.17955 
L 523.304728 80.730093 
L 535.84647 73.55206 
L 548.713439 67.93086 
L 560.516716 63.049851 
L 573.058458 58.846905 
L 585.038042 53.244195 
L 597.374342 48.149055 
L 609.424986 41.987025 
L 621.800776 34.934568 
L 634.050363 27.291157 
L 646.209198 25.28438 
L 658.445857 17.671205 
" clip-path="url(#p004a6166ef)" style="fill: none; stroke: #6f8b6a; stroke-width: 1.5; stroke-linecap: square"/>
    <defs>
     <path id="m837651a401" d="M 0 1.75 
C 0.464105 1.75 0.909265 1.565609 1.237437 1.237437 
C 1.565609 0.909265 1.75 0.464105 1.75 0 
C 1.75 -0.464105 1.565609 -0.909265 1.237437 -1.237437 
C 0.909265 -1.565609 0.464105 -1.75 0 -1.75 
C -0.464105 -1.75 -0.909265 -1.565609 -1.237437 -1.237437 
C -1.565609 -0.909265 -1.75 -0.464105 -1.75 0 
C -1.75 0.464105 -1.565609 0.909265 -1.237437 1.237437 
C -0.909265 1.565609 -0.464105 1.75 0 1.75 
z
" style="stroke: #6f8b6a"/>
    </defs>
    <g clip-path="url(#p004a6166ef)">
     <use xlink:href="#m837651a401" x="402.442889" y="137.584922" style="fill: #6f8b6a; stroke: #6f8b6a"/>
     <use xlink:href="#m837651a401" x="414.422473" y="132.039723" style="fill: #6f8b6a; stroke: #6f8b6a"/>
     <use xlink:href="#m837651a401" x="424.210507" y="125.265868" style="fill: #6f8b6a; stroke: #6f8b6a"/>
     <use xlink:href="#m837651a401" x="432.486171" y="121.361466" style="fill: #6f8b6a; stroke: #6f8b6a"/>
     <use xlink:href="#m837651a401" x="445.978124" y="115.056818" style="fill: #6f8b6a; stroke: #6f8b6a"/>
     <use xlink:href="#m837651a401" x="461.422494" y="108.519071" style="fill: #6f8b6a; stroke: #6f8b6a"/>
     <use xlink:href="#m837651a401" x="473.402079" y="103.833097" style="fill: #6f8b6a; stroke: #6f8b6a"/>
     <use xlink:href="#m837651a401" x="486.09274" y="97.494223" style="fill: #6f8b6a; stroke: #6f8b6a"/>
     <use xlink:href="#m837651a401" x="498.634482" y="91.301426" style="fill: #6f8b6a; stroke: #6f8b6a"/>
     <use xlink:href="#m837651a401" x="510.614066" y="86.17955" style="fill: #6f8b6a; stroke: #6f8b6a"/>
     <use xlink:href="#m837651a401" x="523.304728" y="80.730093" style="fill: #6f8b6a; stroke: #6f8b6a"/>
     <use xlink:href="#m837651a401" x="535.84647" y="73.55206" style="fill: #6f8b6a; stroke: #6f8b6a"/>
     <use xlink:href="#m837651a401" x="548.713439" y="67.93086" style="fill: #6f8b6a; stroke: #6f8b6a"/>
     <use xlink:href="#m837651a401" x="560.516716" y="63.049851" style="fill: #6f8b6a; stroke: #6f8b6a"/>
     <use xlink:href="#m837651a401" x="573.058458" y="58.846905" style="fill: #6f8b6a; stroke: #6f8b6a"/>
     <use xlink:href="#m837651a401" x="585.038042" y="53.244195" style="fill: #6f8b6a; stroke: #6f8b6a"/>
     <use xlink:href="#m837651a401" x="597.374342" y="48.149055" style="fill: #6f8b6a; stroke: #6f8b6a"/>
     <use xlink:href="#m837651a401" x="609.424986" y="41.987025" style="fill: #6f8b6a; stroke: #6f8b6a"/>
     <use xlink:href="#m837651a401" x="621.800776" y="34.934568" style="fill: #6f8b6a; stroke: #6f8b6a"/>
     <use xlink:href="#m837651a401" x="634.050363" y="27.291157" style="fill: #6f8b6a; stroke: #6f8b6a"/>
     <use xlink:href="#m837651a401" x="646.209198" y="25.28438" style="fill: #6f8b6a; stroke: #6f8b6a"/>
     <use xlink:href="#m837651a401" x="658.445857" y="17.671205" style="fill: #6f8b6a; stroke: #6f8b6a"/>
    </g>
   </g>
   <g id="patch_6">
    <path d="M 389.487729 237.5665 
L 389.487729 7.2 
" style="fill: none; stroke: #d8cfbc; stroke-width: 0.8; stroke-linejoin: miter; stroke-linecap: square"/>
   </g>
   <g id="patch_7">
    <path d="M 389.487729 237.5665 
L 674.50125 237.5665 
" style="fill: none; stroke: #d8cfbc; stroke-width: 0.8; stroke-linejoin: miter; stroke-linecap: square"/>
   </g>
   <g id="legend_2">
    <g id="line2d_63">
     <path d="M 399.387729 21.565312 
L 410.387729 21.565312 
L 421.387729 21.565312 
" style="fill: none; stroke: #1e3d52; stroke-width: 1.5; stroke-linecap: square"/>
     <g>
      <use xlink:href="#ma3452e7fd4" x="410.387729" y="21.565312" style="fill: #1e3d52; stroke: #1e3d52"/>
     </g>
    </g>
    <g id="text_24">
     <text style="font-size: 11px; font-family: 'Georgia', 'Times New Roman', 'DejaVu Serif', serif; text-anchor: start; fill: #221e17" x="430.187729" y="25.415312" transform="rotate(-0 430.187729 25.415312)">clean: α₁=1.03</text>
    </g>
    <g id="line2d_64">
     <path d="M 399.387729 37.76625 
L 410.387729 37.76625 
L 421.387729 37.76625 
" style="fill: none; stroke: #c34a22; stroke-width: 1.5; stroke-linecap: square"/>
     <g>
      <use xlink:href="#m0e1b65b429" x="410.387729" y="37.76625" style="fill: #c34a22; stroke: #c34a22"/>
     </g>
    </g>
    <g id="text_25">
     <text style="font-size: 11px; font-family: 'Georgia', 'Times New Roman', 'DejaVu Serif', serif; text-anchor: start; fill: #221e17" x="430.187729" y="41.61625" transform="rotate(-0 430.187729 41.61625)">1.5% ectopics: α₁=0.35</text>
    </g>
    <g id="line2d_65">
     <path d="M 399.387729 53.967188 
L 410.387729 53.967188 
L 421.387729 53.967188 
" style="fill: none; stroke: #6f8b6a; stroke-width: 1.5; stroke-linecap: square"/>
     <g>
      <use xlink:href="#m837651a401" x="410.387729" y="53.967188" style="fill: #6f8b6a; stroke: #6f8b6a"/>
     </g>
    </g>
    <g id="text_26">
     <text style="font-size: 11px; font-family: 'Georgia', 'Times New Roman', 'DejaVu Serif', serif; text-anchor: start; fill: #221e17" x="430.187729" y="57.817188" transform="rotate(-0 430.187729 57.817188)">6% drops: α₁=0.64</text>
    </g>
   </g>
  </g>
 </g>
 <defs>
  <clipPath id="p185b6345ad">
   <rect x="53.88125" y="7.2" width="285.013521" height="230.3665"/>
  </clipPath>
  <clipPath id="p004a6166ef">
   <rect x="389.487729" y="7.2" width="285.013521" height="230.3665"/>
  </clipPath>
 </defs>
</svg>
