<?xml version="1.0" encoding="utf-8" standalone="no"?>
<!DOCTYPE svg PUBLIC "-//W3C//DTD SVG 1.1//EN"
  "http://www.w3.org/Graphics/SVG/1.1/DTD/svg11.dtd">
<svg xmlns:xlink="http://www.w3.org/1999/xlink" width="681.70125pt" height="276.16525pt" viewBox="0 0 681.70125 276.16525" xmlns="http://www.w3.org/2000/svg" version="1.1">
 <metadata>
  <rdf:RDF xmlns:dc="http://purl.org/dc/elements/1.1/" xmlns:cc="http://creativecommons.org/ns#" xmlns:rdf="http://www.w3.org/1999/02/22-rdf-syntax-ns#">
   <cc:Work>
    <dc:type rdf:resource="http://purl.org/dc/dcmitype/StillImage"/>
    <dc:date>2026-06-12T01:33:41.440840</dc:date>
    <dc:format>image/svg+xml</dc:format>
    <dc:creator>
     <cc:Agent>
      <dc:title>Matplotlib v3.10.8, https://matplotlib.org/</dc:title>
     </cc:Agent>
    </dc:creator>
   </cc:Work>
  </rdf:RDF>
 </metadata>
 <defs>
  <style type="text/css">*{stroke-linejoin: round; stroke-linecap: butt}</style>
 </defs>
 <g id="figure_1">
  <g id="patch_1">
   <path d="M 0 276.16525 
L 681.70125 276.16525 
L 681.70125 0 
L 0 0 
z
" style="fill: #f6f1e7"/>
  </g>
  <g id="axes_1">
   <g id="patch_2">
    <path d="M 53.88125 236.563375 
L 338.894771 236.563375 
L 338.894771 22.276875 
L 53.88125 22.276875 
z
" style="fill: #f6f1e7"/>
   </g>
   <g id="matplotlib.axis_1">
    <g id="xtick_1">
     <g id="line2d_1">
      <defs>
       <path id="m52832681f4" d="M 0 0 
L 0 3.5 
" style="stroke: #5c554a; stroke-width: 0.8"/>
      </defs>
      <g>
       <use xlink:href="#m52832681f4" x="66.83641" y="236.563375" style="fill: #5c554a; stroke: #5c554a; stroke-width: 0.8"/>
      </g>
     </g>
     <g id="text_1">
      <text style="font-size: 11px; font-family: 'Georgia', 'Times New Roman', 'DejaVu Serif', serif; text-anchor: middle; fill: #5c554a" x="66.83641" y="251.878688" transform="rotate(-0 66.83641 251.878688)">0</text>
     </g>
    </g>
    <g id="xtick_2">
     <g id="line2d_2">
      <g>
       <use xlink:href="#m52832681f4" x="118.865165" y="236.563375" style="fill: #5c554a; stroke: #5c554a; stroke-width: 0.8"/>
      </g>
     </g>
     <g id="text_2">
      <text style="font-size: 11px; font-family: 'Georgia', 'Times New Roman', 'DejaVu Serif', serif; text-anchor: middle; fill: #5c554a" x="118.865165" y="251.878688" transform="rotate(-0 118.865165 251.878688)">50</text>
     </g>
    </g>
    <g id="xtick_3">
     <g id="line2d_3">
      <g>
       <use xlink:href="#m52832681f4" x="170.89392" y="236.563375" style="fill: #5c554a; stroke: #5c554a; stroke-width: 0.8"/>
      </g>
     </g>
     <g id="text_3">
      <text style="font-size: 11px; font-family: 'Georgia', 'Times New Roman', 'DejaVu Serif', serif; text-anchor: middle; fill: #5c554a" x="170.89392" y="251.878688" transform="rotate(-0 170.89392 251.878688)">100</text>
     </g>
    </g>
    <g id="xtick_4">
     <g id="line2d_4">
      <g>
       <use xlink:href="#m52832681f4" x="222.922676" y="236.563375" style="fill: #5c554a; stroke: #5c554a; stroke-width: 0.8"/>
      </g>
     </g>
     <g id="text_4">
      <text style="font-size: 11px; font-family: 'Georgia', 'Times New Roman', 'DejaVu Serif', serif; text-anchor: middle; fill: #5c554a" x="222.922676" y="251.878688" transform="rotate(-0 222.922676 251.878688)">150</text>
     </g>
    </g>
    <g id="xtick_5">
     <g id="line2d_5">
      <g>
       <use xlink:href="#m52832681f4" x="274.951431" y="236.563375" style="fill: #5c554a; stroke: #5c554a; stroke-width: 0.8"/>
      </g>
     </g>
     <g id="text_5">
      <text style="font-size: 11px; font-family: 'Georgia', 'Times New Roman', 'DejaVu Serif', serif; text-anchor: middle; fill: #5c554a" x="274.951431" y="251.878688" transform="rotate(-0 274.951431 251.878688)">200</text>
     </g>
    </g>
    <g id="xtick_6">
     <g id="line2d_6">
      <g>
       <use xlink:href="#m52832681f4" x="326.980186" y="236.563375" style="fill: #5c554a; stroke: #5c554a; stroke-width: 0.8"/>
      </g>
     </g>
     <g id="text_6">
      <text style="font-size: 11px; font-family: 'Georgia', 'Times New Roman', 'DejaVu Serif', serif; text-anchor: middle; fill: #5c554a" x="326.980186" y="251.878688" transform="rotate(-0 326.980186 251.878688)">250</text>
     </g>
    </g>
    <g id="text_7">
     <text style="font-size: 11px; font-family: 'Georgia', 'Times New Roman', 'DejaVu Serif', serif; text-anchor: middle; fill: #5c554a" x="196.38801" y="266.579625" transform="rotate(-0 196.38801 266.579625)">beat #</text>
    </g>
   </g>
   <g id="matplotlib.axis_2">
    <g id="ytick_1">
     <g id="line2d_7">
      <defs>
       <path id="m0be4dd20c9" d="M 0 0 
L -3.5 0 
" style="stroke: #5c554a; stroke-width: 0.8"/>
      </defs>
      <g>
       <use xlink:href="#m0be4dd20c9" x="53.88125" y="218.202681" style="fill: #5c554a; stroke: #5c554a; stroke-width: 0.8"/>
      </g>
     </g>
     <g id="text_8">
      <text style="font-size: 11px; font-family: 'Georgia', 'Times New Roman', 'DejaVu Serif', serif; text-anchor: end; fill: #5c554a" x="46.88125" y="222.360338" transform="rotate(-0 46.88125 222.360338)">400</text>
     </g>
    </g>
    <g id="ytick_2">
     <g id="line2d_8">
      <g>
       <use xlink:href="#m0be4dd20c9" x="53.88125" y="179.898087" style="fill: #5c554a; stroke: #5c554a; stroke-width: 0.8"/>
      </g>
     </g>
     <g id="text_9">
      <text style="font-size: 11px; font-family: 'Georgia', 'Times New Roman', 'DejaVu Serif', serif; text-anchor: end; fill: #5c554a" x="46.88125" y="184.055743" transform="rotate(-0 46.88125 184.055743)">600</text>
     </g>
    </g>
    <g id="ytick_3">
     <g id="line2d_9">
      <g>
       <use xlink:href="#m0be4dd20c9" x="53.88125" y="141.593492" style="fill: #5c554a; stroke: #5c554a; stroke-width: 0.8"/>
      </g>
     </g>
     <g id="text_10">
      <text style="font-size: 11px; font-family: 'Georgia', 'Times New Roman', 'DejaVu Serif', serif; text-anchor: end; fill: #5c554a" x="46.88125" y="145.751149" transform="rotate(-0 46.88125 145.751149)">800</text>
     </g>
    </g>
    <g id="ytick_4">
     <g id="line2d_10">
      <g>
       <use xlink:href="#m0be4dd20c9" x="53.88125" y="103.288898" style="fill: #5c554a; stroke: #5c554a; stroke-width: 0.8"/>
      </g>
     </g>
     <g id="text_11">
      <text style="font-size: 11px; font-family: 'Georgia', 'Times New Roman', 'DejaVu Serif', serif; text-anchor: end; fill: #5c554a" x="46.88125" y="107.446554" transform="rotate(-0 46.88125 107.446554)">1000</text>
     </g>
    </g>
    <g id="ytick_5">
     <g id="line2d_11">
      <g>
       <use xlink:href="#m0be4dd20c9" x="53.88125" y="64.984304" style="fill: #5c554a; stroke: #5c554a; stroke-width: 0.8"/>
      </g>
     </g>
     <g id="text_12">
      <text style="font-size: 11px; font-family: 'Georgia', 'Times New Roman', 'DejaVu Serif', serif; text-anchor: end; fill: #5c554a" x="46.88125" y="69.14196" transform="rotate(-0 46.88125 69.14196)">1200</text>
     </g>
    </g>
    <g id="ytick_6">
     <g id="line2d_12">
      <g>
       <use xlink:href="#m0be4dd20c9" x="53.88125" y="26.679709" style="fill: #5c554a; stroke: #5c554a; stroke-width: 0.8"/>
      </g>
     </g>
     <g id="text_13">
      <text style="font-size: 11px; font-family: 'Georgia', 'Times New Roman', 'DejaVu Serif', serif; text-anchor: end; fill: #5c554a" x="46.88125" y="30.837365" transform="rotate(-0 46.88125 30.837365)">1400</text>
     </g>
    </g>
    <g id="text_14">
     <text style="font-size: 11px; font-family: 'Georgia', 'Times New Roman', 'DejaVu Serif', serif; text-anchor: middle; fill: #5c554a" x="15.515313" y="129.420125" transform="rotate(-90 15.515313 129.420125)">RR (ms)</text>
    </g>
   </g>
   <g id="line2d_13">
    <path d="M 66.83641 132.153299 
L 67.876985 131.482163 
L 68.91756 130.628554 
L 69.958135 130.500197 
L 70.99871 127.52902 
L 72.039286 135.265674 
L 73.079861 135.682081 
L 74.120436 137.354405 
L 75.161011 144.366664 
L 76.201586 141.225726 
L 77.242161 147.597746 
L 78.282736 140.769844 
L 79.323311 141.603973 
L 80.363886 143.323414 
L 81.404461 142.30688 
L 82.445037 139.855128 
L 83.485612 128.893449 
L 85.566762 140.14248 
L 86.607337 142.599177 
L 87.647912 140.705835 
L 88.688487 136.645672 
L 89.729062 136.563643 
L 90.769637 137.57603 
L 92.850788 126.411879 
L 93.891363 127.437184 
L 94.931938 133.814692 
L 95.972513 133.560733 
L 97.013088 127.273984 
L 98.053663 133.924749 
L 99.094238 127.674019 
L 100.134813 113.238215 
L 101.175388 130.772624 
L 102.215964 127.03526 
L 103.256539 125.266903 
L 104.297114 122.234054 
L 105.337689 135.878842 
L 106.378264 137.557763 
L 107.418839 132.560002 
L 108.459414 130.503653 
L 109.499989 130.595448 
L 110.540564 122.774731 
L 111.581139 125.180294 
L 112.621715 127.172714 
L 113.66229 124.341168 
L 114.702865 120.285384 
L 115.74344 118.614413 
L 116.784015 124.752614 
L 117.82459 128.259646 
L 118.865165 132.523391 
L 119.90574 140.088357 
L 120.946315 136.570311 
L 121.986891 127.13762 
L 123.027466 133.601119 
L 124.068041 127.888121 
L 125.108616 128.806537 
L 126.149191 124.759018 
L 127.189766 124.300262 
L 128.230341 131.511703 
L 129.270916 134.035824 
L 130.311491 131.468273 
L 131.352066 130.748906 
L 132.392642 128.93073 
L 133.433217 136.926782 
L 134.473792 131.582749 
L 135.514367 140.474817 
L 136.554942 137.089241 
L 137.595517 132.404082 
L 138.636092 131.059245 
L 139.676667 136.258879 
L 141.757818 129.453968 
L 142.798393 130.328955 
L 143.838968 140.390181 
L 144.879543 138.149087 
L 145.920118 138.820275 
L 146.960693 136.633909 
L 149.041843 152.81702 
L 150.082418 145.959557 
L 151.122993 144.035411 
L 152.163569 136.066049 
L 153.204144 135.855762 
L 154.244719 143.55109 
L 155.285294 144.892055 
L 156.325869 127.503805 
L 157.366444 140.449705 
L 158.407019 141.24745 
L 159.447594 137.829637 
L 160.488169 123.58476 
L 161.528744 126.122228 
L 162.56932 135.45475 
L 163.609895 134.115573 
L 164.65047 138.278329 
L 165.691045 138.120574 
L 166.73162 149.049005 
L 167.772195 146.841744 
L 168.81277 139.968755 
L 169.853345 143.851423 
L 170.89392 141.287226 
L 171.934496 147.170049 
L 172.975071 141.202098 
L 174.015646 140.456689 
L 175.056221 135.252734 
L 176.096796 139.594094 
L 177.137371 143.162698 
L 178.177946 134.98241 
L 179.218521 140.226208 
L 180.259096 141.265192 
L 181.299671 141.736487 
L 182.340247 137.117345 
L 183.380822 145.489398 
L 184.421397 140.280525 
L 185.461972 140.644469 
L 186.502547 137.307689 
L 187.543122 135.026895 
L 188.583697 138.473823 
L 189.624272 134.983889 
L 190.664847 134.22068 
L 191.705422 136.348298 
L 192.745998 136.63901 
L 193.786573 135.608262 
L 194.827148 136.512481 
L 195.867723 142.20789 
L 196.908298 143.823114 
L 197.948873 138.051253 
L 198.989448 135.540827 
L 200.030023 137.165079 
L 201.070598 139.649136 
L 202.111174 134.497246 
L 203.151749 133.1127 
L 204.192324 131.446477 
L 205.232899 145.911616 
L 206.273474 147.574797 
L 207.314049 139.347562 
L 208.354624 136.361601 
L 209.395199 134.676259 
L 210.435774 137.296603 
L 211.476349 133.149414 
L 212.516925 133.504478 
L 213.5575 140.652213 
L 214.598075 140.59787 
L 215.63865 142.560309 
L 216.679225 145.486302 
L 217.7198 146.468707 
L 218.760375 140.5048 
L 219.80095 147.571707 
L 220.841525 146.422993 
L 221.8821 138.242311 
L 222.922676 143.725669 
L 223.963251 136.459599 
L 225.003826 134.453583 
L 226.044401 133.722887 
L 227.084976 142.359645 
L 228.125551 145.312268 
L 229.166126 146.962268 
L 230.206701 137.528936 
L 231.247276 142.549421 
L 232.287852 142.164048 
L 233.328427 148.396895 
L 234.369002 143.576277 
L 235.409577 139.840035 
L 236.450152 137.35441 
L 237.490727 136.718781 
L 238.531302 138.562565 
L 239.571877 143.356359 
L 240.612452 133.699785 
L 241.653027 141.260203 
L 242.693603 151.081438 
L 243.734178 145.161696 
L 244.774753 150.844363 
L 245.815328 150.819587 
L 246.855903 147.994494 
L 247.896478 142.497898 
L 248.937053 141.017286 
L 249.977628 149.803636 
L 251.018203 151.438577 
L 252.058778 145.950095 
L 253.099354 145.993542 
L 254.139929 147.388167 
L 255.180504 150.662373 
L 256.221079 154.70261 
L 257.261654 145.498205 
L 258.302229 149.062609 
L 259.342804 140.756199 
L 260.383379 143.749292 
L 261.423954 152.790272 
L 263.505105 156.146785 
L 264.54568 160.67515 
L 265.586255 150.438611 
L 266.62683 143.576133 
L 267.667405 150.166208 
L 268.70798 142.69681 
L 269.748555 142.652597 
L 270.78913 136.442959 
L 271.829705 133.418923 
L 272.870281 132.089363 
L 273.910856 131.418419 
L 274.951431 141.464668 
L 275.992006 136.547183 
L 277.032581 140.439474 
L 278.073156 149.349096 
L 279.113731 151.444463 
L 280.154306 139.625082 
L 281.194881 148.289994 
L 282.235457 147.795233 
L 283.276032 146.431315 
L 284.316607 149.772415 
L 285.357182 150.121248 
L 286.397757 144.273144 
L 287.438332 146.237323 
L 288.478907 143.947957 
L 289.519482 147.381753 
L 290.560057 145.950657 
L 291.600632 147.665129 
L 292.641208 141.587333 
L 293.681783 136.867125 
L 294.722358 143.217781 
L 295.762933 143.440077 
L 296.803508 138.340077 
L 297.844083 144.820929 
L 298.884658 145.561577 
L 299.925233 144.014698 
L 302.006383 137.892324 
L 303.046959 136.428909 
L 304.087534 142.099659 
L 305.128109 140.585629 
L 306.168684 134.274817 
L 307.209259 144.414989 
L 308.249834 134.691778 
L 309.290409 137.748034 
L 310.330984 132.656435 
L 311.371559 134.228094 
L 312.412135 136.870744 
L 313.45271 135.783265 
L 314.493285 131.997213 
L 315.53386 124.659981 
L 316.574435 134.054438 
L 317.61501 131.301066 
L 318.655585 130.068965 
L 319.69616 136.229488 
L 320.736735 141.713787 
L 321.77731 132.644101 
L 322.817886 133.351601 
L 323.858461 132.272612 
L 324.899036 137.94616 
L 325.939611 131.860886 
L 325.939611 131.860886 
" clip-path="url(#p793ab04a42)" style="fill: none; stroke: #1e3d52; stroke-width: 0.9; stroke-linecap: square"/>
   </g>
   <g id="line2d_14">
    <path d="M 66.83641 132.153299 
L 67.876985 131.482163 
L 68.91756 130.628554 
L 69.958135 130.500197 
L 70.99871 127.52902 
L 72.039286 135.265674 
L 73.079861 135.682081 
L 74.120436 223.956011 
L 75.161011 61.621801 
L 76.201586 141.225726 
L 77.242161 147.597746 
L 78.282736 140.769844 
L 79.323311 141.603973 
L 80.363886 143.323414 
L 81.404461 142.30688 
L 82.445037 139.855128 
L 83.485612 128.893449 
L 85.566762 140.14248 
L 86.607337 142.599177 
L 87.647912 140.705835 
L 88.688487 136.645672 
L 89.729062 136.563643 
L 90.769637 137.57603 
L 92.850788 126.411879 
L 93.891363 127.437184 
L 94.931938 133.814692 
L 95.972513 133.560733 
L 97.013088 127.273984 
L 98.053663 133.924749 
L 99.094238 127.674019 
L 100.134813 113.238215 
L 101.175388 130.772624 
L 102.215964 219.312396 
L 103.256539 32.01717 
L 104.297114 122.234054 
L 105.337689 135.878842 
L 106.378264 137.557763 
L 107.418839 132.560002 
L 108.459414 130.503653 
L 109.499989 130.595448 
L 110.540564 122.774731 
L 111.581139 125.180294 
L 112.621715 127.172714 
L 113.66229 124.341168 
L 114.702865 120.285384 
L 115.74344 118.614413 
L 116.784015 124.752614 
L 117.82459 128.259646 
L 118.865165 132.523391 
L 119.90574 140.088357 
L 120.946315 136.570311 
L 121.986891 127.13762 
L 123.027466 133.601119 
L 124.068041 127.888121 
L 125.108616 128.806537 
L 126.149191 124.759018 
L 127.189766 124.300262 
L 128.230341 131.511703 
L 129.270916 134.035824 
L 130.311491 131.468273 
L 131.352066 130.748906 
L 132.392642 128.93073 
L 133.433217 136.926782 
L 134.473792 131.582749 
L 135.514367 140.474817 
L 136.554942 137.089241 
L 137.595517 221.728365 
L 138.636092 40.995301 
L 139.676667 136.258879 
L 141.757818 129.453968 
L 142.798393 130.328955 
L 143.838968 140.390181 
L 144.879543 138.149087 
L 145.920118 138.820275 
L 146.960693 136.633909 
L 149.041843 152.81702 
L 150.082418 145.959557 
L 151.122993 144.035411 
L 152.163569 223.376251 
L 153.204144 48.429903 
L 154.244719 143.55109 
L 155.285294 144.892055 
L 156.325869 127.503805 
L 157.366444 140.449705 
L 158.407019 141.24745 
L 159.447594 137.829637 
L 160.488169 123.58476 
L 161.528744 126.122228 
L 162.56932 135.45475 
L 163.609895 134.115573 
L 164.65047 138.278329 
L 165.691045 138.120574 
L 166.73162 149.049005 
L 167.772195 146.841744 
L 168.81277 139.968755 
L 169.853345 143.851423 
L 170.89392 141.287226 
L 171.934496 147.170049 
L 172.975071 141.202098 
L 174.015646 140.456689 
L 175.056221 135.252734 
L 176.096796 139.594094 
L 177.137371 143.162698 
L 178.177946 134.98241 
L 179.218521 140.226208 
L 180.259096 141.265192 
L 181.299671 141.736487 
L 182.340247 137.117345 
L 183.380822 145.489398 
L 184.421397 140.280525 
L 185.461972 140.644469 
L 186.502547 137.307689 
L 187.543122 135.026895 
L 188.583697 138.473823 
L 189.624272 134.983889 
L 190.664847 134.22068 
L 191.705422 136.348298 
L 192.745998 136.63901 
L 193.786573 135.608262 
L 194.827148 136.512481 
L 195.867723 142.20789 
L 196.908298 143.823114 
L 197.948873 138.051253 
L 198.989448 135.540827 
L 200.030023 137.165079 
L 201.070598 139.649136 
L 202.111174 134.497246 
L 203.151749 133.1127 
L 204.192324 131.446477 
L 205.232899 145.911616 
L 206.273474 147.574797 
L 207.314049 139.347562 
L 208.354624 136.361601 
L 209.395199 134.676259 
L 210.435774 137.296603 
L 211.476349 133.149414 
L 212.516925 133.504478 
L 213.5575 140.652213 
L 214.598075 140.59787 
L 215.63865 142.560309 
L 216.679225 145.486302 
L 217.7198 146.468707 
L 218.760375 140.5048 
L 219.80095 147.571707 
L 220.841525 146.422993 
L 221.8821 138.242311 
L 222.922676 226.82308 
L 223.963251 49.36585 
L 225.003826 134.453583 
L 226.044401 133.722887 
L 227.084976 142.359645 
L 228.125551 145.312268 
L 229.166126 146.962268 
L 230.206701 137.528936 
L 231.247276 142.549421 
L 232.287852 142.164048 
L 233.328427 148.396895 
L 234.369002 143.576277 
L 235.409577 139.840035 
L 236.450152 137.35441 
L 237.490727 136.718781 
L 238.531302 138.562565 
L 239.571877 143.356359 
L 240.612452 133.699785 
L 241.653027 141.260203 
L 242.693603 151.081438 
L 243.734178 145.161696 
L 244.774753 150.844363 
L 245.815328 150.819587 
L 246.855903 147.994494 
L 247.896478 142.497898 
L 248.937053 141.017286 
L 249.977628 149.803636 
L 251.018203 151.438577 
L 252.058778 145.950095 
L 253.099354 145.993542 
L 254.139929 147.388167 
L 255.180504 150.662373 
L 256.221079 154.70261 
L 257.261654 145.498205 
L 258.302229 149.062609 
L 259.342804 140.756199 
L 260.383379 143.749292 
L 261.423954 152.790272 
L 263.505105 156.146785 
L 264.54568 160.67515 
L 265.586255 150.438611 
L 266.62683 143.576133 
L 267.667405 150.166208 
L 268.70798 142.69681 
L 269.748555 142.652597 
L 270.78913 136.442959 
L 271.829705 133.418923 
L 272.870281 132.089363 
L 273.910856 131.418419 
L 274.951431 141.464668 
L 275.992006 136.547183 
L 277.032581 140.439474 
L 278.073156 149.349096 
L 279.113731 151.444463 
L 280.154306 139.625082 
L 281.194881 148.289994 
L 282.235457 147.795233 
L 283.276032 146.431315 
L 284.316607 149.772415 
L 285.357182 150.121248 
L 286.397757 144.273144 
L 287.438332 146.237323 
L 288.478907 143.947957 
L 289.519482 147.381753 
L 290.560057 145.950657 
L 291.600632 147.665129 
L 292.641208 141.587333 
L 293.681783 136.867125 
L 294.722358 143.217781 
L 295.762933 143.440077 
L 296.803508 138.340077 
L 297.844083 144.820929 
L 298.884658 145.561577 
L 299.925233 144.014698 
L 302.006383 137.892324 
L 303.046959 136.428909 
L 304.087534 142.099659 
L 305.128109 140.585629 
L 306.168684 134.274817 
L 307.209259 144.414989 
L 308.249834 134.691778 
L 309.290409 137.748034 
L 310.330984 132.656435 
L 311.371559 134.228094 
L 312.412135 136.870744 
L 313.45271 135.783265 
L 314.493285 131.997213 
L 315.53386 124.659981 
L 316.574435 134.054438 
L 317.61501 131.301066 
L 318.655585 130.068965 
L 319.69616 136.229488 
L 320.736735 141.713787 
L 321.77731 132.644101 
L 322.817886 133.351601 
L 323.858461 132.272612 
L 324.899036 137.94616 
L 325.939611 131.860886 
L 325.939611 131.860886 
" clip-path="url(#p793ab04a42)" style="fill: none; stroke: #c34a22; stroke-opacity: 0.85; stroke-width: 0.8; stroke-linecap: square"/>
   </g>
   <g id="patch_3">
    <path d="M 53.88125 236.563375 
L 53.88125 22.276875 
" style="fill: none; stroke: #d8cfbc; stroke-width: 0.8; stroke-linejoin: miter; stroke-linecap: square"/>
   </g>
   <g id="patch_4">
    <path d="M 53.88125 236.563375 
L 338.894771 236.563375 
" style="fill: none; stroke: #d8cfbc; stroke-width: 0.8; stroke-linejoin: miter; stroke-linecap: square"/>
   </g>
   <g id="text_15">
    <text style="font-style: italic; font-size: 12px; font-family: 'Georgia', 'Times New Roman', 'DejaVu Serif', serif; text-anchor: start; fill: #221e17" x="53.88125" y="16.276875" transform="rotate(-0 53.88125 16.276875)">a 1.5% ectopic rate</text>
   </g>
   <g id="legend_1">
    <g id="line2d_15">
     <path d="M 233.753677 36.642188 
L 244.753677 36.642188 
L 255.753677 36.642188 
" style="fill: none; stroke: #1e3d52; stroke-width: 0.9; stroke-linecap: square"/>
    </g>
    <g id="text_16">
     <text style="font-size: 11px; font-family: 'Georgia', 'Times New Roman', 'DejaVu Serif', serif; text-anchor: start; fill: #221e17" x="264.553677" y="40.492188" transform="rotate(-0 264.553677 40.492188)">clean</text>
    </g>
    <g id="line2d_16">
     <path d="M 233.753677 52.843125 
L 244.753677 52.843125 
L 255.753677 52.843125 
" style="fill: none; stroke: #c34a22; stroke-opacity: 0.85; stroke-width: 0.8; stroke-linecap: square"/>
    </g>
    <g id="text_17">
     <text style="font-size: 11px; font-family: 'Georgia', 'Times New Roman', 'DejaVu Serif', serif; text-anchor: start; fill: #221e17" x="264.553677" y="56.693125" transform="rotate(-0 264.553677 56.693125)">1.5% ectopics</text>
    </g>
   </g>
  </g>
  <g id="axes_2">
   <g id="patch_5">
    <path d="M 389.487729 236.563375 
L 674.50125 236.563375 
L 674.50125 22.276875 
L 389.487729 22.276875 
z
" style="fill: #f6f1e7"/>
   </g>
   <g id="matplotlib.axis_3">
    <g id="xtick_7">
     <g id="line2d_17">
      <g>
       <use xlink:href="#m52832681f4" x="451.634461" y="236.563375" style="fill: #5c554a; stroke: #5c554a; stroke-width: 0.8"/>
      </g>
     </g>
     <g id="text_18">
      <!-- $\mathdefault{10^{1}}$ -->
      <g style="fill: #5c554a" transform="translate(444.044461 251.878688)">
       <text>
        <tspan x="0" y="-0.135938" style="font-size: 11px; font-family: 'Georgia'; fill: #5c554a">1</tspan>
        <tspan x="4.726562" y="-0.135938" style="font-size: 11px; font-family: 'Georgia'; fill: #5c554a">0</tspan>
        <tspan x="11.570723" y="-3.84375" style="font-size: 7.7px; font-family: 'Georgia'; fill: #5c554a">1</tspan>
       </text>
      </g>
     </g>
    </g>
    <g id="xtick_8">
     <g id="line2d_18">
      <g>
       <use xlink:href="#m52832681f4" x="575.250009" y="236.563375" style="fill: #5c554a; stroke: #5c554a; stroke-width: 0.8"/>
      </g>
     </g>
     <g id="text_19">
      <!-- $\mathdefault{10^{2}}$ -->
      <g style="fill: #5c554a" transform="translate(567.165009 251.878688)">
       <text>
        <tspan x="0" y="-0.135938" style="font-size: 11px; font-family: 'Georgia'; fill: #5c554a">1</tspan>
        <tspan x="4.726562" y="-0.135938" style="font-size: 11px; font-family: 'Georgia'; fill: #5c554a">0</tspan>
        <tspan x="11.570723" y="-3.84375" style="font-size: 7.7px; font-family: 'Georgia'; fill: #5c554a">2</tspan>
       </text>
      </g>
     </g>
    </g>
    <g id="xtick_9">
     <g id="line2d_19">
      <defs>
       <path id="m9d2582be6d" d="M 0 0 
L 0 2 
" style="stroke: #5c554a; stroke-width: 0.6"/>
      </defs>
      <g>
       <use xlink:href="#m9d2582be6d" x="402.442889" y="236.563375" style="fill: #5c554a; stroke: #5c554a; stroke-width: 0.6"/>
      </g>
     </g>
    </g>
    <g id="xtick_10">
     <g id="line2d_20">
      <g>
       <use xlink:href="#m9d2582be6d" x="414.422473" y="236.563375" style="fill: #5c554a; stroke: #5c554a; stroke-width: 0.6"/>
      </g>
     </g>
    </g>
    <g id="xtick_11">
     <g id="line2d_21">
      <g>
       <use xlink:href="#m9d2582be6d" x="424.210507" y="236.563375" style="fill: #5c554a; stroke: #5c554a; stroke-width: 0.6"/>
      </g>
     </g>
    </g>
    <g id="xtick_12">
     <g id="line2d_22">
      <g>
       <use xlink:href="#m9d2582be6d" x="432.486171" y="236.563375" style="fill: #5c554a; stroke: #5c554a; stroke-width: 0.6"/>
      </g>
     </g>
    </g>
    <g id="xtick_13">
     <g id="line2d_23">
      <g>
       <use xlink:href="#m9d2582be6d" x="439.654877" y="236.563375" style="fill: #5c554a; stroke: #5c554a; stroke-width: 0.6"/>
      </g>
     </g>
    </g>
    <g id="xtick_14">
     <g id="line2d_24">
      <g>
       <use xlink:href="#m9d2582be6d" x="445.978124" y="236.563375" style="fill: #5c554a; stroke: #5c554a; stroke-width: 0.6"/>
      </g>
     </g>
    </g>
    <g id="xtick_15">
     <g id="line2d_25">
      <g>
       <use xlink:href="#m9d2582be6d" x="488.846449" y="236.563375" style="fill: #5c554a; stroke: #5c554a; stroke-width: 0.6"/>
      </g>
     </g>
    </g>
    <g id="xtick_16">
     <g id="line2d_26">
      <g>
       <use xlink:href="#m9d2582be6d" x="510.614066" y="236.563375" style="fill: #5c554a; stroke: #5c554a; stroke-width: 0.6"/>
      </g>
     </g>
    </g>
    <g id="xtick_17">
     <g id="line2d_27">
      <g>
       <use xlink:href="#m9d2582be6d" x="526.058437" y="236.563375" style="fill: #5c554a; stroke: #5c554a; stroke-width: 0.6"/>
      </g>
     </g>
    </g>
    <g id="xtick_18">
     <g id="line2d_28">
      <g>
       <use xlink:href="#m9d2582be6d" x="538.038021" y="236.563375" style="fill: #5c554a; stroke: #5c554a; stroke-width: 0.6"/>
      </g>
     </g>
    </g>
    <g id="xtick_19">
     <g id="line2d_29">
      <g>
       <use xlink:href="#m9d2582be6d" x="547.826054" y="236.563375" style="fill: #5c554a; stroke: #5c554a; stroke-width: 0.6"/>
      </g>
     </g>
    </g>
    <g id="xtick_20">
     <g id="line2d_30">
      <g>
       <use xlink:href="#m9d2582be6d" x="556.101718" y="236.563375" style="fill: #5c554a; stroke: #5c554a; stroke-width: 0.6"/>
      </g>
     </g>
    </g>
    <g id="xtick_21">
     <g id="line2d_31">
      <g>
       <use xlink:href="#m9d2582be6d" x="563.270424" y="236.563375" style="fill: #5c554a; stroke: #5c554a; stroke-width: 0.6"/>
      </g>
     </g>
    </g>
    <g id="xtick_22">
     <g id="line2d_32">
      <g>
       <use xlink:href="#m9d2582be6d" x="569.593672" y="236.563375" style="fill: #5c554a; stroke: #5c554a; stroke-width: 0.6"/>
      </g>
     </g>
    </g>
    <g id="xtick_23">
     <g id="line2d_33">
      <g>
       <use xlink:href="#m9d2582be6d" x="612.461997" y="236.563375" style="fill: #5c554a; stroke: #5c554a; stroke-width: 0.6"/>
      </g>
     </g>
    </g>
    <g id="xtick_24">
     <g id="line2d_34">
      <g>
       <use xlink:href="#m9d2582be6d" x="634.229614" y="236.563375" style="fill: #5c554a; stroke: #5c554a; stroke-width: 0.6"/>
      </g>
     </g>
    </g>
    <g id="xtick_25">
     <g id="line2d_35">
      <g>
       <use xlink:href="#m9d2582be6d" x="649.673984" y="236.563375" style="fill: #5c554a; stroke: #5c554a; stroke-width: 0.6"/>
      </g>
     </g>
    </g>
    <g id="xtick_26">
     <g id="line2d_36">
      <g>
       <use xlink:href="#m9d2582be6d" x="661.653569" y="236.563375" style="fill: #5c554a; stroke: #5c554a; stroke-width: 0.6"/>
      </g>
     </g>
    </g>
    <g id="xtick_27">
     <g id="line2d_37">
      <g>
       <use xlink:href="#m9d2582be6d" x="671.441602" y="236.563375" style="fill: #5c554a; stroke: #5c554a; stroke-width: 0.6"/>
      </g>
     </g>
    </g>
    <g id="text_20">
     <text style="font-size: 11px; font-family: 'Georgia', 'Times New Roman', 'DejaVu Serif', serif; text-anchor: middle; fill: #5c554a" x="531.99449" y="266.579625" transform="rotate(-0 531.99449 266.579625)">scale n (beats)</text>
    </g>
   </g>
   <g id="matplotlib.axis_4">
    <g id="ytick_7">
     <g id="line2d_38">
      <g>
       <use xlink:href="#m0be4dd20c9" x="389.487729" y="227.61255" style="fill: #5c554a; stroke: #5c554a; stroke-width: 0.8"/>
      </g>
     </g>
     <g id="text_21">
      <!-- $\mathdefault{10^{1}}$ -->
      <g style="fill: #5c554a" transform="translate(367.307729 231.770206)">
       <text>
        <tspan x="0" y="-0.135938" style="font-size: 11px; font-family: 'Georgia'; fill: #5c554a">1</tspan>
        <tspan x="4.726562" y="-0.135938" style="font-size: 11px; font-family: 'Georgia'; fill: #5c554a">0</tspan>
        <tspan x="11.570723" y="-3.84375" style="font-size: 7.7px; font-family: 'Georgia'; fill: #5c554a">1</tspan>
       </text>
      </g>
     </g>
    </g>
    <g id="ytick_8">
     <g id="line2d_39">
      <g>
       <use xlink:href="#m0be4dd20c9" x="389.487729" y="139.214538" style="fill: #5c554a; stroke: #5c554a; stroke-width: 0.8"/>
      </g>
     </g>
     <g id="text_22">
      <!-- $\mathdefault{10^{2}}$ -->
      <g style="fill: #5c554a" transform="translate(366.317729 143.372194)">
       <text>
        <tspan x="0" y="-0.135938" style="font-size: 11px; font-family: 'Georgia'; fill: #5c554a">1</tspan>
        <tspan x="4.726562" y="-0.135938" style="font-size: 11px; font-family: 'Georgia'; fill: #5c554a">0</tspan>
        <tspan x="11.570723" y="-3.84375" style="font-size: 7.7px; font-family: 'Georgia'; fill: #5c554a">2</tspan>
       </text>
      </g>
     </g>
    </g>
    <g id="ytick_9">
     <g id="line2d_40">
      <g>
       <use xlink:href="#m0be4dd20c9" x="389.487729" y="50.816526" style="fill: #5c554a; stroke: #5c554a; stroke-width: 0.8"/>
      </g>
     </g>
     <g id="text_23">
      <!-- $\mathdefault{10^{3}}$ -->
      <g style="fill: #5c554a" transform="translate(366.317729 54.974182)">
       <text>
        <tspan x="0" y="-0.135938" style="font-size: 11px; font-family: 'Georgia'; fill: #5c554a">1</tspan>
        <tspan x="4.726562" y="-0.135938" style="font-size: 11px; font-family: 'Georgia'; fill: #5c554a">0</tspan>
        <tspan x="11.570723" y="-3.84375" style="font-size: 7.7px; font-family: 'Georgia'; fill: #5c554a">3</tspan>
       </text>
      </g>
     </g>
    </g>
    <g id="ytick_10">
     <g id="line2d_41">
      <defs>
       <path id="m53eea0c111" d="M 0 0 
L -2 0 
" style="stroke: #5c554a; stroke-width: 0.6"/>
      </defs>
      <g>
       <use xlink:href="#m53eea0c111" x="389.487729" y="236.179202" style="fill: #5c554a; stroke: #5c554a; stroke-width: 0.6"/>
      </g>
     </g>
    </g>
    <g id="ytick_11">
     <g id="line2d_42">
      <g>
       <use xlink:href="#m53eea0c111" x="389.487729" y="231.657421" style="fill: #5c554a; stroke: #5c554a; stroke-width: 0.6"/>
      </g>
     </g>
    </g>
    <g id="ytick_12">
     <g id="line2d_43">
      <g>
       <use xlink:href="#m53eea0c111" x="389.487729" y="201.002097" style="fill: #5c554a; stroke: #5c554a; stroke-width: 0.6"/>
      </g>
     </g>
    </g>
    <g id="ytick_13">
     <g id="line2d_44">
      <g>
       <use xlink:href="#m53eea0c111" x="389.487729" y="185.435979" style="fill: #5c554a; stroke: #5c554a; stroke-width: 0.6"/>
      </g>
     </g>
    </g>
    <g id="ytick_14">
     <g id="line2d_45">
      <g>
       <use xlink:href="#m53eea0c111" x="389.487729" y="174.391644" style="fill: #5c554a; stroke: #5c554a; stroke-width: 0.6"/>
      </g>
     </g>
    </g>
    <g id="ytick_15">
     <g id="line2d_46">
      <g>
       <use xlink:href="#m53eea0c111" x="389.487729" y="165.824991" style="fill: #5c554a; stroke: #5c554a; stroke-width: 0.6"/>
      </g>
     </g>
    </g>
    <g id="ytick_16">
     <g id="line2d_47">
      <g>
       <use xlink:href="#m53eea0c111" x="389.487729" y="158.825526" style="fill: #5c554a; stroke: #5c554a; stroke-width: 0.6"/>
      </g>
     </g>
    </g>
    <g id="ytick_17">
     <g id="line2d_48">
      <g>
       <use xlink:href="#m53eea0c111" x="389.487729" y="152.907563" style="fill: #5c554a; stroke: #5c554a; stroke-width: 0.6"/>
      </g>
     </g>
    </g>
    <g id="ytick_18">
     <g id="line2d_49">
      <g>
       <use xlink:href="#m53eea0c111" x="389.487729" y="147.78119" style="fill: #5c554a; stroke: #5c554a; stroke-width: 0.6"/>
      </g>
     </g>
    </g>
    <g id="ytick_19">
     <g id="line2d_50">
      <g>
       <use xlink:href="#m53eea0c111" x="389.487729" y="143.259409" style="fill: #5c554a; stroke: #5c554a; stroke-width: 0.6"/>
      </g>
     </g>
    </g>
    <g id="ytick_20">
     <g id="line2d_51">
      <g>
       <use xlink:href="#m53eea0c111" x="389.487729" y="112.604085" style="fill: #5c554a; stroke: #5c554a; stroke-width: 0.6"/>
      </g>
     </g>
    </g>
    <g id="ytick_21">
     <g id="line2d_52">
      <g>
       <use xlink:href="#m53eea0c111" x="389.487729" y="97.037968" style="fill: #5c554a; stroke: #5c554a; stroke-width: 0.6"/>
      </g>
     </g>
    </g>
    <g id="ytick_22">
     <g id="line2d_53">
      <g>
       <use xlink:href="#m53eea0c111" x="389.487729" y="85.993632" style="fill: #5c554a; stroke: #5c554a; stroke-width: 0.6"/>
      </g>
     </g>
    </g>
    <g id="ytick_23">
     <g id="line2d_54">
      <g>
       <use xlink:href="#m53eea0c111" x="389.487729" y="77.426979" style="fill: #5c554a; stroke: #5c554a; stroke-width: 0.6"/>
      </g>
     </g>
    </g>
    <g id="ytick_24">
     <g id="line2d_55">
      <g>
       <use xlink:href="#m53eea0c111" x="389.487729" y="70.427514" style="fill: #5c554a; stroke: #5c554a; stroke-width: 0.6"/>
      </g>
     </g>
    </g>
    <g id="ytick_25">
     <g id="line2d_56">
      <g>
       <use xlink:href="#m53eea0c111" x="389.487729" y="64.509551" style="fill: #5c554a; stroke: #5c554a; stroke-width: 0.6"/>
      </g>
     </g>
    </g>
    <g id="ytick_26">
     <g id="line2d_57">
      <g>
       <use xlink:href="#m53eea0c111" x="389.487729" y="59.383178" style="fill: #5c554a; stroke: #5c554a; stroke-width: 0.6"/>
      </g>
     </g>
    </g>
    <g id="ytick_27">
     <g id="line2d_58">
      <g>
       <use xlink:href="#m53eea0c111" x="389.487729" y="54.861397" style="fill: #5c554a; stroke: #5c554a; stroke-width: 0.6"/>
      </g>
     </g>
    </g>
    <g id="ytick_28">
     <g id="line2d_59">
      <g>
       <use xlink:href="#m53eea0c111" x="389.487729" y="24.206073" style="fill: #5c554a; stroke: #5c554a; stroke-width: 0.6"/>
      </g>
     </g>
    </g>
    <g id="text_24">
     <text style="font-size: 11px; font-family: 'Georgia', 'Times New Roman', 'DejaVu Serif', serif; text-anchor: middle; fill: #5c554a" x="359.932104" y="129.420125" transform="rotate(-90 359.932104 129.420125)">F(n)</text>
    </g>
   </g>
   <g id="line2d_60">
    <path d="M 402.442889 226.82308 
L 414.422473 215.287998 
L 424.210507 207.760715 
L 432.486171 202.13327 
L 451.634461 189.435111 
L 461.422494 181.717807 
L 473.402079 173.002021 
L 488.846449 163.365093 
L 500.826033 154.629081 
L 512.374406 146.14486 
L 524.699236 136.056231 
L 538.038021 126.565122 
L 550.445381 117.304852 
L 562.595126 109.837957 
L 575.250009 102.006131 
L 587.229593 93.579603 
L 599.807113 83.597951 
L 612.192895 74.290033 
L 624.441581 62.19763 
L 636.848941 53.993761 
L 649.269825 50.68876 
L 661.54609 39.989246 
" clip-path="url(#pf785789da7)" style="fill: none; stroke: #1e3d52; stroke-width: 1.5; stroke-linecap: square"/>
    <defs>
     <path id="mc7d8537e18" d="M 0 1.75 
C 0.464105 1.75 0.909265 1.565609 1.237437 1.237437 
C 1.565609 0.909265 1.75 0.464105 1.75 0 
C 1.75 -0.464105 1.565609 -0.909265 1.237437 -1.237437 
C 0.909265 -1.565609 0.464105 -1.75 0 -1.75 
C -0.464105 -1.75 -0.909265 -1.565609 -1.237437 -1.237437 
C -1.565609 -0.909265 -1.75 -0.464105 -1.75 0 
C -1.75 0.464105 -1.565609 0.909265 -1.237437 1.237437 
C -0.909265 1.565609 -0.464105 1.75 0 1.75 
z
" style="stroke: #1e3d52"/>
    </defs>
    <g clip-path="url(#pf785789da7)">
     <use xlink:href="#mc7d8537e18" x="402.442889" y="226.82308" style="fill: #1e3d52; stroke: #1e3d52"/>
     <use xlink:href="#mc7d8537e18" x="414.422473" y="215.287998" style="fill: #1e3d52; stroke: #1e3d52"/>
     <use xlink:href="#mc7d8537e18" x="424.210507" y="207.760715" style="fill: #1e3d52; stroke: #1e3d52"/>
     <use xlink:href="#mc7d8537e18" x="432.486171" y="202.13327" style="fill: #1e3d52; stroke: #1e3d52"/>
     <use xlink:href="#mc7d8537e18" x="451.634461" y="189.435111" style="fill: #1e3d52; stroke: #1e3d52"/>
     <use xlink:href="#mc7d8537e18" x="461.422494" y="181.717807" style="fill: #1e3d52; stroke: #1e3d52"/>
     <use xlink:href="#mc7d8537e18" x="473.402079" y="173.002021" style="fill: #1e3d52; stroke: #1e3d52"/>
     <use xlink:href="#mc7d8537e18" x="488.846449" y="163.365093" style="fill: #1e3d52; stroke: #1e3d52"/>
     <use xlink:href="#mc7d8537e18" x="500.826033" y="154.629081" style="fill: #1e3d52; stroke: #1e3d52"/>
     <use xlink:href="#mc7d8537e18" x="512.374406" y="146.14486" style="fill: #1e3d52; stroke: #1e3d52"/>
     <use xlink:href="#mc7d8537e18" x="524.699236" y="136.056231" style="fill: #1e3d52; stroke: #1e3d52"/>
     <use xlink:href="#mc7d8537e18" x="538.038021" y="126.565122" style="fill: #1e3d52; stroke: #1e3d52"/>
     <use xlink:href="#mc7d8537e18" x="550.445381" y="117.304852" style="fill: #1e3d52; stroke: #1e3d52"/>
     <use xlink:href="#mc7d8537e18" x="562.595126" y="109.837957" style="fill: #1e3d52; stroke: #1e3d52"/>
     <use xlink:href="#mc7d8537e18" x="575.250009" y="102.006131" style="fill: #1e3d52; stroke: #1e3d52"/>
     <use xlink:href="#mc7d8537e18" x="587.229593" y="93.579603" style="fill: #1e3d52; stroke: #1e3d52"/>
     <use xlink:href="#mc7d8537e18" x="599.807113" y="83.597951" style="fill: #1e3d52; stroke: #1e3d52"/>
     <use xlink:href="#mc7d8537e18" x="612.192895" y="74.290033" style="fill: #1e3d52; stroke: #1e3d52"/>
     <use xlink:href="#mc7d8537e18" x="624.441581" y="62.19763" style="fill: #1e3d52; stroke: #1e3d52"/>
     <use xlink:href="#mc7d8537e18" x="636.848941" y="53.993761" style="fill: #1e3d52; stroke: #1e3d52"/>
     <use xlink:href="#mc7d8537e18" x="649.269825" y="50.68876" style="fill: #1e3d52; stroke: #1e3d52"/>
     <use xlink:href="#mc7d8537e18" x="661.54609" y="39.989246" style="fill: #1e3d52; stroke: #1e3d52"/>
    </g>
   </g>
   <g id="line2d_61">
    <path d="M 402.442889 172.91995 
L 414.422473 168.247882 
L 424.210507 166.641537 
L 432.486171 164.610771 
L 451.634461 160.27121 
L 461.422494 157.739395 
L 473.402079 154.328671 
L 488.846449 149.961731 
L 500.826033 145.035019 
L 512.374406 139.234842 
L 524.699236 131.427863 
L 538.038021 123.337974 
L 550.445381 115.180136 
L 562.595126 108.534372 
L 575.250009 101.06265 
L 587.229593 92.952545 
L 599.807113 83.331718 
L 612.192895 74.13237 
L 624.441581 62.08031 
L 636.848941 53.942646 
L 649.269825 50.6703 
L 661.54609 39.967701 
" clip-path="url(#pf785789da7)" style="fill: none; stroke: #c34a22; stroke-width: 1.5; stroke-linecap: square"/>
    <defs>
     <path id="m1b9433e7db" d="M 0 1.75 
C 0.464105 1.75 0.909265 1.565609 1.237437 1.237437 
C 1.565609 0.909265 1.75 0.464105 1.75 0 
C 1.75 -0.464105 1.565609 -0.909265 1.237437 -1.237437 
C 0.909265 -1.565609 0.464105 -1.75 0 -1.75 
C -0.464105 -1.75 -0.909265 -1.565609 -1.237437 -1.237437 
C -1.565609 -0.909265 -1.75 -0.464105 -1.75 0 
C -1.75 0.464105 -1.565609 0.909265 -1.237437 1.237437 
C -0.909265 1.565609 -0.464105 1.75 0 1.75 
z
" style="stroke: #c34a22"/>
    </defs>
    <g clip-path="url(#pf785789da7)">
     <use xlink:href="#m1b9433e7db" x="402.442889" y="172.91995" style="fill: #c34a22; stroke: #c34a22"/>
     <use xlink:href="#m1b9433e7db" x="414.422473" y="168.247882" style="fill: #c34a22; stroke: #c34a22"/>
     <use xlink:href="#m1b9433e7db" x="424.210507" y="166.641537" style="fill: #c34a22; stroke: #c34a22"/>
     <use xlink:href="#m1b9433e7db" x="432.486171" y="164.610771" style="fill: #c34a22; stroke: #c34a22"/>
     <use xlink:href="#m1b9433e7db" x="451.634461" y="160.27121" style="fill: #c34a22; stroke: #c34a22"/>
     <use xlink:href="#m1b9433e7db" x="461.422494" y="157.739395" style="fill: #c34a22; stroke: #c34a22"/>
     <use xlink:href="#m1b9433e7db" x="473.402079" y="154.328671" style="fill: #c34a22; stroke: #c34a22"/>
     <use xlink:href="#m1b9433e7db" x="488.846449" y="149.961731" style="fill: #c34a22; stroke: #c34a22"/>
     <use xlink:href="#m1b9433e7db" x="500.826033" y="145.035019" style="fill: #c34a22; stroke: #c34a22"/>
     <use xlink:href="#m1b9433e7db" x="512.374406" y="139.234842" style="fill: #c34a22; stroke: #c34a22"/>
     <use xlink:href="#m1b9433e7db" x="524.699236" y="131.427863" style="fill: #c34a22; stroke: #c34a22"/>
     <use xlink:href="#m1b9433e7db" x="538.038021" y="123.337974" style="fill: #c34a22; stroke: #c34a22"/>
     <use xlink:href="#m1b9433e7db" x="550.445381" y="115.180136" style="fill: #c34a22; stroke: #c34a22"/>
     <use xlink:href="#m1b9433e7db" x="562.595126" y="108.534372" style="fill: #c34a22; stroke: #c34a22"/>
     <use xlink:href="#m1b9433e7db" x="575.250009" y="101.06265" style="fill: #c34a22; stroke: #c34a22"/>
     <use xlink:href="#m1b9433e7db" x="587.229593" y="92.952545" style="fill: #c34a22; stroke: #c34a22"/>
     <use xlink:href="#m1b9433e7db" x="599.807113" y="83.331718" style="fill: #c34a22; stroke: #c34a22"/>
     <use xlink:href="#m1b9433e7db" x="612.192895" y="74.13237" style="fill: #c34a22; stroke: #c34a22"/>
     <use xlink:href="#m1b9433e7db" x="624.441581" y="62.08031" style="fill: #c34a22; stroke: #c34a22"/>
     <use xlink:href="#m1b9433e7db" x="636.848941" y="53.942646" style="fill: #c34a22; stroke: #c34a22"/>
     <use xlink:href="#m1b9433e7db" x="649.269825" y="50.6703" style="fill: #c34a22; stroke: #c34a22"/>
     <use xlink:href="#m1b9433e7db" x="661.54609" y="39.967701" style="fill: #c34a22; stroke: #c34a22"/>
    </g>
   </g>
   <g id="line2d_62">
    <path d="M 402.442889 143.560692 
L 414.422473 138.402559 
L 424.210507 132.101531 
L 432.486171 128.469664 
L 445.978124 122.605091 
L 461.422494 116.523691 
L 473.402079 112.164806 
L 486.09274 106.268397 
L 498.634482 100.507869 
L 510.614066 95.743509 
L 523.304728 90.674434 
L 535.84647 83.997441 
L 548.713439 78.768611 
L 560.516716 74.228305 
L 573.058458 70.318733 
L 585.038042 65.107102 
L 597.374342 60.367612 
L 609.424986 54.635702 
L 621.800776 48.075519 
L 634.050363 40.965633 
L 646.209198 39.098932 
L 658.445857 32.01717 
" clip-path="url(#pf785789da7)" style="fill: none; stroke: #6f8b6a; stroke-width: 1.5; stroke-linecap: square"/>
    <defs>
     <path id="m6fb6a738c4" d="M 0 1.75 
C 0.464105 1.75 0.909265 1.565609 1.237437 1.237437 
C 1.565609 0.909265 1.75 0.464105 1.75 0 
C 1.75 -0.464105 1.565609 -0.909265 1.237437 -1.237437 
C 0.909265 -1.565609 0.464105 -1.75 0 -1.75 
C -0.464105 -1.75 -0.909265 -1.565609 -1.237437 -1.237437 
C -1.565609 -0.909265 -1.75 -0.464105 -1.75 0 
C -1.75 0.464105 -1.565609 0.909265 -1.237437 1.237437 
C -0.909265 1.565609 -0.464105 1.75 0 1.75 
z
" style="stroke: #6f8b6a"/>
    </defs>
    <g clip-path="url(#pf785789da7)">
     <use xlink:href="#m6fb6a738c4" x="402.442889" y="143.560692" style="fill: #6f8b6a; stroke: #6f8b6a"/>
     <use xlink:href="#m6fb6a738c4" x="414.422473" y="138.402559" style="fill: #6f8b6a; stroke: #6f8b6a"/>
     <use xlink:href="#m6fb6a738c4" x="424.210507" y="132.101531" style="fill: #6f8b6a; stroke: #6f8b6a"/>
     <use xlink:href="#m6fb6a738c4" x="432.486171" y="128.469664" style="fill: #6f8b6a; stroke: #6f8b6a"/>
     <use xlink:href="#m6fb6a738c4" x="445.978124" y="122.605091" style="fill: #6f8b6a; stroke: #6f8b6a"/>
     <use xlink:href="#m6fb6a738c4" x="461.422494" y="116.523691" style="fill: #6f8b6a; stroke: #6f8b6a"/>
     <use xlink:href="#m6fb6a738c4" x="473.402079" y="112.164806" style="fill: #6f8b6a; stroke: #6f8b6a"/>
     <use xlink:href="#m6fb6a738c4" x="486.09274" y="106.268397" style="fill: #6f8b6a; stroke: #6f8b6a"/>
     <use xlink:href="#m6fb6a738c4" x="498.634482" y="100.507869" style="fill: #6f8b6a; stroke: #6f8b6a"/>
     <use xlink:href="#m6fb6a738c4" x="510.614066" y="95.743509" style="fill: #6f8b6a; stroke: #6f8b6a"/>
     <use xlink:href="#m6fb6a738c4" x="523.304728" y="90.674434" style="fill: #6f8b6a; stroke: #6f8b6a"/>
     <use xlink:href="#m6fb6a738c4" x="535.84647" y="83.997441" style="fill: #6f8b6a; stroke: #6f8b6a"/>
     <use xlink:href="#m6fb6a738c4" x="548.713439" y="78.768611" style="fill: #6f8b6a; stroke: #6f8b6a"/>
     <use xlink:href="#m6fb6a738c4" x="560.516716" y="74.228305" style="fill: #6f8b6a; stroke: #6f8b6a"/>
     <use xlink:href="#m6fb6a738c4" x="573.058458" y="70.318733" style="fill: #6f8b6a; stroke: #6f8b6a"/>
     <use xlink:href="#m6fb6a738c4" x="585.038042" y="65.107102" style="fill: #6f8b6a; stroke: #6f8b6a"/>
     <use xlink:href="#m6fb6a738c4" x="597.374342" y="60.367612" style="fill: #6f8b6a; stroke: #6f8b6a"/>
     <use xlink:href="#m6fb6a738c4" x="609.424986" y="54.635702" style="fill: #6f8b6a; stroke: #6f8b6a"/>
     <use xlink:href="#m6fb6a738c4" x="621.800776" y="48.075519" style="fill: #6f8b6a; stroke: #6f8b6a"/>
     <use xlink:href="#m6fb6a738c4" x="634.050363" y="40.965633" style="fill: #6f8b6a; stroke: #6f8b6a"/>
     <use xlink:href="#m6fb6a738c4" x="646.209198" y="39.098932" style="fill: #6f8b6a; stroke: #6f8b6a"/>
     <use xlink:href="#m6fb6a738c4" x="658.445857" y="32.01717" style="fill: #6f8b6a; stroke: #6f8b6a"/>
    </g>
   </g>
   <g id="patch_6">
    <path d="M 389.487729 236.563375 
L 389.487729 22.276875 
" style="fill: none; stroke: #d8cfbc; stroke-width: 0.8; stroke-linejoin: miter; stroke-linecap: square"/>
   </g>
   <g id="patch_7">
    <path d="M 389.487729 236.563375 
L 674.50125 236.563375 
" style="fill: none; stroke: #d8cfbc; stroke-width: 0.8; stroke-linejoin: miter; stroke-linecap: square"/>
   </g>
   <g id="text_25">
    <text style="font-style: italic; font-size: 12px; font-family: 'Georgia', 'Times New Roman', 'DejaVu Serif', serif; text-anchor: start; fill: #221e17" x="389.487729" y="16.276875" transform="rotate(-0 389.487729 16.276875)">α₁ corrupted by tiny artifact rates</text>
   </g>
   <g id="legend_2">
    <g id="line2d_63">
     <path d="M 399.387729 36.642188 
L 410.387729 36.642188 
L 421.387729 36.642188 
" style="fill: none; stroke: #1e3d52; stroke-width: 1.5; stroke-linecap: square"/>
     <g>
      <use xlink:href="#mc7d8537e18" x="410.387729" y="36.642188" style="fill: #1e3d52; stroke: #1e3d52"/>
     </g>
    </g>
    <g id="text_26">
     <text style="font-size: 11px; font-family: 'Georgia', 'Times New Roman', 'DejaVu Serif', serif; text-anchor: start; fill: #221e17" x="430.187729" y="40.492188" transform="rotate(-0 430.187729 40.492188)">clean: α₁=1.03</text>
    </g>
    <g id="line2d_64">
     <path d="M 399.387729 52.843125 
L 410.387729 52.843125 
L 421.387729 52.843125 
" style="fill: none; stroke: #c34a22; stroke-width: 1.5; stroke-linecap: square"/>
     <g>
      <use xlink:href="#m1b9433e7db" x="410.387729" y="52.843125" style="fill: #c34a22; stroke: #c34a22"/>
     </g>
    </g>
    <g id="text_27">
     <text style="font-size: 11px; font-family: 'Georgia', 'Times New Roman', 'DejaVu Serif', serif; text-anchor: start; fill: #221e17" x="430.187729" y="56.693125" transform="rotate(-0 430.187729 56.693125)">1.5% ectopics: α₁=0.35</text>
    </g>
    <g id="line2d_65">
     <path d="M 399.387729 69.044063 
L 410.387729 69.044063 
L 421.387729 69.044063 
" style="fill: none; stroke: #6f8b6a; stroke-width: 1.5; stroke-linecap: square"/>
     <g>
      <use xlink:href="#m6fb6a738c4" x="410.387729" y="69.044063" style="fill: #6f8b6a; stroke: #6f8b6a"/>
     </g>
    </g>
    <g id="text_28">
     <text style="font-size: 11px; font-family: 'Georgia', 'Times New Roman', 'DejaVu Serif', serif; text-anchor: start; fill: #221e17" x="430.187729" y="72.894063" transform="rotate(-0 430.187729 72.894063)">6% drops: α₁=0.64</text>
    </g>
   </g>
  </g>
 </g>
 <defs>
  <clipPath id="p793ab04a42">
   <rect x="53.88125" y="22.276875" width="285.013521" height="214.2865"/>
  </clipPath>
  <clipPath id="pf785789da7">
   <rect x="389.487729" y="22.276875" width="285.013521" height="214.2865"/>
  </clipPath>
 </defs>
</svg>
