<?xml version="1.0" encoding="utf-8" standalone="no"?>
<!DOCTYPE svg PUBLIC "-//W3C//DTD SVG 1.1//EN"
  "http://www.w3.org/Graphics/SVG/1.1/DTD/svg11.dtd">
<svg xmlns:xlink="http://www.w3.org/1999/xlink" width="532.8pt" height="288pt" viewBox="0 0 532.8 288" xmlns="http://www.w3.org/2000/svg" version="1.1">
 <metadata>
  <rdf:RDF xmlns:dc="http://purl.org/dc/elements/1.1/" xmlns:cc="http://creativecommons.org/ns#" xmlns:rdf="http://www.w3.org/1999/02/22-rdf-syntax-ns#">
   <cc:Work>
    <dc:type rdf:resource="http://purl.org/dc/dcmitype/StillImage"/>
    <dc:date>2026-07-11T02:13:54.664887</dc:date>
    <dc:format>image/svg+xml</dc:format>
    <dc:creator>
     <cc:Agent>
      <dc:title>Matplotlib v3.10.8, https://matplotlib.org/</dc:title>
     </cc:Agent>
    </dc:creator>
   </cc:Work>
  </rdf:RDF>
 </metadata>
 <defs>
  <style type="text/css">*{stroke-linejoin: round; stroke-linecap: butt}</style>
 </defs>
 <g id="figure_1">
  <g id="patch_1">
   <path d="M 0 288 
L 532.8 288 
L 532.8 0 
L 0 0 
z
" style="fill: #fbfaf8"/>
  </g>
  <g id="axes_1">
   <g id="patch_2">
    <path d="M 66.08 238.12 
L 519.84 238.12 
L 519.84 14.87662 
L 66.08 14.87662 
z
" style="fill: #fbfaf8"/>
   </g>
   <g id="FillBetweenPolyCollection_1">
    <defs>
     <path id="m20093f7563" d="M 78.802243 -12.148724 
L 78.802243 -175.650918 
L 79.686086 -175.650517 
L 80.569929 -175.649311 
L 81.453773 -175.647301 
L 82.337616 -175.644487 
L 83.221459 -175.64087 
L 84.105302 -175.636448 
L 84.989145 -175.631223 
L 85.872989 -175.625193 
L 86.756832 -175.61836 
L 87.640675 -175.610723 
L 88.524518 -175.602282 
L 89.408361 -175.593037 
L 90.292205 -175.582988 
L 91.176048 -175.572135 
L 92.059891 -175.560478 
L 92.943734 -175.548018 
L 93.827577 -175.534753 
L 94.711421 -175.520684 
L 95.595264 -175.505812 
L 96.479107 -175.490136 
L 97.36295 -175.473655 
L 98.246793 -175.456371 
L 99.130637 -175.438283 
L 100.01448 -175.419391 
L 100.898323 -175.399695 
L 101.782166 -175.379196 
L 102.666009 -175.357892 
L 103.549853 -175.335784 
L 104.433696 -175.312873 
L 105.317539 -175.289157 
L 106.201382 -175.264638 
L 107.085225 -175.239315 
L 107.969069 -175.213187 
L 108.852912 -175.186256 
L 109.736755 -175.158521 
L 110.620598 -175.129982 
L 111.504441 -175.100639 
L 112.388285 -175.070493 
L 113.272128 -175.039542 
L 114.155971 -175.007787 
L 115.039814 -174.975229 
L 115.923657 -174.941866 
L 116.807501 -174.9077 
L 117.691344 -174.87273 
L 118.575187 -174.836956 
L 119.45903 -174.800378 
L 120.342873 -174.762996 
L 121.226717 -174.72481 
L 122.11056 -174.68582 
L 122.994403 -174.646026 
L 123.878246 -174.605429 
L 124.762089 -174.564027 
L 125.645933 -174.521822 
L 126.529776 -174.478812 
L 127.413619 -174.434999 
L 128.297462 -174.390382 
L 129.181305 -174.34496 
L 130.065149 -174.298735 
L 130.948992 -174.251706 
L 131.832835 -174.203874 
L 132.716678 -174.155237 
L 133.600521 -174.105796 
L 134.484365 -174.055552 
L 135.368208 -174.004503 
L 136.252051 -173.952651 
L 137.135894 -173.899994 
L 138.019737 -173.846534 
L 138.903581 -173.79227 
L 139.787424 -173.737202 
L 140.671267 -173.68133 
L 141.55511 -173.624654 
L 142.438953 -173.567174 
L 143.322797 -173.50889 
L 144.20664 -173.449802 
L 145.090483 -173.389911 
L 145.974326 -173.329215 
L 146.858169 -173.267716 
L 147.742013 -173.205413 
L 148.625856 -173.142305 
L 149.509699 -173.078394 
L 150.393542 -173.013679 
L 151.277385 -172.94816 
L 152.161229 -172.881837 
L 153.045072 -172.814711 
L 153.928915 -172.74678 
L 154.812758 -172.678045 
L 155.696601 -172.608507 
L 156.580445 -172.538164 
L 157.464288 -172.467018 
L 158.348131 -172.395068 
L 159.231974 -172.322313 
L 160.115817 -172.248755 
L 160.999661 -172.174393 
L 161.883504 -172.099227 
L 162.767347 -172.023257 
L 163.65119 -171.946484 
L 164.535033 -171.868906 
L 165.418877 -171.790524 
L 166.30272 -171.711339 
L 167.186563 -171.631349 
L 168.070406 -171.550556 
L 168.954249 -171.468959 
L 169.838093 -171.386558 
L 170.721936 -171.303353 
L 171.605779 -171.219344 
L 172.489622 -171.134531 
L 173.373465 -171.048914 
L 174.257309 -170.962493 
L 175.141152 -170.875268 
L 176.024995 -170.78724 
L 176.908838 -170.698407 
L 177.792681 -170.608771 
L 178.676525 -170.518331 
L 179.560368 -170.427087 
L 180.444211 -170.335038 
L 181.328054 -170.242186 
L 182.211897 -170.14853 
L 183.095741 -170.05407 
L 183.979584 -169.958807 
L 184.863427 -169.862739 
L 185.74727 -169.765867 
L 186.631113 -169.668192 
L 187.514957 -169.569712 
L 188.3988 -169.470429 
L 189.282643 -169.370342 
L 190.166486 -169.269451 
L 191.050329 -169.167756 
L 191.934173 -169.065257 
L 192.818016 -168.961954 
L 193.701859 -168.857847 
L 194.585702 -168.752936 
L 195.469545 -168.647221 
L 196.353389 -168.540703 
L 197.237232 -168.43338 
L 198.121075 -168.325254 
L 199.004918 -168.216324 
L 199.888761 -168.106589 
L 200.772605 -167.996051 
L 201.656448 -167.884709 
L 202.540291 -167.772563 
L 203.424134 -167.659613 
L 204.307977 -167.545859 
L 205.191821 -167.431302 
L 206.075664 -167.31594 
L 206.959507 -167.199775 
L 207.84335 -167.082805 
L 208.727193 -166.965032 
L 209.611037 -166.846454 
L 210.49488 -166.727073 
L 211.378723 -166.606888 
L 212.262566 -166.485899 
L 213.146409 -166.364106 
L 214.030253 -166.241509 
L 214.914096 -166.118108 
L 215.797939 -165.993904 
L 216.681782 -165.868895 
L 217.565625 -165.743083 
L 218.449469 -165.616466 
L 219.333312 -165.489046 
L 220.217155 -165.360822 
L 221.100998 -165.231793 
L 221.984841 -165.101961 
L 222.868685 -164.971325 
L 223.752528 -164.839886 
L 224.636371 -164.707642 
L 225.520214 -164.574594 
L 226.404057 -164.440742 
L 227.287901 -164.306087 
L 228.171744 -164.170627 
L 229.055587 -164.034364 
L 229.93943 -163.897297 
L 230.823273 -163.759425 
L 231.707117 -163.62075 
L 232.59096 -163.481271 
L 233.474803 -163.340988 
L 234.358646 -163.199901 
L 235.242489 -163.058011 
L 236.126333 -162.915316 
L 237.010176 -162.771817 
L 237.894019 -162.627515 
L 238.777862 -162.482408 
L 239.661705 -162.336498 
L 240.545549 -162.189784 
L 241.429392 -162.042265 
L 242.313235 -161.893943 
L 243.197078 -161.744817 
L 244.080921 -161.594887 
L 244.964765 -161.444154 
L 245.848608 -161.292616 
L 246.732451 -161.140274 
L 247.616294 -160.987129 
L 248.500137 -160.833179 
L 249.383981 -160.678426 
L 250.267824 -160.522868 
L 251.151667 -160.366507 
L 252.03551 -160.209342 
L 252.919353 -160.051373 
L 253.803197 -159.8926 
L 254.68704 -159.733023 
L 255.570883 -159.572642 
L 256.454726 -159.411457 
L 257.338569 -159.249469 
L 258.222413 -159.086676 
L 259.106256 -158.92308 
L 259.990099 -158.758679 
L 260.873942 -158.593475 
L 261.757785 -158.427467 
L 262.641629 -158.260655 
L 263.525472 -158.093039 
L 264.409315 -157.924619 
L 265.293158 -157.755395 
L 266.177001 -157.585367 
L 267.060845 -157.414536 
L 267.944688 -157.2429 
L 268.828531 -157.07046 
L 269.712374 -156.897217 
L 270.596217 -156.72317 
L 271.480061 -156.548318 
L 272.363904 -156.372663 
L 273.247747 -156.196204 
L 274.13159 -156.018941 
L 275.015433 -155.840874 
L 275.899277 -155.662003 
L 276.78312 -155.482329 
L 277.666963 -155.30185 
L 278.550806 -155.120567 
L 279.434649 -154.938481 
L 280.318493 -154.755591 
L 281.202336 -154.571896 
L 282.086179 -154.387398 
L 282.970022 -154.202096 
L 283.853865 -154.01599 
L 284.737709 -153.82908 
L 285.621552 -153.641366 
L 286.505395 -153.452848 
L 287.389238 -153.263527 
L 288.273081 -153.073401 
L 289.156925 -152.882471 
L 290.040768 -152.690738 
L 290.924611 -152.498201 
L 291.808454 -152.304859 
L 292.692297 -152.110714 
L 293.576141 -151.915765 
L 294.459984 -151.720012 
L 295.343827 -151.523455 
L 296.22767 -151.326094 
L 297.111513 -151.12793 
L 297.995357 -150.928961 
L 298.8792 -150.729188 
L 299.763043 -150.528612 
L 300.646886 -150.327231 
L 301.530729 -150.125047 
L 302.414573 -149.922059 
L 303.298416 -149.718267 
L 304.182259 -149.513671 
L 305.066102 -149.308271 
L 305.949945 -149.102067 
L 306.833789 -148.895059 
L 307.717632 -148.687247 
L 308.601475 -148.478632 
L 309.485318 -148.269212 
L 310.369162 -148.058989 
L 311.253005 -147.847961 
L 312.136848 -147.63613 
L 313.020691 -147.423495 
L 313.904534 -147.210056 
L 314.788378 -146.995813 
L 315.672221 -146.780766 
L 316.556064 -146.564915 
L 317.439907 -146.34826 
L 318.32375 -146.130801 
L 319.207594 -145.912539 
L 320.091437 -145.693472 
L 320.97528 -145.473602 
L 321.859123 -145.252927 
L 322.742966 -145.031449 
L 323.62681 -144.809167 
L 324.510653 -144.586081 
L 325.394496 -144.362191 
L 326.278339 -144.137497 
L 327.162182 -143.911999 
L 328.046026 -143.685697 
L 328.929869 -143.458592 
L 329.813712 -143.230682 
L 330.697555 -143.001969 
L 331.581398 -142.772451 
L 332.465242 -142.54213 
L 333.349085 -142.311005 
L 334.232928 -142.079076 
L 335.116771 -141.846343 
L 336.000614 -141.612806 
L 336.884458 -141.378465 
L 337.768301 -141.14332 
L 338.652144 -140.907371 
L 339.535987 -140.670619 
L 340.41983 -140.433062 
L 341.303674 -140.194702 
L 342.187517 -139.955537 
L 343.07136 -139.715569 
L 343.955203 -139.474797 
L 344.839046 -139.233221 
L 345.72289 -138.990841 
L 346.606733 -138.747657 
L 347.490576 -138.503669 
L 348.374419 -138.258877 
L 349.258262 -138.013282 
L 350.142106 -137.766882 
L 351.025949 -137.519678 
L 351.909792 -137.271671 
L 352.793635 -137.02286 
L 353.677478 -136.773244 
L 354.561322 -136.522825 
L 355.445165 -136.271602 
L 356.329008 -136.019575 
L 357.212851 -135.766744 
L 358.096694 -135.51311 
L 358.980538 -135.258671 
L 359.864381 -135.003428 
L 360.748224 -134.747382 
L 361.632067 -134.490531 
L 362.51591 -134.232877 
L 363.399754 -133.974419 
L 364.283597 -133.715156 
L 365.16744 -133.45509 
L 366.051283 -133.19422 
L 366.935126 -132.932546 
L 367.81897 -132.670068 
L 368.702813 -132.406787 
L 369.586656 -132.142701 
L 370.470499 -131.877811 
L 371.354342 -131.612118 
L 372.238186 -131.34562 
L 373.122029 -131.078319 
L 374.005872 -130.810214 
L 374.889715 -130.541305 
L 375.773558 -130.271592 
L 376.657402 -130.001075 
L 377.541245 -129.729754 
L 378.425088 -129.457629 
L 379.308931 -129.1847 
L 380.192774 -128.910967 
L 381.076618 -128.636431 
L 381.960461 -128.36109 
L 382.844304 -128.084946 
L 383.728147 -127.807998 
L 384.61199 -127.530245 
L 385.495834 -127.251689 
L 386.379677 -126.972329 
L 387.26352 -126.692165 
L 388.147363 -126.411197 
L 389.031206 -126.129426 
L 389.91505 -125.84685 
L 390.798893 -125.56347 
L 391.682736 -125.279287 
L 392.566579 -124.994299 
L 393.450422 -124.708508 
L 394.334266 -124.421913 
L 395.218109 -124.134513 
L 396.101952 -123.84631 
L 396.985795 -123.557303 
L 397.869638 -123.267492 
L 398.753482 -122.976878 
L 399.637325 -122.685459 
L 400.521168 -122.393236 
L 401.405011 -122.10021 
L 402.288854 -121.806379 
L 403.172698 -121.511745 
L 404.056541 -121.216306 
L 404.940384 -120.920064 
L 405.824227 -120.623018 
L 406.70807 -120.325168 
L 407.591914 -120.026514 
L 408.475757 -119.727056 
L 409.3596 -119.426794 
L 410.243443 -119.125728 
L 411.127286 -118.823859 
L 412.01113 -118.521185 
L 412.894973 -118.217708 
L 413.778816 -117.913426 
L 414.662659 -117.608341 
L 415.546502 -117.302452 
L 416.430346 -116.995759 
L 417.314189 -116.688262 
L 418.198032 -116.379961 
L 419.081875 -116.070856 
L 419.965718 -115.760947 
L 420.849562 -115.450235 
L 421.733405 -115.138718 
L 422.617248 -114.826397 
L 423.501091 -114.513273 
L 424.384934 -114.199345 
L 425.268778 -113.884612 
L 426.152621 -113.569076 
L 427.036464 -113.252736 
L 427.920307 -112.935592 
L 428.80415 -112.617644 
L 429.687994 -112.298892 
L 430.571837 -111.979337 
L 431.45568 -111.658977 
L 432.339523 -111.337813 
L 433.223366 -111.015846 
L 434.10721 -110.693075 
L 434.991053 -110.369499 
L 435.874896 -110.04512 
L 436.758739 -109.719937 
L 437.642582 -109.39395 
L 438.526426 -109.067159 
L 439.410269 -108.739564 
L 440.294112 -108.411165 
L 441.177955 -108.081962 
L 442.061798 -107.751956 
L 442.945642 -107.421145 
L 443.829485 -107.089531 
L 444.713328 -106.757112 
L 445.597171 -106.42389 
L 446.481014 -106.089864 
L 447.364858 -105.755034 
L 448.248701 -105.4194 
L 449.132544 -105.082962 
L 450.016387 -104.74572 
L 450.90023 -104.407674 
L 451.784074 -104.068825 
L 452.667917 -103.729171 
L 453.55176 -103.388714 
L 454.435603 -103.047452 
L 455.319446 -102.705387 
L 456.20329 -102.362518 
L 457.087133 -102.018844 
L 457.970976 -101.674367 
L 458.854819 -101.329086 
L 459.738662 -100.983002 
L 460.622506 -100.636113 
L 461.506349 -100.28842 
L 462.390192 -99.939923 
L 463.274035 -99.590623 
L 464.157878 -99.240518 
L 465.041722 -98.88961 
L 465.925565 -98.537898 
L 466.809408 -98.185381 
L 467.693251 -97.832061 
L 468.577094 -97.477937 
L 469.460938 -97.123009 
L 470.344781 -96.767277 
L 471.228624 -96.410742 
L 472.112467 -96.053402 
L 472.99631 -95.695258 
L 473.880154 -95.336311 
L 474.763997 -94.976559 
L 475.64784 -94.616004 
L 476.531683 -94.254645 
L 477.415526 -93.892482 
L 478.29937 -93.529515 
L 479.183213 -93.165744 
L 480.067056 -92.801169 
L 480.950899 -92.43579 
L 481.834742 -92.069607 
L 482.718586 -91.70262 
L 483.602429 -91.33483 
L 484.486272 -90.966235 
L 485.370115 -90.596837 
L 486.253958 -90.226635 
L 487.137802 -89.855628 
L 488.021645 -89.483818 
L 488.905488 -89.111204 
L 489.789331 -88.737786 
L 490.673174 -88.363564 
L 491.557018 -87.988539 
L 492.440861 -87.612709 
L 493.324704 -87.236075 
L 494.208547 -86.858638 
L 495.09239 -86.480396 
L 495.976234 -86.101351 
L 496.860077 -85.721502 
L 497.74392 -85.340848 
L 498.627763 -84.959391 
L 499.511606 -84.57713 
L 500.39545 -84.194065 
L 501.279293 -83.810197 
L 502.163136 -83.425524 
L 503.046979 -83.040047 
L 503.930822 -82.653767 
L 504.814666 -82.266682 
L 505.698509 -81.878794 
L 506.582352 -81.490101 
L 507.466195 -81.100605 
L 508.350038 -80.710305 
L 509.233882 -80.319201 
L 510.117725 -79.927293 
L 511.001568 -79.534581 
L 511.885411 -79.141065 
L 512.769254 -78.746745 
L 513.653098 -78.351622 
L 514.536941 -77.955694 
L 515.420784 -77.558963 
L 516.304627 -77.161427 
L 517.18847 -76.763088 
L 518.072314 -76.363945 
L 518.956157 -75.963998 
L 519.84 -75.563247 
L 519.84 -12.148724 
L 519.84 -12.148724 
L 518.956157 -12.148724 
L 518.072314 -12.148724 
L 517.18847 -12.148724 
L 516.304627 -12.148724 
L 515.420784 -12.148724 
L 514.536941 -12.148724 
L 513.653098 -12.148724 
L 512.769254 -12.148724 
L 511.885411 -12.148724 
L 511.001568 -12.148724 
L 510.117725 -12.148724 
L 509.233882 -12.148724 
L 508.350038 -12.148724 
L 507.466195 -12.148724 
L 506.582352 -12.148724 
L 505.698509 -12.148724 
L 504.814666 -12.148724 
L 503.930822 -12.148724 
L 503.046979 -12.148724 
L 502.163136 -12.148724 
L 501.279293 -12.148724 
L 500.39545 -12.148724 
L 499.511606 -12.148724 
L 498.627763 -12.148724 
L 497.74392 -12.148724 
L 496.860077 -12.148724 
L 495.976234 -12.148724 
L 495.09239 -12.148724 
L 494.208547 -12.148724 
L 493.324704 -12.148724 
L 492.440861 -12.148724 
L 491.557018 -12.148724 
L 490.673174 -12.148724 
L 489.789331 -12.148724 
L 488.905488 -12.148724 
L 488.021645 -12.148724 
L 487.137802 -12.148724 
L 486.253958 -12.148724 
L 485.370115 -12.148724 
L 484.486272 -12.148724 
L 483.602429 -12.148724 
L 482.718586 -12.148724 
L 481.834742 -12.148724 
L 480.950899 -12.148724 
L 480.067056 -12.148724 
L 479.183213 -12.148724 
L 478.29937 -12.148724 
L 477.415526 -12.148724 
L 476.531683 -12.148724 
L 475.64784 -12.148724 
L 474.763997 -12.148724 
L 473.880154 -12.148724 
L 472.99631 -12.148724 
L 472.112467 -12.148724 
L 471.228624 -12.148724 
L 470.344781 -12.148724 
L 469.460938 -12.148724 
L 468.577094 -12.148724 
L 467.693251 -12.148724 
L 466.809408 -12.148724 
L 465.925565 -12.148724 
L 465.041722 -12.148724 
L 464.157878 -12.148724 
L 463.274035 -12.148724 
L 462.390192 -12.148724 
L 461.506349 -12.148724 
L 460.622506 -12.148724 
L 459.738662 -12.148724 
L 458.854819 -12.148724 
L 457.970976 -12.148724 
L 457.087133 -12.148724 
L 456.20329 -12.148724 
L 455.319446 -12.148724 
L 454.435603 -12.148724 
L 453.55176 -12.148724 
L 452.667917 -12.148724 
L 451.784074 -12.148724 
L 450.90023 -12.148724 
L 450.016387 -12.148724 
L 449.132544 -12.148724 
L 448.248701 -12.148724 
L 447.364858 -12.148724 
L 446.481014 -12.148724 
L 445.597171 -12.148724 
L 444.713328 -12.148724 
L 443.829485 -12.148724 
L 442.945642 -12.148724 
L 442.061798 -12.148724 
L 441.177955 -12.148724 
L 440.294112 -12.148724 
L 439.410269 -12.148724 
L 438.526426 -12.148724 
L 437.642582 -12.148724 
L 436.758739 -12.148724 
L 435.874896 -12.148724 
L 434.991053 -12.148724 
L 434.10721 -12.148724 
L 433.223366 -12.148724 
L 432.339523 -12.148724 
L 431.45568 -12.148724 
L 430.571837 -12.148724 
L 429.687994 -12.148724 
L 428.80415 -12.148724 
L 427.920307 -12.148724 
L 427.036464 -12.148724 
L 426.152621 -12.148724 
L 425.268778 -12.148724 
L 424.384934 -12.148724 
L 423.501091 -12.148724 
L 422.617248 -12.148724 
L 421.733405 -12.148724 
L 420.849562 -12.148724 
L 419.965718 -12.148724 
L 419.081875 -12.148724 
L 418.198032 -12.148724 
L 417.314189 -12.148724 
L 416.430346 -12.148724 
L 415.546502 -12.148724 
L 414.662659 -12.148724 
L 413.778816 -12.148724 
L 412.894973 -12.148724 
L 412.01113 -12.148724 
L 411.127286 -12.148724 
L 410.243443 -12.148724 
L 409.3596 -12.148724 
L 408.475757 -12.148724 
L 407.591914 -12.148724 
L 406.70807 -12.148724 
L 405.824227 -12.148724 
L 404.940384 -12.148724 
L 404.056541 -12.148724 
L 403.172698 -12.148724 
L 402.288854 -12.148724 
L 401.405011 -12.148724 
L 400.521168 -12.148724 
L 399.637325 -12.148724 
L 398.753482 -12.148724 
L 397.869638 -12.148724 
L 396.985795 -12.148724 
L 396.101952 -12.148724 
L 395.218109 -12.148724 
L 394.334266 -12.148724 
L 393.450422 -12.148724 
L 392.566579 -12.148724 
L 391.682736 -12.148724 
L 390.798893 -12.148724 
L 389.91505 -12.148724 
L 389.031206 -12.148724 
L 388.147363 -12.148724 
L 387.26352 -12.148724 
L 386.379677 -12.148724 
L 385.495834 -12.148724 
L 384.61199 -12.148724 
L 383.728147 -12.148724 
L 382.844304 -12.148724 
L 381.960461 -12.148724 
L 381.076618 -12.148724 
L 380.192774 -12.148724 
L 379.308931 -12.148724 
L 378.425088 -12.148724 
L 377.541245 -12.148724 
L 376.657402 -12.148724 
L 375.773558 -12.148724 
L 374.889715 -12.148724 
L 374.005872 -12.148724 
L 373.122029 -12.148724 
L 372.238186 -12.148724 
L 371.354342 -12.148724 
L 370.470499 -12.148724 
L 369.586656 -12.148724 
L 368.702813 -12.148724 
L 367.81897 -12.148724 
L 366.935126 -12.148724 
L 366.051283 -12.148724 
L 365.16744 -12.148724 
L 364.283597 -12.148724 
L 363.399754 -12.148724 
L 362.51591 -12.148724 
L 361.632067 -12.148724 
L 360.748224 -12.148724 
L 359.864381 -12.148724 
L 358.980538 -12.148724 
L 358.096694 -12.148724 
L 357.212851 -12.148724 
L 356.329008 -12.148724 
L 355.445165 -12.148724 
L 354.561322 -12.148724 
L 353.677478 -12.148724 
L 352.793635 -12.148724 
L 351.909792 -12.148724 
L 351.025949 -12.148724 
L 350.142106 -12.148724 
L 349.258262 -12.148724 
L 348.374419 -12.148724 
L 347.490576 -12.148724 
L 346.606733 -12.148724 
L 345.72289 -12.148724 
L 344.839046 -12.148724 
L 343.955203 -12.148724 
L 343.07136 -12.148724 
L 342.187517 -12.148724 
L 341.303674 -12.148724 
L 340.41983 -12.148724 
L 339.535987 -12.148724 
L 338.652144 -12.148724 
L 337.768301 -12.148724 
L 336.884458 -12.148724 
L 336.000614 -12.148724 
L 335.116771 -12.148724 
L 334.232928 -12.148724 
L 333.349085 -12.148724 
L 332.465242 -12.148724 
L 331.581398 -12.148724 
L 330.697555 -12.148724 
L 329.813712 -12.148724 
L 328.929869 -12.148724 
L 328.046026 -12.148724 
L 327.162182 -12.148724 
L 326.278339 -12.148724 
L 325.394496 -12.148724 
L 324.510653 -12.148724 
L 323.62681 -12.148724 
L 322.742966 -12.148724 
L 321.859123 -12.148724 
L 320.97528 -12.148724 
L 320.091437 -12.148724 
L 319.207594 -12.148724 
L 318.32375 -12.148724 
L 317.439907 -12.148724 
L 316.556064 -12.148724 
L 315.672221 -12.148724 
L 314.788378 -12.148724 
L 313.904534 -12.148724 
L 313.020691 -12.148724 
L 312.136848 -12.148724 
L 311.253005 -12.148724 
L 310.369162 -12.148724 
L 309.485318 -12.148724 
L 308.601475 -12.148724 
L 307.717632 -12.148724 
L 306.833789 -12.148724 
L 305.949945 -12.148724 
L 305.066102 -12.148724 
L 304.182259 -12.148724 
L 303.298416 -12.148724 
L 302.414573 -12.148724 
L 301.530729 -12.148724 
L 300.646886 -12.148724 
L 299.763043 -12.148724 
L 298.8792 -12.148724 
L 297.995357 -12.148724 
L 297.111513 -12.148724 
L 296.22767 -12.148724 
L 295.343827 -12.148724 
L 294.459984 -12.148724 
L 293.576141 -12.148724 
L 292.692297 -12.148724 
L 291.808454 -12.148724 
L 290.924611 -12.148724 
L 290.040768 -12.148724 
L 289.156925 -12.148724 
L 288.273081 -12.148724 
L 287.389238 -12.148724 
L 286.505395 -12.148724 
L 285.621552 -12.148724 
L 284.737709 -12.148724 
L 283.853865 -12.148724 
L 282.970022 -12.148724 
L 282.086179 -12.148724 
L 281.202336 -12.148724 
L 280.318493 -12.148724 
L 279.434649 -12.148724 
L 278.550806 -12.148724 
L 277.666963 -12.148724 
L 276.78312 -12.148724 
L 275.899277 -12.148724 
L 275.015433 -12.148724 
L 274.13159 -12.148724 
L 273.247747 -12.148724 
L 272.363904 -12.148724 
L 271.480061 -12.148724 
L 270.596217 -12.148724 
L 269.712374 -12.148724 
L 268.828531 -12.148724 
L 267.944688 -12.148724 
L 267.060845 -12.148724 
L 266.177001 -12.148724 
L 265.293158 -12.148724 
L 264.409315 -12.148724 
L 263.525472 -12.148724 
L 262.641629 -12.148724 
L 261.757785 -12.148724 
L 260.873942 -12.148724 
L 259.990099 -12.148724 
L 259.106256 -12.148724 
L 258.222413 -12.148724 
L 257.338569 -12.148724 
L 256.454726 -12.148724 
L 255.570883 -12.148724 
L 254.68704 -12.148724 
L 253.803197 -12.148724 
L 252.919353 -12.148724 
L 252.03551 -12.148724 
L 251.151667 -12.148724 
L 250.267824 -12.148724 
L 249.383981 -12.148724 
L 248.500137 -12.148724 
L 247.616294 -12.148724 
L 246.732451 -12.148724 
L 245.848608 -12.148724 
L 244.964765 -12.148724 
L 244.080921 -12.148724 
L 243.197078 -12.148724 
L 242.313235 -12.148724 
L 241.429392 -12.148724 
L 240.545549 -12.148724 
L 239.661705 -12.148724 
L 238.777862 -12.148724 
L 237.894019 -12.148724 
L 237.010176 -12.148724 
L 236.126333 -12.148724 
L 235.242489 -12.148724 
L 234.358646 -12.148724 
L 233.474803 -12.148724 
L 232.59096 -12.148724 
L 231.707117 -12.148724 
L 230.823273 -12.148724 
L 229.93943 -12.148724 
L 229.055587 -12.148724 
L 228.171744 -12.148724 
L 227.287901 -12.148724 
L 226.404057 -12.148724 
L 225.520214 -12.148724 
L 224.636371 -12.148724 
L 223.752528 -12.148724 
L 222.868685 -12.148724 
L 221.984841 -12.148724 
L 221.100998 -12.148724 
L 220.217155 -12.148724 
L 219.333312 -12.148724 
L 218.449469 -12.148724 
L 217.565625 -12.148724 
L 216.681782 -12.148724 
L 215.797939 -12.148724 
L 214.914096 -12.148724 
L 214.030253 -12.148724 
L 213.146409 -12.148724 
L 212.262566 -12.148724 
L 211.378723 -12.148724 
L 210.49488 -12.148724 
L 209.611037 -12.148724 
L 208.727193 -12.148724 
L 207.84335 -12.148724 
L 206.959507 -12.148724 
L 206.075664 -12.148724 
L 205.191821 -12.148724 
L 204.307977 -12.148724 
L 203.424134 -12.148724 
L 202.540291 -12.148724 
L 201.656448 -12.148724 
L 200.772605 -12.148724 
L 199.888761 -12.148724 
L 199.004918 -12.148724 
L 198.121075 -12.148724 
L 197.237232 -12.148724 
L 196.353389 -12.148724 
L 195.469545 -12.148724 
L 194.585702 -12.148724 
L 193.701859 -12.148724 
L 192.818016 -12.148724 
L 191.934173 -12.148724 
L 191.050329 -12.148724 
L 190.166486 -12.148724 
L 189.282643 -12.148724 
L 188.3988 -12.148724 
L 187.514957 -12.148724 
L 186.631113 -12.148724 
L 185.74727 -12.148724 
L 184.863427 -12.148724 
L 183.979584 -12.148724 
L 183.095741 -12.148724 
L 182.211897 -12.148724 
L 181.328054 -12.148724 
L 180.444211 -12.148724 
L 179.560368 -12.148724 
L 178.676525 -12.148724 
L 177.792681 -12.148724 
L 176.908838 -12.148724 
L 176.024995 -12.148724 
L 175.141152 -12.148724 
L 174.257309 -12.148724 
L 173.373465 -12.148724 
L 172.489622 -12.148724 
L 171.605779 -12.148724 
L 170.721936 -12.148724 
L 169.838093 -12.148724 
L 168.954249 -12.148724 
L 168.070406 -12.148724 
L 167.186563 -12.148724 
L 166.30272 -12.148724 
L 165.418877 -12.148724 
L 164.535033 -12.148724 
L 163.65119 -12.148724 
L 162.767347 -12.148724 
L 161.883504 -12.148724 
L 160.999661 -12.148724 
L 160.115817 -12.148724 
L 159.231974 -12.148724 
L 158.348131 -12.148724 
L 157.464288 -12.148724 
L 156.580445 -12.148724 
L 155.696601 -12.148724 
L 154.812758 -12.148724 
L 153.928915 -12.148724 
L 153.045072 -12.148724 
L 152.161229 -12.148724 
L 151.277385 -12.148724 
L 150.393542 -12.148724 
L 149.509699 -12.148724 
L 148.625856 -12.148724 
L 147.742013 -12.148724 
L 146.858169 -12.148724 
L 145.974326 -12.148724 
L 145.090483 -12.148724 
L 144.20664 -12.148724 
L 143.322797 -12.148724 
L 142.438953 -12.148724 
L 141.55511 -12.148724 
L 140.671267 -12.148724 
L 139.787424 -12.148724 
L 138.903581 -12.148724 
L 138.019737 -12.148724 
L 137.135894 -12.148724 
L 136.252051 -12.148724 
L 135.368208 -12.148724 
L 134.484365 -12.148724 
L 133.600521 -12.148724 
L 132.716678 -12.148724 
L 131.832835 -12.148724 
L 130.948992 -12.148724 
L 130.065149 -12.148724 
L 129.181305 -12.148724 
L 128.297462 -12.148724 
L 127.413619 -12.148724 
L 126.529776 -12.148724 
L 125.645933 -12.148724 
L 124.762089 -12.148724 
L 123.878246 -12.148724 
L 122.994403 -12.148724 
L 122.11056 -12.148724 
L 121.226717 -12.148724 
L 120.342873 -12.148724 
L 119.45903 -12.148724 
L 118.575187 -12.148724 
L 117.691344 -12.148724 
L 116.807501 -12.148724 
L 115.923657 -12.148724 
L 115.039814 -12.148724 
L 114.155971 -12.148724 
L 113.272128 -12.148724 
L 112.388285 -12.148724 
L 111.504441 -12.148724 
L 110.620598 -12.148724 
L 109.736755 -12.148724 
L 108.852912 -12.148724 
L 107.969069 -12.148724 
L 107.085225 -12.148724 
L 106.201382 -12.148724 
L 105.317539 -12.148724 
L 104.433696 -12.148724 
L 103.549853 -12.148724 
L 102.666009 -12.148724 
L 101.782166 -12.148724 
L 100.898323 -12.148724 
L 100.01448 -12.148724 
L 99.130637 -12.148724 
L 98.246793 -12.148724 
L 97.36295 -12.148724 
L 96.479107 -12.148724 
L 95.595264 -12.148724 
L 94.711421 -12.148724 
L 93.827577 -12.148724 
L 92.943734 -12.148724 
L 92.059891 -12.148724 
L 91.176048 -12.148724 
L 90.292205 -12.148724 
L 89.408361 -12.148724 
L 88.524518 -12.148724 
L 87.640675 -12.148724 
L 86.756832 -12.148724 
L 85.872989 -12.148724 
L 84.989145 -12.148724 
L 84.105302 -12.148724 
L 83.221459 -12.148724 
L 82.337616 -12.148724 
L 81.453773 -12.148724 
L 80.569929 -12.148724 
L 79.686086 -12.148724 
L 78.802243 -12.148724 
z
"/>
    </defs>
    <g clip-path="url(#p70ad5ce296)">
     <use xlink:href="#m20093f7563" x="0" y="288" style="fill: #d8cfbc; fill-opacity: 0.3"/>
    </g>
   </g>
   <g id="patch_3">
    <path d="M 410.491394 238.12 
L 461.591963 238.12 
L 461.591963 14.87662 
L 410.491394 14.87662 
z
" clip-path="url(#p70ad5ce296)" style="fill: #c34a22; opacity: 0.07"/>
   </g>
   <g id="matplotlib.axis_1">
    <g id="xtick_1">
     <g id="text_1">
      <text style="font-size: 12px; font-family: 'Georgia', 'Times New Roman', 'DejaVu Serif', serif; text-anchor: middle; fill: #5c554a" x="78.802243" y="254.19125" transform="rotate(-0 78.802243 254.19125)">0</text>
     </g>
    </g>
    <g id="xtick_2">
     <g id="text_2">
      <text style="font-size: 12px; font-family: 'Georgia', 'Times New Roman', 'DejaVu Serif', serif; text-anchor: middle; fill: #5c554a" x="163.617196" y="254.19125" transform="rotate(-0 163.617196 254.19125)">10</text>
     </g>
    </g>
    <g id="xtick_3">
     <g id="text_3">
      <text style="font-size: 12px; font-family: 'Georgia', 'Times New Roman', 'DejaVu Serif', serif; text-anchor: middle; fill: #5c554a" x="248.43215" y="254.19125" transform="rotate(-0 248.43215 254.19125)">20</text>
     </g>
    </g>
    <g id="xtick_4">
     <g id="text_4">
      <text style="font-size: 12px; font-family: 'Georgia', 'Times New Roman', 'DejaVu Serif', serif; text-anchor: middle; fill: #5c554a" x="333.247103" y="254.19125" transform="rotate(-0 333.247103 254.19125)">30</text>
     </g>
    </g>
    <g id="xtick_5">
     <g id="text_5">
      <text style="font-size: 12px; font-family: 'Georgia', 'Times New Roman', 'DejaVu Serif', serif; text-anchor: middle; fill: #5c554a" x="418.062056" y="254.19125" transform="rotate(-0 418.062056 254.19125)">40</text>
     </g>
    </g>
    <g id="xtick_6">
     <g id="text_6">
      <text style="font-size: 12px; font-family: 'Georgia', 'Times New Roman', 'DejaVu Serif', serif; text-anchor: middle; fill: #5c554a" x="502.877009" y="254.19125" transform="rotate(-0 502.877009 254.19125)">50</text>
     </g>
    </g>
    <g id="text_7">
     <text style="font-size: 12px; font-family: 'Georgia', 'Times New Roman', 'DejaVu Serif', serif; text-anchor: middle; fill: #5c554a" x="292.96" y="269.865" transform="rotate(-0 292.96 269.865)">ground distance (km)</text>
    </g>
   </g>
   <g id="matplotlib.axis_2">
    <g id="ytick_1">
     <g id="line2d_1">
      <defs>
       <path id="m02a67e1a98" d="M 0 0 
L -3.5 0 
" style="stroke: #5c554a; stroke-width: 0.8"/>
      </defs>
      <g>
       <use xlink:href="#m02a67e1a98" x="66.08" y="238.12" style="fill: #5c554a; stroke: #5c554a; stroke-width: 0.8"/>
      </g>
     </g>
     <g id="text_8">
      <text style="font-size: 12px; font-family: 'Georgia', 'Times New Roman', 'DejaVu Serif', serif; text-anchor: end; fill: #5c554a" x="59.08" y="242.655625" transform="rotate(-0 59.08 242.655625)">−200</text>
     </g>
    </g>
    <g id="ytick_2">
     <g id="line2d_2">
      <g>
       <use xlink:href="#m02a67e1a98" x="66.08" y="206.67727" style="fill: #5c554a; stroke: #5c554a; stroke-width: 0.8"/>
      </g>
     </g>
     <g id="text_9">
      <text style="font-size: 12px; font-family: 'Georgia', 'Times New Roman', 'DejaVu Serif', serif; text-anchor: end; fill: #5c554a" x="59.08" y="211.212895" transform="rotate(-0 59.08 211.212895)">−150</text>
     </g>
    </g>
    <g id="ytick_3">
     <g id="line2d_3">
      <g>
       <use xlink:href="#m02a67e1a98" x="66.08" y="175.234541" style="fill: #5c554a; stroke: #5c554a; stroke-width: 0.8"/>
      </g>
     </g>
     <g id="text_10">
      <text style="font-size: 12px; font-family: 'Georgia', 'Times New Roman', 'DejaVu Serif', serif; text-anchor: end; fill: #5c554a" x="59.08" y="179.770166" transform="rotate(-0 59.08 179.770166)">−100</text>
     </g>
    </g>
    <g id="ytick_4">
     <g id="line2d_4">
      <g>
       <use xlink:href="#m02a67e1a98" x="66.08" y="143.791811" style="fill: #5c554a; stroke: #5c554a; stroke-width: 0.8"/>
      </g>
     </g>
     <g id="text_11">
      <text style="font-size: 12px; font-family: 'Georgia', 'Times New Roman', 'DejaVu Serif', serif; text-anchor: end; fill: #5c554a" x="59.08" y="148.327436" transform="rotate(-0 59.08 148.327436)">−50</text>
     </g>
    </g>
    <g id="ytick_5">
     <g id="line2d_5">
      <g>
       <use xlink:href="#m02a67e1a98" x="66.08" y="112.349082" style="fill: #5c554a; stroke: #5c554a; stroke-width: 0.8"/>
      </g>
     </g>
     <g id="text_12">
      <text style="font-size: 12px; font-family: 'Georgia', 'Times New Roman', 'DejaVu Serif', serif; text-anchor: end; fill: #5c554a" x="59.08" y="116.884707" transform="rotate(-0 59.08 116.884707)">0</text>
     </g>
    </g>
    <g id="ytick_6">
     <g id="line2d_6">
      <g>
       <use xlink:href="#m02a67e1a98" x="66.08" y="80.906352" style="fill: #5c554a; stroke: #5c554a; stroke-width: 0.8"/>
      </g>
     </g>
     <g id="text_13">
      <text style="font-size: 12px; font-family: 'Georgia', 'Times New Roman', 'DejaVu Serif', serif; text-anchor: end; fill: #5c554a" x="59.08" y="85.441977" transform="rotate(-0 59.08 85.441977)">50</text>
     </g>
    </g>
    <g id="ytick_7">
     <g id="line2d_7">
      <g>
       <use xlink:href="#m02a67e1a98" x="66.08" y="49.463622" style="fill: #5c554a; stroke: #5c554a; stroke-width: 0.8"/>
      </g>
     </g>
     <g id="text_14">
      <text style="font-size: 12px; font-family: 'Georgia', 'Times New Roman', 'DejaVu Serif', serif; text-anchor: end; fill: #5c554a" x="59.08" y="53.999247" transform="rotate(-0 59.08 53.999247)">100</text>
     </g>
    </g>
    <g id="ytick_8">
     <g id="line2d_8">
      <g>
       <use xlink:href="#m02a67e1a98" x="66.08" y="18.020893" style="fill: #5c554a; stroke: #5c554a; stroke-width: 0.8"/>
      </g>
     </g>
     <g id="text_15">
      <text style="font-size: 12px; font-family: 'Georgia', 'Times New Roman', 'DejaVu Serif', serif; text-anchor: end; fill: #5c554a" x="59.08" y="22.556518" transform="rotate(-0 59.08 22.556518)">150</text>
     </g>
    </g>
    <g id="text_16">
     <text style="font-size: 12px; font-family: 'Georgia', 'Times New Roman', 'DejaVu Serif', serif; text-anchor: middle; fill: #5c554a" x="23.326875" y="126.49831" transform="rotate(-90 23.326875 126.49831)">height above / below antenna base (m)</text>
    </g>
   </g>
   <g id="line2d_9">
    <path d="M 78.802243 112.349082 
L 93.827577 112.465247 
L 108.852912 112.813744 
L 123.878246 113.394571 
L 138.903581 114.20773 
L 153.928915 115.25322 
L 168.954249 116.531041 
L 183.979584 118.041193 
L 199.004918 119.783676 
L 214.030253 121.758491 
L 229.055587 123.965636 
L 244.080921 126.405113 
L 259.106256 129.07692 
L 274.13159 131.981059 
L 289.156925 135.117529 
L 304.182259 138.486329 
L 319.207594 142.087461 
L 334.232928 145.920924 
L 349.258262 149.986718 
L 364.283597 154.284844 
L 379.308931 158.8153 
L 394.334266 163.578087 
L 409.3596 168.573206 
L 424.384934 173.800655 
L 439.410269 179.260436 
L 454.435603 184.952548 
L 469.460938 190.876991 
L 484.486272 197.033765 
L 499.511606 203.42287 
L 514.536941 210.044306 
L 519.84 212.436753 
L 519.84 212.436753 
" clip-path="url(#p70ad5ce296)" style="fill: none; stroke: #6f8b6a; stroke-width: 1.8; stroke-linecap: square"/>
   </g>
   <g id="line2d_10">
    <path d="M 78.802243 112.349082 
L 91.176048 112.454126 
L 103.549853 112.76926 
L 115.923657 113.294484 
L 128.297462 114.029797 
L 140.671267 114.9752 
L 153.045072 116.130692 
L 165.418877 117.496274 
L 177.792681 119.071945 
L 190.166486 120.857705 
L 202.540291 122.853555 
L 215.797939 125.225101 
L 229.055587 127.837821 
L 242.313235 130.691715 
L 255.570883 133.786783 
L 268.828531 137.123026 
L 282.086179 140.700442 
L 295.343827 144.519033 
L 308.601475 148.578797 
L 321.859123 152.879736 
L 335.116771 157.421849 
L 348.374419 162.205137 
L 361.632067 167.229598 
L 374.889715 172.495233 
L 388.147363 178.002043 
L 401.405011 183.750027 
L 414.662659 189.739185 
L 427.920307 195.969517 
L 441.177955 202.441023 
L 454.435603 209.153703 
L 467.693251 216.107558 
L 480.950899 223.302586 
L 494.208547 230.738789 
L 507.466195 238.416166 
L 519.84 245.799311 
L 519.84 245.799311 
" clip-path="url(#p70ad5ce296)" style="fill: none; stroke-dasharray: 4.81,2.08; stroke-dashoffset: 0; stroke: #5c554a; stroke-width: 1.3"/>
   </g>
   <g id="line2d_11">
    <path d="M 78.802243 112.349082 
L 78.802243 36.88653 
" clip-path="url(#p70ad5ce296)" style="fill: none; stroke: #221e17; stroke-width: 2.4; stroke-linecap: square"/>
   </g>
   <g id="line2d_12">
    <defs>
     <path id="m049ee281c9" d="M 0 2.5 
C 0.663008 2.5 1.29895 2.236584 1.767767 1.767767 
C 2.236584 1.29895 2.5 0.663008 2.5 0 
C 2.5 -0.663008 2.236584 -1.29895 1.767767 -1.767767 
C 1.29895 -2.236584 0.663008 -2.5 0 -2.5 
C -0.663008 -2.5 -1.29895 -2.236584 -1.767767 -1.767767 
C -2.236584 -1.29895 -2.5 -0.663008 -2.5 0 
C -2.5 0.663008 -2.236584 1.29895 -1.767767 1.767767 
C -1.29895 2.236584 -0.663008 2.5 0 2.5 
z
" style="stroke: #fbfaf8; stroke-width: 0.8"/>
    </defs>
    <g clip-path="url(#p70ad5ce296)">
     <use xlink:href="#m049ee281c9" x="78.802243" y="36.88653" style="fill: #c34a22; stroke: #fbfaf8; stroke-width: 0.8"/>
    </g>
   </g>
   <g id="line2d_13">
    <path d="M 78.802243 36.88653 
L 461.591963 187.745302 
" clip-path="url(#p70ad5ce296)" style="fill: none; stroke: #c34a22; stroke-width: 1.6; stroke-linecap: square"/>
   </g>
   <g id="line2d_14">
    <path d="M 78.802243 36.88653 
L 410.491394 187.828807 
" clip-path="url(#p70ad5ce296)" style="fill: none; stroke-dasharray: 4.81,2.08; stroke-dashoffset: 0; stroke: #1e3d52; stroke-width: 1.3"/>
   </g>
   <g id="line2d_15">
    <path d="M 66.08 112.349082 
L 519.84 112.349082 
" clip-path="url(#p70ad5ce296)" style="fill: none; stroke: #d8cfbc; stroke-width: 0.8; stroke-linecap: square"/>
   </g>
   <g id="patch_4">
    <path d="M 66.08 238.12 
L 66.08 14.87662 
" style="fill: none; stroke: #d8cfbc; stroke-width: 0.8; stroke-linejoin: miter; stroke-linecap: square"/>
   </g>
   <g id="text_17">
    <!-- drone, $h=120$ m -->
    <g style="fill: #221e17" transform="translate(86.435589 27.3884)">
     <text>
      <tspan x="0" y="-0.15625" style="font-size: 9px; font-family: 'Georgia'; fill: #221e17">d</tspan>
      <tspan x="5.167969" y="-0.15625" style="font-size: 9px; font-family: 'Georgia'; fill: #221e17">r</tspan>
      <tspan x="8.85498" y="-0.15625" style="font-size: 9px; font-family: 'Georgia'; fill: #221e17">o</tspan>
      <tspan x="13.706543" y="-0.15625" style="font-size: 9px; font-family: 'Georgia'; fill: #221e17">n</tspan>
      <tspan x="19.023926" y="-0.15625" style="font-size: 9px; font-family: 'Georgia'; fill: #221e17">e</tspan>
      <tspan x="23.374512" y="-0.15625" style="font-size: 9px; font-family: 'Georgia'; fill: #221e17">,</tspan>
      <tspan x="25.800293" y="-0.15625" style="font-size: 9px; font-family: 'Georgia'; fill: #221e17"> </tspan>
      <tspan x="61.901367" y="-0.15625" style="font-size: 9px; font-family: 'Georgia'; fill: #221e17"> </tspan>
      <tspan x="64.072266" y="-0.15625" style="font-size: 9px; font-family: 'Georgia'; fill: #221e17">m</tspan>
      <tspan x="27.971191" y="-0.15625" style="font-style: oblique; font-size: 9px; font-family: 'DejaVu Sans'; fill: #221e17">h</tspan>
      <tspan x="35.428711" y="-0.15625" style="font-size: 9px; font-family: 'DejaVu Sans'; fill: #221e17">=</tspan>
      <tspan x="44.723145" y="-0.15625" style="font-size: 9px; font-family: 'DejaVu Sans'; fill: #221e17">1</tspan>
      <tspan x="50.449219" y="-0.15625" style="font-size: 9px; font-family: 'DejaVu Sans'; fill: #221e17">2</tspan>
      <tspan x="56.175293" y="-0.15625" style="font-size: 9px; font-family: 'DejaVu Sans'; fill: #221e17">0</tspan>
     </text>
    </g>
   </g>
   <g id="text_18">
    <!-- radio horizon  $4.12\sqrt{h}=45$ km -->
    <g style="fill: #c34a22" transform="translate(341.728598 53.989456)">
     <text>
      <tspan x="0" y="-0.225625" style="font-size: 9px; font-family: 'Georgia'; fill: #c34a22">r</tspan>
      <tspan x="3.687012" y="-0.225625" style="font-size: 9px; font-family: 'Georgia'; fill: #c34a22">a</tspan>
      <tspan x="8.222168" y="-0.225625" style="font-size: 9px; font-family: 'Georgia'; fill: #c34a22">d</tspan>
      <tspan x="13.390137" y="-0.225625" style="font-size: 9px; font-family: 'Georgia'; fill: #c34a22">i</tspan>
      <tspan x="16.026855" y="-0.225625" style="font-size: 9px; font-family: 'Georgia'; fill: #c34a22">o</tspan>
      <tspan x="20.878418" y="-0.225625" style="font-size: 9px; font-family: 'Georgia'; fill: #c34a22"> </tspan>
      <tspan x="23.049316" y="-0.225625" style="font-size: 9px; font-family: 'Georgia'; fill: #c34a22">h</tspan>
      <tspan x="28.287598" y="-0.225625" style="font-size: 9px; font-family: 'Georgia'; fill: #c34a22">o</tspan>
      <tspan x="33.13916" y="-0.225625" style="font-size: 9px; font-family: 'Georgia'; fill: #c34a22">r</tspan>
      <tspan x="36.826172" y="-0.225625" style="font-size: 9px; font-family: 'Georgia'; fill: #c34a22">i</tspan>
      <tspan x="39.462891" y="-0.225625" style="font-size: 9px; font-family: 'Georgia'; fill: #c34a22">z</tspan>
      <tspan x="43.45752" y="-0.225625" style="font-size: 9px; font-family: 'Georgia'; fill: #c34a22">o</tspan>
      <tspan x="48.309082" y="-0.225625" style="font-size: 9px; font-family: 'Georgia'; fill: #c34a22">n</tspan>
      <tspan x="53.626465" y="-0.225625" style="font-size: 9px; font-family: 'Georgia'; fill: #c34a22"> </tspan>
      <tspan x="55.797363" y="-0.225625" style="font-size: 9px; font-family: 'Georgia'; fill: #c34a22"> </tspan>
      <tspan x="114.010681" y="-0.225625" style="font-size: 9px; font-family: 'Georgia'; fill: #c34a22"> </tspan>
      <tspan x="116.18158" y="-0.225625" style="font-size: 9px; font-family: 'Georgia'; fill: #c34a22">k</tspan>
      <tspan x="121.00238" y="-0.225625" style="font-size: 9px; font-family: 'Georgia'; fill: #c34a22">m</tspan>
      <tspan x="57.968262" y="-0.225625" style="font-size: 9px; font-family: 'DejaVu Sans'; fill: #c34a22">4</tspan>
      <tspan x="63.694336" y="-0.225625" style="font-size: 9px; font-family: 'DejaVu Sans'; fill: #c34a22">.</tspan>
      <tspan x="66.555176" y="-0.225625" style="font-size: 9px; font-family: 'DejaVu Sans'; fill: #c34a22">1</tspan>
      <tspan x="72.28125" y="-0.225625" style="font-size: 9px; font-family: 'DejaVu Sans'; fill: #c34a22">2</tspan>
      <tspan x="93.264099" y="-0.225625" style="font-size: 9px; font-family: 'DejaVu Sans'; fill: #c34a22">=</tspan>
      <tspan x="102.558533" y="-0.225625" style="font-size: 9px; font-family: 'DejaVu Sans'; fill: #c34a22">4</tspan>
      <tspan x="108.284607" y="-0.225625" style="font-size: 9px; font-family: 'DejaVu Sans'; fill: #c34a22">5</tspan>
      <tspan x="78.007324" y="-1.694375" style="font-size: 5.227444px; font-family: 'STIXSizeOneSym'; fill: #c34a22">√</tspan>
      <tspan x="84.68158" y="-0.59375" style="font-style: oblique; font-size: 9px; font-family: 'DejaVu Sans'; fill: #c34a22">h</tspan>
     </text>
     <rect x="83.55658" y="-9.875" width="7.954102" height="0.5625"/>
    </g>
   </g>
   <g id="text_19">
    <!-- geometric  $3.57\sqrt{h}=39$ km -->
    <g style="fill: #1e3d52" transform="translate(341.728598 74.984678)">
     <text>
      <tspan x="0" y="-0.225625" style="font-size: 9px; font-family: 'Georgia'; fill: #1e3d52">g</tspan>
      <tspan x="4.583496" y="-0.225625" style="font-size: 9px; font-family: 'Georgia'; fill: #1e3d52">e</tspan>
      <tspan x="8.934082" y="-0.225625" style="font-size: 9px; font-family: 'Georgia'; fill: #1e3d52">o</tspan>
      <tspan x="13.785645" y="-0.225625" style="font-size: 9px; font-family: 'Georgia'; fill: #1e3d52">m</tspan>
      <tspan x="21.713379" y="-0.225625" style="font-size: 9px; font-family: 'Georgia'; fill: #1e3d52">e</tspan>
      <tspan x="26.063965" y="-0.225625" style="font-size: 9px; font-family: 'Georgia'; fill: #1e3d52">t</tspan>
      <tspan x="29.170898" y="-0.225625" style="font-size: 9px; font-family: 'Georgia'; fill: #1e3d52">r</tspan>
      <tspan x="32.85791" y="-0.225625" style="font-size: 9px; font-family: 'Georgia'; fill: #1e3d52">i</tspan>
      <tspan x="35.494629" y="-0.225625" style="font-size: 9px; font-family: 'Georgia'; fill: #1e3d52">c</tspan>
      <tspan x="39.581543" y="-0.225625" style="font-size: 9px; font-family: 'Georgia'; fill: #1e3d52"> </tspan>
      <tspan x="41.752441" y="-0.225625" style="font-size: 9px; font-family: 'Georgia'; fill: #1e3d52"> </tspan>
      <tspan x="99.340759" y="-0.225625" style="font-size: 9px; font-family: 'Georgia'; fill: #1e3d52"> </tspan>
      <tspan x="101.511658" y="-0.225625" style="font-size: 9px; font-family: 'Georgia'; fill: #1e3d52">k</tspan>
      <tspan x="106.332458" y="-0.225625" style="font-size: 9px; font-family: 'Georgia'; fill: #1e3d52">m</tspan>
      <tspan x="43.92334" y="-0.225625" style="font-size: 9px; font-family: 'DejaVu Sans'; fill: #1e3d52">3</tspan>
      <tspan x="49.649414" y="-0.225625" style="font-size: 9px; font-family: 'DejaVu Sans'; fill: #1e3d52">.</tspan>
      <tspan x="52.510254" y="-0.225625" style="font-size: 9px; font-family: 'DejaVu Sans'; fill: #1e3d52">5</tspan>
      <tspan x="57.611328" y="-0.225625" style="font-size: 9px; font-family: 'DejaVu Sans'; fill: #1e3d52">7</tspan>
      <tspan x="78.594177" y="-0.225625" style="font-size: 9px; font-family: 'DejaVu Sans'; fill: #1e3d52">=</tspan>
      <tspan x="87.888611" y="-0.225625" style="font-size: 9px; font-family: 'DejaVu Sans'; fill: #1e3d52">3</tspan>
      <tspan x="93.614685" y="-0.225625" style="font-size: 9px; font-family: 'DejaVu Sans'; fill: #1e3d52">9</tspan>
      <tspan x="63.337402" y="-1.694375" style="font-size: 5.227444px; font-family: 'STIXSizeOneSym'; fill: #1e3d52">√</tspan>
      <tspan x="70.011658" y="-0.59375" style="font-style: oblique; font-size: 9px; font-family: 'DejaVu Sans'; fill: #1e3d52">h</tspan>
     </text>
     <rect x="68.886658" y="-9.875" width="7.954102" height="0.5625"/>
    </g>
   </g>
   <g id="text_20">
    <text style="font-size: 9.5px; font-family: 'Georgia', 'Times New Roman', 'DejaVu Serif', serif; fill: #c34a22" transform="translate(211.975602 52.393236) rotate(-322)">grazing ray</text>
   </g>
   <g id="line2d_16">
    <defs>
     <path id="m7f94d154c6" d="M 0 2.5 
C 0.663008 2.5 1.29895 2.236584 1.767767 1.767767 
C 2.236584 1.29895 2.5 0.663008 2.5 0 
C 2.5 -0.663008 2.236584 -1.29895 1.767767 -1.767767 
C 1.29895 -2.236584 0.663008 -2.5 0 -2.5 
C -0.663008 -2.5 -1.29895 -2.236584 -1.767767 -1.767767 
C -2.236584 -1.29895 -2.5 -0.663008 -2.5 0 
C -2.5 0.663008 -2.236584 1.29895 -1.767767 1.767767 
C -1.29895 2.236584 -0.663008 2.5 0 2.5 
z
" style="stroke: #fbfaf8; stroke-width: 0.8"/>
    </defs>
    <g clip-path="url(#p70ad5ce296)">
     <use xlink:href="#m7f94d154c6" x="410.491394" y="187.828807" style="fill: #1e3d52; stroke: #fbfaf8; stroke-width: 0.8"/>
    </g>
   </g>
   <g id="line2d_17">
    <g clip-path="url(#p70ad5ce296)">
     <use xlink:href="#m049ee281c9" x="461.591963" y="187.745302" style="fill: #c34a22; stroke: #fbfaf8; stroke-width: 0.8"/>
    </g>
   </g>
   <g id="legend_1">
    <g id="line2d_18">
     <path d="M 74.18 211.598125 
L 82.28 211.598125 
L 90.38 211.598125 
" style="fill: none; stroke: #6f8b6a; stroke-width: 1.8; stroke-linecap: square"/>
    </g>
    <g id="text_21">
     <!-- 4/3-Earth ($k=4/3$) -->
     <g style="fill: #221e17" transform="translate(97.58 214.748125)">
      <text>
       <tspan x="0" y="-0.15625" style="font-size: 9px; font-family: 'Georgia'; fill: #221e17">4</tspan>
       <tspan x="5.084473" y="-0.15625" style="font-size: 9px; font-family: 'Georgia'; fill: #221e17">/</tspan>
       <tspan x="9.303223" y="-0.15625" style="font-size: 9px; font-family: 'Georgia'; fill: #221e17">3</tspan>
       <tspan x="14.269043" y="-0.15625" style="font-size: 9px; font-family: 'Georgia'; fill: #221e17">-</tspan>
       <tspan x="17.635254" y="-0.15625" style="font-size: 9px; font-family: 'Georgia'; fill: #221e17">E</tspan>
       <tspan x="23.515137" y="-0.15625" style="font-size: 9px; font-family: 'Georgia'; fill: #221e17">a</tspan>
       <tspan x="28.050293" y="-0.15625" style="font-size: 9px; font-family: 'Georgia'; fill: #221e17">r</tspan>
       <tspan x="31.737305" y="-0.15625" style="font-size: 9px; font-family: 'Georgia'; fill: #221e17">t</tspan>
       <tspan x="34.844238" y="-0.15625" style="font-size: 9px; font-family: 'Georgia'; fill: #221e17">h</tspan>
       <tspan x="40.08252" y="-0.15625" style="font-size: 9px; font-family: 'Georgia'; fill: #221e17"> </tspan>
       <tspan x="42.253418" y="-0.15625" style="font-size: 9px; font-family: 'Georgia'; fill: #221e17">(</tspan>
       <tspan x="76.372559" y="-0.15625" style="font-size: 9px; font-family: 'Georgia'; fill: #221e17">)</tspan>
       <tspan x="45.628418" y="-0.15625" style="font-style: oblique; font-size: 9px; font-family: 'DejaVu Sans'; fill: #221e17">k</tspan>
       <tspan x="52.59375" y="-0.15625" style="font-size: 9px; font-family: 'DejaVu Sans'; fill: #221e17">=</tspan>
       <tspan x="61.888184" y="-0.15625" style="font-size: 9px; font-family: 'DejaVu Sans'; fill: #221e17">4</tspan>
       <tspan x="67.614258" y="-0.15625" style="font-size: 9px; font-family: 'DejaVu Sans'; fill: #221e17">/</tspan>
       <tspan x="70.646484" y="-0.15625" style="font-size: 9px; font-family: 'DejaVu Sans'; fill: #221e17">3</tspan>
      </text>
     </g>
    </g>
    <g id="line2d_19">
     <path d="M 74.18 224.89 
L 82.28 224.89 
L 90.38 224.89 
" style="fill: none; stroke-dasharray: 4.81,2.08; stroke-dashoffset: 0; stroke: #5c554a; stroke-width: 1.3"/>
    </g>
    <g id="text_22">
     <!-- geometric ($k=1$) -->
     <g style="fill: #221e17" transform="translate(97.58 228.04)">
      <text>
       <tspan x="0" y="-0.15625" style="font-size: 9px; font-family: 'Georgia'; fill: #221e17">g</tspan>
       <tspan x="4.583496" y="-0.15625" style="font-size: 9px; font-family: 'Georgia'; fill: #221e17">e</tspan>
       <tspan x="8.934082" y="-0.15625" style="font-size: 9px; font-family: 'Georgia'; fill: #221e17">o</tspan>
       <tspan x="13.785645" y="-0.15625" style="font-size: 9px; font-family: 'Georgia'; fill: #221e17">m</tspan>
       <tspan x="21.713379" y="-0.15625" style="font-size: 9px; font-family: 'Georgia'; fill: #221e17">e</tspan>
       <tspan x="26.063965" y="-0.15625" style="font-size: 9px; font-family: 'Georgia'; fill: #221e17">t</tspan>
       <tspan x="29.170898" y="-0.15625" style="font-size: 9px; font-family: 'Georgia'; fill: #221e17">r</tspan>
       <tspan x="32.85791" y="-0.15625" style="font-size: 9px; font-family: 'Georgia'; fill: #221e17">i</tspan>
       <tspan x="35.494629" y="-0.15625" style="font-size: 9px; font-family: 'Georgia'; fill: #221e17">c</tspan>
       <tspan x="39.581543" y="-0.15625" style="font-size: 9px; font-family: 'Georgia'; fill: #221e17"> </tspan>
       <tspan x="41.752441" y="-0.15625" style="font-size: 9px; font-family: 'Georgia'; fill: #221e17">(</tspan>
       <tspan x="67.113281" y="-0.15625" style="font-size: 9px; font-family: 'Georgia'; fill: #221e17">)</tspan>
       <tspan x="45.127441" y="-0.15625" style="font-style: oblique; font-size: 9px; font-family: 'DejaVu Sans'; fill: #221e17">k</tspan>
       <tspan x="52.092773" y="-0.15625" style="font-size: 9px; font-family: 'DejaVu Sans'; fill: #221e17">=</tspan>
       <tspan x="61.387207" y="-0.15625" style="font-size: 9px; font-family: 'DejaVu Sans'; fill: #221e17">1</tspan>
      </text>
     </g>
    </g>
   </g>
  </g>
 </g>
 <defs>
  <clipPath id="p70ad5ce296">
   <rect x="66.08" y="14.87662" width="453.76" height="223.24338"/>
  </clipPath>
 </defs>
</svg>
