<?xml version="1.0" encoding="utf-8" standalone="no"?>
<!DOCTYPE svg PUBLIC "-//W3C//DTD SVG 1.1//EN"
  "http://www.w3.org/Graphics/SVG/1.1/DTD/svg11.dtd">
<svg xmlns:xlink="http://www.w3.org/1999/xlink" width="518.4pt" height="288pt" viewBox="0 0 518.4 288" xmlns="http://www.w3.org/2000/svg" version="1.1">
 <metadata>
  <rdf:RDF xmlns:dc="http://purl.org/dc/elements/1.1/" xmlns:cc="http://creativecommons.org/ns#" xmlns:rdf="http://www.w3.org/1999/02/22-rdf-syntax-ns#">
   <cc:Work>
    <dc:type rdf:resource="http://purl.org/dc/dcmitype/StillImage"/>
    <dc:date>2026-07-15T21:16:29.239372</dc:date>
    <dc:format>image/svg+xml</dc:format>
    <dc:creator>
     <cc:Agent>
      <dc:title>Matplotlib v3.10.8, https://matplotlib.org/</dc:title>
     </cc:Agent>
    </dc:creator>
   </cc:Work>
  </rdf:RDF>
 </metadata>
 <defs>
  <style type="text/css">*{stroke-linejoin: round; stroke-linecap: butt}</style>
 </defs>
 <g id="figure_1">
  <g id="patch_1">
   <path d="M 0 288 
L 518.4 288 
L 518.4 0 
L 0 0 
z
" style="fill: #fbfaf8"/>
  </g>
  <g id="axes_1">
   <g id="patch_2">
    <path d="M 56.9 238.12 
L 491.76 238.12 
L 491.76 12.96 
L 56.9 12.96 
z
" style="fill: #fbfaf8"/>
   </g>
   <g id="FillBetweenPolyCollection_1">
    <defs>
     <path id="m002213aafd" d="M 57.33486 -56.75155 
L 57.33486 -55.834231 
L 58.060111 -59.605248 
L 58.785361 -62.277903 
L 59.510612 -64.468886 
L 60.235863 -66.371305 
L 60.961113 -68.075899 
L 61.686364 -69.633944 
L 62.411615 -71.07778 
L 63.136865 -72.429356 
L 63.862116 -73.704378 
L 64.587367 -74.914548 
L 65.312617 -76.068856 
L 66.037868 -77.17439 
L 66.763118 -78.236856 
L 67.488369 -79.260927 
L 68.21362 -80.250486 
L 68.93887 -81.208805 
L 69.664121 -82.138667 
L 70.389372 -83.042466 
L 71.114622 -83.922278 
L 71.839873 -84.779918 
L 72.565124 -85.616982 
L 73.290374 -86.434883 
L 74.015625 -87.234879 
L 74.740876 -88.018099 
L 75.466126 -88.785554 
L 76.191377 -89.538161 
L 76.916628 -90.276749 
L 77.641878 -91.002073 
L 78.367129 -91.714823 
L 79.09238 -92.415632 
L 79.81763 -93.10508 
L 80.542881 -93.783703 
L 81.268131 -94.451995 
L 81.993382 -95.110413 
L 82.718633 -95.759384 
L 83.443883 -96.399302 
L 84.169134 -97.030536 
L 84.894385 -97.65343 
L 85.619635 -98.268306 
L 86.344886 -98.875466 
L 87.070137 -99.475194 
L 87.795387 -100.067756 
L 88.520638 -100.653403 
L 89.245889 -101.232371 
L 89.971139 -101.804884 
L 90.69639 -102.371153 
L 91.421641 -102.931378 
L 92.146891 -103.485749 
L 92.872142 -104.034445 
L 93.597393 -104.577636 
L 94.322643 -105.115487 
L 95.047894 -105.64815 
L 95.773145 -106.175774 
L 96.498395 -106.698498 
L 97.223646 -107.216457 
L 97.948896 -107.729778 
L 98.674147 -108.238585 
L 99.399398 -108.742994 
L 100.124648 -109.243116 
L 100.849899 -109.739061 
L 101.57515 -110.23093 
L 102.3004 -110.718822 
L 103.025651 -111.202833 
L 103.750902 -111.683054 
L 104.476152 -112.159571 
L 105.201403 -112.632471 
L 105.926654 -113.101833 
L 106.651904 -113.567736 
L 107.377155 -114.030256 
L 108.102406 -114.489464 
L 108.827656 -114.945432 
L 109.552907 -115.398227 
L 110.278158 -115.847913 
L 111.003408 -116.294555 
L 111.728659 -116.738214 
L 112.453909 -117.178947 
L 113.17916 -117.616813 
L 113.904411 -118.051867 
L 114.629661 -118.484162 
L 115.354912 -118.91375 
L 116.080163 -119.340681 
L 116.805413 -119.765004 
L 117.530664 -120.186766 
L 118.255915 -120.606013 
L 118.981165 -121.022789 
L 119.706416 -121.437138 
L 120.431667 -121.849102 
L 121.156917 -122.25872 
L 121.882168 -122.666034 
L 122.607419 -123.071081 
L 123.332669 -123.473898 
L 124.05792 -123.874523 
L 124.783171 -124.27299 
L 125.508421 -124.669335 
L 126.233672 -125.06359 
L 126.958923 -125.455788 
L 127.684173 -125.845961 
L 128.409424 -126.234141 
L 129.134674 -126.620357 
L 129.859925 -127.004639 
L 130.585176 -127.387016 
L 131.310426 -127.767516 
L 132.035677 -128.146166 
L 132.760928 -128.522993 
L 133.486178 -128.898022 
L 134.211429 -129.271281 
L 134.93668 -129.642792 
L 135.66193 -130.012581 
L 136.387181 -130.380672 
L 137.112432 -130.747087 
L 137.837682 -131.111849 
L 138.562933 -131.474981 
L 139.288184 -131.836503 
L 140.013434 -132.196438 
L 140.738685 -132.554806 
L 141.463936 -132.911627 
L 142.189186 -133.266922 
L 142.914437 -133.620709 
L 143.639687 -133.973007 
L 144.364938 -134.323836 
L 145.090189 -134.673213 
L 145.815439 -135.021157 
L 146.54069 -135.367684 
L 147.265941 -135.712813 
L 147.991191 -136.056559 
L 148.716442 -136.398939 
L 149.441693 -136.73997 
L 150.166943 -137.079667 
L 150.892194 -137.418046 
L 151.617445 -137.755122 
L 152.342695 -138.09091 
L 153.067946 -138.425425 
L 153.793197 -138.758681 
L 154.518447 -139.090691 
L 155.243698 -139.421471 
L 155.968949 -139.751033 
L 156.694199 -140.079391 
L 157.41945 -140.406558 
L 158.144701 -140.732547 
L 158.869951 -141.05737 
L 159.595202 -141.381041 
L 160.320452 -141.70357 
L 161.045703 -142.02497 
L 161.770954 -142.345254 
L 162.496204 -142.664431 
L 163.221455 -142.982515 
L 163.946706 -143.299515 
L 164.671956 -143.615444 
L 165.397207 -143.930311 
L 166.122458 -144.244128 
L 166.847708 -144.556904 
L 167.572959 -144.86865 
L 168.29821 -145.179377 
L 169.02346 -145.489094 
L 169.748711 -145.797811 
L 170.473962 -146.105537 
L 171.199212 -146.412283 
L 171.924463 -146.718056 
L 172.649714 -147.022868 
L 173.374964 -147.326725 
L 174.100215 -147.629639 
L 174.825465 -147.931616 
L 175.550716 -148.232666 
L 176.275967 -148.532798 
L 177.001217 -148.832019 
L 177.726468 -149.130339 
L 178.451719 -149.427764 
L 179.176969 -149.724303 
L 179.90222 -150.019964 
L 180.627471 -150.314755 
L 181.352721 -150.608683 
L 182.077972 -150.901756 
L 182.803223 -151.193981 
L 183.528473 -151.485365 
L 184.253724 -151.775917 
L 184.978975 -152.065642 
L 185.704225 -152.354548 
L 186.429476 -152.642642 
L 187.154727 -152.92993 
L 187.879977 -153.21642 
L 188.605228 -153.502118 
L 189.330478 -153.78703 
L 190.055729 -154.071163 
L 190.78098 -154.354523 
L 191.50623 -154.637117 
L 192.231481 -154.918951 
L 192.956732 -155.20003 
L 193.681982 -155.480361 
L 194.407233 -155.75995 
L 195.132484 -156.038803 
L 195.857734 -156.316925 
L 196.582985 -156.594322 
L 197.308236 -156.871 
L 198.033486 -157.146965 
L 198.758737 -157.422221 
L 199.483988 -157.696774 
L 200.209238 -157.970631 
L 200.934489 -158.243795 
L 201.65974 -158.516272 
L 202.38499 -158.788067 
L 203.110241 -159.059186 
L 203.835492 -159.329634 
L 204.560742 -159.599414 
L 205.285993 -159.868533 
L 206.011243 -160.136995 
L 206.736494 -160.404805 
L 207.461745 -160.671968 
L 208.186995 -160.938488 
L 208.912246 -161.20437 
L 209.637497 -161.469618 
L 210.362747 -161.734237 
L 211.087998 -161.998232 
L 211.813249 -162.261607 
L 212.538499 -162.524366 
L 213.26375 -162.786513 
L 213.989001 -163.048053 
L 214.714251 -163.30899 
L 215.439502 -163.569329 
L 216.164753 -163.829072 
L 216.890003 -164.088225 
L 217.615254 -164.346791 
L 218.340505 -164.604774 
L 219.065755 -164.862178 
L 219.791006 -165.119008 
L 220.516256 -165.375266 
L 221.241507 -165.630957 
L 221.966758 -165.886084 
L 222.692008 -166.140652 
L 223.417259 -166.394663 
L 224.14251 -166.648122 
L 224.86776 -166.901032 
L 225.593011 -167.153396 
L 226.318262 -167.405219 
L 227.043512 -167.656503 
L 227.768763 -167.907252 
L 228.494014 -168.157469 
L 229.219264 -168.407158 
L 229.944515 -168.656323 
L 230.669766 -168.904966 
L 231.395016 -169.15309 
L 232.120267 -169.400699 
L 232.845518 -169.647797 
L 233.570768 -169.894385 
L 234.296019 -170.140469 
L 235.02127 -170.386049 
L 235.74652 -170.63113 
L 236.471771 -170.875715 
L 237.197021 -171.119806 
L 237.922272 -171.363407 
L 238.647523 -171.60652 
L 239.372773 -171.849149 
L 240.098024 -172.091296 
L 240.823275 -172.332964 
L 241.548525 -172.574156 
L 242.273776 -172.814875 
L 242.999027 -173.055124 
L 243.724277 -173.294905 
L 244.449528 -173.534221 
L 245.174779 -173.773074 
L 245.900029 -174.011468 
L 246.62528 -174.249405 
L 247.350531 -174.486888 
L 248.075781 -174.723919 
L 248.801032 -174.960501 
L 249.526283 -175.196636 
L 250.251533 -175.432327 
L 250.976784 -175.667577 
L 251.702034 -175.902387 
L 252.427285 -176.13676 
L 253.152536 -176.3707 
L 253.877786 -176.604207 
L 254.603037 -176.837285 
L 255.328288 -177.069936 
L 256.053538 -177.302162 
L 256.778789 -177.533966 
L 257.50404 -177.765349 
L 258.22929 -177.996315 
L 258.954541 -178.226865 
L 259.679792 -178.457001 
L 260.405042 -178.686727 
L 261.130293 -178.916043 
L 261.855544 -179.144953 
L 262.580794 -179.373458 
L 263.306045 -179.60156 
L 264.031296 -179.829262 
L 264.756546 -180.056566 
L 265.481797 -180.283473 
L 266.207048 -180.509987 
L 266.932298 -180.736108 
L 267.657549 -180.961839 
L 268.382799 -181.187182 
L 269.10805 -181.412139 
L 269.833301 -181.636712 
L 270.558551 -181.860903 
L 271.283802 -182.084714 
L 272.009053 -182.308147 
L 272.734303 -182.531203 
L 273.459554 -182.753884 
L 274.184805 -182.976193 
L 274.910055 -183.198132 
L 275.635306 -183.419701 
L 276.360557 -183.640904 
L 277.085807 -183.861741 
L 277.811058 -184.082215 
L 278.536309 -184.302328 
L 279.261559 -184.52208 
L 279.98681 -184.741474 
L 280.712061 -184.960512 
L 281.437311 -185.179196 
L 282.162562 -185.397527 
L 282.887812 -185.615506 
L 283.613063 -185.833136 
L 284.338314 -186.050418 
L 285.063564 -186.267354 
L 285.788815 -186.483945 
L 286.514066 -186.700194 
L 287.239316 -186.916101 
L 287.964567 -187.131669 
L 288.689818 -187.346898 
L 289.415068 -187.561791 
L 290.140319 -187.77635 
L 290.86557 -187.990575 
L 291.59082 -188.204468 
L 292.316071 -188.418031 
L 293.041322 -188.631265 
L 293.766572 -188.844172 
L 294.491823 -189.056753 
L 295.217074 -189.269011 
L 295.942324 -189.480945 
L 296.667575 -189.692558 
L 297.392826 -189.903852 
L 298.118076 -190.114827 
L 298.843327 -190.325485 
L 299.568577 -190.535827 
L 300.293828 -190.745856 
L 301.019079 -190.955571 
L 301.744329 -191.164976 
L 302.46958 -191.374071 
L 303.194831 -191.582857 
L 303.920081 -191.791335 
L 304.645332 -191.999509 
L 305.370583 -192.207377 
L 306.095833 -192.414943 
L 306.821084 -192.622206 
L 307.546335 -192.829169 
L 308.271585 -193.035833 
L 308.996836 -193.242199 
L 309.722087 -193.448268 
L 310.447337 -193.654042 
L 311.172588 -193.859522 
L 311.897839 -194.064709 
L 312.623089 -194.269605 
L 313.34834 -194.47421 
L 314.07359 -194.678526 
L 314.798841 -194.882554 
L 315.524092 -195.086296 
L 316.249342 -195.289752 
L 316.974593 -195.492923 
L 317.699844 -195.695812 
L 318.425094 -195.898419 
L 319.150345 -196.100745 
L 319.875596 -196.302791 
L 320.600846 -196.504559 
L 321.326097 -196.70605 
L 322.051348 -196.907264 
L 322.776598 -197.108204 
L 323.501849 -197.30887 
L 324.2271 -197.509262 
L 324.95235 -197.709384 
L 325.677601 -197.909235 
L 326.402852 -198.108816 
L 327.128102 -198.308129 
L 327.853353 -198.507174 
L 328.578604 -198.705954 
L 329.303854 -198.904468 
L 330.029105 -199.102718 
L 330.754355 -199.300706 
L 331.479606 -199.498431 
L 332.204857 -199.695895 
L 332.930107 -199.893099 
L 333.655358 -200.090045 
L 334.380609 -200.286732 
L 335.105859 -200.483163 
L 335.83111 -200.679338 
L 336.556361 -200.875258 
L 337.281611 -201.070924 
L 338.006862 -201.266337 
L 338.732113 -201.461498 
L 339.457363 -201.656408 
L 340.182614 -201.851069 
L 340.907865 -202.04548 
L 341.633115 -202.239643 
L 342.358366 -202.433559 
L 343.083617 -202.627229 
L 343.808867 -202.820654 
L 344.534118 -203.013834 
L 345.259368 -203.206771 
L 345.984619 -203.399465 
L 346.70987 -203.591918 
L 347.43512 -203.784131 
L 348.160371 -203.976103 
L 348.885622 -204.167837 
L 349.610872 -204.359332 
L 350.336123 -204.550591 
L 351.061374 -204.741613 
L 351.786624 -204.9324 
L 352.511875 -205.122953 
L 353.237126 -205.313272 
L 353.962376 -205.503358 
L 354.687627 -205.693212 
L 355.412878 -205.882836 
L 356.138128 -206.072229 
L 356.863379 -206.261392 
L 357.58863 -206.450327 
L 358.31388 -206.639035 
L 359.039131 -206.827515 
L 359.764382 -207.01577 
L 360.489632 -207.203799 
L 361.214883 -207.391604 
L 361.940133 -207.579185 
L 362.665384 -207.766543 
L 363.390635 -207.953679 
L 364.115885 -208.140594 
L 364.841136 -208.327288 
L 365.566387 -208.513763 
L 366.291637 -208.700018 
L 367.016888 -208.886056 
L 367.742139 -209.071876 
L 368.467389 -209.25748 
L 369.19264 -209.442867 
L 369.917891 -209.62804 
L 370.643141 -209.812998 
L 371.368392 -209.997742 
L 372.093643 -210.182273 
L 372.818893 -210.366593 
L 373.544144 -210.5507 
L 374.269395 -210.734598 
L 374.994645 -210.918285 
L 375.719896 -211.101763 
L 376.445146 -211.285032 
L 377.170397 -211.468093 
L 377.895648 -211.650947 
L 378.620898 -211.833595 
L 379.346149 -212.016037 
L 380.0714 -212.198274 
L 380.79665 -212.380307 
L 381.521901 -212.562136 
L 382.247152 -212.743762 
L 382.972402 -212.925185 
L 383.697653 -213.106407 
L 384.422904 -213.287428 
L 385.148154 -213.468249 
L 385.873405 -213.64887 
L 386.598656 -213.829292 
L 387.323906 -214.009515 
L 388.049157 -214.189541 
L 388.774408 -214.36937 
L 389.499658 -214.549003 
L 390.224909 -214.72844 
L 390.950159 -214.907682 
L 391.67541 -215.086729 
L 392.400661 -215.265582 
L 393.125911 -215.444243 
L 393.851162 -215.62271 
L 394.576413 -215.800986 
L 395.301663 -215.97907 
L 396.026914 -216.156964 
L 396.752165 -216.334667 
L 397.477415 -216.512181 
L 398.202666 -216.689506 
L 398.927917 -216.866643 
L 399.653167 -217.043592 
L 400.378418 -217.220354 
L 401.103669 -217.39693 
L 401.828919 -217.573319 
L 402.55417 -217.749523 
L 403.279421 -217.925543 
L 404.004671 -218.101378 
L 404.729922 -218.27703 
L 405.455173 -218.452498 
L 406.180423 -218.627784 
L 406.905674 -218.802889 
L 407.630924 -218.977811 
L 408.356175 -219.152554 
L 409.081426 -219.327116 
L 409.806676 -219.501498 
L 410.531927 -219.675701 
L 411.257178 -219.849726 
L 411.982428 -220.023573 
L 412.707679 -220.197242 
L 413.43293 -220.370734 
L 414.15818 -220.54405 
L 414.883431 -220.71719 
L 415.608682 -220.890155 
L 416.333932 -221.062945 
L 417.059183 -221.235561 
L 417.784434 -221.408003 
L 418.509684 -221.580272 
L 419.234935 -221.752368 
L 419.960186 -221.924292 
L 420.685436 -222.096045 
L 421.410687 -222.267626 
L 422.135937 -222.439037 
L 422.861188 -222.610278 
L 423.586439 -222.781349 
L 424.311689 -222.952251 
L 425.03694 -223.122984 
L 425.762191 -223.293549 
L 426.487441 -223.463947 
L 427.212692 -223.634178 
L 427.937943 -223.804242 
L 428.663193 -223.97414 
L 429.388444 -224.143872 
L 430.113695 -224.313439 
L 430.838945 -224.482841 
L 431.564196 -224.652079 
L 432.289447 -224.821154 
L 433.014697 -224.990065 
L 433.739948 -225.158813 
L 434.465199 -225.327399 
L 435.190449 -225.495824 
L 435.9157 -225.664087 
L 436.640951 -225.832189 
L 437.366201 -226.00013 
L 438.091452 -226.167912 
L 438.816702 -226.335534 
L 439.541953 -226.502997 
L 440.267204 -226.670301 
L 440.992454 -226.837447 
L 441.717705 -227.004436 
L 442.442956 -227.171267 
L 443.168206 -227.337941 
L 443.893457 -227.504459 
L 444.618708 -227.670821 
L 445.343958 -227.837027 
L 446.069209 -228.003079 
L 446.79446 -228.168975 
L 447.51971 -228.334718 
L 448.244961 -228.500306 
L 448.970212 -228.665742 
L 449.695462 -228.831024 
L 450.420713 -228.996154 
L 451.145964 -229.161132 
L 451.871214 -229.325958 
L 452.596465 -229.490632 
L 453.321715 -229.655156 
L 454.046966 -229.81953 
L 454.772217 -229.983753 
L 455.497467 -230.147827 
L 456.222718 -230.311752 
L 456.947969 -230.475528 
L 457.673219 -230.639155 
L 458.39847 -230.802635 
L 459.123721 -230.965967 
L 459.848971 -231.129152 
L 460.574222 -231.29219 
L 461.299473 -231.455081 
L 462.024723 -231.617827 
L 462.749974 -231.780427 
L 463.475225 -231.942882 
L 464.200475 -232.105191 
L 464.925726 -232.267357 
L 465.650977 -232.429378 
L 466.376227 -232.591256 
L 467.101478 -232.752991 
L 467.826729 -232.914582 
L 468.551979 -233.076031 
L 469.27723 -233.237338 
L 470.00248 -233.398503 
L 470.727731 -233.559527 
L 471.452982 -233.720409 
L 472.178232 -233.881151 
L 472.903483 -234.041753 
L 473.628734 -234.202215 
L 474.353984 -234.362537 
L 475.079235 -234.52272 
L 475.804486 -234.682764 
L 476.529736 -234.84267 
L 477.254987 -235.002437 
L 477.980238 -235.162067 
L 478.705488 -235.321559 
L 479.430739 -235.480914 
L 480.15599 -235.640133 
L 480.88124 -235.799215 
L 481.606491 -235.958161 
L 482.331742 -236.116972 
L 483.056992 -236.275647 
L 483.782243 -236.434187 
L 484.507493 -236.592593 
L 485.232744 -236.750864 
L 485.957995 -236.909002 
L 486.683245 -237.067006 
L 487.408496 -237.224876 
L 488.133747 -237.382614 
L 488.858997 -237.540219 
L 489.584248 -237.697692 
L 490.309499 -237.855033 
L 491.034749 -238.012242 
L 491.76 -238.16932 
L 491.76 -267.177479 
L 491.76 -267.177479 
L 491.034749 -266.996201 
L 490.309499 -266.814772 
L 489.584248 -266.633191 
L 488.858997 -266.451457 
L 488.133747 -266.269571 
L 487.408496 -266.087532 
L 486.683245 -265.90534 
L 485.957995 -265.722994 
L 485.232744 -265.540493 
L 484.507493 -265.357839 
L 483.782243 -265.175029 
L 483.056992 -264.992063 
L 482.331742 -264.808942 
L 481.606491 -264.625665 
L 480.88124 -264.442231 
L 480.15599 -264.258641 
L 479.430739 -264.074893 
L 478.705488 -263.890987 
L 477.980238 -263.706923 
L 477.254987 -263.5227 
L 476.529736 -263.338319 
L 475.804486 -263.153778 
L 475.079235 -262.969077 
L 474.353984 -262.784216 
L 473.628734 -262.599195 
L 472.903483 -262.414012 
L 472.178232 -262.228668 
L 471.452982 -262.043162 
L 470.727731 -261.857493 
L 470.00248 -261.671662 
L 469.27723 -261.485667 
L 468.551979 -261.299509 
L 467.826729 -261.113187 
L 467.101478 -260.926701 
L 466.376227 -260.740049 
L 465.650977 -260.553232 
L 464.925726 -260.36625 
L 464.200475 -260.179101 
L 463.475225 -259.991785 
L 462.749974 -259.804302 
L 462.024723 -259.616652 
L 461.299473 -259.428833 
L 460.574222 -259.240846 
L 459.848971 -259.05269 
L 459.123721 -258.864365 
L 458.39847 -258.67587 
L 457.673219 -258.487205 
L 456.947969 -258.298368 
L 456.222718 -258.109361 
L 455.497467 -257.920182 
L 454.772217 -257.73083 
L 454.046966 -257.541306 
L 453.321715 -257.351609 
L 452.596465 -257.161738 
L 451.871214 -256.971693 
L 451.145964 -256.781474 
L 450.420713 -256.591079 
L 449.695462 -256.400509 
L 448.970212 -256.209763 
L 448.244961 -256.018841 
L 447.51971 -255.827741 
L 446.79446 -255.636464 
L 446.069209 -255.445009 
L 445.343958 -255.253376 
L 444.618708 -255.061564 
L 443.893457 -254.869572 
L 443.168206 -254.6774 
L 442.442956 -254.485047 
L 441.717705 -254.292514 
L 440.992454 -254.099799 
L 440.267204 -253.906902 
L 439.541953 -253.713823 
L 438.816702 -253.52056 
L 438.091452 -253.327114 
L 437.366201 -253.133484 
L 436.640951 -252.939669 
L 435.9157 -252.745669 
L 435.190449 -252.551483 
L 434.465199 -252.357111 
L 433.739948 -252.162552 
L 433.014697 -251.967806 
L 432.289447 -251.772872 
L 431.564196 -251.57775 
L 430.838945 -251.382438 
L 430.113695 -251.186938 
L 429.388444 -250.991247 
L 428.663193 -250.795365 
L 427.937943 -250.599293 
L 427.212692 -250.403029 
L 426.487441 -250.206572 
L 425.762191 -250.009923 
L 425.03694 -249.81308 
L 424.311689 -249.616043 
L 423.586439 -249.418811 
L 422.861188 -249.221385 
L 422.135937 -249.023763 
L 421.410687 -248.825944 
L 420.685436 -248.627929 
L 419.960186 -248.429716 
L 419.234935 -248.231305 
L 418.509684 -248.032695 
L 417.784434 -247.833886 
L 417.059183 -247.634877 
L 416.333932 -247.435668 
L 415.608682 -247.236257 
L 414.883431 -247.036645 
L 414.15818 -246.836831 
L 413.43293 -246.636814 
L 412.707679 -246.436593 
L 411.982428 -246.236168 
L 411.257178 -246.035538 
L 410.531927 -245.834703 
L 409.806676 -245.633661 
L 409.081426 -245.432414 
L 408.356175 -245.230958 
L 407.630924 -245.029295 
L 406.905674 -244.827423 
L 406.180423 -244.625342 
L 405.455173 -244.423051 
L 404.729922 -244.22055 
L 404.004671 -244.017837 
L 403.279421 -243.814912 
L 402.55417 -243.611775 
L 401.828919 -243.408424 
L 401.103669 -243.20486 
L 400.378418 -243.001081 
L 399.653167 -242.797087 
L 398.927917 -242.592877 
L 398.202666 -242.38845 
L 397.477415 -242.183806 
L 396.752165 -241.978944 
L 396.026914 -241.773863 
L 395.301663 -241.568563 
L 394.576413 -241.363043 
L 393.851162 -241.157301 
L 393.125911 -240.951339 
L 392.400661 -240.745154 
L 391.67541 -240.538746 
L 390.950159 -240.332114 
L 390.224909 -240.125258 
L 389.499658 -239.918177 
L 388.774408 -239.71087 
L 388.049157 -239.503336 
L 387.323906 -239.295575 
L 386.598656 -239.087586 
L 385.873405 -238.879368 
L 385.148154 -238.67092 
L 384.422904 -238.462242 
L 383.697653 -238.253333 
L 382.972402 -238.044191 
L 382.247152 -237.834817 
L 381.521901 -237.62521 
L 380.79665 -237.415368 
L 380.0714 -237.205291 
L 379.346149 -236.994979 
L 378.620898 -236.784429 
L 377.895648 -236.573642 
L 377.170397 -236.362617 
L 376.445146 -236.151353 
L 375.719896 -235.939849 
L 374.994645 -235.728104 
L 374.269395 -235.516118 
L 373.544144 -235.30389 
L 372.818893 -235.091418 
L 372.093643 -234.878702 
L 371.368392 -234.665741 
L 370.643141 -234.452535 
L 369.917891 -234.239082 
L 369.19264 -234.025382 
L 368.467389 -233.811433 
L 367.742139 -233.597235 
L 367.016888 -233.382787 
L 366.291637 -233.168089 
L 365.566387 -232.953138 
L 364.841136 -232.737935 
L 364.115885 -232.522478 
L 363.390635 -232.306767 
L 362.665384 -232.0908 
L 361.940133 -231.874577 
L 361.214883 -231.658097 
L 360.489632 -231.441359 
L 359.764382 -231.224362 
L 359.039131 -231.007105 
L 358.31388 -230.789586 
L 357.58863 -230.571806 
L 356.863379 -230.353764 
L 356.138128 -230.135457 
L 355.412878 -229.916886 
L 354.687627 -229.698049 
L 353.962376 -229.478945 
L 353.237126 -229.259574 
L 352.511875 -229.039934 
L 351.786624 -228.820025 
L 351.061374 -228.599845 
L 350.336123 -228.379393 
L 349.610872 -228.158669 
L 348.885622 -227.937672 
L 348.160371 -227.716399 
L 347.43512 -227.494851 
L 346.70987 -227.273026 
L 345.984619 -227.050924 
L 345.259368 -226.828542 
L 344.534118 -226.605881 
L 343.808867 -226.382939 
L 343.083617 -226.159715 
L 342.358366 -225.936208 
L 341.633115 -225.712417 
L 340.907865 -225.488341 
L 340.182614 -225.263978 
L 339.457363 -225.039328 
L 338.732113 -224.81439 
L 338.006862 -224.589162 
L 337.281611 -224.363643 
L 336.556361 -224.137832 
L 335.83111 -223.911729 
L 335.105859 -223.685331 
L 334.380609 -223.458638 
L 333.655358 -223.231648 
L 332.930107 -223.004361 
L 332.204857 -222.776775 
L 331.479606 -222.548889 
L 330.754355 -222.320702 
L 330.029105 -222.092213 
L 329.303854 -221.86342 
L 328.578604 -221.634322 
L 327.853353 -221.404918 
L 327.128102 -221.175207 
L 326.402852 -220.945188 
L 325.677601 -220.714859 
L 324.95235 -220.484219 
L 324.2271 -220.253266 
L 323.501849 -220.022001 
L 322.776598 -219.79042 
L 322.051348 -219.558523 
L 321.326097 -219.326309 
L 320.600846 -219.093777 
L 319.875596 -218.860924 
L 319.150345 -218.62775 
L 318.425094 -218.394253 
L 317.699844 -218.160433 
L 316.974593 -217.926287 
L 316.249342 -217.691814 
L 315.524092 -217.457013 
L 314.798841 -217.221883 
L 314.07359 -216.986422 
L 313.34834 -216.750629 
L 312.623089 -216.514502 
L 311.897839 -216.27804 
L 311.172588 -216.041241 
L 310.447337 -215.804105 
L 309.722087 -215.566629 
L 308.996836 -215.328812 
L 308.271585 -215.090653 
L 307.546335 -214.852151 
L 306.821084 -214.613302 
L 306.095833 -214.374107 
L 305.370583 -214.134564 
L 304.645332 -213.894671 
L 303.920081 -213.654426 
L 303.194831 -213.413829 
L 302.46958 -213.172877 
L 301.744329 -212.931569 
L 301.019079 -212.689903 
L 300.293828 -212.447878 
L 299.568577 -212.205492 
L 298.843327 -211.962744 
L 298.118076 -211.719632 
L 297.392826 -211.476154 
L 296.667575 -211.232308 
L 295.942324 -210.988093 
L 295.217074 -210.743508 
L 294.491823 -210.49855 
L 293.766572 -210.253218 
L 293.041322 -210.00751 
L 292.316071 -209.761425 
L 291.59082 -209.51496 
L 290.86557 -209.268114 
L 290.140319 -209.020885 
L 289.415068 -208.773272 
L 288.689818 -208.525272 
L 287.964567 -208.276884 
L 287.239316 -208.028105 
L 286.514066 -207.778935 
L 285.788815 -207.529371 
L 285.063564 -207.279411 
L 284.338314 -207.029054 
L 283.613063 -206.778297 
L 282.887812 -206.527138 
L 282.162562 -206.275577 
L 281.437311 -206.02361 
L 280.712061 -205.771236 
L 279.98681 -205.518452 
L 279.261559 -205.265258 
L 278.536309 -205.01165 
L 277.811058 -204.757627 
L 277.085807 -204.503186 
L 276.360557 -204.248326 
L 275.635306 -203.993045 
L 274.910055 -203.73734 
L 274.184805 -203.481209 
L 273.459554 -203.224651 
L 272.734303 -202.967662 
L 272.009053 -202.710242 
L 271.283802 -202.452387 
L 270.558551 -202.194096 
L 269.833301 -201.935366 
L 269.10805 -201.676195 
L 268.382799 -201.41658 
L 267.657549 -201.15652 
L 266.932298 -200.896013 
L 266.207048 -200.635055 
L 265.481797 -200.373644 
L 264.756546 -200.111779 
L 264.031296 -199.849457 
L 263.306045 -199.586674 
L 262.580794 -199.32343 
L 261.855544 -199.059721 
L 261.130293 -198.795546 
L 260.405042 -198.5309 
L 259.679792 -198.265783 
L 258.954541 -198.000191 
L 258.22929 -197.734123 
L 257.50404 -197.467574 
L 256.778789 -197.200543 
L 256.053538 -196.933028 
L 255.328288 -196.665024 
L 254.603037 -196.396531 
L 253.877786 -196.127545 
L 253.152536 -195.858063 
L 252.427285 -195.588082 
L 251.702034 -195.317601 
L 250.976784 -195.046615 
L 250.251533 -194.775123 
L 249.526283 -194.503121 
L 248.801032 -194.230606 
L 248.075781 -193.957576 
L 247.350531 -193.684028 
L 246.62528 -193.409958 
L 245.900029 -193.135364 
L 245.174779 -192.860243 
L 244.449528 -192.584591 
L 243.724277 -192.308405 
L 242.999027 -192.031684 
L 242.273776 -191.754422 
L 241.548525 -191.476617 
L 240.823275 -191.198267 
L 240.098024 -190.919367 
L 239.372773 -190.639914 
L 238.647523 -190.359906 
L 237.922272 -190.079338 
L 237.197021 -189.798208 
L 236.471771 -189.516511 
L 235.74652 -189.234245 
L 235.02127 -188.951407 
L 234.296019 -188.667992 
L 233.570768 -188.383997 
L 232.845518 -188.099418 
L 232.120267 -187.814252 
L 231.395016 -187.528496 
L 230.669766 -187.242145 
L 229.944515 -186.955196 
L 229.219264 -186.667645 
L 228.494014 -186.379488 
L 227.768763 -186.090722 
L 227.043512 -185.801342 
L 226.318262 -185.511345 
L 225.593011 -185.220726 
L 224.86776 -184.929482 
L 224.14251 -184.637608 
L 223.417259 -184.345101 
L 222.692008 -184.051957 
L 221.966758 -183.75817 
L 221.241507 -183.463737 
L 220.516256 -183.168654 
L 219.791006 -182.872916 
L 219.065755 -182.576519 
L 218.340505 -182.279459 
L 217.615254 -181.98173 
L 216.890003 -181.683329 
L 216.164753 -181.384251 
L 215.439502 -181.084491 
L 214.714251 -180.784045 
L 213.989001 -180.482907 
L 213.26375 -180.181074 
L 212.538499 -179.87854 
L 211.813249 -179.5753 
L 211.087998 -179.271349 
L 210.362747 -178.966683 
L 209.637497 -178.661296 
L 208.912246 -178.355183 
L 208.186995 -178.048339 
L 207.461745 -177.740758 
L 206.736494 -177.432436 
L 206.011243 -177.123367 
L 205.285993 -176.813545 
L 204.560742 -176.502965 
L 203.835492 -176.191622 
L 203.110241 -175.879509 
L 202.38499 -175.566621 
L 201.65974 -175.252952 
L 200.934489 -174.938497 
L 200.209238 -174.623249 
L 199.483988 -174.307202 
L 198.758737 -173.99035 
L 198.033486 -173.672688 
L 197.308236 -173.354208 
L 196.582985 -173.034904 
L 195.857734 -172.714771 
L 195.132484 -172.393801 
L 194.407233 -172.071987 
L 193.681982 -171.749324 
L 192.956732 -171.425805 
L 192.231481 -171.101422 
L 191.50623 -170.776169 
L 190.78098 -170.450038 
L 190.055729 -170.123023 
L 189.330478 -169.795116 
L 188.605228 -169.46631 
L 187.879977 -169.136597 
L 187.154727 -168.80597 
L 186.429476 -168.474421 
L 185.704225 -168.141943 
L 184.978975 -167.808528 
L 184.253724 -167.474167 
L 183.528473 -167.138853 
L 182.803223 -166.802577 
L 182.077972 -166.465332 
L 181.352721 -166.127108 
L 180.627471 -165.787896 
L 179.90222 -165.44769 
L 179.176969 -165.106479 
L 178.451719 -164.764254 
L 177.726468 -164.421007 
L 177.001217 -164.076728 
L 176.275967 -163.731408 
L 175.550716 -163.385038 
L 174.825465 -163.037607 
L 174.100215 -162.689107 
L 173.374964 -162.339526 
L 172.649714 -161.988856 
L 171.924463 -161.637085 
L 171.199212 -161.284203 
L 170.473962 -160.9302 
L 169.748711 -160.575065 
L 169.02346 -160.218786 
L 168.29821 -159.861354 
L 167.572959 -159.502756 
L 166.847708 -159.142982 
L 166.122458 -158.782018 
L 165.397207 -158.419855 
L 164.671956 -158.056479 
L 163.946706 -157.691878 
L 163.221455 -157.32604 
L 162.496204 -156.958952 
L 161.770954 -156.590601 
L 161.045703 -156.220974 
L 160.320452 -155.850058 
L 159.595202 -155.47784 
L 158.869951 -155.104304 
L 158.144701 -154.729438 
L 157.41945 -154.353227 
L 156.694199 -153.975656 
L 155.968949 -153.59671 
L 155.243698 -153.216375 
L 154.518447 -152.834635 
L 153.793197 -152.451475 
L 153.067946 -152.066877 
L 152.342695 -151.680827 
L 151.617445 -151.293307 
L 150.892194 -150.9043 
L 150.166943 -150.51379 
L 149.441693 -150.121758 
L 148.716442 -149.728188 
L 147.991191 -149.333059 
L 147.265941 -148.936355 
L 146.54069 -148.538056 
L 145.815439 -148.138142 
L 145.090189 -147.736593 
L 144.364938 -147.333391 
L 143.639687 -146.928513 
L 142.914437 -146.521938 
L 142.189186 -146.113646 
L 141.463936 -145.703615 
L 140.738685 -145.291821 
L 140.013434 -144.878242 
L 139.288184 -144.462855 
L 138.562933 -144.045636 
L 137.837682 -143.62656 
L 137.112432 -143.205602 
L 136.387181 -142.782736 
L 135.66193 -142.357937 
L 134.93668 -141.931177 
L 134.211429 -141.50243 
L 133.486178 -141.071667 
L 132.760928 -140.63886 
L 132.035677 -140.203979 
L 131.310426 -139.766993 
L 130.585176 -139.327873 
L 129.859925 -138.886587 
L 129.134674 -138.443101 
L 128.409424 -137.997384 
L 127.684173 -137.549401 
L 126.958923 -137.099117 
L 126.233672 -136.646496 
L 125.508421 -136.191501 
L 124.783171 -135.734095 
L 124.05792 -135.274239 
L 123.332669 -134.811894 
L 122.607419 -134.347017 
L 121.882168 -133.879568 
L 121.156917 -133.409504 
L 120.431667 -132.936778 
L 119.706416 -132.461347 
L 118.981165 -131.983163 
L 118.255915 -131.502177 
L 117.530664 -131.01834 
L 116.805413 -130.531601 
L 116.080163 -130.041906 
L 115.354912 -129.549201 
L 114.629661 -129.05343 
L 113.904411 -128.554535 
L 113.17916 -128.052457 
L 112.453909 -127.547132 
L 111.728659 -127.038499 
L 111.003408 -126.52649 
L 110.278158 -126.011037 
L 109.552907 -125.492071 
L 108.827656 -124.969518 
L 108.102406 -124.443303 
L 107.377155 -123.913348 
L 106.651904 -123.379572 
L 105.926654 -122.841891 
L 105.201403 -122.300218 
L 104.476152 -121.754463 
L 103.750902 -121.204532 
L 103.025651 -120.650328 
L 102.3004 -120.09175 
L 101.57515 -119.528692 
L 100.849899 -118.961045 
L 100.124648 -118.388694 
L 99.399398 -117.811522 
L 98.674147 -117.229403 
L 97.948896 -116.642209 
L 97.223646 -116.049805 
L 96.498395 -115.452048 
L 95.773145 -114.848792 
L 95.047894 -114.239882 
L 94.322643 -113.625156 
L 93.597393 -113.004443 
L 92.872142 -112.377566 
L 92.146891 -111.744337 
L 91.421641 -111.10456 
L 90.69639 -110.458025 
L 89.971139 -109.804516 
L 89.245889 -109.143801 
L 88.520638 -108.475636 
L 87.795387 -107.799763 
L 87.070137 -107.11591 
L 86.344886 -106.423788 
L 85.619635 -105.723087 
L 84.894385 -105.013482 
L 84.169134 -104.294624 
L 83.443883 -103.566141 
L 82.718633 -102.827636 
L 81.993382 -102.078684 
L 81.268131 -101.318829 
L 80.542881 -100.547579 
L 79.81763 -99.764407 
L 79.09238 -98.968741 
L 78.367129 -98.159964 
L 77.641878 -97.337406 
L 76.916628 -96.500337 
L 76.191377 -95.647962 
L 75.466126 -94.779407 
L 74.740876 -93.893716 
L 74.015625 -92.989833 
L 73.290374 -92.066587 
L 72.565124 -91.122679 
L 71.839873 -90.156656 
L 71.114622 -89.166887 
L 70.389372 -88.151529 
L 69.664121 -87.108489 
L 68.93887 -86.035371 
L 68.21362 -84.929413 
L 67.488369 -83.7874 
L 66.763118 -82.60556 
L 66.037868 -81.379408 
L 65.312617 -80.103553 
L 64.587367 -78.771411 
L 63.862116 -77.374801 
L 63.136865 -75.903346 
L 62.411615 -74.343544 
L 61.686364 -72.677268 
L 60.961113 -70.879188 
L 60.235863 -68.911983 
L 59.510612 -66.716473 
L 58.785361 -64.187945 
L 58.060111 -61.103535 
L 57.33486 -56.75155 
z
"/>
    </defs>
    <g clip-path="url(#p4409827604)">
     <use xlink:href="#m002213aafd" x="0" y="288" style="fill: #6f8b6a; fill-opacity: 0.12"/>
    </g>
   </g>
   <g id="matplotlib.axis_1">
    <g id="xtick_1">
     <g id="line2d_1">
      <defs>
       <path id="m3562cb9dff" d="M 0 0 
L 0 3.5 
" style="stroke: #5c554a; stroke-width: 0.8"/>
      </defs>
      <g>
       <use xlink:href="#m3562cb9dff" x="56.9" y="238.12" style="fill: #5c554a; stroke: #5c554a; stroke-width: 0.8"/>
      </g>
     </g>
     <g id="text_1">
      <text style="font-size: 12px; font-family: 'Georgia', 'Times New Roman', 'DejaVu Serif', serif; text-anchor: middle; fill: #5c554a" x="56.9" y="254.19125" transform="rotate(-0 56.9 254.19125)">0</text>
     </g>
    </g>
    <g id="xtick_2">
     <g id="line2d_2">
      <g>
       <use xlink:href="#m3562cb9dff" x="143.872" y="238.12" style="fill: #5c554a; stroke: #5c554a; stroke-width: 0.8"/>
      </g>
     </g>
     <g id="text_2">
      <text style="font-size: 12px; font-family: 'Georgia', 'Times New Roman', 'DejaVu Serif', serif; text-anchor: middle; fill: #5c554a" x="143.872" y="254.19125" transform="rotate(-0 143.872 254.19125)">200</text>
     </g>
    </g>
    <g id="xtick_3">
     <g id="line2d_3">
      <g>
       <use xlink:href="#m3562cb9dff" x="230.844" y="238.12" style="fill: #5c554a; stroke: #5c554a; stroke-width: 0.8"/>
      </g>
     </g>
     <g id="text_3">
      <text style="font-size: 12px; font-family: 'Georgia', 'Times New Roman', 'DejaVu Serif', serif; text-anchor: middle; fill: #5c554a" x="230.844" y="254.19125" transform="rotate(-0 230.844 254.19125)">400</text>
     </g>
    </g>
    <g id="xtick_4">
     <g id="line2d_4">
      <g>
       <use xlink:href="#m3562cb9dff" x="317.816" y="238.12" style="fill: #5c554a; stroke: #5c554a; stroke-width: 0.8"/>
      </g>
     </g>
     <g id="text_4">
      <text style="font-size: 12px; font-family: 'Georgia', 'Times New Roman', 'DejaVu Serif', serif; text-anchor: middle; fill: #5c554a" x="317.816" y="254.19125" transform="rotate(-0 317.816 254.19125)">600</text>
     </g>
    </g>
    <g id="xtick_5">
     <g id="line2d_5">
      <g>
       <use xlink:href="#m3562cb9dff" x="404.788" y="238.12" style="fill: #5c554a; stroke: #5c554a; stroke-width: 0.8"/>
      </g>
     </g>
     <g id="text_5">
      <text style="font-size: 12px; font-family: 'Georgia', 'Times New Roman', 'DejaVu Serif', serif; text-anchor: middle; fill: #5c554a" x="404.788" y="254.19125" transform="rotate(-0 404.788 254.19125)">800</text>
     </g>
    </g>
    <g id="xtick_6">
     <g id="line2d_6">
      <g>
       <use xlink:href="#m3562cb9dff" x="491.76" y="238.12" style="fill: #5c554a; stroke: #5c554a; stroke-width: 0.8"/>
      </g>
     </g>
     <g id="text_6">
      <text style="font-size: 12px; font-family: 'Georgia', 'Times New Roman', 'DejaVu Serif', serif; text-anchor: middle; fill: #5c554a" x="491.76" y="254.19125" transform="rotate(-0 491.76 254.19125)">1000</text>
     </g>
    </g>
    <g id="text_7">
     <text style="font-size: 12px; font-family: 'Georgia', 'Times New Roman', 'DejaVu Serif', serif; text-anchor: middle; fill: #5c554a" x="274.33" y="269.865" transform="rotate(-0 274.33 269.865)">antenna height above ground (m)</text>
    </g>
   </g>
   <g id="matplotlib.axis_2">
    <g id="ytick_1">
     <g id="line2d_7">
      <defs>
       <path id="md70ad7388c" d="M 0 0 
L -3.5 0 
" style="stroke: #5c554a; stroke-width: 0.8"/>
      </defs>
      <g>
       <use xlink:href="#md70ad7388c" x="56.9" y="238.12" style="fill: #5c554a; stroke: #5c554a; stroke-width: 0.8"/>
      </g>
     </g>
     <g id="text_8">
      <text style="font-size: 12px; font-family: 'Georgia', 'Times New Roman', 'DejaVu Serif', serif; text-anchor: end; fill: #5c554a" x="49.9" y="242.655625" transform="rotate(-0 49.9 242.655625)">0</text>
     </g>
    </g>
    <g id="ytick_2">
     <g id="line2d_8">
      <g>
       <use xlink:href="#md70ad7388c" x="56.9" y="204.762963" style="fill: #5c554a; stroke: #5c554a; stroke-width: 0.8"/>
      </g>
     </g>
     <g id="text_9">
      <text style="font-size: 12px; font-family: 'Georgia', 'Times New Roman', 'DejaVu Serif', serif; text-anchor: end; fill: #5c554a" x="49.9" y="209.298588" transform="rotate(-0 49.9 209.298588)">20</text>
     </g>
    </g>
    <g id="ytick_3">
     <g id="line2d_9">
      <g>
       <use xlink:href="#md70ad7388c" x="56.9" y="171.405926" style="fill: #5c554a; stroke: #5c554a; stroke-width: 0.8"/>
      </g>
     </g>
     <g id="text_10">
      <text style="font-size: 12px; font-family: 'Georgia', 'Times New Roman', 'DejaVu Serif', serif; text-anchor: end; fill: #5c554a" x="49.9" y="175.941551" transform="rotate(-0 49.9 175.941551)">40</text>
     </g>
    </g>
    <g id="ytick_4">
     <g id="line2d_10">
      <g>
       <use xlink:href="#md70ad7388c" x="56.9" y="138.048889" style="fill: #5c554a; stroke: #5c554a; stroke-width: 0.8"/>
      </g>
     </g>
     <g id="text_11">
      <text style="font-size: 12px; font-family: 'Georgia', 'Times New Roman', 'DejaVu Serif', serif; text-anchor: end; fill: #5c554a" x="49.9" y="142.584514" transform="rotate(-0 49.9 142.584514)">60</text>
     </g>
    </g>
    <g id="ytick_5">
     <g id="line2d_11">
      <g>
       <use xlink:href="#md70ad7388c" x="56.9" y="104.691852" style="fill: #5c554a; stroke: #5c554a; stroke-width: 0.8"/>
      </g>
     </g>
     <g id="text_12">
      <text style="font-size: 12px; font-family: 'Georgia', 'Times New Roman', 'DejaVu Serif', serif; text-anchor: end; fill: #5c554a" x="49.9" y="109.227477" transform="rotate(-0 49.9 109.227477)">80</text>
     </g>
    </g>
    <g id="ytick_6">
     <g id="line2d_12">
      <g>
       <use xlink:href="#md70ad7388c" x="56.9" y="71.334815" style="fill: #5c554a; stroke: #5c554a; stroke-width: 0.8"/>
      </g>
     </g>
     <g id="text_13">
      <text style="font-size: 12px; font-family: 'Georgia', 'Times New Roman', 'DejaVu Serif', serif; text-anchor: end; fill: #5c554a" x="49.9" y="75.87044" transform="rotate(-0 49.9 75.87044)">100</text>
     </g>
    </g>
    <g id="ytick_7">
     <g id="line2d_13">
      <g>
       <use xlink:href="#md70ad7388c" x="56.9" y="37.977778" style="fill: #5c554a; stroke: #5c554a; stroke-width: 0.8"/>
      </g>
     </g>
     <g id="text_14">
      <text style="font-size: 12px; font-family: 'Georgia', 'Times New Roman', 'DejaVu Serif', serif; text-anchor: end; fill: #5c554a" x="49.9" y="42.513403" transform="rotate(-0 49.9 42.513403)">120</text>
     </g>
    </g>
    <g id="text_15">
     <text style="font-size: 12px; font-family: 'Georgia', 'Times New Roman', 'DejaVu Serif', serif; text-anchor: middle; fill: #5c554a" x="23.41125" y="125.54" transform="rotate(-90 23.41125 125.54)">horizon range (km)</text>
    </g>
   </g>
   <g id="line2d_14">
    <path d="M 57.33486 231.24845 
L 58.060111 226.896465 
L 58.785361 223.812055 
L 60.235863 219.088017 
L 61.686364 215.322732 
L 63.136865 212.096654 
L 65.312617 207.896447 
L 67.488369 204.2126 
L 70.389372 199.848471 
L 73.290374 195.933413 
L 76.191377 192.352038 
L 79.81763 188.235593 
L 83.443883 184.433859 
L 87.795387 180.200237 
L 92.146891 176.255663 
L 97.223646 171.950195 
L 103.025651 167.349672 
L 108.827656 163.030482 
L 115.354912 158.450799 
L 122.607419 153.652983 
L 129.859925 149.113413 
L 137.837682 144.37344 
L 146.54069 139.461944 
L 155.968949 134.40329 
L 166.122458 129.217982 
L 177.001217 123.923272 
L 188.605228 118.53369 
L 200.934489 113.061503 
L 213.989001 107.517093 
L 227.768763 101.909278 
L 242.273776 96.245578 
L 257.50404 90.532426 
L 274.184805 84.518791 
L 291.59082 78.48504 
L 309.722087 72.433371 
L 329.303854 66.13658 
L 349.610872 59.841331 
L 371.368392 53.334259 
L 393.851162 46.842699 
L 417.784434 40.166114 
L 443.168206 33.3226 
L 469.27723 26.514333 
L 491.76 20.822521 
L 491.76 20.822521 
" clip-path="url(#p4409827604)" style="fill: none; stroke: #c34a22; stroke-width: 2; stroke-linecap: square"/>
   </g>
   <g id="line2d_15">
    <path d="M 57.33486 232.165769 
L 58.060111 228.394752 
L 58.785361 225.722097 
L 60.235863 221.628695 
L 61.686364 218.366056 
L 63.136865 215.570644 
L 65.312617 211.931144 
L 67.488369 208.739073 
L 70.389372 204.957534 
L 73.290374 201.565117 
L 76.916628 197.723251 
L 80.542881 194.216297 
L 84.894385 190.34657 
L 89.245889 186.767629 
L 94.322643 182.884513 
L 100.124648 178.756884 
L 105.926654 174.898167 
L 112.453909 170.821053 
L 119.706416 166.562862 
L 127.684173 162.154039 
L 136.387181 157.619328 
L 145.815439 152.978843 
L 155.968949 148.248967 
L 166.847708 143.443096 
L 178.451719 138.572236 
L 190.78098 133.645477 
L 203.835492 128.670366 
L 217.615254 123.653209 
L 232.845518 118.352203 
L 248.801032 113.039499 
L 265.481797 107.716527 
L 283.613063 102.166864 
L 302.46958 96.625929 
L 322.776598 90.891796 
L 344.534118 84.986166 
L 367.016888 79.113944 
L 390.950159 73.092318 
L 416.333932 66.937055 
L 443.168206 60.662059 
L 471.452982 54.279591 
L 491.76 49.83068 
L 491.76 49.83068 
" clip-path="url(#p4409827604)" style="fill: none; stroke-dasharray: 5.18,2.24; stroke-dashoffset: 0; stroke: #5c554a; stroke-width: 1.4"/>
   </g>
   <g id="patch_3">
    <path d="M 56.9 238.12 
L 56.9 12.96 
" style="fill: none; stroke: #d8cfbc; stroke-width: 0.8; stroke-linejoin: miter; stroke-linecap: square"/>
   </g>
   <g id="patch_4">
    <path d="M 56.9 238.12 
L 491.76 238.12 
" style="fill: none; stroke: #d8cfbc; stroke-width: 0.8; stroke-linejoin: miter; stroke-linecap: square"/>
   </g>
   <g id="patch_5">
    <path d="M 85.119476 207.962013 
Q 78.430982 204.665283 71.742488 201.368552 
" style="fill: none; stroke: #5c554a; stroke-width: 0.7; stroke-linecap: round"/>
   </g>
   <g id="text_16">
    <text style="font-size: 8.6px; font-family: 'Georgia', 'Times New Roman', 'DejaVu Serif', serif; fill: #1e3d52" transform="translate(88.911497 217.258398)">mast 30 m</text>
    <text style="font-size: 8.6px; font-family: 'Georgia', 'Times New Roman', 'DejaVu Serif', serif; fill: #1e3d52" transform="translate(97.180263 226.924798)">23 km</text>
   </g>
   <g id="patch_6">
    <path d="M 142.197596 176.573806 
Q 126.56406 170.092788 110.930524 163.61177 
" style="fill: none; stroke: #5c554a; stroke-width: 0.7; stroke-linecap: round"/>
   </g>
   <g id="text_17">
    <text style="font-size: 8.6px; font-family: 'Georgia', 'Times New Roman', 'DejaVu Serif', serif; fill: #1e3d52" transform="translate(146.044178 185.569213)">drone 120 m</text>
    <text style="font-size: 8.6px; font-family: 'Georgia', 'Times New Roman', 'DejaVu Serif', serif; fill: #1e3d52" transform="translate(158.133897 195.235613)">45 km</text>
   </g>
   <g id="patch_7">
    <path d="M 319.082525 109.142356 
Q 297.581701 97.287602 276.080877 85.432848 
" style="fill: none; stroke: #5c554a; stroke-width: 0.7; stroke-linecap: round"/>
   </g>
   <g id="text_18">
    <text style="font-size: 8.6px; font-family: 'Georgia', 'Times New Roman', 'DejaVu Serif', serif; fill: #1e3d52" transform="translate(322.835134 115.519435)">500 m</text>
    <text style="font-size: 8.6px; font-family: 'Georgia', 'Times New Roman', 'DejaVu Serif', serif; fill: #1e3d52" transform="translate(323.246322 125.185835)">92 km</text>
   </g>
   <g id="line2d_16">
    <defs>
     <path id="m9713b1c0c3" d="M 0 2.5 
C 0.663008 2.5 1.29895 2.236584 1.767767 1.767767 
C 2.236584 1.29895 2.5 0.663008 2.5 0 
C 2.5 -0.663008 2.236584 -1.29895 1.767767 -1.767767 
C 1.29895 -2.236584 0.663008 -2.5 0 -2.5 
C -0.663008 -2.5 -1.29895 -2.236584 -1.767767 -1.767767 
C -2.236584 -1.29895 -2.5 -0.663008 -2.5 0 
C -2.5 0.663008 -2.236584 1.29895 -1.767767 1.767767 
C -1.29895 2.236584 -0.663008 2.5 0 2.5 
z
" style="stroke: #fbfaf8; stroke-width: 0.8"/>
    </defs>
    <g clip-path="url(#p4409827604)">
     <use xlink:href="#m9713b1c0c3" x="69.9458" y="200.482973" style="fill: #1e3d52; stroke: #fbfaf8; stroke-width: 0.8"/>
    </g>
   </g>
   <g id="line2d_17">
    <g clip-path="url(#p4409827604)">
     <use xlink:href="#m9713b1c0c3" x="109.0832" y="162.845945" style="fill: #1e3d52; stroke: #fbfaf8; stroke-width: 0.8"/>
    </g>
   </g>
   <g id="line2d_18">
    <g clip-path="url(#p4409827604)">
     <use xlink:href="#m9713b1c0c3" x="274.33" y="84.467479" style="fill: #1e3d52; stroke: #fbfaf8; stroke-width: 0.8"/>
    </g>
   </g>
   <g id="legend_1">
    <g id="line2d_19">
     <path d="M 357.05 206.514688 
L 365.6 206.514688 
L 374.15 206.514688 
" style="fill: none; stroke: #c34a22; stroke-width: 2; stroke-linecap: square"/>
    </g>
    <g id="text_19">
     <!-- radio horizon ($4.12\sqrt{h}$) -->
     <g style="fill: #221e17" transform="translate(381.75 209.839687)">
      <text>
       <tspan x="0" y="-0.195625" style="font-size: 9.5px; font-family: 'Georgia'; fill: #221e17">r</tspan>
       <tspan x="3.891846" y="-0.195625" style="font-size: 9.5px; font-family: 'Georgia'; fill: #221e17">a</tspan>
       <tspan x="8.678955" y="-0.195625" style="font-size: 9.5px; font-family: 'Georgia'; fill: #221e17">d</tspan>
       <tspan x="14.134033" y="-0.195625" style="font-size: 9.5px; font-family: 'Georgia'; fill: #221e17">i</tspan>
       <tspan x="16.917236" y="-0.195625" style="font-size: 9.5px; font-family: 'Georgia'; fill: #221e17">o</tspan>
       <tspan x="22.03833" y="-0.195625" style="font-size: 9.5px; font-family: 'Georgia'; fill: #221e17"> </tspan>
       <tspan x="24.329834" y="-0.195625" style="font-size: 9.5px; font-family: 'Georgia'; fill: #221e17">h</tspan>
       <tspan x="29.859131" y="-0.195625" style="font-size: 9.5px; font-family: 'Georgia'; fill: #221e17">o</tspan>
       <tspan x="34.980225" y="-0.195625" style="font-size: 9.5px; font-family: 'Georgia'; fill: #221e17">r</tspan>
       <tspan x="38.87207" y="-0.195625" style="font-size: 9.5px; font-family: 'Georgia'; fill: #221e17">i</tspan>
       <tspan x="41.655273" y="-0.195625" style="font-size: 9.5px; font-family: 'Georgia'; fill: #221e17">z</tspan>
       <tspan x="45.871826" y="-0.195625" style="font-size: 9.5px; font-family: 'Georgia'; fill: #221e17">o</tspan>
       <tspan x="50.99292" y="-0.195625" style="font-size: 9.5px; font-family: 'Georgia'; fill: #221e17">n</tspan>
       <tspan x="56.605713" y="-0.195625" style="font-size: 9.5px; font-family: 'Georgia'; fill: #221e17"> </tspan>
       <tspan x="58.897217" y="-0.195625" style="font-size: 9.5px; font-family: 'Georgia'; fill: #221e17">(</tspan>
       <tspan x="97.689423" y="-0.195625" style="font-size: 9.5px; font-family: 'Georgia'; fill: #221e17">)</tspan>
       <tspan x="62.459717" y="-0.195625" style="font-size: 9.5px; font-family: 'DejaVu Sans'; fill: #221e17">4</tspan>
       <tspan x="68.503906" y="-0.195625" style="font-size: 9.5px; font-family: 'DejaVu Sans'; fill: #221e17">.</tspan>
       <tspan x="71.523682" y="-0.195625" style="font-size: 9.5px; font-family: 'DejaVu Sans'; fill: #221e17">1</tspan>
       <tspan x="77.567871" y="-0.195625" style="font-size: 9.5px; font-family: 'DejaVu Sans'; fill: #221e17">2</tspan>
       <tspan x="83.612061" y="-1.664375" style="font-size: 5.433164px; font-family: 'STIXSizeOneSym'; fill: #221e17">√</tspan>
       <tspan x="90.480927" y="0.1875" style="font-style: oblique; font-size: 9.5px; font-family: 'DejaVu Sans'; fill: #221e17">h</tspan>
      </text>
      <rect x="89.293427" y="-9.8125" width="8.395996" height="0.59375"/>
     </g>
    </g>
    <g id="line2d_20">
     <path d="M 357.05 224.155 
L 365.6 224.155 
L 374.15 224.155 
" style="fill: none; stroke-dasharray: 5.18,2.24; stroke-dashoffset: 0; stroke: #5c554a; stroke-width: 1.4"/>
    </g>
    <g id="text_20">
     <!-- geometric ($3.57\sqrt{h}$) -->
     <g style="fill: #221e17" transform="translate(381.75 227.48)">
      <text>
       <tspan x="0" y="-0.195625" style="font-size: 9.5px; font-family: 'Georgia'; fill: #221e17">g</tspan>
       <tspan x="4.838135" y="-0.195625" style="font-size: 9.5px; font-family: 'Georgia'; fill: #221e17">e</tspan>
       <tspan x="9.43042" y="-0.195625" style="font-size: 9.5px; font-family: 'Georgia'; fill: #221e17">o</tspan>
       <tspan x="14.551514" y="-0.195625" style="font-size: 9.5px; font-family: 'Georgia'; fill: #221e17">m</tspan>
       <tspan x="22.919678" y="-0.195625" style="font-size: 9.5px; font-family: 'Georgia'; fill: #221e17">e</tspan>
       <tspan x="27.511963" y="-0.195625" style="font-size: 9.5px; font-family: 'Georgia'; fill: #221e17">t</tspan>
       <tspan x="30.791504" y="-0.195625" style="font-size: 9.5px; font-family: 'Georgia'; fill: #221e17">r</tspan>
       <tspan x="34.68335" y="-0.195625" style="font-size: 9.5px; font-family: 'Georgia'; fill: #221e17">i</tspan>
       <tspan x="37.466553" y="-0.195625" style="font-size: 9.5px; font-family: 'Georgia'; fill: #221e17">c</tspan>
       <tspan x="41.780518" y="-0.195625" style="font-size: 9.5px; font-family: 'Georgia'; fill: #221e17"> </tspan>
       <tspan x="44.072021" y="-0.195625" style="font-size: 9.5px; font-family: 'Georgia'; fill: #221e17">(</tspan>
       <tspan x="82.114227" y="-0.195625" style="font-size: 9.5px; font-family: 'Georgia'; fill: #221e17">)</tspan>
       <tspan x="47.634521" y="-0.195625" style="font-size: 9.5px; font-family: 'DejaVu Sans'; fill: #221e17">3</tspan>
       <tspan x="53.678711" y="-0.195625" style="font-size: 9.5px; font-family: 'DejaVu Sans'; fill: #221e17">.</tspan>
       <tspan x="56.698486" y="-0.195625" style="font-size: 9.5px; font-family: 'DejaVu Sans'; fill: #221e17">5</tspan>
       <tspan x="61.992676" y="-0.195625" style="font-size: 9.5px; font-family: 'DejaVu Sans'; fill: #221e17">7</tspan>
       <tspan x="68.036865" y="-1.664375" style="font-size: 5.433164px; font-family: 'STIXSizeOneSym'; fill: #221e17">√</tspan>
       <tspan x="74.905731" y="0.1875" style="font-style: oblique; font-size: 9.5px; font-family: 'DejaVu Sans'; fill: #221e17">h</tspan>
      </text>
      <rect x="73.718231" y="-9.8125" width="8.395996" height="0.59375"/>
     </g>
    </g>
   </g>
  </g>
 </g>
 <defs>
  <clipPath id="p4409827604">
   <rect x="56.9" y="12.96" width="434.86" height="225.16"/>
  </clipPath>
 </defs>
</svg>
