<?xml version="1.0" encoding="utf-8" standalone="no"?>
<!DOCTYPE svg PUBLIC "-//W3C//DTD SVG 1.1//EN"
  "http://www.w3.org/Graphics/SVG/1.1/DTD/svg11.dtd">
<svg xmlns:xlink="http://www.w3.org/1999/xlink" width="518.4pt" height="288pt" viewBox="0 0 518.4 288" xmlns="http://www.w3.org/2000/svg" version="1.1">
 <metadata>
  <rdf:RDF xmlns:dc="http://purl.org/dc/elements/1.1/" xmlns:cc="http://creativecommons.org/ns#" xmlns:rdf="http://www.w3.org/1999/02/22-rdf-syntax-ns#">
   <cc:Work>
    <dc:type rdf:resource="http://purl.org/dc/dcmitype/StillImage"/>
    <dc:date>2026-07-11T02:13:54.987540</dc:date>
    <dc:format>image/svg+xml</dc:format>
    <dc:creator>
     <cc:Agent>
      <dc:title>Matplotlib v3.10.8, https://matplotlib.org/</dc:title>
     </cc:Agent>
    </dc:creator>
   </cc:Work>
  </rdf:RDF>
 </metadata>
 <defs>
  <style type="text/css">*{stroke-linejoin: round; stroke-linecap: butt}</style>
 </defs>
 <g id="figure_1">
  <g id="patch_1">
   <path d="M 0 288 
L 518.4 288 
L 518.4 0 
L 0 0 
z
" style="fill: #fbfaf8"/>
  </g>
  <g id="axes_1">
   <g id="patch_2">
    <path d="M 56.9 238.12 
L 491.76 238.12 
L 491.76 18 
L 56.9 18 
z
" style="fill: #fbfaf8"/>
   </g>
   <g id="FillBetweenPolyCollection_1">
    <defs>
     <path id="mcad20797ab" d="M 57.33486 -65.518834 
L 57.33486 -63.431126 
L 58.060111 -66.986067 
L 58.785361 -69.505582 
L 59.510612 -71.571024 
L 60.235863 -73.364437 
L 60.961113 -74.971359 
L 61.686364 -76.440129 
L 62.411615 -77.801235 
L 63.136865 -79.075367 
L 63.862116 -80.277333 
L 64.587367 -81.41816 
L 65.312617 -82.506328 
L 66.037868 -83.548516 
L 66.763118 -84.550104 
L 67.488369 -85.515497 
L 68.21362 -86.448355 
L 68.93887 -87.351763 
L 69.664121 -88.228345 
L 70.389372 -89.080358 
L 71.114622 -89.909758 
L 71.839873 -90.718256 
L 72.565124 -91.507356 
L 73.290374 -92.278392 
L 74.015625 -93.03255 
L 74.740876 -93.770892 
L 75.466126 -94.494373 
L 76.191377 -95.203856 
L 76.916628 -95.900123 
L 77.641878 -96.583887 
L 78.367129 -97.255798 
L 79.09238 -97.916451 
L 79.81763 -98.566395 
L 80.542881 -99.206133 
L 81.268131 -99.836133 
L 81.993382 -100.456824 
L 82.718633 -101.06861 
L 83.443883 -101.671861 
L 84.169134 -102.266926 
L 84.894385 -102.854129 
L 85.619635 -103.433773 
L 86.344886 -104.006144 
L 87.070137 -104.571508 
L 87.795387 -105.130117 
L 88.520638 -105.682206 
L 89.245889 -106.228 
L 89.971139 -106.767709 
L 90.69639 -107.301531 
L 91.421641 -107.829656 
L 92.146891 -108.352262 
L 92.872142 -108.869518 
L 93.597393 -109.381586 
L 94.322643 -109.888618 
L 95.047894 -110.39076 
L 95.773145 -110.888151 
L 96.498395 -111.380924 
L 97.223646 -111.869205 
L 97.948896 -112.353113 
L 98.674147 -112.832766 
L 99.399398 -113.308272 
L 100.124648 -113.779738 
L 100.849899 -114.247266 
L 101.57515 -114.710951 
L 102.3004 -115.170888 
L 103.025651 -115.627166 
L 103.750902 -116.07987 
L 104.476152 -116.529084 
L 105.201403 -116.974886 
L 105.926654 -117.417355 
L 106.651904 -117.856562 
L 107.377155 -118.29258 
L 108.102406 -118.725476 
L 108.827656 -119.155317 
L 109.552907 -119.582167 
L 110.278158 -120.006088 
L 111.003408 -120.427137 
L 111.728659 -120.845375 
L 112.453909 -121.260855 
L 113.17916 -121.673631 
L 113.904411 -122.083757 
L 114.629661 -122.491282 
L 115.354912 -122.896255 
L 116.080163 -123.298723 
L 116.805413 -123.698733 
L 117.530664 -124.096328 
L 118.255915 -124.491553 
L 118.981165 -124.884448 
L 119.706416 -125.275056 
L 120.431667 -125.663414 
L 121.156917 -126.049562 
L 121.882168 -126.433537 
L 122.607419 -126.815375 
L 123.332669 -127.195112 
L 124.05792 -127.572781 
L 124.783171 -127.948417 
L 125.508421 -128.322051 
L 126.233672 -128.693715 
L 126.958923 -129.063441 
L 127.684173 -129.431258 
L 128.409424 -129.797196 
L 129.134674 -130.161282 
L 129.859925 -130.523545 
L 130.585176 -130.884012 
L 131.310426 -131.24271 
L 132.035677 -131.599663 
L 132.760928 -131.954898 
L 133.486178 -132.308439 
L 134.211429 -132.66031 
L 134.93668 -133.010535 
L 135.66193 -133.359135 
L 136.387181 -133.706134 
L 137.112432 -134.051554 
L 137.837682 -134.395416 
L 138.562933 -134.737741 
L 139.288184 -135.078548 
L 140.013434 -135.417859 
L 140.738685 -135.755693 
L 141.463936 -136.092069 
L 142.189186 -136.427005 
L 142.914437 -136.760521 
L 143.639687 -137.092633 
L 144.364938 -137.42336 
L 145.090189 -137.752718 
L 145.815439 -138.080725 
L 146.54069 -138.407396 
L 147.265941 -138.732749 
L 147.991191 -139.056799 
L 148.716442 -139.379562 
L 149.441693 -139.701052 
L 150.166943 -140.021285 
L 150.892194 -140.340275 
L 151.617445 -140.658037 
L 152.342695 -140.974585 
L 153.067946 -141.289932 
L 153.793197 -141.604092 
L 154.518447 -141.917079 
L 155.243698 -142.228905 
L 155.968949 -142.539584 
L 156.694199 -142.849127 
L 157.41945 -143.157548 
L 158.144701 -143.464858 
L 158.869951 -143.77107 
L 159.595202 -144.076194 
L 160.320452 -144.380243 
L 161.045703 -144.683227 
L 161.770954 -144.985159 
L 162.496204 -145.286048 
L 163.221455 -145.585905 
L 163.946706 -145.884742 
L 164.671956 -146.182568 
L 165.397207 -146.479394 
L 166.122458 -146.775229 
L 166.847708 -147.070084 
L 167.572959 -147.363967 
L 168.29821 -147.65689 
L 169.02346 -147.94886 
L 169.748711 -148.239888 
L 170.473962 -148.529982 
L 171.199212 -148.819151 
L 171.924463 -149.107404 
L 172.649714 -149.39475 
L 173.374964 -149.681197 
L 174.100215 -149.966754 
L 174.825465 -150.251428 
L 175.550716 -150.535229 
L 176.275967 -150.818163 
L 177.001217 -151.10024 
L 177.726468 -151.381465 
L 178.451719 -151.661848 
L 179.176969 -151.941396 
L 179.90222 -152.220116 
L 180.627471 -152.498016 
L 181.352721 -152.775102 
L 182.077972 -153.051382 
L 182.803223 -153.326863 
L 183.528473 -153.601552 
L 184.253724 -153.875455 
L 184.978975 -154.148579 
L 185.704225 -154.420931 
L 186.429476 -154.692517 
L 187.154727 -154.963344 
L 187.879977 -155.233419 
L 188.605228 -155.502746 
L 189.330478 -155.771333 
L 190.055729 -156.039186 
L 190.78098 -156.30631 
L 191.50623 -156.572711 
L 192.231481 -156.838396 
L 192.956732 -157.10337 
L 193.681982 -157.367638 
L 194.407233 -157.631207 
L 195.132484 -157.894082 
L 195.857734 -158.156268 
L 196.582985 -158.417771 
L 197.308236 -158.678595 
L 198.033486 -158.938747 
L 198.758737 -159.198232 
L 199.483988 -159.457054 
L 200.209238 -159.715218 
L 200.934489 -159.97273 
L 201.65974 -160.229595 
L 202.38499 -160.485817 
L 203.110241 -160.741401 
L 203.835492 -160.996352 
L 204.560742 -161.250674 
L 205.285993 -161.504373 
L 206.011243 -161.757452 
L 206.736494 -162.009917 
L 207.461745 -162.261771 
L 208.186995 -162.51302 
L 208.912246 -162.763667 
L 209.637497 -163.013717 
L 210.362747 -163.263174 
L 211.087998 -163.512042 
L 211.813249 -163.760326 
L 212.538499 -164.008029 
L 213.26375 -164.255156 
L 213.989001 -164.50171 
L 214.714251 -164.747695 
L 215.439502 -164.993117 
L 216.164753 -165.237977 
L 216.890003 -165.48228 
L 217.615254 -165.726031 
L 218.340505 -165.969232 
L 219.065755 -166.211887 
L 219.791006 -166.454001 
L 220.516256 -166.695575 
L 221.241507 -166.936616 
L 221.966758 -167.177125 
L 222.692008 -167.417106 
L 223.417259 -167.656562 
L 224.14251 -167.895498 
L 224.86776 -168.133917 
L 225.593011 -168.371821 
L 226.318262 -168.609214 
L 227.043512 -168.8461 
L 227.768763 -169.082481 
L 228.494014 -169.318362 
L 229.219264 -169.553744 
L 229.944515 -169.788631 
L 230.669766 -170.023027 
L 231.395016 -170.256934 
L 232.120267 -170.490356 
L 232.845518 -170.723295 
L 233.570768 -170.955754 
L 234.296019 -171.187737 
L 235.02127 -171.419246 
L 235.74652 -171.650284 
L 236.471771 -171.880855 
L 237.197021 -172.11096 
L 237.922272 -172.340602 
L 238.647523 -172.569786 
L 239.372773 -172.798512 
L 240.098024 -173.026784 
L 240.823275 -173.254605 
L 241.548525 -173.481977 
L 242.273776 -173.708903 
L 242.999027 -173.935386 
L 243.724277 -174.161428 
L 244.449528 -174.387031 
L 245.174779 -174.612198 
L 245.900029 -174.836933 
L 246.62528 -175.061236 
L 247.350531 -175.285112 
L 248.075781 -175.508561 
L 248.801032 -175.731587 
L 249.526283 -175.954192 
L 250.251533 -176.176378 
L 250.976784 -176.398148 
L 251.702034 -176.619504 
L 252.427285 -176.840448 
L 253.152536 -177.060983 
L 253.877786 -177.281111 
L 254.603037 -177.500833 
L 255.328288 -177.720154 
L 256.053538 -177.939073 
L 256.778789 -178.157595 
L 257.50404 -178.37572 
L 258.22929 -178.593452 
L 258.954541 -178.810792 
L 259.679792 -179.027742 
L 260.405042 -179.244304 
L 261.130293 -179.460481 
L 261.855544 -179.676274 
L 262.580794 -179.891686 
L 263.306045 -180.106718 
L 264.031296 -180.321373 
L 264.756546 -180.535653 
L 265.481797 -180.749559 
L 266.207048 -180.963093 
L 266.932298 -181.176258 
L 267.657549 -181.389055 
L 268.382799 -181.601486 
L 269.10805 -181.813553 
L 269.833301 -182.025259 
L 270.558551 -182.236604 
L 271.283802 -182.44759 
L 272.009053 -182.65822 
L 272.734303 -182.868495 
L 273.459554 -183.078418 
L 274.184805 -183.287989 
L 274.910055 -183.49721 
L 275.635306 -183.706084 
L 276.360557 -183.914612 
L 277.085807 -184.122796 
L 277.811058 -184.330637 
L 278.536309 -184.538137 
L 279.261559 -184.745298 
L 279.98681 -184.952121 
L 280.712061 -185.158608 
L 281.437311 -185.364761 
L 282.162562 -185.570582 
L 282.887812 -185.776071 
L 283.613063 -185.981231 
L 284.338314 -186.186063 
L 285.063564 -186.390569 
L 285.788815 -186.59475 
L 286.514066 -186.798608 
L 287.239316 -187.002144 
L 287.964567 -187.20536 
L 288.689818 -187.408257 
L 289.415068 -187.610837 
L 290.140319 -187.813101 
L 290.86557 -188.015051 
L 291.59082 -188.216689 
L 292.316071 -188.418015 
L 293.041322 -188.619031 
L 293.766572 -188.819738 
L 294.491823 -189.020139 
L 295.217074 -189.220234 
L 295.942324 -189.420025 
L 296.667575 -189.619513 
L 297.392826 -189.818699 
L 298.118076 -190.017586 
L 298.843327 -190.216173 
L 299.568577 -190.414463 
L 300.293828 -190.612457 
L 301.019079 -190.810157 
L 301.744329 -191.007563 
L 302.46958 -191.204676 
L 303.194831 -191.401499 
L 303.920081 -191.598032 
L 304.645332 -191.794277 
L 305.370583 -191.990235 
L 306.095833 -192.185907 
L 306.821084 -192.381295 
L 307.546335 -192.576399 
L 308.271585 -192.771222 
L 308.996836 -192.965763 
L 309.722087 -193.160025 
L 310.447337 -193.354008 
L 311.172588 -193.547714 
L 311.897839 -193.741144 
L 312.623089 -193.9343 
L 313.34834 -194.127181 
L 314.07359 -194.31979 
L 314.798841 -194.512128 
L 315.524092 -194.704195 
L 316.249342 -194.895993 
L 316.974593 -195.087523 
L 317.699844 -195.278786 
L 318.425094 -195.469784 
L 319.150345 -195.660517 
L 319.875596 -195.850986 
L 320.600846 -196.041193 
L 321.326097 -196.231139 
L 322.051348 -196.420824 
L 322.776598 -196.61025 
L 323.501849 -196.799418 
L 324.2271 -196.988328 
L 324.95235 -197.176983 
L 325.677601 -197.365382 
L 326.402852 -197.553528 
L 327.128102 -197.74142 
L 327.853353 -197.929061 
L 328.578604 -198.116451 
L 329.303854 -198.30359 
L 330.029105 -198.490481 
L 330.754355 -198.677124 
L 331.479606 -198.863519 
L 332.204857 -199.049669 
L 332.930107 -199.235574 
L 333.655358 -199.421235 
L 334.380609 -199.606652 
L 335.105859 -199.791827 
L 335.83111 -199.976762 
L 336.556361 -200.161456 
L 337.281611 -200.34591 
L 338.006862 -200.530126 
L 338.732113 -200.714105 
L 339.457363 -200.897847 
L 340.182614 -201.081354 
L 340.907865 -201.264625 
L 341.633115 -201.447663 
L 342.358366 -201.630468 
L 343.083617 -201.813041 
L 343.808867 -201.995382 
L 344.534118 -202.177494 
L 345.259368 -202.359376 
L 345.984619 -202.541029 
L 346.70987 -202.722454 
L 347.43512 -202.903653 
L 348.160371 -203.084626 
L 348.885622 -203.265373 
L 349.610872 -203.445896 
L 350.336123 -203.626196 
L 351.061374 -203.806273 
L 351.786624 -203.986128 
L 352.511875 -204.165762 
L 353.237126 -204.345176 
L 353.962376 -204.524371 
L 354.687627 -204.703347 
L 355.412878 -204.882105 
L 356.138128 -205.060646 
L 356.863379 -205.23897 
L 357.58863 -205.41708 
L 358.31388 -205.594974 
L 359.039131 -205.772655 
L 359.764382 -205.950123 
L 360.489632 -206.127378 
L 361.214883 -206.304422 
L 361.940133 -206.481255 
L 362.665384 -206.657877 
L 363.390635 -206.834291 
L 364.115885 -207.010496 
L 364.841136 -207.186493 
L 365.566387 -207.362282 
L 366.291637 -207.537866 
L 367.016888 -207.713244 
L 367.742139 -207.888416 
L 368.467389 -208.063385 
L 369.19264 -208.23815 
L 369.917891 -208.412712 
L 370.643141 -208.587072 
L 371.368392 -208.761231 
L 372.093643 -208.935189 
L 372.818893 -209.108947 
L 373.544144 -209.282506 
L 374.269395 -209.455866 
L 374.994645 -209.629028 
L 375.719896 -209.801993 
L 376.445146 -209.974761 
L 377.170397 -210.147333 
L 377.895648 -210.31971 
L 378.620898 -210.491892 
L 379.346149 -210.66388 
L 380.0714 -210.835675 
L 380.79665 -211.007278 
L 381.521901 -211.178688 
L 382.247152 -211.349907 
L 382.972402 -211.520935 
L 383.697653 -211.691773 
L 384.422904 -211.862422 
L 385.148154 -212.032882 
L 385.873405 -212.203153 
L 386.598656 -212.373237 
L 387.323906 -212.543134 
L 388.049157 -212.712845 
L 388.774408 -212.88237 
L 389.499658 -213.05171 
L 390.224909 -213.220865 
L 390.950159 -213.389837 
L 391.67541 -213.558625 
L 392.400661 -213.72723 
L 393.125911 -213.895653 
L 393.851162 -214.063895 
L 394.576413 -214.231955 
L 395.301663 -214.399836 
L 396.026914 -214.567536 
L 396.752165 -214.735057 
L 397.477415 -214.9024 
L 398.202666 -215.069565 
L 398.927917 -215.236552 
L 399.653167 -215.403362 
L 400.378418 -215.569995 
L 401.103669 -215.736453 
L 401.828919 -215.902736 
L 402.55417 -216.068844 
L 403.279421 -216.234777 
L 404.004671 -216.400537 
L 404.729922 -216.566124 
L 405.455173 -216.731539 
L 406.180423 -216.896781 
L 406.905674 -217.061852 
L 407.630924 -217.226752 
L 408.356175 -217.391482 
L 409.081426 -217.556042 
L 409.806676 -217.720432 
L 410.531927 -217.884654 
L 411.257178 -218.048707 
L 411.982428 -218.212592 
L 412.707679 -218.376311 
L 413.43293 -218.539862 
L 414.15818 -218.703247 
L 414.883431 -218.866466 
L 415.608682 -219.029521 
L 416.333932 -219.19241 
L 417.059183 -219.355135 
L 417.784434 -219.517696 
L 418.509684 -219.680095 
L 419.234935 -219.84233 
L 419.960186 -220.004403 
L 420.685436 -220.166314 
L 421.410687 -220.328064 
L 422.135937 -220.489653 
L 422.861188 -220.651082 
L 423.586439 -220.812351 
L 424.311689 -220.97346 
L 425.03694 -221.134411 
L 425.762191 -221.295203 
L 426.487441 -221.455837 
L 427.212692 -221.616314 
L 427.937943 -221.776633 
L 428.663193 -221.936796 
L 429.388444 -222.096803 
L 430.113695 -222.256654 
L 430.838945 -222.41635 
L 431.564196 -222.575891 
L 432.289447 -222.735277 
L 433.014697 -222.89451 
L 433.739948 -223.053589 
L 434.465199 -223.212516 
L 435.190449 -223.371289 
L 435.9157 -223.529911 
L 436.640951 -223.688381 
L 437.366201 -223.8467 
L 438.091452 -224.004867 
L 438.816702 -224.162885 
L 439.541953 -224.320752 
L 440.267204 -224.47847 
L 440.992454 -224.636039 
L 441.717705 -224.793459 
L 442.442956 -224.950731 
L 443.168206 -225.107855 
L 443.893457 -225.264832 
L 444.618708 -225.421661 
L 445.343958 -225.578344 
L 446.069209 -225.734881 
L 446.79446 -225.891272 
L 447.51971 -226.047518 
L 448.244961 -226.203618 
L 448.970212 -226.359574 
L 449.695462 -226.515386 
L 450.420713 -226.671054 
L 451.145964 -226.826579 
L 451.871214 -226.981961 
L 452.596465 -227.1372 
L 453.321715 -227.292297 
L 454.046966 -227.447252 
L 454.772217 -227.602065 
L 455.497467 -227.756738 
L 456.222718 -227.91127 
L 456.947969 -228.065662 
L 457.673219 -228.219914 
L 458.39847 -228.374026 
L 459.123721 -228.527999 
L 459.848971 -228.681834 
L 460.574222 -228.83553 
L 461.299473 -228.989088 
L 462.024723 -229.142508 
L 462.749974 -229.295791 
L 463.475225 -229.448938 
L 464.200475 -229.601947 
L 464.925726 -229.754821 
L 465.650977 -229.907559 
L 466.376227 -230.060161 
L 467.101478 -230.212628 
L 467.826729 -230.364961 
L 468.551979 -230.517159 
L 469.27723 -230.669223 
L 470.00248 -230.821154 
L 470.727731 -230.972951 
L 471.452982 -231.124615 
L 472.178232 -231.276147 
L 472.903483 -231.427546 
L 473.628734 -231.578813 
L 474.353984 -231.729949 
L 475.079235 -231.880954 
L 475.804486 -232.031828 
L 476.529736 -232.182571 
L 477.254987 -232.333184 
L 477.980238 -232.483667 
L 478.705488 -232.634021 
L 479.430739 -232.784245 
L 480.15599 -232.93434 
L 480.88124 -233.084307 
L 481.606491 -233.234146 
L 482.331742 -233.383857 
L 483.056992 -233.53344 
L 483.782243 -233.682896 
L 484.507493 -233.832226 
L 485.232744 -233.981428 
L 485.957995 -234.130505 
L 486.683245 -234.279455 
L 487.408496 -234.42828 
L 488.133747 -234.576979 
L 488.858997 -234.725554 
L 489.584248 -234.874004 
L 490.309499 -235.022329 
L 491.034749 -235.17053 
L 491.76 -235.318608 
L 491.76 -263.887581 
L 491.76 -263.887581 
L 491.034749 -263.71669 
L 490.309499 -263.545657 
L 489.584248 -263.37448 
L 488.858997 -263.20316 
L 488.133747 -263.031696 
L 487.408496 -262.860088 
L 486.683245 -262.688335 
L 485.957995 -262.516437 
L 485.232744 -262.344393 
L 484.507493 -262.172204 
L 483.782243 -261.999869 
L 483.056992 -261.827388 
L 482.331742 -261.654759 
L 481.606491 -261.481984 
L 480.88124 -261.309061 
L 480.15599 -261.135989 
L 479.430739 -260.96277 
L 478.705488 -260.789402 
L 477.980238 -260.615885 
L 477.254987 -260.442218 
L 476.529736 -260.268401 
L 475.804486 -260.094434 
L 475.079235 -259.920317 
L 474.353984 -259.746048 
L 473.628734 -259.571628 
L 472.903483 -259.397056 
L 472.178232 -259.222332 
L 471.452982 -259.047455 
L 470.727731 -258.872425 
L 470.00248 -258.697242 
L 469.27723 -258.521905 
L 468.551979 -258.346413 
L 467.826729 -258.170767 
L 467.101478 -257.994966 
L 466.376227 -257.819009 
L 465.650977 -257.642897 
L 464.925726 -257.466628 
L 464.200475 -257.290203 
L 463.475225 -257.11362 
L 462.749974 -256.93688 
L 462.024723 -256.759981 
L 461.299473 -256.582925 
L 460.574222 -256.405709 
L 459.848971 -256.228335 
L 459.123721 -256.0508 
L 458.39847 -255.873106 
L 457.673219 -255.69525 
L 456.947969 -255.517234 
L 456.222718 -255.339057 
L 455.497467 -255.160717 
L 454.772217 -254.982216 
L 454.046966 -254.803551 
L 453.321715 -254.624723 
L 452.596465 -254.445732 
L 451.871214 -254.266576 
L 451.145964 -254.087256 
L 450.420713 -253.907771 
L 449.695462 -253.728121 
L 448.970212 -253.548304 
L 448.244961 -253.368321 
L 447.51971 -253.188172 
L 446.79446 -253.007855 
L 446.069209 -252.82737 
L 445.343958 -252.646717 
L 444.618708 -252.465895 
L 443.893457 -252.284904 
L 443.168206 -252.103743 
L 442.442956 -251.922413 
L 441.717705 -251.740911 
L 440.992454 -251.559239 
L 440.267204 -251.377394 
L 439.541953 -251.195378 
L 438.816702 -251.013189 
L 438.091452 -250.830827 
L 437.366201 -250.648292 
L 436.640951 -250.465582 
L 435.9157 -250.282698 
L 435.190449 -250.099639 
L 434.465199 -249.916405 
L 433.739948 -249.732994 
L 433.014697 -249.549407 
L 432.289447 -249.365642 
L 431.564196 -249.1817 
L 430.838945 -248.99758 
L 430.113695 -248.813281 
L 429.388444 -248.628803 
L 428.663193 -248.444146 
L 427.937943 -248.259308 
L 427.212692 -248.074289 
L 426.487441 -247.889089 
L 425.762191 -247.703708 
L 425.03694 -247.518144 
L 424.311689 -247.332397 
L 423.586439 -247.146467 
L 422.861188 -246.960352 
L 422.135937 -246.774054 
L 421.410687 -246.58757 
L 420.685436 -246.4009 
L 419.960186 -246.214045 
L 419.234935 -246.027003 
L 418.509684 -245.839773 
L 417.784434 -245.652356 
L 417.059183 -245.46475 
L 416.333932 -245.276955 
L 415.608682 -245.088971 
L 414.883431 -244.900796 
L 414.15818 -244.712431 
L 413.43293 -244.523874 
L 412.707679 -244.335126 
L 411.982428 -244.146185 
L 411.257178 -243.957051 
L 410.531927 -243.767723 
L 409.806676 -243.578202 
L 409.081426 -243.388485 
L 408.356175 -243.198573 
L 407.630924 -243.008465 
L 406.905674 -242.81816 
L 406.180423 -242.627658 
L 405.455173 -242.436958 
L 404.729922 -242.24606 
L 404.004671 -242.054962 
L 403.279421 -241.863665 
L 402.55417 -241.672167 
L 401.828919 -241.480468 
L 401.103669 -241.288568 
L 400.378418 -241.096465 
L 399.653167 -240.90416 
L 398.927917 -240.711651 
L 398.202666 -240.518937 
L 397.477415 -240.326019 
L 396.752165 -240.132895 
L 396.026914 -239.939566 
L 395.301663 -239.746029 
L 394.576413 -239.552285 
L 393.851162 -239.358332 
L 393.125911 -239.164171 
L 392.400661 -238.9698 
L 391.67541 -238.775219 
L 390.950159 -238.580428 
L 390.224909 -238.385424 
L 389.499658 -238.190209 
L 388.774408 -237.99478 
L 388.049157 -237.799138 
L 387.323906 -237.603281 
L 386.598656 -237.407209 
L 385.873405 -237.210922 
L 385.148154 -237.014418 
L 384.422904 -236.817697 
L 383.697653 -236.620758 
L 382.972402 -236.4236 
L 382.247152 -236.226223 
L 381.521901 -236.028626 
L 380.79665 -235.830808 
L 380.0714 -235.632768 
L 379.346149 -235.434506 
L 378.620898 -235.236021 
L 377.895648 -235.037312 
L 377.170397 -234.838378 
L 376.445146 -234.63922 
L 375.719896 -234.439835 
L 374.994645 -234.240223 
L 374.269395 -234.040383 
L 373.544144 -233.840315 
L 372.818893 -233.640017 
L 372.093643 -233.43949 
L 371.368392 -233.238732 
L 370.643141 -233.037742 
L 369.917891 -232.83652 
L 369.19264 -232.635064 
L 368.467389 -232.433374 
L 367.742139 -232.23145 
L 367.016888 -232.02929 
L 366.291637 -231.826893 
L 365.566387 -231.624259 
L 364.841136 -231.421386 
L 364.115885 -231.218275 
L 363.390635 -231.014924 
L 362.665384 -230.811332 
L 361.940133 -230.607498 
L 361.214883 -230.403422 
L 360.489632 -230.199103 
L 359.764382 -229.994539 
L 359.039131 -229.789731 
L 358.31388 -229.584676 
L 357.58863 -229.379375 
L 356.863379 -229.173826 
L 356.138128 -228.968028 
L 355.412878 -228.761981 
L 354.687627 -228.555683 
L 353.962376 -228.349134 
L 353.237126 -228.142332 
L 352.511875 -227.935278 
L 351.786624 -227.727969 
L 351.061374 -227.520405 
L 350.336123 -227.312585 
L 349.610872 -227.104508 
L 348.885622 -226.896173 
L 348.160371 -226.687579 
L 347.43512 -226.478726 
L 346.70987 -226.269611 
L 345.984619 -226.060235 
L 345.259368 -225.850596 
L 344.534118 -225.640693 
L 343.808867 -225.430525 
L 343.083617 -225.220092 
L 342.358366 -225.009392 
L 341.633115 -224.798424 
L 340.907865 -224.587187 
L 340.182614 -224.37568 
L 339.457363 -224.163902 
L 338.732113 -223.951852 
L 338.006862 -223.73953 
L 337.281611 -223.526933 
L 336.556361 -223.314061 
L 335.83111 -223.100913 
L 335.105859 -222.887487 
L 334.380609 -222.673783 
L 333.655358 -222.4598 
L 332.930107 -222.245536 
L 332.204857 -222.030991 
L 331.479606 -221.816162 
L 330.754355 -221.60105 
L 330.029105 -221.385653 
L 329.303854 -221.16997 
L 328.578604 -220.953999 
L 327.853353 -220.73774 
L 327.128102 -220.521191 
L 326.402852 -220.304352 
L 325.677601 -220.08722 
L 324.95235 -219.869795 
L 324.2271 -219.652076 
L 323.501849 -219.434062 
L 322.776598 -219.215751 
L 322.051348 -218.997141 
L 321.326097 -218.778233 
L 320.600846 -218.559024 
L 319.875596 -218.339514 
L 319.150345 -218.1197 
L 318.425094 -217.899583 
L 317.699844 -217.67916 
L 316.974593 -217.45843 
L 316.249342 -217.237392 
L 315.524092 -217.016046 
L 314.798841 -216.794388 
L 314.07359 -216.572419 
L 313.34834 -216.350136 
L 312.623089 -216.127539 
L 311.897839 -215.904626 
L 311.172588 -215.681396 
L 310.447337 -215.457847 
L 309.722087 -215.233978 
L 308.996836 -215.009788 
L 308.271585 -214.785275 
L 307.546335 -214.560439 
L 306.821084 -214.335276 
L 306.095833 -214.109787 
L 305.370583 -213.883969 
L 304.645332 -213.657822 
L 303.920081 -213.431343 
L 303.194831 -213.204531 
L 302.46958 -212.977386 
L 301.744329 -212.749904 
L 301.019079 -212.522086 
L 300.293828 -212.293929 
L 299.568577 -212.065431 
L 298.843327 -211.836592 
L 298.118076 -211.60741 
L 297.392826 -211.377883 
L 296.667575 -211.148009 
L 295.942324 -210.917788 
L 295.217074 -210.687217 
L 294.491823 -210.456295 
L 293.766572 -210.22502 
L 293.041322 -209.993391 
L 292.316071 -209.761406 
L 291.59082 -209.529064 
L 290.86557 -209.296362 
L 290.140319 -209.063299 
L 289.415068 -208.829873 
L 288.689818 -208.596083 
L 287.964567 -208.361928 
L 287.239316 -208.127404 
L 286.514066 -207.892511 
L 285.788815 -207.657247 
L 285.063564 -207.421609 
L 284.338314 -207.185597 
L 283.613063 -206.949208 
L 282.887812 -206.712441 
L 282.162562 -206.475293 
L 281.437311 -206.237764 
L 280.712061 -205.999851 
L 279.98681 -205.761551 
L 279.261559 -205.522864 
L 278.536309 -205.283788 
L 277.811058 -205.04432 
L 277.085807 -204.804459 
L 276.360557 -204.564202 
L 275.635306 -204.323548 
L 274.910055 -204.082495 
L 274.184805 -203.84104 
L 273.459554 -203.599182 
L 272.734303 -203.356919 
L 272.009053 -203.114248 
L 271.283802 -202.871168 
L 270.558551 -202.627677 
L 269.833301 -202.383772 
L 269.10805 -202.139451 
L 268.382799 -201.894712 
L 267.657549 -201.649553 
L 266.932298 -201.403972 
L 266.207048 -201.157967 
L 265.481797 -200.911535 
L 264.756546 -200.664675 
L 264.031296 -200.417383 
L 263.306045 -200.169658 
L 262.580794 -199.921497 
L 261.855544 -199.672899 
L 261.130293 -199.42386 
L 260.405042 -199.174379 
L 259.679792 -198.924452 
L 258.954541 -198.674079 
L 258.22929 -198.423255 
L 257.50404 -198.17198 
L 256.778789 -197.92025 
L 256.053538 -197.668062 
L 255.328288 -197.415415 
L 254.603037 -197.162306 
L 253.877786 -196.908733 
L 253.152536 -196.654692 
L 252.427285 -196.400181 
L 251.702034 -196.145198 
L 250.976784 -195.889739 
L 250.251533 -195.633803 
L 249.526283 -195.377386 
L 248.801032 -195.120487 
L 248.075781 -194.863101 
L 247.350531 -194.605227 
L 246.62528 -194.346861 
L 245.900029 -194.088001 
L 245.174779 -193.828644 
L 244.449528 -193.568786 
L 243.724277 -193.308426 
L 242.999027 -193.04756 
L 242.273776 -192.786185 
L 241.548525 -192.524299 
L 240.823275 -192.261897 
L 240.098024 -191.998978 
L 239.372773 -191.735538 
L 238.647523 -191.471573 
L 237.922272 -191.207082 
L 237.197021 -190.94206 
L 236.471771 -190.676504 
L 235.74652 -190.410412 
L 235.02127 -190.14378 
L 234.296019 -189.876604 
L 233.570768 -189.608882 
L 232.845518 -189.340609 
L 232.120267 -189.071783 
L 231.395016 -188.8024 
L 230.669766 -188.532457 
L 229.944515 -188.26195 
L 229.219264 -187.990875 
L 228.494014 -187.71923 
L 227.768763 -187.447009 
L 227.043512 -187.17421 
L 226.318262 -186.90083 
L 225.593011 -186.626863 
L 224.86776 -186.352307 
L 224.14251 -186.077158 
L 223.417259 -185.801411 
L 222.692008 -185.525063 
L 221.966758 -185.24811 
L 221.241507 -184.970548 
L 220.516256 -184.692373 
L 219.791006 -184.41358 
L 219.065755 -184.134167 
L 218.340505 -183.854127 
L 217.615254 -183.573458 
L 216.890003 -183.292156 
L 216.164753 -183.010214 
L 215.439502 -182.72763 
L 214.714251 -182.444399 
L 213.989001 -182.160517 
L 213.26375 -181.875978 
L 212.538499 -181.590779 
L 211.813249 -181.304914 
L 211.087998 -181.018379 
L 210.362747 -180.73117 
L 209.637497 -180.443281 
L 208.912246 -180.154708 
L 208.186995 -179.865446 
L 207.461745 -179.57549 
L 206.736494 -179.284834 
L 206.011243 -178.993474 
L 205.285993 -178.701405 
L 204.560742 -178.408621 
L 203.835492 -178.115117 
L 203.110241 -177.820888 
L 202.38499 -177.525928 
L 201.65974 -177.230232 
L 200.934489 -176.933795 
L 200.209238 -176.63661 
L 199.483988 -176.338672 
L 198.758737 -176.039976 
L 198.033486 -175.740515 
L 197.308236 -175.440284 
L 196.582985 -175.139276 
L 195.857734 -174.837486 
L 195.132484 -174.534907 
L 194.407233 -174.231533 
L 193.681982 -173.927359 
L 192.956732 -173.622376 
L 192.231481 -173.31658 
L 191.50623 -173.009964 
L 190.78098 -172.70252 
L 190.055729 -172.394242 
L 189.330478 -172.085124 
L 188.605228 -171.775158 
L 187.879977 -171.464338 
L 187.154727 -171.152655 
L 186.429476 -170.840104 
L 185.704225 -170.526677 
L 184.978975 -170.212366 
L 184.253724 -169.897163 
L 183.528473 -169.581062 
L 182.803223 -169.264055 
L 182.077972 -168.946133 
L 181.352721 -168.627289 
L 180.627471 -168.307514 
L 179.90222 -167.986801 
L 179.176969 -167.665141 
L 178.451719 -167.342525 
L 177.726468 -167.018946 
L 177.001217 -166.694394 
L 176.275967 -166.368861 
L 175.550716 -166.042337 
L 174.825465 -165.714814 
L 174.100215 -165.386282 
L 173.374964 -165.056732 
L 172.649714 -164.726154 
L 171.924463 -164.394539 
L 171.199212 -164.061877 
L 170.473962 -163.728158 
L 169.748711 -163.393372 
L 169.02346 -163.057508 
L 168.29821 -162.720556 
L 167.572959 -162.382506 
L 166.847708 -162.043346 
L 166.122458 -161.703065 
L 165.397207 -161.361653 
L 164.671956 -161.019098 
L 163.946706 -160.675389 
L 163.221455 -160.330513 
L 162.496204 -159.984458 
L 161.770954 -159.637214 
L 161.045703 -159.288766 
L 160.320452 -158.939104 
L 159.595202 -158.588213 
L 158.869951 -158.23608 
L 158.144701 -157.882694 
L 157.41945 -157.528039 
L 156.694199 -157.172102 
L 155.968949 -156.81487 
L 155.243698 -156.456328 
L 154.518447 -156.096461 
L 153.793197 -155.735255 
L 153.067946 -155.372695 
L 152.342695 -155.008764 
L 151.617445 -154.643449 
L 150.892194 -154.276732 
L 150.166943 -153.908598 
L 149.441693 -153.539029 
L 148.716442 -153.16801 
L 147.991191 -152.795522 
L 147.265941 -152.421548 
L 146.54069 -152.046071 
L 145.815439 -151.669072 
L 145.090189 -151.290532 
L 144.364938 -150.910432 
L 143.639687 -150.528753 
L 142.914437 -150.145475 
L 142.189186 -149.760578 
L 141.463936 -149.37404 
L 140.738685 -148.985842 
L 140.013434 -148.595961 
L 139.288184 -148.204375 
L 138.562933 -147.811062 
L 137.837682 -147.415998 
L 137.112432 -147.019161 
L 136.387181 -146.620525 
L 135.66193 -146.220066 
L 134.93668 -145.81776 
L 134.211429 -145.413579 
L 133.486178 -145.007499 
L 132.760928 -144.599491 
L 132.035677 -144.189527 
L 131.310426 -143.777581 
L 130.585176 -143.363622 
L 129.859925 -142.947621 
L 129.134674 -142.529547 
L 128.409424 -142.109369 
L 127.684173 -141.687054 
L 126.958923 -141.262571 
L 126.233672 -140.835885 
L 125.508421 -140.406961 
L 124.783171 -139.975764 
L 124.05792 -139.542257 
L 123.332669 -139.106403 
L 122.607419 -138.668164 
L 121.882168 -138.227499 
L 121.156917 -137.784369 
L 120.431667 -137.33873 
L 119.706416 -136.89054 
L 118.981165 -136.439756 
L 118.255915 -135.98633 
L 117.530664 -135.530216 
L 116.805413 -135.071367 
L 116.080163 -134.609731 
L 115.354912 -134.145258 
L 114.629661 -133.677894 
L 113.904411 -133.207585 
L 113.17916 -132.734275 
L 112.453909 -132.257905 
L 111.728659 -131.778416 
L 111.003408 -131.295744 
L 110.278158 -130.809827 
L 109.552907 -130.320597 
L 108.827656 -129.827985 
L 108.102406 -129.331922 
L 107.377155 -128.832333 
L 106.651904 -128.329142 
L 105.926654 -127.822269 
L 105.201403 -127.311634 
L 104.476152 -126.79715 
L 103.750902 -126.278729 
L 103.025651 -125.756281 
L 102.3004 -125.229708 
L 101.57515 -124.698913 
L 100.849899 -124.163791 
L 100.124648 -123.624236 
L 99.399398 -123.080135 
L 98.674147 -122.531371 
L 97.948896 -121.977823 
L 97.223646 -121.419362 
L 96.498395 -120.855856 
L 95.773145 -120.287166 
L 95.047894 -119.713146 
L 94.322643 -119.133643 
L 93.597393 -118.548497 
L 92.872142 -117.957539 
L 92.146891 -117.360594 
L 91.421641 -116.757474 
L 90.69639 -116.147986 
L 89.971139 -115.531922 
L 89.245889 -114.909065 
L 88.520638 -114.279185 
L 87.795387 -113.642039 
L 87.070137 -112.997371 
L 86.344886 -112.344905 
L 85.619635 -111.684354 
L 84.894385 -111.015409 
L 84.169134 -110.337741 
L 83.443883 -109.650999 
L 82.718633 -108.95481 
L 81.993382 -108.248772 
L 81.268131 -107.532455 
L 80.542881 -106.805397 
L 79.81763 -106.0671 
L 79.09238 -105.317025 
L 78.367129 -104.55459 
L 77.641878 -103.779164 
L 76.916628 -102.990058 
L 76.191377 -102.186523 
L 75.466126 -101.367736 
L 74.740876 -100.532794 
L 74.015625 -99.680702 
L 73.290374 -98.810357 
L 72.565124 -97.920534 
L 71.839873 -97.009864 
L 71.114622 -96.076807 
L 70.389372 -95.119628 
L 69.664121 -94.136353 
L 68.93887 -93.124724 
L 68.21362 -92.082136 
L 67.488369 -91.005559 
L 66.763118 -89.891437 
L 66.037868 -88.735542 
L 65.312617 -87.532793 
L 64.587367 -86.276981 
L 63.862116 -84.960395 
L 63.136865 -83.573253 
L 62.411615 -82.102826 
L 61.686364 -80.532026 
L 60.961113 -78.836974 
L 60.235863 -76.982487 
L 59.510612 -74.912778 
L 58.785361 -72.529131 
L 58.060111 -69.621455 
L 57.33486 -65.518834 
z
"/>
    </defs>
    <g clip-path="url(#p2e12e64878)">
     <use xlink:href="#mcad20797ab" x="0" y="288" style="fill: #6f8b6a; fill-opacity: 0.12"/>
    </g>
   </g>
   <g id="matplotlib.axis_1">
    <g id="xtick_1">
     <g id="line2d_1">
      <defs>
       <path id="m4c4d2b55c9" d="M 0 0 
L 0 3.5 
" style="stroke: #5c554a; stroke-width: 0.8"/>
      </defs>
      <g>
       <use xlink:href="#m4c4d2b55c9" x="56.9" y="238.12" style="fill: #5c554a; stroke: #5c554a; stroke-width: 0.8"/>
      </g>
     </g>
     <g id="text_1">
      <text style="font-size: 12px; font-family: 'Georgia', 'Times New Roman', 'DejaVu Serif', serif; text-anchor: middle; fill: #5c554a" x="56.9" y="254.19125" transform="rotate(-0 56.9 254.19125)">0</text>
     </g>
    </g>
    <g id="xtick_2">
     <g id="line2d_2">
      <g>
       <use xlink:href="#m4c4d2b55c9" x="143.872" y="238.12" style="fill: #5c554a; stroke: #5c554a; stroke-width: 0.8"/>
      </g>
     </g>
     <g id="text_2">
      <text style="font-size: 12px; font-family: 'Georgia', 'Times New Roman', 'DejaVu Serif', serif; text-anchor: middle; fill: #5c554a" x="143.872" y="254.19125" transform="rotate(-0 143.872 254.19125)">200</text>
     </g>
    </g>
    <g id="xtick_3">
     <g id="line2d_3">
      <g>
       <use xlink:href="#m4c4d2b55c9" x="230.844" y="238.12" style="fill: #5c554a; stroke: #5c554a; stroke-width: 0.8"/>
      </g>
     </g>
     <g id="text_3">
      <text style="font-size: 12px; font-family: 'Georgia', 'Times New Roman', 'DejaVu Serif', serif; text-anchor: middle; fill: #5c554a" x="230.844" y="254.19125" transform="rotate(-0 230.844 254.19125)">400</text>
     </g>
    </g>
    <g id="xtick_4">
     <g id="line2d_4">
      <g>
       <use xlink:href="#m4c4d2b55c9" x="317.816" y="238.12" style="fill: #5c554a; stroke: #5c554a; stroke-width: 0.8"/>
      </g>
     </g>
     <g id="text_4">
      <text style="font-size: 12px; font-family: 'Georgia', 'Times New Roman', 'DejaVu Serif', serif; text-anchor: middle; fill: #5c554a" x="317.816" y="254.19125" transform="rotate(-0 317.816 254.19125)">600</text>
     </g>
    </g>
    <g id="xtick_5">
     <g id="line2d_5">
      <g>
       <use xlink:href="#m4c4d2b55c9" x="404.788" y="238.12" style="fill: #5c554a; stroke: #5c554a; stroke-width: 0.8"/>
      </g>
     </g>
     <g id="text_5">
      <text style="font-size: 12px; font-family: 'Georgia', 'Times New Roman', 'DejaVu Serif', serif; text-anchor: middle; fill: #5c554a" x="404.788" y="254.19125" transform="rotate(-0 404.788 254.19125)">800</text>
     </g>
    </g>
    <g id="xtick_6">
     <g id="line2d_6">
      <g>
       <use xlink:href="#m4c4d2b55c9" x="491.76" y="238.12" style="fill: #5c554a; stroke: #5c554a; stroke-width: 0.8"/>
      </g>
     </g>
     <g id="text_6">
      <text style="font-size: 12px; font-family: 'Georgia', 'Times New Roman', 'DejaVu Serif', serif; text-anchor: middle; fill: #5c554a" x="491.76" y="254.19125" transform="rotate(-0 491.76 254.19125)">1000</text>
     </g>
    </g>
    <g id="text_7">
     <text style="font-size: 12px; font-family: 'Georgia', 'Times New Roman', 'DejaVu Serif', serif; text-anchor: middle; fill: #5c554a" x="274.33" y="269.865" transform="rotate(-0 274.33 269.865)">drone height above ground (m), ground terminal at 2 m</text>
    </g>
   </g>
   <g id="matplotlib.axis_2">
    <g id="ytick_1">
     <g id="line2d_7">
      <defs>
       <path id="m5f94140daf" d="M 0 0 
L -3.5 0 
" style="stroke: #5c554a; stroke-width: 0.8"/>
      </defs>
      <g>
       <use xlink:href="#m5f94140daf" x="56.9" y="238.12" style="fill: #5c554a; stroke: #5c554a; stroke-width: 0.8"/>
      </g>
     </g>
     <g id="text_8">
      <text style="font-size: 12px; font-family: 'Georgia', 'Times New Roman', 'DejaVu Serif', serif; text-anchor: end; fill: #5c554a" x="49.9" y="242.655625" transform="rotate(-0 49.9 242.655625)">0</text>
     </g>
    </g>
    <g id="ytick_2">
     <g id="line2d_8">
      <g>
       <use xlink:href="#m5f94140daf" x="56.9" y="206.674286" style="fill: #5c554a; stroke: #5c554a; stroke-width: 0.8"/>
      </g>
     </g>
     <g id="text_9">
      <text style="font-size: 12px; font-family: 'Georgia', 'Times New Roman', 'DejaVu Serif', serif; text-anchor: end; fill: #5c554a" x="49.9" y="211.209911" transform="rotate(-0 49.9 211.209911)">20</text>
     </g>
    </g>
    <g id="ytick_3">
     <g id="line2d_9">
      <g>
       <use xlink:href="#m5f94140daf" x="56.9" y="175.228571" style="fill: #5c554a; stroke: #5c554a; stroke-width: 0.8"/>
      </g>
     </g>
     <g id="text_10">
      <text style="font-size: 12px; font-family: 'Georgia', 'Times New Roman', 'DejaVu Serif', serif; text-anchor: end; fill: #5c554a" x="49.9" y="179.764196" transform="rotate(-0 49.9 179.764196)">40</text>
     </g>
    </g>
    <g id="ytick_4">
     <g id="line2d_10">
      <g>
       <use xlink:href="#m5f94140daf" x="56.9" y="143.782857" style="fill: #5c554a; stroke: #5c554a; stroke-width: 0.8"/>
      </g>
     </g>
     <g id="text_11">
      <text style="font-size: 12px; font-family: 'Georgia', 'Times New Roman', 'DejaVu Serif', serif; text-anchor: end; fill: #5c554a" x="49.9" y="148.318482" transform="rotate(-0 49.9 148.318482)">60</text>
     </g>
    </g>
    <g id="ytick_5">
     <g id="line2d_11">
      <g>
       <use xlink:href="#m5f94140daf" x="56.9" y="112.337143" style="fill: #5c554a; stroke: #5c554a; stroke-width: 0.8"/>
      </g>
     </g>
     <g id="text_12">
      <text style="font-size: 12px; font-family: 'Georgia', 'Times New Roman', 'DejaVu Serif', serif; text-anchor: end; fill: #5c554a" x="49.9" y="116.872768" transform="rotate(-0 49.9 116.872768)">80</text>
     </g>
    </g>
    <g id="ytick_6">
     <g id="line2d_12">
      <g>
       <use xlink:href="#m5f94140daf" x="56.9" y="80.891429" style="fill: #5c554a; stroke: #5c554a; stroke-width: 0.8"/>
      </g>
     </g>
     <g id="text_13">
      <text style="font-size: 12px; font-family: 'Georgia', 'Times New Roman', 'DejaVu Serif', serif; text-anchor: end; fill: #5c554a" x="49.9" y="85.427054" transform="rotate(-0 49.9 85.427054)">100</text>
     </g>
    </g>
    <g id="ytick_7">
     <g id="line2d_13">
      <g>
       <use xlink:href="#m5f94140daf" x="56.9" y="49.445714" style="fill: #5c554a; stroke: #5c554a; stroke-width: 0.8"/>
      </g>
     </g>
     <g id="text_14">
      <text style="font-size: 12px; font-family: 'Georgia', 'Times New Roman', 'DejaVu Serif', serif; text-anchor: end; fill: #5c554a" x="49.9" y="53.981339" transform="rotate(-0 49.9 53.981339)">120</text>
     </g>
    </g>
    <g id="ytick_8">
     <g id="line2d_14">
      <g>
       <use xlink:href="#m5f94140daf" x="56.9" y="18" style="fill: #5c554a; stroke: #5c554a; stroke-width: 0.8"/>
      </g>
     </g>
     <g id="text_15">
      <text style="font-size: 12px; font-family: 'Georgia', 'Times New Roman', 'DejaVu Serif', serif; text-anchor: end; fill: #5c554a" x="49.9" y="22.535625" transform="rotate(-0 49.9 22.535625)">140</text>
     </g>
    </g>
    <g id="text_16">
     <text style="font-size: 12px; font-family: 'Georgia', 'Times New Roman', 'DejaVu Serif', serif; text-anchor: middle; fill: #5c554a" x="23.41125" y="128.06" transform="rotate(-90 23.41125 128.06)">horizon range (km)</text>
    </g>
   </g>
   <g id="line2d_15">
    <path d="M 57.33486 222.481166 
L 58.060111 218.378545 
L 58.785361 215.470869 
L 60.235863 211.017513 
L 61.686364 207.467974 
L 63.136865 204.426747 
L 65.312617 200.467207 
L 67.488369 196.994441 
L 70.389372 192.880372 
L 73.290374 189.189643 
L 76.916628 185.009942 
L 80.542881 181.194603 
L 84.894385 176.984591 
L 89.245889 173.090935 
L 94.322643 168.866357 
L 99.399398 164.919865 
L 105.201403 160.688366 
L 111.728659 156.221584 
L 118.255915 152.01367 
L 125.508421 147.593039 
L 133.486178 142.992501 
L 142.189186 138.239422 
L 151.617445 133.356551 
L 161.770954 128.362786 
L 172.649714 123.273846 
L 184.253724 118.102837 
L 196.582985 112.860724 
L 209.637497 107.556719 
L 223.417259 102.198589 
L 237.922272 96.792918 
L 253.877786 91.091267 
L 270.558551 85.372323 
L 287.964567 79.638072 
L 306.821084 73.664724 
L 326.402852 67.695648 
L 347.43512 61.521274 
L 369.19264 55.364936 
L 392.400661 49.0302 
L 417.059183 42.53525 
L 442.442956 36.077587 
L 469.27723 29.478095 
L 491.76 24.112419 
L 491.76 24.112419 
" clip-path="url(#p2e12e64878)" style="fill: none; stroke: #c34a22; stroke-width: 2; stroke-linecap: square"/>
   </g>
   <g id="line2d_16">
    <path d="M 57.33486 224.568874 
L 58.060111 221.013933 
L 58.785361 218.494418 
L 60.235863 214.635563 
L 61.686364 211.559871 
L 63.136865 208.924633 
L 65.312617 205.493672 
L 67.488369 202.484503 
L 70.389372 198.919642 
L 73.290374 195.721608 
L 76.916628 192.099877 
L 80.542881 188.793867 
L 84.894385 185.145871 
L 89.245889 181.772 
L 94.322643 178.111382 
L 100.124648 174.220262 
L 106.651904 170.143438 
L 113.17916 166.326369 
L 120.431667 162.336586 
L 128.409424 158.202804 
L 137.112432 153.948446 
L 146.54069 149.592604 
L 156.694199 145.150873 
L 167.572959 140.636033 
L 179.176969 136.058604 
L 191.50623 131.427289 
L 205.285993 126.495627 
L 219.791006 121.545999 
L 235.02127 116.580754 
L 251.702034 111.380496 
L 269.10805 106.186447 
L 287.964567 100.79464 
L 308.271585 95.228778 
L 329.303854 89.69641 
L 351.786624 84.013872 
L 375.719896 78.198007 
L 401.103669 72.263547 
L 427.937943 66.223367 
L 456.222718 60.08873 
L 485.957995 53.869495 
L 491.76 52.681392 
L 491.76 52.681392 
" clip-path="url(#p2e12e64878)" style="fill: none; stroke-dasharray: 5.18,2.24; stroke-dashoffset: 0; stroke: #5c554a; stroke-width: 1.4"/>
   </g>
   <g id="patch_3">
    <path d="M 56.9 238.12 
L 56.9 18 
" style="fill: none; stroke: #d8cfbc; stroke-width: 0.8; stroke-linejoin: miter; stroke-linecap: square"/>
   </g>
   <g id="patch_4">
    <path d="M 56.9 238.12 
L 491.76 238.12 
" style="fill: none; stroke: #d8cfbc; stroke-width: 0.8; stroke-linejoin: miter; stroke-linecap: square"/>
   </g>
   <g id="patch_5">
    <path d="M 88.299272 204.090607 
Q 79.988456 199.285242 71.67764 194.479878 
" style="fill: none; stroke: #5c554a; stroke-width: 0.7; stroke-linecap: round"/>
   </g>
   <g id="text_17">
    <text style="font-size: 8.6px; font-family: 'Georgia', 'Times New Roman', 'DejaVu Serif', serif; fill: #1e3d52" transform="translate(88.911497 213.592769)">mast 30 m</text>
    <text style="font-size: 8.6px; font-family: 'Georgia', 'Times New Roman', 'DejaVu Serif', serif; fill: #1e3d52" transform="translate(96.988778 223.259169)">28 km</text>
   </g>
   <g id="patch_6">
    <path d="M 140.448803 172.792199 
Q 125.671515 165.822227 110.894227 158.852255 
" style="fill: none; stroke: #5c554a; stroke-width: 0.7; stroke-linecap: round"/>
   </g>
   <g id="text_18">
    <text style="font-size: 8.6px; font-family: 'Georgia', 'Times New Roman', 'DejaVu Serif', serif; fill: #1e3d52" transform="translate(141.695578 182.147054)">drone 120 m</text>
    <text style="font-size: 8.6px; font-family: 'Georgia', 'Times New Roman', 'DejaVu Serif', serif; fill: #1e3d52" transform="translate(154.367141 191.813454)">51 km</text>
   </g>
   <g id="patch_7">
    <path d="M 310.378481 103.609669 
Q 293.23323 94.335585 276.087979 85.061502 
" style="fill: none; stroke: #5c554a; stroke-width: 0.7; stroke-linecap: round"/>
   </g>
   <g id="text_19">
    <text style="font-size: 8.6px; font-family: 'Georgia', 'Times New Roman', 'DejaVu Serif', serif; fill: #1e3d52" transform="translate(314.137934 109.821912)">500 m</text>
    <text style="font-size: 8.6px; font-family: 'Georgia', 'Times New Roman', 'DejaVu Serif', serif; fill: #1e3d52" transform="translate(314.3872 119.488312)">98 km</text>
   </g>
   <g id="line2d_17">
    <defs>
     <path id="m4ee7b60c89" d="M 0 2.5 
C 0.663008 2.5 1.29895 2.236584 1.767767 1.767767 
C 2.236584 1.29895 2.5 0.663008 2.5 0 
C 2.5 -0.663008 2.236584 -1.29895 1.767767 -1.767767 
C 1.29895 -2.236584 0.663008 -2.5 0 -2.5 
C -0.663008 -2.5 -1.29895 -2.236584 -1.767767 -1.767767 
C -2.236584 -1.29895 -2.5 -0.663008 -2.5 0 
C -2.5 0.663008 -2.236584 1.29895 -1.767767 1.767767 
C -1.29895 2.236584 -0.663008 2.5 0 2.5 
z
" style="stroke: #fbfaf8; stroke-width: 0.8"/>
    </defs>
    <g clip-path="url(#p2e12e64878)">
     <use xlink:href="#m4ee7b60c89" x="69.9458" y="193.478517" style="fill: #1e3d52; stroke: #fbfaf8; stroke-width: 0.8"/>
    </g>
   </g>
   <g id="line2d_18">
    <g clip-path="url(#p2e12e64878)">
     <use xlink:href="#m4ee7b60c89" x="109.0832" y="157.998052" style="fill: #1e3d52; stroke: #fbfaf8; stroke-width: 0.8"/>
    </g>
   </g>
   <g id="line2d_19">
    <g clip-path="url(#p2e12e64878)">
     <use xlink:href="#m4ee7b60c89" x="274.33" y="84.110588" style="fill: #1e3d52; stroke: #fbfaf8; stroke-width: 0.8"/>
    </g>
   </g>
   <g id="legend_1">
    <g id="line2d_20">
     <path d="M 357.05 206.514688 
L 365.6 206.514688 
L 374.15 206.514688 
" style="fill: none; stroke: #c34a22; stroke-width: 2; stroke-linecap: square"/>
    </g>
    <g id="text_20">
     <!-- radio horizon ($4.12\sqrt{h}$) -->
     <g style="fill: #221e17" transform="translate(381.75 209.839687)">
      <text>
       <tspan x="0" y="-0.195625" style="font-size: 9.5px; font-family: 'Georgia'; fill: #221e17">r</tspan>
       <tspan x="3.891846" y="-0.195625" style="font-size: 9.5px; font-family: 'Georgia'; fill: #221e17">a</tspan>
       <tspan x="8.678955" y="-0.195625" style="font-size: 9.5px; font-family: 'Georgia'; fill: #221e17">d</tspan>
       <tspan x="14.134033" y="-0.195625" style="font-size: 9.5px; font-family: 'Georgia'; fill: #221e17">i</tspan>
       <tspan x="16.917236" y="-0.195625" style="font-size: 9.5px; font-family: 'Georgia'; fill: #221e17">o</tspan>
       <tspan x="22.03833" y="-0.195625" style="font-size: 9.5px; font-family: 'Georgia'; fill: #221e17"> </tspan>
       <tspan x="24.329834" y="-0.195625" style="font-size: 9.5px; font-family: 'Georgia'; fill: #221e17">h</tspan>
       <tspan x="29.859131" y="-0.195625" style="font-size: 9.5px; font-family: 'Georgia'; fill: #221e17">o</tspan>
       <tspan x="34.980225" y="-0.195625" style="font-size: 9.5px; font-family: 'Georgia'; fill: #221e17">r</tspan>
       <tspan x="38.87207" y="-0.195625" style="font-size: 9.5px; font-family: 'Georgia'; fill: #221e17">i</tspan>
       <tspan x="41.655273" y="-0.195625" style="font-size: 9.5px; font-family: 'Georgia'; fill: #221e17">z</tspan>
       <tspan x="45.871826" y="-0.195625" style="font-size: 9.5px; font-family: 'Georgia'; fill: #221e17">o</tspan>
       <tspan x="50.99292" y="-0.195625" style="font-size: 9.5px; font-family: 'Georgia'; fill: #221e17">n</tspan>
       <tspan x="56.605713" y="-0.195625" style="font-size: 9.5px; font-family: 'Georgia'; fill: #221e17"> </tspan>
       <tspan x="58.897217" y="-0.195625" style="font-size: 9.5px; font-family: 'Georgia'; fill: #221e17">(</tspan>
       <tspan x="97.689423" y="-0.195625" style="font-size: 9.5px; font-family: 'Georgia'; fill: #221e17">)</tspan>
       <tspan x="62.459717" y="-0.195625" style="font-size: 9.5px; font-family: 'DejaVu Sans'; fill: #221e17">4</tspan>
       <tspan x="68.503906" y="-0.195625" style="font-size: 9.5px; font-family: 'DejaVu Sans'; fill: #221e17">.</tspan>
       <tspan x="71.523682" y="-0.195625" style="font-size: 9.5px; font-family: 'DejaVu Sans'; fill: #221e17">1</tspan>
       <tspan x="77.567871" y="-0.195625" style="font-size: 9.5px; font-family: 'DejaVu Sans'; fill: #221e17">2</tspan>
       <tspan x="83.612061" y="-1.664375" style="font-size: 5.433164px; font-family: 'STIXSizeOneSym'; fill: #221e17">√</tspan>
       <tspan x="90.480927" y="0.1875" style="font-style: oblique; font-size: 9.5px; font-family: 'DejaVu Sans'; fill: #221e17">h</tspan>
      </text>
      <rect x="89.293427" y="-9.8125" width="8.395996" height="0.59375"/>
     </g>
    </g>
    <g id="line2d_21">
     <path d="M 357.05 224.155 
L 365.6 224.155 
L 374.15 224.155 
" style="fill: none; stroke-dasharray: 5.18,2.24; stroke-dashoffset: 0; stroke: #5c554a; stroke-width: 1.4"/>
    </g>
    <g id="text_21">
     <!-- geometric ($3.57\sqrt{h}$) -->
     <g style="fill: #221e17" transform="translate(381.75 227.48)">
      <text>
       <tspan x="0" y="-0.195625" style="font-size: 9.5px; font-family: 'Georgia'; fill: #221e17">g</tspan>
       <tspan x="4.838135" y="-0.195625" style="font-size: 9.5px; font-family: 'Georgia'; fill: #221e17">e</tspan>
       <tspan x="9.43042" y="-0.195625" style="font-size: 9.5px; font-family: 'Georgia'; fill: #221e17">o</tspan>
       <tspan x="14.551514" y="-0.195625" style="font-size: 9.5px; font-family: 'Georgia'; fill: #221e17">m</tspan>
       <tspan x="22.919678" y="-0.195625" style="font-size: 9.5px; font-family: 'Georgia'; fill: #221e17">e</tspan>
       <tspan x="27.511963" y="-0.195625" style="font-size: 9.5px; font-family: 'Georgia'; fill: #221e17">t</tspan>
       <tspan x="30.791504" y="-0.195625" style="font-size: 9.5px; font-family: 'Georgia'; fill: #221e17">r</tspan>
       <tspan x="34.68335" y="-0.195625" style="font-size: 9.5px; font-family: 'Georgia'; fill: #221e17">i</tspan>
       <tspan x="37.466553" y="-0.195625" style="font-size: 9.5px; font-family: 'Georgia'; fill: #221e17">c</tspan>
       <tspan x="41.780518" y="-0.195625" style="font-size: 9.5px; font-family: 'Georgia'; fill: #221e17"> </tspan>
       <tspan x="44.072021" y="-0.195625" style="font-size: 9.5px; font-family: 'Georgia'; fill: #221e17">(</tspan>
       <tspan x="82.114227" y="-0.195625" style="font-size: 9.5px; font-family: 'Georgia'; fill: #221e17">)</tspan>
       <tspan x="47.634521" y="-0.195625" style="font-size: 9.5px; font-family: 'DejaVu Sans'; fill: #221e17">3</tspan>
       <tspan x="53.678711" y="-0.195625" style="font-size: 9.5px; font-family: 'DejaVu Sans'; fill: #221e17">.</tspan>
       <tspan x="56.698486" y="-0.195625" style="font-size: 9.5px; font-family: 'DejaVu Sans'; fill: #221e17">5</tspan>
       <tspan x="61.992676" y="-0.195625" style="font-size: 9.5px; font-family: 'DejaVu Sans'; fill: #221e17">7</tspan>
       <tspan x="68.036865" y="-1.664375" style="font-size: 5.433164px; font-family: 'STIXSizeOneSym'; fill: #221e17">√</tspan>
       <tspan x="74.905731" y="0.1875" style="font-style: oblique; font-size: 9.5px; font-family: 'DejaVu Sans'; fill: #221e17">h</tspan>
      </text>
      <rect x="73.718231" y="-9.8125" width="8.395996" height="0.59375"/>
     </g>
    </g>
   </g>
  </g>
 </g>
 <defs>
  <clipPath id="p2e12e64878">
   <rect x="56.9" y="18" width="434.86" height="220.12"/>
  </clipPath>
 </defs>
</svg>
