<?xml version="1.0" encoding="utf-8" standalone="no"?>
<!DOCTYPE svg PUBLIC "-//W3C//DTD SVG 1.1//EN"
  "http://www.w3.org/Graphics/SVG/1.1/DTD/svg11.dtd">
<svg xmlns:xlink="http://www.w3.org/1999/xlink" width="518.4pt" height="302.4pt" viewBox="0 0 518.4 302.4" xmlns="http://www.w3.org/2000/svg" version="1.1">
 <metadata>
  <rdf:RDF xmlns:dc="http://purl.org/dc/elements/1.1/" xmlns:cc="http://creativecommons.org/ns#" xmlns:rdf="http://www.w3.org/1999/02/22-rdf-syntax-ns#">
   <cc:Work>
    <dc:type rdf:resource="http://purl.org/dc/dcmitype/StillImage"/>
    <dc:date>2026-06-10T14:38:56.728391</dc:date>
    <dc:format>image/svg+xml</dc:format>
    <dc:creator>
     <cc:Agent>
      <dc:title>Matplotlib v3.10.8, https://matplotlib.org/</dc:title>
     </cc:Agent>
    </dc:creator>
   </cc:Work>
  </rdf:RDF>
 </metadata>
 <defs>
  <style type="text/css">*{stroke-linejoin: round; stroke-linecap: butt}</style>
 </defs>
 <g id="figure_1">
  <g id="patch_1">
   <path d="M 0 302.4 
L 518.4 302.4 
L 518.4 0 
L 0 0 
z
" style="fill: #f6f1e7"/>
  </g>
  <g id="axes_1">
   <g id="patch_2">
    <path d="M 12.96 124.51 
L 505.44 124.51 
L 505.44 29.04 
L 12.96 29.04 
z
" style="fill: #f6f1e7"/>
   </g>
   <g id="matplotlib.axis_1">
    <g id="xtick_1">
     <g id="line2d_1">
      <defs>
       <path id="m3ca1370bcc" d="M 0 0 
L 0 3.5 
" style="stroke: #5c554a; stroke-width: 0.8"/>
      </defs>
      <g>
       <use xlink:href="#m3ca1370bcc" x="35.345455" y="124.51" style="fill: #5c554a; stroke: #5c554a; stroke-width: 0.8"/>
      </g>
     </g>
    </g>
    <g id="xtick_2">
     <g id="line2d_2">
      <g>
       <use xlink:href="#m3ca1370bcc" x="109.988517" y="124.51" style="fill: #5c554a; stroke: #5c554a; stroke-width: 0.8"/>
      </g>
     </g>
    </g>
    <g id="xtick_3">
     <g id="line2d_3">
      <g>
       <use xlink:href="#m3ca1370bcc" x="184.63158" y="124.51" style="fill: #5c554a; stroke: #5c554a; stroke-width: 0.8"/>
      </g>
     </g>
    </g>
    <g id="xtick_4">
     <g id="line2d_4">
      <g>
       <use xlink:href="#m3ca1370bcc" x="259.274643" y="124.51" style="fill: #5c554a; stroke: #5c554a; stroke-width: 0.8"/>
      </g>
     </g>
    </g>
    <g id="xtick_5">
     <g id="line2d_5">
      <g>
       <use xlink:href="#m3ca1370bcc" x="333.917706" y="124.51" style="fill: #5c554a; stroke: #5c554a; stroke-width: 0.8"/>
      </g>
     </g>
    </g>
    <g id="xtick_6">
     <g id="line2d_6">
      <g>
       <use xlink:href="#m3ca1370bcc" x="408.560769" y="124.51" style="fill: #5c554a; stroke: #5c554a; stroke-width: 0.8"/>
      </g>
     </g>
    </g>
    <g id="xtick_7">
     <g id="line2d_7">
      <g>
       <use xlink:href="#m3ca1370bcc" x="483.203832" y="124.51" style="fill: #5c554a; stroke: #5c554a; stroke-width: 0.8"/>
      </g>
     </g>
    </g>
   </g>
   <g id="matplotlib.axis_2"/>
   <g id="line2d_8">
    <path d="M 35.345455 73.449427 
L 35.494741 67.081292 
L 35.644027 65.520798 
L 35.942599 69.376782 
L 36.241171 78.509276 
L 36.390457 77.788272 
L 36.539744 83.538281 
L 36.68903 80.577291 
L 36.987602 66.63843 
L 37.136888 64.06618 
L 37.286174 67.306173 
L 37.43546 67.780251 
L 37.584746 70.875321 
L 37.734033 82.68285 
L 37.883319 83.203406 
L 38.032605 87.729216 
L 38.779035 63.274801 
L 38.928322 66.951802 
L 39.077608 73.4153 
L 39.226894 86.139245 
L 39.674752 77.780132 
L 39.824038 77.533784 
L 39.973324 68.79036 
L 40.421183 63.873452 
L 40.719755 78.083234 
L 40.869041 78.510992 
L 41.018327 83.116411 
L 41.466186 66.864674 
L 41.615472 67.566306 
L 41.764758 63.443985 
L 41.914044 62.719818 
L 42.06333 77.262394 
L 42.212616 75.060191 
L 42.511189 83.089861 
L 42.660475 71.402887 
L 42.809761 69.881882 
L 42.959047 70.641142 
L 43.108333 63.266772 
L 43.257619 61.66438 
L 43.705478 77.781007 
L 43.854764 78.788876 
L 44.00405 76.338995 
L 44.153336 79.644533 
L 44.451908 68.130883 
L 44.601194 62.91148 
L 45.049053 72.620488 
L 45.347625 77.100498 
L 45.496911 84.864585 
L 45.646197 79.840646 
L 45.795483 69.876135 
L 45.944769 72.774619 
L 46.094056 64.597982 
L 46.392628 62.482482 
L 46.840486 81.704718 
L 46.989772 81.315666 
L 47.139058 72.369475 
L 47.288345 73.101442 
L 47.586917 61.866807 
L 47.736203 63.34365 
L 47.885489 66.90945 
L 48.034775 75.18794 
L 48.184061 77.101679 
L 48.333347 81.7886 
L 48.63192 74.963523 
L 48.781206 71.680325 
L 48.930492 64.07982 
L 49.079778 63.904311 
L 49.229064 59.503065 
L 49.676923 80.995086 
L 49.826209 79.160043 
L 49.975495 85.56103 
L 50.124781 83.302709 
L 50.423353 68.891433 
L 50.721925 55.615234 
L 51.020498 73.376758 
L 51.468356 80.67471 
L 51.617642 77.416825 
L 51.916214 64.299509 
L 52.065501 65.845895 
L 52.214787 62.826663 
L 52.364073 65.794996 
L 52.513359 74.623253 
L 52.662645 75.873984 
L 52.811931 82.726854 
L 52.961217 76.948726 
L 53.110504 76.055711 
L 53.558362 62.861692 
L 53.707648 68.775554 
L 54.00622 70.060513 
L 54.155506 83.308387 
L 54.304793 77.26179 
L 54.454079 85.425577 
L 54.603365 74.188777 
L 54.752651 73.82724 
L 54.901937 63.295262 
L 55.051223 61.990444 
L 55.200509 67.239669 
L 55.349795 61.790482 
L 55.499082 66.579919 
L 55.797654 80.716749 
L 55.94694 80.350435 
L 56.096226 79.573871 
L 56.245512 67.627276 
L 56.394798 67.391168 
L 56.544084 62.495493 
L 56.842657 67.635347 
L 56.991943 75.08739 
L 57.141229 72.495984 
L 57.290515 80.278349 
L 57.439801 76.743064 
L 57.589087 76.401179 
L 57.738373 73.223699 
L 58.036946 64.049208 
L 58.186232 62.254656 
L 58.484804 71.962393 
L 58.63409 80.763672 
L 58.783376 82.299515 
L 58.932662 74.541698 
L 59.081949 78.531006 
L 59.231235 74.334651 
L 59.529807 57.837437 
L 59.679093 66.86032 
L 59.828379 66.279853 
L 60.126951 81.997726 
L 60.276238 77.482132 
L 60.425524 79.887151 
L 60.724096 73.480104 
L 60.873382 64.296783 
L 61.022668 64.119957 
L 61.171954 62.904923 
L 61.470527 75.11661 
L 61.619813 72.529945 
L 61.769099 81.737102 
L 62.216957 73.013305 
L 62.515529 61.091448 
L 63.112674 74.03929 
L 63.26196 79.100952 
L 63.411246 80.209683 
L 63.560532 80.032864 
L 63.709818 77.399591 
L 63.859105 64.847509 
L 64.008391 61.663698 
L 64.904107 84.989528 
L 65.053394 75.662902 
L 65.20268 79.180592 
L 65.351966 67.338035 
L 65.650538 64.329347 
L 65.799824 64.654969 
L 65.94911 71.43283 
L 66.247683 90.350485 
L 66.396969 82.487542 
L 66.546255 84.917009 
L 66.844827 68.12026 
L 67.143399 73.734358 
L 67.292685 69.351369 
L 67.740544 83.06888 
L 67.88983 85.401106 
L 68.039116 83.552949 
L 68.337688 69.708321 
L 68.486974 67.724215 
L 68.636261 60.125212 
L 68.934833 67.351474 
L 69.084119 76.15635 
L 69.233405 77.403184 
L 69.382691 77.383791 
L 69.531977 72.55594 
L 69.83055 59.060931 
L 69.979836 50.918744 
L 70.129122 49.747438 
L 70.278408 46.550324 
L 70.427694 61.510453 
L 70.57698 58.52557 
L 70.726266 63.772909 
L 70.875552 62.398737 
L 71.024839 62.495108 
L 71.323411 42.77465 
L 71.621983 39.82143 
L 71.771269 43.616204 
L 71.920555 43.846593 
L 72.219128 62.250306 
L 72.368414 57.20883 
L 72.5177 57.724044 
L 72.666986 56.313604 
L 72.965558 33.379545 
L 73.26413 45.349767 
L 73.413417 50.556291 
L 73.562703 50.070078 
L 73.711989 57.214369 
L 73.861275 58.389431 
L 74.010561 56.282844 
L 74.458419 43.379131 
L 74.607706 45.598318 
L 74.756992 54.099099 
L 74.906278 55.825589 
L 75.055564 66.234976 
L 75.20485 65.215568 
L 75.354136 73.913466 
L 75.652708 63.634968 
L 75.801995 63.571673 
L 75.951281 51.784055 
L 76.100567 53.72371 
L 76.249853 64.197571 
L 76.399139 66.727042 
L 76.548425 74.33447 
L 76.697711 88.012397 
L 76.846997 79.831117 
L 76.996284 78.25693 
L 77.14557 73.115997 
L 77.294856 72.022046 
L 77.444142 66.724729 
L 77.593428 66.960167 
L 77.742714 66.451423 
L 78.041286 81.751095 
L 78.190573 80.529611 
L 78.339859 87.318483 
L 78.489145 83.622284 
L 78.638431 82.833458 
L 78.787717 66.826737 
L 78.937003 65.419227 
L 79.086289 65.555243 
L 79.384862 76.710386 
L 79.683434 86.351522 
L 79.83272 86.044138 
L 79.982006 81.719602 
L 80.131292 71.536132 
L 80.429865 67.34269 
L 80.579151 68.776651 
L 80.728437 72.081696 
L 80.877723 70.222793 
L 81.176295 83.396031 
L 81.325581 84.50411 
L 81.474867 83.380571 
L 81.77344 65.973855 
L 81.922726 66.465402 
L 82.072012 65.795357 
L 82.370584 73.2123 
L 82.51987 83.86702 
L 82.669156 82.822975 
L 82.818443 84.680278 
L 82.967729 75.775997 
L 83.117015 75.516008 
L 83.415587 59.419696 
L 83.714159 69.374788 
L 83.863445 72.247061 
L 84.162018 84.681015 
L 84.311304 80.082406 
L 84.46059 71.833623 
L 84.609876 73.591705 
L 84.759162 68.013137 
L 84.908448 67.330306 
L 85.057734 63.03667 
L 85.356307 76.294028 
L 85.505593 74.188028 
L 85.654879 84.429794 
L 85.953451 73.46511 
L 86.102737 72.067473 
L 86.40131 58.028275 
L 86.849168 77.256135 
L 86.998454 78.285942 
L 87.14774 77.118184 
L 87.446312 81.458009 
L 87.894171 63.494043 
L 88.192743 67.129235 
L 88.640601 82.155586 
L 88.789888 81.403682 
L 88.939174 79.00592 
L 89.237746 62.089438 
L 89.387032 62.807344 
L 89.536318 64.523936 
L 89.685604 73.380889 
L 89.83489 72.273999 
L 89.984177 85.063447 
L 90.133463 86.735612 
L 90.432035 76.783347 
L 90.581321 74.105857 
L 90.730607 73.647175 
L 90.879893 66.11587 
L 91.029179 67.112691 
L 91.178466 66.333724 
L 91.327752 66.656574 
L 91.626324 85.0294 
L 91.77561 86.291157 
L 92.074182 74.473022 
L 92.223468 72.170613 
L 92.372755 64.863706 
L 92.522041 68.887325 
L 92.671327 65.123301 
L 93.119185 84.358619 
L 93.865616 69.624791 
L 94.014902 70.109591 
L 94.164188 66.425108 
L 94.46276 79.115482 
L 94.612046 80.010866 
L 94.761333 88.662112 
L 95.358477 67.026568 
L 95.507763 62.62573 
L 95.955622 83.046162 
L 96.104908 80.945365 
L 96.254194 82.054459 
L 96.40348 86.194976 
L 96.552766 70.589987 
L 96.702052 67.581904 
L 96.851338 61.925737 
L 97.299197 78.552721 
L 97.448483 72.44264 
L 97.597769 84.365001 
L 97.747055 78.841501 
L 97.896341 82.579513 
L 98.045627 74.652789 
L 98.194913 75.067369 
L 98.493486 63.426698 
L 98.642772 73.846721 
L 98.792058 71.959487 
L 99.09063 87.441758 
L 99.239916 85.766812 
L 99.389202 82.327749 
L 99.687775 71.832976 
L 99.986347 67.83354 
L 100.434205 81.278317 
L 100.583491 81.718853 
L 100.732778 89.357865 
L 101.03135 77.914221 
L 101.180636 73.577798 
L 101.329922 64.504234 
L 101.479208 68.863702 
L 101.628494 65.883754 
L 101.77778 78.504501 
L 101.927067 80.268388 
L 102.225639 87.276271 
L 102.673497 68.961998 
L 102.822783 67.709831 
L 102.972069 71.020471 
L 103.121356 71.296698 
L 103.569214 88.09114 
L 103.7185 85.396289 
L 103.867786 87.397833 
L 104.017072 74.55124 
L 104.166358 74.647905 
L 104.315645 73.631177 
L 104.464931 68.162433 
L 104.614217 67.868666 
L 104.912789 85.667566 
L 105.211361 89.215252 
L 105.360647 81.158295 
L 105.509934 79.534287 
L 105.808506 66.485668 
L 105.957792 70.744812 
L 106.107078 70.378275 
L 106.40565 86.449278 
L 106.554936 91.793183 
L 106.704223 80.18105 
L 106.853509 83.757092 
L 107.152081 72.117938 
L 107.301367 68.21625 
L 107.450653 68.603965 
L 107.599939 66.125781 
L 107.898512 87.937641 
L 108.197084 90.656257 
L 108.495656 75.201529 
L 108.644942 75.454567 
L 108.943515 70.285119 
L 109.092801 68.162767 
L 109.242087 86.8797 
L 109.391373 81.777495 
L 109.540659 90.20921 
L 109.689945 83.580669 
L 109.839231 86.959372 
L 109.988517 79.099331 
L 110.137804 77.585497 
L 110.436376 65.213574 
L 110.585662 70.376883 
L 111.03352 93.205979 
L 111.630665 73.554929 
L 111.779951 73.498169 
L 111.929237 70.213813 
L 112.377095 78.39654 
L 112.526382 88.094902 
L 112.675668 90.12157 
L 113.272812 70.577395 
L 113.422098 73.724461 
L 113.571384 71.908719 
L 113.869957 83.925773 
L 114.168529 90.433311 
L 114.317815 87.833198 
L 114.765673 70.093047 
L 114.91496 70.888442 
L 115.064246 78.55235 
L 115.213532 79.494807 
L 115.362818 89.387118 
L 115.512104 90.481678 
L 115.66139 89.510865 
L 115.810676 91.829227 
L 116.109249 74.094097 
L 116.258535 71.77321 
L 116.407821 72.657416 
L 116.557107 75.882146 
L 116.855679 86.452046 
L 117.004965 90.728552 
L 117.154251 88.742912 
L 117.303538 89.532905 
L 117.60211 74.569357 
L 117.751396 72.172752 
L 118.049968 73.416279 
L 118.199254 85.853348 
L 118.34854 84.604556 
L 118.497827 88.675241 
L 118.647113 88.593884 
L 119.094971 76.29559 
L 119.244257 70.176138 
L 119.393543 70.872849 
L 119.542829 74.96446 
L 119.692116 85.839014 
L 119.841402 84.820415 
L 120.139974 86.765682 
L 120.28926 85.917726 
L 120.438546 86.207474 
L 120.587832 72.969636 
L 120.737118 73.111584 
L 120.886405 80.676537 
L 121.035691 74.891453 
L 121.334263 91.067652 
L 121.483549 92.369163 
L 121.632835 86.403471 
L 121.782121 88.290835 
L 122.22998 68.091633 
L 122.827124 89.640739 
L 122.97641 89.498066 
L 123.125696 89.638812 
L 123.274983 87.246424 
L 123.424269 79.102055 
L 123.573555 79.315961 
L 123.872127 71.332054 
L 124.170699 79.09995 
L 124.469272 92.289593 
L 124.618558 90.220524 
L 124.767844 91.230486 
L 124.91713 87.88206 
L 125.066416 75.528458 
L 125.364988 73.142901 
L 125.514274 82.853771 
L 125.663561 84.105274 
L 126.111419 98.94998 
L 126.559277 76.639016 
L 126.708563 76.442754 
L 126.85785 74.643827 
L 127.007136 75.599572 
L 127.156422 92.137921 
L 127.305708 89.281816 
L 127.454994 90.565298 
L 127.60428 90.175961 
L 127.902852 80.102302 
L 128.350711 72.60254 
L 128.649283 84.051005 
L 128.798569 86.520738 
L 128.947855 86.596327 
L 129.097141 93.317667 
L 129.395714 83.546338 
L 129.545 74.584732 
L 129.694286 75.624969 
L 129.843572 70.949034 
L 130.142144 85.013816 
L 130.29143 90.508582 
L 130.440717 90.798278 
L 130.590003 90.037404 
L 130.739289 94.806047 
L 131.187147 78.154491 
L 131.336433 80.939958 
L 131.485719 76.273162 
L 131.933578 95.407357 
L 132.082864 90.745026 
L 132.23215 91.489042 
L 132.381436 81.962363 
L 132.530722 82.983231 
L 132.829295 76.334533 
L 132.978581 82.648789 
L 133.127867 83.833566 
L 133.426439 97.889374 
L 133.725011 93.060866 
L 133.874297 83.835484 
L 134.023584 83.495367 
L 134.322156 74.743404 
L 134.471442 75.06103 
L 134.620728 81.446787 
L 134.9193 96.285137 
L 135.068586 92.397081 
L 135.217873 94.5463 
L 135.367159 92.097379 
L 135.665731 79.404863 
L 136.412162 102.05253 
L 136.561448 100.349797 
L 137.158592 81.611745 
L 137.606451 95.413787 
L 137.755737 94.026702 
L 138.054309 103.132706 
L 138.352881 92.415381 
L 138.502167 83.847089 
L 138.651454 87.426413 
L 138.80074 85.285094 
L 138.950026 86.101979 
L 139.099312 81.821634 
L 139.397884 97.680466 
L 139.54717 94.378583 
L 139.696456 86.028253 
L 139.845743 87.014961 
L 140.144315 71.878924 
L 140.293601 73.144263 
L 140.442887 74.881909 
L 140.592173 82.918893 
L 140.741459 79.536157 
L 141.040032 84.842003 
L 141.189318 79.949436 
L 141.338604 81.90908 
L 141.48789 66.927553 
L 141.786462 61.929337 
L 141.935748 63.382129 
L 142.234321 79.605677 
L 142.383607 75.516978 
L 142.532893 78.146144 
L 142.980751 60.660917 
L 143.130037 63.030478 
L 143.279323 51.530822 
L 143.577896 60.183275 
L 143.727182 62.815727 
L 144.025754 78.369307 
L 144.622899 56.921317 
L 144.772185 64.240091 
L 144.921471 61.039247 
L 145.070757 73.218029 
L 145.220043 73.93542 
L 145.518615 81.417394 
L 145.966474 71.874467 
L 146.11576 73.179568 
L 146.414332 67.95866 
L 147.011477 95.00544 
L 147.160763 86.143742 
L 147.310049 86.577697 
L 147.608621 80.648461 
L 147.757907 80.392522 
L 148.355052 102.529216 
L 148.504338 94.796139 
L 148.653624 99.431706 
L 149.101482 84.153974 
L 149.250768 90.215164 
L 149.400055 90.958893 
L 149.549341 93.02283 
L 149.847913 104.5418 
L 149.997199 100.092829 
L 150.146485 103.812159 
L 150.594344 82.69954 
L 150.74363 93.449571 
L 150.892916 92.628007 
L 151.191488 98.938517 
L 151.340774 102.293596 
L 151.49006 99.633724 
L 151.639346 105.474592 
L 151.788633 92.563097 
L 152.087205 87.92315 
L 152.236491 83.949374 
L 152.535063 100.608308 
L 152.684349 100.478617 
L 152.833635 107.227678 
L 152.982922 104.417459 
L 153.43078 82.883498 
L 153.580066 85.083771 
L 153.729352 89.207114 
L 153.878638 90.027174 
L 154.177211 102.180767 
L 154.326497 100.269293 
L 154.475783 103.643853 
L 154.625069 104.47985 
L 154.774355 90.63124 
L 155.072927 82.949263 
L 155.222213 83.744603 
L 155.3715 85.435672 
L 155.520786 92.724412 
L 155.670072 94.369626 
L 155.819358 100.288221 
L 155.968644 100.417292 
L 156.11793 97.049784 
L 156.267216 97.560115 
L 156.565789 85.110808 
L 156.715075 83.675846 
L 156.864361 91.990259 
L 157.013647 87.999806 
L 157.312219 105.793047 
L 157.461505 107.40304 
L 157.760078 93.640857 
L 158.05865 84.410888 
L 158.207936 86.765765 
L 158.357222 86.389357 
L 158.655794 99.144697 
L 158.80508 99.321719 
L 158.954367 94.345174 
L 159.103653 102.331507 
L 159.551511 82.66826 
L 159.700797 88.8032 
L 159.850083 90.09466 
L 159.999369 94.108813 
L 160.297942 105.863863 
L 160.447228 104.389215 
L 160.596514 106.214562 
L 161.044372 85.110141 
L 161.193658 86.206196 
L 161.342945 94.595117 
L 161.641517 97.380561 
L 161.940089 103.571063 
L 162.089375 102.823035 
L 162.238661 92.675573 
L 162.68652 88.578188 
L 162.835806 84.866673 
L 163.134378 96.669981 
L 163.283664 105.216667 
L 163.43295 100.790919 
L 163.582237 102.346294 
L 163.731523 95.584871 
L 163.880809 81.889934 
L 164.030095 84.010995 
L 164.477953 94.269088 
L 164.627239 96.927161 
L 164.925812 109.653496 
L 165.522956 82.692384 
L 165.821528 87.701602 
L 165.970815 99.17899 
L 166.269387 97.925518 
L 166.418673 102.137012 
L 166.567959 100.474692 
L 166.717245 95.425098 
L 166.866531 84.913895 
L 167.015817 90.169823 
L 167.165104 87.637532 
L 167.31439 89.216321 
L 167.463676 93.765289 
L 167.612962 102.932213 
L 167.762248 103.964359 
L 167.911534 105.848555 
L 168.657965 84.91726 
L 168.956537 97.263095 
L 169.105823 99.850239 
L 169.255109 108.696139 
L 169.404395 104.786824 
L 169.553682 105.402817 
L 169.852254 84.040578 
L 170.00154 81.654946 
L 170.150826 88.757994 
L 170.300112 89.11167 
L 170.598684 102.00594 
L 170.747971 100.826594 
L 170.897257 109.90071 
L 171.046543 99.1142 
L 171.195829 97.228526 
L 171.345115 87.268028 
L 171.494401 87.815071 
L 171.643687 90.562538 
L 171.792973 90.945354 
L 171.94226 94.939671 
L 172.091546 102.587133 
L 172.539404 109.535441 
L 172.837976 89.870895 
L 172.987262 88.304033 
L 173.285835 88.916264 
L 173.584407 105.288488 
L 173.733693 107.031044 
L 173.882979 102.724185 
L 174.032265 107.540066 
L 174.181551 94.042834 
L 174.330838 94.445841 
L 174.480124 92.595824 
L 174.62941 85.189514 
L 175.077268 104.543065 
L 175.37584 103.063442 
L 175.525127 104.861647 
L 175.823699 90.525449 
L 175.972985 91.502343 
L 176.122271 88.38522 
L 176.719416 106.913751 
L 176.868702 107.064173 
L 177.017988 105.634141 
L 177.167274 99.823609 
L 177.31656 89.601006 
L 177.465846 89.129355 
L 177.615132 87.046177 
L 177.764418 89.420046 
L 177.913705 96.788249 
L 178.062991 96.922447 
L 178.212277 110.05344 
L 178.361563 104.936054 
L 178.510849 105.179216 
L 178.809421 88.072818 
L 178.958707 96.284156 
L 179.25728 91.433065 
L 179.705138 107.990671 
L 179.854424 106.363627 
L 180.152996 99.361617 
L 180.302283 90.504931 
L 180.451569 97.55559 
L 180.600855 88.466219 
L 180.750141 97.093034 
L 180.899427 96.245656 
L 181.197999 110.871816 
L 181.347285 106.921461 
L 181.496572 107.662349 
L 182.093716 89.193579 
L 182.243002 90.90353 
L 182.392288 100.007252 
L 182.541574 101.690006 
L 182.690861 108.304374 
L 182.840147 108.683397 
L 183.288005 95.402851 
L 183.437291 91.783181 
L 183.586577 91.549511 
L 183.735863 94.148942 
L 183.88515 102.679057 
L 184.034436 102.031741 
L 184.183722 109.900958 
L 184.333008 107.208333 
L 184.482294 107.955115 
L 184.780866 93.365071 
L 184.930152 92.612244 
L 185.079439 84.942866 
L 185.228725 93.509123 
L 185.378011 94.507623 
L 185.676583 110.991231 
L 185.825869 110.134159 
L 186.273728 94.703067 
L 186.423014 92.44665 
L 186.5723 97.269926 
L 186.721586 95.644813 
L 186.870872 107.354255 
L 187.020158 104.619168 
L 187.169444 111.443882 
L 187.31873 111.434762 
L 187.766589 99.618863 
L 188.065161 95.173383 
L 188.363733 103.651074 
L 188.513019 101.016148 
L 188.662306 112.723793 
L 188.811592 107.363282 
L 188.960878 110.423137 
L 189.25945 96.345611 
L 189.558022 90.250243 
L 189.707308 89.869263 
L 190.005881 105.864337 
L 190.155167 112.685828 
L 190.304453 107.800774 
L 190.453739 107.096938 
L 190.901598 86.750879 
L 191.050884 98.50913 
L 191.20017 96.554366 
L 191.349456 98.265439 
L 191.648028 112.325068 
L 191.797314 110.686461 
L 191.9466 110.878384 
L 192.245173 88.068998 
L 192.394459 88.832208 
L 192.693031 98.572707 
L 192.842317 102.51859 
L 192.991603 103.499788 
L 193.140889 112.613648 
L 193.290176 112.218763 
L 193.588748 98.611671 
L 193.88732 96.153528 
L 194.185892 98.209294 
L 194.335178 108.45819 
L 194.484465 104.485526 
L 194.633751 112.191988 
L 194.783037 108.70649 
L 195.081609 97.817237 
L 195.230895 99.756128 
L 195.380181 90.065042 
L 195.529467 89.172005 
L 195.82804 104.602549 
L 195.977326 107.363413 
L 196.126612 115.42106 
L 196.275898 105.753573 
L 196.425184 114.647099 
L 196.723756 97.138819 
L 197.022329 92.456382 
L 197.171615 95.479097 
L 197.320901 102.426574 
L 197.470187 103.588245 
L 197.619473 117.269239 
L 197.768759 110.540917 
L 197.918045 109.467401 
L 198.216618 95.740008 
L 198.365904 95.984125 
L 198.664476 93.978816 
L 198.963048 109.455339 
L 199.112334 104.234365 
L 199.261621 103.398672 
L 199.410907 111.960164 
L 199.709479 88.660523 
L 200.008051 92.557872 
L 200.605196 112.528339 
L 200.754482 108.457564 
L 200.903768 108.734115 
L 201.351626 93.530594 
L 201.650199 97.314877 
L 201.799485 98.882036 
L 202.098057 109.356019 
L 202.247343 109.845744 
L 202.396629 107.465137 
L 202.844488 91.196505 
L 202.993774 97.041264 
L 203.14306 92.775891 
L 203.441632 110.259621 
L 203.590918 112.834348 
L 203.740204 113.485644 
L 204.188063 93.824508 
L 204.486635 101.435255 
L 204.635921 100.023733 
L 204.785207 109.571772 
L 204.934493 108.898241 
L 205.083779 108.912378 
L 205.233066 110.35854 
L 205.382352 113.437038 
L 205.531638 106.391124 
L 205.680924 93.16043 
L 205.979496 95.807728 
L 206.128782 96.042109 
L 206.278068 97.261641 
L 206.576641 113.750646 
L 206.725927 113.304704 
L 207.323071 97.68747 
L 207.472357 101.050923 
L 207.621644 101.798499 
L 207.77093 106.889134 
L 207.920216 105.380876 
L 208.069502 118.922647 
L 208.368074 113.614796 
L 208.666646 99.04811 
L 208.965219 101.485914 
L 209.263791 110.252434 
L 209.413077 110.81054 
L 209.711649 118.394181 
L 210.308794 97.52299 
L 210.45808 95.764859 
L 210.756652 105.799453 
L 210.905938 101.606643 
L 211.055224 116.014448 
L 211.801655 86.429199 
L 211.950941 85.060255 
L 212.100227 87.429049 
L 212.249513 97.26443 
L 212.3988 95.980827 
L 212.548086 100.321453 
L 212.697372 98.135942 
L 213.14523 75.961908 
L 213.294516 75.947244 
L 213.443802 70.465849 
L 213.593089 72.085498 
L 214.040947 88.106244 
L 214.190233 87.630353 
L 214.339519 80.684063 
L 214.488805 81.843973 
L 214.638091 71.245194 
L 214.936664 69.630285 
L 215.235236 80.398346 
L 215.533808 84.376416 
L 215.683094 84.640383 
L 215.83238 85.359727 
L 216.280239 72.281188 
L 216.728097 79.981518 
L 217.026669 101.323113 
L 217.325242 100.299103 
L 217.474528 95.299106 
L 217.623814 83.22696 
L 217.7731 84.490172 
L 217.922386 91.175478 
L 218.071672 88.811558 
L 218.220959 93.413332 
L 218.519531 110.345033 
L 218.668817 110.242419 
L 219.265961 91.130684 
L 219.415248 91.871144 
L 219.564534 95.243777 
L 219.863106 116.151853 
L 220.012392 115.473998 
L 220.310964 113.535196 
L 220.46025 104.267109 
L 220.758823 101.583749 
L 220.908109 94.174022 
L 221.355967 109.879541 
L 221.803826 120.170455 
L 222.102398 102.686158 
L 222.251684 100.800077 
L 222.40097 96.850214 
L 222.550256 96.828037 
L 222.848828 114.494783 
L 222.998115 107.625183 
L 223.147401 115.202081 
L 223.296687 114.090975 
L 223.595259 97.603293 
L 223.744545 97.612935 
L 223.893831 92.693371 
L 224.192404 106.455711 
L 224.490976 109.521455 
L 224.640262 113.795657 
L 224.938834 103.075021 
L 225.08812 88.352573 
L 225.237406 96.037203 
L 225.386693 89.338636 
L 225.685265 102.665733 
L 225.983837 108.043677 
L 226.431695 103.835824 
L 226.730268 91.501979 
L 226.879554 91.237519 
L 227.02884 91.964975 
L 227.327412 103.772622 
L 227.476698 105.644179 
L 227.775271 111.715398 
L 228.223129 87.80027 
L 228.372415 95.466757 
L 228.521701 92.232066 
L 228.670987 99.652202 
L 228.820273 101.475913 
L 229.118846 110.506206 
L 229.268132 107.455365 
L 229.566704 95.427336 
L 229.865276 92.705275 
L 230.014562 90.850657 
L 230.163849 106.673081 
L 230.313135 105.877881 
L 230.462421 112.871892 
L 230.910279 101.39347 
L 231.059565 93.352195 
L 231.208851 97.440448 
L 231.358138 88.920261 
L 231.507424 97.630245 
L 231.65671 99.150966 
L 231.805996 105.921178 
L 231.955282 117.965214 
L 232.253854 105.739718 
L 232.40314 96.112182 
L 232.552427 94.680228 
L 232.701713 91.412722 
L 232.850999 96.656543 
L 233.000285 91.011147 
L 233.149571 95.208428 
L 233.448143 110.296957 
L 233.597429 114.685615 
L 233.896002 92.277285 
L 234.045288 93.108507 
L 234.194574 88.023548 
L 234.34386 90.275484 
L 234.493146 98.405827 
L 234.642432 96.468712 
L 234.791718 109.953934 
L 234.941005 110.043101 
L 235.090291 108.476872 
L 235.538149 93.918821 
L 235.687435 94.174833 
L 235.836721 95.814752 
L 235.986007 94.872445 
L 236.433866 113.130401 
L 236.583152 110.660392 
L 236.732438 111.590383 
L 237.180296 90.954436 
L 237.329583 90.217642 
L 237.478869 88.491335 
L 237.628155 104.916121 
L 237.777441 107.71598 
L 237.926727 106.011175 
L 238.076013 109.545007 
L 238.225299 106.526662 
L 238.374585 94.67876 
L 238.523872 95.702637 
L 238.673158 94.914131 
L 238.822444 95.394162 
L 238.97173 93.497973 
L 239.121016 98.970747 
L 239.270302 109.633111 
L 239.419588 111.727982 
L 239.718161 103.40812 
L 239.867447 101.823854 
L 240.166019 89.195121 
L 240.315305 96.589918 
L 240.464591 95.264886 
L 240.613877 98.348289 
L 240.91245 115.08523 
L 241.360308 94.532481 
L 241.509594 100.986583 
L 241.65888 82.475367 
L 241.808166 94.23604 
L 241.957452 90.977291 
L 242.554597 111.682891 
L 242.703883 102.677598 
L 242.853169 101.473149 
L 243.002455 101.736362 
L 243.151741 81.498221 
L 243.301028 88.152501 
L 243.450314 87.962966 
L 243.5996 101.939942 
L 243.748886 99.81384 
L 243.898172 102.73687 
L 244.047458 102.817142 
L 244.196744 104.413069 
L 244.34603 102.701391 
L 244.495317 94.035032 
L 244.644603 97.048047 
L 244.943175 93.091384 
L 245.241747 104.642969 
L 245.391033 107.775729 
L 245.54032 101.314284 
L 245.838892 98.73315 
L 245.988178 89.344987 
L 246.137464 92.240689 
L 246.436036 90.187898 
L 246.585322 102.341229 
L 246.734609 104.677374 
L 246.883895 111.267681 
L 247.033181 106.700705 
L 247.182467 98.552116 
L 247.331753 100.631058 
L 247.481039 92.111045 
L 247.630325 92.27783 
L 247.779611 93.038862 
L 247.928898 96.616444 
L 248.078184 93.505176 
L 248.22747 96.013531 
L 248.526042 108.988326 
L 248.9739 89.953247 
L 249.123187 88.187387 
L 249.272473 88.187873 
L 249.421759 90.459823 
L 249.869617 111.840046 
L 250.018903 107.771826 
L 250.168189 107.486822 
L 250.466762 95.142895 
L 250.616048 88.429631 
L 250.765334 87.283938 
L 251.063906 99.94666 
L 251.213192 105.723711 
L 251.810337 98.301056 
L 251.959623 87.141309 
L 252.108909 93.15466 
L 252.258195 83.61903 
L 252.556767 105.777034 
L 252.706054 94.024436 
L 253.004626 108.896526 
L 253.452484 91.061019 
L 253.60177 92.680727 
L 253.751056 90.115258 
L 253.900343 89.793522 
L 254.348201 105.048617 
L 254.497487 97.856552 
L 254.646773 104.138771 
L 254.796059 95.622784 
L 254.945345 97.037715 
L 255.243918 83.392044 
L 255.393204 93.851611 
L 255.54249 94.571524 
L 255.841062 108.200899 
L 256.139634 103.11026 
L 256.587493 85.166351 
L 257.184637 101.523749 
L 257.333923 101.266538 
L 257.48321 96.097639 
L 257.632496 98.429875 
L 257.781782 95.75179 
L 257.931068 90.74007 
L 258.080354 89.517485 
L 258.22964 89.633997 
L 258.976071 105.314109 
L 259.274643 99.069952 
L 259.423929 84.600896 
L 259.573215 84.805114 
L 259.722501 80.722752 
L 260.17036 101.16541 
L 260.319646 101.419159 
L 260.468932 95.109637 
L 260.618218 104.111903 
L 260.91679 84.011104 
L 261.066077 84.653353 
L 261.215363 83.526121 
L 261.364649 85.201571 
L 261.513935 96.708573 
L 261.663221 98.640904 
L 261.812507 106.05223 
L 261.961793 105.388982 
L 262.111079 101.818051 
L 262.558938 84.090975 
L 262.708224 90.080249 
L 262.85751 82.41477 
L 263.305368 103.974463 
L 263.454655 103.063146 
L 263.753227 92.615783 
L 263.902513 93.921209 
L 264.201085 75.649587 
L 264.350371 94.331552 
L 264.499657 90.509287 
L 264.79823 102.73845 
L 264.947516 97.8984 
L 265.096802 102.774291 
L 265.395374 83.318164 
L 265.693946 85.976039 
L 265.843233 87.545887 
L 265.992519 94.716138 
L 266.141805 93.626047 
L 266.291091 104.866809 
L 266.440377 99.057343 
L 266.589663 102.555171 
L 266.738949 90.883352 
L 266.888235 87.941304 
L 267.037522 92.585471 
L 267.186808 84.190307 
L 267.48538 94.262899 
L 267.634666 93.196112 
L 267.783952 105.095388 
L 267.933238 104.864796 
L 268.082524 93.376052 
L 268.231811 92.21848 
L 268.381097 82.149487 
L 268.530383 82.710486 
L 268.679669 86.571843 
L 268.828955 87.221181 
L 268.978241 88.379304 
L 269.276813 101.011778 
L 269.4261 100.810268 
L 269.724672 94.006565 
L 269.873958 80.422572 
L 270.321816 88.088294 
L 270.471102 89.545678 
L 270.918961 102.669665 
L 271.068247 97.039865 
L 271.217533 97.090901 
L 271.516105 80.242619 
L 271.665391 84.338988 
L 271.814678 84.864791 
L 271.963964 87.490069 
L 272.262536 100.025507 
L 272.411822 93.152024 
L 272.561108 94.501973 
L 272.710394 92.368735 
L 273.008967 81.073865 
L 273.158253 85.13095 
L 273.307539 85.423784 
L 273.456825 91.563895 
L 273.606111 102.772477 
L 273.755397 100.269231 
L 273.904683 100.601293 
L 274.203256 96.228419 
L 274.501828 82.258577 
L 274.651114 81.795193 
L 274.8004 89.146247 
L 274.949686 88.829121 
L 275.098972 100.23668 
L 275.248259 100.385714 
L 275.397545 95.463371 
L 275.546831 98.636655 
L 275.696117 92.694417 
L 275.845403 82.218249 
L 275.994689 83.670931 
L 276.143975 83.470131 
L 276.442548 88.047396 
L 276.591834 104.102463 
L 276.74112 103.11188 
L 276.890406 103.826411 
L 277.039692 100.882569 
L 277.48755 82.734172 
L 277.636837 86.758371 
L 277.786123 87.005307 
L 277.935409 91.687766 
L 278.084695 100.925172 
L 278.233981 101.660928 
L 278.383267 96.96543 
L 278.532553 98.034173 
L 278.681839 95.878211 
L 278.831126 88.759886 
L 278.980412 88.281962 
L 279.129698 84.544601 
L 279.278984 86.042671 
L 279.577556 100.344775 
L 279.726842 99.390312 
L 279.876128 104.501441 
L 280.323987 90.876709 
L 280.473273 86.273238 
L 280.622559 77.429802 
L 280.921131 93.853855 
L 281.219704 100.345133 
L 281.518276 94.521143 
L 281.667562 82.448008 
L 281.816848 82.012055 
L 281.966134 73.877121 
L 282.264706 77.879568 
L 282.413993 88.665494 
L 282.563279 88.794224 
L 282.712565 90.78226 
L 282.861851 90.125022 
L 283.011137 91.569098 
L 283.160423 75.344244 
L 283.608282 66.344212 
L 283.906854 70.484236 
L 284.05614 79.960847 
L 284.205426 81.053151 
L 284.951857 58.332302 
L 285.250429 53.953315 
L 285.399715 65.888456 
L 285.549001 62.742882 
L 285.847573 71.83695 
L 285.99686 64.543213 
L 286.146146 66.290256 
L 286.594004 55.106602 
L 286.74329 58.699062 
L 287.191149 80.693621 
L 287.340435 73.287461 
L 287.489721 76.939011 
L 287.788293 65.047472 
L 287.937579 65.163236 
L 288.086865 66.984927 
L 288.534724 78.481267 
L 288.833296 89.156259 
L 289.131868 82.433001 
L 289.281154 73.785161 
L 289.43044 79.318214 
L 289.579727 69.978297 
L 289.878299 86.90391 
L 290.326157 94.360921 
L 290.923302 76.141143 
L 291.072588 80.745712 
L 291.221874 79.539493 
L 291.669732 101.687856 
L 291.819018 99.772264 
L 291.968305 93.101217 
L 292.117591 94.270268 
L 292.266877 82.624078 
L 292.416163 80.137652 
L 292.565449 80.231776 
L 292.714735 91.240813 
L 292.864021 89.828055 
L 293.013307 92.653028 
L 293.162594 100.211527 
L 293.31188 97.276976 
L 293.461166 101.460122 
L 293.610452 86.177834 
L 293.759738 84.70539 
L 293.909024 76.254807 
L 294.05831 84.532377 
L 294.207596 79.605546 
L 294.356883 87.665421 
L 294.506169 89.509217 
L 294.655455 98.051441 
L 294.804741 96.830127 
L 294.954027 84.229065 
L 295.103313 88.275523 
L 295.401885 77.351553 
L 295.551172 79.501114 
L 295.700458 75.674734 
L 295.849744 79.213883 
L 296.148316 98.507773 
L 296.446888 85.947281 
L 296.745461 74.737882 
L 296.894747 77.665031 
L 297.044033 75.356147 
L 297.342605 87.847075 
L 297.491891 85.601352 
L 297.641177 94.069414 
L 297.790463 84.689043 
L 297.93975 88.227486 
L 298.089036 85.00657 
L 298.387608 68.436905 
L 298.536894 72.520951 
L 298.68618 81.17021 
L 298.835466 81.510805 
L 298.984752 83.692338 
L 299.134039 92.868238 
L 299.283325 93.698904 
L 299.581897 81.972388 
L 299.731183 80.434471 
L 299.880469 74.76656 
L 300.029755 75.901943 
L 300.179041 75.876856 
L 300.477614 83.89474 
L 300.776186 95.692739 
L 301.074758 79.098675 
L 301.373331 69.840902 
L 301.671903 79.329914 
L 301.821189 78.757952 
L 302.119761 97.145793 
L 302.269047 87.060371 
L 302.418333 89.188276 
L 302.716906 80.411301 
L 302.866192 76.796662 
L 303.015478 76.217615 
L 303.164764 77.001988 
L 303.31405 80.056236 
L 303.463336 93.822441 
L 303.612622 87.502259 
L 303.761909 93.55247 
L 303.911195 89.80195 
L 304.209767 75.776561 
L 304.359053 76.998429 
L 304.508339 66.295486 
L 304.657625 78.116019 
L 304.806911 79.981627 
L 304.956198 85.488983 
L 305.105484 84.964456 
L 305.25477 90.80351 
L 305.404056 82.804466 
L 305.553342 82.871121 
L 305.702628 71.546561 
L 305.851914 74.103304 
L 306.0012 72.794675 
L 306.150487 68.971267 
L 306.449059 85.318277 
L 306.598345 81.891848 
L 306.747631 87.774695 
L 306.896917 88.101473 
L 307.046203 77.764851 
L 307.195489 78.356471 
L 307.344776 67.690915 
L 307.494062 67.401382 
L 307.792634 81.835804 
L 308.240492 91.548244 
L 308.389778 83.29198 
L 308.539065 86.0706 
L 308.837637 72.076177 
L 308.986923 71.620232 
L 309.136209 73.086211 
L 309.285495 83.285059 
L 309.434781 82.919197 
L 309.584067 88.637923 
L 309.733354 90.075856 
L 309.88264 88.951317 
L 310.181212 72.612963 
L 310.330498 73.403681 
L 310.479784 70.11996 
L 310.62907 70.271367 
L 311.226215 91.013892 
L 311.524787 77.788646 
L 311.674073 69.775439 
L 311.823359 69.900977 
L 311.972645 66.124612 
L 312.719076 86.433882 
L 312.868362 83.074626 
L 313.017648 75.219929 
L 313.166934 74.509176 
L 313.316221 64.043084 
L 313.465507 69.807081 
L 313.614793 69.664302 
L 313.913365 84.272021 
L 314.062651 80.387195 
L 314.211937 87.726534 
L 314.361223 87.396367 
L 314.809082 62.307266 
L 314.958368 68.407834 
L 315.107654 69.41219 
L 315.25694 80.878409 
L 315.406226 81.973032 
L 315.555512 84.267094 
L 315.704799 80.664444 
L 315.854085 85.15778 
L 316.152657 71.121615 
L 316.301943 71.916054 
L 316.451229 68.716966 
L 316.600515 72.785882 
L 316.749801 84.648823 
L 316.899088 80.796283 
L 317.19766 87.32733 
L 317.346946 86.783859 
L 317.496232 72.457147 
L 317.645518 70.840368 
L 317.794804 65.095363 
L 317.94409 63.815632 
L 318.093377 73.203554 
L 318.242663 74.366593 
L 318.541235 85.789578 
L 318.690521 85.823724 
L 318.839807 82.179898 
L 319.138379 70.901436 
L 319.287666 68.398473 
L 319.436952 68.747483 
L 319.586238 70.101715 
L 319.88481 83.493638 
L 320.183382 86.957238 
L 320.481955 78.280678 
L 320.631241 64.59812 
L 320.780527 63.348568 
L 320.929813 66.082452 
L 321.079099 70.972409 
L 321.228385 69.264979 
L 321.526957 85.113938 
L 321.676244 83.848216 
L 321.82553 80.463247 
L 321.974816 71.542263 
L 322.124102 70.60744 
L 322.273388 60.554844 
L 322.422674 69.916004 
L 322.57196 68.252008 
L 322.721246 78.965285 
L 322.870533 75.44806 
L 323.019819 85.521563 
L 323.169105 84.62757 
L 323.467677 71.673385 
L 323.616963 73.696 
L 323.766249 67.907775 
L 323.915535 71.178547 
L 324.064822 69.653832 
L 324.51268 86.287297 
L 324.661966 85.31189 
L 324.811252 83.074233 
L 325.109824 65.067811 
L 325.259111 72.55811 
L 325.408397 66.804219 
L 325.706969 73.562836 
L 325.856255 83.484961 
L 326.005541 84.252884 
L 326.154827 87.034873 
L 326.4534 74.635723 
L 326.751972 64.972817 
L 326.901258 66.883909 
L 327.050544 74.311752 
L 327.19983 72.907663 
L 327.498402 83.949928 
L 327.796975 76.219927 
L 327.946261 78.067966 
L 328.244833 60.94145 
L 328.394119 61.314808 
L 328.692692 78.189377 
L 329.14055 88.111157 
L 329.289836 79.649564 
L 329.439122 78.348612 
L 329.588408 72.694461 
L 329.737694 62.621741 
L 330.036267 69.013865 
L 330.334839 76.972812 
L 330.484125 83.908277 
L 330.782697 82.048874 
L 330.931983 68.506423 
L 331.08127 66.532572 
L 331.230556 68.689817 
L 331.379842 65.170628 
L 331.529128 66.2451 
L 331.678414 72.358046 
L 331.8277 73.478686 
L 332.126272 84.226897 
L 332.723417 64.452116 
L 332.872703 56.379062 
L 333.171275 80.186596 
L 333.469848 81.923368 
L 333.619134 86.209358 
L 333.917706 74.605784 
L 334.066992 66.945548 
L 334.216278 65.177874 
L 334.365564 67.433145 
L 334.51485 65.460903 
L 334.813423 80.272663 
L 334.962709 86.361259 
L 335.111995 84.464364 
L 335.261281 76.567186 
L 335.410567 78.291211 
L 335.709139 62.136184 
L 336.007712 66.932233 
L 336.156998 76.58703 
L 336.306284 74.315922 
L 336.754142 83.904626 
L 337.202001 58.753828 
L 337.351287 63.194895 
L 337.500573 63.514345 
L 337.799145 78.803396 
L 337.948431 81.519298 
L 338.097717 80.166265 
L 338.247004 82.95607 
L 338.545576 63.115838 
L 338.694862 67.543124 
L 338.844148 68.171975 
L 338.993434 66.112435 
L 339.292006 85.453561 
L 339.441293 78.749945 
L 339.590579 80.786495 
L 339.739865 79.418128 
L 339.889151 65.829127 
L 340.038437 66.627931 
L 340.187723 66.079805 
L 340.337009 63.365227 
L 340.635582 74.786845 
L 340.784868 76.551333 
L 340.934154 82.835291 
L 341.08344 82.489752 
L 341.382012 69.57549 
L 341.680584 61.835808 
L 341.979157 62.212874 
L 342.128443 72.250523 
L 342.277729 71.72553 
L 342.427015 83.894345 
L 342.576301 81.681544 
L 342.725587 81.865841 
L 343.173446 58.749622 
L 343.322732 65.39944 
L 343.472018 66.617062 
L 343.919876 84.492154 
L 344.069162 80.54207 
L 344.218449 82.844701 
L 344.517021 66.500978 
L 344.666307 65.298654 
L 344.815593 66.412647 
L 344.964879 70.933289 
L 345.114165 66.082839 
L 345.263451 81.626413 
L 345.412738 75.842438 
L 345.562024 78.881697 
L 345.71131 78.607799 
L 345.860596 75.736592 
L 346.159168 57.980548 
L 346.308454 66.431071 
L 346.607027 69.050974 
L 346.756313 76.792731 
L 346.905599 74.978747 
L 347.054885 83.182006 
L 347.204171 76.449119 
L 347.353457 76.821881 
L 347.502743 61.004516 
L 347.801316 71.534914 
L 347.950602 68.479884 
L 348.099888 74.105197 
L 348.249174 73.219515 
L 348.39846 83.861421 
L 348.547746 83.037011 
L 349.144891 63.088767 
L 349.294177 64.945494 
L 349.891321 87.723872 
L 350.040607 81.167416 
L 350.189894 86.155469 
L 350.488466 68.162108 
L 350.637752 68.171503 
L 351.08561 75.03864 
L 351.384183 84.074063 
L 351.533469 81.624855 
L 351.682755 82.886196 
L 351.832041 74.64352 
L 351.981327 74.518553 
L 352.130613 63.361261 
L 352.279899 64.753635 
L 352.429185 69.288987 
L 352.578472 69.059142 
L 352.727758 75.216705 
L 352.877044 88.821513 
L 353.02633 78.964222 
L 353.175616 79.421861 
L 353.474188 54.18521 
L 353.623474 59.250677 
L 353.772761 56.262263 
L 354.220619 65.053051 
L 354.369905 65.13681 
L 354.519191 71.067684 
L 354.668477 58.423693 
L 354.817763 59.681434 
L 355.116336 41.961069 
L 355.265622 42.224018 
L 355.564194 53.30274 
L 355.862766 58.142173 
L 356.012053 53.563668 
L 356.161339 57.20245 
L 356.459911 39.291301 
L 356.609197 35.724821 
L 356.758483 35.740644 
L 356.907769 35.608683 
L 357.206342 48.549532 
L 357.355628 53.018011 
L 357.504914 49.463649 
L 357.6542 58.199114 
L 357.803486 43.310559 
L 357.952772 43.419141 
L 358.102058 40.887139 
L 358.251344 43.893612 
L 358.400631 50.984863 
L 358.549917 52.692421 
L 358.699203 60.112694 
L 358.848489 60.836472 
L 358.997775 68.187021 
L 359.147061 56.881099 
L 359.296347 56.343899 
L 359.59492 53.150931 
L 359.744206 54.623516 
L 360.490636 79.884794 
L 361.087781 55.91276 
L 361.386353 67.68623 
L 361.684925 83.277166 
L 361.834211 88.03171 
L 361.983498 80.91954 
L 362.132784 82.708287 
L 362.431356 72.121956 
L 362.729928 62.843116 
L 363.0285 77.308593 
L 363.177787 84.223225 
L 363.327073 82.266328 
L 363.476359 88.219038 
L 363.774931 80.441705 
L 364.073503 65.5562 
L 364.222789 58.768971 
L 364.372076 73.153951 
L 364.521362 72.218104 
L 364.819934 87.002524 
L 365.118506 80.476068 
L 365.267792 76.292045 
L 365.417078 62.405893 
L 365.566365 70.944381 
L 365.715651 63.52666 
L 365.864937 66.821618 
L 366.163509 77.828897 
L 366.312795 78.70203 
L 366.462081 80.826138 
L 366.760654 70.092327 
L 366.90994 73.150578 
L 367.059226 58.629929 
L 367.208512 56.003122 
L 367.65637 81.513726 
L 367.805656 80.720722 
L 367.954943 82.84802 
L 368.104229 78.748277 
L 368.253515 68.401327 
L 368.402801 68.541693 
L 368.552087 63.04615 
L 368.701373 68.625116 
L 368.850659 66.426318 
L 369.298518 82.300815 
L 369.447804 74.078185 
L 369.59709 80.492653 
L 370.194234 55.908894 
L 370.642093 78.043182 
L 370.791379 76.685242 
L 370.940665 82.920804 
L 371.239237 66.857784 
L 371.388523 65.707113 
L 371.53781 60.561845 
L 371.687096 60.24531 
L 371.836382 61.0597 
L 371.985668 74.687083 
L 372.134954 73.064413 
L 372.28424 81.321125 
L 372.433526 82.569803 
L 372.732099 72.105546 
L 373.030671 67.745558 
L 373.179957 65.692627 
L 373.329243 61.497535 
L 373.478529 65.305731 
L 373.627815 74.859106 
L 373.777101 76.522916 
L 373.926388 81.903159 
L 374.523532 65.961914 
L 374.672818 62.54925 
L 375.269963 81.229316 
L 375.419249 77.194846 
L 375.568535 77.105637 
L 376.016393 63.529736 
L 376.464252 69.415534 
L 376.613538 75.159428 
L 376.762824 76.498736 
L 376.91211 85.905364 
L 377.359968 65.929963 
L 377.509255 64.573665 
L 377.658541 64.782907 
L 377.807827 64.05413 
L 378.106399 81.040302 
L 378.255685 76.514723 
L 378.554257 79.225907 
L 378.703544 69.410831 
L 378.85283 68.962612 
L 379.002116 59.775737 
L 379.449974 73.298754 
L 379.59926 79.959082 
L 379.897833 80.370909 
L 380.196405 73.972495 
L 380.345691 78.373543 
L 380.494977 63.221216 
L 380.644263 69.51052 
L 380.793549 66.123516 
L 380.942835 68.752695 
L 381.241408 82.328341 
L 381.390694 81.688303 
L 381.987838 66.630119 
L 382.137124 59.994132 
L 382.584983 78.73882 
L 382.883555 81.871017 
L 383.331414 66.497917 
L 383.4807 66.060114 
L 383.629986 66.417248 
L 383.779272 62.091547 
L 384.077844 79.092023 
L 384.22713 76.919589 
L 384.376416 78.131629 
L 384.674989 74.123071 
L 384.824275 60.066933 
L 384.973561 62.9297 
L 385.122847 62.468219 
L 385.570705 82.619198 
L 385.719992 80.49342 
L 385.869278 80.565809 
L 386.018564 79.242436 
L 386.16785 76.800322 
L 386.466422 65.447446 
L 386.615708 69.029074 
L 386.764994 64.971112 
L 386.914281 69.60056 
L 387.063567 69.746061 
L 387.362139 83.923279 
L 387.511425 81.48855 
L 387.660711 84.243434 
L 387.959283 65.23098 
L 388.10857 61.64928 
L 388.705714 80.211158 
L 388.855 77.758809 
L 389.004286 82.365862 
L 389.452145 59.843383 
L 389.601431 60.885599 
L 389.750717 65.969846 
L 389.900003 77.550731 
L 390.049289 78.659794 
L 390.198575 83.3126 
L 390.347861 82.346826 
L 390.497148 79.883577 
L 390.945006 62.53686 
L 391.094292 64.498786 
L 391.54215 80.883779 
L 391.691437 80.299066 
L 391.840723 83.749899 
L 392.139295 75.447783 
L 392.288581 73.518466 
L 392.437867 62.672075 
L 392.587153 68.893752 
L 392.736439 66.788072 
L 392.885726 73.038837 
L 393.035012 85.017447 
L 393.184298 86.145869 
L 393.333584 84.819738 
L 393.48287 82.477708 
L 393.632156 78.244298 
L 393.781442 66.813385 
L 393.930728 66.592952 
L 394.080015 64.653998 
L 394.527873 82.480025 
L 394.677159 83.56778 
L 394.975731 80.067089 
L 395.274304 72.892037 
L 395.42359 65.63156 
L 395.572876 65.10551 
L 396.020734 78.728796 
L 396.17002 75.989588 
L 396.319306 84.798743 
L 396.617879 73.979676 
L 396.767165 77.888753 
L 396.916451 66.103085 
L 397.065737 68.75442 
L 397.215023 65.53672 
L 397.513595 83.227926 
L 397.662882 84.839945 
L 397.961454 82.645595 
L 398.11074 75.677855 
L 398.260026 74.411352 
L 398.558598 64.428572 
L 398.707884 64.041545 
L 399.006457 80.269334 
L 399.305029 81.325086 
L 399.603601 72.453049 
L 399.752887 70.869352 
L 399.902173 66.379635 
L 400.05146 66.665723 
L 400.200746 69.654043 
L 400.499318 83.952843 
L 400.648604 91.493533 
L 400.79789 87.016726 
L 400.947176 87.982787 
L 401.245749 70.849012 
L 401.395035 72.842159 
L 401.544321 65.428894 
L 401.693607 68.242651 
L 401.842893 76.113964 
L 401.992179 76.600837 
L 402.141465 79.335124 
L 402.290751 89.0736 
L 402.589324 75.215191 
L 402.887896 64.992186 
L 403.48504 84.617535 
L 403.634327 85.926882 
L 403.783613 90.231225 
L 403.932899 85.650367 
L 404.231471 71.848471 
L 404.380757 67.117171 
L 404.530043 74.318365 
L 404.679329 74.213089 
L 405.127188 87.85583 
L 405.276474 83.106057 
L 405.42576 82.931325 
L 405.873618 66.488886 
L 406.022905 70.247119 
L 406.172191 68.602686 
L 406.620049 86.277138 
L 406.769335 84.809279 
L 407.36648 66.362377 
L 407.515766 68.793741 
L 407.665052 68.599739 
L 407.963624 89.97823 
L 408.11291 82.601454 
L 408.262196 86.519949 
L 408.411483 87.252994 
L 408.859341 62.920017 
L 409.008627 68.013025 
L 409.157913 77.907896 
L 409.307199 76.687555 
L 409.456485 85.111686 
L 409.605772 81.195046 
L 409.755058 90.597092 
L 409.904344 91.064316 
L 410.202916 74.356282 
L 410.352202 71.27532 
L 410.501488 76.75409 
L 410.650775 72.042057 
L 410.800061 73.559519 
L 410.949347 90.29779 
L 411.098633 83.971471 
L 411.247919 89.498827 
L 411.397205 77.005706 
L 411.546491 77.675013 
L 411.695777 74.281035 
L 411.845064 66.908559 
L 411.99435 68.77818 
L 412.143636 75.68689 
L 412.292922 77.028263 
L 412.591494 93.735209 
L 412.74078 81.738398 
L 412.890066 85.948341 
L 413.039353 81.406698 
L 413.188639 73.060249 
L 413.337925 75.748858 
L 413.487211 75.144284 
L 413.636497 75.837524 
L 413.935069 84.934697 
L 414.084355 85.008894 
L 414.233642 90.088027 
L 414.532214 78.049752 
L 414.6815 78.007887 
L 414.830786 70.580844 
L 414.980072 74.323006 
L 415.129358 71.39007 
L 415.577217 93.279363 
L 415.726503 88.750635 
L 415.875789 88.256456 
L 416.174361 75.54139 
L 416.323647 74.458586 
L 416.472933 69.057655 
L 416.62222 73.121881 
L 416.771506 82.756872 
L 416.920792 82.720683 
L 417.070078 90.762964 
L 417.219364 90.903344 
L 417.965795 68.277893 
L 418.115081 71.875002 
L 418.264367 82.993102 
L 418.413653 82.687286 
L 418.562939 91.433105 
L 418.712225 90.30184 
L 419.010798 82.279719 
L 419.160084 70.420549 
L 419.458656 78.969047 
L 419.607942 74.681156 
L 420.0558 103.188154 
L 420.205087 90.878559 
L 420.354373 88.387378 
L 420.802231 72.269332 
L 420.951517 77.980452 
L 421.100803 78.438449 
L 421.399376 93.687012 
L 421.548662 92.725106 
L 421.847234 97.107615 
L 422.145806 82.702948 
L 422.295092 81.312897 
L 422.444378 77.258893 
L 422.892237 95.630369 
L 423.041523 89.556303 
L 423.190809 99.509738 
L 423.638667 76.989695 
L 423.787954 78.868838 
L 423.93724 75.296553 
L 424.086526 76.392647 
L 424.235812 78.871003 
L 424.534384 91.939186 
L 424.832956 79.383903 
L 425.430101 63.826986 
L 425.579387 63.688501 
L 425.728673 74.485699 
L 425.877959 74.409703 
L 426.176532 79.323359 
L 426.62439 59.839467 
L 426.773676 53.033672 
L 426.922962 57.90499 
L 427.072248 56.176733 
L 427.520107 65.04646 
L 427.669393 71.867419 
L 427.818679 69.251693 
L 428.266537 43.654238 
L 428.714396 57.591044 
L 429.012968 74.81618 
L 429.162254 62.688813 
L 429.31154 67.41707 
L 429.759399 51.66276 
L 430.207257 72.93408 
L 430.356543 80.746255 
L 430.505829 76.476194 
L 430.804401 78.584507 
L 431.102974 71.381047 
L 431.25226 71.956777 
L 431.401546 66.126634 
L 431.849404 87.241235 
L 432.147977 92.110579 
L 432.297263 88.890938 
L 432.446549 90.335456 
L 432.745121 72.447655 
L 433.043693 84.259575 
L 433.192979 86.934957 
L 433.640838 104.686163 
L 433.790124 94.916539 
L 433.93941 95.022048 
L 434.237982 81.066878 
L 434.387268 83.783455 
L 434.536555 83.655914 
L 434.685841 81.670016 
L 434.984413 97.92854 
L 435.133699 102.927168 
L 435.88013 83.939484 
L 436.029416 85.680702 
L 436.327988 99.945835 
L 436.477274 102.928015 
L 437.074419 80.554095 
L 437.223705 81.440522 
L 437.372991 78.125383 
L 437.522277 87.998692 
L 437.671563 81.557933 
L 437.970135 97.992528 
L 438.119422 100.906224 
L 438.268708 92.637945 
L 438.417994 94.272524 
L 438.716566 77.195299 
L 438.865852 79.291246 
L 439.015138 84.398074 
L 439.164425 85.24692 
L 439.313711 96.917443 
L 439.462997 96.088695 
L 439.612283 98.563914 
L 439.761569 96.339574 
L 439.910855 86.822818 
L 440.060141 86.031938 
L 440.209427 73.594001 
L 440.358714 81.461779 
L 440.508 76.719075 
L 440.657286 91.877894 
L 440.806572 91.960695 
L 440.955858 101.030495 
L 441.105144 101.517395 
L 441.403716 86.49668 
L 441.553003 87.289433 
L 441.702289 76.246048 
L 441.851575 82.53834 
L 442.000861 82.996797 
L 442.299433 92.437556 
L 442.448719 103.365945 
L 442.598005 92.645446 
L 442.747292 92.684786 
L 443.493722 82.172714 
L 443.792294 98.361505 
L 443.941581 99.844185 
L 444.090867 93.301882 
L 444.240153 95.983217 
L 444.389439 91.428062 
L 444.538725 79.973735 
L 444.688011 79.483897 
L 444.837297 80.848787 
L 445.434442 100.183549 
L 445.583728 99.409849 
L 446.180872 80.729665 
L 446.330159 84.648386 
L 446.479445 91.652358 
L 446.628731 91.954297 
L 446.927303 101.209256 
L 447.076589 100.065688 
L 447.225875 99.828548 
L 447.673734 81.540779 
L 447.82302 84.021309 
L 447.972306 83.770568 
L 448.270878 99.45893 
L 448.420164 99.503219 
L 448.56945 93.74598 
L 448.718737 98.514704 
L 449.017309 81.332479 
L 449.166595 77.660917 
L 449.315881 85.023528 
L 449.465167 79.465307 
L 449.763739 97.519849 
L 449.913026 100.832955 
L 450.360884 92.062848 
L 450.51017 82.102876 
L 450.808742 86.191194 
L 450.958028 83.790021 
L 451.405887 103.957174 
L 451.555173 97.215882 
L 451.704459 95.812178 
L 451.853745 86.418901 
L 452.003031 90.552066 
L 452.152317 82.636521 
L 452.301604 84.245843 
L 452.600176 94.46054 
L 452.749462 94.104794 
L 452.898748 102.521431 
L 453.048034 103.367162 
L 453.495893 83.970658 
L 453.645179 86.276477 
L 453.794465 84.016204 
L 453.943751 83.970327 
L 454.242323 100.479889 
L 454.540895 96.624611 
L 454.690182 101.886414 
L 454.839468 101.084481 
L 455.13804 87.435832 
L 455.287326 84.723939 
L 455.436612 85.733822 
L 455.735184 100.780267 
L 455.884471 101.474184 
L 456.033757 105.034484 
L 456.332329 95.371497 
L 456.481615 79.542065 
L 456.630901 82.121123 
L 457.377332 104.707881 
L 457.526618 104.776661 
L 457.675904 96.368332 
L 457.82519 95.139678 
L 458.123762 89.365152 
L 458.422335 88.776878 
L 458.571621 94.693408 
L 458.720907 95.887704 
L 458.870193 104.829295 
L 459.019479 99.551444 
L 459.168765 98.783484 
L 459.318051 94.24842 
L 459.467338 95.20375 
L 459.76591 83.283691 
L 459.915196 84.597667 
L 460.213768 97.493744 
L 460.363054 104.565039 
L 460.51234 104.493342 
L 460.661627 102.115704 
L 460.960199 88.22369 
L 461.109485 86.745253 
L 461.408057 87.677741 
L 461.706629 102.946499 
L 461.855916 98.297038 
L 462.005202 102.937802 
L 462.154488 100.417331 
L 462.45306 86.49919 
L 462.602346 86.706308 
L 462.751632 84.781355 
L 463.199491 107.867045 
L 463.348777 100.276985 
L 463.498063 110.148649 
L 463.647349 98.719074 
L 463.796635 98.122184 
L 464.244494 86.043726 
L 464.543066 90.124132 
L 464.692352 100.022245 
L 464.841638 101.755261 
L 464.990924 106.459643 
L 465.289496 95.427366 
L 465.737355 87.482936 
L 465.886641 90.064484 
L 466.334499 107.267941 
L 466.483786 102.616529 
L 466.633072 107.019821 
L 466.931644 86.049676 
L 467.08093 96.17604 
L 467.230216 89.866522 
L 467.379502 88.892957 
L 467.528788 101.704969 
L 467.678075 93.756305 
L 467.827361 113.482553 
L 468.125933 97.15258 
L 468.573791 86.903249 
L 468.723077 90.89526 
L 468.872364 88.893787 
L 469.02165 100.416123 
L 469.170936 103.191024 
L 469.320222 102.564939 
L 469.469508 109.254941 
L 470.066653 84.735141 
L 470.215939 87.368168 
L 470.365225 96.596018 
L 470.514511 97.407477 
L 470.813083 108.148775 
L 471.111655 105.046402 
L 471.260942 94.401976 
L 471.410228 94.295713 
L 471.559514 85.676752 
L 471.7088 88.945025 
L 471.858086 89.485283 
L 472.156658 104.65415 
L 472.305944 110.069294 
L 472.903089 88.363197 
L 473.052375 88.338988 
L 473.350947 91.310496 
L 473.500233 98.061498 
L 473.64952 98.799482 
L 473.948092 109.458306 
L 474.097378 105.68284 
L 474.246664 93.836236 
L 474.545236 90.200991 
L 474.694522 85.764972 
L 475.291667 113.308211 
L 475.440953 104.434144 
L 475.590239 107.662743 
L 476.038098 87.51187 
L 476.33667 93.159582 
L 476.485956 103.93791 
L 476.635242 104.355854 
L 476.784528 112.105476 
L 477.381673 86.99262 
L 477.530959 88.461111 
L 477.680245 88.277938 
L 478.426676 111.899404 
L 478.725248 97.496603 
L 479.02382 88.964293 
L 479.322392 97.530731 
L 479.471678 93.51631 
L 479.770251 112.537541 
L 479.919537 107.002688 
L 480.218109 105.225947 
L 480.516681 95.782147 
L 480.665967 89.902874 
L 481.412398 115.016431 
L 481.71097 102.311933 
L 482.158829 91.429864 
L 482.308115 95.249382 
L 482.606687 106.794885 
L 482.755973 102.284991 
L 482.905259 111.989893 
L 483.054545 110.670932 
L 483.054545 110.670932 
" clip-path="url(#pc04fbeef6f)" style="fill: none; stroke: #5c554a; stroke-width: 0.7; stroke-linecap: square"/>
   </g>
   <g id="patch_3">
    <path d="M 12.96 124.51 
L 505.44 124.51 
" style="fill: none; stroke: #d8cfbc; stroke-width: 0.8; stroke-linejoin: miter; stroke-linecap: square"/>
   </g>
   <g id="text_1">
    <text style="font-style: italic; font-size: 12px; font-family: 'Georgia', 'Times New Roman', 'DejaVu Serif', serif; text-anchor: start; fill: #221e17" x="12.96" y="23.04" transform="rotate(-0 12.96 23.04)">raw recording</text>
   </g>
  </g>
  <g id="axes_2">
   <g id="patch_4">
    <path d="M 12.96 252.52 
L 505.44 252.52 
L 505.44 157.05 
L 12.96 157.05 
z
" style="fill: #f6f1e7"/>
   </g>
   <g id="matplotlib.axis_3">
    <g id="xtick_8">
     <g id="line2d_9">
      <g>
       <use xlink:href="#m3ca1370bcc" x="35.345455" y="252.52" style="fill: #5c554a; stroke: #5c554a; stroke-width: 0.8"/>
      </g>
     </g>
     <g id="text_2">
      <text style="font-size: 12px; font-family: 'Georgia', 'Times New Roman', 'DejaVu Serif', serif; text-anchor: middle; fill: #5c554a" x="35.345455" y="268.59125" transform="rotate(-0 35.345455 268.59125)">0</text>
     </g>
    </g>
    <g id="xtick_9">
     <g id="line2d_10">
      <g>
       <use xlink:href="#m3ca1370bcc" x="109.988517" y="252.52" style="fill: #5c554a; stroke: #5c554a; stroke-width: 0.8"/>
      </g>
     </g>
     <g id="text_3">
      <text style="font-size: 12px; font-family: 'Georgia', 'Times New Roman', 'DejaVu Serif', serif; text-anchor: middle; fill: #5c554a" x="109.988517" y="268.59125" transform="rotate(-0 109.988517 268.59125)">1</text>
     </g>
    </g>
    <g id="xtick_10">
     <g id="line2d_11">
      <g>
       <use xlink:href="#m3ca1370bcc" x="184.63158" y="252.52" style="fill: #5c554a; stroke: #5c554a; stroke-width: 0.8"/>
      </g>
     </g>
     <g id="text_4">
      <text style="font-size: 12px; font-family: 'Georgia', 'Times New Roman', 'DejaVu Serif', serif; text-anchor: middle; fill: #5c554a" x="184.63158" y="268.59125" transform="rotate(-0 184.63158 268.59125)">2</text>
     </g>
    </g>
    <g id="xtick_11">
     <g id="line2d_12">
      <g>
       <use xlink:href="#m3ca1370bcc" x="259.274643" y="252.52" style="fill: #5c554a; stroke: #5c554a; stroke-width: 0.8"/>
      </g>
     </g>
     <g id="text_5">
      <text style="font-size: 12px; font-family: 'Georgia', 'Times New Roman', 'DejaVu Serif', serif; text-anchor: middle; fill: #5c554a" x="259.274643" y="268.59125" transform="rotate(-0 259.274643 268.59125)">3</text>
     </g>
    </g>
    <g id="xtick_12">
     <g id="line2d_13">
      <g>
       <use xlink:href="#m3ca1370bcc" x="333.917706" y="252.52" style="fill: #5c554a; stroke: #5c554a; stroke-width: 0.8"/>
      </g>
     </g>
     <g id="text_6">
      <text style="font-size: 12px; font-family: 'Georgia', 'Times New Roman', 'DejaVu Serif', serif; text-anchor: middle; fill: #5c554a" x="333.917706" y="268.59125" transform="rotate(-0 333.917706 268.59125)">4</text>
     </g>
    </g>
    <g id="xtick_13">
     <g id="line2d_14">
      <g>
       <use xlink:href="#m3ca1370bcc" x="408.560769" y="252.52" style="fill: #5c554a; stroke: #5c554a; stroke-width: 0.8"/>
      </g>
     </g>
     <g id="text_7">
      <text style="font-size: 12px; font-family: 'Georgia', 'Times New Roman', 'DejaVu Serif', serif; text-anchor: middle; fill: #5c554a" x="408.560769" y="268.59125" transform="rotate(-0 408.560769 268.59125)">5</text>
     </g>
    </g>
    <g id="xtick_14">
     <g id="line2d_15">
      <g>
       <use xlink:href="#m3ca1370bcc" x="483.203832" y="252.52" style="fill: #5c554a; stroke: #5c554a; stroke-width: 0.8"/>
      </g>
     </g>
     <g id="text_8">
      <text style="font-size: 12px; font-family: 'Georgia', 'Times New Roman', 'DejaVu Serif', serif; text-anchor: middle; fill: #5c554a" x="483.203832" y="268.59125" transform="rotate(-0 483.203832 268.59125)">6</text>
     </g>
    </g>
    <g id="text_9">
     <text style="font-size: 12px; font-family: 'Georgia', 'Times New Roman', 'DejaVu Serif', serif; text-anchor: middle; fill: #5c554a" x="259.2" y="284.265" transform="rotate(-0 259.2 284.265)">time (s)</text>
    </g>
   </g>
   <g id="matplotlib.axis_4"/>
   <g id="line2d_16">
    <path d="M 35.345455 234.474712 
L 35.644027 233.216661 
L 35.793313 233.477384 
L 36.390457 236.501202 
L 36.539744 235.718292 
L 37.136888 230.51024 
L 37.286174 231.465075 
L 38.032605 242.125796 
L 38.181891 241.323081 
L 38.779035 234.740677 
L 38.928322 235.110187 
L 39.37618 238.737653 
L 39.525466 238.789967 
L 39.674752 237.792047 
L 40.271897 231.592899 
L 40.421183 231.712609 
L 40.869041 234.095693 
L 41.018327 233.965623 
L 41.3169 231.572027 
L 41.615472 229.054705 
L 41.764758 228.838341 
L 41.914044 229.429761 
L 42.361902 232.003911 
L 42.511189 231.592251 
L 43.257619 225.636276 
L 43.406905 226.471973 
L 43.854764 230.714226 
L 44.00405 231.082772 
L 44.153336 230.620595 
L 44.601194 228.029619 
L 44.75048 228.303041 
L 45.049053 231.075929 
L 45.347625 233.813657 
L 45.496911 233.93333 
L 45.646197 233.012771 
L 46.243342 227.075298 
L 46.392628 227.210101 
L 46.840486 229.771514 
L 46.989772 229.851175 
L 47.288345 228.283016 
L 47.586917 227.010121 
L 47.736203 227.368444 
L 48.184061 230.293453 
L 48.333347 230.230062 
L 48.63192 227.214663 
L 48.930492 223.38107 
L 49.079778 222.873853 
L 49.229064 223.866453 
L 49.975495 235.218349 
L 50.124781 234.217106 
L 50.721925 225.561451 
L 50.871212 225.372199 
L 51.169784 227.304856 
L 51.468356 228.558932 
L 51.617642 228.090183 
L 52.065501 225.458286 
L 52.214787 225.60675 
L 52.513359 227.817554 
L 52.811931 229.865666 
L 52.961217 229.911762 
L 53.558362 227.820104 
L 53.707648 228.683412 
L 54.155506 233.174692 
L 54.304793 233.405129 
L 54.454079 232.34009 
L 55.200509 221.801164 
L 55.349795 222.453481 
L 55.94694 228.542786 
L 56.096226 228.382369 
L 56.693371 225.243525 
L 56.842657 225.73541 
L 57.290515 228.214413 
L 57.439801 228.08306 
L 58.036946 224.849017 
L 58.186232 225.316785 
L 58.783376 229.901094 
L 58.932662 229.443081 
L 59.529807 223.96144 
L 59.679093 224.23455 
L 60.276238 229.840831 
L 60.425524 229.751315 
L 60.724096 227.076719 
L 61.022668 224.594468 
L 61.171954 224.637143 
L 61.470527 227.117251 
L 61.769099 229.385356 
L 61.918385 229.215592 
L 62.216957 226.327712 
L 62.515529 223.451248 
L 62.664816 223.328428 
L 62.814102 224.253848 
L 63.26196 228.948428 
L 63.411246 229.321552 
L 63.560532 228.710405 
L 64.008391 225.13484 
L 64.157677 225.170857 
L 64.456249 227.87076 
L 64.754821 230.833258 
L 64.904107 231.094533 
L 65.053394 230.38041 
L 65.501252 227.282264 
L 65.650538 227.957767 
L 65.94911 232.678105 
L 66.247683 238.033089 
L 66.396969 239.318897 
L 66.546255 239.364724 
L 67.143399 235.604323 
L 67.292685 235.880547 
L 67.591258 237.239139 
L 67.740544 237.222223 
L 67.88983 236.164446 
L 68.188402 231.109423 
L 68.636261 223.412877 
L 69.233405 219.319749 
L 69.531977 212.329987 
L 70.129122 194.738231 
L 70.427694 191.68196 
L 70.726266 189.502722 
L 71.024839 183.964907 
L 71.472697 173.65037 
L 71.621983 172.349838 
L 71.771269 172.625937 
L 72.368414 178.085714 
L 72.5177 177.328704 
L 73.114844 170.457963 
L 73.26413 170.586529 
L 73.562703 173.238577 
L 74.010561 176.812069 
L 74.309133 178.745158 
L 74.607706 184.087704 
L 75.354136 203.377236 
L 75.652708 204.762456 
L 75.801995 205.106426 
L 75.951281 206.229837 
L 76.249853 212.281706 
L 76.846997 227.550236 
L 76.996284 228.517807 
L 77.14557 228.330491 
L 77.444142 227.148732 
L 77.593428 227.408836 
L 77.892 230.391676 
L 78.190573 233.678496 
L 78.339859 234.063202 
L 78.489145 233.365874 
L 78.937003 229.109745 
L 79.086289 228.880342 
L 79.235575 229.633131 
L 79.683434 233.211324 
L 79.83272 232.982263 
L 80.131292 229.801448 
L 80.429865 226.45494 
L 80.579151 226.040198 
L 80.728437 226.621766 
L 81.176295 229.981581 
L 81.325581 229.905908 
L 81.624154 227.416638 
L 81.922726 225.058725 
L 82.072012 225.111025 
L 82.669156 228.847349 
L 82.818443 228.018095 
L 83.564873 219.088042 
L 83.714159 219.749766 
L 84.162018 223.947296 
L 84.311304 224.343361 
L 84.46059 223.944943 
L 84.908448 221.589782 
L 85.057734 221.657494 
L 85.505593 223.265321 
L 85.654879 222.859065 
L 85.953451 219.652409 
L 86.252023 216.065647 
L 86.40131 215.586316 
L 86.550596 216.390578 
L 87.297026 225.38349 
L 87.446312 224.775791 
L 88.043457 220.197015 
L 88.192743 220.534783 
L 88.491315 222.051728 
L 88.640601 222.231232 
L 88.789888 221.633068 
L 89.237746 218.095543 
L 89.387032 218.202556 
L 89.536318 219.53956 
L 90.133463 228.208294 
L 90.282749 227.986425 
L 90.581321 223.896743 
L 90.879893 219.412069 
L 91.029179 218.738532 
L 91.178466 219.425221 
L 91.77561 225.754322 
L 91.924896 225.284717 
L 92.522041 218.984439 
L 92.671327 218.956682 
L 92.969899 221.173941 
L 93.268471 223.256878 
L 93.417757 223.368926 
L 93.865616 221.983127 
L 94.014902 222.199289 
L 94.612046 225.557518 
L 94.761333 225.068322 
L 95.358477 219.513055 
L 95.507763 219.702082 
L 95.806335 222.555904 
L 96.104908 224.812489 
L 96.254194 224.370508 
L 96.552766 220.565192 
L 96.851338 216.81375 
L 97.000624 216.421048 
L 97.149911 217.20764 
L 97.747055 222.902077 
L 97.896341 222.694406 
L 98.3442 220.196048 
L 98.493486 220.358061 
L 98.792058 222.980129 
L 99.09063 225.874443 
L 99.239916 226.260402 
L 99.389202 225.786517 
L 99.837061 223.15951 
L 99.986347 223.419032 
L 100.583491 227.68559 
L 100.732778 227.135698 
L 101.03135 223.3326 
L 101.329922 219.603393 
L 101.479208 219.163181 
L 101.628494 219.846879 
L 102.076353 223.941955 
L 102.225639 224.089414 
L 102.524211 221.846684 
L 102.822783 219.568086 
L 102.972069 219.730665 
L 103.270642 222.826917 
L 103.569214 226.360624 
L 103.7185 226.974924 
L 103.867786 226.62145 
L 104.315645 223.78959 
L 104.464931 223.926483 
L 104.763503 226.343903 
L 105.062075 228.404877 
L 105.211361 228.123366 
L 105.509934 225.168407 
L 105.808506 222.545415 
L 105.957792 222.544893 
L 106.554936 226.099619 
L 106.704223 225.285995 
L 107.301367 218.674853 
L 107.450653 219.171148 
L 107.749225 223.380371 
L 108.047798 227.4347 
L 108.197084 227.855954 
L 108.34637 227.073864 
L 108.794228 222.822794 
L 108.943515 222.7448 
L 109.242087 225.170343 
L 109.540659 227.50639 
L 109.689945 227.326889 
L 109.988517 224.333961 
L 110.28709 221.554895 
L 110.436376 221.673086 
L 110.734948 224.964105 
L 111.03352 228.284097 
L 111.182806 228.327056 
L 111.332093 227.03418 
L 111.929237 218.986337 
L 112.078523 219.113171 
L 112.377095 221.911657 
L 112.675668 224.301896 
L 112.824954 224.327254 
L 113.272812 222.150213 
L 113.422098 222.211108 
L 113.720671 224.376853 
L 114.019243 226.619569 
L 114.168529 226.667479 
L 114.467101 224.642569 
L 114.765673 223.013917 
L 114.91496 223.523418 
L 115.512104 229.692201 
L 115.66139 229.535561 
L 115.959962 226.324447 
L 116.258535 223.126528 
L 116.407821 222.933614 
L 116.706393 225.323295 
L 117.004965 227.736571 
L 117.154251 227.594419 
L 117.452824 224.60373 
L 117.751396 221.530329 
L 117.900682 221.28324 
L 118.049968 222.033358 
L 118.497827 225.680936 
L 118.647113 225.579745 
L 118.945685 222.764893 
L 119.244257 219.607449 
L 119.393543 219.157593 
L 119.542829 219.661237 
L 120.139974 224.248214 
L 120.28926 224.434014 
L 120.587832 224.322 
L 120.737118 224.714619 
L 121.334263 228.171988 
L 121.483549 227.457809 
L 121.782121 223.035534 
L 122.080694 218.311836 
L 122.22998 217.560428 
L 122.379266 218.306092 
L 122.97641 226.395428 
L 123.125696 226.244178 
L 123.424269 222.424049 
L 123.722841 218.368943 
L 123.872127 217.931579 
L 124.021413 218.829403 
L 124.618558 226.07203 
L 124.767844 226.241677 
L 125.215702 224.804676 
L 125.364988 225.337578 
L 125.962133 230.549095 
L 126.111419 230.140282 
L 126.409991 226.617702 
L 126.708563 223.158329 
L 126.85785 222.663881 
L 127.007136 223.018552 
L 127.305708 224.416705 
L 127.454994 224.358868 
L 127.60428 223.395049 
L 128.201425 217.099906 
L 128.350711 217.364646 
L 128.649283 220.40522 
L 128.947855 223.066104 
L 129.097141 223.029307 
L 129.395714 220.51449 
L 129.694286 218.496085 
L 129.843572 219.017369 
L 130.142144 223.065439 
L 130.440717 227.407269 
L 130.590003 228.218987 
L 130.739289 227.860595 
L 131.336433 222.878129 
L 131.485719 222.987139 
L 131.933578 225.287205 
L 132.082864 225.336741 
L 132.381436 223.89862 
L 132.530722 223.185398 
L 132.680008 223.110015 
L 132.829295 223.93196 
L 133.426439 230.181095 
L 133.575725 229.721393 
L 133.874297 225.306293 
L 134.17287 220.282701 
L 134.322156 219.290794 
L 134.471442 219.742859 
L 134.770014 223.890873 
L 135.217873 230.084852 
L 135.815017 234.226939 
L 136.262876 238.966957 
L 136.412162 239.375113 
L 136.561448 238.754922 
L 137.158592 233.274068 
L 137.307878 233.76022 
L 138.054309 240.808623 
L 138.203595 239.55204 
L 139.099312 227.482031 
L 139.397884 225.376568 
L 139.696456 220.526213 
L 140.293601 208.440954 
L 140.592173 206.089786 
L 140.890745 203.871538 
L 141.189318 198.820676 
L 141.637176 189.571702 
L 141.935748 187.44225 
L 142.234321 187.484415 
L 142.383607 186.743914 
L 142.682179 181.692886 
L 143.279323 168.302022 
L 143.42861 167.861902 
L 143.577896 168.84173 
L 144.17504 175.561674 
L 144.622899 177.261862 
L 144.921471 181.325019 
L 145.518615 192.28941 
L 145.667901 193.157579 
L 145.817188 193.26671 
L 145.966474 193.136213 
L 146.11576 193.381019 
L 146.265046 194.500223 
L 146.563618 199.873142 
L 147.160763 213.258491 
L 147.907193 225.594647 
L 148.355052 233.01848 
L 148.504338 233.601084 
L 148.653624 233.181496 
L 149.101482 230.842663 
L 149.250768 231.371595 
L 149.549341 234.765649 
L 149.847913 238.166213 
L 149.997199 238.699643 
L 150.146485 238.303147 
L 150.74363 234.794565 
L 150.892916 235.088694 
L 151.191488 236.306911 
L 151.340774 236.430707 
L 151.49006 235.916292 
L 152.087205 232.493367 
L 152.236491 233.103724 
L 152.684349 236.427243 
L 152.833635 236.200109 
L 153.132208 232.565648 
L 153.43078 228.111766 
L 153.580066 227.286683 
L 153.729352 227.842933 
L 154.326497 234.521933 
L 154.475783 233.865798 
L 154.774355 228.712524 
L 155.072927 222.968999 
L 155.222213 221.659315 
L 155.3715 221.733912 
L 155.968644 226.85502 
L 156.11793 226.796854 
L 156.565789 224.883065 
L 156.715075 225.330078 
L 157.013647 228.631817 
L 157.312219 231.925754 
L 157.461505 232.177589 
L 157.610791 231.249892 
L 158.207936 224.40894 
L 158.357222 224.238693 
L 158.954367 226.162653 
L 159.402225 224.668348 
L 159.551511 225.018741 
L 159.850083 228.605739 
L 160.297942 235.332839 
L 160.447228 235.586644 
L 160.596514 234.489425 
L 161.193658 226.95534 
L 161.342945 226.899242 
L 161.940089 229.418546 
L 162.238661 227.261459 
L 162.537234 224.598083 
L 162.68652 224.135072 
L 162.835806 224.396103 
L 163.134378 225.75459 
L 163.283664 225.876705 
L 163.43295 225.191654 
L 164.030095 220.299542 
L 164.179381 221.144722 
L 164.925812 230.246615 
L 165.075098 229.096772 
L 165.672242 221.107569 
L 165.821528 221.008095 
L 166.418673 223.714407 
L 166.717245 222.300527 
L 167.015817 221.28981 
L 167.165104 221.978052 
L 167.911534 229.348329 
L 168.06082 228.806778 
L 168.508679 225.817326 
L 168.657965 225.936677 
L 169.105823 228.689078 
L 169.255109 228.566295 
L 169.404395 227.261042 
L 170.00154 218.297851 
L 170.150826 218.325344 
L 170.449398 221.921271 
L 170.747971 225.833766 
L 170.897257 226.345964 
L 171.046543 225.732854 
L 171.494401 222.294632 
L 171.643687 222.59498 
L 171.94226 225.945067 
L 172.240832 229.217452 
L 172.390118 229.372426 
L 172.539404 228.361385 
L 172.987262 223.395691 
L 173.136549 223.162965 
L 173.285835 224.054688 
L 173.733693 228.907073 
L 173.882979 229.350632 
L 174.032265 228.817863 
L 174.480124 225.283532 
L 174.62941 225.052984 
L 174.778696 225.564202 
L 175.226554 227.679423 
L 175.37584 227.21721 
L 175.972985 223.424358 
L 176.122271 224.298359 
L 176.719416 230.994524 
L 176.868702 230.411564 
L 177.167274 225.586667 
L 177.465846 220.223516 
L 177.615132 219.067572 
L 177.764418 219.263267 
L 178.510849 224.741936 
L 178.958707 222.941154 
L 179.107994 223.133 
L 179.406566 225.285908 
L 179.705138 227.277109 
L 179.854424 227.262658 
L 180.451569 224.312272 
L 180.600855 225.104809 
L 181.347285 233.041265 
L 181.496572 232.004696 
L 182.093716 224.289938 
L 182.243002 224.031235 
L 182.541574 225.452705 
L 182.690861 226.138227 
L 182.840147 226.263833 
L 183.138719 224.940207 
L 183.288005 224.235932 
L 183.437291 224.128688 
L 183.586577 224.868858 
L 184.183722 230.250588 
L 184.333008 229.555047 
L 184.63158 224.945104 
L 184.930152 220.206161 
L 185.079439 219.456628 
L 185.228725 220.110312 
L 185.975155 228.397003 
L 186.124441 228.39105 
L 186.273728 228.195273 
L 186.423014 228.295006 
L 186.5723 229.002923 
L 187.169444 234.454136 
L 187.31873 234.552366 
L 187.617303 232.687624 
L 187.915875 230.830797 
L 188.065161 230.81813 
L 188.513019 232.851813 
L 188.662306 232.677274 
L 188.811592 231.491072 
L 189.558022 222.313367 
L 189.707308 223.068997 
L 190.155167 227.549423 
L 190.304453 227.873566 
L 190.453739 227.292473 
L 190.901598 224.734511 
L 191.050884 225.294387 
L 191.648028 231.070517 
L 191.797314 230.680781 
L 192.095887 227.038062 
L 192.394459 223.665648 
L 192.543745 223.512783 
L 192.693031 224.514318 
L 193.290176 230.632555 
L 193.439462 230.685027 
L 193.88732 229.563361 
L 194.036606 229.830949 
L 194.335178 230.901313 
L 194.484465 230.862776 
L 194.633751 229.966406 
L 195.380181 222.004576 
L 195.529467 223.408554 
L 196.275898 234.88239 
L 196.425184 233.787852 
L 197.022329 226.335821 
L 197.171615 226.767159 
L 197.768759 231.914966 
L 197.918045 231.365803 
L 198.664476 225.080056 
L 198.963048 225.285948 
L 199.112334 225.047588 
L 199.410907 222.919879 
L 199.709479 220.633742 
L 199.858765 220.736336 
L 200.008051 222.079975 
L 200.754482 232.970142 
L 200.903768 232.316675 
L 201.500912 226.122046 
L 201.650199 226.118278 
L 202.098057 228.303239 
L 202.247343 228.244278 
L 202.545915 226.295321 
L 202.844488 224.714885 
L 202.993774 225.176011 
L 203.292346 228.577198 
L 203.590918 232.137761 
L 203.740204 232.815136 
L 203.88949 232.662008 
L 204.188063 231.425676 
L 204.337349 231.344766 
L 204.486635 232.00942 
L 204.934493 235.772599 
L 205.083779 235.808388 
L 205.233066 234.575632 
L 205.979496 223.476229 
L 206.128782 224.420827 
L 207.024499 236.399243 
L 207.323071 236.027783 
L 207.472357 236.170004 
L 207.77093 237.86792 
L 208.069502 239.719094 
L 208.218788 239.898951 
L 208.51736 238.849779 
L 208.666646 238.33372 
L 208.815933 238.355115 
L 208.965219 239.078364 
L 209.413077 242.695845 
L 209.562363 242.719789 
L 209.711649 241.595749 
L 210.45808 231.002037 
L 210.607366 230.635911 
L 210.756652 230.586391 
L 210.905938 230.229838 
L 211.055224 229.005361 
L 211.353797 223.211608 
L 211.950941 209.825462 
L 212.548086 203.577256 
L 212.846658 194.71271 
L 213.443802 175.334575 
L 213.593089 173.850402 
L 213.742375 173.801513 
L 214.190233 176.064933 
L 214.339519 175.972839 
L 214.787378 174.293919 
L 214.936664 174.536087 
L 215.235236 176.691712 
L 215.533808 178.719587 
L 215.683094 178.890401 
L 215.981667 178.168841 
L 216.130953 178.32026 
L 216.280239 179.594667 
L 216.578811 186.422486 
L 217.175956 204.427145 
L 217.474528 207.545117 
L 217.7731 209.36283 
L 218.071672 213.925424 
L 218.519531 222.334604 
L 218.668817 223.42717 
L 218.818103 223.454189 
L 219.116675 222.572184 
L 219.265961 223.143808 
L 219.564534 228.213841 
L 220.012392 238.654022 
L 220.161678 239.927925 
L 220.310964 239.603401 
L 220.908109 234.101243 
L 221.057395 234.847205 
L 221.654539 241.856197 
L 221.803826 241.781505 
L 222.102398 239.058504 
L 222.40097 236.415615 
L 222.550256 236.096951 
L 222.998115 236.90126 
L 223.147401 236.360239 
L 223.893831 230.683283 
L 224.34169 232.631261 
L 224.490976 232.407854 
L 224.789548 228.881601 
L 225.237406 222.304561 
L 225.386693 222.102033 
L 225.685265 224.946908 
L 225.983837 228.06925 
L 226.133123 228.203289 
L 226.282409 227.160356 
L 226.730268 221.7675 
L 226.879554 221.391004 
L 227.02884 222.304311 
L 227.625984 229.897558 
L 227.775271 229.841556 
L 228.073843 226.884348 
L 228.372415 223.882675 
L 228.521701 223.540557 
L 228.670987 224.007713 
L 229.118846 226.278373 
L 229.268132 226.185925 
L 229.566704 225.221412 
L 229.71599 225.158403 
L 229.865276 225.768602 
L 230.462421 230.269262 
L 230.611707 229.807015 
L 231.208851 224.893292 
L 231.358138 225.476684 
L 231.955282 231.865648 
L 232.104568 231.465334 
L 232.40314 227.440593 
L 232.701713 223.299078 
L 232.850999 222.66373 
L 233.000285 223.125542 
L 233.448143 226.088437 
L 233.597429 225.754042 
L 234.194574 220.841166 
L 234.34386 221.393051 
L 235.090291 228.709442 
L 235.388863 227.078397 
L 235.538149 226.352594 
L 235.687435 226.52605 
L 235.836721 227.901889 
L 236.433866 237.640711 
L 236.583152 237.737893 
L 236.732438 236.242084 
L 237.329583 226.03012 
L 237.478869 225.533927 
L 237.628155 226.053707 
L 238.076013 228.419598 
L 238.225299 228.209359 
L 238.523872 226.998391 
L 238.673158 226.843656 
L 238.822444 227.357634 
L 239.419588 231.149351 
L 239.568874 230.544332 
L 240.166019 225.980637 
L 240.315305 226.719737 
L 240.91245 232.189404 
L 241.061736 231.163549 
L 241.808166 220.812598 
L 241.957452 221.983484 
L 242.554597 229.529054 
L 242.703883 228.740028 
L 243.450314 219.395043 
L 243.5996 220.319376 
L 244.34603 229.160613 
L 244.644603 230.059177 
L 244.943175 230.346443 
L 245.092461 230.182091 
L 245.241747 229.556085 
L 245.54032 226.547494 
L 245.988178 221.653969 
L 246.137464 221.757524 
L 246.436036 225.421412 
L 246.883895 231.899454 
L 247.033181 232.015306 
L 247.331753 228.987163 
L 247.630325 225.203558 
L 247.779611 224.325335 
L 247.928898 224.306087 
L 248.376756 225.86441 
L 248.526042 225.508748 
L 248.9739 222.401321 
L 249.123187 222.40453 
L 249.272473 223.617156 
L 250.018903 234.463563 
L 250.168189 233.798728 
L 250.765334 227.312369 
L 250.91462 227.071545 
L 251.213192 227.670547 
L 251.362478 227.56711 
L 251.511765 226.790209 
L 252.108909 221.940187 
L 252.258195 222.438264 
L 252.556767 225.90861 
L 252.85534 229.281246 
L 253.004626 229.681525 
L 253.153912 229.039262 
L 253.751056 223.867601 
L 253.900343 223.999368 
L 254.497487 227.009304 
L 254.646773 226.756354 
L 254.945345 225.534598 
L 255.094632 225.412258 
L 255.243918 226.039468 
L 255.841062 231.640468 
L 255.990348 231.451404 
L 256.288921 228.132363 
L 256.736779 222.99114 
L 256.886065 222.787057 
L 257.184637 223.922326 
L 257.48321 224.696545 
L 257.781782 224.437258 
L 257.931068 224.585735 
L 258.080354 225.33316 
L 258.826785 231.590751 
L 258.976071 230.210416 
L 259.722501 217.890261 
L 259.871788 218.162324 
L 260.319646 221.684694 
L 260.468932 221.804116 
L 260.767504 219.951399 
L 260.91679 219.051701 
L 261.066077 219.030974 
L 261.215363 220.251897 
L 261.961793 230.950921 
L 262.111079 229.895811 
L 262.708224 221.948567 
L 262.85751 222.061238 
L 263.454655 226.187027 
L 263.603941 225.630489 
L 264.051799 221.943092 
L 264.201085 221.807554 
L 264.350371 222.612325 
L 264.79823 226.616337 
L 264.947516 226.744813 
L 265.246088 224.515369 
L 265.54466 222.158205 
L 265.693946 222.217693 
L 265.992519 225.094173 
L 266.440377 229.594147 
L 266.589663 229.630025 
L 267.037522 227.800329 
L 267.186808 227.823645 
L 267.634666 229.44909 
L 267.783952 229.129938 
L 268.082524 225.845346 
L 268.530383 220.322684 
L 268.679669 220.393253 
L 268.978241 223.456998 
L 269.276813 226.590826 
L 269.4261 226.817185 
L 269.575386 226.017257 
L 270.023244 222.424058 
L 270.17253 222.780057 
L 270.471102 226.554151 
L 270.769675 230.800609 
L 270.918961 231.527471 
L 271.068247 230.956769 
L 271.814678 222.441567 
L 271.963964 222.319843 
L 272.262536 222.76286 
L 272.411822 222.667312 
L 272.710394 221.863673 
L 272.85968 221.862526 
L 273.008967 222.66569 
L 273.307539 226.991727 
L 273.755397 233.767033 
L 273.904683 233.916736 
L 274.203256 230.909494 
L 274.501828 227.374894 
L 274.651114 226.81321 
L 274.8004 227.212362 
L 275.248259 229.708943 
L 275.397545 229.326018 
L 275.994689 225.368308 
L 276.143975 226.5553 
L 276.890406 238.794647 
L 277.039692 238.325116 
L 277.636837 232.03627 
L 277.786123 232.145438 
L 278.383267 235.766158 
L 278.532553 235.485654 
L 278.980412 233.774189 
L 279.129698 234.338163 
L 279.876128 240.623669 
L 280.025415 239.749612 
L 280.622559 233.960492 
L 281.070417 233.040679 
L 281.219704 231.687341 
L 281.518276 225.963903 
L 281.966134 216.96566 
L 282.11542 216.107452 
L 282.264706 216.390745 
L 282.563279 217.789659 
L 282.712565 217.334616 
L 282.861851 215.416536 
L 283.309709 203.19877 
L 283.608282 196.270201 
L 283.906854 193.444641 
L 284.205426 191.179522 
L 284.503998 185.413122 
L 285.101143 171.287861 
L 285.250429 170.296529 
L 285.399715 170.490767 
L 285.99686 173.605475 
L 286.295432 173.696571 
L 286.444718 174.300735 
L 286.74329 178.115548 
L 287.340435 188.957479 
L 287.639007 190.795596 
L 287.788293 191.450159 
L 287.937579 192.64082 
L 288.236151 197.783002 
L 288.833296 211.634595 
L 289.131868 214.61816 
L 289.43044 216.65508 
L 289.878299 222.723053 
L 290.176871 226.012706 
L 290.326157 226.350281 
L 290.774016 224.711348 
L 290.923302 225.206008 
L 291.221874 229.70659 
L 291.669732 238.5245 
L 291.819018 239.493192 
L 291.968305 239.158109 
L 292.416163 235.690381 
L 292.565449 235.746865 
L 292.864021 238.345162 
L 293.162594 240.667861 
L 293.31188 240.331895 
L 293.610452 236.496098 
L 293.909024 231.955981 
L 294.05831 230.85649 
L 294.207596 230.780389 
L 294.655455 232.73614 
L 294.804741 232.386613 
L 295.103313 229.329739 
L 295.401885 225.853562 
L 295.551172 225.087413 
L 295.700458 225.135732 
L 296.148316 226.741006 
L 296.297602 226.443765 
L 296.894747 223.575952 
L 297.044033 224.20778 
L 297.491891 227.540833 
L 297.641177 227.412507 
L 297.93975 224.031357 
L 298.387608 218.350922 
L 298.536894 218.619431 
L 298.835466 222.544475 
L 299.134039 226.915911 
L 299.283325 227.751716 
L 299.432611 227.446488 
L 300.029755 223.176928 
L 300.179041 223.430353 
L 300.6269 225.208949 
L 300.776186 224.74 
L 301.373331 220.799642 
L 301.522617 221.746633 
L 302.269047 231.551923 
L 302.418333 231.13578 
L 302.866192 227.707715 
L 303.015478 227.613518 
L 303.31405 229.54969 
L 303.612622 231.036887 
L 303.761909 230.366221 
L 304.060481 226.251127 
L 304.359053 222.021122 
L 304.508339 221.253822 
L 304.657625 221.583361 
L 305.105484 224.833359 
L 305.25477 224.840207 
L 305.553342 222.315467 
L 305.851914 219.312705 
L 306.0012 218.882474 
L 306.150487 219.385025 
L 306.598345 222.864367 
L 306.747631 223.091979 
L 306.896917 222.54289 
L 307.195489 220.598734 
L 307.344776 220.317041 
L 307.494062 221.039078 
L 308.240492 229.403033 
L 308.389778 228.732483 
L 308.837637 224.577733 
L 308.986923 224.464569 
L 309.136209 225.407686 
L 309.584067 229.992231 
L 309.733354 230.057103 
L 309.88264 228.895906 
L 310.479784 221.05246 
L 310.62907 220.87017 
L 311.076929 222.932865 
L 311.226215 222.702992 
L 311.524787 219.950498 
L 311.823359 217.264066 
L 311.972645 217.230917 
L 312.271218 219.865728 
L 312.56979 222.62314 
L 312.719076 222.700381 
L 313.017648 220.205936 
L 313.316221 217.819179 
L 313.465507 218.078439 
L 313.764079 221.620456 
L 314.062651 225.453155 
L 314.211937 225.935378 
L 314.361223 225.181844 
L 314.958368 219.033024 
L 315.107654 219.238469 
L 315.704799 223.198095 
L 315.854085 223.195677 
L 316.152657 222.684419 
L 316.301943 222.990908 
L 316.600515 225.455146 
L 316.899088 228.010248 
L 317.048374 227.986578 
L 317.19766 226.72186 
L 317.794804 217.603029 
L 317.94409 217.434554 
L 318.242663 220.51003 
L 318.541235 224.040818 
L 318.690521 224.536942 
L 318.839807 224.065111 
L 319.287666 221.740336 
L 319.436952 222.370972 
L 320.034096 227.536399 
L 320.183382 226.589768 
L 320.929813 215.73463 
L 321.079099 216.373243 
L 321.676244 221.734022 
L 321.82553 221.19963 
L 322.273388 217.848315 
L 322.422674 217.943487 
L 322.721246 220.634933 
L 323.019819 223.675578 
L 323.169105 224.203747 
L 323.318391 223.967707 
L 323.616963 222.663916 
L 323.766249 222.565947 
L 323.915535 223.243362 
L 324.51268 228.320646 
L 324.661966 227.900389 
L 325.259111 222.036675 
L 325.408397 222.144766 
L 325.706969 224.935274 
L 326.005541 227.511558 
L 326.154827 227.446131 
L 326.4534 224.711021 
L 326.751972 221.854681 
L 326.901258 221.553993 
L 327.050544 222.074748 
L 327.349116 223.924357 
L 327.498402 224.203685 
L 327.647689 223.638873 
L 328.095547 219.703252 
L 328.244833 219.598819 
L 328.394119 220.815525 
L 329.14055 231.364822 
L 329.289836 230.246776 
L 329.886981 221.951104 
L 330.036267 221.810416 
L 330.484125 224.232726 
L 330.633411 224.127878 
L 330.931983 221.488598 
L 331.230556 218.499972 
L 331.379842 218.130099 
L 331.529128 218.721949 
L 331.976986 222.511257 
L 332.126272 222.80461 
L 332.275559 222.292815 
L 332.574131 220.424811 
L 332.723417 220.241156 
L 332.872703 221.112374 
L 333.619134 229.221632 
L 333.917706 226.275231 
L 334.216278 223.171701 
L 334.365564 223.10212 
L 334.664137 226.008908 
L 334.962709 229.027178 
L 335.111995 229.036524 
L 335.410567 225.814132 
L 335.709139 221.965861 
L 335.858426 221.308092 
L 336.007712 221.730279 
L 336.45557 225.007577 
L 336.604856 224.847295 
L 336.903428 221.794765 
L 337.202001 218.588631 
L 337.351287 218.393257 
L 337.500573 219.365753 
L 338.097717 225.603516 
L 338.247004 225.502317 
L 338.694862 223.669996 
L 338.844148 223.977734 
L 339.441293 226.997775 
L 339.590579 226.238949 
L 340.187723 221.419104 
L 340.337009 221.988737 
L 340.784868 225.819448 
L 340.934154 225.746644 
L 341.08344 224.384111 
L 341.680584 215.325737 
L 341.829871 215.536294 
L 342.128443 219.860357 
L 342.427015 224.777199 
L 342.576301 225.709706 
L 342.725587 225.367429 
L 343.173446 221.940335 
L 343.322732 222.206392 
L 343.621304 225.800377 
L 343.919876 229.713315 
L 344.069162 230.239796 
L 344.218449 229.553462 
L 344.815593 223.727764 
L 344.964879 223.810518 
L 345.412738 225.691488 
L 345.562024 225.275642 
L 345.860596 222.247098 
L 346.159168 219.306564 
L 346.308454 219.115177 
L 346.45774 219.978529 
L 347.054885 226.281233 
L 347.204171 226.593962 
L 347.652029 225.970538 
L 347.801316 226.415448 
L 348.39846 229.475362 
L 348.547746 228.887481 
L 348.995605 225.453586 
L 349.144891 225.563254 
L 349.294177 226.892838 
L 350.040607 236.994428 
L 350.189894 236.213634 
L 350.637752 231.690492 
L 350.787038 231.403505 
L 350.936324 232.069593 
L 351.384183 235.411802 
L 351.533469 235.228235 
L 351.832041 232.246263 
L 352.130613 228.820756 
L 352.279899 228.112167 
L 352.429185 228.153448 
L 352.578472 228.530808 
L 352.727758 228.591426 
L 352.877044 227.689454 
L 353.175616 221.886732 
L 353.772761 206.005627 
L 354.071333 202.822024 
L 354.369905 200.015223 
L 354.668477 194.235655 
L 355.116336 184.219766 
L 355.414908 181.811485 
L 355.71348 181.255305 
L 355.862766 180.079198 
L 356.161339 174.246329 
L 356.609197 163.034172 
L 356.758483 161.395421 
L 356.907769 161.389545 
L 357.206342 165.011886 
L 357.6542 171.509342 
L 358.102058 176.536554 
L 359.296347 195.297315 
L 359.59492 199.250944 
L 360.490636 219.752252 
L 360.639922 220.241873 
L 360.789209 220.190041 
L 360.938495 220.372638 
L 361.087781 221.477079 
L 361.386353 227.277787 
L 361.834211 237.078089 
L 361.983498 237.866067 
L 362.132784 237.166999 
L 362.580642 232.875989 
L 362.729928 233.16505 
L 363.0285 237.156555 
L 363.327073 241.338211 
L 363.476359 241.70342 
L 363.625645 240.585511 
L 364.222789 231.976795 
L 364.372076 231.83203 
L 364.96922 234.654913 
L 365.267792 232.054493 
L 365.566365 228.790618 
L 365.715651 228.125266 
L 365.864937 228.254394 
L 366.163509 229.339301 
L 366.312795 229.18169 
L 366.462081 228.047242 
L 367.059226 219.70853 
L 367.208512 219.660175 
L 367.507084 223.355942 
L 367.805656 228.115091 
L 367.954943 229.248093 
L 368.104229 229.247239 
L 368.701373 226.305782 
L 368.999945 227.925834 
L 369.298518 229.08375 
L 369.447804 228.363927 
L 370.194234 220.688845 
L 370.343521 221.382822 
L 370.791379 224.308234 
L 370.940665 223.683876 
L 371.53781 217.224541 
L 371.687096 217.794185 
L 371.985668 222.771915 
L 372.28424 228.467796 
L 372.433526 229.724752 
L 372.582812 229.482547 
L 372.881385 225.741625 
L 373.179957 221.993252 
L 373.329243 221.445437 
L 373.478529 221.876754 
L 374.075674 225.446853 
L 374.22496 225.370431 
L 374.523532 225.100757 
L 374.672818 225.521465 
L 375.269963 228.486841 
L 375.419249 227.800846 
L 376.016393 221.826146 
L 376.165679 221.928037 
L 376.464252 224.922676 
L 376.762824 228.282722 
L 376.91211 228.749813 
L 377.061396 228.174238 
L 377.658541 223.500404 
L 377.807827 223.798542 
L 378.255685 225.989406 
L 378.404971 225.71468 
L 379.002116 222.087997 
L 379.151402 222.892662 
L 379.897833 232.448478 
L 380.047119 232.104417 
L 380.644263 227.047312 
L 380.793549 227.102442 
L 381.241408 229.212442 
L 381.390694 229.019026 
L 381.689266 226.377406 
L 381.987838 223.409108 
L 382.137124 223.001055 
L 382.286411 223.518947 
L 382.734269 226.924226 
L 382.883555 227.058401 
L 383.032841 226.357805 
L 383.4807 222.771381 
L 383.629986 222.47872 
L 383.779272 222.839564 
L 384.077844 224.108703 
L 384.22713 224.123825 
L 384.376416 223.408915 
L 384.824275 220.02246 
L 384.973561 220.360722 
L 385.272133 224.845163 
L 385.719992 233.180421 
L 385.869278 233.58863 
L 386.018564 232.394104 
L 386.615708 223.17955 
L 386.764994 223.080024 
L 387.063567 226.134362 
L 387.362139 229.418854 
L 387.511425 229.736445 
L 387.660711 229.03537 
L 388.10857 225.273228 
L 388.257856 225.027484 
L 388.556428 226.150527 
L 388.705714 226.666106 
L 388.855 226.610544 
L 389.153572 224.725075 
L 389.452145 223.064142 
L 389.601431 223.427377 
L 389.900003 226.484223 
L 390.198575 229.222668 
L 390.347861 229.200461 
L 390.646434 226.484012 
L 390.945006 223.835139 
L 391.094292 223.873507 
L 391.392864 226.68821 
L 391.691437 229.701797 
L 391.840723 229.998537 
L 391.990009 229.367087 
L 392.437867 226.59857 
L 392.587153 227.166899 
L 393.184298 234.043254 
L 393.333584 233.966134 
L 393.632156 230.437656 
L 393.930728 226.411583 
L 394.080015 225.806421 
L 394.229301 226.398688 
L 394.826445 231.195145 
L 394.975731 230.528261 
L 395.572876 225.39762 
L 395.722162 225.670205 
L 396.319306 229.029657 
L 396.468593 228.663038 
L 396.916451 226.787851 
L 397.065737 227.330743 
L 397.662882 233.415116 
L 397.812168 233.341776 
L 398.11074 229.816997 
L 398.558598 223.338323 
L 398.707884 222.686812 
L 398.857171 222.770938 
L 399.155743 223.435311 
L 399.305029 223.291913 
L 399.603601 222.275889 
L 399.752887 222.294152 
L 399.902173 223.32516 
L 400.200746 228.876919 
L 400.648604 238.145152 
L 400.79789 238.597288 
L 400.947176 237.267551 
L 401.693607 224.745678 
L 401.842893 224.655432 
L 402.290751 226.126488 
L 402.440038 226.08625 
L 402.589324 225.892549 
L 402.73861 225.963357 
L 402.887896 226.706387 
L 403.186468 230.627161 
L 403.634327 236.586785 
L 403.783613 236.571912 
L 404.082185 233.617287 
L 404.380757 230.603073 
L 404.530043 230.343218 
L 404.679329 230.976509 
L 404.977902 233.10633 
L 405.127188 233.442904 
L 405.276474 232.795782 
L 406.022905 225.413124 
L 406.172191 226.008544 
L 406.620049 228.790705 
L 406.769335 228.412042 
L 407.36648 224.251285 
L 407.515766 225.216219 
L 408.262196 234.287181 
L 408.411483 233.183527 
L 408.859341 227.582021 
L 409.008627 227.286559 
L 409.157913 228.308353 
L 409.755058 236.002338 
L 409.904344 236.106566 
L 410.202916 233.995342 
L 410.501488 231.947986 
L 410.650775 231.686457 
L 410.949347 231.786921 
L 411.098633 231.351993 
L 411.397205 228.625402 
L 411.695777 225.548641 
L 411.845064 225.196066 
L 411.99435 226.062189 
L 412.74078 236.029501 
L 412.890066 235.855878 
L 413.487211 232.721368 
L 413.636497 233.120304 
L 413.935069 234.507705 
L 414.084355 234.609093 
L 414.233642 233.942947 
L 414.830786 229.028343 
L 414.980072 229.542249 
L 415.577217 236.128967 
L 415.726503 236.055415 
L 416.025075 232.801191 
L 416.323647 229.378693 
L 416.472933 229.158859 
L 416.62222 230.167142 
L 417.070078 235.698997 
L 417.219364 236.223003 
L 417.36865 235.546582 
L 417.965795 229.340244 
L 418.115081 229.378876 
L 418.712225 232.509021 
L 418.861511 232.415096 
L 419.010798 232.189592 
L 419.160084 232.339838 
L 419.30937 233.30179 
L 419.607942 237.856135 
L 419.906514 242.747202 
L 420.0558 243.654962 
L 420.205087 243.088074 
L 420.802231 235.764047 
L 420.951517 236.213429 
L 421.250089 240.90798 
L 421.548662 246.271013 
L 421.697948 247.564041 
L 421.847234 247.669523 
L 422.444378 244.713711 
L 422.892237 246.186559 
L 423.041523 245.823408 
L 423.340095 241.981295 
L 423.93724 231.733087 
L 424.534384 227.634403 
L 424.832956 221.241887 
L 425.280815 209.88774 
L 425.579387 206.75817 
L 425.877959 205.829779 
L 426.027245 204.624443 
L 426.325818 198.957318 
L 426.922962 185.31545 
L 427.221534 183.908672 
L 427.370821 183.84293 
L 427.520107 183.416715 
L 427.818679 180.378623 
L 428.266537 175.258823 
L 428.415823 175.527742 
L 428.714396 179.222099 
L 429.012968 183.330612 
L 429.31154 184.545735 
L 429.460826 184.552594 
L 429.610112 184.991279 
L 429.759399 186.463112 
L 430.057971 193.25601 
L 430.655115 209.088494 
L 430.953688 211.553099 
L 431.25226 213.639046 
L 431.550832 219.049372 
L 432.147977 231.499601 
L 432.297263 232.36536 
L 432.595835 232.588916 
L 432.745121 233.255992 
L 433.043693 237.712453 
L 433.491552 247.046738 
L 433.640838 248.180455 
L 433.790124 247.72048 
L 434.536555 239.595995 
L 434.685841 240.570685 
L 435.282985 246.632851 
L 435.432271 246.865675 
L 435.730844 246.654149 
L 435.88013 246.811987 
L 436.178702 247.46343 
L 436.327988 247.165811 
L 436.477274 245.88353 
L 436.775846 240.17977 
L 437.223705 231.466924 
L 437.372991 231.020596 
L 437.522277 232.067075 
L 438.119422 239.210073 
L 438.268708 238.859542 
L 438.865852 234.282921 
L 439.015138 234.712464 
L 439.462997 237.179468 
L 439.612283 236.611694 
L 440.209427 229.764585 
L 440.358714 229.846851 
L 440.657286 233.376558 
L 440.955858 237.226087 
L 441.105144 237.601987 
L 441.25443 236.673412 
L 441.851575 230.091408 
L 442.000861 230.431417 
L 442.747292 235.928822 
L 443.344436 234.677715 
L 443.792294 235.924266 
L 443.941581 235.564997 
L 444.240153 232.818331 
L 444.538725 229.9029 
L 444.688011 229.675937 
L 444.837297 230.573913 
L 445.434442 236.880869 
L 445.583728 236.470683 
L 446.180872 231.605066 
L 446.330159 232.398093 
L 446.927303 239.748046 
L 447.076589 239.577886 
L 447.375161 235.890303 
L 447.673734 231.578015 
L 447.82302 230.5708 
L 447.972306 230.462975 
L 448.270878 231.215825 
L 448.420164 230.922654 
L 448.718737 227.676645 
L 449.166595 222.349326 
L 449.315881 222.72988 
L 449.614453 226.855649 
L 449.913026 231.209065 
L 450.062312 231.885977 
L 450.211598 231.323515 
L 450.808742 225.830674 
L 450.958028 225.966578 
L 451.555173 228.674562 
L 451.853745 227.691169 
L 452.003031 227.225952 
L 452.152317 227.301497 
L 452.45089 229.370504 
L 452.749462 231.672472 
L 452.898748 231.636458 
L 453.048034 230.463548 
L 453.645179 222.488557 
L 453.794465 222.686832 
L 454.093037 226.727243 
L 454.540895 233.066407 
L 454.690182 233.221783 
L 454.988754 231.11751 
L 455.287326 229.111456 
L 455.436612 228.9377 
L 455.735184 229.297183 
L 455.884471 228.954659 
L 456.183043 226.218739 
L 456.481615 223.086339 
L 456.630901 222.810758 
L 456.780187 223.824161 
L 457.377332 232.502277 
L 457.526618 232.66299 
L 457.675904 231.514255 
L 458.273049 224.349203 
L 458.422335 224.344487 
L 458.870193 226.607218 
L 459.019479 226.476645 
L 459.318051 223.94935 
L 459.616624 220.999903 
L 459.76591 220.546961 
L 459.915196 220.999213 
L 460.363054 224.192489 
L 460.51234 224.217957 
L 460.810913 221.876526 
L 461.109485 219.046553 
L 461.258771 218.522889 
L 461.408057 218.699689 
L 461.706629 219.767889 
L 461.855916 219.763188 
L 462.154488 217.876572 
L 462.45306 215.952201 
L 462.602346 216.332683 
L 462.900918 220.548394 
L 463.348777 227.265228 
L 463.498063 226.922747 
L 463.796635 221.979483 
L 464.244494 214.065871 
L 464.39378 213.631971 
L 464.543066 214.276179 
L 464.990924 216.952752 
L 465.14021 216.615113 
L 465.588069 214.150347 
L 465.737355 214.439818 
L 466.035927 217.428865 
L 466.334499 220.644765 
L 466.483786 221.068132 
L 466.633072 220.47623 
L 467.230216 215.1638 
L 467.379502 214.879534 
L 467.678075 214.946003 
L 467.827361 214.494579 
L 468.125933 211.826595 
L 468.424505 208.91425 
L 468.573791 208.583049 
L 468.723077 209.345285 
L 469.320222 216.061761 
L 469.469508 215.961182 
L 469.76808 212.9986 
L 470.066653 210.134309 
L 470.215939 210.028717 
L 470.514511 212.210108 
L 470.813083 213.850983 
L 470.962369 213.204364 
L 471.7088 205.333026 
L 471.858086 205.863444 
L 472.156658 207.658789 
L 472.305944 207.660291 
L 472.455231 206.577985 
L 473.052375 198.688918 
L 473.201661 198.67303 
L 473.500233 201.58915 
L 473.798806 204.460178 
L 473.948092 204.516874 
L 474.246664 202.037689 
L 474.545236 199.915433 
L 474.694522 200.342623 
L 474.993095 203.951149 
L 475.291667 207.242194 
L 475.440953 207.338468 
L 475.739525 204.489298 
L 476.038098 201.311183 
L 476.187384 200.92002 
L 476.33667 201.390977 
L 476.635242 202.895459 
L 476.784528 202.648953 
L 477.0831 198.746186 
L 477.530959 191.137641 
L 477.680245 190.600283 
L 477.829531 191.318781 
L 478.277389 195.422658 
L 478.426676 195.415874 
L 478.725248 192.794201 
L 479.02382 190.417255 
L 479.173106 190.729547 
L 479.471678 194.481081 
L 479.770251 198.733273 
L 479.919537 199.486369 
L 480.068823 198.990301 
L 480.665967 192.993506 
L 480.815254 193.111712 
L 481.263112 196.079617 
L 481.412398 195.935761 
L 481.561684 194.57633 
L 482.158829 184.941817 
L 482.308115 184.875906 
L 482.457401 186.666554 
L 482.755973 195.401535 
L 483.054545 208.31544 
L 483.054545 208.31544 
" clip-path="url(#p15bf25725a)" style="fill: none; stroke: #c34a22; stroke-width: 0.9; stroke-linecap: square"/>
   </g>
   <g id="patch_5">
    <path d="M 12.96 252.52 
L 505.44 252.52 
" style="fill: none; stroke: #d8cfbc; stroke-width: 0.8; stroke-linejoin: miter; stroke-linecap: square"/>
   </g>
   <g id="text_10">
    <text style="font-style: italic; font-size: 12px; font-family: 'Georgia', 'Times New Roman', 'DejaVu Serif', serif; text-anchor: start; fill: #221e17" x="12.96" y="151.05" transform="rotate(-0 12.96 151.05)">after a 0.5–40 Hz band-pass</text>
   </g>
  </g>
 </g>
 <defs>
  <clipPath id="pc04fbeef6f">
   <rect x="12.96" y="29.04" width="492.48" height="95.47"/>
  </clipPath>
  <clipPath id="p15bf25725a">
   <rect x="12.96" y="157.05" width="492.48" height="95.47"/>
  </clipPath>
 </defs>
</svg>
