<?xml version="1.0" encoding="utf-8" standalone="no"?>
<!DOCTYPE svg PUBLIC "-//W3C//DTD SVG 1.1//EN"
  "http://www.w3.org/Graphics/SVG/1.1/DTD/svg11.dtd">
<svg xmlns:xlink="http://www.w3.org/1999/xlink" width="518.4pt" height="302.4pt" viewBox="0 0 518.4 302.4" xmlns="http://www.w3.org/2000/svg" version="1.1">
 <metadata>
  <rdf:RDF xmlns:dc="http://purl.org/dc/elements/1.1/" xmlns:cc="http://creativecommons.org/ns#" xmlns:rdf="http://www.w3.org/1999/02/22-rdf-syntax-ns#">
   <cc:Work>
    <dc:type rdf:resource="http://purl.org/dc/dcmitype/StillImage"/>
    <dc:date>2026-06-21T21:33:28.540482</dc:date>
    <dc:format>image/svg+xml</dc:format>
    <dc:creator>
     <cc:Agent>
      <dc:title>Matplotlib v3.10.8, https://matplotlib.org/</dc:title>
     </cc:Agent>
    </dc:creator>
   </cc:Work>
  </rdf:RDF>
 </metadata>
 <defs>
  <style type="text/css">*{stroke-linejoin: round; stroke-linecap: butt}</style>
 </defs>
 <g id="figure_1">
  <g id="patch_1">
   <path d="M 0 302.4 
L 518.4 302.4 
L 518.4 0 
L 0 0 
z
" style="fill: #fbfaf8"/>
  </g>
  <g id="axes_1">
   <g id="patch_2">
    <path d="M 12.96 124.51 
L 505.44 124.51 
L 505.44 12.96 
L 12.96 12.96 
z
" style="fill: #fbfaf8"/>
   </g>
   <g id="matplotlib.axis_1">
    <g id="xtick_1">
     <g id="line2d_1">
      <defs>
       <path id="m5d2a9cdbc7" d="M 0 0 
L 0 3.5 
" style="stroke: #5c554a; stroke-width: 0.8"/>
      </defs>
      <g>
       <use xlink:href="#m5d2a9cdbc7" x="35.345455" y="124.51" style="fill: #5c554a; stroke: #5c554a; stroke-width: 0.8"/>
      </g>
     </g>
    </g>
    <g id="xtick_2">
     <g id="line2d_2">
      <g>
       <use xlink:href="#m5d2a9cdbc7" x="109.988517" y="124.51" style="fill: #5c554a; stroke: #5c554a; stroke-width: 0.8"/>
      </g>
     </g>
    </g>
    <g id="xtick_3">
     <g id="line2d_3">
      <g>
       <use xlink:href="#m5d2a9cdbc7" x="184.63158" y="124.51" style="fill: #5c554a; stroke: #5c554a; stroke-width: 0.8"/>
      </g>
     </g>
    </g>
    <g id="xtick_4">
     <g id="line2d_4">
      <g>
       <use xlink:href="#m5d2a9cdbc7" x="259.274643" y="124.51" style="fill: #5c554a; stroke: #5c554a; stroke-width: 0.8"/>
      </g>
     </g>
    </g>
    <g id="xtick_5">
     <g id="line2d_5">
      <g>
       <use xlink:href="#m5d2a9cdbc7" x="333.917706" y="124.51" style="fill: #5c554a; stroke: #5c554a; stroke-width: 0.8"/>
      </g>
     </g>
    </g>
    <g id="xtick_6">
     <g id="line2d_6">
      <g>
       <use xlink:href="#m5d2a9cdbc7" x="408.560769" y="124.51" style="fill: #5c554a; stroke: #5c554a; stroke-width: 0.8"/>
      </g>
     </g>
    </g>
    <g id="xtick_7">
     <g id="line2d_7">
      <g>
       <use xlink:href="#m5d2a9cdbc7" x="483.203832" y="124.51" style="fill: #5c554a; stroke: #5c554a; stroke-width: 0.8"/>
      </g>
     </g>
    </g>
   </g>
   <g id="matplotlib.axis_2"/>
   <g id="line2d_8">
    <path d="M 35.345455 64.849301 
L 35.494741 57.408581 
L 35.644027 55.585254 
L 35.942599 60.090701 
L 36.241171 70.76138 
L 36.390457 69.918937 
L 36.539744 76.63742 
L 36.68903 73.177711 
L 36.987602 56.891129 
L 37.136888 53.885635 
L 37.286174 57.67134 
L 37.43546 58.225267 
L 37.584746 61.841639 
L 37.734033 75.637908 
L 37.883319 76.246141 
L 38.032605 81.534233 
L 38.779035 52.960965 
L 38.928322 57.257282 
L 39.077608 64.809426 
L 39.226894 79.676464 
L 39.674752 69.909426 
L 39.824038 69.621586 
L 39.973324 59.405508 
L 40.421183 53.660446 
L 40.719755 70.26358 
L 40.869041 70.763385 
L 41.018327 76.144494 
L 41.466186 57.155479 
L 41.615472 57.975287 
L 41.764758 53.158644 
L 41.914044 52.312506 
L 42.06333 69.304486 
L 42.212616 66.731366 
L 42.511189 76.113473 
L 42.660475 62.458063 
L 42.809761 60.680875 
L 42.959047 61.568017 
L 43.108333 52.951583 
L 43.257619 51.079301 
L 43.705478 69.910449 
L 43.854764 71.088072 
L 44.00405 68.225559 
L 44.153336 72.087848 
L 44.451908 58.634955 
L 44.601194 52.536449 
L 45.049053 63.880745 
L 45.347625 69.115322 
L 45.496911 78.187112 
L 45.646197 72.316992 
L 45.795483 60.67416 
L 45.944769 64.060835 
L 46.094056 54.507008 
L 46.392628 52.035195 
L 46.840486 74.49503 
L 46.989772 74.040449 
L 47.139058 63.587453 
L 47.288345 64.442705 
L 47.586917 51.315822 
L 47.736203 53.04141 
L 47.885489 57.207796 
L 48.034775 66.880631 
L 48.184061 69.116701 
L 48.333347 74.59304 
L 48.63192 66.618416 
L 48.781206 62.78223 
L 48.930492 53.901573 
L 49.079778 53.696503 
L 49.229064 48.553955 
L 49.676923 73.665875 
L 49.826209 71.521755 
L 49.975495 79.000859 
L 50.124781 76.36217 
L 50.423353 59.523605 
L 50.721925 44.011297 
L 51.020498 64.764393 
L 51.468356 73.291538 
L 51.617642 69.484928 
L 51.916214 54.158264 
L 52.065501 55.965107 
L 52.214787 52.437346 
L 52.364073 55.905635 
L 52.513359 66.220835 
L 52.662645 67.682226 
L 52.811931 75.689324 
L 52.961217 68.937987 
L 53.110504 67.894561 
L 53.558362 52.478276 
L 53.707648 59.388208 
L 54.00622 60.889593 
L 54.155506 76.368805 
L 54.304793 69.30378 
L 54.454079 78.842593 
L 54.603365 65.71318 
L 54.752651 65.290749 
L 54.901937 52.984872 
L 55.051223 51.460283 
L 55.200509 57.593634 
L 55.349795 51.226641 
L 55.499082 56.822763 
L 55.797654 73.340657 
L 55.94694 72.912645 
L 56.096226 72.005285 
L 56.245512 58.046526 
L 56.394798 57.77065 
L 56.544084 52.050398 
L 56.842657 58.055957 
L 56.991943 66.763146 
L 57.141229 63.73527 
L 57.290515 72.828417 
L 57.439801 68.697685 
L 57.589087 68.298217 
L 57.738373 64.585554 
L 58.036946 53.865804 
L 58.186232 51.768996 
L 58.484804 63.111807 
L 58.63409 73.395484 
L 58.783376 75.190008 
L 58.932662 66.125543 
L 59.081949 70.78677 
L 59.231235 65.883624 
L 59.529807 46.607785 
L 59.679093 57.150392 
L 59.828379 56.472157 
L 60.126951 74.837389 
L 60.276238 69.561234 
L 60.425524 72.37133 
L 60.724096 64.885145 
L 60.873382 54.155078 
L 61.022668 53.94847 
L 61.171954 52.528788 
L 61.470527 66.797287 
L 61.619813 63.774951 
L 61.769099 74.532869 
L 62.216957 64.339723 
L 62.515529 50.40987 
L 63.112674 65.538515 
L 63.26196 71.452712 
L 63.411246 72.748186 
L 63.560532 72.541585 
L 63.709818 69.464791 
L 63.859105 54.798564 
L 64.008391 51.078504 
L 64.904107 78.3331 
L 65.053394 67.435592 
L 65.20268 71.545766 
L 65.351966 57.708568 
L 65.650538 54.193128 
L 65.799824 54.573594 
L 65.94911 62.493049 
L 66.247683 84.597002 
L 66.396969 75.409705 
L 66.546255 78.248366 
L 66.844827 58.622543 
L 67.143399 65.182223 
L 67.292685 60.061008 
L 67.740544 76.088957 
L 67.88983 78.814 
L 68.039116 76.654559 
L 68.337688 60.478081 
L 68.486974 58.159793 
L 68.636261 49.280891 
L 68.934833 57.724271 
L 69.084119 68.012151 
L 69.233405 69.468989 
L 69.382691 69.44633 
L 69.531977 63.805324 
L 69.83055 48.037353 
L 69.979836 38.523779 
L 70.129122 37.155189 
L 70.278408 33.419586 
L 70.427694 50.899447 
L 70.57698 47.411821 
L 70.726266 53.542968 
L 70.875552 51.937344 
L 71.024839 52.049947 
L 71.323411 29.007976 
L 71.621983 25.557345 
L 71.771269 29.991273 
L 71.920555 30.260466 
L 72.219128 51.763913 
L 72.368414 45.873303 
L 72.5177 46.475294 
L 72.666986 44.827294 
L 72.965558 18.030455 
L 73.26413 32.016819 
L 73.413417 38.100278 
L 73.562703 37.532172 
L 73.711989 45.879774 
L 73.861275 47.252752 
L 74.010561 44.791352 
L 74.458419 29.714269 
L 74.607706 32.307233 
L 74.756992 42.2398 
L 74.906278 44.257082 
L 75.055564 56.419721 
L 75.20485 55.228614 
L 75.354136 65.391498 
L 75.652708 53.381794 
L 75.801995 53.307838 
L 75.951281 39.534833 
L 76.100567 41.801185 
L 76.249853 54.039156 
L 76.399139 56.994666 
L 76.548425 65.883412 
L 76.697711 81.865111 
L 76.846997 72.305858 
L 76.996284 70.466531 
L 77.14557 64.459711 
L 77.294856 63.181507 
L 77.444142 56.991963 
L 77.593428 57.267056 
L 77.742714 56.672625 
L 78.041286 74.549219 
L 78.190573 73.122 
L 78.339859 81.054321 
L 78.489145 76.735572 
L 78.638431 75.813884 
L 78.787717 57.111152 
L 78.937003 55.466575 
L 79.086289 55.625501 
L 79.384862 68.659503 
L 79.683434 79.924494 
L 79.83272 79.565337 
L 79.982006 74.512421 
L 80.131292 62.61375 
L 80.429865 57.714008 
L 80.579151 59.38949 
L 80.728437 63.251203 
L 80.877723 61.079206 
L 81.176295 76.471211 
L 81.325581 77.765923 
L 81.474867 76.453146 
L 81.77344 56.114619 
L 81.922726 56.688957 
L 82.072012 55.906057 
L 82.370584 64.572235 
L 82.51987 77.021528 
L 82.669156 75.801635 
L 82.818443 77.971763 
L 82.967729 67.567735 
L 83.117015 67.263956 
L 83.415587 48.456545 
L 83.714159 60.088371 
L 83.863445 63.444421 
L 84.162018 77.972624 
L 84.311304 72.599472 
L 84.46059 62.961347 
L 84.609876 65.015543 
L 84.759162 58.497377 
L 84.908448 57.699538 
L 85.057734 52.682724 
L 85.356307 68.173018 
L 85.505593 65.712304 
L 85.654879 77.67909 
L 85.953451 64.867625 
L 86.102737 63.234585 
L 86.40131 46.830766 
L 86.849168 69.297172 
L 86.998454 70.500429 
L 87.14774 69.135987 
L 87.446312 74.206768 
L 87.894171 53.217133 
L 88.192743 57.4646 
L 88.640601 75.021838 
L 88.789888 74.143291 
L 88.939174 71.341674 
L 89.237746 51.57595 
L 89.387032 52.414774 
L 89.536318 54.420491 
L 89.685604 64.769219 
L 89.83489 63.475897 
L 89.984177 78.419469 
L 90.133463 80.373276 
L 90.432035 68.744753 
L 90.581321 65.616293 
L 90.730607 65.080356 
L 90.879893 56.280554 
L 91.029179 57.44527 
L 91.178466 56.535101 
L 91.327752 56.912328 
L 91.626324 78.379687 
L 91.77561 79.853962 
L 92.074182 66.0453 
L 92.223468 63.355097 
L 92.372755 54.817488 
L 92.522041 59.518805 
L 92.671327 55.120807 
L 93.119185 77.595927 
L 93.865616 60.380483 
L 94.014902 60.946937 
L 94.164188 56.641877 
L 94.46276 71.469689 
L 94.612046 72.515882 
L 94.761333 82.624257 
L 95.358477 57.344641 
L 95.507763 52.20257 
L 95.955622 76.062414 
L 96.104908 73.607779 
L 96.254194 74.903678 
L 96.40348 79.741581 
L 96.552766 61.508246 
L 96.702052 57.993512 
L 96.851338 51.384677 
L 97.299197 70.812142 
L 97.448483 63.672941 
L 97.597769 77.603384 
L 97.747055 71.149562 
L 97.896341 75.517167 
L 98.045627 66.255345 
L 98.194913 66.739753 
L 98.493486 53.138445 
L 98.642772 65.313512 
L 98.792058 63.108411 
L 99.09063 81.198359 
L 99.239916 79.241302 
L 99.389202 75.222998 
L 99.687775 62.960591 
L 99.986347 58.287531 
L 100.434205 73.996811 
L 100.583491 74.511545 
L 100.732778 83.437196 
L 101.03135 70.0661 
L 101.180636 64.999294 
L 101.329922 54.39747 
L 101.479208 59.491203 
L 101.628494 56.009342 
L 101.77778 70.755801 
L 101.927067 72.816779 
L 102.225639 81.004998 
L 102.673497 59.606055 
L 102.822783 58.142986 
L 102.972069 62.011236 
L 103.121356 62.333988 
L 103.569214 81.957116 
L 103.7185 78.808372 
L 103.867786 81.147035 
L 104.017072 66.136692 
L 104.166358 66.249639 
L 104.315645 65.061663 
L 104.464931 58.67182 
L 104.614217 58.328573 
L 104.912789 79.12534 
L 105.211361 83.270563 
L 105.360647 73.856573 
L 105.509934 71.959033 
L 105.808506 56.712638 
L 105.957792 61.689148 
L 106.107078 61.260876 
L 106.40565 80.038716 
L 106.554936 86.282694 
L 106.704223 72.71473 
L 106.853509 76.893084 
L 107.152081 63.293549 
L 107.301367 58.7347 
L 107.450653 59.187719 
L 107.599939 56.292134 
L 107.898512 81.777763 
L 108.197084 84.954276 
L 108.495656 66.89651 
L 108.644942 67.192166 
L 108.943515 61.15203 
L 109.092801 58.67221 
L 109.242087 80.541633 
L 109.391373 74.580065 
L 109.540659 84.431933 
L 109.689945 76.686947 
L 109.839231 80.634724 
L 109.988517 71.450818 
L 110.137804 69.682009 
L 110.436376 55.226284 
L 110.585662 61.259249 
L 111.03352 87.933446 
L 111.630665 64.972573 
L 111.779951 64.906252 
L 111.929237 61.068713 
L 112.377095 70.629655 
L 112.526382 81.961511 
L 112.675668 84.329532 
L 113.272812 61.493533 
L 113.422098 65.170659 
L 113.571384 63.049092 
L 113.869957 77.090176 
L 114.168529 84.693779 
L 114.317815 81.655729 
L 114.765673 60.927607 
L 114.91496 61.85697 
L 115.064246 70.811709 
L 115.213532 71.912904 
L 115.362818 83.471375 
L 115.512104 84.750293 
L 115.66139 83.615965 
L 115.810676 86.324809 
L 116.109249 65.602553 
L 116.258535 62.89076 
L 116.407821 63.923891 
L 116.557107 67.691763 
L 116.855679 80.041949 
L 117.004965 85.038748 
L 117.154251 82.718666 
L 117.303538 83.641717 
L 117.60211 66.15786 
L 117.751396 63.357596 
L 118.049968 64.81057 
L 118.199254 79.342413 
L 118.34854 77.883288 
L 118.497827 82.639597 
L 118.647113 82.544537 
L 119.094971 68.174843 
L 119.244257 61.024692 
L 119.393543 61.83875 
L 119.542829 66.619511 
L 119.692116 79.325664 
L 119.841402 78.135504 
L 120.139974 80.408411 
L 120.28926 79.417634 
L 120.438546 79.756184 
L 120.587832 64.288699 
L 120.737118 64.454555 
L 120.886405 73.293672 
L 121.035691 66.534207 
L 121.334263 85.434962 
L 121.483549 86.955686 
L 121.632835 79.985194 
L 121.782121 82.190445 
L 122.22998 58.589094 
L 122.827124 83.767714 
L 122.97641 83.601011 
L 123.125696 83.765462 
L 123.274983 80.970125 
L 123.424269 71.454001 
L 123.573555 71.703935 
L 123.872127 62.3753 
L 124.170699 71.451541 
L 124.469272 86.862713 
L 124.618558 84.445151 
L 124.767844 85.625222 
L 124.91713 81.71282 
L 125.066416 67.278503 
L 125.364988 64.491147 
L 125.514274 75.837618 
L 125.663561 77.299912 
L 126.111419 94.644909 
L 126.559277 68.576113 
L 126.708563 68.346794 
L 126.85785 66.244873 
L 127.007136 67.361594 
L 127.156422 86.685496 
L 127.305708 83.348338 
L 127.454994 84.847996 
L 127.60428 84.393083 
L 127.902852 72.622719 
L 128.350711 63.859773 
L 128.649283 77.236502 
L 128.798569 80.122211 
L 128.947855 80.210531 
L 129.097141 88.063946 
L 129.395714 76.646833 
L 129.545 66.175826 
L 129.694286 67.39127 
L 129.843572 61.927767 
L 130.142144 78.361479 
L 130.29143 84.781727 
L 130.440717 85.120217 
L 130.590003 84.231189 
L 130.739289 89.803014 
L 131.187147 70.346839 
L 131.336433 73.601462 
L 131.485719 68.148637 
L 131.933578 90.505603 
L 132.082864 85.057995 
L 132.23215 85.927326 
L 132.381436 74.796069 
L 132.530722 75.988882 
L 132.829295 68.220345 
L 132.978581 75.598111 
L 133.127867 76.98244 
L 133.426439 93.405666 
L 133.725011 87.763892 
L 133.874297 76.98468 
L 134.023584 76.587277 
L 134.322156 66.361222 
L 134.471442 66.732346 
L 134.620728 74.193655 
L 134.9193 91.531227 
L 135.068586 86.988306 
L 135.217873 89.499517 
L 135.367159 86.638126 
L 135.665731 71.807811 
L 136.412162 98.270022 
L 136.561448 96.280497 
L 137.158592 74.386398 
L 137.606451 90.513115 
L 137.755737 88.892404 
L 138.054309 99.532131 
L 138.352881 87.009688 
L 138.502167 76.998241 
L 138.651454 81.18043 
L 138.80074 78.678448 
L 138.950026 79.632921 
L 139.099312 74.631638 
L 139.397884 93.161571 
L 139.54717 89.303552 
L 139.696456 79.546777 
L 139.845743 80.699676 
L 140.144315 63.014278 
L 140.293601 64.492739 
L 140.442887 66.523056 
L 140.592173 75.913708 
L 140.741459 71.961218 
L 141.040032 78.160728 
L 141.189318 72.444105 
L 141.338604 74.733812 
L 141.48789 57.228949 
L 141.786462 51.388884 
L 141.935748 53.086369 
L 142.234321 72.042447 
L 142.383607 67.26509 
L 142.532893 70.337086 
L 142.980751 49.906824 
L 143.130037 52.67549 
L 143.279323 39.238948 
L 143.577896 49.348733 
L 143.727182 52.424569 
L 144.025754 70.597835 
L 144.622899 45.537364 
L 144.772185 54.088838 
L 144.921471 50.348876 
L 145.070757 64.578929 
L 145.220043 65.41715 
L 145.518615 74.159312 
L 145.966474 63.00907 
L 146.11576 64.53399 
L 146.414332 58.433724 
L 147.011477 90.035991 
L 147.160763 79.681718 
L 147.310049 80.188765 
L 147.608621 73.260867 
L 147.757907 72.961821 
L 148.355052 98.826996 
L 148.504338 89.791437 
L 148.653624 95.207772 
L 149.101482 77.356814 
L 149.250768 84.438889 
L 149.400055 85.307885 
L 149.549341 87.71945 
L 149.847913 101.178559 
L 149.997199 95.980248 
L 150.146485 100.326024 
L 150.594344 75.65741 
L 150.74363 88.218067 
L 150.892916 87.258127 
L 151.191488 94.631515 
L 151.340774 98.55169 
L 151.49006 95.443816 
L 151.639346 102.268461 
L 151.788633 87.182285 
L 152.087205 81.760831 
L 152.236491 77.117753 
L 152.535063 96.582549 
L 152.684349 96.431015 
L 152.833635 104.316819 
L 152.982922 101.033275 
L 153.43078 75.872351 
L 153.580066 78.443216 
L 153.729352 83.261053 
L 153.878638 84.219236 
L 154.177211 98.419857 
L 154.326497 96.186434 
L 154.475783 100.12937 
L 154.625069 101.106174 
L 154.774355 84.925044 
L 155.072927 75.949194 
L 155.222213 76.878492 
L 155.3715 78.854388 
L 155.520786 87.37077 
L 155.670072 89.293087 
L 155.819358 96.208549 
L 155.968644 96.35936 
L 156.11793 92.424663 
L 156.267216 93.020949 
L 156.565789 78.474807 
L 156.715075 76.798155 
L 156.864361 86.512963 
L 157.013647 81.850398 
L 157.312219 102.640553 
L 157.461505 104.521717 
L 157.760078 88.441572 
L 158.05865 77.657 
L 158.207936 80.408509 
L 158.357222 79.968701 
L 158.655794 94.872423 
L 158.80508 95.07926 
L 158.954367 89.264516 
L 159.103653 98.595987 
L 159.551511 75.620861 
L 159.700797 82.789109 
L 159.850083 84.298088 
L 159.999369 88.988345 
L 160.297942 102.723297 
L 160.447228 101.000273 
L 160.596514 103.133064 
L 161.044372 78.474028 
L 161.193658 79.754691 
L 161.342945 89.556558 
L 161.641517 92.811153 
L 161.940089 100.044321 
L 162.089375 99.170302 
L 162.238661 87.313705 
L 162.68652 82.526197 
L 162.835806 78.189553 
L 163.134378 91.98089 
L 163.283664 101.967094 
L 163.43295 96.795917 
L 163.582237 98.613264 
L 163.731523 90.713015 
L 163.880809 74.711441 
L 164.030095 77.189753 
L 164.477953 89.175615 
L 164.627239 92.281386 
L 164.925812 107.151217 
L 165.522956 75.649048 
L 165.821528 81.501968 
L 165.970815 94.912492 
L 166.269387 93.447897 
L 166.418673 98.368732 
L 166.567959 96.426429 
L 166.717245 90.526332 
L 166.866531 78.244729 
L 167.015817 84.385911 
L 167.165104 81.427107 
L 167.31439 83.271811 
L 167.463676 88.586961 
L 167.612962 99.297869 
L 167.762248 100.50386 
L 167.911534 102.705411 
L 168.657965 78.24866 
L 168.956537 92.673903 
L 169.105823 95.696798 
L 169.255109 106.032612 
L 169.404395 101.464852 
L 169.553682 102.184597 
L 169.852254 77.224319 
L 170.00154 74.436875 
L 170.150826 82.736288 
L 170.300112 83.149534 
L 170.598684 98.215584 
L 170.747971 96.837601 
L 170.897257 107.440069 
L 171.046543 94.836789 
L 171.195829 92.633511 
L 171.345115 80.995367 
L 171.494401 81.634549 
L 171.643687 84.844771 
L 171.792973 85.292065 
L 171.94226 89.959144 
L 172.091546 98.894667 
L 172.539404 107.013278 
L 172.837976 84.036635 
L 172.987262 82.205867 
L 173.285835 82.921215 
L 173.584407 102.051011 
L 173.733693 104.087066 
L 173.882979 99.054803 
L 174.032265 104.681822 
L 174.181551 88.911254 
L 174.330838 89.382138 
L 174.480124 87.220523 
L 174.62941 78.56677 
L 175.077268 101.180036 
L 175.37584 99.451201 
L 175.525127 101.552277 
L 175.823699 84.801435 
L 175.972985 85.942868 
L 176.122271 82.300728 
L 176.719416 103.950017 
L 176.868702 104.125775 
L 177.017988 102.454882 
L 177.167274 95.665684 
L 177.31656 83.721289 
L 177.465846 83.170197 
L 177.615132 80.73615 
L 177.764418 83.509849 
L 177.913705 92.119078 
L 178.062991 92.275879 
L 178.212277 107.618523 
L 178.361563 101.639216 
L 178.510849 101.923335 
L 178.809421 81.935708 
L 178.958707 91.53008 
L 179.25728 85.861921 
L 179.705138 105.208322 
L 179.854424 103.307236 
L 180.152996 95.125878 
L 180.302283 84.777462 
L 180.451569 93.015663 
L 180.600855 82.39537 
L 180.750141 92.475198 
L 180.899427 91.485096 
L 181.197999 108.574738 
L 181.347285 103.959025 
L 181.496572 104.824701 
L 182.093716 83.245239 
L 182.243002 85.243196 
L 182.392288 95.880257 
L 182.541574 97.846437 
L 182.690861 105.574863 
L 182.840147 106.017725 
L 183.288005 90.500338 
L 183.437291 86.271007 
L 183.586577 85.99798 
L 183.735863 89.035233 
L 183.88515 99.002074 
L 184.034436 98.24573 
L 184.183722 107.440359 
L 184.333008 104.294216 
L 184.482294 105.166778 
L 184.780866 88.119335 
L 184.930152 87.239709 
L 185.079439 78.278578 
L 185.228725 88.287649 
L 185.378011 89.454326 
L 185.676583 108.714266 
L 185.825869 107.712838 
L 186.273728 89.682689 
L 186.423014 87.046224 
L 186.5723 92.681883 
L 186.721586 90.783053 
L 186.870872 104.464715 
L 187.020158 101.268958 
L 187.169444 109.243157 
L 187.31873 109.232502 
L 187.766589 95.426452 
L 188.065161 90.23222 
L 188.363733 100.137808 
L 188.513019 97.059081 
L 188.662306 110.738643 
L 188.811592 104.475262 
L 188.960878 108.050488 
L 189.25945 91.601887 
L 189.558022 84.479876 
L 189.707308 84.034727 
L 190.005881 102.723851 
L 190.155167 110.694284 
L 190.304453 104.986441 
L 190.453739 104.164058 
L 190.901598 80.391115 
L 191.050884 94.129807 
L 191.20017 91.845802 
L 191.349456 93.84507 
L 191.648028 110.272762 
L 191.797314 108.358164 
L 191.9466 108.582412 
L 192.245173 81.931245 
L 192.394459 82.823002 
L 192.693031 94.204092 
L 192.842317 98.81458 
L 192.991603 99.961041 
L 193.140889 110.609947 
L 193.290176 110.148551 
L 193.588748 94.249619 
L 193.88732 91.377452 
L 194.185892 93.77947 
L 194.335178 105.754586 
L 194.484465 101.112806 
L 194.633751 110.117266 
L 194.783037 106.044707 
L 195.081609 93.321378 
L 195.230895 95.586837 
L 195.380181 84.263482 
L 195.529467 83.220031 
L 195.82804 101.249539 
L 195.977326 104.475416 
L 196.126612 113.89021 
L 196.275898 102.59443 
L 196.425184 112.985892 
L 196.723756 92.528695 
L 197.022329 87.057596 
L 197.171615 90.589425 
L 197.320901 98.707065 
L 197.470187 100.064396 
L 197.619473 116.049678 
L 197.768759 108.188106 
L 197.918045 106.933777 
L 198.216618 90.894282 
L 198.365904 91.179515 
L 198.664476 88.836452 
L 198.963048 106.919685 
L 199.112334 100.819342 
L 199.261621 99.842894 
L 199.410907 109.846397 
L 199.709479 82.6224 
L 200.008051 87.17618 
L 200.605196 110.510269 
L 200.754482 105.753854 
L 200.903768 106.076984 
L 201.351626 88.312737 
L 201.650199 92.734406 
L 201.799485 94.565521 
L 202.098057 106.803636 
L 202.247343 107.375846 
L 202.396629 104.594272 
L 202.844488 85.585517 
L 202.993774 92.414709 
L 203.14306 87.430919 
L 203.441632 107.859431 
L 203.590918 110.86782 
L 203.740204 111.628813 
L 204.188063 88.656155 
L 204.486635 97.548779 
L 204.635921 95.899514 
L 204.785207 107.055728 
L 204.934493 106.268754 
L 205.083779 106.285272 
L 205.233066 107.975011 
L 205.382352 111.57202 
L 205.531638 103.339363 
L 205.680924 87.880225 
L 205.979496 90.973408 
L 206.128782 91.247266 
L 206.278068 92.672203 
L 206.576641 111.93845 
L 206.725927 111.417398 
L 207.323071 93.169755 
L 207.472357 97.099714 
L 207.621644 97.973204 
L 207.77093 103.921254 
L 207.920216 102.158961 
L 208.069502 117.98157 
L 208.368074 111.779718 
L 208.666646 94.759567 
L 208.965219 97.60797 
L 209.263791 107.851034 
L 209.413077 108.503142 
L 209.711649 117.364094 
L 210.308794 92.977572 
L 210.45808 90.923318 
L 210.756652 102.648037 
L 210.905938 97.749034 
L 211.055224 114.583543 
L 211.801655 80.015254 
L 211.950941 78.41574 
L 212.100227 81.183509 
L 212.249513 92.675462 
L 212.3988 91.175662 
L 212.548086 96.247379 
L 212.697372 93.693762 
L 213.14523 67.784959 
L 213.294516 67.767825 
L 213.443802 61.3632 
L 213.593089 63.255646 
L 214.040947 81.974764 
L 214.190233 81.418719 
L 214.339519 73.302465 
L 214.488805 74.65774 
L 214.638091 62.27381 
L 214.936664 60.386902 
L 215.235236 72.968626 
L 215.533808 77.616721 
L 215.683094 77.925148 
L 215.83238 78.765651 
L 216.280239 63.484295 
L 216.728097 72.481592 
L 217.026669 97.417749 
L 217.325242 96.221265 
L 217.474528 90.379119 
L 217.623814 76.273663 
L 217.7731 77.749638 
L 217.922386 85.560949 
L 218.071672 82.798874 
L 218.220959 88.175724 
L 218.519531 107.959229 
L 218.668817 107.839332 
L 219.265961 85.50861 
L 219.415248 86.373785 
L 219.564534 90.314471 
L 219.863106 114.744091 
L 220.012392 113.952065 
L 220.310964 111.686711 
L 220.46025 100.857601 
L 220.758823 97.722284 
L 220.908109 89.064537 
L 221.355967 107.415335 
L 221.803826 119.439545 
L 222.102398 99.010371 
L 222.251684 96.806618 
L 222.40097 92.19148 
L 222.550256 92.165567 
L 222.848828 112.807921 
L 222.998115 104.781275 
L 223.147401 113.63435 
L 223.296687 112.3361 
L 223.595259 93.071399 
L 223.744545 93.082665 
L 223.893831 87.3345 
L 224.192404 103.414829 
L 224.490976 106.996936 
L 224.640262 111.991042 
L 224.938834 99.464731 
L 225.08812 82.262583 
L 225.237406 91.241534 
L 225.386693 83.414728 
L 225.685265 98.986506 
L 225.983837 105.270256 
L 226.431695 100.353675 
L 226.730268 85.942443 
L 226.879554 85.633439 
L 227.02884 86.48342 
L 227.327412 100.279828 
L 227.476698 102.466612 
L 227.775271 109.560405 
L 228.223129 81.617255 
L 228.372415 90.575007 
L 228.521701 86.795498 
L 228.670987 95.465406 
L 228.820273 97.596285 
L 229.118846 108.147548 
L 229.268132 104.582855 
L 229.566704 90.528947 
L 229.865276 87.348409 
L 230.014562 85.181418 
L 230.163849 103.668811 
L 230.313135 102.739675 
L 230.462421 110.911687 
L 230.910279 97.499955 
L 231.059565 88.10429 
L 231.208851 92.881127 
L 231.358138 82.925886 
L 231.507424 93.102891 
L 231.65671 94.879747 
L 231.805996 102.790265 
L 231.955282 116.862877 
L 232.253854 102.578241 
L 232.40314 91.329141 
L 232.552427 89.656003 
L 232.701713 85.838152 
L 232.850999 91.965188 
L 233.000285 85.368939 
L 233.149571 90.273167 
L 233.448143 107.903056 
L 233.597429 113.030896 
L 233.896002 86.848333 
L 234.045288 87.819558 
L 234.194574 81.87814 
L 234.34386 84.509369 
L 234.493146 94.009105 
L 234.642432 91.745722 
L 234.791718 107.502257 
L 234.941005 107.606443 
L 235.090291 105.776414 
L 235.538149 88.766353 
L 235.687435 89.065484 
L 235.836721 90.981615 
L 235.986007 89.880596 
L 236.433866 111.213736 
L 236.583152 108.327704 
L 236.732438 109.414333 
L 237.180296 85.302676 
L 237.329583 84.441785 
L 237.478869 82.424716 
L 237.628155 101.615927 
L 237.777441 104.887366 
L 237.926727 102.895421 
L 238.076013 107.024455 
L 238.225299 103.497731 
L 238.374585 89.654288 
L 238.523872 90.850616 
L 238.673158 89.929303 
L 238.822444 90.490185 
L 238.97173 88.274621 
L 239.121016 94.669174 
L 239.270302 107.127398 
L 239.419588 109.575108 
L 239.718161 99.853933 
L 239.867447 98.00283 
L 240.166019 83.24704 
L 240.315305 91.887342 
L 240.464591 90.339135 
L 240.613877 93.941875 
L 240.91245 113.497817 
L 241.360308 89.483371 
L 241.509594 97.024537 
L 241.65888 75.395479 
L 241.808166 89.137001 
L 241.957452 85.329381 
L 242.554597 109.522422 
L 242.703883 99.000369 
L 242.853169 97.593055 
L 243.002455 97.900601 
L 243.151741 74.253753 
L 243.301028 82.028812 
L 243.450314 81.807354 
L 243.5996 98.13847 
L 243.748886 95.654269 
L 243.898172 99.069624 
L 244.047458 99.163417 
L 244.196744 101.028145 
L 244.34603 99.02817 
L 244.495317 88.902137 
L 244.644603 92.422634 
L 244.943175 87.799551 
L 245.241747 101.296768 
L 245.391033 104.957178 
L 245.54032 97.407433 
L 245.838892 94.391558 
L 245.988178 83.422148 
L 246.137464 86.805573 
L 246.436036 84.40703 
L 246.585322 98.607345 
L 246.734609 101.336967 
L 246.883895 109.037279 
L 247.033181 103.701087 
L 247.182467 94.180033 
L 247.331753 96.60913 
L 247.481039 86.654094 
L 247.630325 86.84897 
L 247.779611 87.738183 
L 247.928898 91.918336 
L 248.078184 88.283037 
L 248.22747 91.213874 
L 248.526042 106.374013 
L 248.9739 84.132858 
L 249.123187 82.069574 
L 249.272473 82.070141 
L 249.421759 84.724755 
L 249.869617 109.706048 
L 250.018903 104.952617 
L 250.168189 104.61961 
L 250.466762 90.196597 
L 250.616048 82.352619 
L 250.765334 81.013957 
L 251.063906 95.80946 
L 251.213192 102.559539 
L 251.810337 93.886687 
L 251.959623 80.847305 
L 252.108909 87.873484 
L 252.258195 76.73177 
L 252.556767 102.621842 
L 252.706054 88.889756 
L 253.004626 106.26675 
L 253.452484 85.427211 
L 253.60177 87.319727 
L 253.751056 84.322156 
L 253.900343 83.94623 
L 254.348201 101.770739 
L 254.497487 93.367315 
L 254.646773 100.707647 
L 254.796059 90.757314 
L 254.945345 92.410561 
L 255.243918 76.466551 
L 255.393204 88.687823 
L 255.54249 89.52899 
L 255.841062 105.453959 
L 256.139634 99.505905 
L 256.587493 78.539705 
L 257.184637 97.652178 
L 257.333923 97.351645 
L 257.48321 91.312149 
L 257.632496 94.037203 
L 257.781782 90.908048 
L 257.931068 85.052205 
L 258.080354 83.6237 
L 258.22964 83.759836 
L 258.976071 102.080947 
L 259.274643 94.785088 
L 259.423929 77.87901 
L 259.573215 78.117625 
L 259.722501 73.347671 
L 260.17036 97.233483 
L 260.319646 97.529972 
L 260.468932 90.157738 
L 260.618218 100.676254 
L 260.91679 77.18988 
L 261.066077 77.940302 
L 261.215363 76.623211 
L 261.364649 78.580857 
L 261.513935 92.025982 
L 261.663221 94.283775 
L 261.812507 102.94339 
L 261.961793 102.168431 
L 262.111079 97.996049 
L 262.558938 77.283204 
L 262.708224 84.28125 
L 262.85751 75.324675 
L 263.305368 100.515665 
L 263.454655 99.450855 
L 263.753227 87.243844 
L 263.902513 88.769142 
L 264.201085 67.420033 
L 264.350371 89.2486 
L 264.499657 84.782552 
L 264.79823 99.07147 
L 264.947516 93.416212 
L 265.096802 99.113348 
L 265.395374 76.380229 
L 265.693946 79.485769 
L 265.843233 81.320026 
L 265.992519 89.697962 
L 266.141805 88.424267 
L 266.291091 101.558309 
L 266.440377 94.770356 
L 266.589663 98.857322 
L 266.738949 85.219619 
L 266.888235 81.782043 
L 267.037522 87.208427 
L 267.186808 77.399267 
L 267.48538 89.168384 
L 267.634666 87.921918 
L 267.783952 101.825388 
L 267.933238 101.555957 
L 268.082524 88.132165 
L 268.231811 86.779623 
L 268.381097 75.014711 
L 268.530383 75.670199 
L 268.679669 80.181924 
L 268.828955 80.94063 
L 268.978241 82.293816 
L 269.276813 97.053975 
L 269.4261 96.818525 
L 269.724672 88.868875 
L 269.873958 72.996932 
L 270.321816 81.95379 
L 270.471102 83.656642 
L 270.918961 98.9911 
L 271.068247 92.413073 
L 271.217533 92.472705 
L 271.516105 72.78667 
L 271.665391 77.572989 
L 271.814678 78.187353 
L 271.963964 81.254807 
L 272.262536 95.901587 
L 272.411822 87.870404 
L 272.561108 89.447725 
L 272.710394 86.955186 
L 273.008967 73.757922 
L 273.158253 78.498342 
L 273.307539 78.840497 
L 273.456825 86.014787 
L 273.606111 99.111229 
L 273.755397 96.186361 
L 273.904683 96.574352 
L 274.203256 91.464956 
L 274.501828 75.142176 
L 274.651114 74.600743 
L 274.8004 83.189934 
L 274.949686 82.819396 
L 275.098972 96.148328 
L 275.248259 96.322463 
L 275.397545 90.571051 
L 275.546831 94.278811 
L 275.696117 87.335722 
L 275.845403 75.095054 
L 275.994689 76.792412 
L 276.143975 76.557792 
L 276.442548 81.906005 
L 276.591834 100.665224 
L 276.74112 99.507798 
L 276.890406 100.342677 
L 277.039692 96.903004 
L 277.48755 75.697875 
L 277.636837 80.399869 
L 277.786123 80.688397 
L 277.935409 86.159521 
L 278.084695 96.952782 
L 278.233981 97.812462 
L 278.383267 92.326102 
L 278.532553 93.574853 
L 278.681839 91.055762 
L 278.831126 82.738499 
L 278.980412 82.180078 
L 279.129698 77.813234 
L 279.278984 79.563624 
L 279.577556 96.274629 
L 279.726842 95.159406 
L 279.876128 101.131402 
L 280.323987 85.211858 
L 280.473273 79.833024 
L 280.622559 69.50009 
L 280.921131 88.690444 
L 281.219704 96.275047 
L 281.518276 89.470124 
L 281.667562 75.363512 
L 281.816848 74.854131 
L 281.966134 65.349032 
L 282.264706 70.025611 
L 282.413993 82.628208 
L 282.563279 82.77862 
L 282.712565 85.101501 
L 282.861851 84.333565 
L 283.011137 86.020867 
L 283.160423 67.063263 
L 283.608282 56.547356 
L 283.906854 61.384683 
L 284.05614 72.457438 
L 284.205426 73.733719 
L 284.951857 47.186001 
L 285.250429 42.069462 
L 285.399715 56.014836 
L 285.549001 52.339455 
L 285.847573 62.965235 
L 285.99686 54.443015 
L 286.146146 56.484312 
L 286.594004 43.416996 
L 286.74329 47.614534 
L 287.191149 73.313633 
L 287.340435 64.660055 
L 287.489721 68.926635 
L 287.788293 55.032205 
L 287.937579 55.167468 
L 288.086865 57.295986 
L 288.534724 70.728653 
L 288.833296 83.201633 
L 289.131868 75.345977 
L 289.281154 65.241583 
L 289.43044 71.706568 
L 289.579727 60.79353 
L 289.878299 80.569921 
L 290.326157 89.282916 
L 290.923302 67.994382 
L 291.072588 73.374498 
L 291.221874 71.965117 
L 291.669732 97.843925 
L 291.819018 95.605691 
L 291.968305 87.81104 
L 292.117591 89.176993 
L 292.266877 75.569237 
L 292.416163 72.664023 
L 292.565449 72.774 
L 292.714735 85.637288 
L 292.864021 83.98658 
L 293.013307 87.287362 
L 293.162594 96.118938 
L 293.31188 92.690121 
L 293.461166 97.577834 
L 293.610452 79.721552 
L 293.759738 78.001104 
L 293.909024 68.127191 
L 294.05831 77.798951 
L 294.207596 72.042295 
L 294.356883 81.459694 
L 294.506169 83.61404 
L 294.655455 93.59503 
L 294.804741 92.16801 
L 294.954027 77.444552 
L 295.103313 82.172555 
L 295.401885 69.408662 
L 295.551172 71.920273 
L 295.700458 67.449417 
L 295.849744 71.584664 
L 296.148316 94.128222 
L 296.446888 79.452167 
L 296.745461 66.354771 
L 296.894747 69.774939 
L 297.044033 67.07717 
L 297.342605 81.671943 
L 297.491891 79.047974 
L 297.641177 88.94231 
L 297.790463 77.982004 
L 297.93975 82.116427 
L 298.089036 78.353012 
L 298.387608 58.992521 
L 298.536894 63.764442 
L 298.68618 73.870495 
L 298.835466 74.268456 
L 298.984752 76.817424 
L 299.134039 87.53882 
L 299.283325 88.509395 
L 299.581897 74.807784 
L 299.731183 73.010835 
L 299.880469 66.388279 
L 300.029755 67.714894 
L 300.179041 67.685582 
L 300.477614 77.053917 
L 300.776186 90.839051 
L 301.074758 71.450052 
L 301.373331 60.632992 
L 301.671903 71.720238 
L 301.821189 71.051941 
L 302.119761 92.536843 
L 302.269047 80.752735 
L 302.418333 83.239042 
L 302.716906 72.983762 
L 302.866192 68.76031 
L 303.015478 68.083735 
L 303.164764 69.00022 
L 303.31405 72.568894 
L 303.463336 88.653739 
L 303.612622 81.26905 
L 303.761909 88.338297 
L 303.911195 83.956078 
L 304.209767 67.568394 
L 304.359053 68.996061 
L 304.508339 56.490423 
L 304.657625 70.301887 
L 304.806911 72.481718 
L 304.956198 78.916678 
L 305.105484 78.303805 
L 305.25477 85.126331 
L 305.404056 75.780009 
L 305.553342 75.85789 
L 305.702628 62.625935 
L 305.851914 65.61331 
L 306.0012 64.084269 
L 306.150487 59.616885 
L 306.449059 78.71722 
L 306.598345 74.713678 
L 306.747631 81.587372 
L 306.896917 81.969189 
L 307.046203 69.891572 
L 307.195489 70.582838 
L 307.344776 58.120883 
L 307.494062 57.782585 
L 307.792634 74.648195 
L 308.240492 85.9965 
L 308.389778 76.349634 
L 308.539065 79.596257 
L 308.837637 63.244755 
L 308.986923 62.712015 
L 309.136209 64.424909 
L 309.285495 76.341547 
L 309.434781 75.914063 
L 309.584067 82.595994 
L 309.733354 84.276118 
L 309.88264 82.962173 
L 310.181212 63.871951 
L 310.330498 64.79585 
L 310.479784 60.959053 
L 310.62907 61.13596 
L 311.226215 85.372146 
L 311.524787 69.919374 
L 311.674073 60.556504 
L 311.823359 60.703186 
L 311.972645 56.290768 
L 312.719076 80.020727 
L 312.868362 76.095672 
L 313.017648 66.918008 
L 313.166934 66.087544 
L 313.316221 53.858648 
L 313.465507 60.593475 
L 313.614793 60.426648 
L 313.913365 77.494743 
L 314.062651 72.955597 
L 314.211937 81.5311 
L 314.361223 81.145323 
L 314.809082 51.830468 
L 314.958368 58.958553 
L 315.107654 60.132073 
L 315.25694 73.529545 
L 315.406226 74.808536 
L 315.555512 77.488986 
L 315.704799 73.279543 
L 315.854085 78.529691 
L 316.152657 62.129416 
L 316.301943 63.057663 
L 316.451229 59.319753 
L 316.600515 64.073995 
L 316.749801 77.935011 
L 316.899088 73.433587 
L 317.19766 81.064657 
L 317.346946 80.42965 
L 317.496232 63.689892 
L 317.645518 61.800798 
L 317.794804 55.088164 
L 317.94409 53.592887 
L 318.093377 64.562015 
L 318.242663 65.920945 
L 318.541235 79.267903 
L 318.690521 79.3078 
L 318.839807 75.050244 
L 319.138379 61.872152 
L 319.287666 58.947616 
L 319.436952 59.355409 
L 319.586238 60.937734 
L 319.88481 76.585257 
L 320.183382 80.632231 
L 320.481955 70.494279 
L 320.631241 54.50717 
L 320.780527 53.047156 
L 320.929813 56.241508 
L 321.079099 61.95508 
L 321.228385 59.960067 
L 321.526957 78.478464 
L 321.676244 76.999557 
L 321.82553 73.044458 
L 321.974816 62.620913 
L 322.124102 61.528638 
L 322.273388 49.782885 
L 322.422674 60.720745 
L 322.57196 58.776482 
L 322.721246 71.294195 
L 322.870533 67.184564 
L 323.019819 78.954746 
L 323.169105 77.910177 
L 323.467677 62.77412 
L 323.616963 65.137405 
L 323.766249 58.37427 
L 323.915535 62.195937 
L 324.064822 60.414415 
L 324.51268 79.849452 
L 324.661966 78.709758 
L 324.811252 76.095212 
L 325.109824 55.05597 
L 325.259111 63.80786 
L 325.408397 57.084841 
L 325.706969 64.981812 
L 325.856255 76.575119 
L 326.005541 77.472383 
L 326.154827 80.722943 
L 326.4534 66.235405 
L 326.751972 54.944976 
L 326.901258 57.177954 
L 327.050544 65.856867 
L 327.19983 64.216288 
L 327.498402 77.1184 
L 327.796975 68.086437 
L 327.946261 70.24574 
L 328.244833 50.234608 
L 328.394119 50.67085 
L 328.692692 70.3876 
L 329.14055 81.980504 
L 329.289836 72.093727 
L 329.439122 70.573656 
L 329.588408 63.967176 
L 329.737694 52.197909 
L 330.036267 59.666658 
L 330.334839 68.966129 
L 330.484125 77.069734 
L 330.782697 74.897152 
L 330.931983 59.073747 
L 331.08127 56.767441 
L 331.230556 59.288031 
L 331.379842 55.176106 
L 331.529128 56.43155 
L 331.678414 63.574099 
L 331.8277 64.883489 
L 332.126272 77.442019 
L 332.723417 54.336574 
L 332.872703 44.903777 
L 333.171275 72.721211 
L 333.469848 74.750507 
L 333.619134 79.758386 
L 333.917706 66.200423 
L 334.066992 57.249974 
L 334.216278 55.184572 
L 334.365564 57.819698 
L 334.51485 55.515271 
L 334.813423 72.821774 
L 334.962709 79.935872 
L 335.111995 77.719483 
L 335.261281 68.492184 
L 335.410567 70.506586 
L 335.709139 51.63057 
L 336.007712 57.234417 
L 336.156998 68.51537 
L 336.306284 65.86174 
L 336.754142 77.065467 
L 337.202001 47.678525 
L 337.351287 52.8676 
L 337.500573 53.240855 
L 337.799145 71.105038 
L 337.948431 74.27838 
L 338.097717 72.697455 
L 338.247004 75.957147 
L 338.545576 52.775227 
L 338.694862 57.9482 
L 338.844148 58.682968 
L 338.993434 56.27654 
L 339.292006 78.87529 
L 339.441293 71.042585 
L 339.590579 73.42215 
L 339.739865 71.82331 
L 339.889151 55.945515 
L 340.038437 56.878862 
L 340.187723 56.238415 
L 340.337009 53.066621 
L 340.635582 66.41198 
L 340.784868 68.473661 
L 340.934154 75.816025 
L 341.08344 75.412287 
L 341.382012 60.322878 
L 341.680584 51.279602 
L 341.829871 51.421419 
L 341.979157 51.720177 
L 342.128443 63.448466 
L 342.277729 62.835048 
L 342.427015 77.053456 
L 342.576301 74.467953 
L 342.725587 74.68329 
L 343.173446 47.67361 
L 343.322732 55.443456 
L 343.472018 56.866161 
L 343.919876 77.751953 
L 344.069162 73.136557 
L 344.218449 75.82702 
L 344.517021 56.730526 
L 344.666307 55.325694 
L 344.815593 56.627317 
L 344.964879 61.909371 
L 345.114165 56.241959 
L 345.263451 74.403536 
L 345.412738 67.645367 
L 345.562024 71.196528 
L 345.71131 70.876497 
L 345.860596 67.521693 
L 346.159168 46.775001 
L 346.308454 56.648844 
L 346.607027 59.710017 
L 346.756313 68.755717 
L 346.905599 66.636204 
L 347.054885 76.221137 
L 347.204171 68.354231 
L 347.353457 68.789777 
L 347.502743 50.308295 
L 347.801316 62.612326 
L 347.950602 59.042739 
L 348.099888 65.615523 
L 348.249174 64.580665 
L 348.39846 77.014986 
L 348.547746 76.051721 
L 349.144891 52.743596 
L 349.294177 54.913052 
L 349.891321 81.527989 
L 350.040607 73.86723 
L 350.189894 79.695421 
L 350.488466 58.67144 
L 350.637752 58.682417 
L 351.08561 66.706186 
L 351.384183 77.263443 
L 351.533469 74.401716 
L 351.682755 75.875504 
L 351.832041 66.244515 
L 351.981327 66.0985 
L 352.130613 53.061987 
L 352.279899 54.688878 
L 352.429185 59.988119 
L 352.578472 59.71956 
L 352.727758 66.914242 
L 352.877044 82.810506 
L 353.02633 71.292952 
L 353.175616 71.827672 
L 353.474188 42.340415 
L 353.623474 48.259057 
L 353.772761 44.767305 
L 354.220619 55.038725 
L 354.369905 55.136592 
L 354.519191 62.066401 
L 354.668477 47.292784 
L 354.817763 48.762366 
L 355.116336 28.057363 
L 355.265622 28.3646 
L 355.564194 41.30931 
L 355.862766 46.963849 
L 356.012053 41.614187 
L 356.161339 45.865848 
L 356.459911 24.937926 
L 356.609197 20.770744 
L 356.758483 20.789233 
L 356.907769 20.635045 
L 357.206342 35.75552 
L 357.355628 40.976624 
L 357.504914 36.823601 
L 357.6542 47.03038 
L 357.803486 29.634148 
L 357.952772 29.761018 
L 358.102058 26.802551 
L 358.251344 30.315404 
L 358.400631 38.601034 
L 358.549917 40.596195 
L 358.699203 49.266264 
L 358.848489 50.111948 
L 358.997775 58.700549 
L 359.147061 45.490372 
L 359.296347 44.862691 
L 359.59492 41.131932 
L 359.744206 42.852544 
L 360.490636 72.368576 
L 361.087781 44.358935 
L 361.386353 58.11541 
L 361.684925 76.332325 
L 361.834211 81.887677 
L 361.983498 73.577605 
L 362.132784 75.66763 
L 362.431356 63.298244 
L 362.729928 52.45657 
L 363.0285 69.358466 
L 363.177787 77.437728 
L 363.327073 75.151232 
L 363.476359 82.106556 
L 363.774931 73.019288 
L 364.073503 55.626619 
L 364.222789 47.696217 
L 364.372076 64.504058 
L 364.521362 63.410586 
L 364.819934 80.685145 
L 365.118506 73.059439 
L 365.267792 68.170701 
L 365.417078 51.945706 
L 365.566365 61.92233 
L 365.715651 53.255244 
L 365.864937 57.105171 
L 366.163509 69.966405 
L 366.312795 70.9866 
L 366.462081 73.46847 
L 366.760654 60.926765 
L 366.90994 64.500117 
L 367.059226 47.533757 
L 367.208512 44.464517 
L 367.65637 74.271869 
L 367.805656 73.3453 
L 367.954943 75.830898 
L 368.104229 71.040635 
L 368.253515 58.950951 
L 368.402801 59.114958 
L 368.552087 52.693801 
L 368.701373 59.212432 
L 368.850659 56.64329 
L 369.298518 75.191528 
L 369.447804 65.58396 
L 369.59709 73.078817 
L 370.194234 44.354418 
L 370.642093 70.216782 
L 370.791379 68.630124 
L 370.940665 75.915941 
L 371.239237 57.147428 
L 371.388523 55.802951 
L 371.53781 49.791065 
L 371.687096 49.421216 
L 371.836382 50.372774 
L 371.985668 66.295416 
L 372.134954 64.399439 
L 372.28424 74.046828 
L 372.433526 75.50582 
L 372.732099 63.279071 
L 373.030671 58.18473 
L 373.179957 55.786024 
L 373.329243 50.884353 
L 373.478529 55.333963 
L 373.627815 66.496413 
L 373.777101 68.440458 
L 373.926388 74.726894 
L 374.523532 56.100667 
L 374.672818 52.113209 
L 375.269963 73.939556 
L 375.419249 69.22556 
L 375.568535 69.121327 
L 376.016393 53.258838 
L 376.464252 60.13598 
L 376.613538 66.847317 
L 376.762824 68.412205 
L 376.91211 79.40319 
L 377.359968 56.063335 
L 377.509255 54.478595 
L 377.658541 54.72308 
L 377.807827 53.871555 
L 378.106399 73.718706 
L 378.255685 68.430885 
L 378.554257 71.598712 
L 378.703544 60.130485 
L 378.85283 59.606772 
L 379.002116 48.872553 
L 379.449974 64.67325 
L 379.59926 72.455376 
L 379.897833 72.936567 
L 380.196405 65.460469 
L 380.345691 70.602786 
L 380.494977 52.898354 
L 380.644263 60.246964 
L 380.793549 56.289487 
L 380.942835 59.361499 
L 381.241408 75.22369 
L 381.390694 74.47585 
L 381.987838 56.881418 
L 382.137124 49.127733 
L 382.584983 71.029586 
L 382.883555 74.689339 
L 383.331414 56.726949 
L 383.4807 56.215407 
L 383.629986 56.632694 
L 383.779272 51.578415 
L 384.077844 71.442279 
L 384.22713 68.903943 
L 384.376416 70.320126 
L 384.674989 65.636407 
L 384.824275 49.212795 
L 384.973561 52.557737 
L 385.122847 52.01853 
L 385.570705 75.563535 
L 385.719992 73.079713 
L 385.869278 73.164294 
L 386.018564 71.618026 
L 386.16785 68.764587 
L 386.466422 55.499547 
L 386.615708 59.684428 
L 386.764994 54.942985 
L 386.914281 60.35217 
L 387.063567 60.522178 
L 387.362139 77.087263 
L 387.511425 74.242453 
L 387.660711 77.461341 
L 387.959283 55.246622 
L 388.10857 51.061657 
L 388.705714 72.749909 
L 388.855 69.884511 
L 389.004286 75.26753 
L 389.452145 48.951593 
L 389.601431 50.169349 
L 389.750717 56.109936 
L 389.900003 69.641387 
L 390.049289 70.93725 
L 390.198575 76.373728 
L 390.347861 75.245288 
L 390.497148 72.367154 
L 390.945006 52.098732 
L 391.094292 54.391105 
L 391.54215 73.535821 
L 391.691437 72.852623 
L 391.840723 76.88468 
L 392.139295 67.18424 
L 392.288581 64.929969 
L 392.437867 52.256721 
L 392.587153 59.526314 
L 392.736439 57.065975 
L 392.885726 64.369556 
L 393.035012 78.365722 
L 393.184298 79.684204 
L 393.333584 78.134713 
L 393.48287 75.398214 
L 393.632156 70.451772 
L 393.781442 57.095552 
L 393.930728 56.837991 
L 394.080015 54.57246 
L 394.527873 75.400922 
L 394.677159 76.671888 
L 394.975731 72.581575 
L 395.274304 64.198031 
L 395.42359 55.714672 
L 395.572876 55.100019 
L 396.020734 71.017874 
L 396.17002 67.817301 
L 396.319306 78.110181 
L 396.617879 65.46886 
L 396.767165 70.036342 
L 396.916451 56.265615 
L 397.065737 59.363515 
L 397.215023 55.603858 
L 397.513595 76.274791 
L 397.662882 78.158322 
L 397.961454 75.594379 
L 398.11074 67.453063 
L 398.260026 65.973243 
L 398.558598 54.309064 
L 398.707884 53.856851 
L 399.006457 72.817884 
L 399.305029 74.051457 
L 399.603601 63.685104 
L 399.752887 61.834665 
L 399.902173 56.588745 
L 400.05146 56.923019 
L 400.200746 60.414661 
L 400.499318 77.121807 
L 400.648604 85.932574 
L 400.79789 80.701738 
L 400.947176 81.830513 
L 401.245749 61.810898 
L 401.395035 64.139752 
L 401.544321 55.47787 
L 401.693607 58.765548 
L 401.842893 67.962626 
L 401.992179 68.531503 
L 402.141465 71.726326 
L 402.290751 83.105052 
L 402.589324 66.912472 
L 402.887896 54.967608 
L 403.48504 77.898452 
L 403.634327 79.428332 
L 403.783613 84.457655 
L 403.932899 79.105244 
L 404.231471 62.978696 
L 404.380757 57.450504 
L 404.530043 65.864594 
L 404.679329 65.741587 
L 405.127188 81.682173 
L 405.276474 76.132396 
L 405.42576 75.928234 
L 405.873618 56.716397 
L 406.022905 61.107629 
L 406.172191 59.186225 
L 406.620049 79.837582 
L 406.769335 78.122492 
L 407.36648 56.568581 
L 407.515766 59.409459 
L 407.665052 59.182781 
L 407.963624 84.162049 
L 408.11291 75.542802 
L 408.262196 80.121289 
L 408.411483 80.977801 
L 408.859341 52.546424 
L 409.008627 58.497247 
L 409.157913 70.058709 
L 409.307199 68.632826 
L 409.456485 78.475832 
L 409.605772 73.899513 
L 409.755058 84.885145 
L 409.904344 85.431064 
L 410.202916 65.908897 
L 410.352202 62.309009 
L 410.501488 68.710568 
L 410.650775 63.204887 
L 410.800061 64.977936 
L 410.949347 84.535431 
L 411.098633 77.143572 
L 411.247919 83.601899 
L 411.397205 69.004564 
L 411.546491 69.786602 
L 411.695777 65.820977 
L 411.845064 57.206755 
L 411.99435 59.391277 
L 412.143636 67.46362 
L 412.292922 69.03092 
L 412.591494 88.551815 
L 412.74078 74.534382 
L 412.890066 79.453406 
L 413.039353 74.146814 
L 413.188639 64.394574 
L 413.337925 67.536025 
L 413.487211 66.829623 
L 413.636497 67.639625 
L 413.935069 78.269034 
L 414.084355 78.355727 
L 414.233642 84.290338 
L 414.532214 70.224458 
L 414.6815 70.175542 
L 414.830786 61.497564 
L 414.980072 65.870017 
L 415.129358 62.443087 
L 415.577217 88.01919 
L 415.726503 82.72769 
L 415.875789 82.150276 
L 416.174361 67.293614 
L 416.323647 66.028433 
L 416.472933 59.717824 
L 416.62222 64.466587 
L 416.771506 75.724398 
L 416.920792 75.682114 
L 417.070078 85.078955 
L 417.219364 85.242979 
L 417.965795 58.806726 
L 418.115081 63.009696 
L 418.264367 76.000416 
L 418.413653 75.643092 
L 418.562939 85.861968 
L 418.712225 84.540164 
L 419.010798 75.166878 
L 419.160084 61.31027 
L 419.458656 71.29859 
L 419.607942 66.28849 
L 420.0558 99.596918 
L 420.205087 85.21402 
L 420.354373 82.303249 
L 420.802231 63.470443 
L 420.951517 70.143486 
L 421.100803 70.678624 
L 421.399376 88.4955 
L 421.548662 87.37158 
L 421.847234 92.492235 
L 422.145806 75.661391 
L 422.295092 74.037214 
L 422.444378 69.300395 
L 422.892237 90.766176 
L 423.041523 83.669056 
L 423.190809 95.298948 
L 423.638667 68.985856 
L 423.787954 71.181503 
L 423.93724 67.007538 
L 424.086526 68.288247 
L 424.235812 71.184033 
L 424.534384 86.453288 
L 424.832956 71.78332 
L 425.430101 53.606154 
L 425.579387 53.444343 
L 425.728673 66.060113 
L 425.877959 65.971317 
L 426.176532 71.712579 
L 426.62439 48.947017 
L 426.773676 40.994923 
L 426.922962 46.686717 
L 427.072248 44.667369 
L 427.520107 55.031023 
L 427.669393 63.000835 
L 427.818679 59.944543 
L 428.266537 30.035712 
L 428.714396 46.319893 
L 429.012968 66.446256 
L 429.162254 52.276278 
L 429.31154 57.800915 
L 429.759399 39.393109 
L 430.207257 64.247155 
L 430.356543 73.375133 
L 430.505829 68.385866 
L 430.804401 70.849282 
L 431.102974 62.432544 
L 431.25226 63.105244 
L 431.401546 56.293131 
L 431.849404 80.964062 
L 432.147977 86.653548 
L 432.297263 82.891624 
L 432.446549 84.579442 
L 432.745121 63.6788 
L 433.043693 77.4802 
L 433.192979 80.606198 
L 433.640838 101.347237 
L 433.790124 89.932116 
L 433.93941 90.055396 
L 434.237982 73.749759 
L 434.387268 76.923888 
L 434.536555 76.774866 
L 434.685841 74.454482 
L 434.984413 93.451428 
L 435.133699 99.291975 
L 435.88013 77.106197 
L 436.029416 79.140688 
L 436.327988 95.808496 
L 436.477274 99.292964 
L 437.074419 73.150608 
L 437.223705 74.186335 
L 437.372991 70.312827 
L 437.522277 81.849097 
L 437.671563 74.323522 
L 437.970135 93.526194 
L 438.119422 96.930643 
L 438.268708 87.269739 
L 438.417994 89.17963 
L 438.716566 69.22609 
L 438.865852 71.675058 
L 439.015138 77.642027 
L 439.164425 78.633845 
L 439.313711 92.270032 
L 439.462997 91.301698 
L 439.612283 94.193818 
L 439.761569 91.594832 
L 439.910855 80.47517 
L 440.060141 79.551083 
L 440.209427 65.018226 
L 440.358714 74.211173 
L 440.508 68.669655 
L 440.657286 86.381672 
L 440.806572 86.47842 
L 440.955858 97.075845 
L 441.105144 97.644753 
L 441.403716 80.094101 
L 441.553003 81.020377 
L 441.702289 68.116957 
L 441.851575 75.469058 
L 442.000861 76.004733 
L 442.299433 87.035598 
L 442.448719 99.804654 
L 442.598005 87.278503 
L 442.747292 87.324469 
L 443.493722 75.041851 
L 443.792294 93.957317 
L 443.941581 95.689725 
L 444.090867 88.045503 
L 444.240153 91.178455 
L 444.389439 85.856076 
L 444.538725 72.472497 
L 444.688011 71.900157 
L 444.837297 73.494935 
L 445.434442 96.086248 
L 445.583728 95.182234 
L 446.180872 73.355749 
L 446.330159 77.934499 
L 446.479445 86.11815 
L 446.628731 86.470944 
L 446.927303 97.284715 
L 447.076589 95.948536 
L 447.225875 95.671454 
L 447.673734 74.303479 
L 447.82302 77.201804 
L 447.972306 76.908831 
L 448.270878 95.239582 
L 448.420164 95.29133 
L 448.56945 88.5644 
L 448.718737 94.13632 
L 449.017309 74.060094 
L 449.166595 69.770132 
L 449.315881 78.372826 
L 449.465167 71.878435 
L 449.763739 92.973901 
L 449.913026 96.845034 
L 450.360884 86.597779 
L 450.51017 74.960249 
L 450.808742 79.737163 
L 450.958028 76.93156 
L 451.405887 100.495464 
L 451.555173 92.618737 
L 451.704459 90.978608 
L 451.853745 80.003222 
L 452.003031 84.832536 
L 452.152317 75.583777 
L 452.301604 77.464156 
L 452.600176 89.399313 
L 452.749462 88.983649 
L 452.898748 98.8179 
L 453.048034 99.806077 
L 453.495893 77.142621 
L 453.645179 79.83681 
L 453.794465 77.195839 
L 453.943751 77.142235 
L 454.242323 96.432501 
L 454.540895 91.927879 
L 454.690182 98.075926 
L 454.839468 97.138924 
L 455.13804 81.191435 
L 455.287326 78.022778 
L 455.436612 79.202755 
L 455.735184 96.783471 
L 455.884471 97.594264 
L 456.033757 101.754225 
L 456.332329 90.463703 
L 456.481615 71.968122 
L 456.630901 74.981569 
L 457.377332 101.372612 
L 457.526618 101.452977 
L 457.675904 91.628434 
L 457.82519 90.192838 
L 458.123762 83.445709 
L 458.422335 82.758353 
L 458.571621 89.671404 
L 458.720907 91.066855 
L 458.870193 101.514476 
L 459.019479 95.347678 
L 459.168765 94.45037 
L 459.318051 89.151466 
L 459.467338 90.267702 
L 459.76591 76.33995 
L 459.915196 77.875237 
L 460.213768 92.943399 
L 460.363054 101.205711 
L 460.51234 101.121938 
L 460.661627 98.343836 
L 460.960199 82.111992 
L 461.109485 80.384541 
L 461.408057 81.474088 
L 461.706629 99.314562 
L 461.855916 93.881993 
L 462.005202 99.3044 
L 462.154488 96.359406 
L 462.45306 80.097034 
L 462.602346 80.339037 
L 462.751632 78.089865 
L 463.199491 105.063875 
L 463.348777 96.195422 
L 463.498063 107.729769 
L 463.647349 94.375112 
L 463.796635 93.677688 
L 464.244494 79.564857 
L 464.543066 84.332525 
L 464.692352 95.897775 
L 464.841638 97.922683 
L 464.990924 103.419423 
L 465.289496 90.528981 
L 465.737355 81.246472 
L 465.886641 84.26283 
L 466.334499 104.363864 
L 466.483786 98.929014 
L 466.633072 104.073953 
L 466.931644 79.571808 
L 467.08093 91.403755 
L 467.230216 84.031526 
L 467.379502 82.893983 
L 467.528788 97.863921 
L 467.678075 88.576464 
L 467.827361 111.625202 
L 468.125933 92.544773 
L 468.573791 80.569149 
L 468.723077 85.233533 
L 468.872364 82.894953 
L 469.02165 96.357995 
L 469.170936 99.600271 
L 469.320222 98.868736 
L 469.469508 106.685533 
L 470.066653 78.035866 
L 470.215939 81.112374 
L 470.365225 91.89447 
L 470.514511 92.842602 
L 470.813083 105.393056 
L 471.111655 101.768151 
L 471.260942 89.330885 
L 471.410228 89.206725 
L 471.559514 79.136073 
L 471.7088 82.954821 
L 471.858086 83.586074 
L 472.156658 101.309831 
L 472.305944 107.637048 
L 472.903089 82.274995 
L 473.052375 82.246709 
L 473.350947 85.718708 
L 473.500233 93.60678 
L 473.64952 94.469063 
L 473.948092 106.923151 
L 474.097378 102.511784 
L 474.246664 88.669858 
L 474.545236 84.422329 
L 474.694522 79.239152 
L 475.291667 111.421495 
L 475.440953 101.05277 
L 475.590239 104.825161 
L 476.038098 81.28028 
L 476.33667 87.879235 
L 476.485956 100.472955 
L 476.635242 100.961294 
L 476.784528 110.016183 
L 477.381673 80.673573 
L 477.530959 82.389401 
L 477.680245 82.175376 
L 478.426676 109.775403 
L 478.725248 92.94674 
L 479.02382 82.977334 
L 479.322392 92.986616 
L 479.471678 88.296046 
L 479.770251 110.521021 
L 479.919537 104.053934 
L 480.218109 101.977937 
L 480.516681 90.943518 
L 480.665967 84.074 
L 481.412398 113.41743 
L 481.71097 98.573116 
L 482.158829 85.858181 
L 482.308115 90.321019 
L 482.606687 103.81113 
L 482.755973 98.541636 
L 482.905259 109.881133 
L 483.054545 108.340019 
L 483.054545 108.340019 
" clip-path="url(#p65ba21e1dc)" style="fill: none; stroke: #5c554a; stroke-width: 0.7; stroke-linecap: square"/>
   </g>
   <g id="patch_3">
    <path d="M 12.96 124.51 
L 505.44 124.51 
" style="fill: none; stroke: #d8cfbc; stroke-width: 0.8; stroke-linejoin: miter; stroke-linecap: square"/>
   </g>
  </g>
  <g id="axes_2">
   <g id="patch_4">
    <path d="M 12.96 252.52 
L 505.44 252.52 
L 505.44 140.97 
L 12.96 140.97 
z
" style="fill: #fbfaf8"/>
   </g>
   <g id="matplotlib.axis_3">
    <g id="xtick_8">
     <g id="line2d_9">
      <g>
       <use xlink:href="#m5d2a9cdbc7" x="35.345455" y="252.52" style="fill: #5c554a; stroke: #5c554a; stroke-width: 0.8"/>
      </g>
     </g>
     <g id="text_1">
      <text style="font-size: 12px; font-family: 'Georgia', 'Times New Roman', 'DejaVu Serif', serif; text-anchor: middle; fill: #5c554a" x="35.345455" y="268.59125" transform="rotate(-0 35.345455 268.59125)">0</text>
     </g>
    </g>
    <g id="xtick_9">
     <g id="line2d_10">
      <g>
       <use xlink:href="#m5d2a9cdbc7" x="109.988517" y="252.52" style="fill: #5c554a; stroke: #5c554a; stroke-width: 0.8"/>
      </g>
     </g>
     <g id="text_2">
      <text style="font-size: 12px; font-family: 'Georgia', 'Times New Roman', 'DejaVu Serif', serif; text-anchor: middle; fill: #5c554a" x="109.988517" y="268.59125" transform="rotate(-0 109.988517 268.59125)">1</text>
     </g>
    </g>
    <g id="xtick_10">
     <g id="line2d_11">
      <g>
       <use xlink:href="#m5d2a9cdbc7" x="184.63158" y="252.52" style="fill: #5c554a; stroke: #5c554a; stroke-width: 0.8"/>
      </g>
     </g>
     <g id="text_3">
      <text style="font-size: 12px; font-family: 'Georgia', 'Times New Roman', 'DejaVu Serif', serif; text-anchor: middle; fill: #5c554a" x="184.63158" y="268.59125" transform="rotate(-0 184.63158 268.59125)">2</text>
     </g>
    </g>
    <g id="xtick_11">
     <g id="line2d_12">
      <g>
       <use xlink:href="#m5d2a9cdbc7" x="259.274643" y="252.52" style="fill: #5c554a; stroke: #5c554a; stroke-width: 0.8"/>
      </g>
     </g>
     <g id="text_4">
      <text style="font-size: 12px; font-family: 'Georgia', 'Times New Roman', 'DejaVu Serif', serif; text-anchor: middle; fill: #5c554a" x="259.274643" y="268.59125" transform="rotate(-0 259.274643 268.59125)">3</text>
     </g>
    </g>
    <g id="xtick_12">
     <g id="line2d_13">
      <g>
       <use xlink:href="#m5d2a9cdbc7" x="333.917706" y="252.52" style="fill: #5c554a; stroke: #5c554a; stroke-width: 0.8"/>
      </g>
     </g>
     <g id="text_5">
      <text style="font-size: 12px; font-family: 'Georgia', 'Times New Roman', 'DejaVu Serif', serif; text-anchor: middle; fill: #5c554a" x="333.917706" y="268.59125" transform="rotate(-0 333.917706 268.59125)">4</text>
     </g>
    </g>
    <g id="xtick_13">
     <g id="line2d_14">
      <g>
       <use xlink:href="#m5d2a9cdbc7" x="408.560769" y="252.52" style="fill: #5c554a; stroke: #5c554a; stroke-width: 0.8"/>
      </g>
     </g>
     <g id="text_6">
      <text style="font-size: 12px; font-family: 'Georgia', 'Times New Roman', 'DejaVu Serif', serif; text-anchor: middle; fill: #5c554a" x="408.560769" y="268.59125" transform="rotate(-0 408.560769 268.59125)">5</text>
     </g>
    </g>
    <g id="xtick_14">
     <g id="line2d_15">
      <g>
       <use xlink:href="#m5d2a9cdbc7" x="483.203832" y="252.52" style="fill: #5c554a; stroke: #5c554a; stroke-width: 0.8"/>
      </g>
     </g>
     <g id="text_7">
      <text style="font-size: 12px; font-family: 'Georgia', 'Times New Roman', 'DejaVu Serif', serif; text-anchor: middle; fill: #5c554a" x="483.203832" y="268.59125" transform="rotate(-0 483.203832 268.59125)">6</text>
     </g>
    </g>
    <g id="text_8">
     <text style="font-size: 12px; font-family: 'Georgia', 'Times New Roman', 'DejaVu Serif', serif; text-anchor: middle; fill: #5c554a" x="259.2" y="284.265" transform="rotate(-0 259.2 284.265)">time (s)</text>
    </g>
   </g>
   <g id="matplotlib.axis_4"/>
   <g id="line2d_16">
    <path d="M 35.345455 231.435346 
L 35.644027 229.965402 
L 35.793313 230.270038 
L 36.390457 233.803158 
L 36.539744 232.888382 
L 37.136888 226.803139 
L 37.286174 227.918797 
L 38.032605 240.375101 
L 38.181891 239.437185 
L 38.779035 231.746107 
L 38.928322 232.177854 
L 39.37618 236.416294 
L 39.525466 236.477419 
L 39.674752 235.31142 
L 40.271897 228.06815 
L 40.421183 228.208023 
L 40.869041 230.99249 
L 41.018327 230.840512 
L 41.3169 228.043762 
L 41.615472 225.102449 
L 41.764758 224.849642 
L 41.914044 225.540674 
L 42.361902 228.548389 
L 42.511189 228.067393 
L 43.257619 221.108253 
L 43.406905 222.084707 
L 43.854764 227.041482 
L 44.00405 227.472102 
L 44.153336 226.932081 
L 44.601194 223.904708 
L 44.75048 224.224181 
L 45.049053 227.464107 
L 45.347625 230.66295 
L 45.496911 230.802779 
L 45.646197 229.72717 
L 46.243342 222.78965 
L 46.392628 222.947158 
L 46.840486 225.93999 
L 46.989772 226.033067 
L 47.288345 224.200784 
L 47.586917 222.713495 
L 47.736203 223.132171 
L 48.184061 226.549838 
L 48.333347 226.475771 
L 48.63192 222.952489 
L 48.930492 218.473203 
L 49.079778 217.880556 
L 49.229064 219.04034 
L 49.975495 232.304234 
L 50.124781 231.134352 
L 50.721925 221.020826 
L 50.871212 220.799698 
L 51.169784 223.057872 
L 51.468356 224.523172 
L 51.617642 223.975472 
L 52.065501 220.900285 
L 52.214787 221.073755 
L 52.513359 223.656924 
L 52.811931 226.049999 
L 52.961217 226.10386 
L 53.558362 223.659904 
L 53.707648 224.668618 
L 54.155506 229.916365 
L 54.304793 230.185614 
L 54.454079 228.94119 
L 55.200509 216.627194 
L 55.349795 217.389381 
L 55.94694 224.504306 
L 56.096226 224.316871 
L 56.693371 220.649352 
L 56.842657 221.224084 
L 57.290515 224.120626 
L 57.439801 223.967149 
L 58.036946 220.188397 
L 58.186232 220.734952 
L 58.783376 226.091395 
L 58.932662 225.556238 
L 59.529807 219.151325 
L 59.679093 219.470435 
L 60.276238 226.020981 
L 60.425524 225.916388 
L 60.724096 222.791311 
L 61.022668 219.890974 
L 61.171954 219.940837 
L 61.470527 222.83867 
L 61.769099 225.488791 
L 61.918385 225.290434 
L 62.216957 221.916149 
L 62.515529 218.555202 
L 62.664816 218.411695 
L 62.814102 219.492983 
L 63.26196 224.978271 
L 63.411246 225.41424 
L 63.560532 224.700158 
L 64.008391 220.522361 
L 64.157677 220.564444 
L 64.456249 223.719091 
L 64.754821 227.180563 
L 64.904107 227.485844 
L 65.053394 226.651442 
L 65.501252 223.031476 
L 65.650538 223.820754 
L 65.94911 229.336137 
L 66.247683 235.59306 
L 66.396969 237.095436 
L 66.546255 237.148983 
L 67.143399 232.755218 
L 67.292685 233.077966 
L 67.591258 234.665386 
L 67.740544 234.64562 
L 67.88983 233.409682 
L 68.188402 227.503243 
L 68.636261 218.510368 
L 69.233405 213.727835 
L 69.531977 205.560788 
L 70.129122 185.006055 
L 70.427694 181.435017 
L 70.726266 178.88873 
L 71.024839 172.418181 
L 71.472697 160.366369 
L 71.621983 158.846788 
L 71.771269 159.16939 
L 72.368414 165.548757 
L 72.5177 164.664244 
L 73.114844 156.636265 
L 73.26413 156.786484 
L 73.562703 159.885217 
L 74.010561 164.060592 
L 74.309133 166.319271 
L 74.607706 172.561661 
L 75.354136 195.100127 
L 75.652708 196.718659 
L 75.801995 197.120564 
L 75.951281 198.43319 
L 76.249853 205.504375 
L 76.846997 223.344582 
L 76.996284 224.475121 
L 77.14557 224.256255 
L 77.444142 222.875452 
L 77.593428 223.179365 
L 77.892 226.664606 
L 78.190573 230.505024 
L 78.339859 230.954526 
L 78.489145 230.139747 
L 78.937003 225.166759 
L 79.086289 224.898718 
L 79.235575 225.778298 
L 79.683434 229.959167 
L 79.83272 229.691525 
L 80.131292 225.974965 
L 80.429865 222.064805 
L 80.579151 221.580208 
L 80.728437 222.259729 
L 81.176295 226.185438 
L 81.325581 226.09702 
L 81.624154 223.188482 
L 81.922726 220.433426 
L 82.072012 220.494535 
L 82.669156 224.860167 
L 82.818443 223.891242 
L 83.564873 213.457102 
L 83.714159 214.230279 
L 84.162018 219.134799 
L 84.311304 219.597573 
L 84.46059 219.132049 
L 84.908448 216.380209 
L 85.057734 216.459326 
L 85.505593 218.33796 
L 85.654879 217.863277 
L 85.953451 214.116525 
L 86.252023 209.925645 
L 86.40131 209.365581 
L 86.550596 210.305304 
L 87.297026 220.812891 
L 87.446312 220.102837 
L 88.043457 214.752858 
L 88.192743 215.147517 
L 88.491315 216.91996 
L 88.640601 217.129698 
L 88.789888 216.430786 
L 89.237746 212.297436 
L 89.387032 212.422473 
L 89.536318 213.984669 
L 90.133463 224.113476 
L 90.282749 223.854239 
L 90.581321 219.075732 
L 90.879893 213.835705 
L 91.029179 213.048724 
L 91.178466 213.851072 
L 91.77561 221.246182 
L 91.924896 220.697481 
L 92.522041 213.336048 
L 92.671327 213.303616 
L 92.969899 215.894328 
L 93.268471 218.328095 
L 93.417757 218.459014 
L 93.865616 216.839805 
L 94.014902 217.092376 
L 94.612046 221.01623 
L 94.761333 220.444639 
L 95.358477 213.9537 
L 95.507763 214.174564 
L 95.806335 217.509055 
L 96.104908 220.145716 
L 96.254194 219.629292 
L 96.552766 215.183048 
L 96.851338 210.799751 
L 97.000624 210.340906 
L 97.149911 211.259984 
L 97.747055 217.913534 
L 97.896341 217.670884 
L 98.3442 214.751728 
L 98.493486 214.94103 
L 98.792058 218.004732 
L 99.09063 221.386535 
L 99.239916 221.837502 
L 99.389202 221.2838 
L 99.837061 218.214326 
L 99.986347 218.517559 
L 100.583491 223.502734 
L 100.732778 222.860224 
L 101.03135 218.41657 
L 101.329922 214.059253 
L 101.479208 213.544896 
L 101.628494 214.34375 
L 102.076353 219.128558 
L 102.225639 219.300854 
L 102.524211 216.680382 
L 102.822783 214.017999 
L 102.972069 214.207962 
L 103.270642 217.825715 
L 103.569214 221.954604 
L 103.7185 222.67237 
L 103.867786 222.259361 
L 104.315645 218.950531 
L 104.464931 219.11048 
L 104.763503 221.935067 
L 105.062075 224.343169 
L 105.211361 224.014244 
L 105.509934 220.561581 
L 105.808506 217.496799 
L 105.957792 217.496189 
L 106.554936 221.649638 
L 106.704223 220.698975 
L 107.301367 212.974319 
L 107.450653 213.554205 
L 107.749225 218.472387 
L 108.047798 223.209586 
L 108.197084 223.701792 
L 108.34637 222.787975 
L 108.794228 217.820898 
L 108.943515 217.729767 
L 109.242087 220.563844 
L 109.540659 223.29335 
L 109.689945 223.083616 
L 109.988517 219.58659 
L 110.28709 216.339447 
L 110.436376 216.477544 
L 110.734948 220.322869 
L 111.03352 224.202047 
L 111.182806 224.252242 
L 111.332093 222.741606 
L 111.929237 213.338267 
L 112.078523 213.486463 
L 112.377095 216.756298 
L 112.675668 219.549124 
L 112.824954 219.578754 
L 113.272812 217.035033 
L 113.422098 217.106185 
L 113.720671 219.636707 
L 114.019243 222.257162 
L 114.168529 222.313143 
L 114.467101 219.947177 
L 114.765673 218.044211 
L 114.91496 218.639527 
L 115.512104 225.847317 
L 115.66139 225.664295 
L 115.959962 221.912333 
L 116.258535 218.175789 
L 116.407821 217.950383 
L 116.706393 220.742557 
L 117.004965 223.562301 
L 117.154251 223.396206 
L 117.452824 219.901797 
L 117.751396 216.310742 
L 117.900682 216.022037 
L 118.049968 216.898497 
L 118.497827 221.160436 
L 118.647113 221.042201 
L 118.945685 217.753244 
L 119.244257 214.063992 
L 119.393543 213.538367 
L 119.542829 214.126839 
L 120.139974 219.486401 
L 120.28926 219.703495 
L 120.587832 219.572615 
L 120.737118 220.031362 
L 121.334263 224.071056 
L 121.483549 223.236587 
L 121.782121 218.069469 
L 122.080694 212.550159 
L 122.22998 211.672191 
L 122.379266 212.543448 
L 122.97641 221.99527 
L 123.125696 221.818545 
L 123.424269 217.354992 
L 123.722841 212.616885 
L 123.872127 212.105855 
L 124.021413 213.1549 
L 124.618558 221.617401 
L 124.767844 221.815622 
L 125.215702 220.136588 
L 125.364988 220.759246 
L 125.962133 226.848539 
L 126.111419 226.370869 
L 126.409991 222.254981 
L 126.708563 218.212946 
L 126.85785 217.635219 
L 127.007136 218.049627 
L 127.305708 219.68327 
L 127.454994 219.615692 
L 127.60428 218.489538 
L 128.201425 211.134104 
L 128.350711 211.443435 
L 128.649283 214.996131 
L 128.947855 218.105189 
L 129.097141 218.062194 
L 129.395714 215.123806 
L 129.694286 212.765441 
L 129.843572 213.374525 
L 130.142144 218.104411 
L 130.440717 223.177535 
L 130.590003 224.12597 
L 130.739289 223.707215 
L 131.336433 217.885552 
L 131.485719 218.012923 
L 131.933578 220.700389 
L 132.082864 220.758268 
L 132.381436 219.077924 
L 132.530722 218.244575 
L 132.680008 218.156495 
L 132.829295 219.116881 
L 133.426439 226.418555 
L 133.575725 225.881426 
L 133.874297 220.722692 
L 134.17287 214.852977 
L 134.322156 213.694003 
L 134.471442 214.222209 
L 134.770014 219.068873 
L 135.217873 226.306102 
L 135.815017 231.145841 
L 136.262876 236.68422 
L 136.412162 237.161122 
L 136.561448 236.436472 
L 137.158592 230.032478 
L 137.307878 230.600513 
L 138.054309 238.836078 
L 138.203595 237.367848 
L 139.099312 223.264889 
L 139.397884 220.804804 
L 139.696456 215.137504 
L 140.293601 201.016725 
L 140.592173 198.269551 
L 140.890745 195.677683 
L 141.189318 189.776105 
L 141.637176 178.969328 
L 141.935748 176.481213 
L 142.234321 176.53048 
L 142.383607 175.665256 
L 142.682179 169.763484 
L 143.279323 154.117198 
L 143.42861 153.602949 
L 143.577896 154.74781 
L 144.17504 162.599593 
L 144.622899 164.586144 
L 144.921471 169.333657 
L 145.518615 182.144779 
L 145.667901 183.159174 
L 145.817188 183.286686 
L 145.966474 183.134209 
L 146.11576 183.420248 
L 146.265046 184.72796 
L 146.563618 191.005839 
L 147.160763 206.64568 
L 147.907193 221.059614 
L 148.355052 229.733841 
L 148.504338 230.414573 
L 148.653624 229.924314 
L 149.101482 227.191552 
L 149.250768 227.809572 
L 149.549341 231.775286 
L 149.847913 235.748607 
L 149.997199 236.371882 
L 150.146485 235.908605 
L 150.74363 231.809073 
L 150.892916 232.152741 
L 151.191488 233.576142 
L 151.340774 233.720789 
L 151.49006 233.119732 
L 152.087205 229.120284 
L 152.236491 229.833443 
L 152.684349 233.716742 
L 152.833635 233.451351 
L 153.132208 229.20474 
L 153.43078 224.00069 
L 153.580066 223.036638 
L 153.729352 223.686578 
L 154.326497 231.49052 
L 154.475783 230.723874 
L 154.774355 224.702634 
L 155.072927 217.991727 
L 155.222213 216.461454 
L 155.3715 216.548615 
L 155.968644 222.532271 
L 156.11793 222.464308 
L 156.565789 220.22818 
L 156.715075 220.750483 
L 157.013647 224.608333 
L 157.312219 228.457067 
L 157.461505 228.75132 
L 157.610791 227.66737 
L 158.207936 219.674198 
L 158.357222 219.475276 
L 158.954367 221.723288 
L 159.402225 219.977298 
L 159.551511 220.386707 
L 159.850083 224.577863 
L 160.297942 232.438007 
L 160.447228 232.734561 
L 160.596514 231.452538 
L 161.193658 222.649487 
L 161.342945 222.583941 
L 161.940089 225.527571 
L 162.238661 223.007167 
L 162.537234 219.895198 
L 162.68652 219.354202 
L 162.835806 219.659199 
L 163.134378 221.246496 
L 163.283664 221.389178 
L 163.43295 220.588745 
L 164.030095 214.872654 
L 164.179381 215.860187 
L 164.925812 226.495111 
L 165.075098 225.151601 
L 165.672242 215.816777 
L 165.821528 215.700548 
L 166.418673 218.862685 
L 166.567959 218.265895 
L 166.866531 216.271295 
L 167.015817 216.029713 
L 167.165104 216.833875 
L 167.911534 225.445528 
L 168.06082 224.812763 
L 168.508679 221.319798 
L 168.657965 221.459251 
L 169.105823 224.675239 
L 169.255109 224.531776 
L 169.404395 223.006679 
L 170.00154 212.533818 
L 170.150826 212.565942 
L 170.449398 216.767531 
L 170.747971 221.339007 
L 170.897257 221.937474 
L 171.046543 221.221098 
L 171.494401 217.203777 
L 171.643687 217.554713 
L 171.94226 221.469054 
L 172.240832 225.292607 
L 172.390118 225.473683 
L 172.539404 224.292353 
L 172.987262 218.490287 
L 173.136549 218.218363 
L 173.285835 219.26028 
L 173.733693 224.92995 
L 173.882979 225.448218 
L 174.032265 224.825715 
L 174.480124 220.696097 
L 174.62941 220.426718 
L 174.778696 221.02404 
L 175.226554 223.495528 
L 175.37584 222.955464 
L 175.972985 218.523783 
L 176.122271 219.544991 
L 176.719416 227.368991 
L 176.868702 226.687843 
L 177.167274 221.050289 
L 177.465846 214.783823 
L 177.615132 213.433184 
L 177.764418 213.661839 
L 178.510849 220.063281 
L 178.958707 217.959193 
L 179.107994 218.183352 
L 179.406566 220.698874 
L 179.705138 223.025452 
L 179.854424 223.008567 
L 180.451569 219.561248 
L 180.600855 220.487272 
L 181.347285 229.760464 
L 181.496572 228.549306 
L 182.093716 219.535153 
L 182.243002 219.232876 
L 182.541574 220.893764 
L 182.690861 221.694748 
L 182.840147 221.84151 
L 183.138719 220.294946 
L 183.288005 219.47205 
L 183.437291 219.346743 
L 183.586577 220.21158 
L 184.183722 226.499754 
L 184.333008 225.687062 
L 184.63158 220.300667 
L 184.930152 214.763545 
L 185.079439 213.887768 
L 185.228725 214.651552 
L 185.975155 224.333969 
L 186.124441 224.327014 
L 186.273728 224.098262 
L 186.423014 224.214793 
L 186.5723 225.041945 
L 187.169444 231.411305 
L 187.31873 231.52608 
L 187.617303 229.347259 
L 187.915875 227.177687 
L 188.065161 227.162887 
L 188.513019 229.539103 
L 188.662306 229.335166 
L 188.811592 227.949172 
L 189.558022 217.225667 
L 189.707308 218.108568 
L 190.155167 223.343631 
L 190.304453 223.72237 
L 190.453739 223.043404 
L 190.901598 220.054604 
L 191.050884 220.70878 
L 191.648028 227.457783 
L 191.797314 227.002404 
L 192.095887 222.746142 
L 192.394459 218.805714 
L 192.543745 218.627101 
L 192.693031 219.797325 
L 193.290176 226.946055 
L 193.439462 227.007366 
L 193.88732 225.696777 
L 194.036606 226.009435 
L 194.335178 227.26008 
L 194.484465 227.215052 
L 194.633751 226.167707 
L 195.380181 216.864866 
L 195.529467 218.505317 
L 196.275898 231.91169 
L 196.425184 230.632798 
L 197.022329 221.925623 
L 197.171615 222.429612 
L 197.768759 228.444463 
L 197.918045 227.802804 
L 198.664476 220.458349 
L 198.963048 220.69892 
L 199.112334 220.420413 
L 199.410907 217.934334 
L 199.709479 215.263144 
L 199.858765 215.383018 
L 200.008051 216.952965 
L 200.754482 229.677362 
L 200.903768 228.913831 
L 201.500912 221.675842 
L 201.650199 221.671439 
L 202.098057 224.224413 
L 202.247343 224.155521 
L 202.545915 221.878302 
L 202.844488 220.031672 
L 202.993774 220.570466 
L 203.292346 224.544515 
L 203.590918 228.704783 
L 203.740204 229.496248 
L 203.88949 229.317329 
L 204.188063 227.872762 
L 204.337349 227.778224 
L 204.486635 228.554826 
L 204.934493 232.951836 
L 205.083779 232.993653 
L 205.233066 231.553265 
L 205.979496 218.58439 
L 206.128782 219.688087 
L 207.024499 233.684026 
L 207.323071 233.250001 
L 207.472357 233.416176 
L 207.77093 235.400072 
L 208.069502 237.56304 
L 208.218788 237.773189 
L 208.51736 236.547306 
L 208.666646 235.944327 
L 208.815933 235.969325 
L 208.965219 236.81439 
L 209.413077 241.041164 
L 209.562363 241.069141 
L 209.711649 239.755778 
L 210.45808 227.377769 
L 210.607366 226.949977 
L 210.756652 226.892116 
L 210.905938 226.475509 
L 211.055224 225.044794 
L 211.353797 218.275199 
L 211.950941 202.634426 
L 212.548086 195.333836 
L 212.846658 184.976235 
L 213.443802 162.334244 
L 213.593089 160.600092 
L 213.742375 160.542968 
L 214.190233 163.187615 
L 214.339519 163.08001 
L 214.787378 161.118311 
L 214.936664 161.401267 
L 215.235236 163.919963 
L 215.533808 166.289393 
L 215.683094 166.488977 
L 215.981667 165.645884 
L 216.130953 165.822807 
L 216.280239 167.311863 
L 216.578811 175.28969 
L 217.175956 196.326871 
L 217.474528 199.970003 
L 217.7731 202.093874 
L 218.071672 207.424944 
L 218.519531 217.250482 
L 218.668817 218.527068 
L 218.818103 218.558639 
L 219.116675 217.528077 
L 219.265961 218.195979 
L 219.564534 224.119958 
L 220.012392 236.318577 
L 220.161678 237.807043 
L 220.310964 237.42786 
L 220.908109 230.998974 
L 221.057395 231.870578 
L 221.654539 240.060094 
L 221.803826 239.972822 
L 222.102398 236.791186 
L 222.40097 233.703156 
L 222.550256 233.33082 
L 222.998115 234.270598 
L 223.147401 233.638452 
L 223.893831 227.005328 
L 224.34169 229.281404 
L 224.490976 229.020368 
L 224.789548 224.900188 
L 225.237406 217.215378 
L 225.386693 216.978739 
L 225.535979 218.186969 
L 225.983837 223.951013 
L 226.133123 224.107629 
L 226.282409 222.889034 
L 226.730268 216.58786 
L 226.879554 216.147951 
L 227.02884 217.215087 
L 227.625984 226.087263 
L 227.775271 226.021829 
L 228.073843 222.566538 
L 228.372415 219.059294 
L 228.521701 218.659553 
L 228.670987 219.205392 
L 229.118846 221.8585 
L 229.268132 221.75048 
L 229.566704 220.623514 
L 229.71599 220.549892 
L 229.865276 221.262868 
L 230.462421 226.521574 
L 230.611707 225.98147 
L 231.208851 220.240129 
L 231.358138 220.921782 
L 231.955282 228.386838 
L 232.104568 227.919099 
L 232.40314 223.216471 
L 232.701713 218.377402 
L 232.850999 217.635042 
L 233.000285 218.174637 
L 233.448143 221.636572 
L 233.597429 221.245855 
L 234.194574 215.505504 
L 234.34386 216.150343 
L 235.090291 224.699033 
L 235.388863 222.793271 
L 235.538149 221.945221 
L 235.687435 222.147892 
L 235.836721 223.755463 
L 236.433866 235.134595 
L 236.583152 235.248144 
L 236.732438 233.500396 
L 237.329583 221.568433 
L 237.478869 220.988666 
L 237.628155 221.595992 
L 238.076013 224.36037 
L 238.225299 224.114721 
L 238.523872 222.699789 
L 238.673158 222.518992 
L 238.822444 223.11954 
L 239.419588 227.549895 
L 239.568874 226.842973 
L 240.166019 221.510615 
L 240.315305 222.374202 
L 240.91245 228.765124 
L 241.061736 227.566485 
L 241.808166 215.472124 
L 241.957452 216.840222 
L 242.554597 225.656691 
L 242.703883 224.73477 
L 243.450314 213.815811 
L 243.5996 214.895829 
L 244.34603 225.226194 
L 244.644603 226.276104 
L 244.943175 226.611753 
L 245.092461 226.41972 
L 245.241747 225.688275 
L 245.54032 222.172948 
L 245.988178 216.455208 
L 246.137464 216.576204 
L 246.436036 220.857201 
L 246.883895 228.426339 
L 247.033181 228.561703 
L 247.331753 225.023531 
L 247.630325 220.602653 
L 247.779611 219.576512 
L 247.928898 219.554022 
L 248.376756 221.374813 
L 248.526042 220.959246 
L 248.9739 217.328435 
L 249.123187 217.332186 
L 249.272473 218.749054 
L 250.018903 231.42232 
L 250.168189 230.645507 
L 250.765334 223.066651 
L 250.91462 222.785265 
L 251.213192 223.485157 
L 251.362478 223.364298 
L 251.511765 222.456544 
L 252.108909 216.789634 
L 252.258195 217.371601 
L 252.556767 221.426457 
L 252.85534 225.367145 
L 253.004626 225.834843 
L 253.153912 225.084405 
L 253.751056 219.041681 
L 253.900343 219.195641 
L 254.497487 222.712541 
L 254.646773 222.416987 
L 254.945345 220.98945 
L 255.094632 220.846504 
L 255.243918 221.579356 
L 255.841062 228.123732 
L 255.990348 227.902823 
L 256.288921 224.024756 
L 256.736779 218.017598 
L 256.886065 217.779141 
L 257.184637 219.105623 
L 257.48321 220.010245 
L 257.781782 219.707286 
L 257.931068 219.88077 
L 258.080354 220.754084 
L 258.826785 228.06564 
L 258.976071 226.452816 
L 259.722501 212.057578 
L 259.871788 212.375465 
L 260.319646 216.491107 
L 260.468932 216.630643 
L 260.767504 214.465873 
L 260.91679 213.41464 
L 261.066077 213.390422 
L 261.215363 214.816985 
L 261.961793 227.318044 
L 262.111079 226.085222 
L 262.708224 216.799424 
L 262.85751 216.931072 
L 263.454655 221.751768 
L 263.603941 221.101492 
L 264.051799 216.793027 
L 264.201085 216.634661 
L 264.350371 217.574979 
L 264.79823 222.253387 
L 264.947516 222.403501 
L 265.246088 219.798553 
L 265.54466 217.044372 
L 265.693946 217.113879 
L 265.992519 220.474844 
L 266.440377 225.732748 
L 266.589663 225.77467 
L 267.037522 223.636798 
L 267.186808 223.664041 
L 267.634666 225.56326 
L 267.783952 225.190353 
L 268.082524 221.352538 
L 268.530383 214.899694 
L 268.679669 214.982149 
L 268.978241 218.56192 
L 269.276813 222.223578 
L 269.4261 222.488063 
L 269.575386 221.553404 
L 270.023244 217.355002 
L 270.17253 217.770962 
L 270.471102 222.180726 
L 270.769675 227.142415 
L 270.918961 227.991702 
L 271.068247 227.324876 
L 271.814678 217.37546 
L 271.963964 217.233235 
L 272.262536 217.750869 
L 272.411822 217.639227 
L 272.710394 216.700231 
L 272.85968 216.698891 
L 273.008967 217.637333 
L 273.307539 222.692003 
L 273.755397 230.608473 
L 273.904683 230.783391 
L 274.203256 227.269639 
L 274.501828 223.139707 
L 274.651114 222.483419 
L 274.8004 222.9498 
L 275.248259 225.866879 
L 275.397545 225.419458 
L 275.994689 220.795152 
L 276.143975 222.182069 
L 276.890406 236.482888 
L 277.039692 235.934273 
L 277.636837 228.586198 
L 277.786123 228.713753 
L 278.383267 232.944311 
L 278.532553 232.616561 
L 278.980412 230.616835 
L 279.129698 231.275799 
L 279.876128 238.619971 
L 280.025415 237.598697 
L 280.622559 230.834517 
L 281.070417 229.75978 
L 281.219704 228.178499 
L 281.518276 221.491063 
L 281.966134 210.977247 
L 282.11542 209.974491 
L 282.264706 210.3055 
L 282.563279 211.940032 
L 282.712565 211.408346 
L 282.861851 209.167204 
L 283.309709 194.891602 
L 283.608282 186.796054 
L 283.906854 183.494586 
L 284.205426 180.847953 
L 284.503998 174.110318 
L 285.101143 157.605942 
L 285.250429 156.44764 
L 285.399715 156.674593 
L 285.99686 160.313911 
L 286.295432 160.420351 
L 286.444718 161.126274 
L 286.74329 165.583616 
L 287.340435 178.251651 
L 287.639007 180.399362 
L 287.788293 181.164173 
L 287.937579 182.555377 
L 288.236151 188.563656 
L 288.833296 204.748271 
L 289.131868 208.234358 
L 289.43044 210.614356 
L 289.878299 217.704357 
L 290.176871 221.548085 
L 290.326157 221.942518 
L 290.774016 220.02754 
L 290.923302 220.605516 
L 291.221874 225.86413 
L 291.669732 236.16724 
L 291.819018 237.299089 
L 291.968305 236.907567 
L 292.416163 232.85577 
L 292.565449 232.921768 
L 292.864021 235.957696 
L 293.162594 238.671607 
L 293.31188 238.279054 
L 293.610452 233.797194 
L 293.909024 228.492386 
L 294.05831 227.207707 
L 294.207596 227.118789 
L 294.655455 229.403947 
L 294.804741 228.995549 
L 295.103313 225.423807 
L 295.401885 221.362137 
L 295.551172 220.466946 
L 295.700458 220.523404 
L 296.148316 222.399053 
L 296.297602 222.051748 
L 296.894747 218.70091 
L 297.044033 219.439157 
L 297.491891 223.333596 
L 297.641177 223.183655 
L 297.93975 219.233018 
L 298.387608 212.595829 
L 298.536894 212.909562 
L 298.835466 217.495701 
L 299.134039 222.603417 
L 299.283325 223.579997 
L 299.432611 223.223359 
L 300.029755 218.234678 
L 300.179041 218.530787 
L 300.6269 220.608953 
L 300.776186 220.061018 
L 301.373331 215.456986 
L 301.522617 216.563478 
L 302.269047 228.020272 
L 302.418333 227.534039 
L 302.866192 223.528585 
L 303.015478 223.418523 
L 303.31405 225.680804 
L 303.612622 227.418489 
L 303.761909 226.634863 
L 304.060481 221.826664 
L 304.359053 216.8842 
L 304.508339 215.987664 
L 304.657625 216.372706 
L 305.105484 220.170101 
L 305.25477 220.178103 
L 305.553342 217.228121 
L 305.851914 213.719604 
L 306.0012 213.216909 
L 306.150487 213.804105 
L 306.598345 217.869473 
L 306.747631 218.135421 
L 306.896917 217.493849 
L 307.195489 215.22224 
L 307.344776 214.893101 
L 307.494062 215.73675 
L 308.240492 225.509445 
L 308.389778 224.725955 
L 308.837637 219.871421 
L 308.986923 219.739197 
L 309.136209 220.841162 
L 309.584067 226.197882 
L 309.733354 226.27368 
L 309.88264 224.916903 
L 310.479784 215.752387 
L 310.62907 215.539393 
L 311.076929 217.949507 
L 311.226215 217.680917 
L 311.524787 214.464821 
L 311.823359 211.325914 
L 311.972645 211.287181 
L 312.271218 214.365774 
L 312.56979 217.587616 
L 312.719076 217.677867 
L 313.017648 214.763282 
L 313.316221 211.974524 
L 313.465507 212.277451 
L 313.764079 216.416049 
L 314.062651 220.894289 
L 314.211937 221.457734 
L 314.361223 220.577282 
L 314.958368 213.392817 
L 315.107654 213.632865 
L 315.704799 218.25941 
L 315.854085 218.256585 
L 316.152657 217.659216 
L 316.301943 218.017327 
L 316.600515 220.896617 
L 316.899088 223.882074 
L 317.048374 223.854417 
L 317.19766 222.376682 
L 317.794804 211.721968 
L 317.94409 211.525117 
L 318.242663 215.118595 
L 318.541235 219.244073 
L 318.690521 219.823759 
L 318.839807 219.272458 
L 319.138379 216.931864 
L 319.287666 216.556121 
L 319.436952 217.292975 
L 320.034096 223.328414 
L 320.183382 222.222342 
L 320.929813 209.538875 
L 321.079099 210.285049 
L 321.676244 216.548744 
L 321.82553 215.924344 
L 322.273388 212.008567 
L 322.422674 212.119769 
L 322.721246 215.264535 
L 323.019819 218.817316 
L 323.169105 219.434444 
L 323.318391 219.158648 
L 323.616963 217.63526 
L 323.766249 217.52079 
L 323.915535 218.312302 
L 324.51268 224.244752 
L 324.661966 223.753711 
L 325.259111 216.902373 
L 325.408397 217.02867 
L 325.706969 220.289182 
L 326.005541 223.299389 
L 326.154827 223.222942 
L 326.4534 220.027158 
L 326.751972 216.689726 
L 326.901258 216.338392 
L 327.050544 216.946859 
L 327.349116 219.107997 
L 327.498402 219.434372 
L 327.647689 218.774428 
L 328.095547 214.175932 
L 328.244833 214.053909 
L 328.394119 215.475544 
L 329.14055 227.801658 
L 329.289836 226.495299 
L 329.886981 216.802388 
L 330.036267 216.638005 
L 330.484125 219.468304 
L 330.633411 219.345797 
L 330.931983 216.261983 
L 331.230556 212.769983 
L 331.379842 212.337812 
L 331.529128 213.029347 
L 331.976986 217.456888 
L 332.126272 217.79965 
L 332.275559 217.201655 
L 332.574131 215.019022 
L 332.723417 214.804435 
L 332.872703 215.822392 
L 333.619134 225.29749 
L 333.917706 221.854828 
L 334.216278 218.228571 
L 334.365564 218.14727 
L 334.664137 221.543648 
L 334.962709 225.070285 
L 335.111995 225.081205 
L 335.410567 221.316066 
L 335.709139 216.819631 
L 335.858426 216.051074 
L 336.007712 216.54437 
L 336.45557 220.373664 
L 336.604856 220.186385 
L 336.903428 216.619718 
L 337.202001 212.873575 
L 337.351287 212.645295 
L 337.500573 213.781587 
L 338.097717 221.069976 
L 338.247004 220.951732 
L 338.694862 218.810794 
L 338.844148 219.170363 
L 339.441293 222.699069 
L 339.590579 221.812435 
L 340.187723 216.180784 
L 340.337009 216.846361 
L 340.784868 221.322278 
L 340.934154 221.237211 
L 341.08344 219.645187 
L 341.680584 209.061112 
L 341.829871 209.307133 
L 342.128443 214.359498 
L 342.427015 220.104483 
L 342.576301 221.194052 
L 342.725587 220.794125 
L 343.173446 216.789806 
L 343.322732 217.100675 
L 343.621304 221.299994 
L 343.919876 225.871988 
L 344.069162 226.487144 
L 344.218449 225.68521 
L 344.815593 218.878291 
L 344.964879 218.974984 
L 345.412738 221.172765 
L 345.562024 220.686878 
L 345.860596 217.148237 
L 346.159168 213.712429 
L 346.308454 213.488806 
L 346.45774 214.497573 
L 347.054885 221.86184 
L 347.204171 222.227243 
L 347.652029 221.498816 
L 347.801316 222.018662 
L 348.39846 225.593957 
L 348.547746 224.907059 
L 348.995605 220.894794 
L 349.144891 221.022932 
L 349.294177 222.576459 
L 350.040607 234.379458 
L 350.189894 233.467155 
L 350.637752 228.182181 
L 350.787038 227.846856 
L 350.936324 228.625134 
L 351.384183 232.530271 
L 351.533469 232.315785 
L 351.832041 228.83156 
L 352.130613 224.829095 
L 352.279899 224.001158 
L 352.429185 224.049392 
L 352.578472 224.490312 
L 352.727758 224.561139 
L 352.877044 223.507248 
L 353.175616 216.727174 
L 353.772761 198.171217 
L 354.071333 194.4514 
L 354.369905 191.17185 
L 354.668477 184.41883 
L 355.116336 172.715967 
L 355.414908 169.902059 
L 355.71348 169.252201 
L 355.862766 167.878003 
L 356.161339 161.062705 
L 356.609197 147.962086 
L 356.758483 146.04732 
L 356.907769 146.040455 
L 357.206342 150.272905 
L 357.6542 157.864728 
L 358.102058 163.738672 
L 359.296347 185.659306 
L 359.59492 190.278844 
L 360.490636 214.233185 
L 360.639922 214.805272 
L 360.789209 214.74471 
L 360.938495 214.958061 
L 361.087781 216.248524 
L 361.386353 223.026245 
L 361.834211 234.47721 
L 361.983498 235.397906 
L 362.132784 234.581095 
L 362.580642 229.567351 
L 362.729928 229.905098 
L 363.0285 234.568892 
L 363.327073 239.454864 
L 363.476359 239.881585 
L 363.625645 238.575387 
L 364.222789 228.516705 
L 364.372076 228.347557 
L 364.96922 231.645898 
L 365.267792 228.60749 
L 365.566365 224.793881 
L 365.715651 224.016464 
L 365.864937 224.167341 
L 366.163509 225.434979 
L 366.312795 225.250821 
L 366.462081 223.925298 
L 367.059226 214.182098 
L 367.208512 214.125599 
L 367.507084 218.443843 
L 367.805656 224.004575 
L 367.954943 225.328409 
L 368.104229 225.327411 
L 368.701373 221.890525 
L 368.999945 223.783442 
L 369.298518 225.136386 
L 369.447804 224.295323 
L 370.194234 215.327528 
L 370.343521 216.138391 
L 370.791379 219.55653 
L 370.940665 218.827011 
L 371.53781 211.279731 
L 371.687096 211.945321 
L 371.985668 217.761449 
L 372.28424 224.416686 
L 372.433526 225.885352 
L 372.582812 225.602352 
L 372.881385 221.231346 
L 373.179957 216.851636 
L 373.329243 216.211552 
L 373.478529 216.715516 
L 374.075674 220.886926 
L 374.22496 220.797633 
L 374.374246 220.520631 
L 374.523532 220.482537 
L 374.672818 220.974105 
L 375.269963 224.438939 
L 375.419249 223.637402 
L 376.016393 216.656384 
L 376.165679 216.775436 
L 376.464252 220.274462 
L 376.762824 224.20044 
L 376.91211 224.746204 
L 377.061396 224.073685 
L 377.658541 218.612637 
L 377.807827 218.96099 
L 378.255685 221.520861 
L 378.404971 221.199864 
L 379.002116 216.962339 
L 379.151402 217.902534 
L 379.897833 229.067834 
L 380.047119 228.665823 
L 380.644263 222.75695 
L 380.793549 222.821366 
L 381.241408 225.286753 
L 381.390694 225.06076 
L 381.689266 221.974212 
L 381.987838 218.505964 
L 382.137124 218.029183 
L 382.286411 218.634303 
L 382.734269 222.613133 
L 382.883555 222.769908 
L 383.032841 221.95131 
L 383.4807 217.760824 
L 383.629986 217.418872 
L 383.779272 217.840492 
L 384.077844 219.323392 
L 384.22713 219.341061 
L 384.376416 218.505739 
L 384.824275 214.548903 
L 384.973561 214.944139 
L 385.272133 220.183894 
L 385.719992 229.923059 
L 385.869278 230.400021 
L 386.018564 229.004302 
L 386.615708 218.237742 
L 386.764994 218.121452 
L 387.063567 221.690232 
L 387.362139 225.52793 
L 387.511425 225.899014 
L 387.660711 225.079857 
L 388.10857 220.684058 
L 388.257856 220.396923 
L 388.556428 221.70912 
L 388.705714 222.311538 
L 388.855 222.246618 
L 389.153572 220.043579 
L 389.452145 218.102896 
L 389.601431 218.52731 
L 389.900003 222.099021 
L 390.198575 225.298702 
L 390.347861 225.272754 
L 390.646434 222.098774 
L 390.945006 219.003752 
L 391.094292 219.048582 
L 391.392864 222.337365 
L 391.691437 225.85853 
L 391.840723 226.20525 
L 391.990009 225.467445 
L 392.437867 222.232627 
L 392.587153 222.89668 
L 393.184298 230.931218 
L 393.333584 230.841109 
L 393.632156 226.71833 
L 393.930728 222.014145 
L 394.080015 221.307056 
L 394.229301 221.999079 
L 394.826445 227.603402 
L 394.975731 226.824195 
L 395.572876 220.829401 
L 395.722162 221.147897 
L 396.319306 225.073181 
L 396.468593 224.644813 
L 396.916451 222.453788 
L 397.065737 223.088119 
L 397.662882 230.197283 
L 397.812168 230.11159 
L 398.11074 225.993133 
L 398.558598 218.423257 
L 398.707884 217.662012 
L 398.857171 217.760307 
L 399.155743 218.536581 
L 399.305029 218.36903 
L 399.603601 217.181877 
L 399.752887 217.203216 
L 399.902173 218.407876 
L 400.200746 224.894717 
L 400.648604 235.723998 
L 400.79789 236.252287 
L 400.947176 234.698583 
L 401.693607 220.067652 
L 401.842893 219.962207 
L 402.290751 221.681032 
L 402.440038 221.634017 
L 402.589324 221.407691 
L 402.73861 221.490425 
L 402.887896 222.358603 
L 403.186468 226.939752 
L 403.634327 233.903155 
L 403.783613 233.885778 
L 404.082185 230.433505 
L 404.380757 226.911608 
L 404.530043 226.607986 
L 404.679329 227.347942 
L 404.977902 229.836488 
L 405.127188 230.229751 
L 405.276474 229.473635 
L 406.022905 220.847516 
L 406.172191 221.543223 
L 406.620049 224.793983 
L 406.769335 224.351541 
L 407.36648 219.489989 
L 407.515766 220.617446 
L 408.262196 231.21623 
L 408.411483 229.926688 
L 408.859341 223.38172 
L 409.008627 223.036493 
L 409.157913 224.230389 
L 409.755058 233.22027 
L 409.904344 233.342054 
L 410.202916 230.875236 
L 410.501488 228.483044 
L 410.650775 228.177466 
L 410.949347 228.294851 
L 411.098633 227.786668 
L 411.397205 224.600838 
L 411.695777 221.005859 
L 411.845064 220.5939 
L 411.99435 221.605903 
L 412.74078 233.252009 
L 412.890066 233.049142 
L 413.487211 229.386687 
L 413.636497 229.852816 
L 413.935069 231.473896 
L 414.084355 231.592361 
L 414.233642 230.814016 
L 414.830786 225.071647 
L 414.980072 225.672109 
L 415.577217 233.368228 
L 415.726503 233.282287 
L 416.025075 229.479954 
L 416.323647 225.481005 
L 416.472933 225.224145 
L 416.62222 226.402252 
L 417.070078 232.865838 
L 417.219364 233.478102 
L 417.36865 232.687752 
L 417.965795 225.436081 
L 418.115081 225.481219 
L 418.712225 229.138575 
L 418.861511 229.02883 
L 419.010798 228.765344 
L 419.160084 228.940896 
L 419.30937 230.064869 
L 419.607942 235.386302 
L 419.906514 241.10117 
L 420.0558 242.161825 
L 420.205087 241.499456 
L 420.802231 232.941844 
L 420.951517 233.466916 
L 421.250089 238.952168 
L 421.548662 245.218497 
L 421.697948 246.729309 
L 421.847234 246.852558 
L 422.444378 243.398899 
L 422.742951 244.636941 
L 422.892237 245.119819 
L 423.041523 244.695502 
L 423.340095 240.206262 
L 423.93724 228.23195 
L 424.534384 223.442925 
L 424.832956 215.973719 
L 425.280815 202.707194 
L 425.579387 199.050511 
L 425.877959 197.96575 
L 426.027245 196.557401 
L 426.325818 189.935762 
L 426.922962 173.996196 
L 427.221534 172.352475 
L 427.370821 172.275659 
L 427.520107 171.777657 
L 427.818679 168.22786 
L 428.266537 162.245733 
L 428.415823 162.559946 
L 428.714396 166.876543 
L 429.012968 171.677052 
L 429.31154 173.096838 
L 429.460826 173.104852 
L 429.610112 173.617425 
L 429.759399 175.337158 
L 430.057971 183.274184 
L 430.655115 201.773331 
L 430.953688 204.653049 
L 431.25226 207.090332 
L 431.550832 213.411918 
L 432.147977 227.959138 
L 432.297263 228.970716 
L 432.595835 229.231927 
L 432.745121 230.011358 
L 433.043693 235.21842 
L 433.491552 246.124878 
L 433.640838 247.449545 
L 433.790124 246.912098 
L 434.536555 237.419206 
L 434.685841 238.558063 
L 435.282985 245.641279 
L 435.432271 245.913318 
L 435.730844 245.666165 
L 435.88013 245.850588 
L 436.178702 246.611752 
L 436.327988 246.264006 
L 436.477274 244.76575 
L 436.775846 238.101306 
L 437.223705 227.920957 
L 437.372991 227.399454 
L 437.522277 228.622192 
L 438.119422 236.968284 
L 438.268708 236.558713 
L 438.865852 231.211252 
L 439.015138 231.713143 
L 439.462997 234.595664 
L 439.612283 233.93226 
L 440.209427 225.931893 
L 440.358714 226.028015 
L 440.657286 230.152231 
L 440.955858 234.650136 
L 441.105144 235.089348 
L 441.25443 234.004373 
L 441.851575 226.313764 
L 442.000861 226.711039 
L 442.747292 233.134372 
L 443.344436 231.672541 
L 443.792294 233.129048 
L 443.941581 232.709268 
L 444.240153 229.499982 
L 444.538725 226.093505 
L 444.688011 225.828314 
L 444.837297 226.877536 
L 445.434442 234.246772 
L 445.583728 233.767499 
L 446.180872 228.082367 
L 446.330159 229.008963 
L 446.927303 237.596868 
L 447.076589 237.398047 
L 447.375161 233.089365 
L 447.673734 228.050759 
L 447.82302 226.873899 
L 447.972306 226.747913 
L 448.270878 227.627565 
L 448.420164 227.285016 
L 448.718737 223.492282 
L 449.166595 217.267683 
L 449.315881 217.712333 
L 449.614453 222.533006 
L 449.913026 227.619667 
L 450.062312 228.410591 
L 450.211598 227.753394 
L 450.808742 221.335394 
L 450.958028 221.494188 
L 451.555173 224.658278 
L 451.853745 223.509252 
L 452.003031 222.965679 
L 452.152317 223.053948 
L 452.45089 225.471437 
L 452.749462 228.161126 
L 452.898748 228.119045 
L 453.048034 226.748583 
L 453.645179 217.430364 
L 453.794465 217.662036 
L 454.093037 222.382972 
L 454.540895 229.789841 
L 454.690182 229.971387 
L 454.988754 227.512691 
L 455.287326 225.168757 
L 455.436612 224.965737 
L 455.735184 225.385767 
L 455.884471 224.985552 
L 456.183043 221.788821 
L 456.481615 218.128831 
L 456.630901 217.806834 
L 456.780187 218.990924 
L 457.377332 229.130695 
L 457.526618 229.318477 
L 457.675904 227.97626 
L 458.273049 219.604399 
L 458.422335 219.598889 
L 458.870193 222.242732 
L 459.019479 222.090166 
L 459.318051 219.1372 
L 459.616624 215.690977 
L 459.76591 215.161746 
L 459.915196 215.690171 
L 460.363054 219.421289 
L 460.51234 219.451048 
L 460.810913 216.71525 
L 461.109485 213.408624 
L 461.258771 212.796759 
L 461.408057 213.003339 
L 461.706629 214.251455 
L 461.855916 214.245962 
L 462.154488 212.041584 
L 462.45306 209.793091 
L 462.602346 210.237657 
L 462.900918 215.163421 
L 463.348777 223.01157 
L 463.498063 222.611405 
L 463.796635 216.835547 
L 464.244494 207.589047 
L 464.39378 207.082065 
L 464.543066 207.834778 
L 464.990924 210.962164 
L 465.14021 210.567657 
L 465.588069 207.687751 
L 465.737355 208.025978 
L 466.035927 211.51847 
L 466.334499 215.276023 
L 466.483786 215.770698 
L 466.633072 215.079102 
L 467.230216 208.8719 
L 467.379502 208.539755 
L 467.678075 208.61742 
L 467.827361 208.089963 
L 468.125933 204.972611 
L 468.424505 201.569739 
L 468.573791 201.182754 
L 468.723077 202.073373 
L 469.320222 209.921105 
L 469.469508 209.803585 
L 469.76808 206.342016 
L 470.066653 202.995292 
L 470.215939 202.871916 
L 470.514511 205.420718 
L 470.813083 207.337966 
L 470.962369 206.582436 
L 471.7088 197.38533 
L 471.858086 198.005087 
L 472.156658 200.102821 
L 472.305944 200.104576 
L 472.455231 198.839977 
L 473.052375 189.622156 
L 473.201661 189.603592 
L 473.500233 193.010874 
L 473.798806 196.365469 
L 473.948092 196.431714 
L 474.246664 193.53496 
L 474.545236 191.055252 
L 474.694522 191.554394 
L 474.993095 195.770703 
L 475.291667 199.616058 
L 475.440953 199.728548 
L 475.739525 196.399493 
L 476.038098 192.686089 
L 476.187384 192.229042 
L 476.33667 192.779322 
L 476.635242 194.537204 
L 476.784528 194.249179 
L 477.0831 189.68907 
L 477.530959 180.799018 
L 477.680245 180.171153 
L 477.829531 181.010668 
L 478.277389 185.80576 
L 478.426676 185.797833 
L 478.725248 182.734593 
L 479.02382 179.957297 
L 479.173106 180.322189 
L 479.471678 184.705593 
L 479.770251 189.673982 
L 479.919537 190.553921 
L 480.068823 189.974301 
L 480.665967 182.967466 
L 480.815254 183.105581 
L 481.263112 186.57337 
L 481.412398 186.405285 
L 481.561684 184.816885 
L 482.158829 173.559633 
L 482.308115 173.482619 
L 482.457401 175.574866 
L 482.755973 185.781079 
L 483.054545 200.870071 
L 483.054545 200.870071 
" clip-path="url(#pe2d45c105b)" style="fill: none; stroke: #c34a22; stroke-width: 0.9; stroke-linecap: square"/>
   </g>
   <g id="patch_5">
    <path d="M 12.96 252.52 
L 505.44 252.52 
" style="fill: none; stroke: #d8cfbc; stroke-width: 0.8; stroke-linejoin: miter; stroke-linecap: square"/>
   </g>
  </g>
 </g>
 <defs>
  <clipPath id="p65ba21e1dc">
   <rect x="12.96" y="12.96" width="492.48" height="111.55"/>
  </clipPath>
  <clipPath id="pe2d45c105b">
   <rect x="12.96" y="140.97" width="492.48" height="111.55"/>
  </clipPath>
 </defs>
</svg>
