<?xml version="1.0" encoding="utf-8" standalone="no"?>
<!DOCTYPE svg PUBLIC "-//W3C//DTD SVG 1.1//EN"
  "http://www.w3.org/Graphics/SVG/1.1/DTD/svg11.dtd">
<svg xmlns:xlink="http://www.w3.org/1999/xlink" width="518.4pt" height="331.2pt" viewBox="0 0 518.4 331.2" xmlns="http://www.w3.org/2000/svg" version="1.1">
 <metadata>
  <rdf:RDF xmlns:dc="http://purl.org/dc/elements/1.1/" xmlns:cc="http://creativecommons.org/ns#" xmlns:rdf="http://www.w3.org/1999/02/22-rdf-syntax-ns#">
   <cc:Work>
    <dc:type rdf:resource="http://purl.org/dc/dcmitype/StillImage"/>
    <dc:date>2026-07-05T15:01:09.092909</dc:date>
    <dc:format>image/svg+xml</dc:format>
    <dc:creator>
     <cc:Agent>
      <dc:title>Matplotlib v3.10.8, https://matplotlib.org/</dc:title>
     </cc:Agent>
    </dc:creator>
   </cc:Work>
  </rdf:RDF>
 </metadata>
 <defs>
  <style type="text/css">*{stroke-linejoin: round; stroke-linecap: butt}</style>
 </defs>
 <g id="figure_1">
  <g id="patch_1">
   <path d="M 0 331.2 
L 518.4 331.2 
L 518.4 0 
L 0 0 
z
" style="fill: #fbfaf8"/>
  </g>
  <g id="axes_1">
   <g id="patch_2">
    <path d="M 64.8 294.768 
L 466.56 294.768 
L 466.56 39.744 
L 64.8 39.744 
z
" style="fill: #fbfaf8"/>
   </g>
   <g id="FillBetweenPolyCollection_1">
    <path d="M 617.22 294.0596 
L 88.878689 294.0596 
L 89.046835 293.823861 
L 89.21511 293.588121 
L 89.383515 293.352382 
L 89.552048 293.116642 
L 89.72071 292.880903 
L 89.889501 292.645163 
L 90.058421 292.409424 
L 90.22747 292.173684 
L 90.396648 291.937945 
L 90.565955 291.702206 
L 90.735391 291.466466 
L 90.904955 291.230727 
L 91.074649 290.994987 
L 91.244471 290.759248 
L 91.414423 290.523508 
L 91.584503 290.287769 
L 91.754712 290.052029 
L 91.92505 289.81629 
L 92.095517 289.58055 
L 92.266113 289.344811 
L 92.436837 289.109072 
L 92.607691 288.873332 
L 92.778673 288.637593 
L 92.949784 288.401853 
L 93.121024 288.166114 
L 93.292393 287.930374 
L 93.463891 287.694635 
L 93.635517 287.458895 
L 93.807273 287.223156 
L 93.979157 286.987417 
L 94.151169 286.751677 
L 94.323311 286.515938 
L 94.495582 286.280198 
L 94.667981 286.044459 
L 94.840509 285.808719 
L 95.013165 285.57298 
L 95.185951 285.33724 
L 95.358865 285.101501 
L 95.531908 284.865761 
L 95.705079 284.630022 
L 95.878379 284.394283 
L 96.051808 284.158543 
L 96.225366 283.922804 
L 96.399052 283.687064 
L 96.572867 283.451325 
L 96.74681 283.215585 
L 96.920882 282.979846 
L 97.095083 282.744106 
L 97.269412 282.508367 
L 97.44387 282.272628 
L 97.618456 282.036888 
L 97.793171 281.801149 
L 97.968014 281.565409 
L 98.142986 281.32967 
L 98.318086 281.09393 
L 98.493315 280.858191 
L 98.668672 280.622451 
L 98.844158 280.386712 
L 99.019772 280.150972 
L 99.195515 279.915233 
L 99.371386 279.679494 
L 99.547385 279.443754 
L 99.723513 279.208015 
L 99.899769 278.972275 
L 100.076154 278.736536 
L 100.252666 278.500796 
L 100.429307 278.265057 
L 100.606076 278.029317 
L 100.782974 277.793578 
L 100.96 277.557839 
L 101.137154 277.322099 
L 101.314436 277.08636 
L 101.491846 276.85062 
L 101.669384 276.614881 
L 101.847051 276.379141 
L 102.024846 276.143402 
L 102.202768 275.907662 
L 102.380819 275.671923 
L 102.558998 275.436183 
L 102.737305 275.200444 
L 102.91574 274.964705 
L 103.094303 274.728965 
L 103.272994 274.493226 
L 103.451812 274.257486 
L 103.630759 274.021747 
L 103.809833 273.786007 
L 103.989036 273.550268 
L 104.168366 273.314528 
L 104.347824 273.078789 
L 104.52741 272.84305 
L 104.707123 272.60731 
L 104.886965 272.371571 
L 105.066934 272.135831 
L 105.24703 271.900092 
L 105.427255 271.664352 
L 105.607607 271.428613 
L 105.788086 271.192873 
L 105.968693 270.957134 
L 106.149428 270.721394 
L 106.33029 270.485655 
L 106.51128 270.249916 
L 106.692397 270.014176 
L 106.873642 269.778437 
L 107.055014 269.542697 
L 107.236513 269.306958 
L 107.41814 269.071218 
L 107.599894 268.835479 
L 107.781775 268.599739 
L 107.963784 268.364 
L 108.14592 268.128261 
L 108.328183 267.892521 
L 108.510573 267.656782 
L 108.693091 267.421042 
L 108.875735 267.185303 
L 109.058507 266.949563 
L 109.241405 266.713824 
L 109.424431 266.478084 
L 109.607584 266.242345 
L 109.790863 266.006606 
L 109.97427 265.770866 
L 110.157803 265.535127 
L 110.341463 265.299387 
L 110.52525 265.063648 
L 110.709164 264.827908 
L 110.893205 264.592169 
L 111.077372 264.356429 
L 111.261666 264.12069 
L 111.446087 263.88495 
L 111.630634 263.649211 
L 111.815308 263.413472 
L 112.000108 263.177732 
L 112.185035 262.941993 
L 112.370089 262.706253 
L 112.555268 262.470514 
L 112.740575 262.234774 
L 112.926007 261.999035 
L 113.111566 261.763295 
L 113.297251 261.527556 
L 113.483063 261.291817 
L 113.669 261.056077 
L 113.855064 260.820338 
L 114.041254 260.584598 
L 114.22757 260.348859 
L 114.414013 260.113119 
L 114.600581 259.87738 
L 114.787275 259.64164 
L 114.974095 259.405901 
L 115.161041 259.170161 
L 115.348113 258.934422 
L 115.535311 258.698683 
L 115.722634 258.462943 
L 115.910084 258.227204 
L 116.097658 257.991464 
L 116.285359 257.755725 
L 116.473185 257.519985 
L 116.661137 257.284246 
L 116.849215 257.048506 
L 117.037417 256.812767 
L 117.225746 256.577028 
L 117.4142 256.341288 
L 117.602779 256.105549 
L 117.791483 255.869809 
L 117.980313 255.63407 
L 118.169268 255.39833 
L 118.358348 255.162591 
L 118.547553 254.926851 
L 118.736884 254.691112 
L 118.926339 254.455372 
L 119.11592 254.219633 
L 119.305625 253.983894 
L 119.495456 253.748154 
L 119.685411 253.512415 
L 119.875491 253.276675 
L 120.065696 253.040936 
L 120.256026 252.805196 
L 120.44648 252.569457 
L 120.637059 252.333717 
L 120.827763 252.097978 
L 121.018591 251.862239 
L 121.209544 251.626499 
L 121.400621 251.39076 
L 121.591823 251.15502 
L 121.783149 250.919281 
L 121.974599 250.683541 
L 122.166174 250.447802 
L 122.357873 250.212062 
L 122.549696 249.976323 
L 122.741643 249.740583 
L 122.933714 249.504844 
L 123.125909 249.269105 
L 123.318228 249.033365 
L 123.510672 248.797626 
L 123.703239 248.561886 
L 123.89593 248.326147 
L 124.088744 248.090407 
L 124.281683 247.854668 
L 124.474745 247.618928 
L 124.667931 247.383189 
L 124.86124 247.14745 
L 125.054673 246.91171 
L 125.248229 246.675971 
L 125.441909 246.440231 
L 125.635712 246.204492 
L 125.829638 245.968752 
L 126.023688 245.733013 
L 126.217861 245.497273 
L 126.412157 245.261534 
L 126.606576 245.025794 
L 126.801118 244.790055 
L 126.995783 244.554316 
L 127.190571 244.318576 
L 127.385482 244.082837 
L 127.580516 243.847097 
L 127.775673 243.611358 
L 127.970952 243.375618 
L 128.166354 243.139879 
L 128.361879 242.904139 
L 128.557526 242.6684 
L 128.753296 242.432661 
L 128.949188 242.196921 
L 129.145202 241.961182 
L 129.341339 241.725442 
L 129.537598 241.489703 
L 129.73398 241.253963 
L 129.930483 241.018224 
L 130.127109 240.782484 
L 130.323856 240.546745 
L 130.520726 240.311006 
L 130.717718 240.075266 
L 130.914831 239.839527 
L 131.112066 239.603787 
L 131.309423 239.368048 
L 131.506902 239.132308 
L 131.704503 238.896569 
L 131.902225 238.660829 
L 132.100068 238.42509 
L 132.298033 238.18935 
L 132.496119 237.953611 
L 132.694327 237.717872 
L 132.892656 237.482132 
L 133.091106 237.246393 
L 133.289678 237.010653 
L 133.48837 236.774914 
L 133.687183 236.539174 
L 133.886118 236.303435 
L 134.085173 236.067695 
L 134.28435 235.831956 
L 134.483647 235.596217 
L 134.683064 235.360477 
L 134.882603 235.124738 
L 135.082262 234.888998 
L 135.282041 234.653259 
L 135.481942 234.417519 
L 135.681962 234.18178 
L 135.882103 233.94604 
L 136.082364 233.710301 
L 136.282745 233.474561 
L 136.483247 233.238822 
L 136.683869 233.003083 
L 136.88461 232.767343 
L 137.085472 232.531604 
L 137.286453 232.295864 
L 137.487555 232.060125 
L 137.688776 231.824385 
L 137.890117 231.588646 
L 138.091577 231.352906 
L 138.293158 231.117167 
L 138.494857 230.881428 
L 138.696676 230.645688 
L 138.898615 230.409949 
L 139.100673 230.174209 
L 139.30285 229.93847 
L 139.505146 229.70273 
L 139.707561 229.466991 
L 139.910096 229.231251 
L 140.112749 228.995512 
L 140.315521 228.759772 
L 140.518413 228.524033 
L 140.721423 228.288294 
L 140.924551 228.052554 
L 141.127799 227.816815 
L 141.331165 227.581075 
L 141.534649 227.345336 
L 141.738252 227.109596 
L 141.941973 226.873857 
L 142.145813 226.638117 
L 142.34977 226.402378 
L 142.553846 226.166639 
L 142.75804 225.930899 
L 142.962353 225.69516 
L 143.166783 225.45942 
L 143.371331 225.223681 
L 143.575996 224.987941 
L 143.78078 224.752202 
L 143.985681 224.516462 
L 144.1907 224.280723 
L 144.395836 224.044983 
L 144.60109 223.809244 
L 144.806461 223.573505 
L 145.01195 223.337765 
L 145.217555 223.102026 
L 145.423278 222.866286 
L 145.629119 222.630547 
L 145.835076 222.394807 
L 146.04115 222.159068 
L 146.247341 221.923328 
L 146.453648 221.687589 
L 146.660073 221.45185 
L 146.866614 221.21611 
L 147.073272 220.980371 
L 147.280046 220.744631 
L 147.486937 220.508892 
L 147.693944 220.273152 
L 147.901068 220.037413 
L 148.108308 219.801673 
L 148.315664 219.565934 
L 148.523136 219.330194 
L 148.730724 219.094455 
L 148.938428 218.858716 
L 149.146247 218.622976 
L 149.354183 218.387237 
L 149.562234 218.151497 
L 149.770401 217.915758 
L 149.978684 217.680018 
L 150.187082 217.444279 
L 150.395595 217.208539 
L 150.604224 216.9728 
L 150.812968 216.737061 
L 151.021827 216.501321 
L 151.230802 216.265582 
L 151.439891 216.029842 
L 151.649096 215.794103 
L 151.858415 215.558363 
L 152.067849 215.322624 
L 152.277398 215.086884 
L 152.487061 214.851145 
L 152.696839 214.615406 
L 152.906732 214.379666 
L 153.116738 214.143927 
L 153.32686 213.908187 
L 153.537095 213.672448 
L 153.747445 213.436708 
L 153.957909 213.200969 
L 154.168487 212.965229 
L 154.379179 212.72949 
L 154.589984 212.49375 
L 154.800904 212.258011 
L 155.011937 212.022272 
L 155.223084 211.786532 
L 155.434345 211.550793 
L 155.645718 211.315053 
L 155.857206 211.079314 
L 156.068806 210.843574 
L 156.28052 210.607835 
L 156.492347 210.372095 
L 156.704288 210.136356 
L 156.916341 209.900617 
L 157.128507 209.664877 
L 157.340786 209.429138 
L 157.553178 209.193398 
L 157.765682 208.957659 
L 157.978299 208.721919 
L 158.191029 208.48618 
L 158.403871 208.25044 
L 158.616825 208.014701 
L 158.829892 207.778961 
L 159.043071 207.543222 
L 159.256362 207.307483 
L 159.469765 207.071743 
L 159.68328 206.836004 
L 159.896906 206.600264 
L 160.110645 206.364525 
L 160.324495 206.128785 
L 160.538457 205.893046 
L 160.752531 205.657306 
L 160.966716 205.421567 
L 161.181012 205.185828 
L 161.39542 204.950088 
L 161.609939 204.714349 
L 161.824569 204.478609 
L 162.03931 204.24287 
L 162.254162 204.00713 
L 162.469125 203.771391 
L 162.684199 203.535651 
L 162.899384 203.299912 
L 163.114679 203.064172 
L 163.330085 202.828433 
L 163.545601 202.592694 
L 163.761227 202.356954 
L 163.976964 202.121215 
L 164.192811 201.885475 
L 164.408769 201.649736 
L 164.624836 201.413996 
L 164.841013 201.178257 
L 165.0573 200.942517 
L 165.273697 200.706778 
L 165.490204 200.471039 
L 165.70682 200.235299 
L 165.923546 199.99956 
L 166.140381 199.76382 
L 166.357326 199.528081 
L 166.57438 199.292341 
L 166.791543 199.056602 
L 167.008816 198.820862 
L 167.226197 198.585123 
L 167.443687 198.349383 
L 167.661286 198.113644 
L 167.878994 197.877905 
L 168.096811 197.642165 
L 168.314736 197.406426 
L 168.53277 197.170686 
L 168.750912 196.934947 
L 168.969163 196.699207 
L 169.187522 196.463468 
L 169.405989 196.227728 
L 169.624564 195.991989 
L 169.843247 195.75625 
L 170.062038 195.52051 
L 170.280937 195.284771 
L 170.499943 195.049031 
L 170.719058 194.813292 
L 170.938279 194.577552 
L 171.157609 194.341813 
L 171.377045 194.106073 
L 171.596589 193.870334 
L 171.816241 193.634594 
L 172.035999 193.398855 
L 172.255864 193.163116 
L 172.475837 192.927376 
L 172.695916 192.691637 
L 172.916102 192.455897 
L 173.136395 192.220158 
L 173.356794 191.984418 
L 173.5773 191.748679 
L 173.797912 191.512939 
L 174.018631 191.2772 
L 174.239455 191.041461 
L 174.460387 190.805721 
L 174.681424 190.569982 
L 174.902567 190.334242 
L 175.123816 190.098503 
L 175.34517 189.862763 
L 175.566631 189.627024 
L 175.788197 189.391284 
L 176.009869 189.155545 
L 176.231646 188.919806 
L 176.453528 188.684066 
L 176.675516 188.448327 
L 176.897609 188.212587 
L 177.119807 187.976848 
L 177.34211 187.741108 
L 177.564518 187.505369 
L 177.787031 187.269629 
L 178.009649 187.03389 
L 178.232371 186.79815 
L 178.455198 186.562411 
L 178.678129 186.326672 
L 178.901164 186.090932 
L 179.124304 185.855193 
L 179.347549 185.619453 
L 179.570897 185.383714 
L 179.794349 185.147974 
L 180.017905 184.912235 
L 180.241565 184.676495 
L 180.465329 184.440756 
L 180.689196 184.205017 
L 180.913167 183.969277 
L 181.137242 183.733538 
L 181.361419 183.497798 
L 181.585701 183.262059 
L 181.810085 183.026319 
L 182.034572 182.79058 
L 182.259163 182.55484 
L 182.483856 182.319101 
L 182.708652 182.083361 
L 182.933551 181.847622 
L 183.158553 181.611883 
L 183.383657 181.376143 
L 183.608864 181.140404 
L 183.834173 180.904664 
L 184.059584 180.668925 
L 184.285098 180.433185 
L 184.510714 180.197446 
L 184.736431 179.961706 
L 184.962251 179.725967 
L 185.188172 179.490228 
L 185.414196 179.254488 
L 185.64032 179.018749 
L 185.866547 178.783009 
L 186.092875 178.54727 
L 186.319304 178.31153 
L 186.545834 178.075791 
L 186.772466 177.840051 
L 186.999199 177.604312 
L 187.226033 177.368572 
L 187.452967 177.132833 
L 187.680003 176.897094 
L 187.907139 176.661354 
L 188.134376 176.425615 
L 188.361713 176.189875 
L 188.589151 175.954136 
L 188.81669 175.718396 
L 189.044328 175.482657 
L 189.272067 175.246917 
L 189.499906 175.011178 
L 189.727844 174.775439 
L 189.955883 174.539699 
L 190.184022 174.30396 
L 190.41226 174.06822 
L 190.640598 173.832481 
L 190.869035 173.596741 
L 191.097572 173.361002 
L 191.326208 173.125262 
L 191.554943 172.889523 
L 191.783777 172.653783 
L 192.012711 172.418044 
L 192.241744 172.182305 
L 192.470875 171.946565 
L 192.700105 171.710826 
L 192.929434 171.475086 
L 193.158861 171.239347 
L 193.388387 171.003607 
L 193.618012 170.767868 
L 193.847734 170.532128 
L 194.077555 170.296389 
L 194.307474 170.06065 
L 194.537491 169.82491 
L 194.767606 169.589171 
L 194.997819 169.353431 
L 195.22813 169.117692 
L 195.458538 168.881952 
L 195.689044 168.646213 
L 195.919647 168.410473 
L 196.150348 168.174734 
L 196.381145 167.938994 
L 196.612041 167.703255 
L 196.843033 167.467516 
L 197.074122 167.231776 
L 197.305308 166.996037 
L 197.536591 166.760297 
L 197.767971 166.524558 
L 197.999447 166.288818 
L 198.23102 166.053079 
L 198.462689 165.817339 
L 198.694455 165.5816 
L 198.926317 165.345861 
L 199.158275 165.110121 
L 199.390329 164.874382 
L 199.622479 164.638642 
L 199.854725 164.402903 
L 200.087066 164.167163 
L 200.319504 163.931424 
L 200.552037 163.695684 
L 200.784665 163.459945 
L 201.017389 163.224206 
L 201.250208 162.988466 
L 201.483122 162.752727 
L 201.716132 162.516987 
L 201.949237 162.281248 
L 202.182436 162.045508 
L 202.41573 161.809769 
L 202.649119 161.574029 
L 202.882603 161.33829 
L 203.116181 161.10255 
L 203.349854 160.866811 
L 203.583621 160.631072 
L 203.817482 160.395332 
L 204.051438 160.159593 
L 204.285488 159.923853 
L 204.519631 159.688114 
L 204.753869 159.452374 
L 204.9882 159.216635 
L 205.222625 158.980895 
L 205.457144 158.745156 
L 205.691756 158.509417 
L 205.926461 158.273677 
L 206.16126 158.037938 
L 206.396152 157.802198 
L 206.631137 157.566459 
L 206.866216 157.330719 
L 207.101387 157.09498 
L 207.336651 156.85924 
L 207.572008 156.623501 
L 207.807457 156.387761 
L 208.043 156.152022 
L 208.278634 155.916283 
L 208.514361 155.680543 
L 208.75018 155.444804 
L 208.986092 155.209064 
L 209.222095 154.973325 
L 209.458191 154.737585 
L 209.694378 154.501846 
L 209.930657 154.266106 
L 210.167028 154.030367 
L 210.403491 153.794628 
L 210.640045 153.558888 
L 210.876691 153.323149 
L 211.113428 153.087409 
L 211.350256 152.85167 
L 211.587175 152.61593 
L 211.824185 152.380191 
L 212.061287 152.144451 
L 212.298479 151.908712 
L 212.535762 151.672972 
L 212.773136 151.437233 
L 213.0106 151.201494 
L 213.248155 150.965754 
L 213.4858 150.730015 
L 213.723535 150.494275 
L 213.961361 150.258536 
L 214.199277 150.022796 
L 214.437282 149.787057 
L 214.675378 149.551317 
L 214.913564 149.315578 
L 215.151839 149.079839 
L 215.390204 148.844099 
L 215.628658 148.60836 
L 215.867202 148.37262 
L 216.105835 148.136881 
L 216.344558 147.901141 
L 216.58337 147.665402 
L 216.82227 147.429662 
L 217.06126 147.193923 
L 217.300339 146.958183 
L 217.539506 146.722444 
L 217.778762 146.486705 
L 218.018107 146.250965 
L 218.25754 146.015226 
L 218.497062 145.779486 
L 218.736672 145.543747 
L 218.97637 145.308007 
L 219.216156 145.072268 
L 219.456031 144.836528 
L 219.695993 144.600789 
L 219.936043 144.36505 
L 220.176181 144.12931 
L 220.416407 143.893571 
L 220.65672 143.657831 
L 220.89712 143.422092 
L 221.137608 143.186352 
L 221.378184 142.950613 
L 221.618846 142.714873 
L 221.859596 142.479134 
L 222.100432 142.243394 
L 222.341356 142.007655 
L 222.582366 141.771916 
L 222.823463 141.536176 
L 223.064647 141.300437 
L 223.305917 141.064697 
L 223.547274 140.828958 
L 223.788716 140.593218 
L 224.030246 140.357479 
L 224.271861 140.121739 
L 224.513562 139.886 
L 224.75535 139.650261 
L 224.997223 139.414521 
L 225.239182 139.178782 
L 225.481227 138.943042 
L 225.723357 138.707303 
L 225.965573 138.471563 
L 226.207874 138.235824 
L 226.450261 138.000084 
L 226.692733 137.764345 
L 226.93529 137.528606 
L 227.177932 137.292866 
L 227.420658 137.057127 
L 227.66347 136.821387 
L 227.906367 136.585648 
L 228.149348 136.349908 
L 228.392414 136.114169 
L 228.635564 135.878429 
L 228.878798 135.64269 
L 229.122117 135.40695 
L 229.36552 135.171211 
L 229.609007 134.935472 
L 229.852579 134.699732 
L 230.096234 134.463993 
L 230.339973 134.228253 
L 230.583795 133.992514 
L 230.827701 133.756774 
L 231.071691 133.521035 
L 231.315764 133.285295 
L 231.559921 133.049556 
L 231.804161 132.813817 
L 232.048484 132.578077 
L 232.29289 132.342338 
L 232.537379 132.106598 
L 232.781951 131.870859 
L 233.026606 131.635119 
L 233.271344 131.39938 
L 233.516164 131.16364 
L 233.761066 130.927901 
L 234.006051 130.692161 
L 234.251119 130.456422 
L 234.496268 130.220683 
L 234.7415 129.984943 
L 234.986814 129.749204 
L 235.23221 129.513464 
L 235.477688 129.277725 
L 235.723247 129.041985 
L 235.968888 128.806246 
L 236.214611 128.570506 
L 236.460415 128.334767 
L 236.706301 128.099028 
L 236.952268 127.863288 
L 237.198316 127.627549 
L 237.444446 127.391809 
L 237.690656 127.15607 
L 237.936948 126.92033 
L 238.18332 126.684591 
L 238.429773 126.448851 
L 238.676306 126.213112 
L 238.922921 125.977372 
L 239.169616 125.741633 
L 239.416391 125.505894 
L 239.663246 125.270154 
L 239.910182 125.034415 
L 240.157198 124.798675 
L 240.404294 124.562936 
L 240.651469 124.327196 
L 240.898725 124.091457 
L 241.146061 123.855717 
L 241.393476 123.619978 
L 241.64097 123.384239 
L 241.888545 123.148499 
L 242.136198 122.91276 
L 242.383931 122.67702 
L 242.631743 122.441281 
L 242.879634 122.205541 
L 243.127605 121.969802 
L 243.375654 121.734062 
L 243.623782 121.498323 
L 243.871989 121.262583 
L 244.120274 121.026844 
L 244.368638 120.791105 
L 244.617081 120.555365 
L 244.865602 120.319626 
L 245.114201 120.083886 
L 245.362879 119.848147 
L 245.611634 119.612407 
L 245.860468 119.376668 
L 246.10938 119.140928 
L 246.358369 118.905189 
L 246.607436 118.66945 
L 246.856581 118.43371 
L 247.105804 118.197971 
L 247.355104 117.962231 
L 247.604481 117.726492 
L 247.853936 117.490752 
L 248.103468 117.255013 
L 248.353077 117.019273 
L 248.602763 116.783534 
L 248.852526 116.547794 
L 249.102366 116.312055 
L 249.352283 116.076316 
L 249.602276 115.840576 
L 249.852346 115.604837 
L 250.102493 115.369097 
L 250.352716 115.133358 
L 250.603015 114.897618 
L 250.853391 114.661879 
L 251.103842 114.426139 
L 251.35437 114.1904 
L 251.604974 113.954661 
L 251.855653 113.718921 
L 252.106409 113.483182 
L 252.35724 113.247442 
L 252.608147 113.011703 
L 252.859129 112.775963 
L 253.110186 112.540224 
L 253.36132 112.304484 
L 253.612528 112.068745 
L 253.863811 111.833006 
L 254.11517 111.597266 
L 254.366603 111.361527 
L 254.618112 111.125787 
L 254.869695 110.890048 
L 255.121353 110.654308 
L 255.373086 110.418569 
L 255.624893 110.182829 
L 255.876775 109.94709 
L 256.128731 109.71135 
L 256.380761 109.475611 
L 256.632866 109.239872 
L 256.885044 109.004132 
L 257.137297 108.768393 
L 257.389624 108.532653 
L 257.642024 108.296914 
L 257.894498 108.061174 
L 258.147046 107.825435 
L 258.399668 107.589695 
L 258.652363 107.353956 
L 258.905131 107.118217 
L 259.157973 106.882477 
L 259.410888 106.646738 
L 259.663876 106.410998 
L 259.916938 106.175259 
L 260.170072 105.939519 
L 260.423279 105.70378 
L 260.676559 105.46804 
L 260.929911 105.232301 
L 261.183337 104.996561 
L 261.436834 104.760822 
L 261.690405 104.525083 
L 261.944047 104.289343 
L 262.197762 104.053604 
L 262.451549 103.817864 
L 262.705409 103.582125 
L 262.95934 103.346385 
L 263.213343 103.110646 
L 263.467418 102.874906 
L 263.721565 102.639167 
L 263.975783 102.403428 
L 264.230073 102.167688 
L 264.484435 101.931949 
L 264.738868 101.696209 
L 264.993372 101.46047 
L 265.247948 101.22473 
L 265.502595 100.988991 
L 265.757313 100.753251 
L 266.012102 100.517512 
L 266.266961 100.281772 
L 266.521892 100.046033 
L 266.776893 99.810294 
L 267.031965 99.574554 
L 267.287108 99.338815 
L 267.542321 99.103075 
L 267.797604 98.867336 
L 268.052958 98.631596 
L 268.308382 98.395857 
L 268.563876 98.160117 
L 268.81944 97.924378 
L 269.075074 97.688639 
L 269.330778 97.452899 
L 269.586552 97.21716 
L 269.842396 96.98142 
L 270.098309 96.745681 
L 270.354292 96.509941 
L 270.610344 96.274202 
L 270.866465 96.038462 
L 271.122656 95.802723 
L 271.378916 95.566983 
L 271.635246 95.331244 
L 271.891644 95.095505 
L 272.148111 94.859765 
L 272.404647 94.624026 
L 272.661252 94.388286 
L 272.917926 94.152547 
L 273.174668 93.916807 
L 273.431479 93.681068 
L 273.688358 93.445328 
L 273.945306 93.209589 
L 274.202322 92.97385 
L 274.459406 92.73811 
L 274.716558 92.502371 
L 274.973778 92.266631 
L 275.231067 92.030892 
L 275.488423 91.795152 
L 275.745847 91.559413 
L 276.003339 91.323673 
L 276.260898 91.087934 
L 276.518525 90.852194 
L 276.776219 90.616455 
L 277.033981 90.380716 
L 277.29181 90.144976 
L 277.549706 89.909237 
L 277.807669 89.673497 
L 278.0657 89.437758 
L 278.323797 89.202018 
L 278.581961 88.966279 
L 278.840192 88.730539 
L 279.09849 88.4948 
L 279.356855 88.259061 
L 279.615286 88.023321 
L 279.873783 87.787582 
L 280.132347 87.551842 
L 280.390977 87.316103 
L 280.649674 87.080363 
L 280.908436 86.844624 
L 281.167265 86.608884 
L 281.42616 86.373145 
L 281.68512 86.137406 
L 281.944147 85.901666 
L 282.203239 85.665927 
L 282.462397 85.430187 
L 282.72162 85.194448 
L 282.980909 84.958708 
L 283.240264 84.722969 
L 283.499683 84.487229 
L 283.759168 84.25149 
L 284.018719 84.01575 
L 284.278334 83.780011 
L 284.538014 83.544272 
L 284.797759 83.308532 
L 285.05757 83.072793 
L 285.317444 82.837053 
L 285.577384 82.601314 
L 285.837388 82.365574 
L 286.097457 82.129835 
L 286.35759 81.894095 
L 286.617788 81.658356 
L 286.87805 81.422617 
L 287.138376 81.186877 
L 287.398766 80.951138 
L 287.659221 80.715398 
L 287.919739 80.479659 
L 288.180321 80.243919 
L 288.440967 80.00818 
L 288.701677 79.77244 
L 288.962451 79.536701 
L 289.223288 79.300961 
L 289.484189 79.065222 
L 289.745153 78.829483 
L 290.00618 78.593743 
L 290.267271 78.358004 
L 290.528425 78.122264 
L 290.789642 77.886525 
L 291.050922 77.650785 
L 291.312265 77.415046 
L 291.573671 77.179306 
L 291.83514 76.943567 
L 292.096671 76.707828 
L 292.358265 76.472088 
L 292.619922 76.236349 
L 292.881641 76.000609 
L 293.143423 75.76487 
L 293.405267 75.52913 
L 293.667173 75.293391 
L 293.929141 75.057651 
L 294.191172 74.821912 
L 294.453265 74.586172 
L 294.715419 74.350433 
L 294.977636 74.114694 
L 295.239914 73.878954 
L 295.502254 73.643215 
L 295.764655 73.407475 
L 296.027118 73.171736 
L 296.289643 72.935996 
L 296.552229 72.700257 
L 296.814877 72.464517 
L 297.077585 72.228778 
L 297.340355 71.993039 
L 297.603186 71.757299 
L 297.866078 71.52156 
L 298.129031 71.28582 
L 298.392045 71.050081 
L 298.65512 70.814341 
L 298.918255 70.578602 
L 299.181451 70.342862 
L 299.444708 70.107123 
L 299.708025 69.871383 
L 299.971403 69.635644 
L 300.234841 69.399905 
L 300.498339 69.164165 
L 300.761897 68.928426 
L 301.025516 68.692686 
L 301.289194 68.456947 
L 301.552933 68.221207 
L 301.816732 67.985468 
L 302.08059 67.749728 
L 302.344508 67.513989 
L 302.608486 67.27825 
L 302.872523 67.04251 
L 303.13662 66.806771 
L 303.400776 66.571031 
L 303.664992 66.335292 
L 303.929267 66.099552 
L 304.193601 65.863813 
L 304.457995 65.628073 
L 304.722447 65.392334 
L 304.986959 65.156594 
L 305.251529 64.920855 
L 305.516159 64.685116 
L 305.780847 64.449376 
L 306.045594 64.213637 
L 306.310399 63.977897 
L 306.575263 63.742158 
L 306.840186 63.506418 
L 307.105167 63.270679 
L 307.370206 63.034939 
L 307.635304 62.7992 
L 307.900459 62.563461 
L 308.165673 62.327721 
L 308.430945 62.091982 
L 308.696275 61.856242 
L 308.961663 61.620503 
L 309.227109 61.384763 
L 309.492612 61.149024 
L 309.758173 60.913284 
L 310.023792 60.677545 
L 310.289468 60.441806 
L 310.555202 60.206066 
L 310.820993 59.970327 
L 311.086842 59.734587 
L 311.352748 59.498848 
L 311.618711 59.263108 
L 311.884731 59.027369 
L 312.150808 58.791629 
L 312.416942 58.55589 
L 312.683133 58.32015 
L 312.949381 58.084411 
L 313.215686 57.848672 
L 313.482047 57.612932 
L 313.748465 57.377193 
L 314.014939 57.141453 
L 314.28147 56.905714 
L 314.548058 56.669974 
L 314.814701 56.434235 
L 315.081401 56.198495 
L 315.348157 55.962756 
L 315.614969 55.727017 
L 315.881838 55.491277 
L 316.148762 55.255538 
L 316.415742 55.019798 
L 316.682778 54.784059 
L 316.94987 54.548319 
L 317.217017 54.31258 
L 317.48422 54.07684 
L 317.751479 53.841101 
L 318.018793 53.605361 
L 318.286163 53.369622 
L 318.553588 53.133883 
L 318.821068 52.898143 
L 319.088603 52.662404 
L 319.356194 52.426664 
L 319.623839 52.190925 
L 319.89154 51.955185 
L 320.159295 51.719446 
L 320.427106 51.483706 
L 320.694971 51.247967 
L 320.962891 51.012228 
L 321.230865 50.776488 
L 321.498894 50.540749 
L 321.766978 50.305009 
L 322.035116 50.06927 
L 322.303309 49.83353 
L 322.571555 49.597791 
L 322.839856 49.362051 
L 323.108211 49.126312 
L 323.376621 48.890572 
L 323.645084 48.654833 
L 323.913601 48.419094 
L 324.182173 48.183354 
L 324.450798 47.947615 
L 324.719476 47.711875 
L 324.988209 47.476136 
L 325.256995 47.240396 
L 325.525835 47.004657 
L 325.794728 46.768917 
L 326.063674 46.533178 
L 326.332674 46.297439 
L 326.601728 46.061699 
L 326.870834 45.82596 
L 327.139994 45.59022 
L 327.409206 45.354481 
L 327.678472 45.118741 
L 327.947791 44.883002 
L 328.217162 44.647262 
L 328.486587 44.411523 
L 328.756064 44.175783 
L 329.025594 43.940044 
L 329.295176 43.704305 
L 329.564811 43.468565 
L 329.834499 43.232826 
L 330.104239 42.997086 
L 330.374031 42.761347 
L 330.643876 42.525607 
L 330.913772 42.289868 
L 331.183721 42.054128 
L 331.453723 41.818389 
L 331.723776 41.58265 
L 331.993881 41.34691 
L 332.264038 41.111171 
L 332.534246 40.875431 
L 332.804507 40.639692 
L 333.074819 40.403952 
L 333.345183 40.168213 
L 333.615599 39.932473 
L 333.886066 39.696734 
L 334.156584 39.460994 
L 334.427154 39.225255 
L 334.697775 38.989516 
L 334.968447 38.753776 
L 335.239171 38.518037 
L 335.509946 38.282297 
L 335.780771 38.046558 
L 336.051648 37.810818 
L 336.322576 37.575079 
L 336.593554 37.339339 
L 336.864583 37.1036 
L 337.135663 36.867861 
L 337.406794 36.632121 
L 337.677975 36.396382 
L 337.949207 36.160642 
L 338.220489 35.924903 
L 338.491822 35.689163 
L 338.763205 35.453424 
L 339.034638 35.217684 
L 339.306122 34.981945 
L 339.577656 34.746206 
L 339.84924 34.510466 
L 340.120873 34.274727 
L 340.392557 34.038987 
L 340.664291 33.803248 
L 340.936074 33.567508 
L 341.207908 33.331769 
L 341.479791 33.096029 
L 341.751724 32.86029 
L 342.023706 32.62455 
L 342.295738 32.388811 
L 342.567819 32.153072 
L 342.83995 31.917332 
L 343.11213 31.681593 
L 343.384359 31.445853 
L 343.656638 31.210114 
L 343.928965 30.974374 
L 344.201342 30.738635 
L 344.473768 30.502895 
L 344.746243 30.267156 
L 345.018766 30.031417 
L 345.291339 29.795677 
L 345.56396 29.559938 
L 345.83663 29.324198 
L 346.109349 29.088459 
L 346.382116 28.852719 
L 346.654932 28.61698 
L 346.927797 28.38124 
L 347.200709 28.145501 
L 347.47367 27.909761 
L 347.74668 27.674022 
L 348.019738 27.438283 
L 348.292843 27.202543 
L 348.565997 26.966804 
L 348.839199 26.731064 
L 349.112449 26.495325 
L 349.385747 26.259585 
L 349.659093 26.023846 
L 349.932487 25.788106 
L 350.205928 25.552367 
L 350.479417 25.316628 
L 350.752954 25.080888 
L 351.026538 24.845149 
L 351.30017 24.609409 
L 351.573849 24.37367 
L 351.847575 24.13793 
L 352.121349 23.902191 
L 352.39517 23.666451 
L 352.669039 23.430712 
L 352.942954 23.194972 
L 353.216917 22.959233 
L 353.490927 22.723494 
L 353.764983 22.487754 
L 354.039087 22.252015 
L 354.313237 22.016275 
L 354.587435 21.780536 
L 354.861679 21.544796 
L 355.135969 21.309057 
L 355.410306 21.073317 
L 355.68469 20.837578 
L 355.959121 20.601839 
L 356.233597 20.366099 
L 356.508121 20.13036 
L 356.78269 19.89462 
L 357.057306 19.658881 
L 357.331968 19.423141 
L 357.606676 19.187402 
L 357.88143 18.951662 
L 358.156231 18.715923 
L 358.431077 18.480183 
L 358.705969 18.244444 
L 358.980907 18.008705 
L 359.255891 17.772965 
L 359.530921 17.537226 
L 359.805996 17.301486 
L 360.081117 17.065747 
L 360.356283 16.830007 
L 360.631495 16.594268 
L 360.906753 16.358528 
L 361.182056 16.122789 
L 361.457404 15.88705 
L 361.732798 15.65131 
L 362.008236 15.415571 
L 362.28372 15.179831 
L 362.559249 14.944092 
L 362.834824 14.708352 
L 363.110443 14.472613 
L 363.386107 14.236873 
L 363.661816 14.001134 
L 363.93757 13.765394 
L 364.213368 13.529655 
L 364.489212 13.293916 
L 364.7651 13.058176 
L 365.041033 12.822437 
L 365.31701 12.586697 
L 365.593032 12.350958 
L 365.869098 12.115218 
L 366.145208 11.879479 
L 366.421363 11.643739 
L 366.697562 11.408 
L 617.22 11.408 
L 617.22 11.408 
L 617.22 11.643739 
L 617.22 11.879479 
L 617.22 12.115218 
L 617.22 12.350958 
L 617.22 12.586697 
L 617.22 12.822437 
L 617.22 13.058176 
L 617.22 13.293916 
L 617.22 13.529655 
L 617.22 13.765394 
L 617.22 14.001134 
L 617.22 14.236873 
L 617.22 14.472613 
L 617.22 14.708352 
L 617.22 14.944092 
L 617.22 15.179831 
L 617.22 15.415571 
L 617.22 15.65131 
L 617.22 15.88705 
L 617.22 16.122789 
L 617.22 16.358528 
L 617.22 16.594268 
L 617.22 16.830007 
L 617.22 17.065747 
L 617.22 17.301486 
L 617.22 17.537226 
L 617.22 17.772965 
L 617.22 18.008705 
L 617.22 18.244444 
L 617.22 18.480183 
L 617.22 18.715923 
L 617.22 18.951662 
L 617.22 19.187402 
L 617.22 19.423141 
L 617.22 19.658881 
L 617.22 19.89462 
L 617.22 20.13036 
L 617.22 20.366099 
L 617.22 20.601839 
L 617.22 20.837578 
L 617.22 21.073317 
L 617.22 21.309057 
L 617.22 21.544796 
L 617.22 21.780536 
L 617.22 22.016275 
L 617.22 22.252015 
L 617.22 22.487754 
L 617.22 22.723494 
L 617.22 22.959233 
L 617.22 23.194972 
L 617.22 23.430712 
L 617.22 23.666451 
L 617.22 23.902191 
L 617.22 24.13793 
L 617.22 24.37367 
L 617.22 24.609409 
L 617.22 24.845149 
L 617.22 25.080888 
L 617.22 25.316628 
L 617.22 25.552367 
L 617.22 25.788106 
L 617.22 26.023846 
L 617.22 26.259585 
L 617.22 26.495325 
L 617.22 26.731064 
L 617.22 26.966804 
L 617.22 27.202543 
L 617.22 27.438283 
L 617.22 27.674022 
L 617.22 27.909761 
L 617.22 28.145501 
L 617.22 28.38124 
L 617.22 28.61698 
L 617.22 28.852719 
L 617.22 29.088459 
L 617.22 29.324198 
L 617.22 29.559938 
L 617.22 29.795677 
L 617.22 30.031417 
L 617.22 30.267156 
L 617.22 30.502895 
L 617.22 30.738635 
L 617.22 30.974374 
L 617.22 31.210114 
L 617.22 31.445853 
L 617.22 31.681593 
L 617.22 31.917332 
L 617.22 32.153072 
L 617.22 32.388811 
L 617.22 32.62455 
L 617.22 32.86029 
L 617.22 33.096029 
L 617.22 33.331769 
L 617.22 33.567508 
L 617.22 33.803248 
L 617.22 34.038987 
L 617.22 34.274727 
L 617.22 34.510466 
L 617.22 34.746206 
L 617.22 34.981945 
L 617.22 35.217684 
L 617.22 35.453424 
L 617.22 35.689163 
L 617.22 35.924903 
L 617.22 36.160642 
L 617.22 36.396382 
L 617.22 36.632121 
L 617.22 36.867861 
L 617.22 37.1036 
L 617.22 37.339339 
L 617.22 37.575079 
L 617.22 37.810818 
L 617.22 38.046558 
L 617.22 38.282297 
L 617.22 38.518037 
L 617.22 38.753776 
L 617.22 38.989516 
L 617.22 39.225255 
L 617.22 39.460994 
L 617.22 39.696734 
L 617.22 39.932473 
L 617.22 40.168213 
L 617.22 40.403952 
L 617.22 40.639692 
L 617.22 40.875431 
L 617.22 41.111171 
L 617.22 41.34691 
L 617.22 41.58265 
L 617.22 41.818389 
L 617.22 42.054128 
L 617.22 42.289868 
L 617.22 42.525607 
L 617.22 42.761347 
L 617.22 42.997086 
L 617.22 43.232826 
L 617.22 43.468565 
L 617.22 43.704305 
L 617.22 43.940044 
L 617.22 44.175783 
L 617.22 44.411523 
L 617.22 44.647262 
L 617.22 44.883002 
L 617.22 45.118741 
L 617.22 45.354481 
L 617.22 45.59022 
L 617.22 45.82596 
L 617.22 46.061699 
L 617.22 46.297439 
L 617.22 46.533178 
L 617.22 46.768917 
L 617.22 47.004657 
L 617.22 47.240396 
L 617.22 47.476136 
L 617.22 47.711875 
L 617.22 47.947615 
L 617.22 48.183354 
L 617.22 48.419094 
L 617.22 48.654833 
L 617.22 48.890572 
L 617.22 49.126312 
L 617.22 49.362051 
L 617.22 49.597791 
L 617.22 49.83353 
L 617.22 50.06927 
L 617.22 50.305009 
L 617.22 50.540749 
L 617.22 50.776488 
L 617.22 51.012228 
L 617.22 51.247967 
L 617.22 51.483706 
L 617.22 51.719446 
L 617.22 51.955185 
L 617.22 52.190925 
L 617.22 52.426664 
L 617.22 52.662404 
L 617.22 52.898143 
L 617.22 53.133883 
L 617.22 53.369622 
L 617.22 53.605361 
L 617.22 53.841101 
L 617.22 54.07684 
L 617.22 54.31258 
L 617.22 54.548319 
L 617.22 54.784059 
L 617.22 55.019798 
L 617.22 55.255538 
L 617.22 55.491277 
L 617.22 55.727017 
L 617.22 55.962756 
L 617.22 56.198495 
L 617.22 56.434235 
L 617.22 56.669974 
L 617.22 56.905714 
L 617.22 57.141453 
L 617.22 57.377193 
L 617.22 57.612932 
L 617.22 57.848672 
L 617.22 58.084411 
L 617.22 58.32015 
L 617.22 58.55589 
L 617.22 58.791629 
L 617.22 59.027369 
L 617.22 59.263108 
L 617.22 59.498848 
L 617.22 59.734587 
L 617.22 59.970327 
L 617.22 60.206066 
L 617.22 60.441806 
L 617.22 60.677545 
L 617.22 60.913284 
L 617.22 61.149024 
L 617.22 61.384763 
L 617.22 61.620503 
L 617.22 61.856242 
L 617.22 62.091982 
L 617.22 62.327721 
L 617.22 62.563461 
L 617.22 62.7992 
L 617.22 63.034939 
L 617.22 63.270679 
L 617.22 63.506418 
L 617.22 63.742158 
L 617.22 63.977897 
L 617.22 64.213637 
L 617.22 64.449376 
L 617.22 64.685116 
L 617.22 64.920855 
L 617.22 65.156594 
L 617.22 65.392334 
L 617.22 65.628073 
L 617.22 65.863813 
L 617.22 66.099552 
L 617.22 66.335292 
L 617.22 66.571031 
L 617.22 66.806771 
L 617.22 67.04251 
L 617.22 67.27825 
L 617.22 67.513989 
L 617.22 67.749728 
L 617.22 67.985468 
L 617.22 68.221207 
L 617.22 68.456947 
L 617.22 68.692686 
L 617.22 68.928426 
L 617.22 69.164165 
L 617.22 69.399905 
L 617.22 69.635644 
L 617.22 69.871383 
L 617.22 70.107123 
L 617.22 70.342862 
L 617.22 70.578602 
L 617.22 70.814341 
L 617.22 71.050081 
L 617.22 71.28582 
L 617.22 71.52156 
L 617.22 71.757299 
L 617.22 71.993039 
L 617.22 72.228778 
L 617.22 72.464517 
L 617.22 72.700257 
L 617.22 72.935996 
L 617.22 73.171736 
L 617.22 73.407475 
L 617.22 73.643215 
L 617.22 73.878954 
L 617.22 74.114694 
L 617.22 74.350433 
L 617.22 74.586172 
L 617.22 74.821912 
L 617.22 75.057651 
L 617.22 75.293391 
L 617.22 75.52913 
L 617.22 75.76487 
L 617.22 76.000609 
L 617.22 76.236349 
L 617.22 76.472088 
L 617.22 76.707828 
L 617.22 76.943567 
L 617.22 77.179306 
L 617.22 77.415046 
L 617.22 77.650785 
L 617.22 77.886525 
L 617.22 78.122264 
L 617.22 78.358004 
L 617.22 78.593743 
L 617.22 78.829483 
L 617.22 79.065222 
L 617.22 79.300961 
L 617.22 79.536701 
L 617.22 79.77244 
L 617.22 80.00818 
L 617.22 80.243919 
L 617.22 80.479659 
L 617.22 80.715398 
L 617.22 80.951138 
L 617.22 81.186877 
L 617.22 81.422617 
L 617.22 81.658356 
L 617.22 81.894095 
L 617.22 82.129835 
L 617.22 82.365574 
L 617.22 82.601314 
L 617.22 82.837053 
L 617.22 83.072793 
L 617.22 83.308532 
L 617.22 83.544272 
L 617.22 83.780011 
L 617.22 84.01575 
L 617.22 84.25149 
L 617.22 84.487229 
L 617.22 84.722969 
L 617.22 84.958708 
L 617.22 85.194448 
L 617.22 85.430187 
L 617.22 85.665927 
L 617.22 85.901666 
L 617.22 86.137406 
L 617.22 86.373145 
L 617.22 86.608884 
L 617.22 86.844624 
L 617.22 87.080363 
L 617.22 87.316103 
L 617.22 87.551842 
L 617.22 87.787582 
L 617.22 88.023321 
L 617.22 88.259061 
L 617.22 88.4948 
L 617.22 88.730539 
L 617.22 88.966279 
L 617.22 89.202018 
L 617.22 89.437758 
L 617.22 89.673497 
L 617.22 89.909237 
L 617.22 90.144976 
L 617.22 90.380716 
L 617.22 90.616455 
L 617.22 90.852194 
L 617.22 91.087934 
L 617.22 91.323673 
L 617.22 91.559413 
L 617.22 91.795152 
L 617.22 92.030892 
L 617.22 92.266631 
L 617.22 92.502371 
L 617.22 92.73811 
L 617.22 92.97385 
L 617.22 93.209589 
L 617.22 93.445328 
L 617.22 93.681068 
L 617.22 93.916807 
L 617.22 94.152547 
L 617.22 94.388286 
L 617.22 94.624026 
L 617.22 94.859765 
L 617.22 95.095505 
L 617.22 95.331244 
L 617.22 95.566983 
L 617.22 95.802723 
L 617.22 96.038462 
L 617.22 96.274202 
L 617.22 96.509941 
L 617.22 96.745681 
L 617.22 96.98142 
L 617.22 97.21716 
L 617.22 97.452899 
L 617.22 97.688639 
L 617.22 97.924378 
L 617.22 98.160117 
L 617.22 98.395857 
L 617.22 98.631596 
L 617.22 98.867336 
L 617.22 99.103075 
L 617.22 99.338815 
L 617.22 99.574554 
L 617.22 99.810294 
L 617.22 100.046033 
L 617.22 100.281772 
L 617.22 100.517512 
L 617.22 100.753251 
L 617.22 100.988991 
L 617.22 101.22473 
L 617.22 101.46047 
L 617.22 101.696209 
L 617.22 101.931949 
L 617.22 102.167688 
L 617.22 102.403428 
L 617.22 102.639167 
L 617.22 102.874906 
L 617.22 103.110646 
L 617.22 103.346385 
L 617.22 103.582125 
L 617.22 103.817864 
L 617.22 104.053604 
L 617.22 104.289343 
L 617.22 104.525083 
L 617.22 104.760822 
L 617.22 104.996561 
L 617.22 105.232301 
L 617.22 105.46804 
L 617.22 105.70378 
L 617.22 105.939519 
L 617.22 106.175259 
L 617.22 106.410998 
L 617.22 106.646738 
L 617.22 106.882477 
L 617.22 107.118217 
L 617.22 107.353956 
L 617.22 107.589695 
L 617.22 107.825435 
L 617.22 108.061174 
L 617.22 108.296914 
L 617.22 108.532653 
L 617.22 108.768393 
L 617.22 109.004132 
L 617.22 109.239872 
L 617.22 109.475611 
L 617.22 109.71135 
L 617.22 109.94709 
L 617.22 110.182829 
L 617.22 110.418569 
L 617.22 110.654308 
L 617.22 110.890048 
L 617.22 111.125787 
L 617.22 111.361527 
L 617.22 111.597266 
L 617.22 111.833006 
L 617.22 112.068745 
L 617.22 112.304484 
L 617.22 112.540224 
L 617.22 112.775963 
L 617.22 113.011703 
L 617.22 113.247442 
L 617.22 113.483182 
L 617.22 113.718921 
L 617.22 113.954661 
L 617.22 114.1904 
L 617.22 114.426139 
L 617.22 114.661879 
L 617.22 114.897618 
L 617.22 115.133358 
L 617.22 115.369097 
L 617.22 115.604837 
L 617.22 115.840576 
L 617.22 116.076316 
L 617.22 116.312055 
L 617.22 116.547794 
L 617.22 116.783534 
L 617.22 117.019273 
L 617.22 117.255013 
L 617.22 117.490752 
L 617.22 117.726492 
L 617.22 117.962231 
L 617.22 118.197971 
L 617.22 118.43371 
L 617.22 118.66945 
L 617.22 118.905189 
L 617.22 119.140928 
L 617.22 119.376668 
L 617.22 119.612407 
L 617.22 119.848147 
L 617.22 120.083886 
L 617.22 120.319626 
L 617.22 120.555365 
L 617.22 120.791105 
L 617.22 121.026844 
L 617.22 121.262583 
L 617.22 121.498323 
L 617.22 121.734062 
L 617.22 121.969802 
L 617.22 122.205541 
L 617.22 122.441281 
L 617.22 122.67702 
L 617.22 122.91276 
L 617.22 123.148499 
L 617.22 123.384239 
L 617.22 123.619978 
L 617.22 123.855717 
L 617.22 124.091457 
L 617.22 124.327196 
L 617.22 124.562936 
L 617.22 124.798675 
L 617.22 125.034415 
L 617.22 125.270154 
L 617.22 125.505894 
L 617.22 125.741633 
L 617.22 125.977372 
L 617.22 126.213112 
L 617.22 126.448851 
L 617.22 126.684591 
L 617.22 126.92033 
L 617.22 127.15607 
L 617.22 127.391809 
L 617.22 127.627549 
L 617.22 127.863288 
L 617.22 128.099028 
L 617.22 128.334767 
L 617.22 128.570506 
L 617.22 128.806246 
L 617.22 129.041985 
L 617.22 129.277725 
L 617.22 129.513464 
L 617.22 129.749204 
L 617.22 129.984943 
L 617.22 130.220683 
L 617.22 130.456422 
L 617.22 130.692161 
L 617.22 130.927901 
L 617.22 131.16364 
L 617.22 131.39938 
L 617.22 131.635119 
L 617.22 131.870859 
L 617.22 132.106598 
L 617.22 132.342338 
L 617.22 132.578077 
L 617.22 132.813817 
L 617.22 133.049556 
L 617.22 133.285295 
L 617.22 133.521035 
L 617.22 133.756774 
L 617.22 133.992514 
L 617.22 134.228253 
L 617.22 134.463993 
L 617.22 134.699732 
L 617.22 134.935472 
L 617.22 135.171211 
L 617.22 135.40695 
L 617.22 135.64269 
L 617.22 135.878429 
L 617.22 136.114169 
L 617.22 136.349908 
L 617.22 136.585648 
L 617.22 136.821387 
L 617.22 137.057127 
L 617.22 137.292866 
L 617.22 137.528606 
L 617.22 137.764345 
L 617.22 138.000084 
L 617.22 138.235824 
L 617.22 138.471563 
L 617.22 138.707303 
L 617.22 138.943042 
L 617.22 139.178782 
L 617.22 139.414521 
L 617.22 139.650261 
L 617.22 139.886 
L 617.22 140.121739 
L 617.22 140.357479 
L 617.22 140.593218 
L 617.22 140.828958 
L 617.22 141.064697 
L 617.22 141.300437 
L 617.22 141.536176 
L 617.22 141.771916 
L 617.22 142.007655 
L 617.22 142.243394 
L 617.22 142.479134 
L 617.22 142.714873 
L 617.22 142.950613 
L 617.22 143.186352 
L 617.22 143.422092 
L 617.22 143.657831 
L 617.22 143.893571 
L 617.22 144.12931 
L 617.22 144.36505 
L 617.22 144.600789 
L 617.22 144.836528 
L 617.22 145.072268 
L 617.22 145.308007 
L 617.22 145.543747 
L 617.22 145.779486 
L 617.22 146.015226 
L 617.22 146.250965 
L 617.22 146.486705 
L 617.22 146.722444 
L 617.22 146.958183 
L 617.22 147.193923 
L 617.22 147.429662 
L 617.22 147.665402 
L 617.22 147.901141 
L 617.22 148.136881 
L 617.22 148.37262 
L 617.22 148.60836 
L 617.22 148.844099 
L 617.22 149.079839 
L 617.22 149.315578 
L 617.22 149.551317 
L 617.22 149.787057 
L 617.22 150.022796 
L 617.22 150.258536 
L 617.22 150.494275 
L 617.22 150.730015 
L 617.22 150.965754 
L 617.22 151.201494 
L 617.22 151.437233 
L 617.22 151.672972 
L 617.22 151.908712 
L 617.22 152.144451 
L 617.22 152.380191 
L 617.22 152.61593 
L 617.22 152.85167 
L 617.22 153.087409 
L 617.22 153.323149 
L 617.22 153.558888 
L 617.22 153.794628 
L 617.22 154.030367 
L 617.22 154.266106 
L 617.22 154.501846 
L 617.22 154.737585 
L 617.22 154.973325 
L 617.22 155.209064 
L 617.22 155.444804 
L 617.22 155.680543 
L 617.22 155.916283 
L 617.22 156.152022 
L 617.22 156.387761 
L 617.22 156.623501 
L 617.22 156.85924 
L 617.22 157.09498 
L 617.22 157.330719 
L 617.22 157.566459 
L 617.22 157.802198 
L 617.22 158.037938 
L 617.22 158.273677 
L 617.22 158.509417 
L 617.22 158.745156 
L 617.22 158.980895 
L 617.22 159.216635 
L 617.22 159.452374 
L 617.22 159.688114 
L 617.22 159.923853 
L 617.22 160.159593 
L 617.22 160.395332 
L 617.22 160.631072 
L 617.22 160.866811 
L 617.22 161.10255 
L 617.22 161.33829 
L 617.22 161.574029 
L 617.22 161.809769 
L 617.22 162.045508 
L 617.22 162.281248 
L 617.22 162.516987 
L 617.22 162.752727 
L 617.22 162.988466 
L 617.22 163.224206 
L 617.22 163.459945 
L 617.22 163.695684 
L 617.22 163.931424 
L 617.22 164.167163 
L 617.22 164.402903 
L 617.22 164.638642 
L 617.22 164.874382 
L 617.22 165.110121 
L 617.22 165.345861 
L 617.22 165.5816 
L 617.22 165.817339 
L 617.22 166.053079 
L 617.22 166.288818 
L 617.22 166.524558 
L 617.22 166.760297 
L 617.22 166.996037 
L 617.22 167.231776 
L 617.22 167.467516 
L 617.22 167.703255 
L 617.22 167.938994 
L 617.22 168.174734 
L 617.22 168.410473 
L 617.22 168.646213 
L 617.22 168.881952 
L 617.22 169.117692 
L 617.22 169.353431 
L 617.22 169.589171 
L 617.22 169.82491 
L 617.22 170.06065 
L 617.22 170.296389 
L 617.22 170.532128 
L 617.22 170.767868 
L 617.22 171.003607 
L 617.22 171.239347 
L 617.22 171.475086 
L 617.22 171.710826 
L 617.22 171.946565 
L 617.22 172.182305 
L 617.22 172.418044 
L 617.22 172.653783 
L 617.22 172.889523 
L 617.22 173.125262 
L 617.22 173.361002 
L 617.22 173.596741 
L 617.22 173.832481 
L 617.22 174.06822 
L 617.22 174.30396 
L 617.22 174.539699 
L 617.22 174.775439 
L 617.22 175.011178 
L 617.22 175.246917 
L 617.22 175.482657 
L 617.22 175.718396 
L 617.22 175.954136 
L 617.22 176.189875 
L 617.22 176.425615 
L 617.22 176.661354 
L 617.22 176.897094 
L 617.22 177.132833 
L 617.22 177.368572 
L 617.22 177.604312 
L 617.22 177.840051 
L 617.22 178.075791 
L 617.22 178.31153 
L 617.22 178.54727 
L 617.22 178.783009 
L 617.22 179.018749 
L 617.22 179.254488 
L 617.22 179.490228 
L 617.22 179.725967 
L 617.22 179.961706 
L 617.22 180.197446 
L 617.22 180.433185 
L 617.22 180.668925 
L 617.22 180.904664 
L 617.22 181.140404 
L 617.22 181.376143 
L 617.22 181.611883 
L 617.22 181.847622 
L 617.22 182.083361 
L 617.22 182.319101 
L 617.22 182.55484 
L 617.22 182.79058 
L 617.22 183.026319 
L 617.22 183.262059 
L 617.22 183.497798 
L 617.22 183.733538 
L 617.22 183.969277 
L 617.22 184.205017 
L 617.22 184.440756 
L 617.22 184.676495 
L 617.22 184.912235 
L 617.22 185.147974 
L 617.22 185.383714 
L 617.22 185.619453 
L 617.22 185.855193 
L 617.22 186.090932 
L 617.22 186.326672 
L 617.22 186.562411 
L 617.22 186.79815 
L 617.22 187.03389 
L 617.22 187.269629 
L 617.22 187.505369 
L 617.22 187.741108 
L 617.22 187.976848 
L 617.22 188.212587 
L 617.22 188.448327 
L 617.22 188.684066 
L 617.22 188.919806 
L 617.22 189.155545 
L 617.22 189.391284 
L 617.22 189.627024 
L 617.22 189.862763 
L 617.22 190.098503 
L 617.22 190.334242 
L 617.22 190.569982 
L 617.22 190.805721 
L 617.22 191.041461 
L 617.22 191.2772 
L 617.22 191.512939 
L 617.22 191.748679 
L 617.22 191.984418 
L 617.22 192.220158 
L 617.22 192.455897 
L 617.22 192.691637 
L 617.22 192.927376 
L 617.22 193.163116 
L 617.22 193.398855 
L 617.22 193.634594 
L 617.22 193.870334 
L 617.22 194.106073 
L 617.22 194.341813 
L 617.22 194.577552 
L 617.22 194.813292 
L 617.22 195.049031 
L 617.22 195.284771 
L 617.22 195.52051 
L 617.22 195.75625 
L 617.22 195.991989 
L 617.22 196.227728 
L 617.22 196.463468 
L 617.22 196.699207 
L 617.22 196.934947 
L 617.22 197.170686 
L 617.22 197.406426 
L 617.22 197.642165 
L 617.22 197.877905 
L 617.22 198.113644 
L 617.22 198.349383 
L 617.22 198.585123 
L 617.22 198.820862 
L 617.22 199.056602 
L 617.22 199.292341 
L 617.22 199.528081 
L 617.22 199.76382 
L 617.22 199.99956 
L 617.22 200.235299 
L 617.22 200.471039 
L 617.22 200.706778 
L 617.22 200.942517 
L 617.22 201.178257 
L 617.22 201.413996 
L 617.22 201.649736 
L 617.22 201.885475 
L 617.22 202.121215 
L 617.22 202.356954 
L 617.22 202.592694 
L 617.22 202.828433 
L 617.22 203.064172 
L 617.22 203.299912 
L 617.22 203.535651 
L 617.22 203.771391 
L 617.22 204.00713 
L 617.22 204.24287 
L 617.22 204.478609 
L 617.22 204.714349 
L 617.22 204.950088 
L 617.22 205.185828 
L 617.22 205.421567 
L 617.22 205.657306 
L 617.22 205.893046 
L 617.22 206.128785 
L 617.22 206.364525 
L 617.22 206.600264 
L 617.22 206.836004 
L 617.22 207.071743 
L 617.22 207.307483 
L 617.22 207.543222 
L 617.22 207.778961 
L 617.22 208.014701 
L 617.22 208.25044 
L 617.22 208.48618 
L 617.22 208.721919 
L 617.22 208.957659 
L 617.22 209.193398 
L 617.22 209.429138 
L 617.22 209.664877 
L 617.22 209.900617 
L 617.22 210.136356 
L 617.22 210.372095 
L 617.22 210.607835 
L 617.22 210.843574 
L 617.22 211.079314 
L 617.22 211.315053 
L 617.22 211.550793 
L 617.22 211.786532 
L 617.22 212.022272 
L 617.22 212.258011 
L 617.22 212.49375 
L 617.22 212.72949 
L 617.22 212.965229 
L 617.22 213.200969 
L 617.22 213.436708 
L 617.22 213.672448 
L 617.22 213.908187 
L 617.22 214.143927 
L 617.22 214.379666 
L 617.22 214.615406 
L 617.22 214.851145 
L 617.22 215.086884 
L 617.22 215.322624 
L 617.22 215.558363 
L 617.22 215.794103 
L 617.22 216.029842 
L 617.22 216.265582 
L 617.22 216.501321 
L 617.22 216.737061 
L 617.22 216.9728 
L 617.22 217.208539 
L 617.22 217.444279 
L 617.22 217.680018 
L 617.22 217.915758 
L 617.22 218.151497 
L 617.22 218.387237 
L 617.22 218.622976 
L 617.22 218.858716 
L 617.22 219.094455 
L 617.22 219.330194 
L 617.22 219.565934 
L 617.22 219.801673 
L 617.22 220.037413 
L 617.22 220.273152 
L 617.22 220.508892 
L 617.22 220.744631 
L 617.22 220.980371 
L 617.22 221.21611 
L 617.22 221.45185 
L 617.22 221.687589 
L 617.22 221.923328 
L 617.22 222.159068 
L 617.22 222.394807 
L 617.22 222.630547 
L 617.22 222.866286 
L 617.22 223.102026 
L 617.22 223.337765 
L 617.22 223.573505 
L 617.22 223.809244 
L 617.22 224.044983 
L 617.22 224.280723 
L 617.22 224.516462 
L 617.22 224.752202 
L 617.22 224.987941 
L 617.22 225.223681 
L 617.22 225.45942 
L 617.22 225.69516 
L 617.22 225.930899 
L 617.22 226.166639 
L 617.22 226.402378 
L 617.22 226.638117 
L 617.22 226.873857 
L 617.22 227.109596 
L 617.22 227.345336 
L 617.22 227.581075 
L 617.22 227.816815 
L 617.22 228.052554 
L 617.22 228.288294 
L 617.22 228.524033 
L 617.22 228.759772 
L 617.22 228.995512 
L 617.22 229.231251 
L 617.22 229.466991 
L 617.22 229.70273 
L 617.22 229.93847 
L 617.22 230.174209 
L 617.22 230.409949 
L 617.22 230.645688 
L 617.22 230.881428 
L 617.22 231.117167 
L 617.22 231.352906 
L 617.22 231.588646 
L 617.22 231.824385 
L 617.22 232.060125 
L 617.22 232.295864 
L 617.22 232.531604 
L 617.22 232.767343 
L 617.22 233.003083 
L 617.22 233.238822 
L 617.22 233.474561 
L 617.22 233.710301 
L 617.22 233.94604 
L 617.22 234.18178 
L 617.22 234.417519 
L 617.22 234.653259 
L 617.22 234.888998 
L 617.22 235.124738 
L 617.22 235.360477 
L 617.22 235.596217 
L 617.22 235.831956 
L 617.22 236.067695 
L 617.22 236.303435 
L 617.22 236.539174 
L 617.22 236.774914 
L 617.22 237.010653 
L 617.22 237.246393 
L 617.22 237.482132 
L 617.22 237.717872 
L 617.22 237.953611 
L 617.22 238.18935 
L 617.22 238.42509 
L 617.22 238.660829 
L 617.22 238.896569 
L 617.22 239.132308 
L 617.22 239.368048 
L 617.22 239.603787 
L 617.22 239.839527 
L 617.22 240.075266 
L 617.22 240.311006 
L 617.22 240.546745 
L 617.22 240.782484 
L 617.22 241.018224 
L 617.22 241.253963 
L 617.22 241.489703 
L 617.22 241.725442 
L 617.22 241.961182 
L 617.22 242.196921 
L 617.22 242.432661 
L 617.22 242.6684 
L 617.22 242.904139 
L 617.22 243.139879 
L 617.22 243.375618 
L 617.22 243.611358 
L 617.22 243.847097 
L 617.22 244.082837 
L 617.22 244.318576 
L 617.22 244.554316 
L 617.22 244.790055 
L 617.22 245.025794 
L 617.22 245.261534 
L 617.22 245.497273 
L 617.22 245.733013 
L 617.22 245.968752 
L 617.22 246.204492 
L 617.22 246.440231 
L 617.22 246.675971 
L 617.22 246.91171 
L 617.22 247.14745 
L 617.22 247.383189 
L 617.22 247.618928 
L 617.22 247.854668 
L 617.22 248.090407 
L 617.22 248.326147 
L 617.22 248.561886 
L 617.22 248.797626 
L 617.22 249.033365 
L 617.22 249.269105 
L 617.22 249.504844 
L 617.22 249.740583 
L 617.22 249.976323 
L 617.22 250.212062 
L 617.22 250.447802 
L 617.22 250.683541 
L 617.22 250.919281 
L 617.22 251.15502 
L 617.22 251.39076 
L 617.22 251.626499 
L 617.22 251.862239 
L 617.22 252.097978 
L 617.22 252.333717 
L 617.22 252.569457 
L 617.22 252.805196 
L 617.22 253.040936 
L 617.22 253.276675 
L 617.22 253.512415 
L 617.22 253.748154 
L 617.22 253.983894 
L 617.22 254.219633 
L 617.22 254.455372 
L 617.22 254.691112 
L 617.22 254.926851 
L 617.22 255.162591 
L 617.22 255.39833 
L 617.22 255.63407 
L 617.22 255.869809 
L 617.22 256.105549 
L 617.22 256.341288 
L 617.22 256.577028 
L 617.22 256.812767 
L 617.22 257.048506 
L 617.22 257.284246 
L 617.22 257.519985 
L 617.22 257.755725 
L 617.22 257.991464 
L 617.22 258.227204 
L 617.22 258.462943 
L 617.22 258.698683 
L 617.22 258.934422 
L 617.22 259.170161 
L 617.22 259.405901 
L 617.22 259.64164 
L 617.22 259.87738 
L 617.22 260.113119 
L 617.22 260.348859 
L 617.22 260.584598 
L 617.22 260.820338 
L 617.22 261.056077 
L 617.22 261.291817 
L 617.22 261.527556 
L 617.22 261.763295 
L 617.22 261.999035 
L 617.22 262.234774 
L 617.22 262.470514 
L 617.22 262.706253 
L 617.22 262.941993 
L 617.22 263.177732 
L 617.22 263.413472 
L 617.22 263.649211 
L 617.22 263.88495 
L 617.22 264.12069 
L 617.22 264.356429 
L 617.22 264.592169 
L 617.22 264.827908 
L 617.22 265.063648 
L 617.22 265.299387 
L 617.22 265.535127 
L 617.22 265.770866 
L 617.22 266.006606 
L 617.22 266.242345 
L 617.22 266.478084 
L 617.22 266.713824 
L 617.22 266.949563 
L 617.22 267.185303 
L 617.22 267.421042 
L 617.22 267.656782 
L 617.22 267.892521 
L 617.22 268.128261 
L 617.22 268.364 
L 617.22 268.599739 
L 617.22 268.835479 
L 617.22 269.071218 
L 617.22 269.306958 
L 617.22 269.542697 
L 617.22 269.778437 
L 617.22 270.014176 
L 617.22 270.249916 
L 617.22 270.485655 
L 617.22 270.721394 
L 617.22 270.957134 
L 617.22 271.192873 
L 617.22 271.428613 
L 617.22 271.664352 
L 617.22 271.900092 
L 617.22 272.135831 
L 617.22 272.371571 
L 617.22 272.60731 
L 617.22 272.84305 
L 617.22 273.078789 
L 617.22 273.314528 
L 617.22 273.550268 
L 617.22 273.786007 
L 617.22 274.021747 
L 617.22 274.257486 
L 617.22 274.493226 
L 617.22 274.728965 
L 617.22 274.964705 
L 617.22 275.200444 
L 617.22 275.436183 
L 617.22 275.671923 
L 617.22 275.907662 
L 617.22 276.143402 
L 617.22 276.379141 
L 617.22 276.614881 
L 617.22 276.85062 
L 617.22 277.08636 
L 617.22 277.322099 
L 617.22 277.557839 
L 617.22 277.793578 
L 617.22 278.029317 
L 617.22 278.265057 
L 617.22 278.500796 
L 617.22 278.736536 
L 617.22 278.972275 
L 617.22 279.208015 
L 617.22 279.443754 
L 617.22 279.679494 
L 617.22 279.915233 
L 617.22 280.150972 
L 617.22 280.386712 
L 617.22 280.622451 
L 617.22 280.858191 
L 617.22 281.09393 
L 617.22 281.32967 
L 617.22 281.565409 
L 617.22 281.801149 
L 617.22 282.036888 
L 617.22 282.272628 
L 617.22 282.508367 
L 617.22 282.744106 
L 617.22 282.979846 
L 617.22 283.215585 
L 617.22 283.451325 
L 617.22 283.687064 
L 617.22 283.922804 
L 617.22 284.158543 
L 617.22 284.394283 
L 617.22 284.630022 
L 617.22 284.865761 
L 617.22 285.101501 
L 617.22 285.33724 
L 617.22 285.57298 
L 617.22 285.808719 
L 617.22 286.044459 
L 617.22 286.280198 
L 617.22 286.515938 
L 617.22 286.751677 
L 617.22 286.987417 
L 617.22 287.223156 
L 617.22 287.458895 
L 617.22 287.694635 
L 617.22 287.930374 
L 617.22 288.166114 
L 617.22 288.401853 
L 617.22 288.637593 
L 617.22 288.873332 
L 617.22 289.109072 
L 617.22 289.344811 
L 617.22 289.58055 
L 617.22 289.81629 
L 617.22 290.052029 
L 617.22 290.287769 
L 617.22 290.523508 
L 617.22 290.759248 
L 617.22 290.994987 
L 617.22 291.230727 
L 617.22 291.466466 
L 617.22 291.702206 
L 617.22 291.937945 
L 617.22 292.173684 
L 617.22 292.409424 
L 617.22 292.645163 
L 617.22 292.880903 
L 617.22 293.116642 
L 617.22 293.352382 
L 617.22 293.588121 
L 617.22 293.823861 
L 617.22 294.0596 
z
" clip-path="url(#p5c89fa97d8)" style="fill: #c34a22; fill-opacity: 0.06; stroke: #c34a22; stroke-opacity: 0.06"/>
   </g>
   <g id="line2d_1">
    <path d="M 64.8 259.348 
L 466.56 259.348 
" clip-path="url(#p5c89fa97d8)" style="fill: none; stroke: #d8cfbc; stroke-width: 0.9; stroke-linecap: square"/>
   </g>
   <g id="matplotlib.axis_1">
    <g id="xtick_1">
     <g id="line2d_2">
      <defs>
       <path id="med794d8f59" d="M 0 0 
L 0 3.5 
" style="stroke: #5c554a; stroke-width: 0.8"/>
      </defs>
      <g>
       <use xlink:href="#med794d8f59" x="115.02" y="294.768" style="fill: #5c554a; stroke: #5c554a; stroke-width: 0.8"/>
      </g>
     </g>
     <g id="text_1">
      <text style="font-size: 12px; font-family: 'Georgia', 'Times New Roman', 'DejaVu Serif', serif; text-anchor: middle; fill: #5c554a" x="115.02" y="310.83925" transform="rotate(-0 115.02 310.83925)">0</text>
     </g>
    </g>
    <g id="xtick_2">
     <g id="line2d_3">
      <g>
       <use xlink:href="#med794d8f59" x="198.72" y="294.768" style="fill: #5c554a; stroke: #5c554a; stroke-width: 0.8"/>
      </g>
     </g>
     <g id="text_2">
      <text style="font-size: 12px; font-family: 'Georgia', 'Times New Roman', 'DejaVu Serif', serif; text-anchor: middle; fill: #5c554a" x="198.72" y="310.83925" transform="rotate(-0 198.72 310.83925)">5</text>
     </g>
    </g>
    <g id="xtick_3">
     <g id="line2d_4">
      <g>
       <use xlink:href="#med794d8f59" x="282.42" y="294.768" style="fill: #5c554a; stroke: #5c554a; stroke-width: 0.8"/>
      </g>
     </g>
     <g id="text_3">
      <text style="font-size: 12px; font-family: 'Georgia', 'Times New Roman', 'DejaVu Serif', serif; text-anchor: middle; fill: #5c554a" x="282.42" y="310.83925" transform="rotate(-0 282.42 310.83925)">10</text>
     </g>
    </g>
    <g id="xtick_4">
     <g id="line2d_5">
      <g>
       <use xlink:href="#med794d8f59" x="366.12" y="294.768" style="fill: #5c554a; stroke: #5c554a; stroke-width: 0.8"/>
      </g>
     </g>
     <g id="text_4">
      <text style="font-size: 12px; font-family: 'Georgia', 'Times New Roman', 'DejaVu Serif', serif; text-anchor: middle; fill: #5c554a" x="366.12" y="310.83925" transform="rotate(-0 366.12 310.83925)">15</text>
     </g>
    </g>
    <g id="xtick_5">
     <g id="line2d_6">
      <g>
       <use xlink:href="#med794d8f59" x="449.82" y="294.768" style="fill: #5c554a; stroke: #5c554a; stroke-width: 0.8"/>
      </g>
     </g>
     <g id="text_5">
      <text style="font-size: 12px; font-family: 'Georgia', 'Times New Roman', 'DejaVu Serif', serif; text-anchor: middle; fill: #5c554a" x="449.82" y="310.83925" transform="rotate(-0 449.82 310.83925)">20</text>
     </g>
    </g>
    <g id="text_6">
     <!-- $E_b/N_0$ required (dB) -->
     <g style="fill: #5c554a" transform="translate(212.22 326.56175)">
      <text>
       <tspan x="0" y="-0.921875" style="font-style: oblique; font-size: 12px; font-family: 'DejaVu Sans'; fill: #5c554a">E</tspan>
       <tspan x="17.285156" y="-0.921875" style="font-style: oblique; font-size: 12px; font-family: 'DejaVu Sans'; fill: #5c554a">N</tspan>
       <tspan x="7.582031" y="1.046875" style="font-style: oblique; font-size: 8.4px; font-family: 'DejaVu Sans'; fill: #5c554a">b</tspan>
       <tspan x="13.242188" y="-0.921875" style="font-size: 12px; font-family: 'DejaVu Sans'; fill: #5c554a">/</tspan>
       <tspan x="26.261719" y="1.046875" style="font-size: 8.4px; font-family: 'DejaVu Sans'; fill: #5c554a">0</tspan>
       <tspan x="31.93418" y="-0.921875" style="font-size: 12px; font-family: 'Georgia'; fill: #5c554a"> </tspan>
       <tspan x="34.828711" y="-0.921875" style="font-size: 12px; font-family: 'Georgia'; fill: #5c554a">r</tspan>
       <tspan x="39.744727" y="-0.921875" style="font-size: 12px; font-family: 'Georgia'; fill: #5c554a">e</tspan>
       <tspan x="45.545508" y="-0.921875" style="font-size: 12px; font-family: 'Georgia'; fill: #5c554a">q</tspan>
       <tspan x="52.260352" y="-0.921875" style="font-size: 12px; font-family: 'Georgia'; fill: #5c554a">u</tspan>
       <tspan x="59.162695" y="-0.921875" style="font-size: 12px; font-family: 'Georgia'; fill: #5c554a">i</tspan>
       <tspan x="62.67832" y="-0.921875" style="font-size: 12px; font-family: 'Georgia'; fill: #5c554a">r</tspan>
       <tspan x="67.594336" y="-0.921875" style="font-size: 12px; font-family: 'Georgia'; fill: #5c554a">e</tspan>
       <tspan x="73.395117" y="-0.921875" style="font-size: 12px; font-family: 'Georgia'; fill: #5c554a">d</tspan>
       <tspan x="80.285742" y="-0.921875" style="font-size: 12px; font-family: 'Georgia'; fill: #5c554a"> </tspan>
       <tspan x="83.180273" y="-0.921875" style="font-size: 12px; font-family: 'Georgia'; fill: #5c554a">(</tspan>
       <tspan x="87.680273" y="-0.921875" style="font-size: 12px; font-family: 'Georgia'; fill: #5c554a">d</tspan>
       <tspan x="94.570898" y="-0.921875" style="font-size: 12px; font-family: 'Georgia'; fill: #5c554a">B</tspan>
       <tspan x="102.416602" y="-0.921875" style="font-size: 12px; font-family: 'Georgia'; fill: #5c554a">)</tspan>
      </text>
     </g>
    </g>
   </g>
   <g id="matplotlib.axis_2">
    <g id="ytick_1">
     <g id="line2d_7">
      <defs>
       <path id="m6a4e83aa68" d="M 0 0 
L -3.5 0 
" style="stroke: #5c554a; stroke-width: 0.8"/>
      </defs>
      <g>
       <use xlink:href="#m6a4e83aa68" x="64.8" y="294.768" style="fill: #5c554a; stroke: #5c554a; stroke-width: 0.8"/>
      </g>
     </g>
     <g id="text_7">
      <text style="font-size: 12px; font-family: 'Georgia', 'Times New Roman', 'DejaVu Serif', serif; text-anchor: end; fill: #5c554a" x="57.8" y="299.303625" transform="rotate(-0 57.8 299.303625)">0</text>
     </g>
    </g>
    <g id="ytick_2">
     <g id="line2d_8">
      <g>
       <use xlink:href="#m6a4e83aa68" x="64.8" y="259.348" style="fill: #5c554a; stroke: #5c554a; stroke-width: 0.8"/>
      </g>
     </g>
     <g id="text_8">
      <text style="font-size: 12px; font-family: 'Georgia', 'Times New Roman', 'DejaVu Serif', serif; text-anchor: end; fill: #5c554a" x="57.8" y="263.883625" transform="rotate(-0 57.8 263.883625)">1</text>
     </g>
    </g>
    <g id="ytick_3">
     <g id="line2d_9">
      <g>
       <use xlink:href="#m6a4e83aa68" x="64.8" y="223.928" style="fill: #5c554a; stroke: #5c554a; stroke-width: 0.8"/>
      </g>
     </g>
     <g id="text_9">
      <text style="font-size: 12px; font-family: 'Georgia', 'Times New Roman', 'DejaVu Serif', serif; text-anchor: end; fill: #5c554a" x="57.8" y="228.463625" transform="rotate(-0 57.8 228.463625)">2</text>
     </g>
    </g>
    <g id="ytick_4">
     <g id="line2d_10">
      <g>
       <use xlink:href="#m6a4e83aa68" x="64.8" y="188.508" style="fill: #5c554a; stroke: #5c554a; stroke-width: 0.8"/>
      </g>
     </g>
     <g id="text_10">
      <text style="font-size: 12px; font-family: 'Georgia', 'Times New Roman', 'DejaVu Serif', serif; text-anchor: end; fill: #5c554a" x="57.8" y="193.043625" transform="rotate(-0 57.8 193.043625)">3</text>
     </g>
    </g>
    <g id="ytick_5">
     <g id="line2d_11">
      <g>
       <use xlink:href="#m6a4e83aa68" x="64.8" y="153.088" style="fill: #5c554a; stroke: #5c554a; stroke-width: 0.8"/>
      </g>
     </g>
     <g id="text_11">
      <text style="font-size: 12px; font-family: 'Georgia', 'Times New Roman', 'DejaVu Serif', serif; text-anchor: end; fill: #5c554a" x="57.8" y="157.623625" transform="rotate(-0 57.8 157.623625)">4</text>
     </g>
    </g>
    <g id="ytick_6">
     <g id="line2d_12">
      <g>
       <use xlink:href="#m6a4e83aa68" x="64.8" y="117.668" style="fill: #5c554a; stroke: #5c554a; stroke-width: 0.8"/>
      </g>
     </g>
     <g id="text_12">
      <text style="font-size: 12px; font-family: 'Georgia', 'Times New Roman', 'DejaVu Serif', serif; text-anchor: end; fill: #5c554a" x="57.8" y="122.203625" transform="rotate(-0 57.8 122.203625)">5</text>
     </g>
    </g>
    <g id="ytick_7">
     <g id="line2d_13">
      <g>
       <use xlink:href="#m6a4e83aa68" x="64.8" y="82.248" style="fill: #5c554a; stroke: #5c554a; stroke-width: 0.8"/>
      </g>
     </g>
     <g id="text_13">
      <text style="font-size: 12px; font-family: 'Georgia', 'Times New Roman', 'DejaVu Serif', serif; text-anchor: end; fill: #5c554a" x="57.8" y="86.783625" transform="rotate(-0 57.8 86.783625)">6</text>
     </g>
    </g>
    <g id="ytick_8">
     <g id="line2d_14">
      <g>
       <use xlink:href="#m6a4e83aa68" x="64.8" y="46.828" style="fill: #5c554a; stroke: #5c554a; stroke-width: 0.8"/>
      </g>
     </g>
     <g id="text_14">
      <text style="font-size: 12px; font-family: 'Georgia', 'Times New Roman', 'DejaVu Serif', serif; text-anchor: end; fill: #5c554a" x="57.8" y="51.363625" transform="rotate(-0 57.8 51.363625)">7</text>
     </g>
    </g>
    <g id="text_15">
     <!-- spectral efficiency  $\eta = R_b/W$  (bits/s/Hz) -->
     <g style="fill: #5c554a" transform="translate(43.795 276.756) rotate(-90)">
      <text>
       <tspan x="0" y="-0.921875" style="font-size: 12px; font-family: 'Georgia'; fill: #5c554a">s</tspan>
       <tspan x="5.185547" y="-0.921875" style="font-size: 12px; font-family: 'Georgia'; fill: #5c554a">p</tspan>
       <tspan x="12.041016" y="-0.921875" style="font-size: 12px; font-family: 'Georgia'; fill: #5c554a">e</tspan>
       <tspan x="17.841797" y="-0.921875" style="font-size: 12px; font-family: 'Georgia'; fill: #5c554a">c</tspan>
       <tspan x="23.291016" y="-0.921875" style="font-size: 12px; font-family: 'Georgia'; fill: #5c554a">t</tspan>
       <tspan x="27.433594" y="-0.921875" style="font-size: 12px; font-family: 'Georgia'; fill: #5c554a">r</tspan>
       <tspan x="32.349609" y="-0.921875" style="font-size: 12px; font-family: 'Georgia'; fill: #5c554a">a</tspan>
       <tspan x="38.396484" y="-0.921875" style="font-size: 12px; font-family: 'Georgia'; fill: #5c554a">l</tspan>
       <tspan x="41.830078" y="-0.921875" style="font-size: 12px; font-family: 'Georgia'; fill: #5c554a"> </tspan>
       <tspan x="44.724609" y="-0.921875" style="font-size: 12px; font-family: 'Georgia'; fill: #5c554a">e</tspan>
       <tspan x="50.525391" y="-0.921875" style="font-size: 12px; font-family: 'Georgia'; fill: #5c554a">f</tspan>
       <tspan x="54.427734" y="-0.921875" style="font-size: 12px; font-family: 'Georgia'; fill: #5c554a">f</tspan>
       <tspan x="58.330078" y="-0.921875" style="font-size: 12px; font-family: 'Georgia'; fill: #5c554a">i</tspan>
       <tspan x="61.845703" y="-0.921875" style="font-size: 12px; font-family: 'Georgia'; fill: #5c554a">c</tspan>
       <tspan x="67.294922" y="-0.921875" style="font-size: 12px; font-family: 'Georgia'; fill: #5c554a">i</tspan>
       <tspan x="70.810547" y="-0.921875" style="font-size: 12px; font-family: 'Georgia'; fill: #5c554a">e</tspan>
       <tspan x="76.611328" y="-0.921875" style="font-size: 12px; font-family: 'Georgia'; fill: #5c554a">n</tspan>
       <tspan x="83.701172" y="-0.921875" style="font-size: 12px; font-family: 'Georgia'; fill: #5c554a">c</tspan>
       <tspan x="89.150391" y="-0.921875" style="font-size: 12px; font-family: 'Georgia'; fill: #5c554a">y</tspan>
       <tspan x="95.056641" y="-0.921875" style="font-size: 12px; font-family: 'Georgia'; fill: #5c554a"> </tspan>
       <tspan x="97.951172" y="-0.921875" style="font-size: 12px; font-family: 'Georgia'; fill: #5c554a"> </tspan>
       <tspan x="153.087891" y="-0.921875" style="font-size: 12px; font-family: 'Georgia'; fill: #5c554a"> </tspan>
       <tspan x="155.982422" y="-0.921875" style="font-size: 12px; font-family: 'Georgia'; fill: #5c554a"> </tspan>
       <tspan x="158.876953" y="-0.921875" style="font-size: 12px; font-family: 'Georgia'; fill: #5c554a">(</tspan>
       <tspan x="163.376953" y="-0.921875" style="font-size: 12px; font-family: 'Georgia'; fill: #5c554a">b</tspan>
       <tspan x="170.097656" y="-0.921875" style="font-size: 12px; font-family: 'Georgia'; fill: #5c554a">i</tspan>
       <tspan x="173.613281" y="-0.921875" style="font-size: 12px; font-family: 'Georgia'; fill: #5c554a">t</tspan>
       <tspan x="177.755859" y="-0.921875" style="font-size: 12px; font-family: 'Georgia'; fill: #5c554a">s</tspan>
       <tspan x="182.941406" y="-0.921875" style="font-size: 12px; font-family: 'Georgia'; fill: #5c554a">/</tspan>
       <tspan x="188.566406" y="-0.921875" style="font-size: 12px; font-family: 'Georgia'; fill: #5c554a">s</tspan>
       <tspan x="193.751953" y="-0.921875" style="font-size: 12px; font-family: 'Georgia'; fill: #5c554a">/</tspan>
       <tspan x="199.376953" y="-0.921875" style="font-size: 12px; font-family: 'Georgia'; fill: #5c554a">H</tspan>
       <tspan x="209.15625" y="-0.921875" style="font-size: 12px; font-family: 'Georgia'; fill: #5c554a">z</tspan>
       <tspan x="214.482422" y="-0.921875" style="font-size: 12px; font-family: 'Georgia'; fill: #5c554a">)</tspan>
       <tspan x="100.845703" y="-0.921875" style="font-style: oblique; font-size: 12px; font-family: 'DejaVu Sans'; fill: #5c554a">η</tspan>
       <tspan x="123.181641" y="-0.921875" style="font-style: oblique; font-size: 12px; font-family: 'DejaVu Sans'; fill: #5c554a">R</tspan>
       <tspan x="141.222656" y="-0.921875" style="font-style: oblique; font-size: 12px; font-family: 'DejaVu Sans'; fill: #5c554a">W</tspan>
       <tspan x="110.789062" y="-0.921875" style="font-size: 12px; font-family: 'DejaVu Sans'; fill: #5c554a">=</tspan>
       <tspan x="137.179688" y="-0.921875" style="font-size: 12px; font-family: 'DejaVu Sans'; fill: #5c554a">/</tspan>
       <tspan x="131.519531" y="1.046875" style="font-style: oblique; font-size: 8.4px; font-family: 'DejaVu Sans'; fill: #5c554a">b</tspan>
      </text>
     </g>
    </g>
   </g>
   <g id="line2d_15">
    <path d="M 88.374182 294.768 
L 88.374182 39.744 
" clip-path="url(#p5c89fa97d8)" style="fill: none; stroke-dasharray: 4.44,1.92; stroke-dashoffset: 0; stroke: #1e3d52; stroke-width: 1.2"/>
   </g>
   <g id="patch_3">
    <path d="M 64.8 294.768 
L 64.8 39.744 
" style="fill: none; stroke: #d8cfbc; stroke-width: 0.8; stroke-linejoin: miter; stroke-linecap: square"/>
   </g>
   <g id="patch_4">
    <path d="M 64.8 294.768 
L 466.56 294.768 
" style="fill: none; stroke: #d8cfbc; stroke-width: 0.8; stroke-linejoin: miter; stroke-linecap: square"/>
   </g>
   <g id="line2d_16">
    <path d="M 88.878689 294.0596 
L 96.74681 283.215585 
L 104.886965 272.371571 
L 113.483063 261.291817 
L 122.357873 250.212062 
L 131.704503 238.896569 
L 141.534649 227.345336 
L 151.858415 215.558363 
L 162.684199 203.535651 
L 174.018631 191.2772 
L 186.092875 178.54727 
L 198.926317 165.345861 
L 212.298479 151.908712 
L 226.692733 137.764345 
L 241.888545 123.148499 
L 258.147046 107.825435 
L 275.231067 92.030892 
L 293.667173 75.293391 
L 313.215686 57.848672 
L 334.156584 39.460994 
L 356.78269 19.89462 
L 366.697562 11.408 
L 366.697562 11.408 
" clip-path="url(#p5c89fa97d8)" style="fill: none; stroke: #c34a22; stroke-width: 2; stroke-linecap: square"/>
   </g>
   <g id="text_16">
    <!-- Shannon wall  $-1.59$ dB -->
    <g style="fill: #1e3d52" transform="translate(95.070182 56.158375)">
     <text>
      <tspan x="0" y="-0.4375" style="font-size: 10px; font-family: 'Georgia'; fill: #1e3d52">S</tspan>
      <tspan x="5.610352" y="-0.4375" style="font-size: 10px; font-family: 'Georgia'; fill: #1e3d52">h</tspan>
      <tspan x="11.430664" y="-0.4375" style="font-size: 10px; font-family: 'Georgia'; fill: #1e3d52">a</tspan>
      <tspan x="16.469727" y="-0.4375" style="font-size: 10px; font-family: 'Georgia'; fill: #1e3d52">n</tspan>
      <tspan x="22.37793" y="-0.4375" style="font-size: 10px; font-family: 'Georgia'; fill: #1e3d52">n</tspan>
      <tspan x="28.286133" y="-0.4375" style="font-size: 10px; font-family: 'Georgia'; fill: #1e3d52">o</tspan>
      <tspan x="33.676758" y="-0.4375" style="font-size: 10px; font-family: 'Georgia'; fill: #1e3d52">n</tspan>
      <tspan x="39.584961" y="-0.4375" style="font-size: 10px; font-family: 'Georgia'; fill: #1e3d52"> </tspan>
      <tspan x="41.99707" y="-0.4375" style="font-size: 10px; font-family: 'Georgia'; fill: #1e3d52">w</tspan>
      <tspan x="49.370117" y="-0.4375" style="font-size: 10px; font-family: 'Georgia'; fill: #1e3d52">a</tspan>
      <tspan x="54.40918" y="-0.4375" style="font-size: 10px; font-family: 'Georgia'; fill: #1e3d52">l</tspan>
      <tspan x="57.270508" y="-0.4375" style="font-size: 10px; font-family: 'Georgia'; fill: #1e3d52">l</tspan>
      <tspan x="60.131836" y="-0.4375" style="font-size: 10px; font-family: 'Georgia'; fill: #1e3d52"> </tspan>
      <tspan x="62.543945" y="-0.4375" style="font-size: 10px; font-family: 'Georgia'; fill: #1e3d52"> </tspan>
      <tspan x="95.100586" y="-0.4375" style="font-size: 10px; font-family: 'Georgia'; fill: #1e3d52"> </tspan>
      <tspan x="97.512695" y="-0.4375" style="font-size: 10px; font-family: 'Georgia'; fill: #1e3d52">d</tspan>
      <tspan x="103.254883" y="-0.4375" style="font-size: 10px; font-family: 'Georgia'; fill: #1e3d52">B</tspan>
      <tspan x="64.956055" y="-0.4375" style="font-size: 10px; font-family: 'DejaVu Sans'; fill: #1e3d52">−</tspan>
      <tspan x="73.334961" y="-0.4375" style="font-size: 10px; font-family: 'DejaVu Sans'; fill: #1e3d52">1</tspan>
      <tspan x="79.697266" y="-0.4375" style="font-size: 10px; font-family: 'DejaVu Sans'; fill: #1e3d52">.</tspan>
      <tspan x="82.875977" y="-0.4375" style="font-size: 10px; font-family: 'DejaVu Sans'; fill: #1e3d52">5</tspan>
      <tspan x="88.738281" y="-0.4375" style="font-size: 10px; font-family: 'DejaVu Sans'; fill: #1e3d52">9</tspan>
     </text>
    </g>
   </g>
   <g id="text_17">
    <!-- bandwidth-limited  ($\eta &gt; 1$) -->
    <g style="fill: #5c554a" transform="translate(343.905 250.912087)">
     <text>
      <tspan x="0" y="-0.4375" style="font-size: 9.5px; font-family: 'Georgia'; fill: #5c554a">b</tspan>
      <tspan x="5.320557" y="-0.4375" style="font-size: 9.5px; font-family: 'Georgia'; fill: #5c554a">a</tspan>
      <tspan x="10.107666" y="-0.4375" style="font-size: 9.5px; font-family: 'Georgia'; fill: #5c554a">n</tspan>
      <tspan x="15.720459" y="-0.4375" style="font-size: 9.5px; font-family: 'Georgia'; fill: #5c554a">d</tspan>
      <tspan x="21.175537" y="-0.4375" style="font-size: 9.5px; font-family: 'Georgia'; fill: #5c554a">w</tspan>
      <tspan x="28.179932" y="-0.4375" style="font-size: 9.5px; font-family: 'Georgia'; fill: #5c554a">i</tspan>
      <tspan x="30.963135" y="-0.4375" style="font-size: 9.5px; font-family: 'Georgia'; fill: #5c554a">d</tspan>
      <tspan x="36.418213" y="-0.4375" style="font-size: 9.5px; font-family: 'Georgia'; fill: #5c554a">t</tspan>
      <tspan x="39.697754" y="-0.4375" style="font-size: 9.5px; font-family: 'Georgia'; fill: #5c554a">h</tspan>
      <tspan x="45.227051" y="-0.4375" style="font-size: 9.5px; font-family: 'Georgia'; fill: #5c554a">-</tspan>
      <tspan x="48.780273" y="-0.4375" style="font-size: 9.5px; font-family: 'Georgia'; fill: #5c554a">l</tspan>
      <tspan x="51.498535" y="-0.4375" style="font-size: 9.5px; font-family: 'Georgia'; fill: #5c554a">i</tspan>
      <tspan x="54.281738" y="-0.4375" style="font-size: 9.5px; font-family: 'Georgia'; fill: #5c554a">m</tspan>
      <tspan x="62.649902" y="-0.4375" style="font-size: 9.5px; font-family: 'Georgia'; fill: #5c554a">i</tspan>
      <tspan x="65.433105" y="-0.4375" style="font-size: 9.5px; font-family: 'Georgia'; fill: #5c554a">t</tspan>
      <tspan x="68.712646" y="-0.4375" style="font-size: 9.5px; font-family: 'Georgia'; fill: #5c554a">e</tspan>
      <tspan x="73.304932" y="-0.4375" style="font-size: 9.5px; font-family: 'Georgia'; fill: #5c554a">d</tspan>
      <tspan x="78.76001" y="-0.4375" style="font-size: 9.5px; font-family: 'Georgia'; fill: #5c554a"> </tspan>
      <tspan x="81.051514" y="-0.4375" style="font-size: 9.5px; font-family: 'Georgia'; fill: #5c554a"> </tspan>
      <tspan x="83.343018" y="-0.4375" style="font-size: 9.5px; font-family: 'Georgia'; fill: #5c554a">(</tspan>
      <tspan x="110.632324" y="-0.4375" style="font-size: 9.5px; font-family: 'Georgia'; fill: #5c554a">)</tspan>
      <tspan x="86.905518" y="-0.4375" style="font-style: oblique; font-size: 9.5px; font-family: 'DejaVu Sans'; fill: #5c554a">η</tspan>
      <tspan x="94.777344" y="-0.4375" style="font-size: 9.5px; font-family: 'DejaVu Sans'; fill: #5c554a">&gt;</tspan>
      <tspan x="104.588135" y="-0.4375" style="font-size: 9.5px; font-family: 'DejaVu Sans'; fill: #5c554a">1</tspan>
     </text>
    </g>
   </g>
   <g id="text_18">
    <!-- power-limited  ($\eta &lt; 1$) -->
    <g style="fill: #5c554a" transform="translate(363.095 272.9436)">
     <text>
      <tspan x="0" y="-0.4375" style="font-size: 9.5px; font-family: 'Georgia'; fill: #5c554a">p</tspan>
      <tspan x="5.427246" y="-0.4375" style="font-size: 9.5px; font-family: 'Georgia'; fill: #5c554a">o</tspan>
      <tspan x="10.54834" y="-0.4375" style="font-size: 9.5px; font-family: 'Georgia'; fill: #5c554a">w</tspan>
      <tspan x="17.552734" y="-0.4375" style="font-size: 9.5px; font-family: 'Georgia'; fill: #5c554a">e</tspan>
      <tspan x="22.14502" y="-0.4375" style="font-size: 9.5px; font-family: 'Georgia'; fill: #5c554a">r</tspan>
      <tspan x="26.036865" y="-0.4375" style="font-size: 9.5px; font-family: 'Georgia'; fill: #5c554a">-</tspan>
      <tspan x="29.590088" y="-0.4375" style="font-size: 9.5px; font-family: 'Georgia'; fill: #5c554a">l</tspan>
      <tspan x="32.30835" y="-0.4375" style="font-size: 9.5px; font-family: 'Georgia'; fill: #5c554a">i</tspan>
      <tspan x="35.091553" y="-0.4375" style="font-size: 9.5px; font-family: 'Georgia'; fill: #5c554a">m</tspan>
      <tspan x="43.459717" y="-0.4375" style="font-size: 9.5px; font-family: 'Georgia'; fill: #5c554a">i</tspan>
      <tspan x="46.24292" y="-0.4375" style="font-size: 9.5px; font-family: 'Georgia'; fill: #5c554a">t</tspan>
      <tspan x="49.522461" y="-0.4375" style="font-size: 9.5px; font-family: 'Georgia'; fill: #5c554a">e</tspan>
      <tspan x="54.114746" y="-0.4375" style="font-size: 9.5px; font-family: 'Georgia'; fill: #5c554a">d</tspan>
      <tspan x="59.569824" y="-0.4375" style="font-size: 9.5px; font-family: 'Georgia'; fill: #5c554a"> </tspan>
      <tspan x="61.861328" y="-0.4375" style="font-size: 9.5px; font-family: 'Georgia'; fill: #5c554a"> </tspan>
      <tspan x="64.152832" y="-0.4375" style="font-size: 9.5px; font-family: 'Georgia'; fill: #5c554a">(</tspan>
      <tspan x="91.442139" y="-0.4375" style="font-size: 9.5px; font-family: 'Georgia'; fill: #5c554a">)</tspan>
      <tspan x="67.715332" y="-0.4375" style="font-style: oblique; font-size: 9.5px; font-family: 'DejaVu Sans'; fill: #5c554a">η</tspan>
      <tspan x="75.587158" y="-0.4375" style="font-size: 9.5px; font-family: 'DejaVu Sans'; fill: #5c554a">&lt;</tspan>
      <tspan x="85.397949" y="-0.4375" style="font-size: 9.5px; font-family: 'DejaVu Sans'; fill: #5c554a">1</tspan>
     </text>
    </g>
   </g>
   <g id="text_19">
    <text style="font-style: italic; font-size: 11px; font-family: 'Georgia', 'Times New Roman', 'DejaVu Serif', serif; text-anchor: middle; fill: #c34a22" x="307.53" y="138.92" transform="rotate(-0 307.53 138.92)">achievable</text>
   </g>
   <g id="text_20">
    <text style="font-style: italic; font-size: 10px; font-family: 'Georgia', 'Times New Roman', 'DejaVu Serif', serif; fill: #5c554a" transform="translate(96.11125 183.59275) rotate(-90)">not achievable</text>
   </g>
  </g>
 </g>
 <defs>
  <clipPath id="p5c89fa97d8">
   <rect x="64.8" y="39.744" width="401.76" height="255.024"/>
  </clipPath>
 </defs>
</svg>
