<?xml version="1.0" encoding="utf-8" standalone="no"?>
<!DOCTYPE svg PUBLIC "-//W3C//DTD SVG 1.1//EN"
  "http://www.w3.org/Graphics/SVG/1.1/DTD/svg11.dtd">
<svg xmlns:xlink="http://www.w3.org/1999/xlink" width="518.4pt" height="244.8pt" viewBox="0 0 518.4 244.8" xmlns="http://www.w3.org/2000/svg" version="1.1">
 <metadata>
  <rdf:RDF xmlns:dc="http://purl.org/dc/elements/1.1/" xmlns:cc="http://creativecommons.org/ns#" xmlns:rdf="http://www.w3.org/1999/02/22-rdf-syntax-ns#">
   <cc:Work>
    <dc:type rdf:resource="http://purl.org/dc/dcmitype/StillImage"/>
    <dc:date>2026-06-21T21:33:25.347012</dc:date>
    <dc:format>image/svg+xml</dc:format>
    <dc:creator>
     <cc:Agent>
      <dc:title>Matplotlib v3.10.8, https://matplotlib.org/</dc:title>
     </cc:Agent>
    </dc:creator>
   </cc:Work>
  </rdf:RDF>
 </metadata>
 <defs>
  <style type="text/css">*{stroke-linejoin: round; stroke-linecap: butt}</style>
 </defs>
 <g id="figure_1">
  <g id="patch_1">
   <path d="M 0 244.8 
L 518.4 244.8 
L 518.4 0 
L 0 0 
z
" style="fill: #fbfaf8"/>
  </g>
  <g id="axes_1">
   <g id="patch_2">
    <path d="M 49.52 211.88 
L 505.44 211.88 
L 505.44 12.96 
L 49.52 12.96 
z
" style="fill: #fbfaf8"/>
   </g>
   <g id="matplotlib.axis_1">
    <g id="xtick_1">
     <g id="line2d_1">
      <defs>
       <path id="m821d18c40b" d="M 0 0 
L 0 3.5 
" style="stroke: #5c554a; stroke-width: 0.8"/>
      </defs>
      <g>
       <use xlink:href="#m821d18c40b" x="49.52" y="211.88" style="fill: #5c554a; stroke: #5c554a; stroke-width: 0.8"/>
      </g>
     </g>
     <g id="text_1">
      <text style="font-size: 12px; font-family: 'Georgia', 'Times New Roman', 'DejaVu Serif', serif; text-anchor: middle; fill: #5c554a" x="49.52" y="227.95125" transform="rotate(-0 49.52 227.95125)">J</text>
     </g>
    </g>
    <g id="xtick_2">
     <g id="line2d_2">
      <g>
       <use xlink:href="#m821d18c40b" x="88.348352" y="211.88" style="fill: #5c554a; stroke: #5c554a; stroke-width: 0.8"/>
      </g>
     </g>
     <g id="text_2">
      <text style="font-size: 12px; font-family: 'Georgia', 'Times New Roman', 'DejaVu Serif', serif; text-anchor: middle; fill: #5c554a" x="88.348352" y="227.95125" transform="rotate(-0 88.348352 227.95125)">F</text>
     </g>
    </g>
    <g id="xtick_3">
     <g id="line2d_3">
      <g>
       <use xlink:href="#m821d18c40b" x="123.419121" y="211.88" style="fill: #5c554a; stroke: #5c554a; stroke-width: 0.8"/>
      </g>
     </g>
     <g id="text_3">
      <text style="font-size: 12px; font-family: 'Georgia', 'Times New Roman', 'DejaVu Serif', serif; text-anchor: middle; fill: #5c554a" x="123.419121" y="227.95125" transform="rotate(-0 123.419121 227.95125)">M</text>
     </g>
    </g>
    <g id="xtick_4">
     <g id="line2d_4">
      <g>
       <use xlink:href="#m821d18c40b" x="162.247473" y="211.88" style="fill: #5c554a; stroke: #5c554a; stroke-width: 0.8"/>
      </g>
     </g>
     <g id="text_4">
      <text style="font-size: 12px; font-family: 'Georgia', 'Times New Roman', 'DejaVu Serif', serif; text-anchor: middle; fill: #5c554a" x="162.247473" y="227.95125" transform="rotate(-0 162.247473 227.95125)">A</text>
     </g>
    </g>
    <g id="xtick_5">
     <g id="line2d_5">
      <g>
       <use xlink:href="#m821d18c40b" x="199.823297" y="211.88" style="fill: #5c554a; stroke: #5c554a; stroke-width: 0.8"/>
      </g>
     </g>
     <g id="text_5">
      <text style="font-size: 12px; font-family: 'Georgia', 'Times New Roman', 'DejaVu Serif', serif; text-anchor: middle; fill: #5c554a" x="199.823297" y="227.95125" transform="rotate(-0 199.823297 227.95125)">M</text>
     </g>
    </g>
    <g id="xtick_6">
     <g id="line2d_6">
      <g>
       <use xlink:href="#m821d18c40b" x="238.651648" y="211.88" style="fill: #5c554a; stroke: #5c554a; stroke-width: 0.8"/>
      </g>
     </g>
     <g id="text_6">
      <text style="font-size: 12px; font-family: 'Georgia', 'Times New Roman', 'DejaVu Serif', serif; text-anchor: middle; fill: #5c554a" x="238.651648" y="227.95125" transform="rotate(-0 238.651648 227.95125)">J</text>
     </g>
    </g>
    <g id="xtick_7">
     <g id="line2d_7">
      <g>
       <use xlink:href="#m821d18c40b" x="276.227473" y="211.88" style="fill: #5c554a; stroke: #5c554a; stroke-width: 0.8"/>
      </g>
     </g>
     <g id="text_7">
      <text style="font-size: 12px; font-family: 'Georgia', 'Times New Roman', 'DejaVu Serif', serif; text-anchor: middle; fill: #5c554a" x="276.227473" y="227.95125" transform="rotate(-0 276.227473 227.95125)">J</text>
     </g>
    </g>
    <g id="xtick_8">
     <g id="line2d_8">
      <g>
       <use xlink:href="#m821d18c40b" x="315.055824" y="211.88" style="fill: #5c554a; stroke: #5c554a; stroke-width: 0.8"/>
      </g>
     </g>
     <g id="text_8">
      <text style="font-size: 12px; font-family: 'Georgia', 'Times New Roman', 'DejaVu Serif', serif; text-anchor: middle; fill: #5c554a" x="315.055824" y="227.95125" transform="rotate(-0 315.055824 227.95125)">A</text>
     </g>
    </g>
    <g id="xtick_9">
     <g id="line2d_9">
      <g>
       <use xlink:href="#m821d18c40b" x="353.884176" y="211.88" style="fill: #5c554a; stroke: #5c554a; stroke-width: 0.8"/>
      </g>
     </g>
     <g id="text_9">
      <text style="font-size: 12px; font-family: 'Georgia', 'Times New Roman', 'DejaVu Serif', serif; text-anchor: middle; fill: #5c554a" x="353.884176" y="227.95125" transform="rotate(-0 353.884176 227.95125)">S</text>
     </g>
    </g>
    <g id="xtick_10">
     <g id="line2d_10">
      <g>
       <use xlink:href="#m821d18c40b" x="391.46" y="211.88" style="fill: #5c554a; stroke: #5c554a; stroke-width: 0.8"/>
      </g>
     </g>
     <g id="text_10">
      <text style="font-size: 12px; font-family: 'Georgia', 'Times New Roman', 'DejaVu Serif', serif; text-anchor: middle; fill: #5c554a" x="391.46" y="227.95125" transform="rotate(-0 391.46 227.95125)">O</text>
     </g>
    </g>
    <g id="xtick_11">
     <g id="line2d_11">
      <g>
       <use xlink:href="#m821d18c40b" x="430.288352" y="211.88" style="fill: #5c554a; stroke: #5c554a; stroke-width: 0.8"/>
      </g>
     </g>
     <g id="text_11">
      <text style="font-size: 12px; font-family: 'Georgia', 'Times New Roman', 'DejaVu Serif', serif; text-anchor: middle; fill: #5c554a" x="430.288352" y="227.95125" transform="rotate(-0 430.288352 227.95125)">N</text>
     </g>
    </g>
    <g id="xtick_12">
     <g id="line2d_12">
      <g>
       <use xlink:href="#m821d18c40b" x="467.864176" y="211.88" style="fill: #5c554a; stroke: #5c554a; stroke-width: 0.8"/>
      </g>
     </g>
     <g id="text_12">
      <text style="font-size: 12px; font-family: 'Georgia', 'Times New Roman', 'DejaVu Serif', serif; text-anchor: middle; fill: #5c554a" x="467.864176" y="227.95125" transform="rotate(-0 467.864176 227.95125)">D</text>
     </g>
    </g>
   </g>
   <g id="matplotlib.axis_2">
    <g id="ytick_1">
     <g id="line2d_13">
      <defs>
       <path id="m9598240082" d="M 0 0 
L -3.5 0 
" style="stroke: #5c554a; stroke-width: 0.8"/>
      </defs>
      <g>
       <use xlink:href="#m9598240082" x="49.52" y="195.303333" style="fill: #5c554a; stroke: #5c554a; stroke-width: 0.8"/>
      </g>
     </g>
     <g id="text_13">
      <text style="font-size: 12px; font-family: 'Georgia', 'Times New Roman', 'DejaVu Serif', serif; text-anchor: end; fill: #5c554a" x="42.52" y="199.838958" transform="rotate(-0 42.52 199.838958)">8</text>
     </g>
    </g>
    <g id="ytick_2">
     <g id="line2d_14">
      <g>
       <use xlink:href="#m9598240082" x="49.52" y="162.15" style="fill: #5c554a; stroke: #5c554a; stroke-width: 0.8"/>
      </g>
     </g>
     <g id="text_14">
      <text style="font-size: 12px; font-family: 'Georgia', 'Times New Roman', 'DejaVu Serif', serif; text-anchor: end; fill: #5c554a" x="42.52" y="166.685625" transform="rotate(-0 42.52 166.685625)">10</text>
     </g>
    </g>
    <g id="ytick_3">
     <g id="line2d_15">
      <g>
       <use xlink:href="#m9598240082" x="49.52" y="128.996667" style="fill: #5c554a; stroke: #5c554a; stroke-width: 0.8"/>
      </g>
     </g>
     <g id="text_15">
      <text style="font-size: 12px; font-family: 'Georgia', 'Times New Roman', 'DejaVu Serif', serif; text-anchor: end; fill: #5c554a" x="42.52" y="133.532292" transform="rotate(-0 42.52 133.532292)">12</text>
     </g>
    </g>
    <g id="ytick_4">
     <g id="line2d_16">
      <g>
       <use xlink:href="#m9598240082" x="49.52" y="95.843333" style="fill: #5c554a; stroke: #5c554a; stroke-width: 0.8"/>
      </g>
     </g>
     <g id="text_16">
      <text style="font-size: 12px; font-family: 'Georgia', 'Times New Roman', 'DejaVu Serif', serif; text-anchor: end; fill: #5c554a" x="42.52" y="100.378958" transform="rotate(-0 42.52 100.378958)">14</text>
     </g>
    </g>
    <g id="ytick_5">
     <g id="line2d_17">
      <g>
       <use xlink:href="#m9598240082" x="49.52" y="62.69" style="fill: #5c554a; stroke: #5c554a; stroke-width: 0.8"/>
      </g>
     </g>
     <g id="text_17">
      <text style="font-size: 12px; font-family: 'Georgia', 'Times New Roman', 'DejaVu Serif', serif; text-anchor: end; fill: #5c554a" x="42.52" y="67.225625" transform="rotate(-0 42.52 67.225625)">16</text>
     </g>
    </g>
    <g id="ytick_6">
     <g id="line2d_18">
      <g>
       <use xlink:href="#m9598240082" x="49.52" y="29.536667" style="fill: #5c554a; stroke: #5c554a; stroke-width: 0.8"/>
      </g>
     </g>
     <g id="text_18">
      <text style="font-size: 12px; font-family: 'Georgia', 'Times New Roman', 'DejaVu Serif', serif; text-anchor: end; fill: #5c554a" x="42.52" y="34.072292" transform="rotate(-0 42.52 34.072292)">18</text>
     </g>
    </g>
    <g id="text_19">
     <text style="font-size: 12px; font-family: 'Georgia', 'Times New Roman', 'DejaVu Serif', serif; text-anchor: middle; fill: #5c554a" x="23.39625" y="112.42" transform="rotate(-90 23.39625 112.42)">daylight (hours)</text>
    </g>
   </g>
   <g id="line2d_19">
    <path d="M 49.52 128.996667 
L 505.44 128.996667 
L 505.44 128.996667 
" clip-path="url(#pc507525c3e)" style="fill: none; stroke: #5c554a; stroke-width: 1.6; stroke-linecap: square"/>
   </g>
   <g id="line2d_20">
    <path d="M 49.52 171.878848 
L 54.53011 171.064355 
L 59.54022 170.001863 
L 64.55033 168.706735 
L 69.56044 167.196688 
L 75.823077 165.036361 
L 82.085714 162.609615 
L 88.348352 159.955544 
L 95.863516 156.522995 
L 104.631209 152.250684 
L 114.651429 147.112815 
L 128.429231 139.772156 
L 177.277802 113.465036 
L 188.550549 107.756807 
L 197.318242 103.53566 
L 206.085934 99.570645 
L 213.601099 96.428608 
L 219.863736 94.028305 
L 226.126374 91.858172 
L 232.389011 89.94867 
L 237.399121 88.628717 
L 242.409231 87.508799 
L 247.419341 86.601669 
L 252.429451 85.918123 
L 257.43956 85.466525 
L 262.44967 85.252432 
L 267.45978 85.278328 
L 272.46989 85.543507 
L 277.48 86.044106 
L 282.49011 86.773291 
L 287.50022 87.72158 
L 292.51033 88.877266 
L 297.52044 90.226907 
L 303.783077 92.164302 
L 310.045714 94.35175 
L 316.308352 96.758879 
L 323.823516 99.895962 
L 332.591209 103.83882 
L 341.358901 108.022763 
L 352.631648 113.665731 
L 366.409451 120.835788 
L 387.702418 132.213963 
L 411.50044 144.889347 
L 424.025714 151.30472 
L 434.045934 156.170447 
L 441.561099 159.591759 
L 449.076264 162.755226 
L 455.338901 165.148988 
L 461.601538 167.280997 
L 466.611648 168.771766 
L 471.621758 170.050487 
L 476.631868 171.099177 
L 481.641978 171.902079 
L 486.652088 172.446423 
L 491.662198 172.723102 
L 496.672308 172.727174 
L 501.682418 172.458147 
L 505.44 172.07939 
L 505.44 172.07939 
" clip-path="url(#pc507525c3e)" style="fill: none; stroke: #c34a22; stroke-width: 1.6; stroke-linecap: square"/>
   </g>
   <g id="line2d_21">
    <path d="M 49.52 233.82535 
L 52.025055 232.670126 
L 54.53011 231.331534 
L 58.287692 229.002222 
L 62.045275 226.320079 
L 65.802857 223.323284 
L 69.56044 220.049831 
L 74.570549 215.317743 
L 79.580659 210.238603 
L 85.843297 203.508578 
L 93.358462 195.024155 
L 102.126154 184.756498 
L 114.651429 169.720211 
L 171.015165 101.649422 
L 186.045495 83.905538 
L 197.318242 70.916166 
L 206.085934 61.146959 
L 213.601099 53.131897 
L 219.863736 46.805868 
L 224.873846 42.044913 
L 229.883956 37.612948 
L 233.641538 34.543646 
L 237.399121 31.725076 
L 241.156703 29.187567 
L 244.914286 26.961569 
L 248.671868 25.076537 
L 251.176923 24.022816 
L 253.681978 23.139954 
L 256.187033 22.434199 
L 258.692088 21.910696 
L 261.197143 21.573325 
L 263.702198 21.424587 
L 266.207253 21.465513 
L 268.712308 21.695636 
L 271.217363 22.113003 
L 273.722418 22.71424 
L 276.227473 23.494654 
L 278.732527 24.448385 
L 281.237582 25.568567 
L 284.995165 27.54396 
L 288.752747 29.848088 
L 292.51033 32.450836 
L 296.267912 35.321584 
L 300.025495 38.430228 
L 305.035604 42.895617 
L 310.045714 47.669915 
L 316.308352 53.987642 
L 323.823516 61.961848 
L 332.591209 71.649747 
L 343.863956 84.496023 
L 358.894286 102.006273 
L 380.187253 127.181458 
L 410.247912 163.105448 
L 429.035824 185.426917 
L 439.056044 196.982715 
L 446.571209 205.299204 
L 452.833846 211.873171 
L 457.843956 216.814114 
L 462.854066 221.393945 
L 466.611648 224.542883 
L 470.369231 227.405675 
L 474.126813 229.944048 
L 477.884396 232.119934 
L 480.389451 233.351149 
L 482.894505 234.395271 
L 485.39956 235.243504 
L 487.904615 235.888368 
L 490.40967 236.32394 
L 492.914725 236.54607 
L 495.41978 236.552525 
L 497.924835 236.343076 
L 500.42989 235.919504 
L 502.934945 235.285536 
L 505.44 234.4467 
L 505.44 234.4467 
" clip-path="url(#pc507525c3e)" style="fill: none; stroke: #1e3d52; stroke-width: 1.6; stroke-linecap: square"/>
   </g>
   <g id="line2d_22">
    <path d="M 49.52 128.996667 
L 505.44 128.996667 
" clip-path="url(#pc507525c3e)" style="fill: none; stroke: #d8cfbc; stroke-width: 0.8; stroke-linecap: square"/>
   </g>
   <g id="line2d_23">
    <path d="M 263.702198 211.88 
L 263.702198 12.96 
" clip-path="url(#pc507525c3e)" style="fill: none; stroke-dasharray: 2.96,1.28; stroke-dashoffset: 0; stroke: #1e3d52; stroke-width: 0.8"/>
   </g>
   <g id="patch_3">
    <path d="M 49.52 211.88 
L 49.52 12.96 
" style="fill: none; stroke: #d8cfbc; stroke-width: 0.8; stroke-linejoin: miter; stroke-linecap: square"/>
   </g>
   <g id="patch_4">
    <path d="M 49.52 211.88 
L 505.44 211.88 
" style="fill: none; stroke: #d8cfbc; stroke-width: 0.8; stroke-linejoin: miter; stroke-linecap: square"/>
   </g>
   <g id="legend_1">
    <g id="line2d_24">
     <path d="M 410.138437 26.019375 
L 417.138437 26.019375 
L 424.138437 26.019375 
" style="fill: none; stroke: #5c554a; stroke-width: 1.6; stroke-linecap: square"/>
    </g>
    <g id="text_20">
     <text style="font-size: 10px; font-family: 'Georgia', 'Times New Roman', 'DejaVu Serif', serif; text-anchor: start; fill: #221e17" x="432.138437" y="29.519375" transform="rotate(-0 432.138437 29.519375)">Equator (0°)</text>
    </g>
    <g id="line2d_25">
     <path d="M 410.138437 40.7475 
L 417.138437 40.7475 
L 424.138437 40.7475 
" style="fill: none; stroke: #c34a22; stroke-width: 1.6; stroke-linecap: square"/>
    </g>
    <g id="text_21">
     <text style="font-size: 10px; font-family: 'Georgia', 'Times New Roman', 'DejaVu Serif', serif; text-anchor: start; fill: #221e17" x="432.138437" y="44.2475" transform="rotate(-0 432.138437 44.2475)">Athens (38°N)</text>
    </g>
    <g id="line2d_26">
     <path d="M 410.138437 55.475625 
L 417.138437 55.475625 
L 424.138437 55.475625 
" style="fill: none; stroke: #1e3d52; stroke-width: 1.6; stroke-linecap: square"/>
    </g>
    <g id="text_22">
     <text style="font-size: 10px; font-family: 'Georgia', 'Times New Roman', 'DejaVu Serif', serif; text-anchor: start; fill: #221e17" x="432.138437" y="58.975625" transform="rotate(-0 432.138437 58.975625)">60°N</text>
    </g>
   </g>
  </g>
 </g>
 <defs>
  <clipPath id="pc507525c3e">
   <rect x="49.52" y="12.96" width="455.92" height="198.92"/>
  </clipPath>
 </defs>
</svg>
