<?xml version="1.0" encoding="utf-8" standalone="no"?>
<!DOCTYPE svg PUBLIC "-//W3C//DTD SVG 1.1//EN"
  "http://www.w3.org/Graphics/SVG/1.1/DTD/svg11.dtd">
<svg xmlns:xlink="http://www.w3.org/1999/xlink" width="446.4pt" height="374.4pt" viewBox="0 0 446.4 374.4" xmlns="http://www.w3.org/2000/svg" version="1.1">
 <metadata>
  <rdf:RDF xmlns:dc="http://purl.org/dc/elements/1.1/" xmlns:cc="http://creativecommons.org/ns#" xmlns:rdf="http://www.w3.org/1999/02/22-rdf-syntax-ns#">
   <cc:Work>
    <dc:type rdf:resource="http://purl.org/dc/dcmitype/StillImage"/>
    <dc:date>2026-06-21T21:33:24.848680</dc:date>
    <dc:format>image/svg+xml</dc:format>
    <dc:creator>
     <cc:Agent>
      <dc:title>Matplotlib v3.10.8, https://matplotlib.org/</dc:title>
     </cc:Agent>
    </dc:creator>
   </cc:Work>
  </rdf:RDF>
 </metadata>
 <defs>
  <style type="text/css">*{stroke-linejoin: round; stroke-linecap: butt}</style>
 </defs>
 <g id="figure_1">
  <g id="patch_1">
   <path d="M 0 374.4 
L 446.4 374.4 
L 446.4 0 
L 0 0 
z
" style="fill: #fbfaf8"/>
  </g>
  <g id="axes_1">
   <g id="line2d_1">
    <path d="M 368.4 187.2 
L 368.271782 181.099331 
L 367.887353 175.009437 
L 367.247393 168.941073 
L 366.353033 162.904955 
L 365.205851 156.911745 
L 363.807873 150.972026 
L 362.161569 145.09629 
L 360.269846 139.294912 
L 358.136044 133.57814 
L 355.763934 127.956068 
L 353.157703 122.438627 
L 350.321955 117.03556 
L 347.261698 111.75641 
L 343.982336 106.610501 
L 340.489661 101.60692 
L 336.789843 96.754504 
L 332.889414 92.061824 
L 328.795263 87.537166 
L 324.514621 83.188522 
L 320.055049 79.023572 
L 315.424421 75.049672 
L 310.630917 71.273839 
L 305.683001 67.702743 
L 300.589413 64.34269 
L 295.359148 61.199614 
L 290.001443 58.279066 
L 284.525761 55.586205 
L 278.941772 53.125786 
L 273.259338 50.902154 
L 267.488494 48.919237 
L 261.639433 47.180537 
L 255.722484 45.689124 
L 249.748097 44.447632 
L 243.726824 43.458254 
L 237.669299 42.722737 
L 231.58622 42.242381 
L 225.48833 42.018033 
L 219.386398 42.05009 
L 213.291202 42.338495 
L 207.213505 42.882738 
L 201.164042 43.68186 
L 195.153497 44.734447 
L 189.192484 46.038642 
L 183.291532 47.592141 
L 177.461061 49.392201 
L 171.71137 51.435642 
L 166.052613 53.718855 
L 160.494783 56.237808 
L 155.047697 58.988052 
L 149.720973 61.964731 
L 144.524021 65.162587 
L 139.466017 68.575972 
L 134.555896 72.198858 
L 129.802328 76.024846 
L 125.213709 80.04718 
L 120.798143 84.258756 
L 116.563428 88.652136 
L 112.517043 93.219561 
L 108.666134 97.952963 
L 105.017503 102.843984 
L 101.577593 107.883986 
L 98.352479 113.064067 
L 95.347858 118.375079 
L 92.569035 123.807642 
L 90.020919 129.352162 
L 87.708009 134.998846 
L 85.634391 140.737723 
L 83.803726 146.558656 
L 82.219248 152.451366 
L 80.883755 158.405444 
L 79.799606 164.410377 
L 78.968715 170.455558 
L 78.392549 176.530312 
L 78.072127 182.623909 
L 78.008015 188.725588 
L 78.200325 194.824573 
L 78.648717 200.910092 
L 79.352401 206.971397 
L 80.310132 212.997785 
L 81.520221 218.978611 
L 82.980529 224.903314 
L 84.688477 230.761428 
L 86.64105 236.54261 
L 88.834798 242.236647 
L 91.265848 247.833485 
L 93.929906 253.323239 
L 96.822266 258.696212 
L 99.937822 263.942917 
L 103.271069 269.054087 
L 106.816123 274.020695 
L 110.566721 278.83397 
L 114.516239 283.48541 
L 118.657704 287.966802 
L 122.983799 292.27023 
L 127.486886 296.388094 
L 132.159011 300.313122 
L 136.991923 304.038382 
L 141.977086 307.557294 
L 147.105696 310.863645 
L 152.368696 313.951593 
L 157.756791 316.815687 
L 163.260464 319.450868 
L 168.869996 321.852481 
L 174.57548 324.016286 
L 180.36684 325.93846 
L 186.233846 327.61561 
L 192.166138 329.044772 
L 198.153239 330.223424 
L 204.184575 331.149483 
L 210.249494 331.821314 
L 216.337285 332.23773 
L 222.437195 332.397996 
L 228.538453 332.301829 
L 234.630283 331.949399 
L 240.701926 331.341329 
L 246.742659 330.478691 
L 252.741813 329.36301 
L 258.688794 327.996255 
L 264.573098 326.380842 
L 270.384334 324.519622 
L 276.112237 322.415883 
L 281.746693 320.073341 
L 287.27775 317.496132 
L 292.695639 314.688808 
L 297.990793 311.656327 
L 303.15386 308.404044 
L 308.17572 304.937704 
L 313.047506 301.263428 
L 317.760613 297.387706 
L 322.306716 293.317382 
L 326.677789 289.059645 
L 330.866109 284.622014 
L 334.864282 280.012327 
L 338.665245 275.238725 
L 342.262286 270.309639 
L 345.649052 265.233773 
L 348.819561 260.020092 
L 351.768215 254.677805 
L 354.489805 249.216345 
L 356.979526 243.645358 
L 359.232979 237.974684 
L 361.246186 232.214338 
L 363.01559 226.374491 
L 364.538067 220.465459 
L 365.810928 214.497677 
L 366.831925 208.481685 
L 367.599255 202.428107 
L 368.111562 196.347635 
L 368.367942 190.251008 
L 368.4 187.2 
L 368.4 187.2 
" clip-path="url(#p2d97dcfe5c)" style="fill: none; stroke: #d8cfbc; stroke-linecap: square"/>
   </g>
   <g id="line2d_2">
    <path d="M 368.4 187.2 
L 368.296418 189.774383 
L 367.985818 192.345093 
L 367.468645 194.908463 
L 366.745635 197.460834 
L 365.817821 199.998566 
L 364.686526 202.518037 
L 363.353365 205.015653 
L 361.820239 207.487851 
L 360.089336 209.931102 
L 358.163125 212.341922 
L 356.044355 214.716871 
L 352.925055 217.821821 
L 349.476744 220.849107 
L 345.708168 223.791051 
L 341.628884 226.640193 
L 337.249238 229.389305 
L 332.580339 232.031416 
L 327.634026 234.559825 
L 322.422847 236.968119 
L 316.960016 239.25019 
L 311.25939 241.400251 
L 305.335425 243.412847 
L 299.203147 245.282876 
L 292.878109 247.005594 
L 286.376351 248.576631 
L 279.714364 249.992004 
L 272.909045 251.248123 
L 265.977652 252.341801 
L 258.937766 253.270266 
L 250.012563 254.194968 
L 240.981118 254.854211 
L 231.879218 255.245383 
L 222.742927 255.366933 
L 213.608448 255.218381 
L 204.511974 254.800315 
L 195.489549 254.114391 
L 186.576922 253.163328 
L 177.809411 251.950893 
L 170.923252 250.795952 
L 164.169678 249.479718 
L 157.565818 248.005529 
L 151.128421 246.377123 
L 144.873813 244.598632 
L 138.817858 242.674565 
L 132.975914 240.609802 
L 127.362798 238.40958 
L 121.992746 236.079479 
L 116.879379 233.62541 
L 112.035663 231.053595 
L 107.473885 228.370558 
L 103.205614 225.583104 
L 99.241674 222.698301 
L 95.59212 219.723467 
L 92.266208 216.666147 
L 89.272373 213.534094 
L 87.249522 211.140782 
L 85.420638 208.713314 
L 83.788333 206.255151 
L 82.354933 203.7698 
L 81.122485 201.260809 
L 80.092747 198.731757 
L 79.267188 196.186251 
L 78.646986 193.627925 
L 78.233026 191.060427 
L 78.025898 188.487421 
L 78.025898 185.912579 
L 78.233026 183.339573 
L 78.646986 180.772075 
L 79.267188 178.213749 
L 80.092747 175.668243 
L 81.122485 173.139191 
L 82.354933 170.6302 
L 83.788333 168.144849 
L 85.420638 165.686686 
L 87.249522 163.259218 
L 89.272373 160.865906 
L 91.486306 158.510167 
L 94.729957 155.433429 
L 98.299437 152.437258 
L 102.185692 149.529252 
L 106.378865 146.716788 
L 110.868323 144.006998 
L 115.642678 141.406755 
L 120.689822 138.922654 
L 125.996955 136.560994 
L 131.550616 134.327767 
L 137.33672 132.228635 
L 143.340592 130.268922 
L 149.547004 128.453599 
L 155.940218 126.78727 
L 162.504016 125.27416 
L 169.221753 123.918109 
L 176.076391 122.722554 
L 183.050544 121.690528 
L 190.126525 120.824648 
L 199.087337 119.979247 
L 208.143691 119.400199 
L 217.259704 119.089799 
L 226.399255 119.049278 
L 235.526129 119.278795 
L 244.604162 119.77744 
L 253.597385 120.543239 
L 262.470161 121.573157 
L 269.458016 122.58455 
L 276.328551 123.759821 
L 283.064339 125.09599 
L 289.648299 126.589669 
L 296.063731 128.237069 
L 302.294365 130.034012 
L 308.324398 131.975941 
L 314.138537 134.057929 
L 319.722036 136.274698 
L 325.060734 138.620624 
L 330.141091 141.089759 
L 334.950222 143.675839 
L 339.475929 146.372306 
L 343.706736 149.17232 
L 347.63191 152.068782 
L 351.241499 155.054344 
L 354.526346 158.121434 
L 357.47812 161.262274 
L 359.468836 163.661517 
L 361.26513 166.094343 
L 362.864439 168.557282 
L 364.264481 171.046819 
L 365.463258 173.559403 
L 366.45906 176.091449 
L 367.250467 178.639345 
L 367.836349 181.199454 
L 368.21587 183.768124 
L 368.38849 186.341691 
L 368.4 187.2 
L 368.4 187.2 
" clip-path="url(#p2d97dcfe5c)" style="fill: none; stroke: #5c554a; stroke-width: 1.7; stroke-linecap: square"/>
   </g>
   <g id="line2d_3">
    <path d="M 368.4 187.2 
L 368.296418 191.487915 
L 367.985818 195.769711 
L 367.468645 200.039281 
L 366.745635 204.290533 
L 365.817821 208.5174 
L 364.686526 212.713853 
L 363.353365 216.873903 
L 361.820239 220.991617 
L 360.089336 225.061118 
L 358.163125 229.0766 
L 356.044355 233.032335 
L 353.736048 236.922678 
L 351.241499 240.742079 
L 348.564265 244.485088 
L 345.708168 248.146366 
L 342.677281 251.720688 
L 339.475929 255.202955 
L 336.10868 258.588199 
L 332.580339 261.871589 
L 328.895938 265.048441 
L 325.060734 268.114222 
L 321.080201 271.064558 
L 316.960016 273.89524 
L 312.706059 276.602229 
L 308.324398 279.181664 
L 303.821286 281.629862 
L 299.203147 283.943333 
L 294.47657 286.118774 
L 289.648299 288.153083 
L 284.725222 290.043356 
L 279.714364 291.786897 
L 274.622874 293.381218 
L 267.721364 295.270959 
L 260.706937 296.886608 
L 253.597385 298.224068 
L 246.410738 299.279946 
L 239.165224 300.051566 
L 231.879218 300.536968 
L 224.5712 300.734924 
L 217.259704 300.64493 
L 209.963274 300.267215 
L 202.700416 299.602736 
L 195.489549 298.65318 
L 188.348961 297.420953 
L 181.296764 295.909183 
L 174.350842 294.121702 
L 167.528813 292.063044 
L 162.504016 290.344206 
L 157.565818 288.478206 
L 152.721264 286.467708 
L 147.977265 284.315578 
L 143.340592 282.024888 
L 138.817858 279.598907 
L 134.415516 277.041095 
L 130.139849 274.355101 
L 125.996955 271.544759 
L 121.992746 268.614077 
L 118.132936 265.567237 
L 114.42303 262.408587 
L 110.868323 259.142632 
L 107.473885 255.774033 
L 104.24456 252.307595 
L 101.184956 248.748264 
L 98.299437 245.10112 
L 95.59212 241.371364 
L 93.066869 237.56432 
L 90.727286 233.685417 
L 88.57671 229.740192 
L 86.618207 225.734272 
L 84.854574 221.673373 
L 83.288325 217.563289 
L 81.921697 213.409883 
L 80.756638 209.219083 
L 79.79481 204.996867 
L 79.037587 200.74926 
L 78.486048 196.48232 
L 78.140981 192.202137 
L 78.002878 187.914818 
L 78.071935 183.626478 
L 78.348054 179.343237 
L 78.830842 175.071206 
L 79.519609 170.816479 
L 80.413373 166.585128 
L 81.510859 162.383189 
L 82.8105 158.216658 
L 84.310443 154.091479 
L 86.008547 150.013537 
L 87.90239 145.988652 
L 89.98927 142.022565 
L 92.266208 138.120935 
L 94.729957 134.289329 
L 97.377002 130.533214 
L 100.203565 126.857948 
L 103.205614 123.268775 
L 106.378865 119.770817 
L 109.718792 116.369064 
L 113.220628 113.068369 
L 116.879379 109.873442 
L 120.689822 106.788841 
L 124.646523 103.818967 
L 128.743835 100.968057 
L 132.975914 98.24018 
L 137.33672 95.639226 
L 141.820031 93.168907 
L 146.419453 90.832747 
L 151.128421 88.63408 
L 155.940218 86.576042 
L 160.847978 84.66157 
L 165.844699 82.893395 
L 170.923252 81.274041 
L 177.809411 79.350361 
L 184.81069 77.700212 
L 191.909333 76.327778 
L 199.087337 75.236541 
L 206.326495 74.429267 
L 213.608448 73.908005 
L 220.914727 73.674077 
L 228.226803 73.728074 
L 235.526129 74.069862 
L 242.794194 74.698572 
L 250.012563 75.612611 
L 257.16293 76.80966 
L 264.227159 78.286683 
L 271.187335 80.039934 
L 278.025804 82.064966 
L 283.064339 83.759033 
L 288.017463 85.600685 
L 292.878109 87.587294 
L 297.63934 89.716026 
L 302.294365 91.983844 
L 306.836542 94.387512 
L 311.25939 96.923601 
L 315.556598 99.588492 
L 319.722036 102.378383 
L 323.749761 105.289294 
L 327.634026 108.317072 
L 331.36929 111.457396 
L 334.950222 114.705786 
L 338.371714 118.057608 
L 341.628884 121.508079 
L 344.717085 125.052277 
L 347.63191 128.685144 
L 350.369202 132.401497 
L 352.925055 136.196035 
L 355.295822 140.063343 
L 357.47812 143.997903 
L 359.468836 147.994102 
L 361.26513 152.046238 
L 362.864439 156.14853 
L 364.264481 160.295125 
L 365.463258 164.480106 
L 366.45906 168.697504 
L 367.250467 172.941299 
L 367.836349 177.205439 
L 368.21587 181.483838 
L 368.38849 185.770393 
L 368.4 187.2 
L 368.4 187.2 
" clip-path="url(#p2d97dcfe5c)" style="fill: none; stroke: #c34a22; stroke-width: 2; stroke-linecap: square"/>
   </g>
   <g id="line2d_4">
    <defs>
     <path id="mc1fd329eed" d="M 0 2.25 
C 0.596707 2.25 1.169055 2.012926 1.59099 1.59099 
C 2.012926 1.169055 2.25 0.596707 2.25 0 
C 2.25 -0.596707 2.012926 -1.169055 1.59099 -1.59099 
C 1.169055 -2.012926 0.596707 -2.25 0 -2.25 
C -0.596707 -2.25 -1.169055 -2.012926 -1.59099 -1.59099 
C -2.012926 -1.169055 -2.25 -0.596707 -2.25 0 
C -2.25 0.596707 -2.012926 1.169055 -1.59099 1.59099 
C -1.169055 2.012926 -0.596707 2.25 0 2.25 
z
" style="stroke: #000000; stroke-opacity: 0"/>
    </defs>
    <g clip-path="url(#p2d97dcfe5c)">
     <use xlink:href="#mc1fd329eed" x="78" y="187.2" style="fill: #221e17; stroke: #000000; stroke-opacity: 0"/>
    </g>
   </g>
   <g id="line2d_5">
    <g clip-path="url(#p2d97dcfe5c)">
     <use xlink:href="#mc1fd329eed" x="368.4" y="187.2" style="fill: #221e17; stroke: #000000; stroke-opacity: 0"/>
    </g>
   </g>
   <g id="line2d_6">
    <defs>
     <path id="mc38b772695" d="M 0 4.5 
C 1.193414 4.5 2.338109 4.025852 3.181981 3.181981 
C 4.025852 2.338109 4.5 1.193414 4.5 0 
C 4.5 -1.193414 4.025852 -2.338109 3.181981 -3.181981 
C 2.338109 -4.025852 1.193414 -4.5 0 -4.5 
C -1.193414 -4.5 -2.338109 -4.025852 -3.181981 -3.181981 
C -4.025852 -2.338109 -4.5 -1.193414 -4.5 0 
C -4.5 1.193414 -4.025852 2.338109 -3.181981 3.181981 
C -2.338109 4.025852 -1.193414 4.5 0 4.5 
z
" style="stroke: #fbfaf8; stroke-width: 0.8"/>
    </defs>
    <g clip-path="url(#p2d97dcfe5c)">
     <use xlink:href="#mc38b772695" x="223.2" y="73.660013" style="fill: #c34a22; stroke: #fbfaf8; stroke-width: 0.8"/>
    </g>
   </g>
   <g id="line2d_7">
    <defs>
     <path id="m84e201c7fa" d="M 0 2.5 
C 0.663008 2.5 1.29895 2.236584 1.767767 1.767767 
C 2.236584 1.29895 2.5 0.663008 2.5 0 
C 2.5 -0.663008 2.236584 -1.29895 1.767767 -1.767767 
C 1.29895 -2.236584 0.663008 -2.5 0 -2.5 
C -0.663008 -2.5 -1.29895 -2.236584 -1.767767 -1.767767 
C -2.236584 -1.29895 -2.5 -0.663008 -2.5 0 
C -2.5 0.663008 -2.236584 1.29895 -1.767767 1.767767 
C -1.29895 2.236584 -0.663008 2.5 0 2.5 
z
" style="stroke: #000000; stroke-opacity: 0"/>
    </defs>
    <g clip-path="url(#p2d97dcfe5c)">
     <use xlink:href="#m84e201c7fa" x="223.2" y="300.739987" style="fill: #c34a22; fill-opacity: 0.5; stroke: #000000; stroke-opacity: 0"/>
    </g>
   </g>
   <g id="line2d_8">
    <defs>
     <path id="mae3eac4217" d="M 0 1.75 
C 0.464105 1.75 0.909265 1.565609 1.237437 1.237437 
C 1.565609 0.909265 1.75 0.464105 1.75 0 
C 1.75 -0.464105 1.565609 -0.909265 1.237437 -1.237437 
C 0.909265 -1.565609 0.464105 -1.75 0 -1.75 
C -0.464105 -1.75 -0.909265 -1.565609 -1.237437 -1.237437 
C -1.565609 -0.909265 -1.75 -0.464105 -1.75 0 
C -1.75 0.464105 -1.565609 0.909265 -1.237437 1.237437 
C -0.909265 1.565609 -0.464105 1.75 0 1.75 
z
" style="stroke: #000000; stroke-opacity: 0"/>
    </defs>
    <g clip-path="url(#p2d97dcfe5c)">
     <use xlink:href="#mae3eac4217" x="223.2" y="187.2" style="fill: #221e17; stroke: #000000; stroke-opacity: 0"/>
    </g>
   </g>
   <g id="text_1">
    <text style="font-size: 9px; font-family: 'Georgia', 'Times New Roman', 'DejaVu Serif', serif; fill: #5c554a" transform="translate(35.923969 184.567781)">equinox</text>
    <text style="font-size: 9px; font-family: 'Georgia', 'Times New Roman', 'DejaVu Serif', serif; fill: #5c554a" transform="translate(40.580062 194.683781)">(δ = 0)</text>
   </g>
   <g id="text_2">
    <text style="font-size: 10px; font-family: 'Georgia', 'Times New Roman', 'DejaVu Serif', serif; text-anchor: start; fill: #c34a22" x="237.72" y="68.587263" transform="rotate(-0 237.72 68.587263)">Sun, June solstice</text>
   </g>
   <g id="text_3">
    <text style="font-size: 9px; font-family: 'Georgia', 'Times New Roman', 'DejaVu Serif', serif; text-anchor: start; fill: #5c554a" x="237.72" y="310.447424" transform="rotate(-0 237.72 310.447424)">December solstice</text>
   </g>
   <g id="patch_2">
    <path d="M 223.2 115.577059 
Q 223.2 96.344548 223.2 77.112036 
" style="fill: none; stroke: #1e3d52; stroke-width: 1.3; stroke-linecap: round"/>
    <path d="M 225.6 110.777059 
L 223.2 115.577059 
L 220.8 110.777059 
" style="fill: none; stroke: #1e3d52; stroke-width: 1.3; stroke-linecap: round"/>
    <path d="M 220.8 81.912036 
L 223.2 77.112036 
L 225.6 81.912036 
" style="fill: none; stroke: #1e3d52; stroke-width: 1.3; stroke-linecap: round"/>
   </g>
   <g id="text_4">
    <text style="font-size: 11px; font-family: 'Georgia', 'Times New Roman', 'DejaVu Serif', serif; text-anchor: end; fill: #1e3d52" x="213.036" y="99.311215" transform="rotate(-0 213.036 99.311215)">δ = +ε</text>
   </g>
   <g id="text_5">
    <text style="font-size: 9.5px; font-family: 'Georgia', 'Times New Roman', 'DejaVu Serif', serif; fill: #5c554a" transform="translate(279.414065 236.298664) rotate(-345)">celestial equator</text>
   </g>
   <g id="text_6">
    <text style="font-size: 10.5px; font-family: 'Georgia', 'Times New Roman', 'DejaVu Serif', serif; fill: #c34a22" transform="translate(142.307455 100.276873) rotate(-24)">ecliptic</text>
   </g>
  </g>
 </g>
 <defs>
  <clipPath id="p2d97dcfe5c">
   <rect x="41.7" y="12.96" width="363" height="348.48"/>
  </clipPath>
 </defs>
</svg>
